<svg>
  <path
     d="m 86.723316,419.37663 c -0.117163,0 -1.345098,-0.18358 -1.345098,-0.18358 1.405823,0.58575 2.633774,1.70657 5.211125,1.94086 1.288684,0 8.903592,-2.81165 9.489367,-3.39742 1.64013,-1.64013 1.17151,-3.04596 3.51456,-4.10034 2.81167,-1.28868 4.56895,0.23431 4.92041,0.23431 2.2259,-0.70291 1.87444,-2.81167 3.86603,-2.34306 2.92882,0.82007 -2.69451,1.52299 2.92882,2.22591 2.22589,0.35145 2.57735,-2.57736 3.63172,-3.63173 1.17153,-1.05437 10.77804,-4.92042 12.18387,-5.03755 4.10034,-0.35146 7.96636,0.11713 12.301,0.11713 1.28869,0 2.57736,-0.7029 3.86605,-0.58575 0.35146,0 0.58575,0.46862 0.93721,0.58575 0.58576,0.23432 1.28868,0.35146 1.87444,0.46862 1.99158,0.23432 3.39742,-2.2259 4.9204,-2.81166 1.64014,-0.82007 1.87445,2.22591 3.39742,1.05438 0.35146,-0.23431 0.11716,-0.82007 0.46862,-0.93722 0.2343,-0.11716 0.35146,0.4686 0.58576,0.58576 0.70291,0.2343 1.52298,0.46861 2.34306,0.35146 1.99158,0 3.04596,-1.75729 5.15471,-1.75729 0.82007,-0.11716 1.64012,0.58576 2.57735,0.70291 2.6945,0.23431 5.74047,-0.23431 8.55212,0.35146 3.16313,0.70292 3.86605,4.6861 6.56055,4.56894 4.80325,-0.2343 1.28868,-0.4686 3.28028,-1.87442 2.22588,-1.52299 6.09192,0.35145 8.20067,-1.87445 1.87444,-1.9916 -1.99159,-1.87444 3.04596,-2.34305 1.64013,-0.11716 0.58576,1.28868 1.52299,1.87444 0.93722,0.35146 1.99159,0.11715 2.92881,0.35146 0.11714,0 0.11714,0.2343 0.2343,0.2343 0.35146,0.35146 0.70291,0.82007 1.17153,0.82007 5.38901,0.58575 0.70291,-0.58576 3.39743,-2.92882 1.28867,-1.05437 7.61491,3.51457 8.90358,3.86605 1.05437,0.23429 2.81166,-1.64014 3.74888,-1.40584 2.10874,0.58577 3.63173,0.58577 4.80325,0.35145 0,0.23432 -0.11715,0.35145 0,0.46861 0,0.2343 0.23431,0.35146 0.35146,0.58578 0.35146,1.05436 -2.46019,0.93721 -2.92881,1.17151 -1.05437,0.46861 2.2259,0.46861 0.35145,1.9916 -1.05436,0.93721 -2.46019,0.70291 -3.39742,1.99158 -0.4686,0.70292 1.87444,0.35146 2.34306,1.05438 0.11715,0.2343 -1.40583,7.38061 -1.40583,8.31783 -0.23431,2.57735 1.28867,3.28027 1.05437,5.85762 -0.11716,2.46021 -1.28868,0 -0.82007,2.81166 0.11715,0.82007 1.9916,0.82007 1.87444,1.40583 L 71.378218,430.19305 c -0.117155,-0.93723 0,-3.56277 0,-4.5 -0.117155,-0.82006 -0.617155,-3.17993 -0.5,-4"
     id="algeria"
     fill="#dccfbe"
     fill-rule="nonzero"
     style="stroke:#000000;stroke-width:0.5" />
  
        </svg>