<svg>
  <path d="M92.0576185,102.422817 L92.2653543,102.494945 C92.6764546,102.647347 93.5654982,103.028511 93.6968692,103.515651 C94.0379864,104.780515 95.5012343,104.98149 95.4141771,105.389074 C95.3125041,105.865403 93.6711035,106.294444 93.3846322,106.40385 C92.7689455,106.639117 92.2264523,107.099278 91.9795613,107.301537 L92.1304547,107.594993 C92.1697049,107.6695 92.2152616,107.73965 92.3191868,107.862312 L92.4088883,107.965044 L92.3698556,107.965044 C92.7213134,108.433714 93.1892234,108.784804 93.6578365,108.550485 C94.360752,108.199035 94.5941798,107.028512 95.2970872,106.677063 C95.3849537,106.61873 95.4792371,106.576272 95.5702997,106.56003 C96.2077711,106.446316 96.9067384,107.248019 97.5217875,107.14548 C98.3418583,107.14548 98.9264823,106.559973 99.6293896,106.67712 C100.449452,106.794275 100.916995,107.613725 101.61991,107.848011 C101.944325,108.064298 102.567678,107.681539 102.753804,107.897804 L102.790801,107.965044 C103.259161,108.785114 103.493447,109.955049 103.259161,110.892275 C103.259161,111.243725 102.790801,111.360504 102.790801,111.594807 L102.921872,112.091189 C104.040089,116.177696 103.542781,110.229243 104.898411,114.522038 C105.367033,115.810722 102.322441,117.56636 102.322441,117.56636 C104.314033,117.097738 106.420752,115.573322 106.069302,120.259411 C105.600681,124.828362 102.32294,122.366441 101.38573,123.420823 C100.565651,124.240869 101.152687,126.114063 99.0439482,125.762605 C98.7159134,125.762605 98.445601,125.533209 98.1923867,125.275018 L97.873049,124.942984 L97.7169346,124.747837 L97.560812,124.591714 C97.7820976,125.144932 98.7344725,125.697377 98.4448463,126.151808 L98.3804414,126.230965 C97.9118202,126.933815 96.5073869,126.347793 95.8044796,126.816406 C95.4530218,127.167864 96.7411907,127.401594 96.7411907,127.870215 C96.8583542,128.807425 96.2338065,130.133441 96.2338065,131.070651 C96.35097,131.89073 97.4437221,132.28015 97.4437221,133.100196 C97.4437221,133.640913 96.612319,133.748418 96.4844108,134.31462 L96.4679782,134.466243 C96.3508392,134.934864 97.0925668,135.363659 96.8582807,135.832281 C96.5068229,136.301025 95.5704223,135.246651 95.3361199,135.715256 C95.0066282,136.154589 95.8094313,136.593195 96.007595,137.128943 L96.0386512,137.237417 L96.0386512,138.330251 C96.1557902,139.853237 96.3901826,140.398003 95.9215695,141.920989 C92.7791144,146.494436 94.0627221,147.256371 90.7306033,150.390439 C90.2940501,150.746695 89.9500719,149.921834 89.8329248,150.390439 C89.5986223,151.210518 90.8967313,152.139251 90.4964316,153.161556 C90.4964316,153.278703 89.598745,153.083556 89.598745,152.966409 C89.2472872,152.146354 89.0139248,153.200842 87.8424044,152.732229 C87.3737831,152.615074 87.3743144,151.912665 86.9056932,151.79551 C86.0856142,151.561199 83.5104125,152.849687 82.9246605,152.146779 C82.8075052,151.91246 83.393012,151.912714 83.393012,151.67842 C83.5101673,151.32697 82.5735787,152.029755 82.222121,151.912599 C80.4648485,151.795452 80.0373444,151.326831 78.3972027,151.912599 C78.1628921,152.029738 78.6704153,152.029501 78.6704153,152.380959 C78.5532599,152.966719 76.5628049,153.78603 76.5628049,153.78603 C76.0941918,153.78603 76.1727477,153.317613 75.704151,153.43476 C74.8840801,153.786218 73.9091619,154.566365 73.2062463,155.034978 C70.7460501,156.323662 71.8591319,152.457406 70.2399902,152.849319 C69.779764,153.087815 70.8340801,154.517351 70.3570801,155.386248 C70.0056223,155.854869 69.4206877,155.308003 68.8349193,155.65946 C68.4834616,155.893763 68.2497313,156.596106 67.7811183,156.713262 C67.5468649,156.713262 67.7031918,156.596237 67.468873,156.479082 C67.2345706,156.244763 66.9226441,155.971632 66.5711946,156.088787 C66.3368757,156.32309 66.4933172,156.713196 66.1418676,156.830351 C65.0392524,156.940608 63.1774857,156.359242 62.3762512,156.388137 L62.2388921,156.401025 C61.3016496,156.518237 60.5220338,156.479016 59.7019548,156.596172 C57.3589057,156.830474 60.9909493,154.956733 59.1165134,155.308191 L58.1333455,155.636553 C57.042111,155.994042 55.5383619,156.452632 55.3696523,156.283935 C54.9010311,155.581027 58.9054834,153.790861 59.8190447,152.615139 C59.9362,152.380894 59.4679057,152.381025 59.2335951,152.263869 C58.2670065,152.95991 56.1243935,153.755703 52.4033962,153.161556 C52.2862409,153.161556 53.0660774,152.654425 54.5890556,152.185812 C54.8233662,152.185812 55.2525624,151.561444 55.2525624,151.327158 C55.2525624,151.210003 54.9012354,151.093035 55.0183826,150.975888 C56.0727477,150.038662 55.6030801,151.561632 57.008903,150.975888 C57.7118104,150.741586 59.7022082,150.624946 59.2335951,150.039177 C59.116448,149.922022 53.8476223,150.624619 53.6133117,150.624619 C52.5589384,150.390308 51.739824,148.751826 51.8569793,147.580297 C51.9741264,147.111684 52.9105924,148.048771 53.2620501,147.814477 C53.6134997,147.580158 53.0278703,147.229215 53.0278703,146.877766 C53.2621728,145.823401 55.1349003,146.40952 56.1892817,146.175226 C57.0093444,146.058079 58.0623935,146.175537 58.6481537,145.589785 C59.1167749,145.238327 57.4775733,144.418706 56.8918131,144.770155 C56.7746659,145.004458 57.1261155,145.472629 56.8918131,145.589785 C56.7746659,145.706932 52.520854,145.278046 51.8179466,144.340828 C51.7007913,144.106518 53.2619193,143.36515 53.49623,143.247995 C53.7304016,143.130847 53.496091,142.623586 53.7304016,142.506431 C54.3161619,142.155104 55.9546768,142.272251 56.7747232,142.389406 C57.8291046,142.389406 58.5305651,143.481978 59.4677749,143.950591 C60.4049929,144.419213 57.7111891,142.038635 58.179794,141.101425 C58.5312599,140.281346 59.9357095,140.867433 60.7557559,140.515975 C61.2243771,140.281673 61.223854,139.579322 61.6924752,139.462174 L64.9319439,139.930534 L65.1358555,139.699675 C65.2688721,139.543555 65.3613499,139.397123 65.2051482,139.345084 C64.8536986,139.227929 64.3857886,139.696411 63.9171673,139.579264 C63.448546,139.462109 63.0976687,139.111093 62.8633662,138.759635 C62.7462109,138.525332 62.9805215,138.291341 62.8633662,138.174193 L62.0209349,138.337534 C60.9830319,138.529104 59.3174109,138.801547 58.9994234,138.642545 C59.1109629,138.60558 59.8847504,138.620695 60.1703144,138.52552 C61.1075243,138.056899 61.8090665,137.471907 62.7462763,137.12045 C62.9805787,136.886139 63.448685,137.237605 63.6829875,137.12045 C64.1516087,136.651828 64.2681264,135.832779 64.8538866,135.247027 C65.0881973,135.012708 65.4391401,134.895815 65.7905978,134.778668 C66.0249003,134.544422 64.9710992,134.778856 64.7367967,134.427398 C64.2681755,133.841638 65.7903608,133.373858 66.2589575,132.905237 C66.6104071,132.436616 66.8440883,131.851501 67.4298485,131.734346 C67.7812981,131.617207 67.8980202,132.554033 68.2494698,132.436877 C69.1866877,132.436877 70.1224507,132.085853 70.9425215,131.617256 C70.7950065,131.598406 70.0058104,131.673038 70.0058104,131.383076 C70.0058104,131.031627 70.8254316,131.149084 70.8254316,130.797635 C70.7082845,130.446177 67.7565869,131.143918 65.3222381,130.212185 C63.4283144,129.832853 65.4673335,128.778365 65.2051482,127.636223 C65.1685433,127.50442 63.890903,128.081474 63.2926932,128.455845 C62.6778485,128.840621 62.2807286,127.881202 62.1608267,127.831371 C61.7490174,127.660174 63.3411264,127.154401 63.4878403,126.894659 C63.8015324,126.339357 62.5096033,127.001817 62.0047123,126.972717 C60.9949221,126.914392 60.8730992,126.348619 60.4044943,125.645703 C59.8495924,123.542654 62.629121,123.655191 62.7462763,123.655191 C62.8634316,123.538035 62.2778594,123.186896 62.3950065,123.069741 C62.8636278,122.24967 63.4483008,121.430629 64.385527,121.196311 C65.2055896,120.962008 65.4388294,121.742728 66.3760474,121.742728 C66.610358,121.742728 66.8443417,121.196425 66.9614888,120.962131 C66.7046905,118.584332 64.3466251,120.650474 64.1123144,119.596093 C63.7971183,118.844335 65.1184016,118.957567 65.7125406,119.010651 C66.2132054,118.501583 64.9710338,117.566613 64.8538866,117.449458 C64.8538866,117.039431 66.0656414,116.243221 65.6735079,116.278567 L65.585544,116.290871 C64.9045286,116.414004 63.4951237,117.200204 65.4783608,114.639316 C65.009764,114.170695 64.0735515,116.161738 63.6049302,115.693117 C63.1363253,115.224496 64.3854044,114.48352 64.6197068,113.897752 C64.736854,113.429082 63.9165951,113.468548 64.9709684,113.234245 C66.0253499,112.999943 71.5276605,112.999256 72.1134125,114.522226 C72.4648703,115.342297 71.9959548,116.629722 72.6988621,116.864008 C73.4017695,117.098311 73.4010828,115.693305 73.9868431,115.341847 C75.0412245,114.756095 78.0849084,118.269267 78.2020556,117.917817 C78.5535134,117.097738 77.3823689,116.161984 77.4995243,115.224766 C77.7338267,114.170384 81.2854098,114.522292 81.2854098,114.405136 C82.222636,114.053678 82.9243417,113.351711 83.5101019,112.648796 C83.8615597,112.180183 81.7537613,112.648935 81.7537613,112.414616 L81.6691616,112.1216 C81.4529303,111.448478 81.6071938,112.871703 80.2316005,112.765886 C79.9972409,112.765886 80.3486905,112.297657 80.3486905,112.063354 L80.3459709,111.942481 C80.3391588,111.831531 80.3152829,111.712084 80.2316005,111.712084 C79.7629956,111.47779 77.3822463,111.361575 77.7337041,109.955744 C78.4366114,107.612687 80.8166741,110.190046 81.5195896,109.955744 C81.9882027,109.721441 79.880151,109.019278 80.2316005,108.550673 C80.7001973,108.081954 81.5583199,108.784853 82.1440638,108.667698 C82.7298322,108.55055 81.7149493,107.653117 81.363467,107.301659 C81.1291646,107.067422 82.0659411,107.301847 82.1830883,106.95039 C82.2067695,105.686875 78.0036142,107.029959 84.0955515,104.218313 C84.4470011,104.101158 84.9149275,104.452428 85.3835324,104.569575 C87.2259084,104.593248 88.075824,102.890801 89.481655,103.828011 C89.8660019,104.102586 89.1031032,104.41835 89.4383345,104.996745 L89.5206877,105.115992 C89.8020747,105.467687 89.746358,106.187384 89.2474752,106.872332 C88.7486087,107.557281 87.8033798,108.199346 87.8033798,108.199346 L88.0808107,108.153651 C88.5911695,108.060418 89.6668029,107.819037 90.1061292,107.379717 C90.2232845,107.262569 90.2535052,106.974496 90.340309,106.71621 C90.7333008,105.546668 89.852854,104.933188 90.4183662,104.062191 C90.9420174,103.255706 91.8845749,103.727245 91.9405286,103.476741 C92.0821662,102.842343 92.0576185,102.422817 92.0576185,102.422817 Z" id="dublin" stroke="#000000" stroke-width="0.5" fill="#EF7F72" fill-rule="nonzero"></path>
</svg>