<svg>
        <path d="M212.424057,150.508215 C212.847364,150.48411 213.180135,150.503219 213.399801,150.547182 C213.648754,150.605758 213.861788,150.737423 214.063307,150.89845 C214.264825,151.059477 214.440515,151.256999 214.609723,151.483896 C214.941919,151.929335 215.252434,152.476726 215.546437,152.967027 C215.701694,153.225947 215.845798,153.457128 216.014794,153.669562 C216.137045,153.823239 216.253787,153.961833 216.385171,154.074005 L216.522181,154.176949 L216.561148,154.176949 L216.740635,154.290428 C216.771462,154.307589 216.802716,154.322493 216.834356,154.333068 C217.045292,154.403509 217.275111,154.398138 217.536892,154.333068 C217.667782,154.300595 217.819779,154.250137 217.966219,154.176949 C218.024795,154.674844 217.928388,155.289278 217.77107,155.933288 C217.692411,156.255292 217.607145,156.577922 217.497862,156.909031 C217.388554,157.240141 217.27099,157.562833 217.146594,157.884775 C217.045574,158.14726 216.941856,158.399793 216.839707,158.640729 L216.405029,159.641114 C216.189135,160.138684 216.034278,160.528931 215.975702,160.733947 C215.756049,161.319705 215.995061,162.28853 215.975702,162.919613 C215.97183,163.045832 215.927867,163.17571 215.897642,163.270881 C215.837255,163.461158 215.741648,163.544089 215.507345,163.544089 C215.289565,163.544089 215.088384,163.541466 214.882869,163.505121 C214.314496,163.404493 213.767842,163.192883 213.16556,163.192883 L212.997184,163.195439 C212.821769,163.203124 212.640646,163.233919 212.592477,163.357322 L212.580114,163.427062 C212.533934,163.565612 212.596551,163.710225 212.682527,163.850724 L212.736233,163.934449 L212.736233,163.973416 L212.848962,164.129485 C212.866304,164.155474 212.881486,164.181491 212.892352,164.207595 C212.937564,164.304863 212.963792,164.383509 212.931319,164.480803 C212.931319,164.521768 212.883484,164.546373 212.853259,164.558862 C212.796544,164.563858 212.699513,164.566356 212.619081,164.558862 L212.480539,164.546627 C212.414991,164.544549 212.355852,164.553767 212.306843,164.59783 L212.248697,164.658145 L212.228908,164.714856 L212.228908,164.714856 C212.162964,164.824689 212.098892,164.935296 212.072789,165.027094 C211.991208,165.313354 212.095832,165.493978 212.306968,165.65157 C212.402447,165.722836 212.51001,165.802103 212.638935,165.866367 L212.775325,165.924779 L212.814292,165.924779 C213.449659,166.146481 214.342439,166.2741 214.944853,166.581245 L215.156077,166.705374 L215.195044,166.705374 C215.401839,166.852711 215.553953,167.045093 215.606565,167.28436 L215.624372,167.407909 C215.741586,168.140107 215.679226,168.727577 215.507345,169.203278 C215.421404,169.441128 215.335489,169.634778 215.195107,169.827754 C215.048542,170.037215 214.883506,170.20194 214.68772,170.37417 C214.504786,170.535098 214.31587,170.661779 214.102274,170.803497 C213.951167,170.905245 213.799811,170.997779 213.642021,171.091071 L212.698645,171.642841 C212.464048,171.7834 212.228971,171.930395 211.994667,172.091479 C211.862903,172.179343 211.791588,172.253593 211.760489,172.325658 C211.666318,172.484237 211.794698,172.59693 211.994667,172.715955 C212.087989,172.771533 212.189754,172.817245 212.306905,172.872074 C212.541134,172.981794 212.794746,173.125162 212.970411,173.262372 C213.146076,173.399581 213.253361,173.525713 213.16556,173.730729 C213.121634,173.833243 213.013999,173.935931 212.892352,174.042967 C212.83828,174.090552 212.765602,174.147074 212.691111,174.200598 L212.463087,174.355205 L212.463087,174.355205 L212.424119,174.394172 L212.424119,174.394172 C212.072252,174.597901 211.625927,174.810597 211.175167,174.979618 C210.472694,175.243035 209.720476,175.429428 209.22368,175.487005 C209.058081,175.506239 208.935921,175.501618 208.833382,175.487005 C208.773458,175.487005 208.708532,175.477624 208.647556,175.466078 L208.560174,175.448038 L208.521207,175.448038 C208.132647,175.352129 207.828433,175.075839 207.510738,174.827404 L207.350314,174.706472 L207.311347,174.706472 C207.155853,174.596689 207.018718,174.49184 206.84299,174.433264 C206.813765,174.418651 206.774922,174.424521 206.764931,174.433264 L206.764931,174.472231 L206.764931,174.472231 C206.758686,174.516244 206.806396,174.596627 206.84299,174.70641 C206.871966,174.794224 206.874464,174.899061 206.881957,174.979618 L206.884037,175.020147 L206.884037,175.020147 L206.881957,175.057678 C206.875463,175.103264 206.882082,175.116253 206.84299,175.135737 C206.491535,175.252889 206.12573,175.228534 205.789187,175.213797 C205.66579,175.208384 205.558686,175.21524 205.449481,175.22859 L205.2818,175.252764 C205.122646,175.272872 204.998913,175.281989 204.852473,175.369791 C204.782657,175.404761 204.740442,175.458716 204.735446,175.52591 C204.702436,175.685051 204.852473,175.896586 204.852473,176.072326 L204.720935,176.322435 L204.720935,176.322435 L204.657324,176.462624 C204.618232,176.551424 204.588007,176.612248 204.579265,176.696802 C204.571896,176.766319 204.589007,176.833375 204.618232,176.891951 C204.79396,177.214118 205.074936,177.587854 205.398827,177.984784 L205.736551,178.394625 C205.793726,178.465089 205.850635,178.536633 205.906214,178.60926 C206.01737,178.754513 206.121799,178.895309 206.22352,179.043485 L206.374571,179.272766 L206.374571,179.311733 C206.674619,179.787271 206.933914,180.275874 207.038076,180.833893 C207.142302,181.391912 207.106519,181.984927 206.842928,182.629262 C206.755064,182.834277 206.623374,183.031774 206.49166,183.214708 L206.354333,183.388539 L206.354333,183.388539 L206.062333,183.722095 L206.062333,183.761062 C205.92295,183.928347 205.79753,184.094157 205.672035,184.268449 C205.527544,184.464609 205.415563,184.632706 205.320767,184.853895 C205.271059,184.953399 205.251451,185.061034 205.242708,185.127103 C205.232342,185.201041 205.2527,185.242007 205.281675,185.283222 C205.33526,185.359558 205.419715,185.383858 205.537918,185.394361 L205.632943,185.400249 L205.67191,185.400249 C205.766056,185.403663 205.860069,185.407299 205.944331,185.417707 L206.062208,185.439216 L206.101175,185.439216 C206.183086,185.468088 206.255195,185.519944 206.261706,185.612694 L206.257294,185.673395 L204.032598,187.663912 C203.974147,187.663912 203.932058,187.631564 203.915572,187.585853 C203.885971,187.503522 203.880226,187.382711 203.837512,187.312644 C203.809061,187.266183 203.786805,187.238581 203.681393,187.273677 C203.538138,187.625494 203.510661,187.845085 203.564366,188.015242 L203.564366,188.05421 L203.564366,188.05421 L203.599696,188.115814 L203.599696,188.115814 L203.642426,188.171236 C203.709957,188.272052 203.793487,188.345465 203.915634,188.405415 C204.137773,188.514511 204.409232,188.572025 204.657199,188.717653 C204.781183,188.790467 204.91542,188.906494 205.008467,189.029891 C205.101452,189.153312 205.166647,189.296567 205.203616,189.498248 C205.240585,189.699929 205.247579,189.932221 205.203616,190.239813 C205.189003,190.298389 205.159403,190.35022 205.125556,190.395932 C205.091835,190.441644 205.056115,190.476365 205.008529,190.512959 L204.969562,190.551926 L204.969562,190.551926 C204.882298,190.612251 204.758989,190.657213 204.657324,190.708045 C204.491064,190.791138 204.33141,190.895226 204.227997,191.020283 C204.185782,191.071365 204.166923,191.108459 204.149937,191.176402 C204.149937,191.234978 204.169421,191.342313 204.227997,191.48864 C204.271395,191.604596 204.330495,191.722709 204.411993,191.856504 L204.501205,191.996027 L204.384178,191.996027 C203.540686,191.943421 202.678185,192.096039 202.04826,191.999201 L201.847245,191.95706 L201.808277,191.95706 C201.662475,191.913371 201.521893,191.813055 201.41798,191.722881 C201.362152,191.674422 201.303576,191.631957 201.261861,191.566762 C201.136716,191.371226 201.076766,191.095208 201.105742,190.708108 C201.125088,190.450037 201.198352,190.137499 201.300891,189.771394 C201.332614,189.644475 201.375203,189.546083 201.45701,189.459156 C201.530186,189.376787 201.603387,189.329827 201.691188,189.264007 L201.813762,189.16713 L201.813762,189.16713 L201.925367,189.068858 C202.008359,188.995819 202.088417,188.930849 202.120515,188.83468 C202.149866,188.776104 202.120016,188.743256 202.081548,188.717653 C202.004713,188.666446 201.836441,188.651833 201.73028,188.600626 C201.6772,188.575023 201.652221,188.542175 201.652221,188.483599 C201.70119,188.189766 201.818589,187.93195 201.965981,187.668306 L202.081548,187.468826 C202.176668,187.307873 202.265082,187.165118 202.354756,187.000469 C202.444406,186.835819 202.530359,186.66881 202.588935,186.493082 C202.621158,186.428649 202.66637,186.362379 202.745054,186.297933 L202.862081,186.219874 L202.862081,186.219874 L202.997821,186.113302 C203.127806,186.005752 203.227056,185.895992 203.174319,185.790547 C203.031545,185.603831 202.873498,185.451702 202.712022,185.307971 L202.549843,185.166071 C202.382892,185.019278 202.230561,184.886867 202.061768,184.770137 L201.886337,184.658684 L201.84737,184.658684 C200.42595,183.835287 198.725751,183.829442 197.319919,183.565851 C197.217417,183.551213 197.102851,183.47449 197.007681,183.370702 C196.912523,183.266877 196.822274,183.14689 196.734472,182.980405 C196.625993,182.774747 196.532986,182.537405 196.443593,182.286177 L196.067601,181.195116 C195.94168,180.835876 195.828703,180.536392 195.72926,180.363147 L195.630016,180.20661 C195.60844,180.17599 195.59002,180.161557 195.563642,180.170325 C195.176417,180.256378 194.967767,180.415257 194.822077,180.560623 C194.792685,180.591763 194.745475,180.611635 194.709015,180.63593 L194.665958,180.677649 L194.665958,180.716617 L194.626991,180.794676 L194.626991,180.794676 L194.607674,180.859364 L194.607674,180.859364 L194.588023,180.989825 C194.574535,181.068609 194.563377,181.139932 194.556328,181.206186 L194.549056,181.302063 C194.545559,181.38262 194.541313,181.415593 194.510089,181.458182 C194.478815,181.500771 194.410985,181.549106 194.31494,181.536241 C194.122864,181.510575 193.77864,181.34128 193.105018,180.989825 C193.064271,180.962754 193.034413,180.941654 193.026773,180.909402 L193.026958,180.833831 L193.026958,180.833831 C193.053086,180.709598 193.216075,180.576734 193.378226,180.404504 C193.474502,180.302242 193.567714,180.205995 193.634016,180.110139 L193.690464,180.014206 L193.690464,179.975239 C193.740048,179.869977 193.769523,179.781089 193.690464,179.70203 C193.541102,179.585915 193.426261,179.57751 193.300167,179.585004 C193.079427,179.598892 192.867305,179.724549 192.675691,179.936271 L192.294769,180.362346 C192.229525,180.431732 192.162034,180.498679 192.090244,180.560747 C191.98256,180.653857 191.901528,180.712932 191.778006,180.755896 C191.654522,180.79861 191.494844,180.831708 191.348679,180.794863 C191.202514,180.758007 191.05605,180.668095 190.880322,180.521655 C190.850972,180.492367 190.856592,180.436851 190.880322,180.365536 L191.004478,180.033915 C191.017278,179.99829 191.028385,179.96506 191.036441,179.936209 C191.044767,179.906317 191.048098,179.891691 191.045323,179.878526 L191.036441,179.858149 C191.029947,179.847325 191.027782,179.833614 191.018401,179.825677 L190.997474,179.819182 C189.943096,179.511665 189.57804,179.70002 189.514343,180.053361 C189.450634,180.406702 189.674334,180.942764 189.748522,181.302313 C189.773251,181.422162 189.771627,181.503456 189.748522,181.575521 C189.740529,181.60075 189.726041,181.63622 189.709555,181.65358 C189.680204,181.673064 189.643735,181.692548 189.592528,181.692548 C189.542153,181.709284 189.483175,181.720741 189.43058,181.726708 L189.358349,181.731515 L189.319382,181.731515 C189.281331,181.726103 189.245,181.707313 189.211426,181.685988 L189.163263,181.653456 C189.107809,181.615113 189.045986,181.571025 189.007144,181.497337 C188.968302,181.423611 188.951191,181.334286 188.929084,181.224128 C188.83327,181.161181 188.718625,181.129168 188.596068,181.106669 L188.343638,181.068009 L188.304671,181.068009 C188.144865,181.04322 187.986602,181.003779 187.873224,180.93253 L187.797284,180.872861 C187.428915,180.572946 187.180387,180.476859 187.002235,180.450438 L186.93863,180.443533 L186.899662,180.443533 L186.714694,180.455175 C186.655172,180.458305 186.596009,180.45715 186.531883,180.441111 L186.431305,180.404566 C186.197002,180.34599 185.962886,180.111862 185.72877,179.936209 C185.55318,179.804507 185.397048,179.708088 185.221383,179.74106 C185.151567,179.747555 185.096051,179.766789 185.026234,179.81912 C184.967783,179.877696 184.931189,179.972741 184.909208,180.053298 C184.887351,180.133806 184.880232,180.209417 184.87024,180.287477 L184.850558,180.361357 L184.850558,180.361357 L184.766874,180.540858 C184.762151,180.547415 184.756285,180.552372 184.747939,180.555689 L184.51491,180.590771 C184.477344,180.595101 184.438977,180.598403 184.401883,180.599652 C184.145673,180.602587 183.799301,180.564332 183.543229,180.404504 C183.415199,180.324583 183.318667,180.201349 183.230991,180.053236 C183.197094,179.996034 183.094605,179.955068 182.957783,179.897117 C182.547302,179.723338 181.802839,179.533772 181.474652,179.38973 C181.15241,179.248286 180.658462,178.783838 180.537938,178.374957 C180.491602,178.241431 180.490228,178.128975 180.537938,178.023689 C180.596511,177.894553 180.65606,177.80098 180.730807,177.716214 L180.811146,177.633391 C180.910525,177.53049 180.999488,177.459287 181.123384,177.399213 C181.371176,177.279189 181.668165,177.236849 181.982039,177.243094 C182.279309,177.248739 182.554039,177.308259 182.86908,177.361448 L183.113902,177.399213 L183.152869,177.399213 C183.568058,177.453792 184.065291,177.478396 184.635999,177.360245 C184.679962,177.367489 184.726049,177.425815 184.792118,177.477272 L184.943808,177.59546 C184.971154,177.618654 184.998945,177.64407 185.026297,177.672421 C185.518271,178.18283 186.239504,179.18961 186.509427,179.584879 C186.549768,179.643954 186.60135,179.700657 186.665546,179.740998 C186.819647,179.837717 187.012331,179.878003 187.214823,179.891527 L187.407049,179.897117 C187.731689,179.894119 188.041517,179.829548 188.031525,179.78009 C187.996367,179.597818 187.918183,179.472536 187.836376,179.350763 C187.790698,179.278515 187.74492,179.215754 187.69076,179.158886 L187.602198,179.077554 L187.563231,179.077554 L187.363073,178.914486 L187.363073,178.914486 L187.250993,178.843376 L187.212025,178.843376 L186.821728,178.648227 L186.821728,178.648227 C186.382159,178.443786 185.931475,178.203638 185.806954,177.945692 C185.786222,177.902728 185.769236,177.871504 185.767987,177.828665 C185.760119,177.775709 185.781226,177.724627 185.806954,177.672546 C185.841176,177.603354 185.907495,177.561015 185.963073,177.516427 C186.013656,177.480207 186.057494,177.45935 186.119192,177.438367 C186.299666,177.376919 186.536442,177.338077 186.743668,177.360308 C187.114482,177.400025 187.446204,177.516427 187.446204,177.516427 L187.349076,177.457412 C187.273611,177.407899 187.169573,177.331266 187.094936,177.243219 C186.997018,177.127653 186.956927,176.984873 187.055969,176.891951 C187.088941,176.860977 187.140023,176.835373 187.212088,176.813891 C187.422792,176.750907 187.574125,176.827944 187.70756,176.935035 L187.836564,177.04807 C187.929049,177.132312 188.013478,177.192886 188.109772,177.243219 C188.188593,177.284684 188.285187,177.309413 188.38298,177.282186 C188.72016,177.188315 188.97923,177.151046 189.241635,177.048007 L189.320678,177.010898 L189.320678,177.010898 L189.397754,176.969948 C189.53266,176.900976 189.681436,176.80764 189.811556,176.681008 L189.90514,176.57965 C189.998974,176.466121 190.086176,176.432274 190.178349,176.423531 C190.454742,176.397616 190.784627,176.705108 191.54439,176.61868 C191.905154,176.57767 192.054026,176.526032 192.139497,176.452257 L192.227853,176.371261 C192.236337,176.362472 192.243179,176.353798 192.246925,176.345472 C192.251921,176.331484 192.246064,176.319868 192.246925,176.306505 C192.26491,176.250552 192.266034,176.227821 192.246925,176.189478 L192.207958,176.111418 L192.207958,176.111418 L192.048583,176.155689 C191.900702,176.193529 191.667769,176.245281 191.427363,176.267537 C191.2938,176.280027 191.163934,176.280027 191.037066,176.267537 C190.874227,176.251922 190.688163,176.202017 190.509539,176.138996 L190.33453,176.072389 L190.295563,176.072389 C190.14344,176.008467 189.996675,175.932639 189.850788,175.849867 L189.632057,175.721121 L189.59309,175.721121 C189.212274,175.488098 188.882448,175.21575 188.61449,175.013534 L188.461227,174.901496 C188.263224,174.763022 188.080502,174.62055 187.916427,174.486231 L187.758692,174.35508 L187.719724,174.35508 C187.513048,174.179564 187.360226,174.007371 187.212337,173.847693 C186.768685,173.368657 186.56563,172.970591 186.509802,172.637771 C186.485728,172.49466 186.496852,172.360309 186.521043,172.242454 L186.548769,172.130384 L186.548769,172.052449 C186.576996,171.975077 186.62583,171.917625 186.665796,171.857301 L186.684086,171.773501 C186.688236,171.762658 186.694397,171.75218 186.704763,171.740274 C186.728993,171.701806 186.785695,171.684446 186.82179,171.662214 C186.971644,171.599767 187.174494,171.603104 187.375128,171.594275 L187.524326,171.584155 C187.641415,171.576786 187.748762,171.564671 187.836564,171.506095 C188.137574,171.325497 188.353368,171.066939 188.578129,170.76453 L189.014256,170.164713 C189.088168,170.06424 189.163538,169.964472 189.241635,169.866846 C189.892738,169.156542 190.549412,168.310864 191.154092,167.407972 C191.454066,166.961671 191.723115,166.53649 191.973717,166.08096 C192.224319,165.62543 192.461495,165.154238 192.637223,164.714919 C192.81295,164.217024 192.909807,163.619013 192.988491,162.95858 C193.078235,162.204723 193.147557,161.369478 193.25301,160.556873 L193.339758,159.953289 L193.339758,159.797295 C193.398971,159.451336 193.483388,159.144443 193.573937,158.821552 C193.755072,158.175768 194.012819,157.572849 194.393562,157.104243 C194.422787,157.074892 194.427658,157.089255 194.471621,157.104243 L194.510588,157.104243 L194.510588,157.104243 L194.547173,157.125618 L194.547173,157.125618 L194.627615,157.182302 L194.666583,157.182302 C194.779076,157.249745 194.933346,157.329678 195.09591,157.338421 C195.039332,157.490369 194.997492,157.615189 194.978883,157.728719 C194.91084,158.088005 195.043192,158.256363 195.44724,158.392224 L195.594354,158.440574 C195.635735,158.452955 195.673613,158.462228 195.720448,158.470284 C195.912662,158.593131 195.950255,158.791239 195.837475,159.0167 C195.704099,159.283327 195.741131,159.28219 195.954502,159.602147 C196.167798,159.922103 195.905768,160.298899 196.30577,160.538861 C196.680713,160.763766 196.599249,160.929295 197.22471,160.64154 L197.359573,160.577828 C197.588987,160.467028 197.72522,160.428718 197.821754,160.422393 L197.86696,160.421709 L197.86696,160.460676 C197.947067,160.565064 197.984986,160.701412 198.101138,160.811944 C198.204651,160.910361 198.37296,160.991044 198.647555,160.968063 C198.758287,160.958696 198.845576,160.983425 198.920763,161.00703 C199.146236,161.077858 199.236123,161.246454 199.31106,161.319268 C199.320469,161.36095 199.309395,161.418607 199.294713,161.474099 L199.272093,161.553447 C199.261602,161.589916 199.250986,161.632131 199.233126,161.670473 L199.194158,161.748533 L199.194158,161.7875 C199.121713,161.900608 199.02451,162.004001 198.915849,162.10979 L198.803861,162.216828 L198.686834,162.333854 C198.383489,162.603965 198.061034,162.793406 197.867209,162.841241 C197.814254,162.854355 197.750183,162.85448 197.71109,162.841241 C197.593689,162.801462 197.526807,162.680189 197.437882,162.568033 C197.385551,162.502088 197.324914,162.435144 197.242733,162.411914 L197.203766,162.411914 L197.203766,162.411914 C197.10365,162.396314 196.997177,162.412164 196.813469,162.528941 C196.74028,162.631455 196.681329,162.733269 196.65735,162.841179 C196.598524,163.06629 196.647982,163.272954 196.735409,163.504684 L196.781463,163.610842 L196.781463,163.610842 L196.891528,163.816922 L196.891528,163.85589 C197.124782,164.288089 197.453681,164.667746 197.516004,164.948723 C197.535613,165.036674 197.515754,165.130008 197.477037,165.221931 C197.438357,165.313841 197.361072,165.402842 197.281888,165.495139 C196.895762,165.945274 196.149213,166.413219 196.032936,166.627002 C196.03177,166.64532 196.033269,166.666968 196.045203,166.683991 L196.071903,166.705061 L197.594064,167.368567 C197.712964,167.510136 197.637452,167.651455 197.828242,167.680805 L198.067388,167.699346 C198.286567,167.716957 198.590016,167.756099 198.766394,167.882964 L198.843016,167.954013 C198.889205,168.010919 198.957503,168.052193 199.051946,168.099306 L199.155254,168.149162 L199.194221,168.149162 C199.308245,168.205385 199.442261,168.284517 199.549177,168.403477 L199.623548,168.50043 C199.646196,168.535484 199.670231,168.561767 199.697357,168.584757 L199.740575,168.617457 C199.791657,168.657798 199.829126,168.67928 199.896694,168.695516 C200.013221,168.723493 200.1576,168.717623 200.326021,168.695516 L200.631559,168.655985 C200.811285,168.63082 200.947595,168.602677 201.067586,168.539397 C201.155575,168.50043 201.20291,168.453469 201.262735,168.383278 C201.302618,168.336526 201.342557,168.282196 201.37552,168.21683 L201.418854,168.11007 C201.464466,167.964792 201.53738,167.830567 201.653033,167.680743 C201.767711,167.535777 201.93587,167.358126 202.160419,167.173356 C202.427845,166.953316 202.963021,166.718225 203.64355,166.236642 L203.895554,166.021997 C204.075279,165.862237 204.18506,165.743217 204.268026,165.612166 C204.387301,165.423724 204.450248,165.273363 204.502204,165.104779 C204.554286,164.947037 204.569023,164.80608 204.580264,164.675452 C204.590006,164.561594 204.594619,164.477068 204.589204,164.399821 L204.580264,164.324184 C204.568024,164.2312 204.559781,164.173748 204.541297,164.129035 C204.517192,164.07046 204.438508,164.029994 204.385178,163.972916 C204.699002,163.757123 204.928272,163.487261 205.360921,163.38747 C206.050834,163.22826 206.253801,162.949058 206.069753,162.889386 L206.024427,162.880083 C205.788237,162.853844 205.428472,162.646553 205.553414,162.458282 L205.5951,162.411726 C205.822546,162.212718 205.751718,161.635503 205.438981,161.123745 C205.154674,160.658567 204.906649,160.758029 204.714376,160.566359 L204.658386,160.499269 C204.459378,160.214957 204.002124,160.215969 203.916821,159.874793 C203.83153,159.533642 203.435499,159.473942 202.667869,159.445465 C202.558585,159.478063 202.486833,159.517655 202.39466,159.562492 L202.277634,159.60146 L202.277634,159.60146 C202.165415,159.625315 202.071057,159.621818 201.965396,159.640427 L201.887336,159.640427 L201.887336,159.640427 C201.774069,159.656164 201.662899,159.658662 201.575098,159.640427 L201.206942,159.570833 C200.698402,159.482944 200.385089,159.454723 200.248087,159.289159 C200.204748,159.224314 200.170027,159.132228 200.170027,159.015951 C200.252004,158.442194 200.425133,158.412783 200.560129,158.161909 L200.599354,158.079237 C200.64569,157.976648 200.693525,157.855737 200.716381,157.64991 C200.730132,157.526726 200.658929,157.313342 200.599354,157.064463 C200.542652,156.830048 200.50256,156.595819 200.521295,156.439987 L200.447976,156.255851 C200.344443,156.01593 200.325099,156.068993 200.252935,155.78674 L200.170027,155.425214 L200.248087,155.347154 L200.326146,155.308187 C200.436831,155.325095 200.559358,155.327053 200.564255,155.149378 L200.560325,155.074009 C200.555329,155.031544 200.561573,154.9947 200.560325,154.956982 L200.638384,154.800863 L200.638384,154.800863 C200.703117,154.684211 200.761593,154.568995 200.833533,154.449595 C200.961201,154.244692 201.128623,154.033045 201.30189,153.825119 C201.683757,153.231105 203.13685,152.589981 204.931656,152.029751 C205.714262,151.785468 206.544328,151.568762 207.390531,151.366245 C208.222533,151.167124 209.03625,150.99703 209.810375,150.858858 C210.695066,150.700957 211.538991,150.57652 212.190408,150.523887 L212.424057,150.508215 Z" id="holland" stroke="#000000" stroke-width="0.5" fill="#DCCFBE" fill-rule="nonzero"></path>
        </svg>