<svg>
        <path d="M379.192965,181.427662 C379.481422,181.548357 379.406553,181.839144 379.68306,182.028447 C380.25194,182.415905 380.653638,182.064267 381.300665,182.069074 C381.559245,182.551853 381.696493,182.384744 382.113281,182.597597 C382.489106,182.790243 382.585106,183.076722 382.447548,183.465766 C382.222458,183.529673 381.769123,183.4567 381.674807,183.689278 C381.53733,184.026054 381.998455,184.104153 382.200289,184.213632 C382.625553,184.44639 383.030022,184.664589 383.488441,184.81736 C383.494409,184.599455 383.440327,184.379466 383.443842,184.161872 C383.814967,183.89846 384.136515,184.186755 384.499899,184.334523 L384.734837,184.428962 C384.958221,184.513183 385.160837,184.55817 385.467738,184.486698 L385.587389,184.446532 C385.718841,184.398291 385.902306,184.326685 385.932698,184.333411 C386.326098,184.415768 386.04436,184.521324 386.232877,184.728414 C386.585512,185.116967 386.897831,184.866635 387.297869,184.835311 C387.346262,184.509251 386.987079,184.001654 386.735986,183.838967 C387.024673,183.228169 387.557782,183.971678 387.759992,184.199163 C388.150384,184.638275 388.75421,184.829057 389.358469,184.913916 L389.539172,184.934095 C389.712252,184.953755 389.920533,184.987303 390.006264,185.085553 C390.173537,185.276327 390.044798,185.627793 390.103335,185.891621 C390.201403,186.328101 390.039011,187.078387 390.407128,187.414362 C390.840837,187.810763 391.234613,187.655401 391.439488,188.260346 C391.508087,188.463913 391.538463,188.764526 391.738531,188.896084 C391.951891,189.035687 392.160722,188.95418 392.391068,189.064436 C392.748714,189.236564 393.126575,189.708537 393.216526,190.060632 C393.378428,190.696534 393.573493,190.705248 394.109161,190.989782 C394.323411,191.103823 394.498589,191.3317 394.701869,191.451144 C394.988054,191.617174 395.20049,191.430014 395.518327,191.52751 C395.769052,191.604181 395.848107,191.743497 395.925358,191.92507 L396.110972,192.357201 C396.191993,192.520618 396.309035,192.656381 396.527357,192.535411 C396.5303,192.481199 396.53545,192.426504 396.542283,192.372504 C396.759322,192.295845 397.038019,191.957499 397.045229,191.720744 C397.127782,191.673218 397.208578,191.662395 397.300384,191.68852 L397.352275,191.845248 C397.680338,191.809019 399.098218,192.284621 399.085834,191.66551 C399.33391,191.59382 399.716455,191.505627 399.946131,191.475398 C400.21694,191.441245 400.470624,191.583112 400.761747,191.541283 C401.047392,191.500354 401.289493,191.244896 401.562542,191.460757 L401.828022,191.901243 C401.864512,192.206065 401.864316,192.30115 401.609782,192.45518 L401.483771,192.530905 C401.364808,192.607532 401.275911,192.695832 401.297406,192.876512 C401.321717,193.089341 401.582717,193.299913 401.687447,193.495215 L401.841487,193.768653 C401.917422,193.911592 401.984207,194.066215 401.965392,194.165074 L401.728993,194.237063 C401.283021,194.380956 400.889736,194.584106 401.390766,195.091681 C401.524147,195.228717 401.675896,195.300193 401.787125,195.444463 C401.898371,195.588946 401.870627,195.702063 401.917916,195.863188 C402.017569,196.208687 402.318501,196.203054 402.517131,196.448768 C402.690542,196.662218 402.718351,196.987477 402.803439,197.257951 C402.899847,197.566011 403.045891,197.844545 403.112921,198.159357 C403.223529,198.67991 402.876207,198.40221 402.689635,198.72361 C402.591895,198.895673 402.759616,199.247286 402.817667,199.473475 L402.834738,199.561845 C402.856973,199.785071 402.943948,199.928703 402.995725,200.130054 C403.027221,200.251894 403.009858,200.387613 403.017428,200.538741 L403.029393,200.678376 C403.059999,200.956988 403.148946,201.42096 403.371452,201.409223 C403.457267,201.689294 403.546351,202.196719 403.440657,202.466057 C403.336899,202.731112 403.081719,202.927346 403.042433,203.207229 C403.176804,203.270253 403.327572,203.240703 403.466635,203.230616 C403.552147,203.360466 403.652504,203.552916 403.676708,203.706512 C403.854665,203.718005 404.238616,203.909425 404.342717,204.083172 C404.424771,204.221335 404.446956,204.40221 404.526444,204.548564 C404.629627,204.738537 404.617986,204.697683 404.742099,204.733601 L404.804332,204.754591 C404.997763,204.828381 405.277711,204.96545 404.978782,205.215488 C404.803629,205.361801 404.320556,205.296308 404.502975,205.698104 C404.60322,205.695161 404.797842,205.76239 404.923064,205.811351 L405.001409,205.843264 C405.104602,205.885559 405.40345,206.021654 405.404578,206.191371 C405.405395,206.3287 405.206921,206.478986 405.198052,206.645654 C405.188136,206.814708 405.224104,207.060569 405.306698,207.195733 C405.54745,207.584286 405.860349,207.130681 406.086828,207.577984 C406.149787,207.702717 406.1577,207.980638 406.258515,208.065578 C406.383518,208.168951 406.696809,208.043302 406.850112,208.050839 C406.926223,208.293798 407.319886,208.460376 407.535215,208.47742 C407.708071,208.489313 407.871796,208.395766 408.032038,208.4617 C408.197234,208.529719 408.288714,208.72642 408.426044,208.824447 C408.23809,209.459376 407.213537,208.782741 406.909458,209.255311 L406.790638,209.449664 C406.725059,209.545409 406.659749,209.580112 406.432703,209.59342 C406.150621,209.61048 405.940074,209.491935 405.693689,209.646766 C405.249466,209.925865 405.015513,209.955039 404.799685,209.507138 L404.753643,209.403774 C404.654373,209.163651 404.589084,209.109267 404.368548,208.962202 C404.102651,208.782864 404.064084,208.636215 403.962338,208.337605 C403.569608,208.291657 403.829774,208.820204 403.81085,209.005223 C403.794673,209.176166 403.746837,209.182044 403.815428,209.345507 C403.87376,209.485444 404.030202,209.549589 404.005131,209.752044 C403.884747,209.803093 403.784324,209.825335 403.698894,209.82388 L403.623399,209.815104 C403.648646,209.821107 403.675416,209.82443 403.703905,209.824959 C403.737199,210.167572 403.934128,210.423185 404.09751,210.715362 C404.273439,211.03145 404.366512,211.487466 404.59824,211.76224 C404.906422,212.125845 405.19139,211.813084 405.515365,211.672379 C405.918101,211.497005 406.046144,211.873264 406.220529,212.229643 L406.327433,212.24197 L406.327433,212.24197 C406.387621,212.429899 406.740869,212.591752 406.901022,212.700717 C407.05835,212.808122 407.170764,212.917744 407.285461,213.041845 L407.59858,213.391374 C407.871406,213.707246 408.043659,213.979832 408.035995,214.49649 C407.914123,214.528125 407.721452,214.482398 407.639962,214.502049 C407.521507,214.530561 407.451943,214.62921 407.316975,214.665381 C407.112093,214.718924 406.841422,214.473267 406.632967,214.55788 C406.714907,214.848341 406.249057,215.043635 406.055782,215.146215 C405.783575,215.289349 405.524292,215.466708 405.424523,215.771597 C405.190826,216.489635 405.810534,216.912087 406.122747,217.459918 L406.306647,217.795035 C406.40016,217.960827 406.503673,218.120023 406.651646,218.254861 C406.77548,218.36694 406.895365,218.395698 407.000553,218.541823 L407.096986,218.699686 L407.096986,218.699686 L407.268902,219.033095 C407.408463,219.27706 407.399896,219.666937 407.05403,219.785997 C406.698485,219.908278 406.62279,219.34221 406.266567,219.511877 C406.27488,220.095905 406.746902,220.381493 407.15518,220.720191 C407.612471,221.099049 407.739526,221.622316 408.10412,222.064599 C408.440774,222.474267 408.953169,222.590899 409.287003,223.025016 L409.425714,223.211188 C409.649277,223.526414 409.91762,224.005385 409.505782,224.167967 C408.958294,224.385455 408.313368,223.93073 407.757272,224.236681 C407.69088,224.640422 407.385084,225.160959 407.062523,224.590738 C406.96179,224.411621 407.008678,224.151757 406.821411,224.046112 C406.646014,223.947807 406.340169,224.088537 406.179256,224.159425 C405.704957,224.366946 406.009553,224.706471 406.092483,225.111283 L406.106496,225.199003 C406.152755,225.625403 406.28621,226.069485 406.448243,226.46748 C405.976605,226.779725 405.576877,226.242635 405.091981,226.373809 C405.082114,226.338978 405.069681,226.305136 405.05612,226.271204 C404.818262,226.234632 404.630234,226.104529 404.380997,226.079262 L404.050187,226.037179 C403.940465,226.024886 403.828568,226.01835 403.706324,226.029643 C403.234531,226.070678 402.636796,226.438501 403.019986,226.95397 C403.2387,226.994924 403.461943,227.322774 403.590011,227.496733 C403.782166,227.759016 403.748676,228.106223 403.530599,228.362335 L403.385593,228.521791 C403.073749,228.845466 402.511625,229.311568 402.307482,228.768651 C401.90536,228.569548 401.508281,228.145223 401.14327,227.871046 C400.947828,227.724283 400.94236,227.47355 400.760087,227.330123 C400.577341,227.187454 400.455967,227.252837 400.333619,227.359601 L400.170869,227.50655 C399.810714,227.801049 399.546444,228.162177 399.267272,228.540455 C398.928452,228.999717 398.510937,229.404896 398.221711,229.89997 C398.015995,229.972313 397.987155,230.211496 397.88397,230.349872 C397.760717,230.514357 397.604243,230.619627 397.468875,230.763757 L397.23939,231.031321 C397.146589,231.136234 397.042082,231.242838 396.939665,231.30903 C396.625409,230.98897 396.34224,230.513711 396.243534,230.082937 C396.135665,229.610262 396.22264,229.254005 396.451343,228.838223 L396.6263,228.529847 C396.737258,228.323597 396.781716,228.168405 396.704494,227.872907 L396.663787,227.737117 C396.524398,227.317649 396.404349,226.88251 396.292,226.455439 C396.14648,225.900202 395.725744,226.029128 395.254335,225.905441 C394.883811,225.807076 394.6259,225.549241 394.345308,225.310976 L394.202496,225.194302 C393.888379,224.95015 393.637376,224.706128 393.398283,224.398698 C393.793703,224.010431 393.790098,223.357117 393.724662,222.841837 C393.675487,222.453962 393.542759,222.146225 393.377748,221.825396 L393.16752,221.42815 C392.971866,221.055234 392.661477,220.434635 392.866253,220.008046 C392.94861,219.834839 393.149757,219.718003 393.28085,219.579128 C393.490997,219.356883 393.439678,219.239507 393.516117,218.952357 L393.577993,218.731288 C393.697184,218.342162 393.864923,218.051032 394.360401,218.007733 C394.360401,217.863087 394.326117,217.717281 394.328226,217.573967 L394.430545,217.537975 L394.430545,217.537975 L394.442741,217.431275 C394.628774,217.291518 394.964839,217.302292 395.113736,217.140733 C395.31727,216.919297 395.061861,216.672218 395.10646,216.435831 C395.173695,216.075463 395.451084,216.262853 395.707049,216.155057 C395.979019,216.03921 395.833123,215.814725 395.836425,215.55706 C395.995155,215.450155 396.188561,215.41064 396.371872,215.336319 C396.450248,215.099621 396.36351,214.886793 396.372689,214.639011 C396.533283,214.618395 396.805311,214.543093 396.885812,214.374839 C396.95946,214.221431 396.849769,213.961912 396.857681,213.791014 L396.852935,213.788989 C396.844139,213.959924 396.954395,214.220327 396.880997,214.373515 C396.801125,214.541466 396.528469,214.617071 396.367907,214.637907 C396.359324,214.88542 396.445875,215.098493 396.36709,215.334995 C396.184466,215.409463 395.989965,215.449109 395.831202,215.555785 C395.827932,215.813458 395.974237,216.037886 395.702267,216.153733 C395.446335,216.261749 395.168414,216.073755 395.101678,216.434507 C395.057659,216.670371 395.313125,216.917891 395.108954,217.139409 C394.960057,217.300967 394.624433,217.290136 394.437518,217.430008 L394.425763,217.536651 L394.425763,217.536651 L394.323444,217.572643 L394.323444,217.572643 C394.321401,217.716398 394.355831,217.862204 394.356084,218.006572 C393.770275,218.057556 393.642322,218.455559 393.51136,218.951253 C393.435583,219.238322 393.486681,219.35573 393.275872,219.578049 C393.144755,219.716703 392.943632,219.83376 392.861275,220.006975 C392.657381,220.43345 392.966921,221.054376 393.162959,221.426793 L393.373201,221.824146 C393.538216,222.145007 393.670933,222.452676 393.720125,222.840708 C393.789501,223.357084 393.793106,224.010398 393.397687,224.398665 C393.365561,224.431101 393.330313,224.461109 393.291943,224.489474 C393.255371,224.224084 393.11249,224.18846 392.975112,224.015196 C392.837095,223.840436 392.759005,223.632406 392.585798,223.466245 C392.466289,223.351158 392.30912,223.315714 392.208657,223.157065 C392.128924,223.030559 392.018079,222.796362 392.000717,222.634722 L391.891043,222.670608 C391.666293,222.740581 391.337149,222.808387 391.330253,222.458875 C391.082978,222.378398 390.890226,222.441488 390.655335,222.294169 C390.470651,222.178526 390.306469,222.073199 390.226768,221.85388 C390.06006,221.388651 390.100916,220.853335 389.982837,220.350373 C389.893103,219.967476 389.582805,219.630533 389.354983,219.296656 L389.103882,218.899038 C388.998711,218.727791 388.903153,218.531668 388.973185,218.37048 C389.04373,218.208627 389.325452,218.082807 389.484289,218.01509 C389.438757,217.621943 389.527294,217.21458 389.414545,216.818875 C389.303715,216.432717 389.061737,216.341749 388.714356,216.321417 L388.375369,216.313086 C388.128579,216.306135 387.954483,216.277764 387.754542,216.081588 L387.666984,215.986812 C387.447191,215.727243 387.106809,215.562684 386.751199,215.689926 C386.642169,215.979504 386.781297,216.316559 386.707842,216.600635 C386.596973,217.032136 386.216259,216.828831 385.980134,216.645839 C385.677346,216.412003 385.745766,216.181706 385.578387,215.871553 C385.403954,215.551223 385.053232,215.709177 384.876272,215.377444 C384.787401,215.212869 384.815185,215.069106 384.755725,214.89258 C384.711877,214.762797 384.589781,214.563617 384.491259,214.420016 L384.423379,214.324689 C384.320684,214.186142 384.275545,214.102698 384.062373,214.132477 C383.815401,214.167537 383.88046,214.212708 383.857507,214.457924 C383.814084,214.902995 383.53882,214.596177 383.308302,214.900444 C383.13297,215.131027 383.280575,215.526292 382.83185,215.374134 C382.390033,215.225409 382.071681,214.271703 381.88891,213.865215 C381.732436,213.860965 381.550875,213.883967 381.39888,213.925379 L381.388687,214.033861 L381.388687,214.033861 C381.092725,214.236913 380.749417,214.059414 380.584842,213.757477 C380.517117,213.632204 380.53945,213.341785 380.445109,213.238477 C380.263654,213.041564 379.971289,213.308597 379.888948,212.932804 C379.666891,212.860951 379.420654,212.938526 379.210458,212.799169 C379.011411,212.668624 378.974471,212.354613 378.726223,212.275387 C378.608292,212.236926 378.366837,212.260493 378.224349,212.242616 C378.06682,212.22254 377.912537,212.20521 377.765766,212.198 C377.453381,212.18139 377.101458,212.236542 376.80015,212.198981 C376.521232,212.16339 376.233452,212.03179 375.951673,211.994752 C375.831939,211.979041 375.693544,211.978571 375.556921,211.982049 L375.172793,211.993035 C374.817624,211.994262 374.741725,212.085161 374.516398,211.785954 C374.3757,211.600248 374.244354,211.335684 374.047147,211.19094 C373.847627,211.045583 373.248747,210.995433 373.049717,211.16788 C372.863659,211.329275 372.990403,211.764267 372.598997,211.579608 C372.463695,211.124041 371.93106,210.926319 371.574248,210.73539 C371.358787,210.620597 371.134597,210.688223 370.936531,210.620409 C370.671395,210.529281 370.628921,210.29976 370.598251,210.064281 C370.538798,209.617877 371.012005,208.993649 370.303319,208.788929 C370.099899,208.730335 369.737373,208.746463 369.514752,208.762984 L365.870292,208.869619 C365.506278,208.762256 365.170114,208.686839 364.821452,208.5697 C364.457071,208.44661 364.136275,208.303068 363.830921,208.150428 L363.491252,207.99064 C363.435064,207.962872 363.378651,207.932853 363.321354,207.89806 C363.205997,207.827744 363.116022,207.770989 362.966782,207.789308 C362.77127,207.564251 362.547419,207.391834 362.305695,207.231331 L362.121215,207.11255 C361.773722,206.895471 361.436202,206.675817 361.127226,206.402425 C360.791373,206.105065 360.450223,205.642338 360.028997,205.468101 C359.542466,205.266749 359.620351,205.76676 359.424052,206.050828 C359.217671,206.348664 358.98959,206.107633 358.818655,205.873431 L358.702401,205.707586 C358.292226,205.12176 357.726485,204.550093 356.989401,205.049695 L356.678893,205.26639 C356.47958,205.403802 356.283668,205.522174 356.019232,205.591886 C355.635591,205.69306 355.240654,205.740422 354.862163,205.863488 C354.483142,205.987747 354.173071,206.23082 353.807439,206.374837 C353.391992,206.539616 352.978433,206.396883 352.551084,206.378842 L352.422697,206.375816 C352.149678,206.374808 351.810733,206.416868 351.973531,206.732474 C352.114458,207.005785 352.608567,207.150341 352.398747,207.541272 C352.215616,207.879823 351.66682,207.827589 351.386471,208.0357 C351.14912,208.213076 351.091008,208.680676 350.791319,208.756673 C350.46964,208.837616 350.110065,208.390665 349.882809,208.223474 C349.587632,208.004253 349.249065,207.827082 348.915354,207.678602 C348.062185,207.297439 347.815752,207.895166 347.078014,208.16327 C346.654098,208.317365 346.195213,208.27391 345.754025,208.318174 C345.37546,208.356766 344.980744,208.530038 344.598166,208.475638 C343.906621,208.377847 343.149387,207.448967 342.543052,208.263005 C342.074069,208.892929 342.444921,209.626252 342.684532,210.274994 L342.730417,210.403559 C342.875937,210.827458 343.562986,212.138237 342.913123,212.431371 C342.608635,212.568553 342.148368,212.174515 341.847796,212.119281 C341.520054,212.058533 341.200342,212.138313 340.897344,212.258243 L340.37875,212.483046 C339.801376,212.723475 339.049669,212.933806 339.178204,212.010251 C339.235213,211.595728 339.440684,211.222223 339.470921,210.801071 C339.499597,210.414578 339.44482,210.008147 339.401913,209.625488 C339.321297,208.922605 339.028016,208.211605 338.650728,207.612962 C338.446678,207.288381 338.155605,207.146376 337.832856,206.963204 L337.533122,206.775033 C337.32194,206.645123 337.091526,206.534894 336.862801,206.615989 C336.580654,206.71642 336.504869,207.028943 336.167079,206.95485 C335.762063,206.867163 335.52561,206.546564 335.06442,206.648474 C334.669613,206.735245 334.465123,207.02551 334.281485,207.356237 C334.110223,207.663815 333.917193,207.83958 333.611578,208.01497 L333.602022,208.12315 C332.607183,208.285403 332.982935,209.269232 332.70145,209.962501 C332.537757,210.366471 332.147251,210.415322 331.752354,210.452098 C331.482248,210.477373 330.904384,210.40888 330.847417,210.053858 C330.811,210.052469 330.776431,210.047891 330.740733,210.043305 C330.460719,209.55549 330.118,209.078082 329.635074,208.78212 C329.659703,208.278155 329.919423,207.744071 330.136257,207.407497 L330.167235,207.360249 L330.119434,207.315954 C329.627532,206.840873 328.940975,205.608986 329.661142,204.753643 C329.750574,204.647426 330.456033,204.695033 330.334185,204.35288 L330.294886,204.273398 C329.925845,203.675809 330.30118,203.215477 330.007163,203.04312 C329.548654,202.774322 330.303722,202.78785 330.254659,202.652401 C331.223471,202.465861 330.643817,201.078365 331.218346,200.479322 L331.388592,200.305527 C331.609022,200.078165 331.787573,199.854937 331.736807,199.476038 C331.68046,199.053128 331.321548,198.770319 331.359747,198.311924 C331.459147,197.141114 333.176962,198.155703 333.817629,198.265591 C334.632517,198.406218 335.533571,198.274444 336.373576,198.21357 L336.729411,198.192823 C337.801049,198.147749 338.895967,197.98785 339.966027,198.042995 C340.089665,198.733608 341.22485,198.247076 341.478052,197.939793 L341.597393,197.787883 C341.705947,197.642515 341.729987,197.597318 341.909487,197.533191 L342.107014,197.470812 C342.372354,197.392052 342.667335,197.254003 342.688793,196.923594 L343.347668,196.725021 C343.619415,196.63916 343.87543,196.542221 344.165243,196.377136 C344.439469,196.527741 344.478068,196.304253 344.650531,196.192518 C344.913959,196.021119 344.940916,196.054138 344.947173,195.891954 L344.95452,195.649902 C344.968507,195.375373 344.951005,195.303635 345.18315,195.129594 C345.36888,194.990997 345.687706,195.010877 345.633215,194.694292 C345.779104,194.668722 345.934572,194.64648 346.079153,194.610251 C346.082668,194.425322 346.034815,194.241512 346.042801,194.056706 C346.368698,193.845929 346.662689,193.801951 347.040763,193.706417 C346.897335,193.075232 347.811984,193.280793 348.146202,193.178025 C348.124155,193.105943 348.163736,192.985289 348.143014,192.913264 C348.365373,192.852619 348.683267,192.779123 348.881406,192.891308 C349.024826,192.632204 349.150826,192.105128 349.581354,192.245785 C349.765678,192.305597 350.021569,192.728114 350.24361,192.827229 C350.296613,192.496771 349.84421,192.336504 349.867155,192.056597 C349.901243,191.643087 350.508477,191.841561 350.692262,191.636074 C350.927014,191.373635 350.553665,191.015106 350.902392,190.791619 C351.151924,190.631441 351.733875,190.714975 352.02736,190.639518 C352.11149,190.271 351.634638,189.988027 351.993354,189.645267 C352.22885,189.419907 352.830371,189.508027 353.14542,189.422262 C353.195749,189.219643 353.06285,189.033659 353.011172,188.884109 C353.201905,188.804597 353.336888,188.664578 353.529076,188.587812 C353.533,188.275093 353.270014,187.648673 353.428809,187.460221 C353.483014,187.396796 353.882112,187.312199 353.976992,187.275766 C354.15749,187.207649 354.315387,187.106711 354.481809,187.020496 L354.788631,186.872881 C354.992114,186.769084 355.174482,186.638011 355.221828,186.380638 C355.261131,186.166526 355.120425,185.927891 355.146567,185.710444 C355.173281,185.494052 355.345736,185.442463 355.286267,185.15645 C355.996934,185.497728 356.713296,185.596314 357.459914,185.757527 L357.781817,185.831343 C358.520422,186.013689 359.511093,186.136706 360.268981,186.083973 C361.284232,186.013379 361.924294,186.14385 362.15303,187.264444 C362.340134,188.184259 361.479837,188.63524 360.843501,189.097019 L360.804379,189.352847 C360.780782,189.516675 360.771812,189.672166 360.835409,189.849986 C361.270008,190.089488 361.483891,189.596678 361.839117,189.446278 C362.329752,189.237807 362.732659,189.726071 362.918292,190.077463 L362.945561,190.491324 C363.377684,191.267065 364.148937,189.670444 364.672204,189.603946 C364.792507,189.864234 364.542215,190.350251 364.429278,190.58421 C364.949193,190.601703 365.069398,190.359414 365.492422,190.190777 C365.688142,190.111779 365.920155,190.137128 366.126689,190.084289 C366.397221,190.016826 366.628499,189.868362 366.899708,189.80645 C367.572861,189.653956 368.28373,189.367534 368.686728,188.756433 C369.064147,188.18497 369.454351,187.279886 370.160373,187.088891 C370.61612,186.966251 371.056237,187.031834 371.525978,186.981365 C371.995801,186.931559 372.463523,186.868272 372.932153,186.808706 C373.294719,186.76194 374.097485,186.821515 374.376975,186.580845 C374.895093,186.136738 374.198749,185.85751 373.901659,185.706561 C374.465537,185.507793 374.810545,185.057 375.386946,184.942076 C375.861657,184.846387 376.872559,185.167191 377.103207,184.515529 C377.207807,184.220866 377.04561,184.064163 377.305441,183.794589 C377.483136,183.610575 377.81133,183.540766 377.941172,183.315087 C378.055082,183.114578 378.036975,182.72797 378.059398,182.511202 C378.086602,182.240458 378.249052,182.023395 378.272725,181.756689 C378.570395,181.689733 378.826777,181.275275 379.192965,181.427662 Z" id="lemberg" stroke="#000000" stroke-width="0.5" fill="#EBE084" fill-rule="nonzero"></path>
</svg>