<svg>
        <path d="M302.535766,334.545309 C302.242525,334.338065 301.952063,333.825842 301.885033,333.325886 L301.845459,332.997574 C301.811809,332.616165 301.896675,332.610108 302.316223,332.630213 C302.676449,332.64756 302.909818,332.540819 303.219286,332.198261 L303.32554,332.075188 C303.561078,331.791163 303.839865,331.548641 303.987145,331.493374 L304.035869,331.481711 C304.161501,331.474771 304.256439,331.306166 304.246531,331.106948 C304.236068,330.896466 304.112447,330.751215 303.950995,330.760134 C303.767032,330.770283 303.704735,330.669533 303.705653,330.222912 L303.744077,328.932864 C303.786943,328.164674 304.00428,328.050885 305.704442,327.906219 L307.670275,327.74918 C309.769131,327.574714 312.031793,327.335098 312.698332,327.21652 C314.122482,326.963049 314.875752,327.155319 315.229597,327.863589 C315.811668,329.027566 315.387487,329.930131 313.758316,330.953753 L313.557019,331.077193 C312.997409,331.412613 312.489755,331.86697 312.383725,332.127357 C311.992714,333.089254 312.929542,334.711663 314.094,335.161954 L314.234757,335.210245 C314.468139,335.280152 315.713587,335.843864 317.059266,336.487156 L318.56879,337.206854 C319.842074,337.803375 320.578994,338.10091 322.102828,338.633643 L324.643938,339.508708 C327.183271,340.395673 327.825928,340.749163 329.117163,341.900114 L329.427812,342.18048 C330.905029,343.526886 332.059373,344.186117 334.602669,345.069766 L335.699172,345.441723 C336.866737,345.847944 337.109667,346.05057 337.251161,346.65225 L337.272779,346.750657 C337.377486,347.259121 337.591763,347.532775 338.434904,348.175621 L338.612071,348.309292 C340.950191,350.057564 341.924815,351.03455 342.516142,352.222313 C343.156816,353.509501 343.232875,354.01651 342.821934,354.545316 L342.748948,354.63379 C342.180617,355.286335 341.975881,355.849578 341.92576,356.974888 L341.906762,357.526195 C341.882081,358.056838 341.82982,358.451899 341.779777,358.451899 C341.720643,358.451531 341.470605,358.345624 341.224016,358.21655 C340.977256,358.087485 340.567417,357.990406 340.31267,358.000828 C339.852992,358.019883 338.444708,357.073918 338.095548,356.511717 C337.999033,356.35597 337.920044,355.87118 337.92006,355.434496 C337.91997,354.491817 336.731422,352.001711 336.098308,351.618177 C335.629091,351.334031 333.612334,351.1227 332.338239,351.210797 L332.143572,351.227229 C331.304627,351.312038 331.03618,351.243349 329.946984,350.665886 L329.661102,350.509469 C329.105287,350.195928 328.661393,349.888937 328.621392,349.782962 C328.578406,349.669058 328.756497,349.473942 329.046257,349.307102 L329.159937,349.246076 C329.502632,349.074512 329.747496,348.839401 329.703787,348.723447 C329.594529,348.433608 326.510659,348.188768 325.989027,348.428621 C325.788874,348.52034 325.382674,348.884524 325.040549,349.272396 L324.929251,349.402223 L324.273902,350.190332 L324.114738,349.866751 L323.98594,350.012523 C323.87432,350.147923 323.818683,350.249163 323.859068,350.288883 L323.955633,350.387435 C324.178392,350.631194 324.116397,350.759233 323.607093,351.651512 C323.384988,352.040812 323.154396,352.54563 323.001291,352.961594 L323,353 L322.95523,353.114719 C322.947077,353.133564 322.937938,353.154313 322.927887,353.176836 L322.868678,353.372285 L322.868678,353.372285 L322.848166,353.45658 C322.75421,353.882163 322.598651,354.287213 322.502104,354.356891 C322.469899,354.380149 322.418099,354.40235 322.351066,354.423147 L322.113942,354.942266 C321.803537,355.634405 321.536232,356.291086 321.55273,356.487741 L321.565006,356.65115 C321.558466,356.687184 321.407554,355.730139 320.971703,356.607441 C320.293638,357.971951 320.282823,360.154493 320.801308,361.462526 C321.096147,362.20651 321.700335,362.596063 322.56283,362.601457 L322.948519,362.592512 C323.420483,362.601796 323.769974,362.773249 324.678365,363.412848 L325.227678,363.798534 C325.835933,364.214698 326.46424,364.603056 326.791878,364.763368 L327.192611,364.94051 C327.996508,365.302616 328.141468,365.486312 328.053504,366.032197 L328.01348,366.240782 C327.783763,367.313932 327.969706,370.108943 328.310708,370.710847 C328.619569,371.255351 328.726049,372.207676 328.520717,372.58597 C328.435647,372.743154 328.267399,372.76822 327.778706,372.66254 L327.47894,372.591937 C326.657251,372.386589 326.473025,372.396757 325.660752,372.691918 C324.513959,373.108395 322.698877,374.404272 322.294155,375.095229 C321.740561,376.040515 321.700245,376.366796 322.013243,377.375907 C322.176223,377.901651 322.336302,378.850436 322.368935,379.484499 L322.384714,379.832531 C322.411714,380.610024 322.330902,380.740243 321.817098,381.283698 C321.518322,381.599817 321.063864,381.916364 320.745047,382.038746 L320.632417,382.075158 C320.214027,382.180998 319.866243,382.505856 319.146948,383.487394 L319.007619,383.679234 C318.103294,384.934428 317.946019,385.27176 317.882545,386.091741 C317.846614,386.557638 317.692985,387.161694 317.525153,387.521814 L317.461752,387.644678 L317.114406,388.244956 L315.493678,388.334417 C313.897204,388.422537 313.021441,388.266905 312.740798,387.845531 C312.661997,387.727493 312.557071,387.010084 312.507362,386.251134 C312.472443,385.719957 311.78976,384.662949 311.353914,384.02153 C311.232766,384.264943 311.105751,384.636531 311.02318,385.017332 C310.886676,385.647659 310.515346,386.507997 310.122052,387.105823 L309.762087,387.658158 C308.323185,389.887864 307.643445,391.226728 307.620494,391.873663 L307.620886,391.947986 C307.666221,392.85961 307.259104,394.507084 306.953332,394.648738 C306.464406,394.875332 306.28121,395.684057 306.460155,396.824049 C306.689365,398.282924 308.161629,401.062992 308.733109,401.115725 C309.049458,401.14476 309.132281,401.268414 309.156117,401.747858 C309.179623,402.220532 309.071452,402.428661 308.457747,402.975576 L308.318365,403.098177 C307.641042,403.68739 307.434554,403.981257 307.216138,404.749513 L307.165302,404.935575 C306.932967,405.815728 306.90342,406.011985 307.091198,406.415854 L307.193349,406.620243 C307.365959,406.951444 307.510973,407.300875 307.515796,407.397054 C307.52948,407.672376 307.107052,407.62449 306.900501,407.327311 C306.600681,406.89652 304.878493,406.596545 304.22164,406.860561 L304.059446,406.918818 C303.669667,407.037693 303.359976,406.948573 302.281924,406.488684 L301.608098,406.194657 C300.341446,405.623173 300.003834,405.319196 299.490591,404.440228 L299.407932,404.296542 C298.824689,403.269676 297.946752,402.484109 296.642349,401.822343 C295.989256,401.49115 295.733978,401.464559 294.623185,401.612507 C293.471087,401.765826 293.248049,401.737632 292.249858,401.312147 C291.703995,401.079432 290.962732,400.604313 290.504825,400.202099 L290.147015,399.867181 C289.788439,399.542827 289.453418,399.306768 289.347894,399.312627 C288.902341,399.337215 286.224935,398.00403 286.124087,397.707553 C285.962081,397.232064 284.962252,396.537678 284.189878,396.340052 L284.038752,396.307362 C283.679406,396.244877 283.159779,396.054262 282.802924,395.860176 L282.660894,395.777147 C282.033236,395.379356 281.03806,395.291862 279.851711,395.525748 L279.385394,395.625092 C278.908257,395.711387 278.732343,395.596483 277.879997,394.881185 C276.718458,393.906766 276.260643,392.926011 276.666436,392.281003 C276.789289,392.085692 276.858771,391.635422 276.82085,391.280253 C276.781155,390.907027 276.901417,390.266155 277.106153,389.761011 C277.361131,389.13192 277.625993,388.798969 278.272533,388.333697 L278.458605,388.203202 L279.456975,387.51894 L280.275812,388.285608 C281.190101,389.141817 281.597071,389.205447 282.606444,388.651166 L282.876169,388.496879 C283.393996,388.184233 283.491016,387.993805 283.400115,387.565645 L283.375907,387.462455 C283.211485,386.815171 283.62362,386.458814 284.819273,386.233717 L285.014602,386.199243 L286.175774,386.007104 L286.37803,386.764669 C286.434307,386.967423 286.4891,387.153977 286.516368,387.233163 C286.554534,387.344025 287.429447,387.84733 288.460719,388.351624 L288.924032,388.575382 C290.138151,389.152259 290.555613,389.25673 291.233226,389.219327 C292.064054,389.173469 293.089327,388.74218 293.308932,388.346466 C293.354479,388.263879 293.780467,388.242354 294.368818,388.286217 L294.704529,388.316654 C297.258975,388.587359 300.349721,387.882105 301.908956,386.694547 L302.081954,386.555409 C302.989732,385.783136 303.75958,385.620814 305.010381,385.965425 L305.236229,386.03148 L306.08746,386.293984 L308.630978,384.818458 L309.32372,384.42234 C310.108659,383.981051 310.669659,383.695726 311.033768,383.553449 L311,383.5 L311,383.5 C310.967883,383.43968 311.031256,383.455036 311.156354,383.507625 C311.327437,383.450296 311.441009,383.433245 311.50367,383.454439 C311.779901,383.548075 311.808433,383.574506 311.612656,383.709545 C312.051388,383.895507 312.631314,384.09555 313.035657,383.94876 C313.912351,383.630507 313.995787,383.54546 314.473123,382.485071 C314.716919,381.943219 314.995205,381.105309 315.139474,380.495543 L315.192608,380.249711 L315.405248,379.140537 L314.261627,377.809354 L315.097302,377.184823 C315.77888,376.675533 315.99724,376.580671 316.607059,376.614642 L316.768163,376.625654 C317.22745,376.661785 317.683981,376.623937 317.782662,376.541695 C318.104504,376.273027 318.471518,374.831082 318.430041,373.996975 L318.41232,373.730458 C318.36962,373.25959 318.27398,373.142663 317.956286,373.036583 C317.718068,372.957226 317.422801,372.719556 317.300341,372.508747 C316.959149,371.92119 316.347171,369.621036 316.24424,368.587045 L316.231932,368.426948 C316.172455,367.230708 315.702248,365.963866 314.935948,364.935349 C313.7304,363.316952 313.240329,362.323606 313.024947,361.0132 L312.9897,360.778469 C312.88855,360.036913 312.702575,359.130349 312.576787,358.763621 C312.467454,358.445422 312.218107,358.066568 312.055909,357.730784 C311.95556,357.699652 311.740486,357.400852 311.560262,357.036431 C311.397461,356.707719 311.317006,356.49474 311.304889,356.301395 C310.959238,356.250344 310.57818,356.113742 310.407444,356.030441 C309.928797,355.796821 309.257126,356.056892 308.794898,356.636927 L308.699202,356.766054 C308.458294,357.11609 308.182638,357.403551 308.087643,357.403551 C308.002742,357.403897 307.387823,356.928841 306.657899,356.304191 L306.062147,355.790319 C305.324618,355.166803 304.674363,354.696395 304.54752,354.702381 C304.249736,354.716458 303.09046,354.103706 302.906463,353.835071 C302.754837,353.613324 303.022989,352.606297 303.237052,352.594485 C303.905725,352.557569 302.459986,349.19739 301.228139,347.926076 L300.891066,347.581899 C300.383006,347.07551 300.316904,347.112378 299.983286,347.383616 C299.793645,347.53793 299.509475,347.675049 299.30207,347.718258 L299.205559,347.731681 C298.998975,347.743084 298.735139,347.884967 298.618842,348.047041 C298.47714,348.244649 298.278985,348.30854 297.872527,348.275453 L297.729117,348.260883 C297.271425,348.206229 296.928796,348.270373 296.67718,348.457894 C296.471888,348.611074 296.149662,348.797589 295.961275,348.872646 L295.78342,348.94176 C295.700054,348.971828 295.686833,348.968325 295.742194,348.921927 L295.943896,348.769174 C296.122646,348.637068 296.528627,348.262853 296.845695,347.937496 C297.657338,347.105343 297.482185,346.670401 295.940193,345.687913 L295.493281,345.406982 C294.763864,344.959372 294.639114,344.968171 294.34403,345.193183 C294.138902,345.349632 293.697501,345.492774 293.363602,345.511207 L293.221653,345.517079 C292.827963,345.524352 292.701523,345.415681 292.243773,344.573694 L291.984518,344.088733 C291.118752,342.45558 289.588989,340.138387 289.051172,339.645717 L288.914435,339.518661 C288.709726,339.321677 288.758688,339.308121 289.074771,339.242114 C289.253019,339.205028 289.400279,339.109477 289.435369,339.015864 L289.443191,338.969499 C289.437886,338.862815 289.563755,338.664978 289.723147,338.530134 C289.903694,338.376969 289.989736,338.070291 289.996778,337.542761 L289.996221,337.358646 C289.984531,336.688837 290.050212,336.403315 290.299777,336.136103 L290.37248,336.063406 L290.764916,335.6943 L291.05509,336.254213 C291.275899,336.679728 291.431833,336.798252 291.884743,336.828053 L292.015899,336.834144 L292.686362,336.854351 L292.594221,336.181608 C292.510572,335.570515 292.547937,335.493079 293.001485,335.337815 C293.355832,335.216731 293.734447,335.268761 294.543111,335.563418 L295.047917,335.750363 C295.556317,335.933259 296.004767,336.070713 296.160614,336.08988 L296.198357,336.092008 C296.301266,336.086327 296.423992,336.164558 296.498301,336.275612 L296.536531,336.345774 C296.590076,336.471255 296.753062,336.570546 296.922046,336.589533 L297.006559,336.592084 C297.163317,336.583433 297.392963,336.631089 297.572083,336.704383 L297.695022,336.763681 C297.957542,336.914834 298.110395,336.887327 298.423638,336.632646 C298.610406,336.480826 298.921113,336.344045 299.166216,336.299225 L299.282422,336.284834 C299.500398,336.272803 299.747099,336.175384 299.878652,336.056342 L299.934166,335.995313 C300.038202,335.850071 300.284635,335.765646 300.481654,335.807801 C300.804346,335.876629 301.14006,335.747123 302.046886,335.202864 C302.164833,335.132108 302.296266,334.944939 302.433309,334.71785 L302.535766,334.545309 Z" id="naples" stroke="#000000" stroke-width="0.5" fill="#6E8D4E" fill-rule="nonzero"></path>
</svg>