<svg>
        <path d="M271.360302,-218.946447 C271.360302,-218.712143 271.360302,-218.477838 271.360302,-218.477838 C270.891689,-218.009228 269.837316,-218.712143 269.485858,-218.243533 C268.080035,-216.603397 269.251564,-215.900483 269.251564,-214.3775 C269.251564,-213.44028 269.368703,-212.268755 269.017245,-211.331534 C268.900106,-211.097229 268.080035,-211.565839 268.080035,-211.214382 C268.197191,-210.745772 269.017245,-210.62862 269.017245,-210.042858 C269.134401,-208.988484 267.611422,-208.168417 267.96288,-207.114044 C268.314338,-206.176824 270.540232,-206.059671 268.548649,-204.419536 C267.96288,-203.950926 267.025662,-203.365164 266.322747,-203.716621 C265.736978,-203.950926 266.322747,-205.122451 265.854134,-205.708214 C263.745395,-209.222789 265.268373,-201.256424 262.808169,-208.168417 C262.339564,-209.457095 265.034063,-209.808552 266.205591,-210.277162 C266.557049,-210.394315 265.619831,-209.808552 265.268373,-209.925705 C264.79976,-210.160009 264.916924,-211.331534 264.331147,-211.331534 C263.393937,-211.331534 262.925324,-210.160009 262.105253,-209.925705 C261.168035,-209.691399 261.168035,-211.331534 260.816578,-211.565839 C260.230809,-211.917297 259.410755,-211.800145 258.824978,-212.151602 C257.770613,-212.854517 256.599084,-216.72055 256.481937,-217.540618 C256.364782,-218.243533 257.653458,-218.59499 258.356381,-218.477838 C259.527894,-218.243533 258.356381,-217.423465 258.590684,-216.954855 C259.059297,-216.369093 259.293591,-218.360685 260.113662,-218.360685 C262.339564,-218.243533 262.691022,-217.892075 264.448302,-216.72055 C264.565466,-216.603397 264.214008,-217.072008 264.331147,-217.189159 C264.565466,-217.774922 263.745395,-218.360685 263.159627,-218.59499 C262.573866,-218.829295 261.988106,-218.829295 261.285191,-218.946447 M287.527351,-218.946447 C287.058738,-217.892075 286.707281,-216.603397 285.88721,-216.954855 C285.652907,-217.189159 285.535752,-218.009228 285.652907,-218.946447 M303.225787,-92.4217384 C303.342943,-92.4217384 303.342943,-92.4217384 303.342943,-92.3045831 M322.321646,-72.3795341 C322.321646,-72.3795341 322.20449,-72.3795341 322.20449,-72.3795341 M353.132757,-116.672316 C353.835673,-115.73509 355.475798,-113.509188 354.069975,-113.040583 C352.664144,-112.57197 349.03242,-114.446414 350.203948,-113.392041 C352.429842,-111.517605 347.978046,-108.82309 347.392278,-107.417259 C347.392278,-107.300104 348.798117,-102.262548 347.157975,-102.848308 C342.70618,-104.605605 347.978046,-107.534414 346.45506,-110.111774 C344.112011,-114.212104 340.480278,-112.689117 337.434322,-115.969401 L337.317166,-116.555153 C337.200011,-116.555153 337.082864,-116.555153 336.965708,-116.437997 C336.965708,-116.555153 336.848553,-116.555153 336.848553,-116.672316 L336.848553,-116.437997 C334.505512,-115.969401 334.974109,-113.274886 332.982526,-112.689117 C331.225237,-112.220512 331.928153,-114.680717 329.936553,-112.454815 C329.702259,-112.103357 329.936553,-111.517605 329.819398,-111.048992 C329.702259,-110.931828 328.413575,-108.471632 328.413575,-108.354477 C328.062117,-107.417259 328.765033,-104.371294 328.882188,-103.551223 C328.882188,-103.199766 328.647886,-102.965463 328.647886,-102.614005 C328.647886,-101.91109 328.765033,-101.325338 328.882188,-100.622406 C329.233646,-99.6851962 330.053717,-98.9822807 330.170856,-98.0450545 C330.756624,-93.9447248 329.702259,-96.7563787 328.296428,-95.4677112 C326.656286,-93.8275695 328.179272,-93.3589564 327.710659,-91.3673733 C327.593504,-90.898752 327.124899,-90.6644578 327.007744,-90.1958447 C327.007744,-90.0786894 325.484757,-91.4845123 325.250455,-91.6016676 C324.899005,-91.83597 320.564365,-93.3589564 320.212907,-92.8903515 C319.744294,-92.4217384 320.095744,-91.4845123 319.744294,-91.0159155 C318.338463,-88.555703 316.464019,-90.0786894 314.47242,-89.7272316 C313.886668,-89.7272316 313.066597,-89.1414714 312.597984,-89.4929292 C312.012223,-89.9615422 312.246526,-90.898752 311.895068,-91.4845123 C311.075005,-92.8903515 308.380499,-96.5220845 306.974668,-97.342139 C302.288569,-100.036654 304.397316,-93.0074986 304.397316,-93.0074986 C303.694401,-92.8903515 303.108632,-93.7104142 302.405717,-93.7104142 C302.054259,-93.7104142 301.468499,-93.3589564 301.585646,-93.124654 C301.702801,-93.0074986 301.819956,-92.8903515 301.937112,-92.8903515 L301.702801,-92.8903515 C300.765583,-92.6560409 299.476899,-93.2418093 299.008302,-92.4217384 C298.656828,-91.83597 300.179815,-91.4845123 300.531272,-90.898752 C300.88273,-90.1958447 301.117041,-89.3757738 301.117041,-88.555703 C301.117041,-87.1498719 299.12545,-86.0954986 299.476899,-84.6896757 C299.594063,-83.6353025 303.694401,-83.8696049 299.828357,-81.4094005 C298.773992,-80.7064932 290.690463,-84.6896757 289.050338,-82.5809292 C288.347422,-81.643703 291.276232,-74.9660218 288.933183,-74.0287956 C288.933183,-74.0287956 285.184294,-75.6689373 285.184294,-75.6689373 C284.481379,-75.6689373 282.255485,-71.5685913 282.138338,-70.6313651 C281.904027,-69.3426975 281.904027,-67.7025559 280.966809,-66.5310354 C280.263894,-65.7109728 278.97521,-66.9996403 279.326668,-64.8909019 C279.795281,-62.3135422 282.841253,-62.0792398 281.552569,-58.9161199 C280.849654,-56.9245286 276.983627,-52.3555777 276.280711,-50.2468311 C276.046401,-49.1924659 277.569387,-48.2552398 277.217929,-47.2008665 C277.217929,-47.2008665 274.640569,-44.9749646 274.640569,-44.9749646 C273.70336,-44.5063678 271.828916,-45.5607411 271.360302,-44.5063678 C271.360302,-44.5063678 272.531831,-39.9374087 272.531831,-39.9374087 C272.531831,-39.9374087 271.946063,-36.4228392 271.946063,-36.3056839 C271.946063,-36.3056839 272.29752,-31.9710436 272.29752,-31.9710436 C272.180373,-31.5024305 271.594605,-31.3852834 271.477458,-30.9166703 C270.423084,-27.7535504 268.782951,-24.4732752 267.728578,-21.1930082 C267.025662,-19.0842698 271.946063,-20.2557902 271.126,-14.515327 C270.305929,-9.00915804 267.142817,-14.515327 262.339564,-11.4693542 C260.816578,-10.5321444 258.239226,-6.5489455 257.887768,-4.67451771 C257.770613,-4.08874932 258.473529,-3.62013624 258.356381,-3.15153134 C258.239226,-1.86284741 256.599084,-1.04277657 256.599084,0.245899183 C256.599084,14.4213488 258.356381,-10.1806703 258.356381,3.99477929 C258.356381,4.69769482 257.536311,5.1663079 257.536311,5.86922343 C257.419155,6.68927793 257.887768,7.39220163 258.004924,8.21226431 C258.004924,8.91517984 257.419155,9.73525068 257.536311,10.438158 C257.653458,12.1954469 259.527894,13.7184332 259.762204,15.4757139 C259.996507,18.0530736 258.122071,21.3333406 258.707839,23.7935531 C259.410755,26.4880518 263.86255,26.2537493 264.331147,29.1825668 C264.331147,29.1825668 263.04248,33.8686649 263.04248,33.8686649 C262.105253,34.6887357 259.762204,34.1029755 259.879351,35.2744877 C260.46512,40.3120599 263.511076,39.023376 262.222409,45.7010736 C262.222409,45.7010736 262.339564,49.0984959 262.339564,49.0984959 C261.285191,51.7929946 257.536311,52.0273052 257.302,52.8473678 C257.184853,53.0816785 257.770613,53.1988256 257.770613,53.5502834 C258.004924,54.0188965 258.239226,54.6046649 258.004924,55.0732698 C257.653458,55.7761771 256.481937,55.8933406 256.247627,56.7134033 C255.544711,58.8221499 258.824978,63.508248 256.247627,67.1399728 C255.193253,68.6629591 254.72464,67.4914305 254.373183,66.3199183 C254.490338,66.3199183 254.490338,66.3199183 254.607493,66.2027629 C255.076106,65.8513052 254.373183,64.914079 254.021725,64.4454741 C251.561529,60.5794305 252.850213,66.3199183 248.984169,62.6881771 C248.632719,62.3367193 249.335627,61.6338038 249.335627,61.1652071 C249.335627,60.4622916 248.632719,61.1652071 248.632719,61.1652071 C247.929804,60.1108338 248.164098,58.3535368 248.398417,58.5878474 C248.398417,58.3535368 248.281262,58.2363896 248.281262,58.1192343 C248.046959,56.9477057 247.695501,55.8933406 247.461191,54.721812 C247.344044,54.0188965 248.398417,52.4959101 247.578346,52.4959101 C244.649529,52.4959101 249.687084,56.1276349 246.758275,58.1192343 C246.641128,58.1192343 246.523973,58.002079 246.523973,57.8849319 C246.406817,57.1820163 246.758275,56.3619537 246.523973,55.7761771 C246.172515,55.1904251 245.000986,54.1360518 244.883831,54.721812 C244.766684,55.6590381 245.938204,56.2447902 246.28967,57.064861 C246.523973,57.5334741 245.821057,58.5878474 246.05536,59.1736076 C246.992586,61.6338038 247.695501,60.3451362 246.992586,61.9852616 C246.992586,62.1024169 246.992586,62.4538747 246.758275,62.4538747 C246.523973,62.4538747 246.28967,61.7509591 246.05536,61.9852616 C245.235289,63.508248 246.28967,65.4998474 245.352444,65.4998474 C244.883831,65.4998474 245.469599,63.976861 245.118142,64.2111635 C243.12655,65.4998474 246.875431,66.788515 241.955022,66.788515 C241.369262,66.788515 241.955022,65.6169864 241.486417,65.2655286 C240.900649,64.914079 239.846275,63.6254033 239.494817,64.2111635 C239.14336,65.0312343 240.666346,65.4998474 241.017804,66.3199183 C241.134959,66.671376 237.971839,66.9056703 237.620381,68.0771989 C237.503234,68.5458038 238.79191,69.0144169 238.440452,69.3658747 C237.854692,70.0687902 236.331706,69.48303 235.745937,70.0687902 C235.39448,70.5374033 236.917466,70.6545586 236.800311,71.1231553 C236.097395,75.9264087 235.160177,69.7173324 234.574425,72.1775368 C234.457262,72.4118392 234.925875,72.6461417 234.808719,72.8804523 C234.222951,73.700515 231.176995,77.3322398 231.059839,77.4493951 C230.825537,77.6837057 230.474079,76.980782 230.239768,77.2150926 C229.536853,77.8008529 229.654008,79.3238392 228.716798,79.4409946 C228.013866,79.675297 227.896728,77.6837057 227.076657,77.9180082 C226.256586,78.1523106 226.608044,79.675297 226.022283,80.1439101 C225.55367,80.4953678 224.733599,79.9095995 224.265003,80.1439101 C223.913545,80.2610572 223.796381,80.7296703 223.444932,80.8468256 C222.273403,81.549733 222.624861,80.4953678 220.984728,80.4953678 C220.164657,80.4953678 219.227431,81.7840354 218.758834,81.1982834 C218.290221,80.6125232 220.281812,80.1439101 220.047501,79.4409946 C219.696044,78.8552262 218.993128,80.3782125 218.290221,80.3782125 C217.353003,80.4953678 216.415777,80.1439101 215.478559,79.7924523 C213.486959,78.8552262 217.353003,77.5665504 217.70446,76.7464796 C217.821608,76.2778665 217.001545,75.8092698 216.532932,75.9264087 C216.064319,76.0435722 216.181474,77.0979373 215.595706,77.2150926 C214.89279,77.3322398 214.189875,76.8636349 213.486959,76.5121853 C212.081136,75.9264087 211.261065,73.8176703 210.55815,73.3490572 C210.206692,72.9975995 209.503777,73.2319101 209.035163,72.9975995 C208.215109,72.5289946 206.80927,69.48303 206.926425,68.6629591 C206.926425,67.9600436 207.746496,67.4914305 207.980798,66.671376 C208.097954,65.9684605 207.160728,64.2111635 207.980798,64.4454741 C208.918025,64.6797766 208.215109,66.671376 209.152319,67.0228256 C209.620932,67.3742834 209.738079,65.8513052 210.323847,65.6169864 C210.55815,65.3826921 210.792452,65.6169864 211.026763,65.8513052 C210.792452,65.2655286 210.675305,64.6797766 210.440995,64.0940163 C210.323847,63.2739455 212.081136,63.508248 212.549749,62.9224877 C212.784052,62.6881771 211.495376,62.9224877 211.612523,62.57103 C211.846834,61.9852616 212.432594,61.6338038 213.018346,61.3995014 C213.721262,60.9308883 215.127101,61.282346 215.478559,60.4622916 C215.947163,59.4079101 212.666896,60.9308883 211.963981,60.2279809 C211.495376,60.8137493 211.261065,60.8137493 211.261065,59.7593678 C211.378221,58.8221499 213.369804,58.5878474 213.13551,57.7677766 C212.784052,56.8305504 211.378221,56.596248 210.440995,56.8305504 C208.918025,57.2991635 209.503777,60.9308883 207.980798,60.8137493 C207.160728,60.8137493 207.746496,59.2907629 207.395038,58.7049946 C207.160728,58.3535368 206.692123,58.1192343 206.22351,57.8849319 C206.22351,57.8849319 206.22351,58.002079 206.340665,58.002079 C206.22351,58.002079 206.22351,58.002079 206.106354,58.1192343 C206.106354,58.002079 206.22351,57.8849319 206.22351,57.8849319 C205.872052,57.6506213 205.520594,57.4163188 205.520594,57.064861 C205.520594,56.4790926 206.926425,57.5334741 207.395038,57.1820163 C208.097954,56.596248 207.863635,55.0732698 208.683706,54.721812 C209.269474,54.3703542 209.620932,55.6590381 210.206692,55.7761771 C210.440995,55.8933406 210.089537,55.1904251 210.323847,55.0732698 C210.55815,54.8389673 210.909608,55.1904251 211.143918,55.0732698 C211.612523,54.9561226 209.97239,54.9561226 210.089537,54.4875095 C210.089537,54.3703542 214.89279,52.2616076 214.541332,52.2616076 C210.792452,52.0273052 213.13551,55.1904251 209.503777,51.9101499 C209.386621,51.7929946 210.089537,51.9101499 210.206692,51.6758556 C210.440995,51.4415368 210.206692,50.8557847 210.55815,50.7386213 C211.026763,50.3871717 211.612523,50.8557847 212.081136,50.504327 C212.315439,50.3871717 211.963981,50.0357139 211.963981,49.8014114 C212.198292,49.3327984 212.432594,48.9813406 212.666896,48.7470381 C213.252665,48.3955804 214.541332,48.7470381 214.658488,48.1612698 C214.775643,47.4583542 213.13551,47.5755095 213.13551,46.9897411 C213.018346,46.7554387 213.252665,46.4039809 213.486959,46.0525313 C213.252665,46.0525313 212.901207,45.4667711 212.666896,45.7010736 C212.081136,46.0525313 211.729678,46.6382834 211.378221,47.1068965 C210.909608,48.0441144 211.143918,49.2156431 210.440995,49.9185586 C210.089537,50.2700082 210.206692,48.9813406 210.089537,48.6298828 C209.386621,47.3411989 208.800861,47.6926567 209.269474,46.5211444 C209.738079,45.5839101 211.612523,43.4751717 210.55815,43.7094741 C209.386621,44.0609319 208.566567,49.2156431 207.160728,46.6382834 C206.80927,45.8182289 206.457812,44.8810027 206.22351,43.9437847 C206.106354,43.0065586 207.863635,43.9437847 209.97239,43.2408692 C210.440995,43.1237139 210.675305,42.6551008 210.792452,42.0693406 C209.97239,42.8894114 208.449411,41.1321144 208.449411,40.6635177 C208.449411,39.6091444 210.089537,39.3748338 211.026763,38.9062207 C210.792452,37.617545 209.738079,38.7890736 208.800861,39.8434469 C208.800861,39.8434469 208.683706,39.8434469 208.683706,39.7262916 C208.566567,39.6091444 208.449411,39.3748338 208.215109,39.1405313 C208.566567,39.4919891 208.683706,39.9606022 208.800861,39.8434469 C208.215109,40.4291989 207.746496,40.897812 207.395038,41.0149755 C206.80927,41.0149755 207.04358,39.8434469 206.80927,39.3748338 C206.692123,39.1405313 204.583368,37.0317847 205.169136,36.9146294 C205.989207,36.9146294 206.692123,37.617545 207.395038,38.2033052 C207.395038,38.086158 207.277883,37.8518474 207.395038,37.617545 C207.629341,36.7974741 209.035163,36.7974741 209.738079,36.2117139 C209.855234,36.0945586 209.620932,35.6259455 209.386621,35.7431008 C208.449411,35.8602643 206.926425,37.0317847 206.106354,36.5631717 C205.051981,35.9774033 205.872052,33.2829046 206.457812,32.9314469 C207.277883,32.3456785 208.215109,34.1029755 209.269474,34.1029755 C209.386621,34.2201226 211.729678,31.4084605 214.30703,32.6971362 C215.127101,33.048594 215.244248,34.2201226 216.064319,34.5715804 C216.88439,34.9230381 215.361403,32.8142916 218.055918,32.111376 C221.453332,31.1741662 217.938763,37.1489319 221.570488,36.9146294 C223.796381,36.6803351 220.750417,34.805891 220.867572,33.2829046 C220.984728,31.6427629 226.959501,35.5088065 226.139439,31.4084605 C226.022283,30.5883896 224.499297,32.111376 223.796381,31.8770736 C223.327768,31.7599183 223.210629,31.0570027 223.210629,30.5883896 C223.210629,29.2997221 226.490896,28.0110381 225.319368,27.5424251 C222.390559,26.3709046 223.327768,31.7599183 223.093474,32.3456785 C223.093474,32.4628338 221.687643,32.8142916 220.516114,32.9314469 C220.281812,33.048594 220.398959,32.5799891 220.281812,32.4628338 C219.461741,31.9942207 218.524515,31.7599183 217.70446,31.2913052 C217.70446,31.2913052 217.70446,31.2913052 217.587305,31.1741662 C217.235847,31.9942207 216.88439,32.5799891 216.650079,32.8142916 C216.532932,32.9314469 212.901207,31.2913052 211.963981,31.2913052 C211.612523,31.1741662 211.846834,31.8770736 211.612523,31.9942207 C210.323847,32.5799891 208.800861,32.8142916 207.512177,32.4628338 C207.277883,32.4628338 205.520594,30.4712343 205.754896,30.1197766 C206.340665,29.2997221 207.395038,28.9482643 208.215109,28.7139537 C209.152319,28.4796512 210.909608,29.5340245 210.909608,28.5968065 C211.026763,27.7767357 209.152319,28.3624959 208.215109,28.4796512 C207.629341,28.4796512 207.160728,29.2997221 206.574967,29.0654114 C204.114763,28.1281935 207.04358,26.8395095 207.746496,26.8395095 C208.918025,26.9566649 210.909608,28.3624959 212.315439,27.4252779 C213.721262,26.3709046 208.215109,27.7767357 207.512177,26.136594 C207.277883,25.4336785 210.206692,25.550842 209.620932,25.1993842 C208.918025,24.8479264 207.863635,25.3165395 207.277883,24.7307711 C205.403439,23.2077847 208.215109,20.1618283 209.97239,20.044673 C211.261065,20.044673 212.901207,20.2789673 213.604123,21.3333406 C213.955572,21.8019537 212.901207,22.6220245 213.252665,23.0906376 C213.604123,23.5592425 213.369804,21.6847984 213.838417,21.5676512 C214.424193,21.4504959 214.658488,22.6220245 215.244248,22.7391798 C215.712861,22.7391798 214.30703,21.919109 214.541332,21.6847984 C215.127101,20.9818828 217.938763,23.4420954 220.047501,21.4504959 C220.398959,21.0990381 219.461741,20.8647439 218.993128,20.8647439 C214.89279,20.6304251 220.984728,21.8019537 217.587305,22.0362643 C217.001545,22.1534114 213.369804,20.3961308 211.729678,20.1618283 C211.143918,20.1618283 210.675305,19.8103706 210.089537,19.8103706 C209.386621,19.8103706 208.097954,20.8647439 207.980798,20.1618283 C207.863635,19.3417575 209.738079,19.3417575 209.97239,18.5216866 C210.206692,17.4673134 207.863635,16.9987003 207.863635,15.8271717 C207.863635,15.3585749 209.035163,15.8271717 209.269474,16.1786458 C209.620932,16.7643978 209.620932,18.1702289 210.323847,18.0530736 C211.026763,17.9359264 209.503777,16.0614823 210.206692,15.944327 C211.143918,15.8271717 211.612523,17.7016158 212.549749,17.7016158 C213.252665,17.7016158 213.018346,15.4757139 213.486959,15.944327 C214.072736,16.4129401 213.252665,17.4673134 213.252665,18.2873842 C213.252665,18.4045313 213.018346,18.7559891 213.13551,18.7559891 C213.838417,18.5216866 213.486959,16.9987003 214.189875,16.9987003 C214.541332,16.9987003 214.30703,17.8187711 214.658488,18.0530736 C215.361403,18.4045313 216.532932,19.107455 216.88439,18.4045313 C217.118692,17.8187711 215.361403,18.0530736 215.009946,17.5844687 C214.424193,16.8815531 214.189875,16.0614823 214.189875,15.2414196 C214.072736,14.1870463 215.830016,13.3669755 216.88439,13.6012861 C217.353003,13.7184332 217.118692,14.6556594 217.353003,15.1242561 C217.70446,15.8271717 218.290221,16.2957847 218.524515,16.9987003 C218.524515,17.2330109 217.938763,17.7016158 218.173057,17.7016158 C218.524515,17.7016158 218.64167,17.2330109 218.64167,16.9987003 C218.173057,14.6556594 215.595706,13.132673 219.696044,12.4297575 C221.101875,12.1954469 221.336185,14.1870463 221.336185,16.0614823 C221.453332,15.8271717 221.570488,15.4757139 221.80479,15.3585749 C222.507706,14.7727984 224.499297,16.0614823 224.265003,15.2414196 C224.030684,14.3042016 222.390559,15.1242561 221.570488,14.5385041 C220.984728,14.069891 221.21903,13.0155177 220.750417,12.4297575 C220.164657,11.6096866 217.001545,10.5553215 216.532932,10.2038638 C216.415777,10.0867084 216.88439,9.73525068 217.235847,9.73525068 C217.70446,9.61808719 218.290221,9.61808719 218.758834,9.85240599 C218.993128,9.96954496 218.875973,10.5553215 219.110283,10.5553215 C219.461741,10.6724768 220.867572,8.21226431 222.507706,9.50094823 C222.976319,9.85240599 222.273403,11.0239346 222.859172,11.2582289 C223.327768,11.4925313 222.624861,9.96954496 223.093474,9.73525068 C223.913545,9.2666376 225.670826,11.8439891 225.670826,11.9611444 C226.373741,12.0782997 227.779572,11.4925313 227.428114,10.9067711 C227.076657,10.2038638 225.670826,11.3753842 225.085057,10.9067711 C224.265003,10.2038638 225.905128,8.91517984 227.193812,8.44657493 C226.256586,8.7980327 225.436515,9.03233515 224.616452,9.03233515 C217.587305,9.14949046 223.796381,8.32941962 223.562087,6.92358856 C223.444932,5.9863624 221.921946,6.10351771 221.336185,5.28344687 C220.516114,4.34623706 220.867572,3.52616621 224.030684,3.87762398 C224.733599,3.99477929 224.733599,5.28344687 225.436515,5.51776567 C225.905128,5.63490463 226.256586,4.81485014 226.725199,4.81485014 C227.428114,4.69769482 228.013866,4.69769482 228.716798,4.81485014 C228.599643,4.69769482 228.48248,4.46339237 228.365324,4.34623706 C228.248185,3.64332153 229.185395,2.94040599 229.888311,2.82325068 C230.239768,2.70609537 229.888311,3.52616621 230.122621,3.87762398 C230.474079,4.34623706 231.294142,4.34623706 231.528452,4.9319891 C231.762755,5.40061035 231.059839,6.10351771 231.528452,6.45497548 C232.114213,7.04073569 233.637191,8.09511717 234.105812,7.27504632 C234.457262,6.45497548 232.231368,6.10351771 232.114213,5.1663079 C232.114213,4.58053951 233.402896,5.04915259 233.871493,4.69769482 C234.105812,4.46339237 233.051439,4.9319891 232.817128,4.69769482 C232.699981,4.58053951 233.520035,4.11192643 233.285741,4.22908174 C232.699981,4.34623706 232.231368,5.1663079 231.762755,4.9319891 C230.942684,4.46339237 230.708381,3.4090109 230.474079,2.58894823 C230.239768,2.23749046 231.059839,2.94040599 231.411297,3.05755313 C231.762755,3.29186376 230.239768,1.8860327 231.411297,2.12033515 C231.528452,2.12033515 236.21455,4.58053951 235.745937,1.41741962 C235.277332,-2.4486158 231.997065,4.81485014 232.699981,-0.222722071 C232.817128,-1.27708719 235.62879,-3.15153134 236.448853,-2.68291826 C237.151768,-2.33146049 236.331706,-0.808474114 236.917466,-0.105558583 C237.151768,0.245899183 237.503234,-0.691318801 237.854692,-0.925629428 C238.440452,-1.15993188 240.080578,-1.15993188 239.611973,-1.62854496 C239.260523,-2.09715804 237.620381,-0.457016349 237.737537,-1.15993188 C237.737537,-1.98000272 239.026204,-2.21430518 239.611973,-2.91722071 C240.314888,-3.62013624 240.314888,-5.02597548 241.252106,-5.14311444 C241.955022,-5.37743324 241.603564,-3.97158583 241.955022,-3.38583379 C242.189332,-2.91722071 243.009387,-2.68291826 243.009387,-2.09715804 C243.009387,-1.39423433 241.955022,-1.04277657 242.072177,-0.339861035 C242.189332,0.128735695 242.775093,-0.925629428 243.243706,-0.808474114 C243.946621,-0.691318801 244.766684,1.06596185 245.118142,0.48019346 C245.469599,-0.457016349 243.712319,-1.15993188 243.829458,-2.09715804 C243.829458,-3.03437602 248.632719,-1.86284741 248.749875,-1.86284741 C249.569946,-2.4486158 249.687084,-3.73729155 249.569946,-4.67451771 C249.452782,-5.14311444 248.046959,-4.20590463 248.164098,-4.67451771 C248.515556,-6.19748774 253.318809,-6.43179837 253.084515,-7.60332698 C252.96736,-8.54054496 250.155698,-8.54054496 250.741458,-9.3606158 C251.210071,-10.1806703 253.318809,-9.94636785 253.435973,-10.883594 C253.787431,-15.5696921 249.569946,-9.82921253 248.632719,-9.00915804 C248.164098,-8.65770027 246.758275,-8.30624251 247.109733,-7.72047411 C247.578346,-6.90040327 248.984169,-7.36901635 249.80424,-7.01755858 C249.921395,-7.01755858 249.569946,-6.90040327 249.452782,-6.78325613 C248.867014,-6.43179837 248.164098,-6.19748774 247.578346,-5.72888283 C246.992586,-5.26026975 244.063777,-2.68291826 243.12655,-2.91722071 C242.54079,-3.03437602 242.775093,-3.97158583 242.54079,-4.44019891 C242.30648,-4.90882016 241.486417,-5.26026975 241.720719,-5.72888283 C242.072177,-6.5489455 243.243706,-6.66610082 243.946621,-7.25186104 C244.063777,-7.36901635 243.478,-6.90040327 243.243706,-7.01755858 C243.009387,-7.01755858 243.595163,-7.60332698 243.478,-7.48617166 C242.657937,-7.1347139 241.369262,-5.26026975 240.197733,-5.72888283 C238.440452,-6.43179837 241.017804,-7.95478474 242.30648,-8.77484741 C243.009387,-9.126297 243.946621,-9.126297 244.415234,-9.82921253 C244.766684,-10.1806703 243.360861,-9.47775477 242.892248,-9.59491826 C242.657937,-9.59491826 242.775093,-9.82921253 242.775093,-10.0635313 C242.892248,-10.883594 242.775093,-11.7036567 243.243706,-12.4065722 C243.478,-12.75803 244.180916,-12.1722698 244.532373,-12.4065722 C244.766684,-12.4065722 244.063777,-12.4065722 244.063777,-12.6408828 C244.063777,-12.9923406 244.180916,-13.3437984 244.298071,-13.6952561 C244.649529,-14.0467139 245.469599,-13.2266431 245.703902,-13.6952561 C245.938204,-14.0467139 245.586747,-14.7496294 245.938204,-15.2182425 C246.28967,-15.6868392 247.344044,-15.5696921 247.578346,-16.2726076 C247.695501,-16.7412207 246.05536,-17.3269809 246.523973,-17.4441362 C247.344044,-17.6784387 248.046959,-16.2726076 248.867014,-16.5069101 C249.452782,-16.6240654 247.929804,-17.2098256 247.578346,-17.795594 C246.992586,-18.6156567 248.749875,-19.5528828 249.687084,-20.1386349 C250.624311,-20.7244033 250.975768,-18.0298965 252.147297,-17.5612834 C252.850213,-17.3269809 253.787431,-17.5612834 254.256044,-18.1470518 C254.490338,-18.4985095 252.615902,-18.1470518 252.850213,-18.6156567 C253.20167,-19.3185804 254.72464,-19.2014251 255.076106,-19.9043406 C255.661866,-21.5444659 251.444373,-17.2098256 252.498755,-21.6616213 C252.615902,-22.3645368 252.850213,-22.8331499 252.96736,-23.0674523 C252.498755,-22.7159946 252.030142,-22.3645368 251.444373,-22.1302343 C249.687084,-21.3101635 254.72464,-24.3561362 254.373183,-24.824733 C254.256044,-25.0590518 254.021725,-25.0590518 253.670267,-24.9418883 C253.670267,-24.9418883 253.670267,-25.0590518 253.670267,-25.0590518 C253.670267,-25.293346 252.850213,-25.0590518 252.96736,-25.293346 C253.318809,-26.1134169 256.950542,-25.8791144 257.536311,-26.1134169 C257.770613,-26.3477193 257.302,-26.9334877 257.536311,-27.1677902 C259.293591,-28.8079319 261.636649,-27.7535504 262.222409,-31.1509728 C262.222409,-31.7367411 261.285191,-30.5652125 260.816578,-30.3309019 C260.230809,-30.2137629 259.645049,-30.3309019 259.059297,-30.3309019 C258.590684,-30.2137629 257.770613,-29.5108474 257.770613,-29.9794441 C258.004924,-31.5024305 262.222409,-31.5024305 261.05088,-33.49403 C260.933733,-33.8454877 259.879351,-33.6111771 259.059297,-33.6111771 C259.176436,-33.3768747 259.410755,-33.1425722 259.645049,-32.6739591 C259.059297,-32.0881989 258.590684,-31.3852834 258.004924,-30.799515 C257.770613,-30.6823597 257.302,-29.9794441 257.184853,-30.3309019 C257.067698,-30.9166703 257.067698,-34.1969455 258.004924,-34.3141008 C258.004924,-34.6655586 258.004924,-34.899861 258.239226,-35.3684741 C258.590684,-36.3056839 260.113662,-35.8370708 260.933733,-36.3056839 C261.168035,-36.4228392 260.347965,-36.3056839 260.230809,-36.4228392 C259.879351,-36.8914523 259.527894,-37.4772125 259.410755,-37.9458256 C259.293591,-38.6487411 260.347965,-41.3432398 261.05088,-41.3432398 C261.988106,-41.4603951 262.456711,-39.9374087 263.393937,-39.7031144 C263.745395,-39.5859591 263.04248,-40.5231853 262.925324,-40.991782 C262.691022,-41.5775504 262.808169,-42.6319237 262.222409,-42.9833815 C261.636649,-43.3348392 260.582267,-42.3976131 259.996507,-42.8662262 C258.122071,-44.3892125 261.988106,-43.8034523 262.573866,-44.0377548 C263.62824,-44.5063678 263.745395,-46.0293542 265.38552,-45.6778965 C266.088436,-45.4435777 266.439894,-44.5063678 267.142817,-44.5063678 C267.728578,-44.5063678 266.205591,-45.2092834 266.088436,-45.6778965 C266.088436,-45.7950354 266.088436,-45.7950354 266.088436,-45.7950354 C265.971289,-45.7950354 265.854134,-45.6778965 265.736978,-45.6778965 C265.502676,-45.6778965 265.736978,-46.3808038 265.502676,-46.497951 C264.331147,-46.7322616 263.511076,-44.6235068 262.222409,-44.7406703 C258.122071,-45.3264223 264.448302,-46.1464932 265.151218,-46.7322616 C265.38552,-46.8494087 264.682605,-46.8494087 264.331147,-46.8494087 C263.511076,-46.966564 262.808169,-46.6151063 261.988106,-46.7322616 C260.933733,-46.966564 261.285191,-48.8410082 261.519493,-49.778218 C262.339564,-54.1128665 264.096853,-52.2384305 267.025662,-53.409951 C268.665787,-54.1128665 265.151218,-55.2843869 264.682605,-56.1044578 C264.448302,-56.5730708 265.736978,-56.2216131 266.205591,-56.4559155 C266.674204,-56.690218 264.214008,-58.447515 267.142817,-57.5102888 C267.37712,-57.5102888 266.79136,-57.0416757 266.79136,-56.8073733 C266.908507,-55.167248 267.494275,-57.6274441 267.494275,-57.8617466 C267.494275,-57.9789019 267.728578,-58.5646621 267.845733,-58.3303597 C268.197191,-57.9789019 267.728578,-56.9245286 268.314338,-56.8073733 C269.251564,-56.690218 270.540232,-57.1588311 270.774542,-57.9789019 C271.126,-58.7989728 269.485858,-59.1504305 269.368703,-59.970485 C269.368703,-60.0876403 272.180373,-61.727782 273.117591,-61.2591689 C273.70336,-61.0248747 272.531831,-59.1504305 273.234747,-59.2675777 C273.937662,-59.2675777 273.117591,-60.9077112 273.70336,-61.2591689 C273.820499,-61.3763243 273.820499,-61.3763243 273.937662,-61.4934714 C273.820499,-61.6106267 273.70336,-61.727782 273.586204,-61.8449292 C273.234747,-62.0792398 274.289112,-62.7821553 273.937662,-62.8993025 C273.586204,-63.0164578 273.351902,-62.1963869 272.883289,-61.9620845 C271.71176,-61.4934714 270.305929,-60.5562616 269.134401,-61.2591689 C268.665787,-61.6106267 270.071635,-62.3135422 270.423084,-62.8993025 C271.126,-64.4222888 271.360302,-67.9368665 273.117591,-66.6481826 C273.70336,-66.1795858 271.360302,-65.476654 271.946063,-65.0080572 C272.414676,-64.5394441 273.117591,-65.8281117 273.937662,-65.945267 C274.523414,-65.945267 275.109183,-65.7109728 275.577796,-65.2423597 C276.280711,-64.5394441 277.569387,-61.9620845 277.217929,-62.8993025 C276.983627,-63.7193733 275.812098,-64.4222888 276.046401,-65.359515 C276.163556,-66.1795858 277.569387,-66.2967248 278.038,-66.9996403 C278.272302,-67.3510981 277.335084,-66.7653379 276.983627,-66.6481826 C275.22633,-66.0624223 274.640569,-65.2423597 273.820499,-67.4682534 C273.351902,-68.639782 274.406275,-67.9368665 274.523414,-68.5226267 C274.640569,-68.639782 274.171956,-68.4054714 274.171956,-68.5226267 C273.820499,-69.577 277.100774,-67.9368665 277.569387,-68.5226267 C278.389458,-69.9284496 274.757733,-71.0999782 274.523414,-71.0999782 C274.289112,-71.0999782 274.757733,-70.6313651 274.640569,-70.3970708 C274.289112,-69.6941553 272.29752,-67.233951 271.594605,-67.5854087 C270.774542,-67.9368665 270.657387,-69.2255422 271.008845,-70.0456131 C271.243147,-70.7485204 272.414676,-70.2799074 272.883289,-70.7485204 C273.234747,-71.0999782 271.828916,-70.2799074 271.594605,-70.6313651 C271.126,-71.3342807 273.117591,-71.8028937 273.70336,-71.3342807 C273.937662,-71.2171335 273.469049,-70.6313651 273.586204,-70.7485204 C275.46064,-72.6229646 278.506613,-71.451436 278.272302,-74.0287956 C278.272302,-74.3802534 277.569387,-73.6773379 277.217929,-73.9116403 C276.983627,-74.0287956 277.335084,-74.4974087 277.100774,-74.6145477 C276.983627,-74.7317112 276.983627,-74.145951 276.866471,-74.145951 C276.397858,-73.9116403 276.046401,-74.0287956 275.694943,-74.0287956 C274.992027,-73.9116403 274.054817,-73.3258801 273.820499,-73.9116403 C272.29752,-76.9576049 276.866471,-74.8488665 276.983627,-74.8488665 C277.686542,-75.4346185 277.100774,-76.7233025 277.452232,-77.5433651 C277.569387,-77.8948311 277.803689,-76.7233025 277.920845,-76.2546894 C278.038,-76.1375341 278.389458,-76.3718447 278.389458,-76.2546894 C278.389458,-75.551782 277.920845,-74.8488665 278.155147,-74.2630981 C278.155147,-74.0287956 280.732499,-70.2799074 281.318267,-70.9828229 C282.724098,-72.6229646 276.866471,-77.7776757 278.62376,-78.5977466 C279.209529,-78.9492044 280.381041,-78.0119782 281.318267,-77.1919074 C281.201112,-77.5433651 281.201112,-77.8948311 280.966809,-78.1291335 C280.381041,-78.5977466 278.62376,-78.363436 278.858071,-79.1835068 C278.97521,-80.1207166 280.498196,-80.0035777 281.435422,-80.1207166 C286.472978,-80.9407875 282.255485,-78.4805913 285.418605,-76.9576049 C287.644507,-75.9032316 282.841253,-80.5893297 284.949992,-80.5893297 C285.535752,-80.5893297 285.88721,-79.8864223 286.355823,-79.8864223 C287.058738,-80.0035777 288.113112,-80.0035777 287.995965,-80.5893297 C287.293049,-85.5097466 284.36424,-80.5893297 283.192711,-80.8236485 C282.958401,-80.9407875 283.661308,-81.1751063 283.544169,-81.4094005 C283.544169,-81.643703 283.192711,-81.9951608 282.958401,-81.8780136 C282.606943,-81.7608583 282.606943,-81.0579428 282.138338,-81.0579428 C281.435422,-80.9407875 280.263894,-80.8236485 279.912444,-81.526564 C279.678125,-81.9951608 279.795281,-82.5809292 280.029583,-83.0495341 C279.443823,-82.9323869 278.740916,-82.8152316 278.389458,-82.4637738 C277.803689,-81.8780136 278.389458,-80.3550354 277.686542,-79.8864223 C277.217929,-79.5349646 277.686542,-81.2922452 277.217929,-81.643703 C276.632169,-81.9951608 275.929253,-81.8780136 275.343485,-81.7608583 C274.874872,-81.643703 275.109183,-80.7064932 274.757733,-80.3550354 C274.406275,-80.0035777 273.937662,-79.6521199 273.586204,-79.3006621 C273.117591,-78.832049 272.766134,-78.363436 272.414676,-77.8948311 C272.414676,-78.1291335 272.414676,-78.2462888 272.414676,-78.363436 C272.766134,-79.1835068 273.469049,-80.0035777 273.586204,-80.8236485 C273.70336,-81.2922452 273.117591,-81.8780136 273.351902,-82.3466185 C273.937662,-82.9323869 275.109183,-82.6980763 275.694943,-83.2838447 C278.155147,-85.6268856 271.828916,-84.9239782 275.22633,-88.555703 C277.686542,-91.3673733 277.217929,-86.0954986 276.632169,-83.5181471 C276.866471,-83.9867602 277.217929,-84.338218 277.569387,-84.4553733 C277.803689,-84.5725204 278.038,-83.7524578 278.155147,-83.9867602 C278.506613,-84.5725204 277.920199,-90.1958447 279.912444,-87.5013297 C280.966809,-86.0954986 281.318267,-85.0411335 281.318267,-84.4553733 C281.78688,-84.6896757 282.138338,-84.9239782 282.489796,-84.9239782 C282.958401,-84.9239782 283.192711,-83.9867602 283.661308,-83.9867602 C284.598542,-83.8696049 285.652907,-84.1039155 286.472978,-84.5725204 C287.644507,-85.2754278 284.012766,-84.338218 283.778471,-85.8612044 C283.778471,-86.3298011 284.36424,-86.9155695 284.949992,-86.9155695 C284.949992,-86.9155695 285.067155,-86.9155695 285.184294,-86.9155695 C285.067155,-87.0327248 284.949992,-87.0327248 284.949992,-87.2670272 C284.949992,-87.9699428 286.355823,-87.7356403 286.941583,-88.2042452 C287.058738,-88.3214005 286.472978,-88.3214005 286.355823,-88.4385559 C285.535752,-89.0243161 285.184294,-90.313 285.418605,-91.3673733 C285.535752,-92.3045831 287.878809,-91.4845123 288.113112,-92.4217384 C288.347422,-93.124654 287.761654,-93.8275695 287.527351,-94.530485 C287.527351,-93.7104142 287.410196,-93.2418093 287.293049,-93.124654 C286.472978,-93.124654 285.652907,-93.8275695 284.949992,-93.3589564 C283.778471,-92.8903515 283.544169,-91.3673733 282.841253,-90.313 C282.255485,-90.6644578 281.201112,-90.6644578 281.201112,-91.2502098 C281.435422,-92.1874278 282.958401,-92.3045831 283.192711,-93.2418093 C283.427014,-93.7104142 281.904027,-92.6560409 281.78688,-93.124654 C281.552569,-93.8275695 282.841253,-94.4133297 282.724098,-95.2334005 C282.724098,-95.7020136 281.083956,-95.1162371 281.435422,-95.3505559 C283.075556,-96.1706267 285.770063,-95.4677112 284.598542,-96.9906812 C284.129921,-97.4592943 282.37264,-97.2249918 282.841253,-97.5764496 C283.427014,-97.9279074 284.36424,-96.8735341 285.067155,-97.2249918 C285.770063,-97.6935967 285.418605,-99.2165831 286.12152,-99.4508937 C287.293049,-99.8023515 287.527351,-97.5764496 287.644507,-95.7020136 C287.644507,-96.404921 287.878809,-96.9906812 288.113112,-97.5764496 C288.69888,-98.5136676 288.933183,-95.2334005 289.753253,-94.7647875 C290.573316,-94.2961826 291.627689,-94.7647875 292.447752,-95.1162371 C292.564907,-95.1162371 288.933183,-96.404921 289.167477,-97.2249918 C289.401796,-98.0450545 290.221866,-99.099436 291.041921,-98.9822807 C291.861992,-98.9822807 291.744837,-97.4592943 292.330605,-96.8735341 C292.916365,-96.2877657 293.736436,-96.404921 294.439351,-95.8191689 C294.790801,-95.4677112 295.142259,-93.9447248 295.376561,-94.4133297 C296.313787,-97.2249918 289.401796,-96.5220845 291.979147,-102.028245 C292.447752,-102.965463 294.439351,-104.136992 295.376561,-103.434076 C296.196632,-102.965463 295.142259,-97.4592943 295.142259,-97.2249918 C295.376561,-96.9906812 295.728019,-97.5764496 295.845174,-97.9279074 C295.96233,-98.6308229 295.376561,-99.5680409 295.845174,-100.153809 C296.196632,-100.739561 297.719619,-99.8023515 297.836774,-100.505267 C297.836774,-101.208183 296.196632,-101.091019 295.96233,-101.793935 C295.728019,-102.379703 296.899548,-107.417259 298.656828,-105.30852 C299.12545,-104.605605 298.656828,-98.0450545 298.656828,-97.810752 C298.422534,-96.9906812 296.899548,-95.5848501 297.719619,-95.3505559 C299.828357,-94.6476403 298.773992,-98.7479782 299.476899,-99.2165831 C300.179815,-99.6851962 301.234188,-99.2165831 301.937112,-99.5680409 C302.288569,-99.8023515 301.351343,-100.036654 301.117041,-100.270948 C300.29697,-100.973864 298.539689,-101.91109 299.242605,-103.551223 C302.288569,-110.346076 299.242605,-102.614005 302.757174,-104.957063 C303.694401,-105.542823 302.757174,-107.300104 303.46009,-108.120174 C303.694401,-108.354477 304.045858,-108.003019 304.280161,-107.768717 C304.514455,-107.534414 304.397316,-107.065801 304.63161,-106.83149 C305.217387,-106.362894 305.920294,-106.24573 306.506054,-105.777117 C306.974668,-105.425659 307.326125,-104.722752 307.911886,-104.48845 C308.497654,-104.371294 306.857512,-105.30852 306.62321,-105.894272 C306.62321,-106.011436 307.091815,-106.011436 307.091815,-106.24573 C307.326125,-107.885872 306.974668,-110.346076 306.740357,-110.228921 C306.154597,-110.228921 302.757174,-107.300104 301.819956,-110.697534 C301.351343,-112.57197 304.748774,-113.392041 305.685984,-113.15773 C306.506054,-113.040583 306.974668,-111.986202 307.794738,-111.751899 C308.029041,-111.751899 307.677583,-112.454815 307.911886,-112.57197 C308.146196,-112.806272 308.614801,-112.57197 308.849112,-112.454815 C309.552027,-112.454815 310.372082,-112.57197 310.95785,-112.337659 C312.480837,-111.869054 310.489237,-108.471632 313.652365,-108.705935 C314.238125,-108.82309 314.589583,-109.643161 314.47242,-110.228921 C314.47242,-110.580371 313.769512,-110.111774 313.418054,-110.228921 C313.066597,-110.346076 312.480837,-110.463232 312.480837,-110.814689 C312.480837,-111.283286 313.886668,-111.048992 313.418054,-111.869054 C312.949441,-112.57197 312.832294,-113.274886 313.300899,-115.500787 C313.300899,-115.617926 313.300899,-115.617926 313.300899,-115.73509 C313.066597,-115.266469 312.715139,-114.797872 312.363681,-114.212104 C311.777921,-114.797872 310.723556,-115.14933 310.489237,-115.852245 C309.903485,-117.960984 316.932632,-122.99854 314.238125,-117.375223 C315.29249,-118.312441 316.815477,-117.258068 317.166935,-117.609526 C317.752695,-117.960984 315.878251,-117.960984 315.643948,-118.546744 C314.823877,-120.538343 318.338463,-120.186886 318.572766,-120.538343 C319.041379,-121.592708 315.409646,-122.881392 315.409646,-123.23285 C315.526793,-123.935766 317.166935,-122.295624 317.401237,-122.881392 C317.86985,-123.701455 316.346864,-124.638681 316.581174,-125.575899 C316.932632,-126.513125 323.376019,-125.927349 323.493174,-125.575899 C323.727477,-125.224441 320.564365,-119.48397 320.681504,-119.132512 C320.681504,-119.015357 320.798659,-119.015357 320.915815,-119.015357 C320.681504,-119.015357 320.564365,-119.015357 320.564365,-118.89821 C320.798659,-118.546744 321.501575,-119.132512 321.853033,-118.89821 C323.376019,-117.843828 319.86145,-117.375223 321.853033,-116.789455 C322.555948,-116.555153 321.38442,-115.500787 321.267272,-114.797872 C321.267272,-114.563561 321.032962,-111.166147 323.024561,-113.15773 C323.376019,-113.509188 323.024561,-114.212104 323.141717,-114.680717 C323.258864,-115.383632 323.610322,-115.852245 323.844632,-116.437997 C324.078935,-117.140913 322.790259,-116.320858 323.141717,-117.375223 C323.844632,-119.366815 325.719076,-127.098877 327.007744,-127.801793 C327.007744,-127.801793 327.827815,-124.755837 327.827815,-124.521526 C327.593504,-123.81861 326.421984,-123.467153 326.539131,-122.647082 C326.656286,-122.178477 327.710659,-123.467153 328.062117,-122.99854 C328.53073,-122.412779 327.593504,-120.889801 328.296428,-120.538343 C329.11649,-119.952583 330.288011,-120.538343 330.990926,-121.124095 C331.45954,-121.592708 329.936553,-121.944166 329.936553,-122.529935 C329.936553,-123.349997 329.585104,-124.404371 330.053717,-125.107294 C330.405174,-125.927349 331.576695,-126.044512 332.162455,-126.74742 C332.396757,-126.981722 331.576695,-126.74742 331.342384,-126.864575 C330.522313,-127.216033 329.11649,-127.450335 329.11649,-128.387561 C328.999343,-129.090477 330.873771,-128.270406 331.225237,-128.856166 C331.693842,-129.676237 330.639469,-130.613463 330.873771,-131.433518 C330.990926,-132.019286 331.810997,-130.261989 332.396757,-130.613463 C333.333984,-130.964921 334.036899,-131.784975 335.911335,-130.496308 C337.317166,-129.559082 333.451131,-124.521526 333.099673,-123.81861 C332.982526,-123.584308 333.802589,-124.170068 333.919744,-124.404371 C334.622651,-124.990139 334.974109,-126.278807 335.79418,-126.513125 C336.37994,-126.630264 336.028482,-125.458752 335.911335,-124.872984 C335.559886,-124.052913 334.154054,-123.23285 334.622651,-122.412779 C335.091264,-121.709864 336.262793,-123.81861 336.965708,-123.349997 C337.082864,-123.23285 337.200011,-123.115695 337.200011,-122.99854 C337.434322,-123.115695 337.902926,-122.764237 338.137237,-122.881392 C338.840153,-123.584308 337.082864,-124.170068 337.082864,-124.170068 C336.965708,-124.638681 336.848553,-128.621864 337.317166,-129.324779 C339.425913,-132.019286 340.831736,-126.864575 340.948891,-126.864575 C348.563807,-126.513125 337.082864,-131.433518 344.580624,-129.090477 C348.446651,-127.918948 345.634989,-127.801793 345.049237,-126.278807 C344.932082,-126.044512 345.634989,-126.161668 345.869308,-126.278807 C346.572215,-126.513125 347.157975,-127.098877 347.860891,-127.216033 C348.095193,-127.216033 347.860891,-126.74742 347.978046,-126.630264 C348.329504,-126.395962 348.798117,-126.395962 349.149575,-126.278807 C349.266722,-126.161668 349.383877,-125.927349 349.618172,-125.81021 C350.203948,-125.341597 351.141158,-124.990139 351.609771,-124.287223 C351.726926,-124.052913 351.141158,-124.052913 350.906856,-123.81861 C350.321087,-123.467153 349.501033,-123.349997 349.149575,-122.764237 C348.446651,-121.827027 349.03242,-120.186886 348.095193,-119.718272 C345.517834,-118.429597 342.354722,-120.186886 340.245984,-117.843828 C339.894526,-117.609526 340.948891,-118.195286 341.417504,-118.195286 C342.003264,-118.195286 342.471877,-118.078139 343.057638,-117.960984 C343.174793,-117.843828 343.291948,-117.726681 343.409095,-117.726681 C344.346322,-117.609526 345.634989,-118.312441 346.220757,-117.492371 C346.689362,-116.90661 344.814918,-116.08654 345.166376,-115.383632 C345.517834,-114.797872 345.986447,-117.023766 346.689362,-116.90661 C347.509433,-116.672316 347.275131,-114.797872 346.923673,-113.626343 C347.04082,-113.860646 347.157975,-113.977801 347.275131,-114.094956 C348.095193,-114.446414 349.266722,-113.860646 350.203948,-114.212104 C350.438243,-114.329259 349.501033,-114.680717 349.501033,-115.032174 C349.383877,-115.852245 349.501033,-116.555153 349.735335,-117.258068 C349.85249,-117.492371 349.618172,-116.555153 349.969629,-116.555153 C350.906856,-116.320858 351.844074,-116.555153 352.7813,-116.672316 C352.898447,-116.672316 353.015602,-116.672316 353.132757,-116.672316 L353.132757,-116.672316 Z M302.87433,-92.5297657 C302.87433,-92.5297657 302.87433,-92.5297657 302.991485,-92.5297657 C302.87433,-92.5297657 302.87433,-92.5297657 302.87433,-92.5297657 Z M324.19609,-128.387561 C324.313229,-127.450335 322.673104,-127.216033 322.087335,-126.513125 C317.401237,-131.08206 323.727477,-131.08206 324.19609,-128.387561 Z M306.388899,-119.249668 C306.857512,-119.249668 307.091815,-118.429597 307.443272,-118.663899 C307.911886,-119.015357 306.62321,-120.304041 307.091815,-120.186886 C307.326125,-120.06973 307.326125,-119.48397 307.677583,-119.48397 C307.911886,-119.601125 307.443272,-120.186886 307.677583,-120.304041 C308.731956,-120.772638 308.263343,-117.843828 309.317708,-119.366815 C309.552027,-119.601125 308.731956,-120.06973 308.966259,-120.304041 C309.669166,-121.241251 310.840695,-121.592708 311.895068,-122.295624 C311.895068,-122.178477 311.777921,-122.178477 311.777921,-122.178477 C311.777921,-122.061322 312.246526,-122.061322 312.246526,-121.944166 C312.129379,-121.475553 311.660766,-121.006956 311.426463,-120.538343 C310.489237,-117.960984 309.200569,-116.90661 306.388899,-116.437997 C306.62321,-117.140913 307.443272,-117.960984 307.091815,-118.663899 C306.974668,-118.781054 306.740357,-118.89821 306.506054,-118.89821 C306.506054,-119.015357 306.271752,-119.249668 306.388899,-119.249668 L306.388899,-119.249668 Z M305.568837,-118.766112 C305.334526,-118.766112 305.217387,-118.766112 305.100223,-118.766112 C304.865929,-118.909432 305.100223,-118.766112 305.568837,-118.766112 Z M298.539689,-110.463232 C298.773992,-110.931828 299.476899,-111.166147 300.062676,-111.400441 C300.179815,-111.517605 300.531272,-111.400441 300.414125,-111.283286 C300.062676,-110.346076 299.476899,-109.526005 299.008302,-108.705935 C298.891147,-109.291703 298.305379,-109.877463 298.539689,-110.463232 Z M296.313787,-107.534414 C296.313787,-107.534414 296.430943,-107.300104 296.430943,-107.300104 C296.430943,-107.182956 296.313787,-107.065801 296.313787,-106.948646 C296.313787,-107.182956 296.196632,-107.300104 296.313787,-107.534414 L296.313787,-107.534414 Z M290.104703,-105.30852 C291.041921,-107.885872 300.414125,-107.300104 292.330605,-103.551223 C291.744837,-104.254147 289.870392,-104.48845 290.104703,-105.30852 Z M273.820499,-86.212654 C274.054817,-85.9783433 273.351902,-85.7440409 273.469049,-85.3925913 C273.70336,-84.1039155 276.749316,-84.2210627 272.531831,-82.4637738 C272.063218,-82.3466185 271.594605,-82.9323869 271.008845,-83.1666894 C274.054817,-85.6268856 272.29752,-85.9783433 272.29752,-85.2754278 C272.414676,-83.8696049 270.891689,-84.8068311 270.188774,-84.338218 C269.603014,-84.1039155 269.134401,-82.1123161 269.017245,-82.8152316 C268.665787,-84.8068311 271.71176,-88.2042452 273.820499,-86.212654 L273.820499,-86.212654 Z M264.448302,-75.551782 C264.682605,-76.2546894 264.214008,-77.5433651 264.916924,-77.6605204 C269.251564,-78.4805913 265.38552,-74.3802534 263.979689,-74.0287956 C263.979689,-74.145951 263.745395,-74.145951 263.745395,-74.2630981 C263.979689,-74.7317112 264.331147,-75.0831689 264.448302,-75.551782 L264.448302,-75.551782 Z M235.511635,-8.65770027 C236.097395,-8.54054496 235.745937,-7.72047411 235.863093,-7.1347139 C235.745937,-7.01755858 235.511635,-6.90040327 235.39448,-6.90040327 C234.925875,-6.78325613 234.340106,-6.78325613 233.871493,-6.66610082 C228.951101,-5.96318529 235.39448,-8.77484741 235.511635,-8.65770027 L235.511635,-8.65770027 Z M213.721262,13.2498283 C214.189875,13.0155177 214.775643,13.2498283 215.361403,13.3669755 C215.361403,13.2498283 215.361403,13.132673 215.478559,13.132673 C215.478559,13.0155177 215.595706,13.2498283 215.595706,13.3669755 C215.478559,13.4841308 215.361403,13.4841308 215.244248,13.6012861 C215.244248,13.6012861 215.361403,13.4841308 215.361403,13.4841308 C214.89279,13.7184332 214.424193,14.3042016 213.955572,14.3042016 C213.604123,14.3042016 213.486959,13.4841308 213.721262,13.2498283 L213.721262,13.2498283 Z M206.106354,58.2363896 C206.22351,58.1192343 206.22351,58.1192343 206.340665,58.002079 C206.574967,59.1736076 207.04358,60.4622916 206.457812,61.6338038 C205.169136,63.976861 205.872052,59.6422207 206.106354,58.2363896 Z M207.980798,49.5671008 C207.980798,49.5671008 207.980798,49.4499537 207.980798,49.4499537 C207.980798,49.4499537 207.980798,49.3327984 207.980798,49.3327984 C208.215109,49.5671008 208.566567,49.6842561 208.566567,49.9185586 C209.269474,54.9561226 206.692123,51.3243978 207.746496,49.6842561 C207.746496,49.6842561 207.746496,49.8014114 207.629341,49.9185586 C207.746496,49.8014114 207.980798,49.6842561 207.980798,49.5671008 Z M252.96736,-24.707594 C252.498755,-24.5904387 252.147297,-24.4732752 251.795831,-24.4732752 C250.975768,-24.5904387 252.030142,-24.5904387 252.96736,-24.707594 Z M321.735877,-119.132512 C321.501575,-119.015357 321.150117,-119.015357 320.915815,-119.015357 C321.267272,-119.015357 321.970188,-119.249668 321.735877,-119.132512 Z M301.937112,-92.7640681 C301.937112,-92.7640681 302.054259,-92.7640681 302.054259,-92.7640681 C302.054259,-92.7640681 301.937112,-92.7640681 301.937112,-92.7640681 Z M302.288569,-92.6469128 C302.405717,-92.6469128 302.405717,-92.6469128 302.522872,-92.6469128 C302.405717,-92.6469128 302.405717,-92.6469128 302.288569,-92.6469128 Z M302.640027,-92.6560409 C302.640027,-92.5388937 302.640027,-92.5388937 302.757174,-92.5388937 C302.640027,-92.5388937 302.640027,-92.5388937 302.640027,-92.6560409 Z" id="norway" stroke="#000000" stroke-width="0.5" fill="#DCCFBE" fill-rule="nonzero"></path>
        </svg>