<svg>
        <path d="M291.208507,190.030951 C291.403335,190.052311 291.54091,190.260014 291.590839,190.42082 C291.621608,190.520221 291.592392,190.637572 291.633436,190.73345 C291.669926,190.819305 291.759256,190.828845 291.795354,190.935243 C291.894959,190.944643 291.99942,190.929766 292.093384,190.898654 C292.179436,190.498354 292.491469,190.344251 292.861646,190.461676 C293.278744,190.593161 293.515482,190.742736 293.692482,191.136864 C293.974049,191.763259 294.053888,192.541918 294.455668,193.104896 C294.619629,193.336166 294.807796,193.741093 295.095763,193.896095 C295.42918,194.075025 295.864196,193.98039 296.219316,193.936779 C296.621946,193.888248 296.873537,193.879886 297.253229,194.011003 L297.480173,194.097187 C297.55714,194.124514 297.635099,194.146256 297.713071,194.149861 C297.892548,194.1573 298.090351,194.102638 298.266035,194.157627 C298.616725,194.265725 298.690556,194.654278 298.970782,194.83185 C299.166256,194.955185 299.856869,194.972433 299.788605,195.322567 C299.162202,195.345406 299.604044,196.163883 299.622346,196.455398 C299.902131,196.390403 299.933962,196.56424 300.129101,196.287071 L300.230995,196.142186 C300.313921,196.029171 300.362394,195.999525 300.578504,195.943084 L300.587422,195.833401 C300.842888,195.761711 300.895482,195.593956 301.070553,195.430534 C301.234851,195.276739 301.365265,195.275572 301.553513,195.299431 L301.65288,195.312856 C302.175281,195.383425 302.456054,195.485245 302.968932,195.310322 L303.132087,195.252496 C303.289279,195.199165 303.483475,195.148216 303.59415,195.213962 C303.787319,195.327659 303.710079,195.661093 303.762485,195.840283 C303.82994,196.071022 304.017469,196.22439 304.088504,196.455136 C304.161248,196.690632 304.159139,196.959864 304.178202,197.202856 C303.852967,197.41355 303.487981,197.179698 303.106605,197.292079 C303.059905,197.444016 303.061147,197.589169 303.009272,197.739038 C302.785131,197.796071 302.456463,197.661381 302.28821,197.83839 C302.135422,197.999294 302.235518,198.34655 302.285512,198.548114 L302.39352,198.558504 C302.582136,199.054608 303.533406,199.141011 303.93727,199.337875 C304.320837,199.52439 304.810523,199.882828 305.096692,200.231114 C305.475779,200.69121 305.66052,201.274297 305.914302,201.814665 C306.013335,202.02733 306.142343,202.252763 306.266218,202.450894 C306.455749,202.755619 306.597101,202.682172 306.913065,202.778997 C307.081204,202.830888 307.177621,202.932815 307.363629,202.915158 L307.580451,202.662366 C308.099552,202.074037 308.443451,201.820606 308.543526,202.071259 C308.570361,202.031172 308.597398,201.990253 308.618292,201.950834 L308.698664,201.789247 C308.756144,201.677954 308.824281,201.572357 308.920221,201.549463 C309.091916,201.508109 309.59442,201.164049 309.710357,201.211763 C309.785124,201.24272 309.738363,201.156909 309.785218,201.134735 L309.750073,201.033501 C309.72824,200.982397 309.682334,200.935373 309.511213,200.870033 C309.576264,200.45851 309.40188,200.172463 309.179431,199.85242 C309.06454,199.669183 308.949959,199.594264 308.77246,199.482471 C308.576905,199.360281 308.732087,198.780185 308.533155,198.670052 C308.173131,198.470728 308.195692,198.009022 308.436207,197.839142 C308.625812,197.704796 308.848139,197.946708 308.962638,198.073894 C309.110586,198.238428 309.461553,198.156104 309.65755,198.261798 C309.663681,198.278842 310.198589,198.073068 309.906117,198.327218 C310.032421,198.345594 310.089705,198.328699 310.168173,198.370742 L310.232406,198.414798 C310.356682,198.514818 310.444216,198.494472 310.537342,198.393536 L310.584567,198.336537 C311.038997,197.737837 311.338817,198.403101 311.376616,198.76709 C311.398556,198.978504 312.206104,198.650997 312.284414,199.284054 C313.508271,198.887795 313.257619,199.785578 313.321634,200.13054 L313.331619,200.16985 L313.334733,200.172807 C313.490054,200.300041 313.549172,199.581136 313.689657,199.718948 L313.845886,199.736356 C313.936091,199.748562 313.997861,199.786259 314.027949,199.995179 L314.036619,200.07785 L314.038962,200.014802 C314.072748,199.712354 314.395937,200.078313 314.593204,199.623243 C314.65967,199.469924 315.17979,199.411518 315.301507,199.298351 C315.439646,199.169425 315.795215,199.469033 315.965381,199.41885 C316.118448,199.37206 316.268764,199.449035 316.383055,199.387508 L316.437044,199.343989 C316.562937,199.201027 316.762646,199.455553 316.878542,199.054142 C316.925537,198.89139 317.081488,198.707351 317.220232,198.610796 C317.35139,198.519896 317.616027,198.55946 317.577812,198.729251 C317.530433,198.939715 317.576869,199.123899 317.6795,199.269309 L317.735324,199.338725 C318.100613,199.739899 317.732218,200.061561 317.427869,200.323763 C317.230384,200.494215 315.717877,201.129807 315.927084,201.467262 C316.031823,201.637101 316.373586,201.92833 316.534924,201.922943 C316.751455,201.915014 316.905608,201.606185 317.075962,201.747243 C317.221384,201.865681 317.331738,202.019286 317.465439,202.147943 C317.629188,202.304458 317.823477,202.427262 318.009689,202.553523 L318.331556,202.791545 C318.517597,202.717567 318.179545,202.951068 318.353774,202.958057 C318.083079,203.017877 318.589425,203.382504 318.599275,203.408098 C318.824815,203.451823 319.365281,203.787251 319.58652,203.832398 C319.738629,203.86306 320.070935,203.548142 320.091673,203.547504 C320.248523,203.554861 320.409158,203.822785 320.551,203.906515 C320.627741,203.952063 320.708275,203.9647 320.771038,204.014891 C320.861929,204.088207 320.879234,204.212916 320.965956,204.290572 C321.221357,204.521213 321.877989,204.086229 322.016586,204.53936 C322.188657,204.519365 322.359665,204.554458 322.497158,204.648414 C322.613414,204.729659 322.901406,205.782406 323.078905,205.782913 C323.201692,205.782095 323.447447,205.471493 323.586003,205.444567 C323.771275,205.408076 323.659016,204.64745 323.794956,204.807153 C324.020798,204.481158 324.051583,203.670439 324.605161,203.63761 C324.853842,203.623747 325.108082,203.857681 325.357016,203.898749 C325.633687,203.945204 325.830477,203.796463 326.09594,203.74427 C326.117177,203.596362 326.178975,203.479959 326.305777,203.39546 C326.497875,203.268692 326.507619,203.388267 326.704,203.438703 C327.051428,203.527599 327.178139,203.207875 327.163237,202.964147 C327.51006,202.936387 327.80097,203.030384 328.438515,202.602741 C328.576016,202.51051 328.821812,202.802646 329.259616,203.033646 C329.499495,203.159891 329.723137,202.732583 329.833671,202.875131 L329.86094,202.928981 C329.910215,203.064406 329.944131,202.91667 329.978888,203.04549 C330.09355,203.470411 330.078975,203.814283 330.273542,204.332253 C330.367703,204.582937 329.289027,204.439575 329.57921,205.479283 C329.167965,206.329951 330.127188,206.831172 330.433441,207.067984 C330.00691,207.321684 329.785392,208.092414 329.632654,208.781319 C329.462243,208.883564 329.274599,208.960894 329.076477,209.005722 C328.751557,209.079408 328.422384,209.117376 328.096852,209.187083 L327.772826,209.269869 C327.335243,209.40379 326.944662,209.332518 326.505763,209.788591 C326.5253,209.803763 326.542082,209.820169 326.557286,209.840155 C326.315496,210.24612 326.005785,210.627733 325.293223,210.864937 C326.043608,212.020681 325.26646,211.998316 324.492918,212.097324 C324.309841,212.120792 324.043306,212.209692 323.87526,212.430879 L323.809801,212.533967 C323.639234,212.860035 322.947583,213.287997 323.033774,213.52427 L323.107284,213.740481 C323.61028,215.325288 323.838954,218.324467 321.822673,217.474411 C321.386782,217.864722 321.383406,217.646801 321.606984,218.199193 C322.263861,219.822169 320.336561,219.421322 319.699376,219.690545 C319.095975,220.125782 318.321861,221.419387 317.960782,221.032052 C317.566016,220.608586 317.127894,220.547139 316.706676,220.582428 C316.28545,220.617725 315.736466,220.989193 315.553907,220.713202 C315.232016,220.226556 314.282471,220.995545 313.851624,221.555466 C313.642286,221.901063 313.534523,223.065684 313.129237,223.212995 C313.090842,223.22649 313.052104,223.228093 313.014232,223.220351 C312.66597,223.150248 312.323668,222.280362 312.144616,222.077515 C311.674793,221.549033 311.141169,221.839379 310.580839,222.041548 C309.985599,222.256007 309.408714,222.418829 308.806489,222.358227 L308.579381,222.324692 C307.85012,222.182082 307.309384,222.575 306.711886,223.077986 C305.737646,223.534702 304.73287,223.26364 303.754729,222.956092 L302.487285,222.559861 C302.165835,222.461196 301.842694,222.370411 301.510351,222.312954 C300.891436,222.205346 300.265801,222.176057 299.665319,221.977877 C299.192296,221.820955 298.760332,221.557486 298.299141,221.370966 L297.94667,221.248371 C297.291845,221.061365 297.621657,220.654428 296.961191,220.755341 L296.059638,220.800946 L296.121841,220.629676 C296.083692,220.644587 296.031744,220.657579 295.963523,220.667989 C295.697022,220.708665 295.855809,220.994597 296.001264,221.244586 L295.95879,221.257689 C295.83324,221.297662 295.696883,221.362608 295.60452,221.390401 C295.46939,221.43245 295.373381,221.466986 295.209665,221.403733 C295.116542,221.366956 294.896545,221.539673 294.808025,221.483858 C294.716896,221.424986 294.712785,221.025005 294.57906,221.025651 L294.541106,220.924207 L294.286699,220.897964 C294.148418,220.882409 294.005586,220.859414 293.912496,220.811907 C293.738619,220.722422 293.706305,220.510379 293.51303,220.485218 L293.333357,220.469774 C293.152753,220.460759 292.921259,220.468058 292.836158,220.541744 C292.751937,220.615845 292.745725,220.908112 292.747613,221.027507 C292.752681,221.458967 292.924278,221.889569 292.845256,222.323474 C292.810204,222.515659 292.762935,222.564466 292.649479,222.584987 L292.42291,222.60894 C292.212011,222.631681 291.997531,222.654414 291.791365,222.699324 C291.781139,223.113962 291.834469,223.545128 291.871678,223.958 C291.887275,224.141711 291.897084,224.309237 291.819346,224.469046 C291.744649,224.624425 291.541155,224.747629 291.522362,224.935567 C291.058564,225.160346 291.150935,225.882504 291.151114,226.303526 C291.151114,226.545651 291.056659,226.85421 291.08227,227.101346 C291.090918,227.19558 291.135779,227.260354 291.132076,227.365109 C291.122766,227.508177 291.078379,227.605992 291.08321,227.747548 L291.079826,227.766921 C291.001025,227.752044 290.929711,227.725207 290.873937,227.679112 C290.746948,227.574177 290.736493,227.233493 290.680719,227.056068 C290.534651,227.058193 290.347916,227.132074 290.203613,227.110362 C290.076232,227.089738 290.0097,226.976033 289.859913,226.993526 C289.8237,226.83509 289.470542,226.72324 289.329959,226.720902 C289.204809,226.71845 289.150654,226.785946 289.066221,226.819967 C288.98079,226.853213 288.844973,226.851414 288.760646,226.888125 C288.547155,226.984624 288.68245,227.228433 288.521847,227.3493 C288.428128,227.420736 288.271638,227.352569 288.163752,227.355839 C288.056856,227.358128 287.951569,227.408253 287.852741,227.396057 L287.22785,227.865439 C286.916946,227.90654 286.599608,227.904283 286.285204,227.907741 C286.023289,227.910357 285.751057,227.956657 285.491578,227.948196 C285.024935,227.932722 284.369406,227.812943 283.974943,227.515804 C283.989256,227.433619 284.088575,227.338526 284.087569,227.271962 C284.08479,227.161477 283.969752,227.101256 283.917943,227.03282 C283.773894,226.845283 283.673766,226.594452 283.497935,226.430638 L283.436186,226.379305 L283.061308,226.092496 C282.931294,225.984782 282.678297,225.896 282.618387,225.741381 C282.34094,225.683082 282.088728,225.566041 281.815221,225.505232 L281.817183,225.4863 C281.645431,225.271747 281.47945,225.173629 281.357022,224.948973 C281.242319,224.736202 281.258937,224.433864 281.085011,224.250896 C280.92046,224.078711 280.640259,224.09645 280.435392,224.009638 C280.251223,223.931106 280.017117,223.779177 279.862793,223.641104 C279.43403,223.254014 279.489142,222.913387 278.918496,222.732267 C278.410114,222.569858 277.804188,222.70306 277.341109,222.455793 C276.94573,222.244142 276.776087,221.774997 276.536668,221.428403 C276.253237,221.018507 276.000313,220.642035 275.535232,220.394793 C275.063594,220.143398 274.476763,219.992654 273.982253,219.801063 C273.510215,219.617523 273.016466,219.30442 272.712567,218.893657 C272.352665,218.407542 272.524237,217.51691 271.767706,217.494905 C271.267204,217.480665 270.395226,217.650357 270.144232,217.121817 C269.730559,217.094891 269.346722,216.711063 269.049714,216.451289 C269.318888,215.75255 268.609417,214.848218 268.528719,214.150076 C268.443166,213.412436 268.919635,212.59588 268.503673,212.012123 C268.055079,211.384837 267.198845,211.471272 267.489706,210.454926 C267.664311,209.84439 268.505022,209.390638 268.227485,208.614619 C267.920079,208.675117 267.533831,208.525199 267.223237,208.526842 C266.770229,208.52954 266.598125,208.660583 266.210929,208.373368 C265.970825,208.196317 265.786337,207.958946 265.627412,207.738532 L265.512542,207.577608 C265.314975,207.300447 265.10339,207.009234 264.865057,206.749918 L264.260608,206.102468 C263.954052,205.772257 263.65034,205.43292 263.391518,205.087183 C263.041752,204.621676 262.85979,203.743812 262.379619,203.452019 C262.426245,203.354155 262.954597,203.070087 263.056376,203.064349 C263.177594,203.249956 263.148828,203.436864 263.238755,203.619112 C263.343738,203.831049 263.446188,203.88921 263.62815,204.059253 L263.92377,204.335221 C264.138338,204.54448 264.358507,204.794537 264.408027,205.026798 C264.461659,205.029905 264.514466,205.035357 264.567926,205.042534 C264.773839,205.539218 265.200649,205.684158 265.705433,205.556392 L265.44852,204.915717 C265.61791,204.662204 265.521289,204.407114 265.547659,204.071147 C265.575959,203.690777 265.758469,203.642687 265.968918,203.402834 C266.209172,203.126883 266.163698,203.044387 266.24249,202.65782 C266.295657,202.399886 266.394673,202.134512 266.456128,201.86385 C266.851875,201.808493 267.230324,201.515351 267.574204,201.343591 C267.912264,201.173678 268.267376,201.142689 268.624793,200.980984 C268.928071,200.844847 269.305392,200.715847 269.591807,200.557223 C269.813046,200.434542 269.711896,200.319455 270.03064,200.358717 C270.253311,200.386346 270.307213,200.522997 270.482488,200.616594 L270.684511,200.724646 C270.905656,200.839451 271.171086,200.957654 271.363065,200.92749 C271.495858,200.906458 271.663098,200.763144 271.748496,200.658496 C271.916439,200.453368 271.787643,200.28446 271.878338,200.100757 C272.075341,199.694728 272.462578,199.974962 272.837104,199.890676 C273.183542,199.812766 273.583703,199.680283 273.938537,199.537591 C273.986316,199.139065 274.202406,198.684283 274.530943,198.420243 C274.832856,198.178174 275.465332,198.261365 275.502624,197.709815 C276.088351,197.56333 276.670965,197.956984 277.109888,197.401632 C277.283529,197.18094 277.224044,196.885698 277.398534,196.670082 C277.56946,196.458283 277.834777,196.450485 278.060112,196.443324 C278.671114,196.424392 279.268098,196.488283 279.866831,196.250768 C280.113379,196.153812 280.369401,195.911523 280.500738,195.701654 C280.620035,195.512196 280.654433,195.199796 280.90618,195.145223 C280.913455,195.091395 280.918384,195.036725 280.921327,194.982292 C281.225717,194.951907 281.276079,194.765948 281.533245,194.67715 C281.555234,194.61746 281.55351,194.557747 281.527605,194.498294 L282.624787,194.167134 C282.715466,193.881161 283.132351,193.636918 283.359395,193.444812 C283.752305,193.112719 284.068728,193.496033 284.514044,193.341332 C284.921414,193.200079 284.797409,192.606831 284.481877,192.422327 C284.145518,192.224834 283.790995,192.384602 283.443926,192.289575 C283.374068,192.004616 283.313774,191.626117 283.313112,191.328839 L283.313932,191.068444 C283.319496,190.883266 283.342946,190.68606 283.431387,190.54364 C284.206548,190.677349 284.680049,191.471204 285.531984,191.127128 C285.930567,190.965324 286.283529,191.059183 286.324858,191.540253 C286.347232,191.795678 286.260322,192.365932 286.14624,192.623466 C286.297245,192.734458 286.550774,192.590466 286.699924,192.689973 C286.869845,192.803826 286.811962,192.992278 286.869706,193.176676 C287.021929,193.184605 287.301763,193.344398 287.42809,193.429354 C287.518286,193.489698 287.764907,193.750926 287.798095,193.84642 L287.995972,193.879975 C288.42575,193.943934 288.848279,193.928486 288.989798,193.393722 C289.077975,193.061875 288.97761,192.951422 289.407158,192.939905 C289.65691,192.932875 289.952406,193.100041 290.192619,193.05545 C290.54061,192.990193 290.446899,192.687668 290.492569,192.430649 C290.533057,192.197016 290.647809,192.003381 290.645316,191.75318 C290.643436,191.499071 290.546373,191.280308 290.449188,191.049847 C290.368466,190.862417 290.127926,190.641668 290.172951,190.435869 C290.32729,190.423045 290.435507,190.348263 290.558975,190.282196 L290.925737,190.105797 C291.028562,190.059802 291.133458,190.022932 291.208507,190.030951 Z" id="prague" stroke="#000000" stroke-width="0.5" fill="#EBE084" fill-rule="nonzero"></path>
</svg>