<svg>
        <path d="M140.0667,106.502409 C140.997313,107.778267 141.87776,109.094204 142.776035,110.395379 C142.897229,110.544823 142.916005,110.744074 142.913823,110.932665 C142.89364,113.367725 142.879654,115.802033 142.872207,118.237199 L143.382121,121.439943 L143.382121,121.439943 L143.456061,121.979157 C143.492581,122.220783 143.587142,122.823848 143.674376,123.190387 C143.727728,123.408698 143.847084,123.594165 143.975415,123.772672 L144.167512,124.038447 C144.419267,124.362259 144.634466,124.714428 144.859858,125.058561 L147.221921,126.829886 L147.221921,126.829886 L147.132908,126.922988 L147.132908,126.922988 L147.421687,127.000044 L147.421687,127.000044 C148.10679,127.505719 148.657237,128.054621 149.329131,128.579368 C149.533009,128.750869 149.614246,129.014221 149.709981,129.261197 L149.759692,129.38282 C150.367809,130.872782 150.98545,132.359 151.608158,133.842357 C151.638232,133.942877 151.97715,134.088839 151.97715,134.088839 C152.198725,134.222253 152.387757,134.408311 152.579978,134.583635 C152.22821,134.797877 151.829913,134.912196 151.482738,135.133477 C151.341591,135.227384 151.411204,135.427281 151.448324,135.561692 L152.290313,138.108363 L152.290313,138.108363 L153.126673,140.657155 C153.274425,141.136771 153.480117,141.598689 153.570199,142.096403 L153.17969,141.998856 L153.17969,141.998856 L152.40436,141.78133 C152.227638,141.733109 152.038711,141.674899 151.926935,141.513022 C151.578117,141.037616 151.258662,140.538471 150.915354,140.058929 C150.80988,139.921714 150.679025,139.75548 150.49349,139.767471 C150.235513,139.779482 149.981471,139.833059 149.726979,139.878826 L149.472174,139.920161 C148.826586,140.039531 148.172357,140.054343 147.519232,140.08185 C147.325981,140.090025 147.850188,140.318842 148.171237,140.509869 C148.213008,140.445537 148.559986,140.214586 148.75394,140.291932 C149.23864,140.315687 150.217392,140.0913 150.079507,140.168213 C150.016883,140.204376 150.783297,140.684899 150.820237,141.295706 C150.821611,141.3185 150.879779,141.389139 150.972189,141.490881 C150.982599,141.489296 150.990919,141.491844 151,141.5 L151.098656,141.607211 C151.147289,141.662801 151.210252,141.736475 151.28329,141.822928 L151.545508,142.1046 C151.813198,142.396694 152.081449,142.708321 152.207569,142.93388 L152.832093,143.690229 L152.832093,143.690229 C153.010098,143.904946 153.247948,144.047384 153.453052,144.230384 C153.598948,144.357725 153.6417,144.560221 153.694883,144.742436 L154.149652,146.509418 L154.149652,146.509418 L154.613463,148.27391 C154.666744,148.473381 154.730406,148.683431 154.679185,148.892172 C154.583921,149.352071 154.458256,149.804956 154.358422,150.264087 C154.333523,150.43454 154.222883,150.568362 154.101093,150.675766 L151.598946,152.808496 L151.598946,152.808496 C151.450172,152.904218 151.334659,153.158196 151.506354,153.289689 C152.123332,153.858545 152.808264,154.345109 153.42655,154.913589 L153.0821,155.270334 C152.966081,155.388106 152.846304,155.501298 152.715101,155.599608 C152.313272,155.729924 151.888311,155.635281 151.480025,155.700954 C151.20946,155.948229 151.147891,156.358093 150.992733,156.686237 C150.726956,156.54367 150.437529,156.482626 150.145444,156.435771 L149.707948,156.367714 C149.242392,156.291986 148.672809,156.232681 148.208316,156.152613 C147.778965,156.099757 146.330986,156.538346 146.330986,156.538346 L146.297824,157.090871 C146.290685,157.246174 146.286239,157.398549 146.28991,157.49394 L146.852014,157.649065 L146.852014,157.649065 L146.798136,158.306155 L146.798136,158.306155 C146.967714,158.475104 147.133425,158.64867 147.292572,158.82952 L147.173714,159.288169 C147.131839,159.44046 147.083222,159.590315 147.014398,159.732202 C146.611392,160.000779 146.143025,160.146218 145.746624,160.427523 C145.67818,160.728627 145.744172,161.043324 145.746624,161.349782 C145.425992,161.395624 145.303204,161.714311 145.160251,161.973668 C144.871401,161.898226 144.593332,161.785542 144.30364,161.715561 C144.130482,162.101302 143.938801,162.476891 143.752278,162.855766 C143.116801,163.255215 142.406014,163.514997 141.771289,163.919997 C141.860414,164.184071 141.981518,164.434796 142.087123,164.692452 C141.903943,164.872518 141.719104,165.053319 141.520106,165.214575 C141.400253,164.954131 141.347545,164.654646 141.171943,164.426711 C140.593777,164.446452 140.015651,164.560763 139.450074,164.688046 L139.356796,165.300316 L139.356796,165.300316 L138.82554,165.421887 C138.647919,165.459702 138.469347,165.49158 138.288583,165.507831 L138.047439,164.05548 L138.047439,164.05548 C138.272112,163.988891 138.496875,163.919376 138.714035,163.82824 C138.593218,163.42897 138.322728,163.107308 138.185692,162.718084 C138.165501,162.334019 138.574204,162.379935 138.82076,162.406935 C138.851651,162.14555 138.832466,161.882564 138.819044,161.621638 C138.98473,161.509583 139.214136,161.448226 139.296886,161.242223 C139.426785,160.897567 139.564114,160.525853 139.484316,160.151065 L139.84752,159.924986 L139.84752,159.924986 L139.819604,159.777556 C139.793515,159.662202 139.745821,159.488822 139.663278,159.292591 C139.436316,158.740689 139.32073,158.14409 139.079144,157.600134 C138.453207,156.901272 137.449981,156.546357 137.090185,155.605698 C137.141439,155.329894 137.26954,155.076014 137.337428,154.804902 C136.927777,154.385564 136.504801,153.982542 136.059967,153.603676 C136.411793,153.178395 136.855981,152.850308 137.22861,152.446052 C137.311981,152.366736 137.335728,152.249777 137.374638,152.145185 C136.678997,151.690305 135.931924,151.326798 135.250401,150.848924 C135.342894,150.409297 135.438763,149.971698 135.539316,149.534327 C135.737725,149.415431 136.088937,149.39152 136.080199,149.082553 L136.147162,147.711562 C136.157538,147.406746 136.16004,147.102207 136.144924,146.798695 C135.894649,146.488886 135.553196,146.278534 135.262621,146.013692 C135.0923,145.847801 134.831586,145.713545 134.818237,145.44003 C134.760223,144.858659 134.723717,144.274346 134.679967,143.691839 C134.617548,143.228531 135.118499,142.882787 134.940027,142.414861 C135.121008,142.206886 135.387469,141.750689 135.661344,141.282928 C135.379218,141.041474 136.063253,140.798973 135.919989,140.435065 L135.53887,139.579604 L135.53887,139.579604 L135.147076,138.729684 C135.044839,138.420537 134.680572,138.478485 134.437629,138.39088 C134.397485,138.16355 134.291602,137.915417 134.401417,137.69273 C134.540226,137.399907 134.702708,137.120114 134.85042,136.832319 C135.044946,136.440635 135.419112,136.287913 135.716128,136.002169 L135.600518,135.791417 L135.600518,135.791417 C135.175409,135.157346 134.79745,134.490226 134.399136,133.837886 C134.180537,133.438681 133.691782,133.403098 133.33045,133.21391 L133.314534,132.509008 L133.314534,132.509008 C133.023689,132.42361 132.726093,132.378512 132.429608,132.322918 C132.240649,131.908101 132.085147,131.475545 131.965172,131.033597 C132.285992,130.629283 132.55851,130.179708 132.918101,129.812188 C133.277087,129.702071 133.659256,129.730158 134.023842,129.649191 C134.150888,129.641262 134.191466,129.509155 134.208379,129.399071 C134.281548,128.885262 134.249807,128.35606 134.363684,127.848553 C134.456702,127.636294 134.609821,127.463753 134.752104,127.284758 L135.017507,126.942101 C135.111244,126.827695 135.218301,126.730668 135.373343,126.735373 C135.603119,126.719726 135.830316,126.502535 136.057175,126.254498 L136.076093,126.003174 C136.089753,125.792982 136.085978,125.584185 135.97349,125.401395 C135.705142,124.911741 135.354918,124.476986 135.106041,123.975079 C135.225796,123.805411 135.347888,123.635597 135.460008,123.460232 C135.305243,123.203956 135.07551,122.982725 134.98555,122.691937 C135.232343,122.261809 135.715875,121.66467 135.715875,121.66467 L135.189126,120.542709 C135.110358,120.378621 135.037605,120.229802 134.983629,120.124665 C134.515155,120.194793 134.145428,120.539956 133.709807,120.708005 L133.504508,120.159186 C133.438384,119.975213 133.377984,119.78929 133.333548,119.598676 C133.436823,119.338616 133.677624,119.159302 133.83924,118.935267 L133.792807,118.609084 C133.778275,118.500214 133.76854,118.39102 133.775153,118.280965 C134.050523,117.850632 134.433493,117.506899 134.723888,117.08712 C134.349313,116.310946 133.85706,115.604384 133.488559,114.825283 C133.984801,114.412452 134.531946,114.075144 135.046932,113.68946 C135.76345,113.138441 136.515804,112.640131 137.235959,112.09445 C137.537267,111.868869 137.871354,111.680417 138.126624,111.395556 C138.195738,111.151673 138.061033,110.895978 138.011905,110.656223 L137.477586,108.687414 L137.477586,108.687414 L137.433754,108.512948 C137.412576,108.424634 137.398896,108.335121 137.421477,108.246308 C137.922322,107.867662 138.466703,107.555131 138.980414,107.195327 C139.346185,106.969886 139.69,106.708444 140.0667,106.502409 Z" id="sheffield" stroke="#000000" stroke-width="0.5" fill="#EF7F72" fill-rule="nonzero"></path></svg>