<svg>
        <path d="M379.590161,274.192929 C380.003801,274.216235 380.26502,274.714292 380.682994,275.012554 C381.577343,275.650706 381.9716,274.997504 382.90769,275.754119 L383.075854,275.890278 C383.099737,275.910454 383.121677,275.929868 383.141868,275.949268 C383.202317,276.007469 383.238037,276.051932 383.258895,276.105387 C383.279752,276.158842 383.310352,276.210674 383.297862,276.261506 C383.285373,276.312214 383.25852,276.367542 383.219803,276.417625 C382.413467,277.459651 381.793724,276.606454 381.346375,276.768893 C380.899,276.931344 381.277957,277.556495 380.878018,277.744637 C380.478091,277.932791 380.165803,277.832351 380.136452,278.095904 C380.305636,278.314146 380.512112,278.387785 380.721899,278.72038 C380.904558,279.009975 381.151776,279.803646 381.502494,280.047392 C381.853224,280.291137 382.884721,280.186713 383.102713,280.515749 C383.189341,280.647378 383.218656,280.737907 383.221802,280.83308 L383.21974,280.945014 L382.517205,281.803668 L382.500348,281.85818 C382.436453,282.023648 382.145894,282.53114 380.916985,282.896501 L380.190098,283.112489 C379.224381,283.409597 378.809379,283.63527 378.809379,284.457691 L378.813236,284.83556 C378.834017,285.717031 378.956721,286.580156 379.589974,287.072684 C379.831221,287.260314 380.195653,287.483215 380.565717,287.69716 C380.555376,288.018116 380.570463,288.21048 380.682744,288.321636 L380.847727,288.476636 C380.996099,288.626374 381.165277,288.863102 381.30722,289.453499 C381.507652,290.287137 382.451947,289.702428 382.517142,290.780511 C382.597575,292.110357 383.141431,292.595238 383.492886,292.888117 C384.338014,292.863887 383.910823,293.422231 384.46863,293.239385 C384.989018,293.068803 384.747908,293.970222 385.795641,293.785801 C386.233745,293.708679 386.316105,294.469903 386.837946,294.683561 L386.966534,294.722515 C387.372156,294.805321 387.199301,295.261138 387.942278,295.815348 C387.998231,295.857063 388.045441,295.860186 388.098397,295.893408 L387.896948,296.349222 C387.852996,296.443471 387.815116,296.51709 387.786159,296.556914 C387.482373,296.97461 385.608668,298.226962 384.927215,298.771277 L384.819898,298.859669 C384.257007,299.342151 382.336132,300.287283 381.853637,300.850186 C381.371154,301.413089 382.594015,302.714197 382.634232,303.035852 C382.674435,303.357507 381.971912,304.115733 381.931696,304.558012 L381.924641,304.703887 C381.90295,305.501346 381.976103,308.56125 382.087815,309.827028 C382.208439,311.194069 382.847228,310.825328 383.570946,311.388218 L383.940753,311.669689 C384.572522,312.141626 385.292324,312.641604 386.263998,313.378736 C386.992325,313.93126 388.461966,314.105189 389.503468,314.19836 C389.559171,314.219718 389.59539,314.265179 389.659587,314.27642 C389.949368,314.329411 390.067642,314.289358 390.23456,314.30326 L390.323092,314.315387 C390.349653,314.320383 390.388093,314.322048 390.425497,314.320383 L390.479211,314.315387 L390.63533,314.315387 L390.63533,314.27642 C390.810404,314.263059 390.980714,314.327517 391.078783,314.770478 L391.103687,314.900896 C391.248578,315.784042 391.537336,316.259631 391.689134,316.501116 C391.840919,316.742601 392.104023,316.688533 392.430699,317.554919 C392.539518,317.843512 392.707293,318.052633 392.81294,318.16839 L392.860026,318.218425 L392.898993,318.218425 C392.907736,318.227792 392.895246,318.292737 392.898993,318.296484 C392.934251,319.186887 392.087437,319.309984 392.469666,320.794388 L392.703845,321.692072 L395.162656,326.570229 L392.570957,327.163768 C392.252325,327.237239 391.91283,327.316432 391.549747,327.402686 L390.791324,327.585003 L390.752357,327.467976 L390.71339,327.506943 L390.71339,327.506943 C390.479099,327.741246 390.245158,326.921434 390.010854,327.038586 C389.659399,327.272889 389.893902,327.780014 389.542497,328.01433 C389.36677,328.131481 388.748688,328.075578 388.059367,328.326568 C387.486872,328.53563 386.808791,328.470809 386.107879,328.209541 C385.360919,327.931087 384.520936,328.420427 383.922213,328.755957 C383.417587,329.039157 383.373474,328.395448 382.712291,329.029166 C381.78736,329.352884 381.646583,329.752251 381.605257,330.191794 L381.580428,330.551326 C381.557073,330.84167 380.927077,331.476337 380.799833,331.800278 C380.672565,332.124206 381.043978,332.112329 380.721774,332.463784 C380.604622,332.55171 380.343429,332.433809 379.550881,332.580811 C379.154601,332.654374 379.28689,333.007802 378.848346,333.400435 C377.946652,334.207133 378.125877,332.937174 376.389472,333.517462 C375.361547,333.860961 375.561879,334.547498 374.477014,334.415146 C373.535142,334.300243 371.871887,335.42024 371.666872,335.391457 C371.506007,335.391457 371.585066,335.127161 371.588812,334.883503 C371.607172,334.744457 371.608421,334.629841 371.549845,334.571265 C371.374118,334.454114 371.135093,334.380925 370.886339,334.337087 C370.687336,334.302016 370.482091,334.28557 370.287989,334.310385 L370.144774,334.337087 C370.121594,334.337087 370.092753,334.349448 370.063654,334.36606 L370.080677,334.360365 L370.127188,334.353337 C370.595807,334.236198 371.180804,334.3532 371.532259,334.587516 C371.7667,334.821807 371.180929,335.953557 371.415232,335.953557 C371.415232,337.476529 373.288848,337.396896 372.937393,338.802729 C371.765863,343.254518 371.064402,339.386477 370.24434,342.549585 L370.255001,342.649008 C370.270401,342.815843 370.292118,343.165459 370.24434,343.486299 C370.178433,343.927454 369.629331,343.919723 369.775983,344.501072 C369.938222,345.14417 369.712336,345.62739 369.541804,346.062262 C369.37367,346.491015 369.541804,347.320894 369.541804,347.350244 C368.789898,348.326363 367.296189,347.511396 366.848752,348.404047 C366.527022,349.04591 366.578043,349.360554 365.910386,349.6657 L365.755919,349.731059 L367.08293,352.072844 C367.434385,353.127222 365.794948,352.072469 365.794948,352.775379 C365.9121,355.821348 364.62513,354.180263 362.633539,354.531718 C362.423028,354.559282 362.284144,354.155509 362.204211,353.712093 C362.204211,353.009183 362.516574,352.541526 362.282271,351.955755 C362.047955,351.604299 361.345682,351.955942 361.111378,351.604487 C360.525632,351.13588 361.967997,351.138016 360.174664,349.731059 C359.354615,348.676694 354.866169,348.444089 352.954161,344.540102 C353.61478,343.239049 354.495251,346.064816 354.869897,345.61142 L354.95803,345.460749 C355.106007,345.190004 355.44516,344.456408 354.749529,343.837567 C353.851595,343.038762 352.622502,341.788848 352.446774,341.144514 C352.341337,340.828204 352.805056,340.702035 352.898854,340.423753 L352.915131,340.324889 C353.032158,339.85627 352.915006,339.271348 353.032158,338.802729 C353.032158,338.262029 352.732693,337.72202 352.963051,337.365713 L353.101553,337.191471 C353.285756,336.948684 353.763305,336.274795 353.617604,335.992587 C353.079943,334.951161 353.355074,335.19382 353.383426,334.353337 C353.411739,333.512855 352.454692,333.798241 353.851783,331.777374 C354.086086,330.371554 353.143489,331.411793 352.290593,330.294243 C351.214258,328.883914 352.866197,329.391264 353.110217,327.79634 C353.205337,327.174574 352.075773,327.113537 352.368652,326.703507 C352.720107,326.2349 353.422193,326.625709 353.890812,326.15709 C354.125128,325.922787 353.500577,325.454742 353.383426,325.103287 C353.32485,324.693268 353.836083,324.311251 353.968872,324.010454 C354.309736,323.238314 353.984047,323.579053 353.617604,323.385978 C351.7429,322.398189 351.789492,323.272517 351.467907,323.202115 L351.44892,323.19631 L351.449149,323.214108 L351.449149,323.214108 L351.369736,323.194489 C351.287898,323.168503 351.15386,323.110394 351.020948,322.985267 L350.941763,322.90187 C350.707184,322.625889 350.442706,322.518629 349.614751,322.394483 C348.842005,322.278567 348.557727,321.849825 348.556868,321.366851 L348.560948,321.26262 C348.594823,320.833588 348.455313,320.644242 348.222069,320.476202 L348.053561,320.364936 C347.722339,320.157947 347.525279,319.940355 347.663264,319.857549 C347.790645,319.781125 347.487709,319.276394 347.190718,319.264324 L347.116847,319.272103 C347.017131,319.298081 346.881982,319.259364 346.765579,319.194044 L347.936472,317.437705 L343.56514,315.13495 L343.467302,314.830135 C343.455247,314.788997 343.443737,314.745199 343.43371,314.698506 L343.409021,314.549503 C343.387914,314.366931 343.337831,314.29122 343.291994,314.237265 L343.239899,314.18489 C343.232877,314.173535 343.227631,314.159905 343.21406,314.159331 C343.063636,313.886672 342.81733,313.569588 342.355405,313.261646 L340.09168,311.778516 L340.09168,310.724713 L339.193995,309.59285 L339.506233,306.314351 L341.106453,306.080173 L341.013893,305.53761 C340.86057,304.59844 340.586716,302.721664 340.755185,302.216227 C340.982632,301.5339 343.273297,300.404023 343.955625,299.835413 C344.637965,299.266802 343.721446,297.766836 343.721446,297.766836 L343.854312,297.629914 C344.08599,297.406027 344.587105,296.986241 345.087488,296.986241 C345.506258,296.986241 345.898206,296.87244 346.318704,296.716263 L346.531588,296.634973 L346.938128,296.487275 L346.938128,296.487275 L347.156127,296.400795 C347.952184,296.059631 349.302763,296.295745 349.302763,295.386021 C349.302763,294.476247 348.501972,292.334969 347.819632,292.107522 C347.283518,291.928814 346.891117,291.52494 346.747563,291.360057 L346.68777,291.287897 L346.570743,290.156097 L346.732857,290.194032 C347.243413,290.30567 348.806669,290.585299 349.185736,289.921919 C349.640629,289.125862 349.197826,287.300194 348.288052,287.072747 C347.378265,286.8453 345.415312,285.608438 344.619255,284.926111 C343.856367,284.272202 343.929019,281.72837 344.536949,280.716784 L344.619255,280.593808 C345.301595,279.684034 345.868207,276.976132 345.868207,276.066357 L345.870714,275.860955 C345.89369,274.994579 346.099483,274.033145 347.468427,274.349048 C348.946812,274.690212 350.422586,277.556232 351.332372,277.783666 C352.172164,277.993617 353.005687,277.904305 353.57619,277.531498 L353.713187,277.432399 C354.281797,276.977505 355.311421,277.88929 356.562359,276.183447 L356.972166,275.609191 C357.864757,274.337811 358.129489,273.947535 359.52862,275.246733 L359.824211,275.530466 C361.05688,276.752513 361.044389,277.222057 362.659812,276.397506 L363.271275,276.078666 C364.181366,275.610347 365.011497,275.224713 365.598738,274.962405 L366.475915,274.583227 L367.139421,274.349048 C367.298088,274.700316 367.806274,275.006747 368.271284,275.285762 C368.823246,275.616935 368.72855,274.513011 369.832474,275.285762 L370.575382,275.816343 C371.254402,276.291179 371.8052,276.57849 372.798735,276.495685 C373.306621,276.453358 373.678172,276.318084 374.008657,276.261506 L374.281865,276.144479 L374.281865,276.144479 L374.413653,276.190755 C374.435125,276.199794 374.456281,276.210091 374.477014,276.222539 L374.515981,276.261506 L374.515981,276.261506 C374.608104,276.289957 374.703511,276.342313 374.789189,276.417625 C374.873007,276.491226 374.942186,276.598848 375.023368,276.729863 C375.044225,276.76346 375.080695,276.770079 375.101427,276.807923 C375.123159,276.839271 375.118788,276.892602 375.140395,276.92495 L375.543062,277.560354 C375.863981,278.060055 376.190555,278.477462 376.584495,278.36905 C377.076458,278.233664 377.079093,277.409093 377.44315,276.378533 C378.0683,274.608868 378.157788,275.345887 378.614042,274.817343 C378.999753,274.370513 379.285465,274.208445 379.520685,274.192929 L379.590161,274.192929 Z M366.071621,327.064414 L365.809516,327.50907 C365.460426,328.088679 365.09235,328.672565 365.09235,328.850143 C365.09235,329.787369 368.136421,334.118784 368.605028,334.821694 C368.666152,334.893005 368.725497,334.948373 368.783143,334.99003 L368.798627,334.999142 C368.742018,334.95123 368.688683,334.882286 368.622739,334.805381 L367.553885,333.22815 C366.506976,331.661203 365.110061,329.468725 365.110061,328.83383 C365.110061,328.78582 365.180877,328.659913 365.227088,328.560621 L365.339353,328.422186 L365.339353,328.422186 L365.461267,328.287413 C365.541762,328.199624 365.606957,328.141036 365.656415,328.053235 C365.693135,327.987374 365.713204,327.916083 365.708561,327.84746 L365.695383,327.780026 L365.695383,327.741059 L365.812409,327.54591 L365.812409,327.54591 C365.911132,327.38215 365.994485,327.218693 366.071621,327.064414 Z M353.308182,310.46295 L353.268873,310.490486 C353.176216,310.558774 353.067384,310.649591 352.935889,310.81301 L352.691598,311.141757 C352.536499,311.355048 352.499046,311.436353 352.541982,311.661739 C352.549476,311.699957 352.543648,311.733235 352.54115,311.766753 L352.541982,311.856825 C352.464797,312.022416 352.474499,312.141814 352.410838,312.26773 L352.346834,312.364212 L352.345995,312.37397 L352.366404,312.348664 C352.476761,312.216196 352.473654,312.103422 352.517427,311.957633 L352.561553,311.841278 L352.781297,311.413803 C352.816548,311.340672 352.845906,311.271711 352.861561,311.214589 L352.873791,311.138742 C352.873791,310.986944 353.020443,310.805959 353.186029,310.709415 C353.270539,310.660149 353.303501,310.574009 353.308182,310.46295 Z" id="westbalkan" stroke="#000000" stroke-width="0.5" fill="#DCCFBE" fill-rule="nonzero"></path>
        </svg>