<svg>
  <path
     id="bordeaux"
     style="fill:#54bff9;fill-rule:nonzero;stroke:#000000;stroke-width:0.5"
     d="m 141.84497,243.87625 1.55654,0.1636 1.39225,-0.18527 -0.0474,-0.603 0.44454,-0.22459 0.35387,0.63802 0.3487,0.20292 0.17294,1.31937 0.78972,1.05844 0.0199,0.76627 0.83881,1.06346 -0.10728,1.02083 -0.2758,0.62162 0.90608,0.91338 0.45975,0.58687 0.82018,0.20116 0.19813,1.15727 0.53345,0.37783 -0.18415,0.79739 -0.41844,0.0345 0.13684,0.048 1.29587,0.23436 0.51667,-0.43294 0.74216,0.94873 0.15908,-0.15715 -0.0664,0.79295 -0.75836,1.21447 0.0485,0.65639 0.003,9.8e-4 -0.0474,-0.65359 0.75829,-1.21377 0.0658,-0.79372 1.01027,-0.96926 0.43184,0.37419 0.63016,0.005 0.19651,0.13283 0.94135,0.15153 0.39845,-0.82605 2.57043,0.60038 0.96263,0.36898 1.73605,-0.0328 0.52694,0.97449 -0.0678,0.64488 0.30667,0.51877 0.41856,-0.44255 0.33667,0.80166 0.5517,0.27391 0.42771,1.45341 -0.0746,1.67894 0.35908,0.57546 0.0999,1.04842 -0.67373,0.41572 -0.22986,0.74002 -0.60825,0.25786 -1.05412,0.48862 0.0483,0.49104 0.96519,1.2311 -0.003,0.002 0.10311,0.13002 0.0271,0.77156 -0.5587,0.74892 -0.0792,0.75305 0.27716,0.41191 0.0622,0.92994 -0.3588,0.93327 0.1903,0.67292 -0.3554,0.34543 -0.51571,-0.0542 -0.46057,-0.64993 -0.43751,-0.31379 -0.20807,1.49737 -1.00227,0.49267 -0.77416,0.89325 0.0534,0.98724 -0.25126,0.40755 -0.35771,0.83244 -0.41633,-0.0438 -0.47074,0.48684 0.28128,0.35977 0.1522,0.55744 -0.72684,0.41716 -0.005,-0.18288 -0.78503,-0.30825 -0.65552,0.53963 -0.23479,-0.5631 -0.97663,0.81716 -0.60096,0.014 -0.86449,-1.6192 -1.26006,-0.74938 -1.16456,0.41533 -0.1564,0.009 0.0284,0.0591 -0.002,0.001 0.001,0.002 -0.39137,0.28065 -0.0622,0.59217 0.4108,0.5809 -4.9e-4,0.004 -0.55707,0.81078 -0.44505,0.22944 -0.11439,0.5264 -0.89334,0.0183 -0.0107,0.58638 0.30395,0.14411 -0.002,0.003 0.002,8.9e-4 -0.84469,0.99578 -1.15114,-0.0158 -0.13409,0.80127 -0.52593,0.43057 -0.0651,0.13477 -0.77676,-0.43848 -0.32999,-0.47776 -0.56406,-0.0593 -0.003,0.003 0.56407,0.0593 0.33013,0.47637 0.77669,0.43918 -0.002,0.003 0.001,8.2e-4 -0.26785,0.54602 -1.04294,-0.057 0.24596,1.64533 0.39975,1.24155 h -0.001 l 0.001,0.003 -1.17079,0.0936 -0.7318,-0.56275 -0.4955,1.18742 0.50793,0.70327 -0.3661,0.99851 -0.35653,0.34322 0.15076,0.66643 -1.01508,0.11065 -0.80415,0.13211 0.12893,0.76943 -0.53284,0.10875 -0.2933,0.23908 -0.69947,-0.88326 -1.57287,-0.008 -0.4951,0.71225 -0.95178,0.006 -0.89911,0.0666 -0.30881,-0.56948 -0.92311,0.773 -0.56108,-0.60428 -0.24433,0.40619 7.4e-4,0.002 -0.20572,0.36187 -0.0225,0.70009 -0.59148,0.10468 -0.218,-0.40778 -0.17257,-0.83208 -0.80092,0.56641 -0.49319,-0.26846 -0.58573,0.0499 -0.58468,0.58914 0.50362,1.13983 -0.46137,0.38478 0.0643,0.92656 -0.58889,0.64198 -0.47563,0.98562 0.2986,0.7002 -0.002,0.001 0.038,0.0972 1.39588,0.25188 0.72346,1.59818 -0.63085,0.47914 0.8707,1.71544 -0.58815,0.64149 -1.03659,1.84633 -1.53608,1.08856 0.28557,0.79711 -0.33746,0.18117 -0.75697,-0.24572 -0.40281,1.74822 -0.45058,0.28215 -0.19832,1.10089 -1.46416,0.63692 -0.23032,-0.29552 -0.5282,0.0581 -0.60759,0.25793 -0.45673,-0.6993 -1.23705,-1.21388 0.0109,-1.13883 -1.9722,-0.20728 -1.11644,-0.88221 -1.22715,-0.34561 -0.35489,-0.62831 -0.93339,-0.0981 -0.3086,-0.58 0.12184,-0.68756 -0.52125,0.48293 -0.2425,0.78916 -0.80527,-0.35455 -0.40798,-0.58832 0.0996,-0.47893 0.77091,-0.30036 0.10648,-1.01308 0.39366,-0.28953 -0.083,-0.65721 -0.60595,-0.22914 -0.94528,-0.53402 -0.25887,0.46704 -0.72575,-0.13725 0.0228,-0.70148 -0.928,-0.14941 -0.5607,-0.65975 0.0623,-0.59638 0.68416,-0.0305 0.97325,-0.28119 1.35381,-1.37623 0.25911,-0.37099 0.92092,-1.29484 0.44303,-1.25672 0.55846,-1.79296 1.69471,-4.60038 1.47264,-5.05975 0.12926,-1.22985 0.66092,-0.74601 0.19166,-0.79741 0.5395,-0.15911 0.17511,0.34931 1.30234,0.0759 -0.26229,-0.46293 -0.0733,-0.32951 -0.93969,-1.07816 -0.82502,0.89269 -0.49606,1.19927 0.14566,-0.9143 0.84568,-3.4922 1.15455,-4.4931 0.72963,-4.48812 0.968,-1.20014 0.5183,0.10705 -0.1773,1.1185 2.39554,2.75531 0.42384,3.029 0.12199,1.31331 0.30357,-0.40135 0.0643,-1.56797 -0.20391,-1.59324 -0.0382,-0.35397 0.005,8.2e-4 -0.19578,-1.89033 -1.48473,-1.89331 -0.56232,-0.17267 0.007,-0.53778 -0.68877,-0.50705 -0.99462,-1.03347 -0.6307,-0.007 0.0179,-1.19696 -0.0846,-1.1979 0.009,-1.03454 -1.10442,-1.03519 0.30635,-1.87758 0.62819,0.98654 0.86987,0.205 -0.028,1.29965 0.23594,0.24213 0.11896,0.38847 -0.53224,0.59395 0.0544,0.43828 0.72926,0.0766 -0.1287,-0.2835 0.0281,-0.7521 0.61903,0.11765 0.38316,-1.15857 -0.39353,-0.74523 0.24155,-0.29571 0.61452,0.16694 0.11275,-0.58826 -0.44417,-0.26332 -0.18809,-0.77482 -0.70609,-0.23897 -0.15766,-0.5024 -1.09591,-0.0633 -0.52295,-0.54081 -0.68331,-0.55906 -0.72381,-0.0769 -0.48398,-0.9195 0.91728,-0.23308 0.57729,0.49533 0.052,0.5523 1.02997,0.21271 0.36582,0.5243 0.79301,-0.0197 0.15571,-0.53187 0.90569,-0.60729 -0.34486,-0.40232 1.69575,-0.825 0.73719,0.0271 0.21874,0.8916 1.03438,-0.32451 0.72008,0.68209 8.9e-4,-0.007 0.0451,0.0489 0.70926,-0.25637 0.59127,-0.1026 0.29204,-0.29181 0.77372,-0.40451 -0.46022,-0.59521 -0.44927,0.2811 -0.005,-0.43414 0.43942,-0.66681 -0.2976,-0.68257 0.3534,-0.39752 -0.002,-1.52012 -0.43109,-0.85294 0.41749,-0.45178 -0.7315,-1.04997 0.38139,-0.66379 -1.13624,-1.20398 0.0677,-0.64419 -0.4374,-0.81224 1.14177,-0.36666 1.57525,0.54764 0.77459,-0.41283 0.0785,-0.74681 1.41868,0.0348 1.3266,-0.12908 1.41211,0.0972 0.11823,0.39311 0.33185,0.35666 0.12963,-0.18676 0.29853,-0.41801 1.10328,-0.96929 0.46551,0.0445 0.1172,0.88094 0.96981,0.32009 -0.0677,0.64418 1.20995,0.50938 -0.1075,1.0229 z" />
  
</svg>