<svg>
  <path
     d="m 234.3554,339.09724 c -1.05437,1.28867 -7.49277,6.55706 -9.25005,6.43991 -2.10875,0 -2.92717,-2.45894 -3.04432,-2.34178 -0.35146,0.35145 0.23449,0.81936 0.11702,1.28798 -0.11715,0.82007 -0.93665,1.40462 -1.0538,2.22469 -0.35146,5.85762 0.58467,0.8188 1.99052,2.34179 0.70291,0.82005 2.45913,6.59539 1.99051,7.76692 -0.2343,0.4686 -0.93657,0.35108 -1.17089,0.70253 -0.11715,0.11716 0.35127,0.11703 0.35127,0.23418 0,0.58576 -0.58563,1.28767 -0.23418,1.87343 0.35146,0.46862 1.63919,-0.1174 1.75634,0.46836 0.23431,0.70291 -1.05374,1.05343 -1.17089,1.75634 -0.23431,0.82007 0.23449,1.52173 0.11702,2.34178 -0.35145,1.99161 -1.99089,3.51142 -1.28798,5.85446 0.23429,0.70294 1.40507,1.17045 1.40507,1.99052 0.11928,-0.0308 0.23299,-0.0473 0.35127,0 2.22591,0.93721 -0.58792,5.27017 3.98104,3.16141 3.28027,-1.52297 1.40469,-1.05235 2.1076,-3.74686 0.11715,-0.58577 0.70248,-0.81936 0.81963,-1.28798 0,-0.35145 -1.17108,-0.81962 -0.81963,-0.81962 1.99161,-0.11715 4.09724,1.52183 5.73737,2.1076 0.23432,0.11716 0.11703,0.70268 0.23418,0.46836 2.2259,-3.86603 1.75615,-9.24796 2.10761,-13.11399 0,-0.58576 0.58545,-1.05355 0.58545,-1.52217 -0.23431,-1.28868 -1.99082,-1.28716 -1.40508,-2.81014 0.58578,-1.64013 2.69312,-2.34072 2.57597,-4.3323 -0.23431,-5.62333 -1.28761,0.31452 -1.99052,-3.90297 0,-0.35146 0.81975,-0.46822 0.58545,-0.70254 -0.58575,-0.70291 -2.22457,-0.46791 -2.45888,-1.28798 -0.23431,-0.82008 1.75627,-0.58507 1.87343,-1.28798 0.70291,-2.57736 -4.4492,-2.22382 -4.80066,-3.86395 z"
     id="corsica"
     fill="#6e8d4e"
     fill-rule="nonzero"
     style="stroke:#000000;stroke-width:0.5" />
  
  </svg>