<svg>
  <path d="M148.48882,49.3024616 L148.293485,48.7478139 L148.712316,47.8355335 L148.99882,47.2327935 L149.539245,47.6786025 L149.32636,48.3571828 L148.899698,48.6819733 L148.718128,49.3147338 L148.48882,49.3024616 Z M147.237256,51.2882466 L146.884335,50.8095962 L147.4437,48.7353136 L147.863292,48.5367946 L148.229978,49.004967 L147.750411,49.9964507 L147.900665,50.6073946 L147.555828,51.3534512 L147.237256,51.2882466 Z M148.388185,50.522009 L148.312932,49.8979289 L148.957147,49.9020651 L149.185188,50.3219196 L148.886692,50.6040978 L148.435662,50.5298262 L148.388185,50.522009 Z M145.415463,57.8952267 L145.000924,57.6612986 L144.962161,56.8775613 L145.477458,56.210551 L145.84452,54.0408823 L144.835891,54.5119665 L144.444215,54.4474681 L143.768177,53.2147166 L144.25367,52.8231545 L145.512689,52.864812 L145.931643,52.2711406 L145.169749,52.4005485 L145.065199,50.930573 L144.448,50.8289384 L145.297025,50.1276774 L145.765351,49.5293916 L146.282545,50.0478381 L146.14049,50.9802087 L146.842924,51.7203087 L147.579313,51.9180324 L146.522079,53.1074891 L146.914392,53.5671398 L146.429896,54.1117894 L146.942038,55.0626823 L146.131785,55.3497921 L146.101728,56.1859142 L145.523422,57.1866251 L145.415463,57.8952267 Z M147.484866,53.1768283 L147.630959,52.8568117 L147.958499,52.7833117 L147.97479,53.1555553 L147.627804,53.2768272 L147.484866,53.1768283 Z M141.328548,54.5333548 L141.361629,54.1564984 L141.697629,53.867752 L141.853572,54.4414019 L141.608234,54.6941016 L141.328548,54.5333548 Z M157.073128,50.0361954 L157.305967,49.3863888 L157.663556,49.6746561 L158.256003,49.6192935 L158.140343,50.0590125 L157.628954,49.8218801 L157.444858,50.0719215 L157.003809,50.0120294 L157.073128,50.0361954 Z M155.936463,49.6706123 L155.243251,49.4290248 L154.811545,48.9883738 L155.165978,48.4987698 L155.565738,48.5900858 L155.840373,49.183279 L155.936463,49.6706123 Z M156.393044,51.784758 L156.801395,50.7815458 L157.020346,51.0214975 L157.22755,51.5781005 L157.1033,51.9144586 L156.393044,51.784758 Z M155.711962,50.9844529 L156.063362,50.0355823 L156.439515,50.4415975 L156.124098,51.1542692 L155.711962,50.9844529 Z M154.94854,52.0821177 L155.284924,51.5513082 L155.771553,51.6314425 L155.894668,52.0212766 L155.522553,52.2276128 L154.94854,52.0821177 Z M154.448144,50.8145695 L154.246114,50.1441283 L154.545117,49.9384951 L155.091223,50.3470101 L155.010281,50.9581117 L154.448144,50.8145695 Z M154.111384,55.1811104 L154.21076,54.369146 L154.828335,54.2287174 L154.89879,54.7245717 L154.559005,55.0381796 L154.438041,55.2731302 L154.111384,55.1811104 Z M152.667518,52.2799559 L152.94606,50.7711185 L153.51136,50.494646 L153.99042,50.6245052 L154.702826,51.3789929 L154.255834,51.9170752 L154.908771,52.3431807 L156.017144,53.2138477 L155.120144,53.8307458 L154.561025,52.9485798 L153.472981,53.0625104 L153.147076,52.4863624 L152.667518,52.2799559 Z M153.43421,54.674551 L152.910076,54.6009782 L152.347302,54.0622828 L152.070142,53.0863681 L152.44882,52.6772155 L152.832044,52.956961 L153.205924,53.6174711 L153.54091,54.3735267 L153.43421,54.674551 Z M105.327943,67.8605392 L104.468054,66.3171586 L105.664319,66.1318428 L106.26333,65.8736638 L107.024725,65.6677117 L106.221158,64.8727272 L104.823877,63.3428008 L106.574708,63.3507545 L105.646638,62.2549093 L105.833267,61.1897 L106.716886,60.341215 L107.339896,60.7241621 L108.554594,61.5358755 L108.551079,59.8021771 L110.765815,58.8415559 L113.532093,57.6149384 L113.493207,60.1062594 L112.617158,60.905018 L111.852223,61.7730504 L111.171134,63.3685215 L110.782482,64.9611766 L109.556169,65.9826161 L108.397793,65.9192989 L108.227079,66.4009289 L107.52351,66.3870193 L107.397493,67.054418 L105.327943,67.8605392 Z M101.159586,72.2205578 L100.884068,71.792882 L101.136354,71.0953044 L101.479041,70.9223507 L101.529044,70.1150074 L100.276213,68.9147049 L101.258578,68.0569943 L103.572567,68.3615793 L104.445583,69.4993289 L103.740501,70.4536804 L101.912651,72.5484651 L101.644956,72.7082826 L101.317172,72.1445605 L101.064632,72.2049202 L101.159586,72.2205578 Z M99.8976649,76.8298003 L99.8047302,74.7245605 L100.707297,73.7517594 L100.575975,73.0164978 L100.63658,72.6186913 L101.320956,72.119694 L101.833098,73.0705877 L102.149529,73.7088929 L102.071995,74.5372035 L101.381063,75.2390074 L101.095188,77.4347866 L99.8976649,76.8298003 Z M106.859569,80.1680973 L107.671973,81.7036649 L108.665708,80.7713597 L108.453575,79.7679283 L107.955068,79.685833 L106.859569,80.1680973 Z M105.235253,90.3502943 L107.542678,90.8576948 L106.906286,90.2431608 L107.883599,88.6200054 L106.343136,87.5507466 L106.886839,86.697267 L108.151286,86.064406 L108.691711,86.5102207 L109.103349,87.8013815 L109.54806,88.7156785 L110.561234,88.9334932 L111.447387,89.6656158 L111.671635,90.1103351 L111.135755,91.5513079 L109.88545,91.9316213 L109.186433,91.4087302 L105.791341,91.971079 L105.235253,90.3502943 Z M106.079488,97.9060272 L106.827493,97.468485 L107.28888,97.3150845 L108.022744,97.1300817 L107.325747,96.9133624 L107.739403,96.114921 L109.295275,95.326158 L110.228398,94.7916676 L110.422343,95.4352943 L109.852875,95.9786948 L108.700809,97.4711253 L106.772439,99.9061689 L106.180752,99.477406 L106.079488,97.9060272 Z M102.100278,100.38567 L102.961425,97.9278038 L103.960204,97.7609401 L106.047918,97.3146267 L106.107264,98.5222861 L106.259292,101.197967 L105.321371,101.604234 L103.789237,102.396905 L103.434935,102.007232 L103.653117,101.53342 L104.058444,101.268831 L103.834948,100.339984 L104.1443,99.9066757 L104.658714,99.4051853 L104.269311,99.086188 L103.748071,99.1532752 L102.52555,100.149856 L102.100278,100.38567 Z M111.847147,106.527373 L111.063281,105.123946 L111.495869,104.201188 L111.123379,103.451703 L111.612035,102.640125 L112.545158,102.105635 L113.214886,102.980523 L113.109068,104.313913 L113.536613,105.021488 L112.936335,106.885142 L111.847147,106.527373 Z M103.185681,86.3936376 L104.330422,85.5881499 L106.117866,84.5571635 L105.655981,85.8319183 L103.99076,86.2203651 L103.185681,86.3936376 Z M101.207569,87.8774768 L101.227008,86.6318147 L101.498488,86.4471308 L103.323567,86.9260845 L101.117414,87.9900627 L101.207569,87.8774768 Z M97.6985831,78.9653997 L98.7150436,77.8839202 L99.414812,77.9226913 L99.5746703,78.7900837 L98.3624986,79.5589828 L97.6985831,78.9653997 Z M111.079188,75.7910401 L111.421123,73.7064324 L112.499193,72.3802281 L112.430259,73.3118956 L112.161812,73.9558411 L111.713815,74.3408384 L111.691335,75.1272308 L111.770381,75.726446 L111.254954,76.0748466 L111.079188,75.7910401 Z M135.731504,59.7896834 L136.048123,60.6365932 L135.824561,60.9971646 L134.11139,60.0275163 L132.346098,60.3486717 L129.741747,60.2478128 L127.973071,60.3539507 L126.686839,59.3095281 L125.782033,59.5957657 L124.971354,59.0270384 L123.676368,57.8424054 L123.015559,58.3454376 L122.125253,59.6432965 L122.899311,60.8872248 L121.992322,60.9901779 L121.463259,61.3004441 L121.686698,62.9961643 L120.077839,63.1601572 L119.070722,63.2087768 L119.623466,64.5613395 L119.78903,65.4906046 L119.019411,65.3638714 L118.205545,65.0532357 L119.32591,66.7515766 L120.207649,68.158315 L118.552351,67.955121 L117.584046,68.6976749 L116.561243,67.7029371 L115.982128,68.5789583 L115.20445,68.267976 L114.626455,68.4251082 L114.395831,69.9388248 L115.280136,70.696288 L114.04152,71.8295605 L114.946008,73.1265087 L115.165008,73.7050346 L114.719014,73.7072417 L113.703019,72.7073262 L113.257842,73.5738602 L112.997651,74.6096368 L113.452711,76.1290346 L114.846763,76.4658275 L113.85221,77.3806722 L112.431845,77.6513916 L111.785038,76.7185796 L110.9813,75.8671436 L110.631926,74.8003779 L111.089488,73.1411082 L111.312232,71.9162417 L110.517804,69.6597267 L109.529937,70.2539801 L109.391373,71.6377812 L109.765687,72.7780346 L109.446935,73.0913997 L109.022316,72.4790155 L108.281014,71.4549365 L107.65439,71.0616014 L107.268518,71.5783616 L107.243275,73.0880564 L106.382782,71.9371272 L105.94103,72.5834597 L105.934245,73.7745005 L106.561989,74.6347975 L107.075986,74.8582035 L107.80054,73.9367458 L108.447599,74.9074542 L107.768357,75.7291436 L108.792158,78.0612717 L110.058019,78.0931109 L110.358706,79.0446259 L111.103507,78.2274243 L111.596193,78.6302499 L111.243068,79.3668684 L110.428891,80.6394161 L111.276886,80.4889011 L111.886499,80.0846695 L112.916619,78.7782962 L113.651046,78.4640074 L114.180044,78.588961 L112.518992,80.4789774 L113.151174,81.2706185 L111.632128,81.5566322 L110.634076,83.1269074 L112.204123,83.4548311 L110.906259,84.5026567 L110.147831,84.7373025 L108.251913,84.5323297 L107.658166,85.2671744 L111.332815,86.4462807 L109.683084,86.6413951 L109.364341,86.954752 L109.941771,88.3429183 L110.870512,88.5715477 L111.555068,89.2961172 L114.234411,87.718861 L116.10221,86.3296567 L114.823597,87.9231144 L112.623992,91.055376 L111.507877,92.9657466 L111.721,94.7291499 L110.34364,96.7731144 L109.364962,98.0185722 L109.818959,98.6357956 L110.410392,98.5881144 L109.372458,99.7481172 L109.862831,100.838106 L108.302471,103.608856 L107.961853,105.646926 L107.028542,106.357395 L106.609172,107.726499 L108.515406,107.863779 L109.071649,107.375065 L110.978692,101.854469 L112.412553,101.257967 L111.888371,99.0459537 L111.733123,98.0490054 L112.043185,97.1602125 L112.391496,97.3247956 L113.416858,96.4844114 L112.940054,97.598049 L112.493553,98.7103787 L112.588866,99.6659237 L113.310861,100.579583 L114.493351,102.502616 L114.959161,101.500706 L115.706275,99.9963406 L116.071956,98.9400954 L116.836016,98.6685259 L117.664883,98.8807084 L118.537687,99.6741308 L117.728128,99.5723597 L116.94951,99.2675286 L116.404515,99.6823951 L115.976398,100.911283 L116.107834,102.301706 L115.390213,102.94046 L116.770515,104.750989 L117.100638,105.272123 L116.840578,107.216221 L115.934463,107.748243 L115.503027,108.326891 L114.985155,108.99854 L114.106286,110.695665 L112.86055,111.63854 L112.313496,112.778458 L112.171057,115.057313 L111.671749,113.354008 L111.10994,113.444425 L110.905384,114.312741 L110.929131,115.540346 L111.908496,117.215466 L111.996812,118.888935 L112.525932,119.329297 L112.67518,119.416951 L112.410134,116.433619 L113.524114,116.004455 L114.607033,117.211992 L114.860218,117.487068 L116.787722,119.53458 L117.553196,117.67821 L116.793763,116.57546 L117.340948,116.343872 L118.293248,117.326997 L119.788237,118.582411 L120.720354,119.02606 L121.996589,118.554986 L122.546087,117.636234 L124.075253,117.995278 L124.524068,116.195793 L128.776458,117.179883 L129.231959,116.245657 L130.611444,116.006049 L131.746744,115.076531 L133.00936,114.02291 L134.665965,112.201542 L135.61627,112.288649 L137.642937,110.96345 L136.796259,107.903556 L138.436188,106.642526 L138.829286,106.297869 L139.566796,105.767319 L139.193422,104.62091 L138.634997,103.740488 L137.122948,103.308569 L136.536076,102.417161 L135.583711,101.869256 L135.278341,100.94851 L133.941035,100.911218 L133.058864,101.958104 L132.165305,102.170499 L131.156005,102.035842 L130.350011,101.436349 L129.23903,101.283275 L127.208872,100.583441 L125.408283,99.1096403 L125.847011,98.8106294 L127.373692,99.7935913 L129.392079,100.490139 L130.863624,99.9771717 L131.340477,99.1494496 L133.211447,98.1780708 L134.092033,98.8836676 L136.194125,97.7623379 L133.995943,96.07803 L134.561275,95.7143597 L134.794948,94.9712343 L134.045341,94.6816158 L131.641662,95.2993542 L132.576657,94.3907956 L134.976779,94.2315995 L135.453559,94.5465749 L137.095768,93.2211144 L137.923916,92.3405531 L138.752561,90.6330627 L140.263678,89.3696049 L141.378035,87.3518147 L142.16952,85.7589292 L142.599894,84.2781063 L143.004207,83.4426839 L144.252256,81.812654 L145.625995,80.7016313 L145.572804,79.9044079 L145.460496,78.1512962 L144.790997,76.8930455 L142.99027,76.735288 L140.848098,76.5654651 L139.481234,76.0502253 L137.725196,75.4015223 L136.767011,75.6032744 L135.831714,75.4177158 L134.542973,74.5873452 L133.362362,74.4307812 L132.679114,74.6462744 L131.775248,74.9263534 L130.473199,74.8948657 L129.666959,75.4433343 L128.838027,75.6663807 L128.326286,75.1910319 L127.588041,75.9651545 L126.613858,76.7067431 L126.224676,76.5732717 L127.297605,75.3811763 L128.384283,73.9011954 L130.771008,71.5566668 L129.885583,71.5181 L128.411847,71.7043371 L127.695599,71.6620918 L129.163589,70.6044324 L129.35446,69.5887894 L130.533951,69.2783997 L130.82151,68.5372853 L132.710807,67.4417785 L133.827918,66.8688095 L134.567095,66.0885283 L135.292531,65.5961376 L136.681082,65.0994038 L137.603128,64.4627752 L138.039068,63.3802501 L137.247951,62.9598218 L138.597935,60.6211951 L135.731504,59.7896834 Z" id="edinburgh" stroke="#000000" fill="#EF7F72"></path></svg>