<svg>
        <path d="M258.972599,323.269125 C259.270834,322.829392 259.399376,322.784572 260.175428,322.849943 C260.653335,322.890022 261.235278,323.037169 261.468575,323.176747 C261.861698,323.411883 261.903779,323.395191 262.041518,322.950144 C262.154529,322.585755 262.36945,322.429869 262.933221,322.304131 C263.756553,322.120215 263.805649,322.03342 263.352272,321.564316 C262.930736,321.128114 263.168324,320.168866 263.712526,320.108752 C264.504747,320.02136 265.630278,318.647858 265.409847,318.037183 C265.324662,317.801907 265.390245,317.602354 265.599387,317.459809 C265.775218,317.340169 265.835823,317.24412 265.733921,317.246687 C265.47454,317.252981 264.983757,316.187204 265.123973,315.921668 C265.187602,315.801136 265.397471,315.736305 265.590518,315.777749 C265.783744,315.818981 265.982856,315.774888 266.032997,315.679395 C266.083499,315.58391 266.397256,315.352657 266.730501,315.165144 C267.273902,314.859357 267.323357,314.76124 267.209978,314.214569 C267.137087,313.863504 267.19282,313.287962 267.340703,312.858054 C267.668708,311.905886 267.656349,311.772112 267.243632,311.794894 C266.981169,311.809387 266.892501,311.655888 266.845098,311.106341 C266.780496,310.355294 267.137381,309.50246 267.525297,309.481044 C267.653684,309.473932 267.823842,309.184559 267.903469,308.837711 C268.015204,308.351204 268.153074,308.197845 268.506812,308.166823 C269.755213,308.056738 269.899082,308.009147 269.548482,307.821847 C269.366471,307.724638 269.206507,307.426264 269.193223,307.159052 C269.177054,306.833965 269.046011,306.646804 268.796749,306.593531 C268.590681,306.549553 268.416452,306.353278 268.406545,306.154068 C268.396703,305.956191 268.264499,305.801262 268.11315,305.809616 C267.786763,305.827632 267.769343,305.736471 268.00112,305.223414 C268.097038,305.01146 268.246801,304.878708 268.334177,304.928278 C268.421177,304.977864 268.593215,304.878161 268.716362,304.706458 C268.900311,304.450003 268.895153,304.368512 268.687801,304.250678 C268.388332,304.080275 268.526708,303.488866 268.87018,303.46991 C269.196747,303.451886 269.729357,302.232733 269.571779,301.863929 C269.465913,301.616392 269.877632,301.132853 270.640589,300.608858 C270.653063,300.600512 270.710733,300.397183 270.768771,300.156872 C270.859368,299.78242 270.806808,299.723826 270.403016,299.746134 C270.143488,299.760455 269.935801,299.858106 269.941025,299.963155 C269.951741,300.178608 269.347891,300.257711 269.144864,300.067624 C269.072038,299.999441 268.640365,299.948188 268.18497,299.953411 C267.633665,299.959542 267.116512,299.80803 266.636128,299.499569 C266.239638,299.2447 265.728828,299.0467 265.500894,299.059289 C264.790629,299.098493 263.62658,298.071439 263.450774,297.250689 C263.365858,296.854125 263.176245,296.489204 263.029384,296.439659 C262.727046,296.337602 262.623763,295.579117 262.910112,295.563316 C263.110678,295.55224 263.768537,294.396079 263.753937,294.080294 C263.749114,293.975229 263.380033,293.909409 262.933711,293.934046 C262.135286,293.978123 261.583965,293.750564 262.02494,293.559022 C262.49276,293.355659 262.210613,293.200199 261.551537,293.298439 C260.956629,293.387016 260.813627,293.325962 260.469583,292.837027 C260.073011,292.273232 259.789482,292.119766 259.807327,292.478654 C259.812559,292.583703 259.705523,292.675804 259.569787,292.683292 C259.433872,292.690812 259.181782,292.877082 259.009294,293.097283 C258.836807,293.317477 258.48145,293.51215 258.21951,293.529864 C257.807406,293.557591 257.78782,293.585866 258.074447,293.738785 C258.256474,293.836183 258.411755,294.040395 258.419324,294.192619 C258.432984,294.467278 258.217229,294.510022 255.729943,294.72527 C255.273125,294.76485 254.810864,294.939373 254.611793,295.147248 C254.288431,295.485332 254.245621,295.487311 253.692158,295.187098 C253.373014,295.01376 253.108458,294.804659 253.104362,294.722343 C253.100275,294.640019 252.973123,294.579431 252.821406,294.587801 C252.669877,294.596172 252.372232,294.440229 252.159747,294.241281 C251.665605,293.778439 251.10118,293.809599 250.87385,294.312259 C250.776305,294.528316 250.547725,294.713311 250.366074,294.723332 C249.983668,294.744447 248.625223,293.537744 248.606463,293.160512 C248.599515,293.02051 248.433264,292.914578 248.236924,292.925417 C248.040575,292.936256 247.748292,292.769678 247.587354,292.555436 C247.368027,292.263398 247.107992,292.178736 246.549477,292.217605 C246.000322,292.255771 245.730526,292.171068 245.52306,291.895232 C245.235297,291.512172 244.38852,291.035662 244.01424,291.046174 C243.899292,291.049444 243.517425,290.807188 243.165501,290.507916 C242.683376,290.097847 242.571338,289.900248 242.710842,289.705624 C242.853101,289.507199 242.723267,289.377807 242.148877,289.145597 C241.295569,288.800646 241.109357,288.900553 240.518267,290.021433 C240.324567,290.389125 240.048649,290.696237 239.905204,290.704158 C239.365025,290.733978 239.707,291.31476 240.62576,291.927684 C241.326011,292.394654 241.584624,292.687779 241.601831,293.033875 C241.616005,293.31885 241.700104,293.45076 241.814954,293.367815 C241.919496,293.292324 242.058992,293.408736 242.125638,293.626649 C242.196935,293.860403 242.395016,294.01418 242.609545,294.002335 C242.809196,293.991316 243.018886,294.133918 243.075624,294.319436 C243.132174,294.504782 243.363599,294.728924 243.58976,294.817755 C243.857815,294.923041 244.00918,295.148351 244.024965,295.465796 C244.040463,295.77751 244.388455,296.308935 244.993041,296.944559 C246.445875,298.47164 246.834559,299.402834 247.11409,302.024327 C247.339842,304.142008 247.681253,305.489123 248.055796,305.739643 C248.385199,305.960106 249.253817,307.146153 249.766172,308.075302 C250.396311,309.21764 250.772659,310.778482 250.702123,311.95642 C250.662926,312.612643 250.755281,313.025458 251.06621,313.58555 C251.428924,314.238929 251.581687,314.344264 252.246387,314.399891 C253.292063,314.487341 253.802627,314.947166 253.720384,315.726619 C253.669319,316.210935 253.762678,316.429101 254.181575,316.80473 C254.470351,317.063817 254.780324,317.271365 254.870512,317.266395 C255.498305,317.231736 257.993872,319.716733 258.816444,321.195292 C259.121022,321.742526 258.826866,322.793956 258.362357,322.819591 C257.862771,322.847172 257.732324,323.257338 258.135681,323.531556 C258.591436,323.841185 258.58273,323.843777 258.972599,323.269125 L258.972599,323.269125 Z" id="florence" stroke="#000000" stroke-width="0.5" fill="#6E8D4E" fill-rule="nonzero"></path>
</svg>