<svg>
        <path d="M242.862158,252.904684 C243.37649,251.825395 244.51806,251.178033 244.475725,251.989757 C244.451854,252.450703 245.292759,252.928149 246.101282,252.940627 L246.243444,252.937905 C246.603292,252.918213 246.792085,252.996793 246.946233,253.247898 L247.002681,253.350294 C247.131006,253.607158 247.311739,253.7469 247.541826,253.767505 L247.643447,253.769035 C248.245891,253.735782 248.831578,254.250834 248.906684,254.879673 C248.953731,255.273708 248.906604,255.411297 248.671221,255.479512 L248.479247,255.527014 C247.963672,255.680846 253.670531,256.158881 254,256.5 C254.519965,257.037826 249.603624,268.956315 249.768362,269.634711 C249.87606,270.078278 249.932324,270.713526 249.893455,271.046624 C249.838702,271.514191 249.874397,271.643795 250.123917,271.714226 L250.197362,271.732177 C250.492079,271.795049 250.568368,271.926791 250.607594,272.545219 L250.616071,272.696763 C250.646623,273.311193 250.713491,273.541919 250.878173,273.565248 L250.921417,273.566861 C251.04111,273.560253 251.145942,273.617906 251.180778,273.701637 L251.192839,273.7547 C251.198651,273.871594 251.356548,273.905967 251.566728,273.836338 C251.799934,273.758939 252.006917,273.835989 252.281299,274.11127 L252.387534,274.223877 C252.610916,274.472364 252.885756,274.675775 253.038883,274.712686 L253.090262,274.718485 C253.202918,274.712266 253.301372,274.765089 253.333993,274.841893 L253.345253,274.890572 C253.349605,274.978162 253.495419,275.099588 253.685946,275.182045 L253.784488,275.219689 C254.067663,275.314207 254.171801,275.431318 254.152315,275.652574 L254.139322,275.740586 C254.09652,275.955786 254.135055,276.07968 254.25044,276.101492 L254.304583,276.104559 C254.417929,276.098302 254.576978,276.224608 254.686699,276.398741 L254.737008,276.489401 C254.920805,276.870163 255.4114,276.953571 255.967022,276.711428 L256.096286,276.649757 C256.315174,276.536342 256.386139,276.57655 256.411481,276.871375 L256.417817,276.967561 C256.429119,277.194849 256.487565,277.383322 256.554539,277.423986 L256.583651,277.432046 C256.654241,277.428154 256.968434,277.637156 257.311372,277.912438 L258.12673,278.588722 L257.481951,278.911406 C256.684237,279.310529 256.622161,279.313954 256.082488,278.987322 C255.608029,278.699967 254.951819,278.810052 254.170349,279.3062 L254.000995,279.418422 C253.691161,279.632191 253.397619,279.729245 253.336728,279.637995 C253.284464,279.559266 253.03428,279.464628 252.752145,279.411636 L252.629757,279.391643 C252.239929,279.337512 251.99406,279.185796 251.923875,278.955817 C251.738005,278.347643 250.941886,278.549215 250.338011,279.357458 L250.163694,279.588311 C249.802462,280.055126 249.719576,280.035357 249.07085,279.871741 C248.610105,279.75536 248.336445,279.59097 248.188412,279.336771 L248.138668,279.237155 C248.029297,278.978911 247.888021,278.853228 247.721378,278.865009 L247.648425,278.878488 C247.323322,278.974185 246.355172,278.608766 246.150199,278.312869 C246.087241,278.221799 245.657173,278.16192 245.160277,278.169602 L244.696809,278.185674 C244.097255,278.202109 243.975384,278.147501 243.765505,277.767788 L243.66033,277.568526 C243.274297,276.819366 243.084186,276.670437 242.700955,276.88172 L242.621619,276.928708 C242.374741,277.084028 242.292866,277.089529 242.270879,276.926583 L242.265624,276.866003 C242.241616,276.383158 241.706471,276.640226 241.533518,277.217837 C241.438775,277.534925 240.915397,277.67087 240.68843,277.469053 L240.638283,277.411471 C240.483845,277.179826 240.022662,277.420365 240.037785,277.724624 C240.047692,277.923842 239.961787,277.937011 239.604403,277.790877 C239.359253,277.690643 239.15124,277.455826 239.141954,277.269025 C239.130149,277.031643 239.091208,276.977439 238.908805,277.071704 L238.764673,277.156161 C238.531213,277.303118 238.404322,277.32732 238.311042,277.233182 L238.27291,277.185605 C238.181153,277.047793 237.855649,277.139117 237.192313,277.488687 C236.437751,277.886449 236.248383,278.046701 235.964978,278.736154 L235.425188,280.116942 C235.3598,280.277746 235.307234,280.402324 235.276899,280.467098 C235.032796,280.987921 235.13348,281.49412 235.518738,281.682196 C235.942423,281.88887 235.983551,282.174549 235.648155,282.663794 L235.570523,282.771793 C235.348369,283.068193 235.287122,283.299417 235.350148,283.665228 L235.422526,284.018085 C235.492904,284.423941 235.416634,284.522243 235.219448,284.264319 L235.171809,284.198452 C235.155711,284.175022 235.136059,284.152657 235.113863,284.131882 C235.165486,284.377739 235.202503,284.801351 235.201893,285.212297 C235.337523,285.231554 235.491242,285.269867 235.662634,285.326496 L235.839902,285.389204 C236.035646,285.462668 236.484526,285.55606 236.83739,285.596335 C237.668512,285.691428 237.965856,286.256098 237.480256,286.816877 C237.342837,286.975575 237.196572,287.345441 237.155169,287.638845 C237.073798,288.214319 237.414173,288.472101 237.890843,288.229107 L237.98791,288.173777 C238.730659,287.706439 239.413638,287.951817 239.96688,288.884842 C240.138158,289.173586 240.654297,289.67524 241.113918,289.999403 C241.752939,290.449958 241.928352,290.656669 241.97064,291.069632 L241.978629,291.177431 C241.996439,291.535498 242.07104,291.718816 242.212911,291.748209 L242.269286,291.752057 C242.38898,291.74545 242.493477,291.796471 242.52787,291.871252 L242.539654,291.9187 C242.543988,292.005769 242.697538,292.07082 242.896311,292.076867 L242.983965,292.075738 C243.267881,292.060065 243.394933,292.129474 243.428951,292.331822 L243.44706,292.497561 C243.476509,292.653312 243.567333,292.740918 243.71504,292.756014 L243.793613,292.757499 C244.240311,292.732845 244.377371,292.966984 244.132785,293.337292 C243.955351,293.606221 243.749439,293.576605 242.122826,293.047575 C240.409351,292.490392 238.397153,291.344482 236.578278,289.889891 C236.272932,289.645698 235.787414,289.367392 235.499766,289.271809 L235.272154,289.203773 C234.039918,288.861402 230.152016,288.061799 229.769308,288.082926 C229.193864,288.114684 227.453643,289.271605 226.629403,290.17073 C226.086755,290.762704 225.929565,291.042758 225.928299,291.47864 L225.931098,291.591128 C225.966902,292.311202 225.727564,292.664948 225.184262,292.694932 C224.974687,292.706507 224.648422,292.867583 224.459455,293.052872 C224.094073,293.410737 223.106275,295.602 223.025853,296.196456 L223.020918,296.276548 C223.045599,296.805014 221.1198,298.129788 219.842697,298.491245 L219.692725,298.529883 C219.338916,298.611554 218.97226,298.777467 218.819188,298.919344 L218.77224,298.97121 C218.630455,299.168875 218.260654,299.250766 217.448586,299.264948 L217.110649,299.267945 C216.45861,299.266025 216.303432,299.202034 216.173932,298.931865 L216.060599,298.668931 C215.906392,298.287643 215.991942,298.213031 216.876567,297.087659 C217.382014,296.44458 217.898937,295.606281 218.025469,295.224668 C218.137934,294.885463 218.287317,294.598116 218.379108,294.535119 L218.410646,294.522349 C218.483858,294.518306 218.539455,294.388739 218.547273,294.219614 L218.545447,294.035487 C218.381489,293.825166 217.86296,293.893573 217.110516,294.238266 L216.945741,294.316357 C215.501368,295.022567 215.058594,294.98897 213.166869,294.028708 L211.963883,293.410643 C210.85459,292.825347 210.662411,292.641276 210.205542,292.081365 C209.897335,291.703919 209.663779,291.183134 209.482132,290.464841 L209.416403,290.186117 L209.13697,288.914877 L209.702376,287.703294 C209.985173,287.097268 210.361873,286.374617 210.584594,286.007493 L210.646542,285.908493 C210.928828,285.473853 211.013368,285.088815 210.978913,284.395864 C210.938956,283.592322 210.868501,283.427289 210.460223,283.179965 C210.230722,283.040946 209.855114,282.954315 209.536823,282.959499 L209.383395,282.969924 C208.504073,283.080328 207.713523,282.462098 206.966715,281.076833 L206.849155,280.851728 C206.490929,280.144283 206.193365,279.47467 206.187615,279.363311 C206.171228,279.030135 207.232704,278.588414 207.936009,278.610347 L208.056112,278.619147 C208.585624,278.682237 208.944635,278.549992 210.102782,277.865714 L210.436541,277.665817 C211.622453,276.942168 211.761766,276.662278 211.842708,275.226211 L211.853016,275.03221 C211.894068,274.216921 211.835466,273.871766 211.598458,273.535316 C211.161905,272.91551 211.201681,272.778474 211.801681,272.836717 C212.049779,272.860777 212.450522,272.773553 212.759997,272.635545 L212.906,272.562589 C213.132903,272.435016 213.422395,272.318937 213.649688,272.258581 L213.70824,272.24575 C213.620444,272.113542 213.520629,271.978749 213.372166,271.917932 C213.267305,272.698054 212.404474,272.67654 212.057422,272.149275 C211.703978,270.637921 210.254488,269.81145 209.672896,268.427027 C209.199747,267.671338 209.839613,266.923929 210.558019,266.800381 C211.225883,266.852959 211.549229,266.299798 212.03509,265.992401 C213.099084,266.488896 214.283177,266.048534 215.258308,265.502297 C216.379948,265.750651 217.151267,264.635534 218.114259,264.323052 C218.605894,264.245791 219.00652,264.552694 219.439385,264.774584 C219.537775,264.238184 219.758881,263.8999 220.071676,263.882632 C220.77827,263.843632 221.217831,263.408926 221.877725,262.097518 C222.312005,261.234286 222.542384,260.537436 222.522913,260.145883 C222.494139,259.567153 223.781409,256.405259 224.112185,256.242213 C224.163597,256.216774 224.25802,256.137802 224.355147,256.041855 L224.497828,255.889774 C224.969155,255.345687 225.34955,255.617526 225.456079,256.57464 C225.504613,257.01065 225.481359,257.44907 225.406012,257.613616 L225.378995,257.657943 C225.282676,257.76918 225.219619,258.149387 225.239049,258.503019 C225.268322,259.03997 225.464687,259.336913 226.430793,260.305569 C227.172021,261.048945 227.683762,261.434414 228.06332,261.532668 L228.095564,261.538154 C228.135685,261.405408 228.234741,261.412887 228.443986,261.466316 C229.066278,261.624834 229.200011,261.81779 229.012213,262.285708 L228.900174,262.573723 C228.643118,263.267216 228.726137,263.395556 229.301708,263.707512 C229.688774,263.91712 229.973144,264.22836 230.045553,264.52142 C230.281147,265.474087 230.615177,265.876431 231.192608,265.903161 C231.657068,265.924635 231.785757,265.838436 231.990403,265.368629 C232.318485,264.615416 232.280925,264.282856 231.769059,263.836597 L231.66033,263.74567 L231.117738,263.308488 L231.70049,261.916104 C232.05554,261.06732 232.400424,260.493479 232.730804,260.201331 L232.820545,260.128643 C233.187828,259.859003 233.507749,259.336864 233.830188,258.480188 C234.307518,257.213477 234.382518,256.196139 234.045858,255.619988 L233.977907,255.517177 C233.588774,254.995496 233.848834,254.347381 234.458071,254.321027 C235.142637,254.291288 235.519441,254.602699 235.597431,255.263654 L235.609572,255.41064 C235.648752,256.19852 236.390733,257.330657 237.042902,257.597264 C237.288992,257.698022 237.799458,257.763123 238.17745,257.742253 C238.669362,257.7151 238.910395,257.607776 239.204935,257.257999 L239.295207,257.145629 C239.796951,256.494711 241.1637,255.84967 241.495842,256.106747 C241.614796,256.198815 241.730537,256.51151 241.752845,256.801014 C241.775161,257.090518 241.989747,257.609387 242.229722,257.953725 C242.574403,258.448177 242.779196,258.573809 243.205041,258.552221 C244.100087,258.506649 244.355717,257.991695 244.140477,256.666921 C243.988777,255.731076 243.865924,255.468 243.392373,255.063589 C243.115236,254.827098 242.834889,254.63135 242.723767,254.59364 L242.690365,254.587136 C242.417978,254.602169 242.517608,253.627937 242.862158,252.904684 Z" id="genoa" stroke="#000000" stroke-width="0.5" fill="#6E8D4E" fill-rule="nonzero"></path>
</svg>