<svg>
        <path d="M133.16339,115.047112 C133.593534,115.708583 133.958341,116.413493 134.351676,117.099422 C134.089907,117.442256 133.791436,117.753046 133.527722,118.093869 C133.334022,118.326733 133.514447,118.641594 133.474294,118.912477 C133.334831,119.137183 133.116485,119.295929 132.987371,119.528531 C132.973351,119.667586 133.030646,119.798989 133.068869,119.929428 L133.273538,120.523264 C133.343384,120.720688 133.417907,120.916154 133.506281,121.105354 C133.954556,120.95694 134.342512,120.665899 134.77515,120.478812 C134.985665,120.860907 135.153281,121.266243 135.336542,121.663044 C135.103678,122.037512 134.766984,122.35767 134.622624,122.782559 C134.698106,123.062229 134.91745,123.271886 135.059635,123.518474 C134.964747,123.69321 134.74609,123.84321 134.758678,124.052131 C135.005161,124.630223 135.436548,125.096752 135.71245,125.658177 C135.806733,125.924695 135.719153,126.21348 135.696011,126.486921 L135.357285,126.501861 C135.24445,126.509296 135.132358,126.52288 135.023022,126.553689 C134.801798,126.686409 134.674719,126.932703 134.50797,127.126771 C134.343395,127.360886 134.119025,127.562646 134.027022,127.8427 C133.941869,128.368109 133.939932,128.90385 133.879172,129.432815 C133.530698,129.484223 133.178692,129.504079 132.918387,129.54433 C132.764963,129.575565 132.690514,129.611725 132.549791,129.77879 L132.179095,130.250005 C131.99167,130.495266 131.760029,130.809774 131.627905,131.031463 C131.707147,131.574856 131.959613,132.085747 132.171093,132.588071 L132.567594,132.658898 C132.69964,132.683108 132.83077,132.711713 132.958597,132.756087 C133.041477,132.974523 132.924117,133.24091 133.033221,133.442417 C133.330049,133.626978 133.686599,133.681575 133.978638,133.876591 C134.052084,133.948195 134.112444,134.031518 134.167788,134.118953 L134.326842,134.385978 C134.637845,134.933335 134.999619,135.450471 135.280777,136.01627 C135.027395,136.231158 134.71018,136.394703 134.568493,136.720338 C134.395262,137.092943 134.14873,137.429989 134.017188,137.822237 C134.008654,138.040436 134.149499,138.426398 134.141202,138.642905 L134.559599,138.73897 C134.559599,138.73897 134.622477,138.750259 134.622477,138.750259 C134.812376,138.775272 134.884155,138.986384 134.96276,139.140619 L135.790916,140.96412 L135.790916,140.96412 C135.362463,141.506883 134.891193,142.010899 134.457019,142.548627 L134.606929,142.93051 L134.606929,142.93051 L134.494388,143.106454 C134.460689,143.163412 134.436019,143.207965 134.436019,143.207965 C134.383245,143.336139 134.323899,143.602166 134.334918,143.68064 L134.432278,144.670358 C134.458082,144.986208 134.470409,145.302578 134.448779,145.663191 L134.309325,145.7022 L134.570481,145.903674 C134.88713,146.155687 135.226518,146.447249 135.387657,146.570302 C135.552292,146.732904 135.821877,146.866705 135.842498,147.119105 L135.837869,147.219602 C135.79806,147.862591 135.801689,148.50764 135.746087,149.149918 C135.547875,149.258613 135.236708,149.29736 135.20097,149.578804 C135.107594,150.069202 134.978357,150.553003 134.902114,151.047185 C135.556866,151.519428 136.306531,151.831926 136.948351,152.324556 C136.61827,152.662101 136.273147,152.98391 135.926512,153.302564 L135.814288,153.416736 C135.739208,153.496253 135.67521,153.585708 135.691956,153.703894 C135.846164,153.892084 136.029735,154.049817 136.207777,154.213568 L136.382684,154.380676 L136.63703,154.608218 C136.752608,154.717395 136.866526,154.830619 136.978785,154.945003 L136.846534,155.287942 C136.803544,155.402897 136.765139,155.519466 136.741793,155.640561 C136.939155,156.380776 137.57914,156.800238 138.135848,157.240958 L138.272986,157.351779 C138.495902,157.55354 138.810272,157.701635 138.886719,158.027997 C139.070406,158.63551 139.281354,159.234251 139.459793,159.84379 C139.246327,159.986057 139.003114,160.077504 138.8037,160.242283 C138.702223,160.486076 139.027826,160.466441 139.166488,160.542185 L139.09441,160.870915 C139.067559,160.979948 139.03394,161.086673 138.981722,161.185796 C138.837166,161.32915 138.641144,161.392992 138.471828,161.497371 C138.480272,161.71346 138.495755,161.932052 138.515234,162.148297 C138.354362,162.180725 138.141068,162.119834 138.037376,162.287556 C137.753316,162.622035 137.623711,163.059529 137.363226,163.411616 C137.11842,163.303657 136.877619,163.185095 136.630989,163.083177 C136.224886,163.630289 136.030327,164.316422 135.651804,164.881485 C135.402346,165.072782 135.094883,165.152858 134.81039,165.269654 C134.854433,164.937619 134.937125,164.610471 134.948406,164.275264 C134.848474,163.932455 134.582619,163.681215 134.414872,163.376139 C134.375324,163.302747 134.316936,163.209501 134.256663,163.117793 L134.008025,162.757109 L133.652725,162.877297 C133.32642,163.024477 132.929913,163.04215 132.658482,163.294787 C132.752905,163.592417 132.933019,163.848226 133.067341,164.126965 C132.615121,164.108995 132.168663,164.033122 131.720063,163.97769 L131.270455,163.931973 C130.903172,163.909191 130.532153,163.783158 130.166112,163.883311 L129.468428,164.058502 C129.351692,164.085334 129.234308,164.108896 129.115646,164.126057 L128.947847,163.884207 C128.903079,163.823393 128.85881,163.772189 128.783035,163.700016 L128.695572,163.619719 C128.695572,163.619719 128.507322,163.469797 128.283817,163.418089 L128.186316,163.402665 C127.853292,163.361589 127.588523,163.294084 127.254289,163.266594 C127.119027,163.832523 127.154741,164.424439 127.033499,164.994038 C126.514636,165.217534 125.949263,164.216055 125.988659,163.594713 L126.780589,157.253112 L125.015185,168.968196 L123.928613,169.892965 L122.422278,170.380706 L121.515452,169.948371 L119.605605,171.133779 L119.465684,171.87482 L117.986545,171.829354 L115.98221,171.329499 L115.201564,170.068967 L114.524668,169.900886 L113.897398,167.278926 L112.787275,167.294229 L112.573327,167.457087 L112.182436,168.071916 L110.895093,167.831629 L110.268951,168.039823 L109.479052,167.372041 L109.43979,166.742997 L109.894049,166.421597 L110.615251,166.653561 L111.609289,166.33615 L110.831161,166.123117 L110.644417,165.752777 L109.564858,165.744766 L109.145929,164.770183 L109.338567,164.037823 L108.612313,164.371019 L106.639662,164.017894 L106.338232,164.22294 L105.852567,165.105169 L105.17791,165.27706 L104.544199,165.002907 L103.517635,165.711153 L102.766711,164.964896 L102.397409,164.19661 L103.312376,163.866169 L102.054477,163.432624 L101.846978,163.907866 L101.235134,162.958125 L101.829591,162.603218 L102.584447,162.614319 L102.702215,161.841324 L102.152619,161.015025 L101.129978,160.988131 L100.969589,160.622106 L101.063251,160.184736 L103.201057,159.631191 L103.436872,158.792736 L104.143221,158.76755 L104.444929,159.27003 L105.105853,159.010959 L105.822845,159.270529 L106.467779,158.58433 L106.889226,157.946245 L107.417512,158.203027 L107.617719,157.952997 L108.913474,158.138082 L110.706387,157.188128 L112.064112,156.789112 L113.006275,155.925463 L114.263046,153.528847 L114.310155,152.687621 L113.787763,151.328106 L114.777313,150.330774 L114.989014,149.827943 L114.348567,148.533888 L114.572896,147.948234 L114.563079,147.12594 L115.324098,146.741858 L112.479665,146.613063 L111.264395,147.318529 L111.206627,147.875008 L110.769199,148.085973 L110.198569,147.397722 L108.813371,147.622403 L108.597174,147.445305 L110.800883,145.57252 L111.235229,145.559147 L113.24209,144.446335 L113.487166,143.015106 L112.736243,142.268858 L112.025128,140.90658 L111.506381,140.764559 L110.892289,139.474853 L111.949703,139.450877 L112.2803,138.34503 L114.686177,138.514804 L114.864796,139.647905 L115.116035,140.481659 L116.543578,140.688447 L115.515052,141.764262 L116.949886,141.745837 L118.426785,141.451346 L118.469684,140.637725 L119.338662,141.318512 L120.49954,141.679469 L123.22564,141.166191 L124.398575,142.689422 L126.026652,144.038674 L125.536313,143.544915 C125.374992,143.378241 125.218049,143.207267 125.072243,143.025357 L124.927417,142.749234 L124.927417,142.749234 C124.822376,142.282624 124.708163,141.812899 124.698379,141.33115 C125.150308,141.184755 125.624619,141.098392 126.057689,140.895079 L126.120035,140.764084 L126.120035,140.764084 C126.110757,140.18927 125.880837,139.640343 125.862248,139.066804 C126.280752,138.44797 126.708215,137.831433 127.178986,137.253439 L127.454005,137.294711 L127.454005,137.294711 C127.4393,136.682834 126.999232,136.181294 126.955106,135.573872 C127.023706,134.945621 127.158501,134.326935 127.285458,133.709074 C127.719984,133.543436 128.16597,133.410553 128.603341,133.254063 C128.744978,133.204485 128.922444,133.093926 128.881441,132.90836 C128.822136,132.486324 128.635033,132.089744 128.622853,131.658962 C128.93764,131.523643 129.26827,131.426678 129.572823,131.266477 C129.702297,131.21067 129.683774,131.040847 129.65133,130.928262 C129.589095,130.71248 129.514033,130.501123 129.448236,130.286731 L129.286065,129.683499 L129.286065,129.683499 C128.93554,129.683499 128.656204,129.934403 128.363169,130.100613 C128.217599,129.844673 128.16342,129.544452 128.01642,129.290768 C127.93448,129.249594 127.850357,129.215695 127.764444,129.186717 C127.326747,129.642471 126.942567,130.156984 126.47182,130.576223 C126.234967,130.560341 126.143757,130.210951 126.075322,130.004392 C126.178033,129.59403 126.457172,129.260343 126.583155,128.859005 C126.592466,128.72376 126.535294,128.6377 126.410594,128.600523 C126.092071,128.664627 125.799117,128.819809 125.488253,128.912809 C125.349084,128.602125 125.248139,128.275785 125.142035,127.951662 L123.816346,124.040302 L123.816346,124.040302 L123.773924,123.899885 C123.745807,123.804749 123.728245,123.707861 123.782578,123.617 L124.620346,121.823646 C124.854828,121.244074 125.354545,120.861872 125.754183,120.414054 C126.135394,120.076688 126.343414,119.600828 126.579349,119.151185 L126.68276,118.960567 C126.820768,118.732902 126.898499,118.406777 127.179599,118.329995 C127.751431,118.135992 128.324921,117.947883 128.898518,117.759406 C129.101561,117.678463 129.331613,117.74909 129.529392,117.665523 L133.16339,115.047112 Z" id="liverpool" stroke="#000000" stroke-width="0.5" fill="#EF7F72" fill-rule="nonzero"></path>
</svg>