<svg>
        <polygon id="marseille" stroke="#000000" stroke-width="0.5" fill="#54BFF9" fill-rule="nonzero" points="151.618956 274.712016 152.878956 275.46209 153.743373 277.081984 154.342981 277.067891 155.320956 276.250877 155.555602 276.81536 156.21127 276.274338 156.996223 276.583289 157.089199 278.59252 157.899011 279.364787 157.064888 280.893087 157.699466 281.263354 157.699302 281.266951 157.311134 282.14385 157.885785 282.284638 158.407368 281.572485 159.147362 281.650264 159.26491 281.88836 160.888597 282.059016 161.25333 281.411703 161.634951 281.294777 161.912757 280.098504 162.277384 280.136826 162.274842 280.133956 162.410259 278.842084 164.019599 277.702338 164.145894 277.947668 164.182237 278.951916 165.231338 278.905142 165.295719 280.45006 165.804714 280.503553 165.793866 282.037763 166.194207 282.672954 167.128834 280.976441 168.109147 278.690221 168.974905 279.431809 169.48994 278.516989 171.003877 278.129973 171.682376 280.704815 173.075202 280.417248 173.242131 279.784902 173.765978 279.839131 173.894905 280.608439 174.885673 280.470831 176.027324 282.353441 176.185057 284.36667 176.962139 285.448076 176.692638 286.565302 176.932548 286.758063 176.940477 286.747624 177.736245 287.360572 177.576272 288.88261 178.199847 288.634076 179.360218 289.608537 179.928943 289.894755 180.180918 288.842278 180.936967 288.773817 181.065444 289.631409 181.815616 289.631409 182.044351 288.812025 183.633559 289.969673 183.966101 289.428341 185.395417 289.36194 185.663774 289.775016 185.400837 290.829831 185.58042 291.117218 186.438673 290.392657 187.125044 290.412218 187.320649 289.998112 186.450027 289.793728 186.401439 288.815531 187.066858 287.962166 187.805954 287.977452 188.455114 288.757967 188.452744 288.760583 188.454624 288.762954 187.626501 289.698071 187.793079 290.09627 188.82158 290.316537 189.55949 289.793973 189.107757 290.564531 189.148384 291.218 190.227297 291.436559 191.670787 291.700444 191.805779 292.418507 192.524283 293.094847 192.996657 293.180245 192.997474 293.194371 193.187913 293.229823 193.701738 292.849869 194.051144 292.070417 194.427763 292.492084 194.696341 292.902512 194.764638 292.588599 194.771341 292.596283 195.651093 291.906349 196.601937 292.006289 196.949185 292.287455 197.487158 292.142793 197.480046 292.132926 196.95042 292.275668 196.603916 291.993872 195.653071 291.893932 194.772575 292.584488 194.765954 292.576076 195.117591 290.916439 194.61333 290.759678 194.368139 290.030736 192.653831 289.35267 192.533153 288.42088 193.211046 288.055943 192.728406 287.622431 192.886351 287.153188 193.715112 287.290771 194.399054 287.746845 195.047774 287.110444 194.522954 286.568041 194.640281 285.929654 195.066068 284.938935 196.166913 284.94245 197.087586 284.664144 197.285561 284.30497 196.890403 284.046815 196.957965 283.401243 198.255313 283.537599 198.716831 283.151319 198.508809 282.64355 199.240515 282.173621 199.691406 282.437646 200.42836 281.917787 201.599095 282.257466 202.066605 281.820766 203.049665 281.975965 203.173204 280.800635 202.77946 280.541793 202.645139 279.823804 201.567027 279.597619 201.436989 279.316837 201.763131 278.209649 202.163357 277.922204 203.115518 277.919343 203.389613 278.270065 203.467973 279.042471 204.411681 279.02949 204.609297 278.219466 205.097169 278.054114 206.089082 278.210875 206.347907 279.023278 206.556444 279.590629 207.303305 279.939038 207.341929 281.567482 208.623649 282.414488 209.358591 282.378856 209.912226 282.653678 209.907567 284.225703 210.59106 284.679619 210.540101 285.16445 209.979493 285.052943 209.431278 285.553379 208.760136 285.447087 208.102008 286.263373 207.251995 286.670392 206.908523 287.225294 206.194826 287.194444 206.194008 287.202046 206.906888 287.234204 207.25036 286.679302 208.100169 286.280678 208.758297 285.46427 209.429349 285.571158 209.279071 285.702586 209.350196 286.474223 208.311174 287.400504 208.052578 287.858466 208.238153 288.579741 208.744572 288.799828 209.119752 289.222215 208.377027 289.247916 208.263935 290.318515 209.28046 291.132022 209.178722 292.100025 209.960349 292.182177 211.278477 292.702101 212.507684 293.971232 213.28864 294.053319 215.830016 293.399221 216.611946 293.420409 216.745392 294.148232 216.960125 294.656768 217.025856 295.479144 216.594403 296.624924 215.405888 296.880684 215.479605 297.705169 214.626142 298.319343 215.018553 299.61142 214.019095 300.096676 213.906207 300.686335 212.972161 300.588161 211.830035 301.448916 210.622417 301.42785 210.397956 303.086817 209.885847 302.92082 209.468954 303.373362 208.450638 303.049706 208.273147 304.273469 208.224264 304.32173 207.280907 305.203379 205.752877 305.259406 205.555065 306.10794 205.076136 306.659826 204.18973 307.102984 205.284371 307.165452 205.136553 308.569616 204.26415 308.8537 203.56354 308.562733 203.195283 309.01758 202.105433 308.903033 201.650251 309.228864 201.476823 309.922926 201.081452 310.151278 200.857401 309.796125 200.552504 309.661019 199.799676 309.311286 199.072973 309.720741 199.109619 310.424973 199.382234 310.783125 199.378801 310.783125 199.381826 310.787049 198.139025 310.596831 198.145482 310.593888 198.139433 310.593071 198.692602 310.381305 198.787932 309.958763 197.191441 309.626213 196.196937 310.122504 195.632847 310.444599 195.071717 310.273444 194.924733 309.172044 194.037877 308.644158 193.917845 308.429638 193.917918 308.426695 193.812362 308.242436 192.607809 307.681861 190.062142 307.414305 190.418308 307.068455 190.681687 306.552104 189.538809 306.380098 189.541834 306.377564 189.539054 306.377564 190.450213 305.718275 190.344387 305.213597 189.536349 305.460275 186.569292 305.093621 186.211147 304.024698 185.265191 303.490608 184.586136 303.956965 185.428548 304.974455 183.622997 305.106471 181.442177 304.390591 182.055747 303.533049 182.836703 303.615136 182.466158 303.142223 180.294183 302.749191 178.653877 302.497559 178.653264 302.495466 178.017493 302.395011 176.822283 302.326877 176.935106 301.253343 176.142738 301.110488 176.13454 301.117354 175.423515 300.990046 173.522725 302.092853 170.464654 304.11021 169.936989 304.654166 168.477722 304.553368 168.217703 305.011886 166.282204 305.411384 166.217569 305.699057 166.21479 305.699057 166.091144 306.255455 165.51006 306.732807 164.661469 307.294207 163.870155 306.341711 163.379995 307.000501 163.818248 307.856302 164.446719 307.871302 164.203801 309.633627 164.084962 311.171204 164.088232 311.173003 163.711597 315.880371 164.410556 316.284046 164.763902 316.920594 164.673387 317.781815 163.846916 317.635354 163.244725 316.814907 162.153534 316.700221 161.344515 316.885101 160.754063 317.529144 159.148548 317.741074 159.018526 318.493804 158.695319 318.616877 158.356662 318.312071 157.991365 318.273676 157.518264 318.770082 156.198673 317.327515 154.545967 316.554398 153.433597 316.654109 152.424158 317.68655 151.78927 317.732695 151.037602 316.8873 151.088332 315.920245 149.578311 315.326875 148.876343 314.486817 148.845681 313.912926 148.838234 313.912926 148.775627 312.90661 146.522071 312.340256 145.704845 312.583861 144.975706 311.03976 142.726 310.914774 141.967597 309.636234 141.284676 309.564455 139.71324 309.077499 139.44803 308.881869 139.931504 308.506428 139.929134 308.502586 139.445659 308.878019 138.440308 308.121054 137.727346 307.934646 137.342741 310.561787 135.243485 310.193924 135.480559 307.297362 136.005673 307.352556 136.446264 307.64354 136.813858 307.343556 136.819417 306.806417 137.519104 306.479646 137.517223 306.471046 136.817757 306.795741 136.812281 307.333575 136.444613 307.634245 136.00403 307.34327 135.478907 307.288076 135.242512 310.18458 134.243218 310.009444 133.799717 309.746204 133.366785 310.351411 132.405101 309.973411 131.770997 309.036733 129.977594 309.61521 129.293995 309.543365 128.53645 308.760569 128.503507 308.105106 127.548322 307.18727 126.724016 306.555193 126.582747 306.62027 126.781278 305.519417 127.23194 305.236583 127.634823 303.48979 128.391052 303.736125 128.729251 303.554343 128.442861 302.758673 129.979678 301.669485 131.016281 299.823153 131.604207 299.183866 130.732989 297.467213 131.363896 296.987392 130.640144 295.392104 130.559823 295.368226 130.549924 295.372068 129.245251 295.137496 128.90836 294.337665 129.383921 293.352741 129.972877 292.709253 129.908676 291.782572 130.369973 291.398499 129.866283 290.261 130.451643 289.671807 131.03751 289.620512 131.530033 289.88891 132.331621 289.322564 132.503373 290.155959 132.721965 290.563125 133.31352 290.457741 133.33618 289.757654 133.786311 288.98891 134.347319 289.594011 135.270354 288.821703 135.579084 289.391875 136.478349 289.323733 137.430052 289.318583 137.926572 288.605899 139.49952 288.613354 140.198839 289.497995 140.492136 289.25891 140.620956 289.228281 140.831169 289.47612 141.589973 289.555877 141.982629 289.405052 142.294654 289.627567 141.982973 289.402019 141.58958 289.553466 140.830777 289.473708 140.620417 289.225125 141.024436 289.147011 140.895657 288.376313 141.699804 288.244207 142.714131 288.134188 142.563673 287.466373 142.920272 287.122469 143.286297 286.126861 142.779322 285.413629 143.276161 284.224967 144.007286 284.787659 145.177401 284.694014 145.113403 284.501646 144.777035 283.458153 144.530905 281.807899 144.531722 281.80503 145.575338 281.862136 145.907839 281.185371 146.433845 280.754114 146.568967 279.952845 147.719439 279.968605 148.564049 278.97352 148.260853 278.828654 148.271929 278.238692 149.165275 278.220414 149.279668 277.694016 149.724787 277.463875 150.281185 276.653025 149.871134 276.071384 149.933668 275.476436 150.325025 275.195777 150.296905 275.14024 150.454335 275.128035"></polygon>
</svg>