<svg>
        <path d="M71.5,423.5 L70.5,414.5 C70.8514578,415.788676 71.5,425.531379 71.5,426 C71.3828447,426.820071 71.3828447,427.679937 71.5,428.5 C71.5,429.382095 71.2193062,429.191278 71.5,430 L0.728003815,430.312191 L1.19635531,429.843831 L5.41156744,429.843831 C5.64588624,429.609471 5.87978815,429.609717 6.11410695,429.492569 C12.3138059,427.77041 21.6905111,428.75139 26.8044067,424.3808 L27.1121128,424.106458 C30.9548022,420.756431 34.2387395,415.934629 36.9476087,411.34373 L37.9185504,409.722297 C38.1094821,409.400807 38.295186,409.082017 38.4697695,408.767768 L38.5540653,408.63327 C39.2650135,407.458748 42.6510933,401.224638 43.1240175,400.824418 L43.1533417,400.805703 C43.197279,400.776349 43.2724262,400.73385 43.3875215,400.727638 C44.1931728,400.682793 46.519309,401.156965 47.1343744,401.156965 L47.5852201,400.905151 C48.1452195,400.601094 49.1150733,400.12352 49.9445161,400.025106 C50.1137913,400.004997 50.2591074,400.009371 50.4128757,400.025106 C50.8229112,400.067204 51.173854,400.278578 51.3495869,400.688613 C51.4667422,401.040063 50.412933,401.156777 50.2957858,401.508234 C50.0614834,402.211142 50.2957204,402.912929 50.4128757,403.615845 C50.4128757,403.967294 50.5299657,404.201098 50.5299657,404.552556 C51.7014861,408.887196 56.7334016,413.450891 60.950903,414.270962 C62.5910283,414.62242 65.1652981,413.451275 66.6882763,413.568431 C66.9225787,413.568431 66.5710474,414.153733 66.8053662,414.388052 C67.0396605,414.622371 67.3906278,414.856411 67.7420856,414.856411 C68.5621564,414.739256 69.7970845,414.5 70.5,414.5 C70.8124087,414.5 71.1457421,419.833333 71.5,430.5 L70.5,414.5 C71.0344445,414.400875 77.1286319,415.432155 77.3434016,415.324763 C78.0463172,414.739019 78.9825215,412.397025 79.2168322,413.334251 C79.3339875,414.27146 79.0997422,415.441297 79.0997422,416.495662 C79.2168975,417.081414 79.216636,417.549202 79.5680937,418.017823 C79.8023962,418.369272 80.9731646,418.954796 80.9731646,418.486174 C80.9731646,417.720775 79.7491918,417.160533 79.5859954,416.422494 L79.5680937,416.261482 L79.8022736,415.910213 C80.2708866,416.027351 81.3238703,418.603076 82.3782354,418.954534 C82.9640038,419.188902 83.6659057,419.422951 84.2516659,419.305804 C84.6031237,419.305804 84.8369112,418.603207 85.1883771,418.720354 C85.5803471,418.785684 85.9162654,418.868858 86.2031537,418.954534 C86.3738349,419.005536 86.5231579,419.053485 86.6746042,419.118003" id="morocco" stroke="#000000" stroke-width="0.5" fill="#DCCFBE" fill-rule="nonzero"></path>        </svg>