<svg>
  <path
     id="moscow"
     style="fill:#9c6bae;fill-rule:evenodd;stroke:#000000;stroke-width:0.5"
     d="m 515.87822,147.69305 h -9.5 l -5,1.5 -5,-3.5 -4.5,2 -2,1.5 h -2 l -3,-1.5 h -2 l -4.5,1.5 -8,1.5 -6.5,-1.5 h -2 l -2,-1.5 -2.5,-4 -2,1.5 h -6.5 l -6.5,2.5 -2,-2.5 h -3 l -2,-1.5 h -1.5 l -2,-3 h -3.5 l -6.5,3 h -3.5 l -4,1.5 -0.5,5.5 -2,-1.5 h -14.5 v -1.5 h -6 v -7 l -4,-5 -2,-1.5 -1.5,-3.5 -1,-2.5 -0.307,-0.306 1.807,-2.194 1.5,-3.5 v -3 h 4.5 l 5.5,-4 -5,-5 2,-2 3,-1.5 3.5,-3 V 92.193049 l 6,-4.5 3,-1.5 1.5,-4 1.5,-4.5 4.5,-0.5 h 4 l 1.5,-2.5 3,-1.5 5.5,-4 4.5,-4 4.5,-6 2.5,-3 v -11 l -7,-2 -1.5,-4.5 v -3 l 1.5,-5.500001 -6,-6 -1.5,-3 -2.5,-2.5 -3,-2.5 h -3 l -3,-1.5 -0.5,-3 V 8.1930477 h -5 v -2.5 l -4.5,-2 v -4.00000403 h 132.5 l -0.001,139.50000633 h -5.999 l -1.5,1.5 -3,1.5 -5,1.5 -4.5,2 z" />
            </svg>