<svg>
  <path
     d="m 538.37822,179.69305 v 49.5 l -5.5,-3.5 h -3.5 l -2.5,-0.5 1.5,-2.5 -1.5,-2 h 6 l 2,-1.5 1.5,-3 -2,-2 0.5,-2.5 v -2.5 l 1.5,-2.5 1,3.5 0.5,-6.5 -3.5,-1.5 -1.5,1.5 -3.5,-4.5 h 3.5 v -3 h 5.5 l -4,-1.5 2,-1 v -7 l -1.5,3.5 h -2 l -1.5,1 -4.5,2.5 -2.5,2.5 -3.5,3 v 4.5 l -2.5,-1.5 -3,3.5 h -2.5 l -5,10.5 -3,2.5 v -7 l -1.5,6 -2,1 -2,0.5 -3,-0.5 -1.5,2 h -3 l 3,2 3,-1 3.5,-1 -1,3 3,-2 v 3.5 l 1.5,-0.5 h 3 l 3.5,2 3,1.5 1,-1.5 3,-2 2.5,-3 h 3.5 v 3 l 2.5,2 -2.5,2.5 h -7.5 l -1.5,2 -1,2.5 -1.5,3 h -3.5 v 3 l -1.5,3 h -3 v 3 l -1.5,1.5 h -2 l -2.5,-1 h -2.5 l 1.5,-2 -1.5,-2.5 2.5,-2.5 -4,-2 -2,0.5 -3,-0.5 -3,-1.5 -1.5,2.5 -2.5,-1.5 3,-3 v -2 l 2.5,-1 v -1.5 l 2,-1 2.5,-2.5 -1.5,-3 -1,0.5 -2.5,1.5 -1,-1.5 -1,1.5 h -2 l -1.5,1.5 -2,1 -3,-0.5 -1,1 -7,-0.5 -1,-1 h 5 l -1,-1 1,-0.5 -1,-1.5 -3,1.5 v -1 l 0.5,-1 6,-0.5 1.5,-1.5 2,-2.5 -5,1.5 -2.5,-0.5 -1,-3.5 -2.5,-3 h -2 l 4,6 0.5,1.5 -1,1 h -2 l -0.5,-2.5 -1.5,1.5 0.5,1.5 -1,1.5 -2.5,1.5 h -1.5 l -0.5,1.5 0.5,2 -1,1.5 v 2 l -2,5 -0.5,1 h -1 v 1 h -1.5 v 1 l -1,0.5 1.5,1 -1,1 -1,0.5 -2,-2 0.49357,3.952 -0.60585,0.30779 c -0.75357,0.38969 -1.46353,0.79496 -1.71793,1.10059 l -0.0539,0.0743 c -0.39473,0.64786 -1.37858,0.75135 -2.4979,1.32701 -1.11934,0.57564 -0.86324,0.96401 -0.85866,1.36604 0.005,0.40205 -0.31224,0.97575 -0.31224,0.97575 l -1.0538,-0.23418 -0.93671,0.6635 0.23417,0.70254 -0.87339,0.0791 c -0.45369,0.036 -1.00795,0.0718 -1.46839,0.0772 -0.9649,0.011 -1.61446,-0.42836 -2.34179,-0.74178 -0.6612,-0.28492 -1.03547,-0.83154 -1.70286,-0.98213 l -0.20959,-0.0326 c -0.805,-0.0713 -0.61339,-0.64888 -0.7806,-1.20992 -0.16721,-0.56103 -0.37346,-0.62292 -0.85865,-0.85866 -0.4852,-0.23575 0.1625,-0.7251 0.15612,-1.28798 -0.006,-0.51595 -0.30819,-1.18866 -0.79844,-1.84968 l -0.13828,-0.17987 c -0.57108,-0.71732 -0.23418,-0.74156 -0.23418,-0.74156 l -0.0531,-0.21725 c -0.0721,-0.27004 -0.21991,-0.75122 -0.45811,-1.2079 l -0.25682,-0.46482 c -0.37383,-0.69393 -0.76857,-1.57717 -0.63699,-2.13009 0.15351,-0.6451 -0.0241,-1.39463 -0.35127,-1.87343 -0.32648,-0.47811 0.35592,-1.348 0.42996,-1.91177 0.0741,-0.56378 0.57252,-1.47163 -0.0781,-2.10761 -0.65061,-0.63595 -0.57817,-1.11307 -0.58545,-1.75634 -0.007,-0.57894 -0.34466,-0.70503 -0.41618,-1.07617 l -0.0131,-0.13375 c -0.005,-0.48246 -0.64497,-1.42426 -0.97574,-2.2247 -0.21204,-0.51311 -1.18456,-1.08963 -2.04702,-1.51997 l 10e-4,-3.38366 2,-1.5 3.5,-1 h 5 v -6 l 2,-3 h 4.5 l 9,-4.5 1.5,-2.5 v -6 h 32.5 l 6.5,1.5 6.5,-1.5 3.5,-3.5 h 4.5 l 3.5,-3 1.5,-0.5 v -4 l 5,-1 3,-2 h 2 l 4.5,-3 1.5,-2 z"
     id="odessa"
     fill="#9c6bae"
     style="fill-rule:evenodd;stroke:#000000;stroke-width:0.5" />
  
            </svg>