<svg>
        <polygon id="paris" stroke="#000000" stroke-width="0.5" fill="#54BFF9" fill-rule="nonzero" points="171.752422 181.383324 172.280896 182.854877 172.40348 183.684512 171.984207 184.230749 171.887635 185.149518 172.133602 185.767771 172.868226 185.844986 173.321104 186.490599 173.41645 187.101439 173.776809 187.677741 174.399959 187.743234 175.10715 187.009223 176.449008 186.715599 177.131553 186.726341 177.171281 187.381812 177.478834 187.414142 177.501436 187.748123 177.944937 188.011362 177.768845 190.164782 177.903837 190.882845 178.626134 191.070929 178.944526 191.478063 180.035267 191.106161 180.357387 191.574684 180.991401 191.536861 181.717515 192.638147 181.469283 194.515469 181.83458 194.553864 182.198104 194.053649 185.129692 194.195613 186.654003 195.712395 186.816305 196.16412 185.971245 196.672616 185.892608 197.420809 185.607084 197.669826 186.569708 198.038809 186.620014 199.078174 185.512752 199.613793 185.50703 200.153016 185.589632 200.161698 185.584564 200.164722 186.63561 200.275174 186.395054 201.213864 186.764782 202.172531 186.254243 202.55354 186.118834 203.357458 186.332104 203.815362 186.056226 204.436272 185.23076 204.784174 185.156839 205.479717 184.142888 205.592589 183.938104 206.003621 184.581232 206.454005 184.294499 207.179621 184.067643 207.807071 183.925605 209.643095 183.548251 209.706496 182.729332 209.023109 182.078128 209.230886 182.128785 209.775463 181.030213 209.66 179.970232 210.314163 179.81849 211.757842 180.490466 212.322708 180.648052 212.825817 179.439984 212.802602 179.237962 213.27773 179.669864 213.644916 179.428188 213.948316 178.940316 214.113668 178.999441 214.494259 179.674965 214.565262 179.90124 214.97206 179.401638 215.249057 178.866877 216.33209 178.043439 216.628452 177.716823 217.184425 177.593905 217.310324 177.598245 217.312289 177.427123 217.487098 177.455439 217.811875 177.008905 218.042564 176.822978 218.778071 177.21252 219.089629 177.335104 219.919264 177.022785 220.371578 177.144011 220.76851 177.923717 220.79788 177.878529 221.227796 177.119112 221.470469 177.003134 222.108872 176.586305 222.560719 176.265853 223.613703 176.053589 224.502782 176.051708 224.500411 176.051708 224.503272 176.016608 224.456114 175.510875 224.777678 173.491188 224.460243 172.509975 224.842951 172.059698 225.613076 172.425526 226.137373 171.722259 226.827627 171.183109 227.364332 169.806992 227.983869 169.751381 227.544054 169.183384 227.431779 168.979646 227.844414 168.453812 227.892913 167.050392 227.693523 166.437232 228.01073 166.017068 227.531907 166.912719 227.026632 166.958643 226.111649 166.369965 225.718166 166.097136 225.187526 166.211046 224.103725 167.457248 223.434782 167.354905 223.262324 167.454657 223.433441 166.208529 224.101689 166.094619 225.18549 165.927084 224.85451 164.54048 224.605011 164.014302 224.06246 163.273678 224.636613 161.593441 224.61554 161.636986 223.161185 161.547346 222.987014 161.518302 222.28149 161.27352 222.201079 161.487027 221.3647 161.890589 220.980872 161.641548 220.475866 162.399003 220.555477 162.990117 219.879373 162.698373 219.205828 162.85958 218.64088 163.661259 218.351466 162.855559 218.640455 162.694343 219.205518 162.986986 219.879349 162.395275 220.554684 161.639161 220.475221 161.886861 220.98021 161.483292 221.364038 161.27173 222.201316 160.447319 221.951319 160.037038 221.307381 160.011101 220.107226 159.39888 219.937714 159.352866 219.334183 158.685174 218.723474 158.417332 217.7643 158.84952 217.159828 158.530082 216.691591 158.586199 216.157665 158.855856 215.587992 158.484714 215.114319 158.394689 214.452864 157.933531 213.86667 157.898766 213.887556 157.898913 213.642627 158.192202 213.397232 157.737853 213.243619 157.783041 212.813703 157.562905 212.355782 157.798384 212.111327 159.298188 211.832891 159.318469 211.801371 159.321738 211.803087 159.734381 211.229515 160.182003 210.077728 160.652888 209.586708 160.612188 209.625193 160.762736 209.000237 161.200924 209.31397 161.57648 209.248289 161.357014 208.791259 161.336463 207.538967 160.915629 207.060071 161.11461 206.594319 161.555896 205.928989 161.801643 205.58045 161.276529 205.525256 161.373166 204.605548 161.121738 204.039169 161.442199 202.986071 161.706248 202.469793 161.290589 202.426101 161.561071 201.911875 161.939504 201.528202 162.138305 201.322534 161.72455 200.298243 161.666038 199.317602 159.621812 196.766074 159.419398 196.204975 158.839123 196.196564 158.409992 195.951659 160.326093 193.979728 161.643264 194.986796 161.700035 194.446624 160.664512 193.253229 160.991823 191.495196 161.029049 191.283185 161.791531 184.028589 164.272057 182.44906 167.207643 182.184954 168.027493 183.912463 168.52936 185.790807 169.67903 185.96282 170.115477 186.390071 170.119728 186.388436 169.684621 185.961324 168.53361 185.789163 168.033166 183.910272 167.213161 182.184283 167.357169 182.170673 170.000995 182.014591"></polygon>
</svg>