<svg>
        <path d="M413.935966,211.35497 C413.413392,211.32487 412.928961,211.428658 412.647984,211.471997 C412.086043,211.558799 411.648873,212.269303 410.930675,212.759979 C410.580544,212.799945 409.931051,213.300588 408.432771,213.306395 C408.02961,213.315138 407.407831,213.188619 406.832551,213.072217 C406.819937,213.069719 406.806074,213.074715 406.793584,213.072217 C406.402625,213.229622 405.974109,213.42271 405.8959,213.813782 C405.735072,214.61792 408.118223,216.956357 408.198655,217.599668 C408.279088,218.242978 407.654612,218.005452 407.574179,218.80959 C407.493747,219.613728 409.984607,221.112345 410.306262,221.112345 C410.627917,221.112345 410.784036,222.183996 410.462381,222.907714 C410.140726,223.631444 408.784101,225.288528 408.784101,225.288528 L406.598435,225.366588 L405.8959,227.161956 L404.920156,227.240016 L402.968669,226.186213 C402.968669,226.186213 402.24595,227.172735 401.602627,228.1377 C400.959317,229.102665 400.651788,229.714377 401.13427,230.518515 C401.616753,231.322652 405.544632,231.806496 405.544632,231.806496 L406.910673,233.172538 L408.198655,233.523805 L409.01828,234.811787 L410.774619,235.98268 L410.774619,237.114542 L410.306262,237.934167 L410.150143,239.300208 L413.272523,240.197893 L413.506701,241.798112 L414.248266,242.929975 L416.316843,244.296016 L417.292587,250.618836 L414.716623,251.906818 C414.716623,251.906818 413.456893,253.697477 412.491928,253.858305 C411.52695,254.019133 410.222132,253.697477 409.096339,253.858305 C407.970547,254.019133 407.900543,256.117322 407.41806,256.27815 C406.935578,256.438977 405.896899,254.657734 404.529859,254.014424 C403.162818,253.371114 398.492013,254.753616 398.08995,254.834049 C397.687875,254.914481 397.279742,255.871366 396.958087,256.434269 C396.636432,256.997171 391.476087,258.918047 390.752357,259.400529 C390.028639,259.883012 388.975823,258.502845 388.332513,258.502845 C387.689202,258.502845 388.024983,260.754806 387.864156,261.156868 C387.703328,261.558956 386.263936,261.508136 386.263936,261.508136 L383.453794,263.342534 L381.853574,263.108356 C381.853574,263.108356 378.384635,264.882542 378.223807,265.60626 C378.06298,266.32999 379.011471,267.031526 378.770224,267.674836 C378.528976,268.318147 377.638361,270.656584 377.638361,271.460722 C377.638361,271.929117 377.917927,273.612579 378.145748,275.129519 C378.281684,275.067945 378.424002,275.037471 378.614105,274.817281 C379.745518,273.50658 380.013918,274.574235 380.682682,275.051459 C381.577031,275.689661 381.971288,274.997379 382.907377,275.753995 C383.004671,275.832679 383.081007,275.890942 383.141556,275.949143 C383.20213,276.007344 383.237725,276.051807 383.258583,276.105262 C383.27944,276.158717 383.271072,276.210549 383.258583,276.261381 C383.246093,276.312089 383.219241,276.367417 383.180523,276.4175 C382.79416,276.916806 382.458666,276.975632 382.16575,276.924887 C382.15326,276.922389 382.138772,276.927385 382.126782,276.924887 C381.914885,276.880799 381.713005,276.795321 381.541336,276.768768 C381.528847,276.767619 381.514359,276.769055 381.502369,276.768768 C381.442169,276.762523 381.402203,276.74841 381.34625,276.768768 C381.234469,276.809359 381.188395,276.87955 381.151101,276.963917 C381.057929,277.174902 381.105265,277.489363 380.955952,277.666452 C380.926102,277.701923 380.888884,277.721032 380.838926,277.744512 C380.61896,277.84805 380.426959,277.852546 380.292509,277.900631 C380.209454,277.93148 380.147618,277.995052 380.13639,278.09578 C380.131394,278.112141 380.099546,278.115013 380.097423,278.134747 C380.181977,278.243905 380.300914,278.320691 380.409661,278.407955 C380.503082,278.491635 380.623519,278.564212 380.721899,278.720193 C380.728144,278.730185 380.715654,278.748919 380.721899,278.75916 C380.810325,278.908248 380.911852,279.131323 381.034137,279.383636 C381.040381,279.396376 381.027892,279.409864 381.034137,279.422604 C381.094336,279.545126 381.198511,279.668984 381.268315,279.773871 C381.273311,279.782614 381.263319,279.804596 381.268315,279.812839 C381.338381,279.913879 381.422036,279.991102 381.502494,280.047017 C381.509987,280.052013 381.495,280.080989 381.502494,280.085985 C381.809386,280.299256 382.605793,280.201887 382.946594,280.398223 C382.955337,280.403218 382.977069,280.393227 382.985562,280.398223 C383.02353,280.423202 383.04089,280.481028 383.063621,280.515249 C383.172655,280.679786 383.219503,280.780102 383.21974,280.905547 C383.219028,280.91429 383.220827,280.934647 383.21974,280.944514 L382.907502,281.334812 L383.024529,281.295844 C383.024529,281.295844 383.122447,281.328317 383.141556,281.334812 C383.180024,281.347926 383.275431,281.377026 383.375734,281.412871 C383.476025,281.448716 383.467782,281.436851 383.609913,281.490931 C383.935827,281.612079 384.317781,281.770234 384.780805,281.998317 C384.796417,282.005811 384.804286,282.029666 384.819773,282.037285 C385.442363,282.348586 386.457374,282.272387 387.083498,282.661761 C387.121092,282.670503 387.166304,282.688988 387.200525,282.700728 C387.21801,282.706973 387.223006,282.732826 387.239492,282.739695 C387.258601,282.755057 387.259226,282.797397 387.27846,282.817755 C387.284704,282.824 387.311557,282.81151 387.317427,282.817755 C387.401981,282.898687 387.455711,282.977246 387.512576,283.090963 C387.547671,283.161154 387.544424,283.228198 387.551543,283.286112 C387.552792,283.297352 387.551156,283.314088 387.551543,283.325079 C387.559037,283.526997 387.413059,283.671951 387.200275,283.793436 C387.17692,283.81267 387.147195,283.813419 387.122216,283.832403 C387.050276,283.870372 386.962937,283.911587 386.888037,283.94943 C386.846697,283.970413 386.812476,284.005258 386.77101,284.02749 C386.721427,284.053967 386.662851,284.076449 386.614891,284.105549 C386.599529,284.115541 386.591036,284.1349 386.575924,284.144516 C386.51535,284.183734 386.473885,284.214708 386.419805,284.261543 C386.376966,284.296889 386.339622,284.338104 386.302778,284.37857 C386.278673,284.406547 386.245951,284.425406 386.224719,284.45663 C386.183004,284.518078 386.131922,284.577153 386.107692,284.651778 C386.103945,284.66177 386.111439,284.680005 386.107692,284.690746 C386.068974,284.811519 386.047368,284.917568 386.068725,285.081043 C386.239307,286.388846 387.749377,286.173876 388.488569,286.173876 C388.933696,286.173876 389.946721,285.873541 390.830354,285.62746 C390.856457,285.61497 390.881686,285.600482 390.908414,285.588492 C391.09417,285.536286 391.293078,285.473963 391.45483,285.432373 C391.76768,285.351816 392.01521,285.315347 392.157366,285.315347 C392.725988,285.315347 394.343032,286.017882 394.343032,286.017882 L395.357805,285.471466 L395.513924,285.393406 C395.513924,285.393406 399.564288,285.666614 400.587792,285.666614 C401.611295,285.666614 402.617339,284.886019 402.617339,284.886019 L403.358904,284.847052 L404.178528,284.808085 L405.193302,283.94943 L405.310329,283.832403 C405.310329,283.832403 405.366407,283.882361 405.388388,283.910463 C405.420611,283.951803 405.425732,283.990146 405.505415,284.066582 C405.530394,284.096307 405.550003,284.111544 405.583475,284.144641 C405.68976,284.237189 405.804676,284.333296 405.973772,284.41785 C406.087427,284.474677 406.206827,284.516142 406.36407,284.534876 C406.376809,284.537374 406.390048,284.533627 406.403037,284.534876 C406.872043,284.583336 407.527119,284.498532 408.276465,284.456817 C408.404408,284.449323 408.486089,284.451821 408.588703,284.41785 C408.697487,284.387375 408.778643,284.312063 408.861911,284.261731 C408.887515,284.24512 408.91649,284.240748 408.939971,284.222763 C409.021652,284.164187 409.077355,284.096819 409.135119,284.027615 C409.14636,284.014001 409.16372,284.002386 409.174087,283.988647 C409.215552,283.933818 409.261388,283.887232 409.291113,283.832528 C409.417595,283.603633 409.447232,283.403201 409.447232,283.403201 C409.447232,283.403201 409.949548,283.682392 410.462006,283.949618 C410.474745,283.950866 410.488359,283.948369 410.500973,283.949618 C410.650623,284.027177 410.791267,284.120599 410.930301,284.183796 C411.057744,284.241747 411.195853,284.242372 411.320598,284.222763 C411.428757,284.205778 411.531596,284.192289 411.632836,284.144704 C411.648573,284.13721 411.656316,284.11373 411.671803,284.105737 C412.00932,283.931508 412.299989,283.671051 412.569488,283.63738 C413.024381,283.580552 413.420411,284.066707 413.81844,284.066707 C414.062247,284.066707 415.271258,283.531381 416.316344,283.051933 C416.326335,283.037071 416.344695,283.027579 416.355311,283.012966 C416.96701,282.732988 417.682322,282.42752 417.682322,282.42752 L418.345828,281.061479 L419.165453,280.554092 L420.024107,277.70492 L421.15597,277.470742 L421.390149,276.455968 L423.107458,275.441195 C423.107458,275.441195 423.485665,275.734611 424.395439,276.416938 C425.077779,276.928734 425.59833,277.112442 426.112748,277.080444 C426.273476,277.065457 426.447954,277.016373 426.620135,276.963417 C427.359327,276.735983 427.647373,276.789501 428.727741,276.84639 C428.997827,276.860628 429.231694,276.912835 429.430277,277.002509 C429.62886,277.092184 429.779509,277.199881 429.937664,277.314747 C430.275305,277.551286 430.519038,277.792547 430.874378,277.822134 C431.556705,277.878962 432.147884,277.690645 432.318478,277.861101 C432.403782,277.946405 432.552282,277.995901 432.786835,278.01722 C432.800824,278.018469 432.81144,278.015972 432.825803,278.01722 C433.055448,278.03583 433.358094,278.056188 433.684457,278.056188 C433.855039,278.056188 433.980521,278.073049 434.113784,278.095155 C434.125025,278.096404 434.141761,278.093906 434.152752,278.095155 C434.530959,278.166096 434.802769,278.313584 435.050436,278.602542 C435.3916,279.000608 436.082045,278.790959 436.650656,278.563575 C436.934955,278.44992 437.026615,278.379029 437.119013,278.407456 C437.211435,278.435932 437.271272,278.570319 437.47028,278.797753 C437.669288,279.0252 437.962955,279.070961 438.289905,279.070961 C438.616856,279.070961 439.013148,279.014134 439.382738,279.070961 C439.567533,279.099437 439.695613,279.155141 439.851095,279.22708 C439.862336,279.232076 439.879322,279.222084 439.890063,279.22708 C440.344069,279.445247 440.744033,279.826964 441.412223,280.202824 C441.867116,280.458697 442.320011,280.678038 442.661175,280.8273 C443.006048,280.977999 443.246621,281.061479 443.246621,281.061479 L443.871097,280.78827 L444.027216,280.710211 C444.027216,280.710211 444.415153,280.835206 444.495573,280.86633 C444.553524,280.339534 444.977206,279.949237 447.071536,279.383199 C447.657307,279.266048 448.242167,279.695575 448.710786,279.461259 C449.53086,278.992664 449.974538,276.529906 449.842649,276.260819 C449.710759,275.991733 448.570878,274.983778 448.398548,273.528737 C448.22623,272.073695 449.019252,269.838333 448.749816,269.508673 C447.622412,268.129268 448.129449,267.771293 447.852131,267.205917 C447.574827,266.640554 446.983735,266.27907 446.954447,266.074055 C447.565722,265.14165 447.21002,264.785111 447.500864,264.005478 C448.014895,262.602268 448.797076,261.330285 449.296232,259.946384 C449.6475,259.243848 449.452351,258.736462 449.452351,258.736462 L448.749816,258.658402 C448.749816,258.658402 448.359518,258.892581 448.04728,259.478027 C447.583107,260.220729 447.397438,259.34048 446.993477,259.907354 C446.90605,259.607918 446.850297,259.552989 446.798328,259.438997 C447.192697,259.29026 447.601242,259.103316 447.696012,258.97064 C447.793556,258.834005 447.983858,258.721812 448.164369,258.658402 C448.011235,258.685629 447.824605,258.691749 447.656983,258.775429 C447.40392,258.90196 447.110729,258.987738 446.720269,259.048637 C446.731509,258.977947 446.759611,258.897027 446.837296,258.736399 C446.948452,258.506605 448.281771,258.032203 448.125277,257.643566 C447.763643,256.74552 450.212276,257.717629 447.461771,256.355585 C446.93324,256.057197 445.747585,256.629867 447.344745,254.911484 C447.703681,254.525245 448.866905,254.443127 448.866905,254.443127 C448.866905,254.443127 449.018066,254.892138 448.476607,255.57499 C449.075567,258.358866 450.01649,254.839045 449.998768,257.253269 C449.995021,257.826438 452.610551,256.307837 453.121148,256.199466 C453.838795,255.655572 454.004856,255.490148 455.423903,254.911484 C455.423903,254.442865 455.502087,250.150117 455.267784,249.681497 C454.95687,249.842887 454.688707,249.599816 454.487189,249.057021 C454.880322,248.719355 455.229366,248.972592 455.267784,248.237397 C455.306252,247.502214 454.955921,246.090898 454.33107,245.544344 C454.096754,245.427192 454.448097,246.012701 454.214043,246.012701 C454.096891,246.129853 454.097016,245.661496 453.979865,245.544344 C453.276954,245.31004 453.902305,247.262477 453.08218,245.739493 C452.849975,245.391185 452.738319,244.90257 452.652853,244.373451 C451.606344,244.89384 450.365685,245.524735 450.115919,245.934641 C449.721188,246.582498 448.737339,246.685986 447.618015,247.261653 C446.49868,247.837295 446.754777,248.225656 446.759361,248.627694 C446.764357,249.029744 446.447123,249.603438 446.447123,249.603438 L445.39332,249.369259 L444.456606,250.032765 L444.690784,250.735301 C444.690784,250.735301 443.313902,250.880454 442.348999,250.89142 C441.384096,250.90266 440.734541,250.463266 440.007214,250.149854 C439.279887,249.836442 438.899756,249.206371 438.094756,249.135081 C437.289757,249.063766 437.481371,248.4862 437.314161,247.925159 C437.146952,247.364129 436.9407,247.302244 436.455507,247.066504 C435.970314,246.830752 436.618008,246.3414 436.611626,245.778522 C436.605381,245.21567 436.245995,244.466249 435.674912,243.748975 C435.103829,243.031652 435.440733,243.00741 435.440733,243.00741 C435.440733,243.00741 435.265555,242.165317 434.855287,241.44622 C434.445019,240.727099 433.882154,239.63243 434.035663,238.987346 C434.189171,238.34225 434.011558,237.592716 433.684395,237.113918 C433.357906,236.635807 434.040309,235.765924 434.114346,235.202147 C434.188409,234.63837 434.686866,233.730519 434.036287,233.094541 C433.385683,232.458587 433.458122,231.981475 433.450841,231.338202 C433.443347,230.694929 433.026996,230.610737 433.021513,230.12828 C433.016518,229.645822 432.376542,228.704025 432.04577,227.903584 C431.714997,227.103156 429.53364,226.148419 428.806301,225.835007 C428.078973,225.521595 427.576145,223.602955 426.932873,223.610311 C426.2896,223.617805 425.665374,222.840682 425.176534,222.2833 C424.687682,221.725918 424.48404,221.393572 423.107957,220.605021 C421.731874,219.816457 420.610041,217.55247 419.790428,216.194659 C418.970804,214.836848 416.113788,212.855711 415.380067,211.979446 C415.013199,211.541301 414.45854,211.38512 413.935966,211.35497 L413.935966,211.35497 Z M450.194603,257.527164 L448.906622,257.800372 L449.570127,258.698056 C449.570127,258.698056 449.570127,258.15164 449.765276,257.995521 C449.960425,257.839402 450.194603,257.527164 450.194603,257.527164 Z M449.023711,259.400592 L447.501551,262.562002 L446.994164,261.391109 C446.994164,261.391109 447.004155,260.549653 447.61864,260.532455 C448.2327,260.515219 449.023711,259.400592 449.023711,259.400592 Z" id="romania" stroke="#000000" stroke-width="0.5" fill="#DCCFBE" fill-rule="nonzero"></path>
        </svg>