<svg>
  <path
     d="m 236.69718,312.28381 c -0.46861,0.93722 -1.40501,1.63875 -1.52216,2.57596 -0.11715,0.82008 0.70291,2.34178 0,2.34178 -0.82008,0 -1.44372,-0.93677 -2.14663,-0.81962 -0.58575,0.11715 -0.58514,1.1707 -1.1709,1.52216 -0.46861,0.2343 -1.05355,-0.23432 -1.52216,0 -0.58577,0.2343 -0.70221,1.05374 -1.28798,1.17089 -0.23429,0.11716 -0.4683,-0.70266 -0.58544,-0.46836 -0.46863,0.70292 -0.35113,1.79493 -0.58545,2.615 -0.23429,0.35146 -1.52222,0 -1.40507,0.46836 0.35145,0.7029 1.52216,1.05342 1.52216,1.75634 0,0.82007 -1.52223,1.05342 -1.40507,1.75634 0.2343,0.93721 1.99047,0.70201 2.10761,1.63924 0.11714,0.82006 -1.75647,1.28748 -1.52216,2.2247 0.11714,0.70293 1.99043,-0.70292 2.1076,0 0.11715,0.93723 -1.75634,1.40457 -1.75634,2.34178 -0.11715,0.82008 1.2878,1.05344 1.63925,1.75634 0.2343,0.46862 -0.46849,0.93653 -0.23418,1.28798 1.05436,1.75728 1.98969,0.58519 3.51268,1.0538 0.35146,0.11716 -0.11803,3.51357 1.52216,1.87344 0.58574,-0.70291 0.23399,-1.75589 0.58544,-2.57597 0.23432,-0.35145 0.97574,-0.351 0.97574,-0.81963 0.11716,-0.2343 -0.74156,0.11728 -0.74156,-0.23417 0,-0.23432 0.62442,0 0.74156,-0.23418 1.28869,-1.40584 0.70254,-3.51187 0.70254,-5.03484 0,-1.40583 1.99057,-2.92614 1.87343,-4.91774 0,-0.70292 0,-3.31711 -0.35126,-4.13716 -0.0498,-0.12464 -0.12859,-0.23383 -0.19515,-0.35127 -0.19819,-0.0231 -0.85866,-0.79014 -0.85866,-1.17089 0,-1.28868 1.64014,-4.44875 0,-5.62028 z"
     id="path976"
     fill="#54bff9"
     fill-rule="nonzero"
     style="stroke:#000000;stroke-width:0.5" />
  </svg>