<svg>
        <path d="M299.834671,-92.9049948 C299.911199,-92.9109316 299.986522,-92.9109316 300.065092,-92.9109316 L300.185939,-92.9049948 C300.612396,-92.8923626 301.081823,-92.815315 301.502341,-92.867334 L301.708099,-92.9049948 L301.942278,-92.9049948 C302.293733,-92.670679 302.87873,-92.6710037 303.347349,-92.3195486 C304.753182,-91.382335 302.878492,-91.5002361 303.815706,-90.9144776 L306.055988,-89.171905 C307.836669,-87.7935552 309.871639,-86.2844792 311.309418,-85.6454614 C313.769616,-84.5910961 315.757598,-85.4905539 317.983505,-83.2646467 C318.452174,-82.9131916 318.100332,-81.8597131 318.568951,-81.6253972 C318.920406,-81.508258 319.15426,-82.0938166 319.388576,-81.9766649 C320.32579,-81.6252098 320.676183,-80.4548794 321.379093,-79.7519692 C321.613409,-79.5176658 322.31587,-79.5179781 322.198718,-79.166523 C320.910037,-76.7063248 322.31562,-76.5920707 322.667075,-73.7804175 C322.784227,-73.3117982 322.315807,-72.8439533 322.315807,-72.3753465 C322.081491,-70.9695012 323.837655,-72.0243411 324.423414,-71.5557218 C325.89562,-70.4232554 323.645904,-68.854886 324.129223,-67.6933594 L324.189235,-67.5746873 C324.892145,-65.9345511 327.701788,-64.4142892 327.936091,-62.5398496 C328.053243,-61.1340168 326.999315,-56.6856994 327.116466,-56.0999409 C328.170844,-52.3510616 330.966261,-50.5423918 332.372094,-47.4964227 C332.020639,-47.0278035 331.449031,-46.9671044 330.980412,-46.732801 C330.29726,-46.4204881 330.087536,-47.0740771 329.575341,-47.0840687 C329.063145,-47.0938605 329.43888,-46.4206005 328.404448,-46.576682 C327.536976,-46.6122521 327.953776,-45.8085765 327.740942,-45.796087 C326.803716,-45.6789603 326.921767,-46.7330508 326.101693,-46.264444 C325.808814,-46.0887165 326.796922,-45.7602795 326.413931,-45.32773 C326.118879,-44.9945096 326.228324,-44.3585308 325.399157,-44.9374325 L325.060268,-45.1769359 C322.851352,-46.7570838 322.805329,-47.1643156 323.252521,-45.4448193 C323.304315,-45.2457363 322.95005,-45.383121 322.667075,-45.2887003 C322.3841,-45.1944044 322.182419,-44.8962421 322.081629,-45.1716735 C321.868495,-45.7544095 321.49642,-46.0400073 321.066855,-46.0693577 C320.832539,-46.0693577 321.59149,-45.1784802 321.379093,-44.8984652 C320.520426,-43.7664651 321.808483,-44.1374913 321.691331,-43.1811562 L321.305566,-43.12547 C320.76655,-43.0419927 320.522622,-42.9403987 320.715588,-42.3615315 C321.696415,-42.5478376 322.477259,-41.3896595 322.276778,-41.3077282 C321.367803,-41.0962682 318.870436,-42.6095733 318.022535,-42.6737695 C319.023557,-41.6026807 320.602308,-41.7748488 320.715588,-41.1516092 C320.949891,-40.4486366 319.54507,-40.6834396 318.84216,-40.3319845 C318.746308,-40.2368075 319.042367,-40.2190344 319.281523,-40.2157178 L319.427606,-40.2149577 C320.041591,-39.7666214 320.833051,-39.668841 320.130141,-39.083095 C320.013002,-38.9659433 319.896088,-39.6686036 319.661784,-39.551452 C319.543821,-39.4343003 320.013127,-38.9660682 319.778811,-38.8489165 C319.098794,-38.4239106 317.45295,-38.5521904 316.422253,-37.990262 L316.538342,-37.7064673 C316.654772,-37.4312396 316.768962,-37.1929373 316.85158,-37.0925777 C317.124788,-36.7613931 317.144309,-37.073219 317.515086,-37.0536104 C317.924904,-36.9560673 318.471346,-36.370596 318.41277,-36.1168964 C318.354194,-35.8632093 317.768773,-35.3558226 317.593145,-35.5314502 C317.417505,-35.7070903 316.578372,-36.1168964 316.500312,-36.3120452 L316.460608,-36.4110412 C316.407593,-36.536076 316.338626,-36.6451572 316.066031,-36.8809222 L315.680687,-37.2097294 L315.680687,-37.2097294 C315.649588,-37.1377648 315.62436,-37.0568577 315.602628,-36.9755509 C315.602628,-36.6243456 316.031818,-36.4682266 316.266134,-36.3510749 C317.086208,-35.765304 317.631988,-35.2197118 317.983443,-34.2824982 C318.686353,-32.1737552 315.68075,-31.5907069 315.563598,-29.2476605 C315.446446,-26.4359948 318.919645,-25.8141791 319.856871,-23.705436 C319.146092,-22.4843607 317.749514,-21.2081066 317.280907,-20.1537288 C316.577997,-18.7479085 315.954657,-12.3088865 314.548825,-12.0745706 C314.314534,-12.0745706 314.314784,-12.8942578 314.080468,-12.7771061 C313.260418,-12.6599544 314.43216,-10.7477465 313.612111,-10.3962914 C313.260656,-10.161988 313.378119,-11.840517 313.026664,-11.6062136 C312.943564,-11.6062136 312.919471,-11.526593 312.912487,-11.4384017 L312.909638,-11.3330054 L312.792611,-11.3330054 C312.558557,-10.9815503 313.027039,-10.2793271 312.675584,-10.0450237 C312.324129,-9.57640438 310.919433,-9.81124482 310.567978,-9.10830967 C310.216522,-8.63971537 310.295094,-6.41538183 309.709323,-6.18107844 C309.006413,-5.94677505 307.953247,-8.32802691 307.484627,-7.74226843 C307.016008,-7.03935825 308.811826,-6.57182556 308.460371,-5.7517512 C308.108916,-5.16599271 307.289741,-6.92283103 306.821122,-6.57137594 C306.235363,-6.10275666 307.328571,-5.59600688 307.211419,-4.8930967 L307.166139,-4.57121111 C307.054131,-3.79143635 306.875181,-2.84425341 306.157616,-2.43422247 C305.498638,-2.10473333 304.737803,-3.11346453 303.969552,-3.14431297 L303.815831,-3.13675797 C303.545951,-3.13675797 303.915898,-3.01596 304.315432,-2.82700469 L304.399228,-2.78693158 L304.315313,-2.82025923 C304.098266,-2.89039722 303.779071,-2.88103154 303.632901,-2.73806979 L303.581652,-2.66846342 C303.464501,-2.31700833 304.284313,-1.96611527 304.050009,-1.61466018 C303.815693,-1.37953248 303.113483,-2.08314207 302.762028,-1.73168698 C302.527724,-1.4973711 303.347411,-1.38060658 303.464563,-1.02915149 C303.464563,-0.91199979 302.996269,-1.14630318 302.879117,-1.02915149 C302.644876,-0.5605447 302.879304,0.25864291 302.527849,0.610097999 C302.05923,1.07871728 300.45901,1.54662465 300.927629,1.89807974 C301.63054,2.48383822 303.19148,1.54637486 302.957176,2.36643673 L302.854755,2.62201777 C302.491064,3.4703343 301.900603,4.24700078 300.966659,3.88859697 C300.235585,4.12290036 300.89653,5.12493454 300.537332,5.21560846 C299.854655,5.38795134 299.756737,4.9816173 299.756737,4.63016221 C298.68917,4.52085394 298.834523,4.12734663 297.141744,2.48352598 L297.39538,3.02328984 C298.655778,5.64518108 299.166554,5.7421704 300.147034,6.1913522 C300.498489,7.01142657 300.615891,8.76744057 299.678677,8.53313718 C299.444312,8.53313718 299.327535,7.3621198 299.093231,7.59642319 C298.741776,8.18219416 299.054439,9.11827119 298.585844,9.70402967 C297.530417,10.1107509 297.805437,10.8749222 297.453982,10.8749222 C296.63392,10.9920739 296.205417,9.66476262 295.502494,10.1333569 C293.740947,12.6244041 297.552387,11.9426887 296.829506,13.6460344 C297.933429,14.1912394 297.758376,14.5302924 296.985625,14.4266294 C296.868473,15.3638554 297.258895,15.2457421 297.141744,16.1829681 C297.024592,16.7687141 296.55636,17.2364591 296.439208,17.8222176 C296.321245,18.5251278 296.321932,19.2269139 296.556235,19.9298241 L296.557273,20.1974572 C296.564772,20.5886544 296.618742,20.9351816 296.985562,21.2568356 C297.454169,22.076885 298.234889,22.5834724 297.531979,23.2863826 C296.829069,23.9892927 296.322569,21.8811242 295.385342,22.2325793 C293.899489,24.9428176 296.455669,25.5389924 295.73661,27.6577145 C295.619458,28.2434855 296.556172,28.3599877 296.673324,28.828607 C296.790476,29.0629728 296.204967,28.9455714 296.204967,29.1798747 C296.204967,29.648494 295.970651,29.9602075 296.204967,30.4288267 C296.322119,30.897446 296.399991,30.8578917 296.634294,31.326511 C297.648169,32.5674447 296.640914,31.9767529 296.673262,33.2779985 C296.907565,33.8637569 297.453794,34.7217245 297.570946,35.4246347 C297.688098,36.1275449 297.258646,36.3219318 297.375797,37.0248544 C297.375797,37.2591578 297.72694,36.9077027 297.961243,37.0248544 C298.312699,37.1420061 298.35214,38.4924355 298.702809,38.4689552 C301.168627,38.3033691 300.162122,40.2302897 300.849445,40.2252939 C301.536781,40.2202232 302.098072,38.4297381 302.683843,38.7811932 C303.105578,38.9920662 303.179072,39.2341386 303.360361,39.6220678 L303.425408,39.7569369 C303.957987,40.8389665 303.854461,40.1822175 305.259807,41.4352161 C305.82537,41.945488 305.298699,42.1376892 305.533015,42.2548409 L306.03601,42.3667658 C306.838034,42.5596945 307.483316,42.8037449 308.343157,43.3867036 L308.329039,43.4935031 C308.267427,43.8022981 308.021328,43.9813671 307.289354,43.3477363 L307.04939,43.2218649 C306.36705,42.879764 306.401977,43.0600906 306.600902,43.356822 L306.820997,43.6599743 C307.289603,44.3628845 308.381812,45.1038128 309.084722,45.5724321 C309.436177,45.6895962 309.708936,45.0258782 310.177555,45.2601941 C310.763251,45.4944975 310.372442,45.9235125 310.841061,46.2749675 C311.186171,48.039999 312.455381,47.8692922 312.792548,49.319288 C312.187581,49.475407 312.402251,49.2997669 311.816805,48.7728715 C311.522934,48.3688576 311.073489,48.0857443 311.26567,48.3954929 L311.51099,48.7437282 C311.572482,48.8394856 311.557829,48.8598054 311.582626,49.0460798 C311.588871,49.0882944 311.588871,49.1272617 311.582626,49.1631066 C311.664952,49.0106957 311.753216,49.002172 311.972766,49.2047111 L312.050983,49.2801334 C312.421959,49.6509222 312.402313,49.6314011 311.933956,49.9046094 C311.465599,50.1778176 311.329001,49.924118 311.465599,49.3972226 C311.414361,49.4703987 311.363123,49.538095 311.332486,49.6208818 L311.30948,49.7094606 C311.270451,49.9631478 311.09481,50.0412073 310.606945,50.2949069 C310.119254,50.5486315 310.314278,50.7242341 310.489918,50.6461746 L310.959986,50.4277365 C311.131739,50.3512832 311.339899,50.2645504 311.582751,50.1778176 C312.097294,49.9939219 312.355902,50.0735426 312.870733,50.2948444 C312.864488,50.4515504 312.890966,50.5809793 312.870733,50.7632014 C312.753581,51.9347933 311.856022,50.5680527 311.73887,50.5680527 C311.153049,50.6852044 311.543971,50.8410736 311.075364,51.1925287 C310.020987,52.3640456 311.077138,53.4164001 307.796865,54.9393846 C307.679714,55.0565363 308.148133,56.0711849 308.148133,56.1883366 C307.91383,56.5398666 307.562949,55.9931254 307.09433,56.1102771 C306.274268,56.2274288 305.338503,57.4372886 304.401277,57.4372886 C303.464126,57.4372886 303.89389,55.447221 303.89389,54.6271466 C302.725771,52.4359478 302.723422,54.1778986 302.137552,53.3781946 C302.055321,52.5648896 302.296081,51.8846354 301.669195,51.0364097 C301.066201,52.1895046 300.309573,51.7619883 300.147034,52.0902129 C299.984496,52.4184375 301.152128,52.1951873 300.615391,53.0659566 C300.527542,53.208487 300.870798,53.0403361 301.13636,52.6891386 L301.200838,52.5975997 C301.44863,52.21878 301.610744,52.6618832 301.435016,53.5343136 C302.145807,54.1616872 304.330324,54.7748227 302.957176,55.8370689 C302.316037,55.9322604 301.77898,55.6148045 301.339545,55.0379981 L301.147412,54.772955 C300.460292,53.8717199 299.290876,53.2709921 300.537332,55.9931879 C300.180231,56.7006193 299.496156,56.0431834 298.351666,55.1735631 C297.359249,54.8566541 297.408832,55.5209716 296.244059,55.1345958 C295.576894,54.9132815 295.854137,55.8370689 295.151226,55.9542206 C294.565455,56.0713723 294.097611,54.7439736 293.746155,55.3297446 C293.628941,55.5640355 293.902462,56.3835478 293.551007,56.3835478 C292.613781,56.500712 292.653747,56.305226 291.833698,56.7738453 C291.599382,56.8909845 290.194323,57.0859459 290.428627,57.3202618 C292.010187,58.0727679 292.965186,57.2423397 293.668096,57.0080238 C294.312168,56.9435779 294.711158,57.0055259 295.112197,57.0080238 C295.397782,57.4971759 295.754745,57.7226117 296.08794,57.9447378 C296.501906,58.2207187 297.152023,58.2463597 296.517268,57.7495891 C295.961846,57.3149288 295.754408,57.2506202 295.580554,56.9689941 C296.49024,56.6852322 296.511235,56.9945101 297.141744,57.3202618 C297.532416,57.8276486 297.297488,57.8274612 298.000398,58.1789163 C298.703321,58.4131572 299.405169,57.8663661 299.990915,58.4521245 C300.342395,58.8035796 299.522446,59.0372461 299.756737,59.623017 C299.99104,59.9751091 300.224907,59.8574453 300.576362,59.5059902 C300.809978,59.2716868 300.381026,58.8035172 300.615329,58.6863655 C301.201087,58.4524243 302.169562,59.5075514 302.527787,58.6863655 C303.465,58.9206814 303.464063,59.5842371 304.284125,59.232782 C304.869884,58.9984786 305.025453,58.4133446 305.494048,58.0618895 C306.604179,57.8760205 307.546126,57.0654256 308.1871,56.8519673 C309.034764,57.3560443 309.237282,57.2735135 309.318963,56.3836103 C310.021873,56.2664586 311.114519,57.0077865 310.763064,57.5935325 L310.670202,57.7313747 C310.139227,58.5600391 309.766122,59.7533249 307.991952,57.8667407 C307.8748,57.8667407 308.108978,58.530184 308.22613,58.6473357 C308.577585,59.3502459 309.162844,59.4665109 309.162844,60.2865852 C309.279983,60.5208886 307.953047,60.5206263 307.718743,60.7549422 L307.169122,61.0599269 C306.894445,61.2209367 306.830997,61.3230124 306.508821,61.886805 C306.040202,62.7068668 306.157741,63.7988256 305.806286,64.6188874 C305.571982,65.0875067 305.221139,62.8624113 304.635393,63.0967272 C304.283913,63.3310306 305.221027,64.6190123 304.869572,64.3847089 C303.698055,63.9160897 305.026702,60.4425668 303.152263,60.6768827 L303.209079,61.0250214 C303.368326,62.1261753 303.699626,65.5353996 301.94234,66.8045534 C301.239418,67.2730978 299.757099,67.1947885 298.93705,67.3119402 C298.585595,67.4290919 299.873764,67.6630206 299.873764,68.0144757 C300.342383,69.4203085 298.585919,68.4826953 298.351603,68.7170112 C298.336991,68.7238804 298.357848,68.7497337 298.351603,68.7559785 L298.670068,68.8596503 C298.860536,68.9279402 299.054139,69.0271434 299.054139,69.1853057 L298.839857,69.1529407 C298.715449,69.1386306 298.569108,69.1351335 298.468693,69.1853057 C298.351541,69.3024574 298.234577,69.5365735 298.117425,69.5365735 L296.906327,69.476924 C295.234851,69.4121435 292.472943,69.4040603 292.809379,70.1610494 C292.926531,70.3953528 293.277549,70.3952279 293.629004,70.3952279 C293.746155,70.3952279 293.86312,70.0439602 293.980271,70.0439602 C294.214587,70.1611119 294.214263,70.8636474 294.565718,70.7464957 C294.800009,70.7464957 294.448441,70.0439602 294.799896,70.0439602 C296.563941,70.348105 298.195035,69.3794428 299.015109,71.2538824 C299.015109,71.4881858 298.429725,71.1367307 298.312574,71.2538824 C297.843967,71.7225017 298.898719,72.4247749 297.610038,72.4247749 C296.672825,72.4247749 295.268553,71.5657208 294.682807,72.2686559 C294.097036,72.9716286 296.165563,72.8928821 296.868473,73.3614889 C297.337092,73.712944 298.351791,76.1713187 298.000336,76.7570771 C297.766032,77.2263584 296.868535,76.2494906 296.751384,76.7181098 C296.634232,77.3038558 299.093618,79.6837963 298.273544,80.738174 C297.687773,81.4410842 296.283476,80.3867065 295.463402,80.738174 C295.158808,80.738174 295.470021,81.089859 295.710957,81.3361726 L295.81467,81.4407095 C296.283276,82.0264555 298.156455,82.61109 298.156455,83.548316 C298.156455,84.3683904 296.634232,84.8357857 296.751384,85.7730118 C296.751384,86.4759219 297.921976,86.4751226 298.390633,87.0609935 C298.507797,87.2953593 297.922339,87.2951095 297.805187,87.4122612 C297.336568,88.2323356 296.829506,89.2071177 296.712354,90.1443437 C296.478051,90.8472539 296.847978,92.2083992 298.000336,93.6570212 C297.766032,93.8913246 297.180898,93.4225929 296.829443,93.774048 C295.892217,94.7112616 297.649255,96.2711277 297.2978,97.7941122 C297.2978,98.1455673 296.361149,97.7939249 296.243997,98.14538 C296.009681,98.496835 296.829568,98.9648174 296.595265,99.3162724 L296.454719,99.716765 C295.349963,102.684358 295.870524,96.6571816 295.307283,100.487165 C294.955828,102.947363 295.113196,106.965104 293.121617,108.839531 C293.004465,108.956683 292.653322,108.839656 292.536171,108.605353 C292.536171,108.400337 292.805158,108.195609 292.793922,107.990665 L292.770349,107.902817 C292.770349,107.552174 291.05304,107.785791 291.05304,107.785791 C290.935077,107.668639 291.287219,107.200344 291.170067,107.200344 C289.998538,107.317509 289.882398,107.902568 289.296639,108.488326 C288.242274,109.3084 288.945559,107.55155 288.594104,107.668701 C287.774029,108.137308 286.7208,108.371237 286.486497,108.371237 C285.973947,108.474455 285.55179,108.307443 285.061839,108.264077 L284.847248,108.25421 C284.378653,108.25421 283.676418,107.902618 283.559266,108.371237 C283.32495,109.074147 284.613256,109.775996 284.261801,110.361754 C283.67603,110.946688 282.964153,110.073871 282.144091,110.308174 C281.48803,110.526857 281.639997,111.354111 281.37743,111.939672 L281.314375,112.061141 C279.291909,115.773738 282.70266,115.672435 282.585508,118.718404 C282.468356,119.655618 281.599048,120.64495 280.896138,121.34786 C280.310367,121.933606 277.186501,120.364386 276.835046,120.364386 C274.02338,120.13007 275.091384,122.177577 272.162579,122.177577 C271.225353,122.177577 269.553768,121.421611 268.733694,121.304459 C268.265074,121.304459 267.449346,121.712667 266.980727,121.478351 C266.160665,121.009757 268.376693,120.35322 268.376693,120.35322 C268.376693,119.65031 267.635066,119.182702 267.752217,118.479792 C267.752217,117.776882 268.688806,116.996961 268.92311,116.411215 L267.397007,113.913928 C267.027998,113.317837 266.612475,112.65197 266.174136,111.958997 L265.878789,111.493467 L265.098194,110.205485 C264.160918,108.682501 263.966194,107.551575 264.20051,107.317284 C264.669104,106.262893 266.307542,108.605528 267.36192,108.136908 C268.299133,107.785453 265.019872,106.381069 265.488492,105.443856 C265.839947,104.623781 267.478822,105.56132 267.830277,104.858409 C268.416035,104.038348 268.025688,103.14155 267.557068,102.321476 C267.322765,101.852856 266.620617,102.204449 266.151998,102.087297 C265.214784,101.735842 265.488866,99.8240214 264.785956,99.003947 C264.317337,98.4181885 263.381148,98.4188255 262.912528,97.8330545 C262.67835,97.3644477 262.834606,97.0136671 262.60029,96.5450728 C261.8586,96.2520187 261.135832,94.6276442 261.351338,93.6568713 C260.619203,93.6524875 260.473238,93.149547 260.726862,91.9395623 C259.50908,91.7520996 261.007255,90.9354471 260.386514,90.4732584 L260.297535,90.4174021 C259.711777,89.9487828 259.634217,91.8618276 259.282762,91.2760566 C258.570384,90.7977954 259.037193,89.3004269 258.814405,88.4268849 C258.591629,87.5533429 258.323204,87.5962943 258.150899,87.0218139 C258.00085,86.5215836 258.834151,86.8855657 258.424107,86.2412189 C258.189804,85.8897638 256.793563,87.0075009 257.019036,86.3192784 C257.355004,85.2938014 257.842008,85.3821273 256.628739,84.2897314 C256.186972,83.8919652 257.025855,83.7088688 257.487393,83.1188389 C257.813395,82.7021635 256.972588,83.1230729 257.409334,82.2211547 C257.695656,81.6301131 257.428905,81.1818143 257.682542,80.4648159 C257.927936,79.7725593 258.165636,77.6157691 257.682542,76.9911682 C256.291359,75.4005279 257.528821,80.7404347 253.077031,76.2886327 C252.374121,75.5857225 253.545388,73.4789404 253.545388,72.658866 C253.428237,71.2530331 252.023228,65.9847788 252.023228,65.9847788 C252.491847,65.3990078 253.662103,66.4531982 254.365013,66.3360466 L254.46731,66.663305 C254.8093,67.7034649 255.282911,68.535876 256.238441,67.1556713 C258.815791,63.5239437 255.535531,58.8044414 256.238441,56.6956984 C256.472757,55.8756365 257.643312,55.7593591 257.99478,55.0564489 C258.229083,54.5878421 257.994917,54.0029079 257.760601,53.5342887 C257.760601,53.1828336 257.175093,53.0660691 257.292244,52.8317532 C257.519669,52.0358108 261.055381,51.7935714 262.227221,49.3163351 L262.327082,49.0848972 L262.210055,45.689309 C263.498724,39.0116123 260.454041,40.3059387 259.86827,35.2683658 C259.755303,34.1386887 261.928352,34.6437173 262.924066,33.9459217 L263.02968,33.8632948 L264.317662,29.1797249 C263.849067,26.2509075 259.400288,26.4881209 258.697378,23.7936194 C258.111607,21.3334088 259.985484,18.057645 259.751181,15.4802827 C259.516865,13.7230073 257.643637,12.202733 257.526485,10.445445 C257.409334,9.74253486 257.994842,8.92365949 257.994842,8.22074931 C257.877691,7.40068743 257.409334,6.69901372 257.526485,5.87896433 C257.526485,5.17605415 258.34611,4.70844652 258.34611,4.00553635 L258.344031,3.20092397 C258.276559,-9.20126848 256.589771,14.1506265 256.589771,0.258680378 C256.589771,-1.03000077 258.228958,-1.84822669 258.34611,-3.13690784 C258.463262,-3.60551463 257.760601,-4.07329711 257.877753,-4.65906808 C258.229208,-6.53349522 260.80416,-10.5130309 262.327144,-11.4502445 C267.130402,-14.4962511 270.288764,-9.02742754 271.108838,-14.5335947 C271.9289,-20.2740529 267.01034,-19.0989389 267.71325,-21.2076819 C268.767628,-24.4879544 270.405728,-27.7629688 271.460106,-30.9260896 C271.562614,-31.3361315 272.023564,-31.4766315 272.215682,-31.819288 L272.279731,-31.9798928 L271.928463,-36.3121951 L271.965769,-36.5822085 L271.965769,-36.5822085 L272.513909,-39.9419618 L271.343079,-44.5084425 C271.792173,-45.5188878 273.530747,-44.5924283 274.499723,-44.9258958 L274.621578,-44.9767995 L277.236571,-47.2014952 C277.588026,-48.255873 276.065541,-49.1914504 276.299857,-50.2458157 C276.977664,-52.2792465 280.594052,-56.5959415 281.481757,-58.6874199 L281.568874,-58.9104201 C282.857555,-62.0735409 279.812797,-62.3046095 279.344178,-64.8819718 C278.992723,-66.9907148 280.280517,-65.7011594 280.983427,-66.5212213 C281.862065,-67.6195184 281.91642,-69.127756 282.112853,-70.3738258 L282.15432,-70.619345 C282.267921,-71.5281703 284.362861,-75.4087447 285.130649,-75.6430965 L285.19864,-75.6541827 L288.945496,-74.0149332 C291.287731,-74.9521593 288.359613,-81.6252223 289.062523,-82.5624484 C290.702647,-84.6711914 298.780369,-80.6886457 299.834734,-81.3915559 C303.631741,-83.8078219 299.744512,-83.6608969 299.493484,-84.653775 L299.483466,-84.7090846 C299.132011,-86.114905 301.122716,-87.167197 301.122716,-88.5730298 C301.122716,-89.3931042 300.888724,-90.2119046 300.537269,-90.9148148 C300.185814,-91.5005733 298.663629,-91.8512041 299.015109,-92.4369751 C299.16886,-92.7060524 299.417421,-92.8371077 299.707853,-92.8881744 L299.834671,-92.9049948 Z M302.215549,88.4268849 C301.416502,90.2532619 299.543924,98.1903522 299.123312,100.871945 L299.093169,101.072524 C298.976004,101.658295 299.445248,106.224388 297.922276,106.34154 C297.68796,106.34154 297.219741,101.072711 297.219741,100.721256 C297.454044,97.3238193 300.10763,95.3368491 300.693388,92.1737408 C300.927692,90.767908 300.107368,90.1839855 301.161745,88.7781526 C301.396049,88.4266975 301.864094,88.5440366 302.215549,88.4268849 Z M315.100452,78.4352689 C315.447279,78.4659376 315.634584,78.7485311 316.188137,78.6695099 C317.329254,79.8827169 315.529889,81.1883213 315.173363,81.9089791 C314.503081,83.2639867 315.181115,82.4884258 315.109861,83.5822559 L315.095304,83.7433773 C314.744985,86.8445751 316.695523,85.1478738 316.695523,86.2022516 C316.695523,86.9051618 315.720042,86.7874355 315.251423,87.2560548 C313.728451,89.0133428 316.462556,87.9576411 314.236649,89.714929 L313.877736,90.1156353 C310.863981,93.5086532 313.579201,91.2598706 312.675459,92.9543983 L312.469311,93.2972064 C312.050839,93.9817862 311.370462,94.9889436 311.075239,94.398499 C310.758193,93.7644186 311.451524,92.9312302 311.855834,92.1738033 C311.797259,92.2469919 311.719261,92.2908301 311.660686,92.2908301 C311.544346,92.2908301 311.627588,91.9041545 311.543659,91.8224731 C311.264293,91.5504388 311.001626,90.5675886 310.645975,89.9880748 C310.290323,89.4085611 309.909155,89.5501423 309.82635,89.1294204 C309.82635,88.4265102 310.294707,88.3882298 310.294707,87.6853196 C310.177555,86.8652452 309.631201,86.0855495 309.631201,85.2654751 C309.68302,84.8345992 310.893429,81.8742832 311.972986,80.4257862 C312.233917,80.07558 312.751158,80.3116445 313.104849,79.9574292 C313.45854,79.6032139 313.209636,78.7603462 313.768355,78.5913879 C313.875115,78.5591025 314.407893,79.981534 314.627009,79.9574292 C314.831517,79.934978 314.772126,78.6444582 314.938899,78.4575617 L314.978277,78.4352689 L315.100452,78.4352689 Z M256.784858,81.0112324 C257.129818,80.9836306 257.317873,81.0541839 257.097096,81.4405597 L256.725638,82.1075264 C256.324032,82.8112977 255.862354,83.473688 255.613965,82.7285414 L255.409713,82.1120281 C255.252718,81.610848 255.248569,81.4157399 255.496938,81.1673514 C255.864911,81.1673514 256.274463,81.0781034 256.600396,81.0323808 L256.784858,81.0112324 Z M257.175218,77.7327335 C257.646072,77.6421844 257.684915,78.3831876 257.643575,79.2939234 C257.588371,80.508242 256.777077,80.1916077 256.004325,80.1916077 C255.231573,80.1916077 255.001804,81.3211723 254.560224,79.9964589 C254.296243,79.2045137 255.398952,79.0720483 256.41313,78.2408366 L256.550742,78.1230309 C256.812922,77.8884528 257.018249,77.7629581 257.175218,77.7327335 Z M317.320062,77.1083199 C317.53352,77.0600229 317.532933,77.3081522 317.905508,77.2253467 C318.402279,77.1149518 318.569014,77.1673704 318.569014,77.498555 C318.569014,77.8297271 317.651246,77.8699183 317.320062,78.2010904 C316.988453,78.532275 317.409487,78.618178 317.437089,79.0597449 C317.464678,79.5013244 316.760194,79.1129878 316.539404,78.8645962 C316.31859,78.6438189 316.22919,78.3647281 316.422378,78.0059417 C316.615565,77.6471678 316.42826,77.6783541 317.007824,77.2643765 C317.123736,77.181546 317.208459,77.1415595 317.274161,77.120693 L317.320062,77.1083199 Z M302.683906,56.7346657 C302.822368,56.7058477 302.875438,56.7648115 302.906121,56.9564963 L302.918084,57.0469037 C302.954326,57.3730809 303.091528,57.7665645 303.110943,57.6023664 L303.113233,57.5542904 C303.113233,57.2810822 303.269352,57.2225313 303.62062,57.5542904 C303.971887,57.8860371 303.698679,57.8665284 303.308382,58.2958557 C303.009919,58.6241647 302.814159,58.3818832 302.607663,58.005345 L302.410697,57.6323499 L302.410697,57.5933826 C302.293608,57.3397205 302.235057,57.6909632 301.98137,57.5153231 C301.727646,57.3396955 301.278835,56.8518798 301.630102,56.8908471 C301.98137,56.9299393 302.156998,56.9689066 302.488757,56.8127876 C302.544085,56.7867262 302.588951,56.765716 302.62833,56.7512744 L302.683906,56.7346657 Z M299.49738,56.8268007 L299.561526,56.8518174 C299.795704,56.9884278 299.912793,57.1445343 300.068912,57.4372636 C300.225031,57.7299805 299.854243,57.808015 299.093169,57.8665909 C298.332082,57.9251417 298.663779,57.6324124 298.546752,57.2421149 C298.136946,56.9933236 298.136334,56.8755475 298.390633,56.8518174 L298.527315,56.8435275 C298.577704,56.8426376 298.634572,56.844511 298.702871,56.8518174 C299.249288,56.9103683 299.034618,57.105542 299.171228,57.1250256 C299.294166,57.1425834 299.322272,56.7965942 299.49738,56.8268007 L299.49738,56.8268007 Z M297.297863,55.9151034 C297.358849,55.8906239 297.444227,55.9052367 297.64913,55.9540707 C298.058949,56.0516388 298.273544,56.2467876 298.234577,56.5395169 C298.199884,56.7997097 297.933928,56.8440441 297.888939,57.1248024 L297.883309,57.2420524 C297.901529,57.6063884 297.613744,57.630623 297.1945,57.2514435 L297.102714,57.1639929 L297.141681,57.1250256 C296.887957,56.7737579 297.219741,56.559088 297.219741,56.1883116 C297.219741,56.0338059 297.231623,55.9639947 297.270855,55.930922 L297.297863,55.9151034 Z M306.315891,39.6371452 L306.352702,39.6396353 C306.696489,39.678765 306.808145,40.8683668 306.977178,41.2788848 C307.170366,41.7480661 308.225181,42.0477022 307.952922,42.4888071 C307.783177,42.7638138 306.844739,42.2116771 306.430762,41.8253013 C306.016784,41.4389255 306.000135,39.8348715 306.196583,39.6786651 C306.240796,39.6438193 306.278897,39.636513 306.315891,39.6371452 L306.315891,39.6371452 Z M304.401215,-2.7856401 L304.598825,-2.68203777 C304.790433,-2.57381862 304.953095,-2.45187017 304.986723,-2.3172831 C305.103875,-2.08291726 304.518479,-1.96601535 304.284188,-1.96601535 C304.049073,-1.96601535 304.635506,-2.55132421 304.401215,-2.7856401 Z" id="sweden" stroke="#000000" stroke-width="0.5" fill="#DCCFBE" fill-rule="nonzero"></path>
        </svg>