<svg>
        <path d="M310.66188,256.156771 C311.325084,256.324493 311.95291,256.419071 312.641373,256.515431 C313.044861,256.572447 313.216433,256.632259 313.552891,256.839651 C313.89588,257.050975 314.159905,256.985213 314.528782,257.081172 C315.049736,257.218379 315.547286,257.848886 315.755243,258.32752 C315.978346,258.843946 315.95536,259.944545 316.570687,260.110485 C316.644796,260.891662 317.146425,260.511978 317.541755,260.818019 C317.668997,260.91594 317.716417,261.19306 317.900684,261.310787 C318.06145,261.413817 318.207395,261.363234 318.320872,261.549578 L318.604899,261.74358 C318.823098,261.534087 318.812398,261.001722 319.288736,261.149139 C319.387131,261.179638 319.998518,261.880869 319.856766,261.272458 C320.000431,261.203229 320.364943,261.369332 320.459913,261.475943 C320.605237,261.641025 320.561561,261.928886 320.613779,262.141215 C320.672193,262.157695 320.732349,262.148245 320.786602,262.119995 C320.753087,261.815703 320.863613,261.74627 321.13806,261.836695 C321.251692,262.12642 321.319924,262.389046 321.20979,262.684166 L321.173376,262.758088 C321.079492,262.927832 320.893934,263.206937 321.24046,263.19876 C321.281005,263.33233 321.451074,263.699147 321.579436,263.767869 C321.774665,263.872755 321.930485,263.649071 322.13836,263.736635 C321.995774,263.409692 322.559864,263.792785 322.59673,263.808766 C322.800526,263.897728 323.058738,263.846654 323.274142,263.909866 C323.482384,263.372916 324.014839,264.264292 324.290455,264.198234 C324.365815,264.360193 324.456698,264.417063 324.573493,264.54285 C324.626381,264.600104 324.632431,264.664019 324.705125,264.709387 C324.766147,264.745371 324.908692,264.745436 324.94349,264.775632 C325.061095,264.87518 325.070022,265.02097 325.180482,265.142572 C325.291883,265.26451 325.451586,265.302349 325.507703,265.466213 C325.634373,265.468256 325.774425,265.422431 325.88742,265.469809 C326.048676,265.186436 326.228332,265.552984 326.339627,265.66682 C326.522398,265.852542 326.706657,265.959226 326.966978,265.877924 C326.948529,265.800439 326.973518,265.765379 326.918431,265.69736 C326.944728,265.59433 326.906651,265.482766 326.979992,265.387477 C327.15924,265.584659 327.265131,265.574139 327.514131,265.568343 C327.563365,265.770905 327.555272,265.991319 327.609853,266.191869 C327.681926,266.206673 327.782332,266.197019 327.84727,266.162719 C327.769752,265.8573 328.289104,265.401324 328.424185,265.898826 C328.622193,265.801967 328.458804,265.520613 328.538169,265.372322 C328.655586,265.152905 328.863599,265.157777 329.002891,265.344774 C329.153725,265.549281 328.94845,265.776553 329.077278,265.936681 C329.30352,266.215951 329.295256,265.727213 329.293973,265.612706 C329.350213,265.584177 329.406313,265.576387 329.467016,265.59146 L329.480838,265.715323 C329.492872,265.816769 329.517165,265.906449 329.635997,265.929349 C329.643845,265.896627 329.64736,265.8633 329.648545,265.829139 C329.823395,265.886515 330.025678,266.140125 330.229302,266.138327 C330.572022,266.135875 330.379744,265.695659 330.383292,265.478278 C330.594501,265.355924 330.815439,265.679556 330.821619,265.861272 L330.929153,265.871499 L330.929153,265.871499 C330.942877,265.904956 330.955008,265.939959 330.965063,265.974545 C331.178455,266.035975 331.221101,265.721433 331.408728,265.676768 C331.652381,265.61824 331.796594,265.863659 331.947027,265.986439 C332.170319,265.874989 332.071245,265.747714 332.347777,265.811302 C332.489471,265.844589 332.744537,265.964883 332.741537,266.150204 C332.897937,266.170199 332.977098,266.292038 333.138787,266.30958 C333.284504,266.32458 333.50258,266.272804 333.64121,266.237311 C333.621272,266.171499 333.649981,266.062542 333.63082,265.995733 C334.174441,265.837975 334.471646,266.469651 333.910278,266.685234 C333.907008,266.84851 334.359199,267.041474 334.516556,267.045578 C334.698518,267.049583 334.536485,266.834074 334.786981,267.008319 C334.933147,267.109093 334.858155,267.318569 335.130992,267.251728 L335.157784,267.402686 C335.197322,267.602662 335.270563,267.909408 335.336733,267.960422 C335.585275,268.15158 335.955738,267.705774 336.151613,267.649959 C336.267894,267.820861 336.456747,268.213084 336.312322,268.403826 C336.37161,268.498599 336.480853,268.544654 336.592155,268.561853 C336.68849,268.327452 336.712638,268.318183 336.958049,268.263038 L337.099576,268.235152 C337.160807,268.222248 337.211313,268.205178 337.267172,268.158177 C337.346782,268.090281 337.342114,267.928207 337.497518,267.898084 C337.721169,267.855308 337.664995,268.023046 337.815763,268.159526 C338.059425,268.378313 338.102422,268.103155 338.362123,268.166311 C338.42858,268.494717 339.043221,268.359545 339.015787,268.019139 L339.56348,268.334188 C339.734381,268.288199 339.822493,268.154605 339.975289,268.075918 L339.967775,267.879113 C339.969805,267.808741 339.989921,267.753234 340.071828,267.680875 C340.193316,267.573136 340.421463,267.548736 340.571193,267.587343 C340.824828,267.652166 341.226142,267.974147 341.169215,268.258003 C341.001444,268.27297 340.743632,268.475163 340.659992,268.606853 C340.594433,268.710872 340.452804,269.13782 340.462172,269.248853 C340.48027,269.493087 340.757218,269.587485 340.867768,269.75909 C341.072218,270.075962 340.800853,270.092834 340.626779,270.27348 C340.448105,270.457814 340.488423,270.60565 340.594977,270.795078 L340.637741,270.868215 C340.807302,271.152422 340.87515,271.099935 341.16615,271.033338 C341.473728,270.965163 341.50179,271.082687 341.719123,271.272946 C341.895902,271.428087 342.021199,271.391523 342.224529,271.474918 L342.811441,271.442049 C343.16961,271.368561 343.400717,271.561632 343.729752,271.646482 C344.037117,271.726117 344.458768,271.796221 344.774046,271.759763 C345.108886,271.720452 345.374087,271.531093 345.659684,271.373025 C345.946515,271.214131 346.200665,271.137193 346.490381,271.300992 C346.833174,271.494316 346.970504,271.477452 347.366463,271.431087 C347.989466,271.358646 348.701578,271.448956 349.182624,271.038234 L349.31889,270.927428 C349.400827,270.858177 349.461218,270.787834 349.47767,270.654406 C349.49849,270.488523 349.405834,270.307738 349.43012,270.131744 C349.509771,269.555163 349.797199,269.99949 350.090022,269.997104 C350.117986,270.128384 350.307722,270.314368 350.386213,270.4417 C350.492496,270.609545 350.543725,270.693365 350.610232,270.878041 C350.750308,271.261158 350.987757,271.298008 351.381305,271.33597 C351.739564,271.370826 352.090744,271.404529 352.468025,271.395594 C352.93112,271.384019 353.29967,271.241899 353.765504,271.391262 L354.112404,271.501729 C354.359097,271.584126 354.619373,271.688084 354.789608,271.837943 C354.933591,271.96467 354.991458,272.17924 355.155771,272.303916 C355.279466,272.396629 355.432629,272.444956 355.556243,272.522368 C355.708229,272.617698 355.925332,272.758649 355.850038,272.982136 C355.811954,273.098548 355.636572,273.173695 355.568946,273.299147 C355.317761,273.76509 355.489391,274.079283 355.927118,274.284411 L356.032785,274.329831 C356.511452,274.519984 356.846537,274.836578 357.242414,275.181757 C357.348256,275.274872 357.44858,275.394112 357.571098,275.488101 L357.67623,275.553847 L357.67623,275.553847 L357.92012,275.675703 L357.92012,275.675703 C357.958687,275.698232 357.994213,275.723376 358.023926,275.752174 L357.824112,275.712046 L357.859193,275.706931 C357.853487,275.707244 357.84457,275.707857 357.832433,275.708777 C357.646139,275.747866 357.227725,275.945 357.218087,276.169207 C357.034409,276.151207 356.984937,276.220362 356.792717,276.242163 L356.844327,276.384741 C356.90145,276.542947 356.957631,276.736559 356.855578,276.862289 C356.674131,277.086864 356.510071,276.882185 356.502264,276.668907 C356.407801,276.646714 356.139542,276.725376 356.066488,276.775575 C355.900589,276.887858 355.913815,277.012166 355.79585,277.197856 C355.660425,277.118973 355.549221,277.182864 355.424332,277.261044 C355.41812,277.405313 355.540482,277.463728 355.58164,277.594967 C355.625946,277.742711 355.579515,277.862401 355.560313,278.008493 C355.420662,278.024736 355.329068,278.111678 355.218771,278.181087 L355.140346,278.118177 L355.140346,278.118177 C355.208659,278.016529 355.153948,277.880638 355.130586,277.806913 C355.100569,277.819387 355.070651,277.81991 355.040193,277.810591 C354.983937,277.605512 354.891093,277.514409 354.827831,277.334294 C354.766777,277.318142 354.713324,277.323798 354.657706,277.353831 L354.634207,277.610783 C354.614618,277.798066 354.571678,277.992019 354.412376,278.040864 C354.495869,278.179747 354.591975,278.782722 354.310163,278.750875 C354.269946,278.654662 354.194381,278.580357 354.106294,278.528098 C354.062782,278.501678 353.88145,278.482714 353.869319,278.469561 C353.752229,278.341338 353.841101,278.175659 353.690251,278.022071 C353.334322,277.657796 353.187886,278.169586 352.925782,278.278362 C352.775185,278.340332 352.517063,278.269975 352.414858,278.452837 C352.31545,278.629264 352.503828,278.80055 352.308346,278.938093 C352.012932,279.145575 351.443349,278.880071 351.379989,279.436174 C350.900561,279.703199 351.186109,278.939139 351.200635,278.825842 C351.227496,278.80588 351.256981,278.800003 351.287856,278.807253 C351.226883,278.720572 351.256687,278.553136 351.145875,278.501638 C351.081183,278.472185 350.940959,278.580414 350.864292,278.593886 C350.65282,278.633817 350.41036,278.61267 350.192676,278.601978 C350.160044,278.481864 350.160232,278.355684 350.128196,278.236837 C349.86185,278.234384 349.463921,278.405131 349.208798,278.340946 C348.817515,278.243008 348.964891,277.919433 348.489044,277.960289 C348.34949,277.656177 348.608807,277.681559 348.751875,277.51261 C348.967523,277.256793 348.763082,277.255542 348.644815,277.046589 C348.576673,276.925199 348.490777,276.606161 348.489591,276.461458 C348.488365,276.276431 348.674357,276.094322 348.50491,275.920485 C348.262785,275.670422 347.798104,276.026646 347.569515,275.602354 C347.489104,275.45206 347.523338,275.14373 347.336545,275.052905 C347.162643,274.966796 347.010591,275.135499 346.875935,274.907834 C346.99958,274.907016 347.134033,274.844834 347.231087,274.775016 C347.355779,274.326725 346.827338,274.70497 346.718962,274.737202 C346.436757,274.820736 346.414719,274.582624 346.138638,274.528207 C345.795354,274.462223 345.668046,274.759681 345.351975,274.756812 C345.191864,274.755749 345.072779,274.671471 344.911262,274.759346 C344.81021,274.814777 344.811649,274.941431 344.676101,274.980153 C344.673485,275.164755 344.795259,275.384311 344.797809,275.598463 C344.732488,275.633294 344.633684,275.643169 344.562714,275.626428 C344.472199,275.359101 344.202599,275.337463 344.158147,275.624548 C344.134507,275.774785 344.236965,275.924172 344.254204,276.059253 C344.269678,276.174496 344.231259,276.279014 344.2493,276.393267 C344.313208,276.80159 344.891817,277.292788 344.636591,277.755603 L344.641196,277.762616 C344.750406,277.875815 344.994926,277.939281 345.074717,278.062624 L345.128897,278.150437 C345.154296,278.201531 345.095668,278.166831 344.973861,278.265586 C344.556894,278.604014 345.027125,278.667022 344.914744,279.080687 C344.826959,279.404826 344.37364,279.31924 344.237896,279.65918 C344.128678,279.930757 343.879703,280.308929 343.888221,280.602774 C343.897114,280.881471 344.372578,281.377501 344.107433,281.585548 C343.965223,281.697627 343.701559,281.536485 343.584256,281.702049 C343.495638,281.82782 343.595929,282.152973 343.605583,282.295518 C343.572093,282.235869 343.503436,282.179646 343.416918,282.151076 C343.426123,282.262583 343.517553,282.340338 343.543989,282.439142 C343.592872,282.620572 343.483025,282.626172 343.450613,282.781542 C343.407591,282.979886 343.47682,283.184948 343.60121,283.350798 C343.791728,283.604307 344.018014,283.802269 344.170273,284.076799 L344.251866,284.251763 C344.288005,284.347575 344.355346,284.378507 344.345431,284.505651 C344.335237,284.654229 344.284172,284.60824 344.234717,284.706676 C344.141014,284.893215 344.132733,285.037289 344.240684,285.264627 C344.380343,285.558586 344.475076,285.396921 344.730804,285.49888 C344.966684,285.594046 344.96321,285.782809 345.047349,285.985362 L345.359332,286.405493 C345.361376,286.55752 345.258837,286.625989 345.225812,286.767234 C345.200946,286.874597 345.285264,287.027564 345.258935,287.133978 C345.211204,287.328619 344.996185,287.436341 344.909733,287.621777 C344.853853,287.742627 344.763191,287.756907 344.85691,287.908052 C344.973501,288.096038 345.052899,287.966213 345.174518,287.952635 L345.330254,287.933757 C345.534677,287.912766 345.72176,287.925764 345.838327,288.179981 C345.872896,288.255708 345.902659,288.491074 345.88618,288.570144 C345.84221,288.771757 345.752635,288.72554 345.672542,288.877068 C345.543496,289.120592 345.592059,289.268442 345.739975,289.437181 L345.799948,289.501665 C345.94054,289.646376 346.132654,289.897403 346.097774,290.123809 C346.052798,290.426695 345.784204,290.471613 345.820768,290.787913 C345.17751,291.087447 345.793,292.124965 345.124057,292.337311 L345.112294,292.443962 L345.112294,292.443962 C344.809286,292.511123 345.016744,293.100659 345.037384,293.318221 C345.054379,293.489597 345.068553,293.594188 345.004401,293.755256 C344.941965,293.908444 344.785515,294.015741 344.805853,294.199771 C344.827811,294.40153 345.159519,294.709961 345.348232,294.874035 L345.411411,294.928305 C345.613123,295.100654 345.785766,295.254946 346.00412,295.391466 C346.454193,295.673221 346.908232,296.029272 347.23873,296.447131 C347.419973,296.676962 347.53748,296.969139 347.621022,297.237995 C347.662834,297.376362 347.779981,297.539728 347.785017,297.686907 C347.789896,297.832264 347.690856,297.986131 347.698139,298.149463 C347.231815,298.288044 347.36285,298.787163 347.420913,299.110967 C347.527866,299.69842 347.057553,299.786131 346.55876,299.805921 C346.162572,299.821223 345.639199,299.719011 345.294452,299.898308 C345.007768,300.047499 344.597619,300.341155 344.630962,300.687823 C344.346975,300.838935 343.960433,300.29797 343.755812,300.226003 C343.360744,300.657251 343.952864,301.443978 344.236654,301.776561 C344.414676,301.98742 344.707368,302.151749 344.855202,302.371943 C345.089185,302.719877 344.827114,302.994905 344.462471,302.897074 C344.225913,302.834654 344.056196,302.63855 343.836959,302.544046 C343.553684,302.421815 343.246458,302.469218 342.971218,302.593125 C342.527259,302.793619 342.133907,303.351946 342.02164,303.819431 C341.70169,304.042738 341.502526,304.453297 341.2667,304.781891 L341.145003,304.938112 C340.958692,305.154054 340.884264,305.373602 340.782657,305.632526 C340.735098,305.753711 340.664529,305.816891 340.666883,305.960106 C340.668027,306.097158 340.766406,306.207856 340.757668,306.344548 C340.743876,306.560522 340.645698,306.805311 340.585508,307.037135 L340.549401,307.207918 C340.506534,307.485995 340.389354,307.626986 340.318041,307.879264 C340.178153,308.373357 340.452371,309.142346 340.61791,309.610869 C340.786622,310.096645 341.144778,310.585634 341.315794,311.096707 L341.38403,311.354172 L341.385199,311.352259 C341.688076,311.466455 341.953123,311.63891 342.261477,311.719322 C342.54821,311.794951 342.816142,311.901504 343.01106,312.140695 C343.230044,312.408243 343.288229,312.683817 343.364349,313.001572 C343.452035,313.371749 343.756098,313.654313 343.879482,314.016275 L343.958651,314.023223 L343.958651,314.023223 C344.042774,314.216548 344.114202,314.408499 344.17636,314.59055 C344.25673,314.826234 344.345308,314.857027 344.588561,314.957597 C344.937297,315.100861 345.307719,315.422801 345.53303,315.716384 C345.644357,315.861537 345.760654,316.021616 345.866954,316.184057 L346.017566,316.427424 C346.099868,316.560265 346.191014,316.696107 346.283569,316.773144 C346.398305,316.867632 346.668019,316.999649 346.808856,317.071567 C346.949251,317.143534 347.213807,317.255458 347.377981,317.236649 L347.404809,317.313104 L347.404809,317.313104 C347.468231,317.329534 347.528395,317.351169 347.584958,317.379451 C347.662781,317.4174 347.733944,317.46881 347.797548,317.536534 C347.954267,317.70697 347.865191,317.770624 347.801717,317.944223 C347.716773,318.180311 347.505675,318.413442 347.430488,318.666138 L347.412469,318.738586 L347.412469,318.738586 C347.151755,318.822185 347.096839,318.77036 346.950747,318.562567 C346.865869,318.597209 346.81765,318.637103 346.771417,318.658332 L346.745996,318.667683 L346.745996,318.667683 C346.6953,318.682731 346.639453,318.670294 346.534008,318.599997 L346.390441,318.500369 C346.317162,318.453623 346.235952,318.415639 346.121218,318.405128 C346.022725,318.257049 346.048049,318.160673 346.071387,317.987948 L346.119111,317.966147 L346.147545,317.937097 C346.156581,317.92665 346.165946,317.916038 346.178872,317.90649 C346.041174,317.703308 345.705452,317.799267 345.480362,317.766529 C345.26106,317.735335 344.951807,317.594662 344.793068,317.444294 C344.583379,317.245215 344.706019,317.04836 344.65273,316.830978 C344.619688,316.697134 344.501174,316.623093 344.382401,316.565714 L344.132218,316.447005 C344.085255,316.428474 344.044141,316.426223 343.970856,316.452659 C343.852965,316.493041 343.823741,316.599578 343.66573,316.608398 C343.432041,316.620414 343.274292,316.470831 343.074698,316.392381 C342.697572,316.243828 342.283041,316.240886 341.902826,316.109147 L341.798598,316.065958 C341.663163,315.99939 341.55693,315.897313 341.660667,315.764745 L341.710826,315.713033 L341.769041,315.679941 L341.769041,315.679941 L341.867384,315.646731 L341.867384,315.646731 L341.906592,315.628091 L341.906592,315.628091 C341.942852,315.606241 341.966633,315.573286 341.961706,315.512817 C341.954022,315.411717 341.801455,315.379305 341.770368,315.275441 L341.66897,315.288362 L341.571272,315.322774 C341.395437,315.400861 341.240927,315.552195 341.064279,315.594377 L341.025541,315.601323 L341.025541,315.601323 C340.960008,315.610833 340.892234,315.604035 340.819213,315.573128 C340.500272,315.439272 340.5053,315.062441 340.364365,314.810997 L340.446273,314.740014 C340.738605,314.540602 341.232104,314.680635 341.557392,314.715651 L341.712772,314.728763 C341.791362,314.731597 341.867672,314.724907 341.925364,314.690964 C341.979808,314.658574 342.017381,314.601773 342.02433,314.505578 C342.039591,314.281575 341.803932,314.113395 341.603332,314.101534 C341.384201,314.087909 341.235166,314.254084 341.046208,314.335519 L341.01785,314.346659 C340.9732,314.363473 340.931156,314.375512 340.89086,314.383273 C340.752476,314.410724 340.63468,314.387013 340.50252,314.333104 L340.400161,314.287338 C340.273262,314.226924 340.077367,314.159363 339.959841,314.221286 L339.920492,314.24991 C339.88468,314.286028 339.862507,314.34276 339.861747,314.427332 C339.859294,314.646381 340.127815,314.768629 340.130823,314.988349 C340.131559,315.043038 340.122018,315.083808 340.104955,315.113114 C340.01845,315.260693 339.745128,315.120598 339.628425,315.0007 C339.471767,314.840715 339.432505,314.602953 339.208877,314.571595 L339.116627,314.56951 L339.125997,314.684042 L339.125997,314.684042 L339.129632,314.799725 L339.129632,314.799725 C338.906234,314.87739 338.700689,314.387417 338.61776,314.242158 C338.521206,314.074751 338.386672,313.91682 338.251285,313.770939 L338.116989,313.629169 C337.919602,313.424523 337.711204,313.206815 337.420262,313.126068 L337.223518,313.082926 C337.152769,313.065931 337.084294,313.043082 337.040422,313.004654 C336.954854,312.92831 336.899765,312.757337 336.962705,312.660129 L337.005349,312.617756 L337.058962,312.595747 C337.047062,312.550201 337.024478,312.527548 336.995463,312.519989 L336.948681,312.518423 C336.926749,312.521985 336.903056,312.530104 336.878711,312.540753 C336.817318,312.567596 336.751729,312.610595 336.699684,312.63732 L336.665751,312.652722 L336.665751,312.652722 L336.636886,312.660864 C336.502811,312.674621 336.370093,312.628659 336.235042,312.615991 L336.099076,312.617866 C336.037,312.469371 335.915619,312.452057 335.892967,312.267414 C335.609243,312.208984 335.446719,312.080703 335.443041,311.811725 C335.441243,311.638256 335.4477,311.572142 335.274166,311.547708 C335.188401,311.535449 335.056172,311.534302 334.948176,311.538223 L334.845665,311.54403 C334.789,311.392166 334.612074,311.283234 334.463128,311.276515 C334.404889,311.37007 334.40835,311.481361 334.33836,311.56391 C334.319429,311.586237 334.294914,311.606782 334.262104,311.624245 C334.100782,311.71006 333.904777,311.629804 333.830104,311.488052 C333.75664,311.35064 333.800349,311.11955 333.679433,311.007569 C333.59425,310.928749 333.530498,310.935365 333.464422,310.973102 L333.284259,311.098665 L333.284259,311.098665 L332.757877,310.482962 L332.825872,310.47912 L332.825872,310.47912 C332.560392,310.429035 332.425499,310.403695 332.211738,310.291853 L332.077878,310.218159 C331.980865,310.167715 331.872199,310.12609 331.77523,310.161991 L331.751373,310.172433 L331.751373,310.172433 C331.762997,310.362558 331.838149,310.415285 331.767724,310.559162 L331.718578,310.640302 C331.554232,310.61385 331.488812,310.43806 331.307275,310.521398 C331.316913,310.556484 331.318048,310.586905 331.312969,310.612587 L331.296569,310.655355 L331.296569,310.655355 L331.265339,310.69048 L331.265339,310.69048 L331.241641,310.706833 L331.241641,310.706833 L331.190663,310.728651 L331.190663,310.728651 L331.13139,310.742918 L331.13139,310.742918 L331.007524,310.755858 L331.007524,310.755858 L330.843698,310.766204 L330.843698,310.766204 L330.673068,310.787661 L330.673068,310.787661 L330.600404,310.788488 C330.507178,310.785178 330.429302,310.752589 330.343744,310.654346 L330.217828,310.495859 C330.162934,310.434391 330.097248,310.389694 329.971899,310.381011 C329.794237,310.368356 329.625754,310.494558 329.458833,310.499882 L329.447561,310.499203 C329.412723,310.499932 329.378614,310.494482 329.344499,310.481474 C329.169738,310.415752 329.059311,310.239627 328.873441,310.176398 C328.626616,310.09046 328.44409,310.151163 328.190921,310.1613 C327.947272,310.16992 327.406785,310.059154 327.245723,309.797077 L327.210027,309.712918 C327.263316,309.671229 327.317193,309.639831 327.37806,309.612537 C327.464864,309.203817 326.528226,309.300569 326.330831,309.077678 L326.114151,308.818824 C325.973041,308.650356 325.827749,308.495084 325.613063,308.38297 C325.24421,308.190594 324.624346,308.392632 324.217924,308.401084 C323.777251,308.411262 323.354757,308.217586 322.924948,308.148488 C322.903866,308.111597 322.900205,308.07558 322.908634,308.042397 L322.924974,308.002473 L322.924974,308.002473 L322.950607,307.967806 L322.950607,307.967806 C323.003099,307.908092 323.094196,307.869095 323.166903,307.872167 C323.167775,307.765581 323.065982,307.422897 323.104685,307.281512 L323.131311,307.233079 C323.282406,307.096706 323.313975,307.543837 323.351896,307.608569 C323.433403,307.747689 323.487379,307.687902 323.60491,307.723027 L323.75238,307.770138 C323.799526,307.782823 323.849516,307.790879 323.916918,307.789477 C324.019989,307.786943 324.129272,307.736589 324.229842,307.76479 C324.320823,307.789665 324.377079,307.883458 324.460989,307.907172 C324.681101,307.968676 324.913728,307.783771 325.142995,307.804959 C325.232627,307.81333 325.353845,307.887651 325.437272,307.885518 C325.535324,307.882248 325.599109,307.805728 325.697553,307.813011 C325.792866,307.820204 325.854542,307.899839 325.941967,307.93033 C326.008302,307.954853 326.125025,307.959668 326.198234,307.96915 C326.416057,307.995569 326.624888,307.957771 326.843054,308.027172 L326.839942,308.123432 C326.843639,308.377332 326.965307,308.333947 327.222763,308.443044 C327.499302,308.559578 327.470054,308.773575 327.555019,309.013877 C327.655213,309.298035 327.843632,309.163166 328.01249,309.377842 C328.093008,309.479695 328.050984,309.509188 328.170272,309.584204 C328.321376,309.67964 328.296975,309.615725 328.403782,309.563417 C328.627351,309.452384 328.867433,309.401278 329.078717,309.604215 C329.172608,309.694738 329.192439,309.792553 329.33254,309.838428 C329.460583,309.880828 329.51048,309.807798 329.624619,309.802567 C329.850485,309.792406 330.040213,309.949109 330.23585,310.035471 C330.541425,310.17164 330.601499,309.953629 330.880793,309.919338 C330.849025,309.865688 330.836801,309.803375 330.832869,309.744568 L330.833188,309.612202 L330.748866,309.598967 L330.745433,309.59488 L330.744387,309.569564 L330.709221,309.540087 C330.69796,309.388959 330.654152,309.226056 330.637378,309.068084 L330.629335,308.952992 C330.628765,309.146089 330.693808,309.353559 330.707888,309.542474 L330.561068,309.67539 C330.500937,309.858267 329.871338,309.58324 329.739199,309.533008 C329.683057,309.511289 329.663545,309.463444 329.608441,309.444757 C329.569842,309.431025 329.519798,309.477267 329.473629,309.456578 C329.389629,309.417553 329.298223,309.340019 329.29618,309.250387 C329.460698,309.199771 329.69639,309.271534 329.651708,309.025837 C329.642668,308.975809 329.61454,308.936237 329.57536,308.903196 C329.510243,308.848812 329.41627,308.814169 329.33451,308.791542 C329.014458,308.703332 328.727766,308.877978 328.399082,308.684728 C328.087106,308.501809 327.954313,308.223676 327.949646,307.86088 L327.957183,307.661002 C327.955781,307.569144 327.935374,307.482332 327.845283,307.436883 C327.709041,307.367777 327.470398,307.465338 327.322736,307.463646 C327.312771,307.327673 327.225272,306.971891 327.065267,306.969913 C326.928681,306.969095 326.930619,307.167341 326.775526,307.048518 C326.693798,306.986016 326.724902,306.874738 326.664264,306.799959 C326.478837,306.568837 326.368401,306.932703 326.16091,306.720512 C326.02367,306.579439 326.071646,306.29376 326.020801,306.118199 C325.801646,306.046215 325.754676,306.190526 325.556169,306.217608 C325.304095,306.25306 325.083313,306.155139 325.067676,305.890787 C324.961278,305.889888 324.853801,305.912989 324.746316,305.919651 C324.692332,305.747638 324.690771,305.499578 324.529907,305.38664 C324.387869,305.286708 324.264223,305.367668 324.10882,305.364896 C323.833106,305.359093 323.642537,305.197322 323.503401,305.000621 L323.419846,304.875321 C323.389732,304.835484 323.353969,304.800226 323.302401,304.777493 C323.167499,304.717469 323.073027,304.830218 322.947166,304.820213 C322.640161,304.796409 322.815003,304.268065 322.698534,304.071962 C322.588008,304.070245 322.418896,304.13806 322.325962,304.048093 C322.253888,303.978545 322.296877,303.765341 322.272109,303.672864 C322.195834,303.384864 322.018548,303.391534 321.757556,303.365237 C321.49488,303.338016 321.383267,303.23255 321.205826,303.081095 C321.112348,303.002013 320.996691,302.967337 320.877304,302.941522 L320.360422,302.828965 L320.360422,302.828965 C320.30424,302.816033 320.25346,302.838038 320.193518,302.818142 C320.136763,302.800559 320.110376,302.720441 320.051316,302.700439 C319.817095,302.618809 319.553414,302.807752 319.319954,302.715896 C319.120147,302.63748 319.068109,302.412054 318.839823,302.378809 C318.721638,302.362011 318.578381,302.414515 318.458365,302.422943 C318.325809,302.433136 318.207322,302.410289 318.075935,302.413583 C317.919264,302.090401 317.732087,302.058414 317.397943,302.054163 C317.353891,301.924853 317.261136,301.900199 317.245253,301.746929 C317.036839,301.671373 316.827093,301.732722 316.608559,301.669444 C316.395191,301.606428 316.245346,301.537649 316.059828,301.422553 C315.891183,301.319139 315.756011,301.16385 315.591975,301.074275 C315.440431,300.991738 315.123272,300.98179 314.946951,300.983621 C314.650736,300.985747 314.56255,301.093215 314.366104,301.255657 C314.203033,301.389218 313.914657,301.471714 313.717057,301.537199 C313.631888,301.565229 313.463594,301.561338 313.391316,301.623373 C313.295905,301.7047 313.350518,301.807027 313.263444,301.892515 C313.068109,302.084106 312.853163,301.681567 312.631278,301.773471 C312.64403,301.981411 313.183401,301.956856 313.119272,302.285981 C312.944292,302.369866 312.652768,302.235128 312.493196,302.181954 C312.410471,302.270057 312.498755,302.362166 312.429967,302.445406 C312.37215,302.515812 312.238777,302.501098 312.15512,302.510466 C311.986703,302.531147 311.74233,302.556422 311.626155,302.665526 C311.46445,302.563959 311.616044,302.424373 311.55915,302.294384 C311.406984,302.305183 311.426414,302.596787 311.270537,302.66864 C310.932387,302.823251 311.084725,302.441621 311.047417,302.330858 C311.006184,302.207514 310.92677,302.208692 310.834488,302.198703 L310.670929,302.169645 C310.628538,302.160498 310.624975,302.150921 310.547128,302.082986 C310.304946,301.872578 310.517054,301.757548 310.772929,301.840575 C310.837589,301.577842 310.520431,301.657338 310.39873,301.611905 C310.22209,301.547311 310.192785,301.301082 310.406087,301.243125 C310.412545,301.168436 310.401591,301.090035 310.379422,301.01842 L310.147589,300.979975 L310.147589,300.979975 L310.101922,300.863104 C310.02814,300.667062 309.951975,300.3989 310.16209,300.344719 C310.275689,300.316804 310.322692,300.444619 310.415112,300.322436 C310.457095,300.267046 310.456074,299.988725 310.442774,299.929534 C310.278722,299.887281 310.202921,300.135831 309.991785,300.116474 C309.968692,300.044965 309.95961,299.965436 309.965177,299.890411 L310.122881,299.821782 C310.215398,299.779619 310.311492,299.73011 310.335019,299.693163 C310.406954,299.580929 310.330196,299.280136 310.297875,299.160439 C310.060327,299.131935 310.084572,299.632452 309.837624,299.645875 C309.832965,299.574815 309.788153,299.550798 309.771044,299.491624 C309.760237,299.458256 309.792975,299.416845 309.786837,299.397774 L309.757629,299.284254 C309.746701,299.254104 309.724844,299.245663 309.637392,299.237474 C309.538392,299.227559 309.480992,299.408973 309.390967,299.215019 C309.346123,299.119379 309.473193,299.051736 309.453264,298.965872 C309.397253,298.726297 309.05912,298.926635 308.950082,298.920651 C308.730869,298.906567 308.743605,298.62003 308.531839,298.579125 C308.333177,298.541114 308.148657,298.76246 307.935616,298.703916 C307.787406,298.663093 307.718471,298.458668 307.560902,298.469229 C307.420523,298.477681 307.043815,298.808687 307.038861,298.417992 C307.036817,298.185978 307.309319,298.191267 307.436864,298.069052 C307.263975,297.85261 307.134044,297.730918 306.859131,297.707907 C306.751368,297.699512 306.636877,297.692842 306.529932,297.694714 C306.440308,297.695613 306.348101,297.786643 306.233741,297.791907 C305.85642,297.807823 306.163752,297.427436 306.025041,297.332736 C305.965343,297.291177 305.767466,297.361657 305.711349,297.37485 C305.583174,297.402529 305.517125,297.414921 305.367665,297.394975 C305.284842,297.066324 305.524695,296.821738 305.138578,296.623599 C304.98745,296.546188 304.920019,296.574741 304.836411,296.402082 C304.752428,296.226316 304.810253,296.150507 304.993335,296.066973 C305.062728,295.785254 304.779981,295.782099 304.614116,295.812055 L304.568332,295.82179 C304.436651,295.853728 304.371984,295.842749 304.240711,295.82179 C304.174114,295.81149 304.139136,295.861967 304.07733,295.810534 C304.023019,295.765387 304.060662,295.681918 304.029411,295.651518 C303.875962,295.502302 303.619065,295.62621 303.41948,295.471166 C303.283515,295.364188 303.202278,295.02836 303.032292,295.030755 L303.003534,294.954995 L303.003534,294.954995 L303.048027,294.841624 C302.837659,294.636995 302.767728,294.639725 302.49082,294.607714 C302.419433,294.445272 302.721117,294.044409 302.346943,294.095082 C302.271223,294.105275 302.183087,294.220403 302.096292,294.227907 C302.027578,294.233221 301.871104,294.174234 301.802234,294.150921 C301.775995,294.103003 301.766823,294.028215 301.780646,293.974926 C301.886259,293.945744 301.988627,293.802512 301.912687,293.699646 C301.872027,293.643594 301.698534,293.653853 301.628692,293.61715 C301.581812,293.592496 301.407444,293.467926 301.389624,293.424831 C301.340496,293.301553 301.469733,293.280733 301.463905,293.141997 C301.451578,292.776986 301.008542,293.061619 300.834346,292.991319 C300.559368,292.880229 300.741845,292.572847 300.954387,292.539766 C301.021401,292.155774 300.212929,292.308659 300.388025,291.921087 C300.533553,291.597063 300.98267,291.967698 301.025161,292.186403 C301.144131,292.196801 301.256128,292.358319 301.349439,292.19049 C301.385937,292.123158 301.353199,291.856616 301.364643,291.767131 C301.390106,291.759529 301.414948,291.750365 301.439455,291.740376 C301.45551,291.632294 301.50346,291.490567 301.631946,291.479973 C301.79106,291.467417 301.783801,291.627136 301.833624,291.71045 L301.88089,291.790609 C301.922143,291.854985 301.971905,291.901239 302.059033,291.838886 C302.211493,291.73006 302.041703,291.600872 302.060422,291.485482 L302.136387,291.45903 L302.136387,291.45903 C302.241117,291.231038 301.892888,291.080956 301.978678,290.873752 C302.004338,290.812935 302.039725,290.78403 302.078962,290.779215 C302.101891,290.776436 302.125989,290.781341 302.150962,290.793357 C302.27276,290.848689 302.397174,291.053057 302.380253,291.168676 C302.355967,291.344662 302.201014,291.520714 302.443049,291.642381 C302.59264,291.718174 302.851809,291.56358 303.028131,291.563556 C303.073041,291.705373 302.988011,291.864046 303.04703,291.987684 C303.242169,291.987684 303.634474,291.783995 303.797153,291.915406 C303.875905,291.979174 303.803283,292.131594 303.929962,292.197365 C304.027883,292.247744 304.06224,292.153861 304.171213,292.144763 L304.180069,292.016479 C304.187821,291.919928 304.205823,291.816946 304.273409,291.801283 C304.470207,291.924455 304.383035,292.018281 304.614812,291.944997 C304.77718,291.893294 304.883471,291.758368 305.042014,291.69182 C305.113956,291.40454 304.835251,291.505673 304.682381,291.487044 C304.459041,291.461302 304.326828,291.315561 304.09564,291.384496 C304.102262,291.551736 303.780101,291.617654 303.663125,291.539654 C303.547262,291.461515 303.585387,291.223223 303.515063,291.104123 C303.417777,290.942607 303.258095,290.866718 303.089663,290.81586 L302.504533,290.662308 L302.504533,290.662308 L302.177041,290.565662 L302.177041,290.565662 L302.135692,290.552155 C302.055289,290.525981 301.976594,290.497346 301.903801,290.465736 C301.672474,290.367537 301.49648,290.165891 301.247962,290.104493 L301.239869,290.06246 L301.232847,290.062747 L301.098019,289.337466 L300.672869,288.764523 L300.352499,288.464693 C300.301214,288.414546 300.251278,288.362956 300.203128,288.307894 L300.074641,288.188404 C300.054148,288.167941 300.035815,288.145962 300.022188,288.120602 C299.96155,288.007526 299.985673,287.981589 299.982681,287.862332 C299.846995,287.883496 299.761662,288.056172 299.605597,287.927556 C299.537218,287.869943 299.470605,287.627842 299.454044,287.534809 C299.302891,287.511921 299.22073,287.347411 299.037297,287.42806 C298.840327,287.515101 298.905926,287.677804 298.678188,287.499414 C298.523014,287.378114 298.034545,287.22115 298.084564,286.966755 L298.195519,286.916551 C298.331628,286.846005 298.405018,286.757553 298.230943,286.609518 C298.050199,286.456665 297.950643,286.471371 297.888861,286.219436 C297.837313,286.014455 297.877907,285.820011 297.862834,285.616861 C297.847392,285.386948 297.773725,285.257 297.686365,285.051905 L297.606698,285.046346 L297.606698,285.046346 C297.5903,284.921752 297.543035,284.768065 297.455586,284.675401 C297.375877,284.591016 297.248136,284.605804 297.280409,284.429278 C297.309828,284.264139 297.444845,284.323256 297.492305,284.177531 C297.525575,284.074779 297.427114,283.885019 297.365488,283.811262 C297.302643,283.736752 297.201403,283.697589 297.150951,283.612779 C297.069338,283.47276 297.149807,283.413545 297.155365,283.307662 C297.169155,283.077087 296.939782,282.996668 296.927054,282.7743 C296.912504,282.538869 297.172262,282.412812 297.275439,282.221499 C297.399142,281.995003 297.438992,281.878371 297.293782,281.648621 C297.232965,281.550431 297.148433,281.463267 297.086717,281.352349 C297.034319,281.258981 297.018068,281.148341 296.961166,281.043815 L296.777177,280.736826 L296.777177,280.736826 L296.732064,280.652273 C296.72356,280.637807 296.71551,280.625678 296.70933,280.619678 C296.645586,280.559695 296.590728,280.601351 296.540169,280.570387 C296.312373,280.428046 296.448109,280.153665 296.270104,279.988542 L296.091536,279.891585 C295.943263,279.807354 295.795128,279.693115 296.047687,279.640093 C296.066144,279.55154 296.022918,279.438128 295.93215,279.415035 C295.808414,279.384046 295.769316,279.519504 295.690417,279.534823 C295.411204,279.58803 295.507229,279.409534 295.475202,279.254196 C295.451046,279.135741 295.286292,278.974616 295.1457,278.981294 C294.989619,278.987589 294.927215,279.214027 294.732837,279.11421 C294.677488,278.925692 294.683954,278.819695 294.569022,278.652463 L294.418493,278.420066 C294.393921,278.383101 294.368297,278.346474 294.339657,278.309368 C294.239815,278.179477 294.131504,278.113706 294.000918,278.017771 C293.844608,277.905406 293.854932,277.852771 293.768128,277.701455 C293.681872,277.549174 293.529567,277.467627 293.441308,277.311757 C293.343044,277.139997 293.382583,277.062831 293.379142,276.892493 C293.376383,276.722186 293.33952,276.688483 293.244934,276.676441 L293.130232,276.667362 C293.005368,276.658142 292.878616,276.635409 292.78179,276.719834 C292.797117,276.806482 292.768499,276.897856 292.70482,276.960643 C292.588253,276.940714 292.448439,276.904493 292.327777,276.867496 C292.183948,276.824106 292.040995,276.652869 291.889638,276.673935 L291.874858,276.684427 L291.874858,276.684427 L291.905422,276.738986 L291.905422,276.738986 L291.53876,276.699529 C291.560619,276.673411 291.579714,276.652142 291.5993,276.636676 L291.431765,276.586561 C291.403082,276.576015 291.373785,276.563368 291.343523,276.547109 C291.242193,276.492643 291.132567,276.313943 291.017798,276.292215 C290.601436,276.217853 290.496117,276.718289 290.558234,277.022221 C290.346109,277.014946 290.147251,276.946076 289.903147,277.031916 C290.014744,277.241237 290.213406,277.866766 289.841627,277.905888 C290.201177,278.069891 289.992444,278.93851 289.941967,279.242074 C289.893125,279.535297 289.577373,280.060436 289.205831,280.06145 C289.223839,280.272128 289.122076,280.418441 289.158869,280.630861 C289.187357,280.801052 289.315834,280.885305 289.377403,281.037014 C289.451292,281.219875 289.445896,281.405719 289.48282,281.601005 C289.514921,281.76782 289.635199,281.954899 289.653689,282.098384 C289.725935,282.652706 289.276752,282.531463 288.968741,282.75491 C288.846125,282.844313 288.92773,283.175809 288.624935,283.02939 C288.422725,282.931444 288.608807,282.551302 288.256441,282.631967 C288.247646,282.837594 288.346163,283.078935 288.302087,283.281463 C288.275046,283.403956 288.108322,283.531436 288.08052,283.678804 C288.003068,284.096286 288.307123,284.437191 288.302872,284.854926 C287.956131,284.985136 287.64642,285.017752 287.290646,285.10897 L287.288158,285.269646 C287.275076,285.54406 287.20058,285.69825 286.824583,285.578008 C286.458264,285.461008 286.488313,285.206139 286.280627,284.975948 C286.112627,284.792025 285.722766,284.705629 285.642207,284.501278 C285.548995,284.266722 285.688074,283.928401 285.618845,283.644946 C285.547327,283.665668 285.428341,283.625981 285.357812,283.645763 C285.234387,283.369183 284.898877,283.173161 284.966946,282.843332 L285.126599,282.785883 L285.035921,282.560514 C285.019609,282.521509 285.002556,282.483027 284.984553,282.44694 C284.885717,282.476646 284.728139,282.439665 284.627136,282.459063 C284.59685,282.317924 283.62951,281.901668 284.429471,281.896485 C284.479736,280.978166 283.339082,281.345302 282.730515,281.320223 C282.681559,281.207515 282.770087,281.055398 282.75494,281.012196 L282.676124,280.843907 L282.676124,280.843907 L282.644896,280.760785 C282.607025,280.60346 282.452586,280.41697 282.415384,280.272406 C282.348436,280.013 282.397155,279.948668 282.44854,279.723619 C282.504894,279.475199 282.66315,279.557817 282.491937,279.27652 C282.415866,279.150692 282.161856,279.11385 282.125202,278.957278 C282.070008,278.722559 282.285877,278.692894 282.347684,278.514545 C282.543747,277.94215 281.871109,278.047722 281.982583,277.612084 C282.12915,277.575619 282.285444,277.55282 282.432183,277.525117 C282.401226,277.279992 282.045501,276.908253 281.861357,276.725866 C281.68018,276.545809 281.507872,276.611351 281.538232,276.295158 C281.555995,276.111635 281.80479,276.115101 281.741005,275.879629 C281.484853,275.859946 281.029973,275.568202 281.344948,275.323166 C281.525749,275.182698 282.181139,275.341469 282.445752,275.267752 C282.485962,275.015466 282.265409,274.822673 282.289425,274.533177 C282.640245,274.419815 282.62867,274.102918 283.038469,274.032553 C283.420458,273.967174 283.530338,274.21906 283.840025,274.220907 C284.08761,274.221807 284.352591,273.844616 284.310395,273.597259 C284.253183,273.256681 283.845787,273.173343 283.923183,272.759016 C284.195447,272.672866 284.444888,272.838463 284.670837,272.735924 C284.702014,272.424594 284.52588,271.909837 284.141831,272.117163 L284.057666,271.821859 C283.974073,271.550955 283.877529,271.34329 283.636025,271.109204 C283.428158,270.908548 283.143134,270.644376 282.880817,270.528807 C282.80097,270.886657 282.519019,270.647564 282.300828,270.703869 C282.725153,271.166074 282.170692,271.662406 281.690708,271.39221 C281.497646,271.894183 281.098033,271.896161 280.90945,271.380226 C281.109787,271.940899 280.47154,271.960248 280.205504,271.635619 C280.058684,271.458332 280.196063,271.241196 279.905357,271.167856 C279.670809,271.109025 279.568245,271.511564 279.310899,271.053414 L279.256188,270.955828 C279.350512,270.923973 279.573403,270.504627 279.581063,270.391943 L279.655605,270.362965 L279.655605,270.362965 C279.710995,270.130444 279.859613,269.950215 279.929504,269.726499 C279.973466,269.585033 279.98039,269.393376 280.02794,269.26476 C280.071812,269.144482 280.159891,269.028913 280.209706,268.916916 C280.360397,268.57247 280.519767,268.332223 280.77933,268.118686 L280.917886,268.013785 C281.274248,267.765022 281.528169,267.487395 281.726185,267.122466 C281.959482,266.694856 281.943215,266.235708 282.087297,265.772196 C282.150003,265.568278 282.265343,265.404986 282.362529,265.248651 C282.533218,264.971098 282.397809,264.828455 282.356807,264.550542 C282.141787,264.4357 281.951896,264.279463 281.725106,264.18724 L281.188401,263.992722 L281.188401,263.992722 C280.801155,263.827379 280.555065,263.56136 280.443722,263.144302 C280.331005,262.725161 280.298676,262.286458 280.48215,261.899654 C280.602673,261.647188 280.721406,261.613689 280.913725,261.432161 C281.045733,261.308041 281.035866,261.140065 281.176278,261.036995 C281.197319,261.022477 281.219569,261.008703 281.247501,260.99739 L281.224204,260.931545 C281.360619,260.88348 281.492905,260.816327 281.589624,260.762098 C281.866147,260.608518 282.099828,260.402989 282.338153,260.224362 C282.548643,260.066956 282.805548,259.766204 283.041191,259.684338 L283.05248,259.577515 L283.05248,259.577515 C283.149619,259.509769 283.099156,259.275386 283.070849,259.072444 L282.917962,258.735005 C283.923501,258.37906 285.984428,258.560343 286.889986,258.65327 C287.453668,258.717422 288.108305,259.597698 288.658221,259.396362 C289.151095,259.217123 289.997136,258.657063 290.524033,259.209398 C290.914384,259.617202 289.362975,260.823807 291.254104,260.185093 C291.351174,260.190324 291.461496,260.183049 291.572275,260.163144 L292.036589,259.985777 C292.148193,260.284534 292.44758,260.103316 292.730177,260.183515 C292.983324,260.255325 293.079703,260.619652 293.156461,260.975301 L293.231757,261.316902 C293.289542,261.549054 293.28261,261.612978 293.5103,261.712534 C293.630687,261.764883 293.741206,261.809733 293.85774,261.853345 L294.039035,261.918619 C294.329038,262.019082 294.749144,262.238956 294.85618,262.555166 C294.952809,262.564027 295.007161,262.640482 295.088643,262.684542 C295.209787,262.750992 295.255262,262.724008 295.38042,262.742883 L295.982357,262.810673 L295.982357,262.810673 C296.340395,262.867411 296.772755,263.037578 297.030575,263.269714 C297.304662,263.517659 297.539308,263.64294 297.894477,263.771213 C298.096253,263.84376 298.332338,263.913218 298.541659,263.968845 C298.727218,264.016796 298.835063,263.967537 298.989951,264.115649 C299.227396,264.340742 299.413719,264.654407 299.745481,264.694861 L299.861725,264.69773 C300.238916,264.673493 300.197014,264.997722 300.375967,265.324485 C300.985339,266.43722 301.423438,266.375748 301.614943,266.4103 L301.64312,266.416738 C301.848526,266.476902 301.619839,266.443256 301.8323,266.440599 L301.988132,266.702025 L301.988132,266.702025 L302.023188,266.765202 C302.068276,266.765921 302.125518,266.779836 302.204774,266.81197 C302.329466,266.827076 302.863082,265.765796 302.983695,265.802351 C303.150951,265.854357 303.30476,266.021098 303.473717,266.116142 L303.648979,266.207159 C303.88407,266.324466 304.260864,266.50305 304.439318,266.584547 L304.512003,266.616357 C304.543438,266.465438 304.575528,266.324527 304.574178,266.153873 L304.547079,265.68549 C304.540294,265.073793 304.172749,264.802632 304.020657,264.255864 C303.330411,264.530597 302.737074,264.289845 302.644572,263.786237 L302.588551,263.492462 C302.48564,262.948729 302.406737,262.378274 302.766673,261.80721 C303.406819,261.658501 304.025411,261.441505 304.661372,261.297005 L305.142207,261.204422 C305.857973,261.092883 306.291158,260.594768 306.724965,260.035984 C307.03488,259.636591 306.999362,258.712134 307.516564,258.627226 C307.746251,258.589474 308.012131,258.651807 308.266176,258.658985 L308.453741,258.651602 C308.862877,258.601371 308.99312,258.867872 309.351951,258.907395 C309.961986,258.974518 309.566768,257.724331 309.499902,257.218936 L309.471055,256.878597 C309.466656,256.795982 309.467651,256.720166 309.481973,256.649025 C309.505924,256.526907 309.569782,256.418147 309.71155,256.311529 C309.965259,256.121202 310.368313,256.081984 310.66188,256.156771 Z" id="trieste" stroke="#000000" stroke-width="0.5" fill="#EBE084" fill-rule="nonzero"></path>
</svg>