<svg>
        <path d="M234.925866,400.204877 C236.331698,399.970559 240.31488,397.158905 241.369253,398.681891 C241.837866,399.384807 240.31488,400.204877 240.549183,401.024932 C241.017796,403.250834 242.657929,400.790629 242.423627,400.556335 C242.072169,400.204877 241.252098,400.907793 240.90064,400.556335 C239.377654,398.564736 246.172507,400.204877 246.523965,401.024932 C246.758267,401.493545 245.118134,401.024932 244.883823,401.493545 C244.766676,401.962158 245.821049,401.727847 246.172507,401.962158 C246.406809,402.313616 245.469591,402.430763 245.352436,402.782229 C244.766676,403.953749 247.344035,405.242433 247.578338,405.593891 C248.046951,406.296798 247.695493,407.585474 248.398409,408.054087 C248.515548,408.171243 253.670259,403.367989 256.247619,402.430763 C256.481929,402.430763 256.481929,402.782229 256.481929,402.899376 C256.716232,403.836602 257.301992,404.77382 257.184845,405.711046 C256.950534,406.531101 256.013316,406.882559 255.544703,407.468327 C254.607485,408.639856 254.256035,410.982896 253.318801,411.802967 C250.858605,414.146016 246.523965,413.794559 249.804232,419.535038 C251.092907,421.878079 252.733049,421.526621 253.55312,422.229537 C253.904578,422.463847 253.435965,423.283918 253.787422,423.518221 C254.49033,424.103981 255.661858,423.869678 256.364774,424.455439 C256.481929,424.689749 256.013316,428.438621 256.130471,428.790079 C256.364774,429.493003 257.65345,429.727305 257.88776,430.313057 L223.444924,430.313057 C223.562079,429.727305 221.687635,429.727305 221.57048,428.907234 C221.101866,426.095572 222.273395,428.555777 222.39055,426.095572 C222.624853,423.518221 221.101866,422.815305 221.336177,420.237954 C221.336177,419.300728 222.859163,412.154425 222.742008,411.920123 C222.273395,411.217199 219.930346,411.568665 220.398951,410.865741 C221.336177,409.577074 222.742008,409.811368 223.796373,408.874158 C225.670817,407.351172 222.39055,407.351172 223.444924,406.882559 C223.913537,406.648256 226.725191,406.765411 226.373733,405.711046 C226.256578,405.476728 226.022275,405.359572 226.022275,405.12527 C225.90512,405.008114 226.022275,404.890975 226.022275,404.656657 C229.419706,404.070905 230.474071,401.024932 234.925866,400.204877 Z" id="tunis" stroke="#000000" stroke-width="0.5" fill="#DCCFBE" fill-rule="nonzero"></path>
        </svg>