<svg>
        <path d="M609.787253,248.901594 C609.523646,248.978531 609.270281,249.389368 609.006657,249.565101 C608.538019,249.799403 607.718774,249.799011 607.484496,250.267632 C607.133005,250.97054 607.835913,251.906507 607.484496,252.609414 C607.133005,253.078011 606.430891,252.960635 605.962335,253.077774 C604.439365,253.546395 602.567455,253.42848 601.278763,254.482845 C600.810134,254.834302 601.161984,255.770564 600.576232,256.239185 C600.107676,256.590643 599.405659,256.35621 598.819891,256.35621 C598.234123,256.35621 597.649376,256.473234 596.94646,256.473234 L596.712281,256.473234 C596.009373,259.284905 595.152469,261.506817 592.692215,263.849858 C592.340798,264.201316 591.755692,264.08385 591.521324,264.435308 C589.998354,266.192605 588.244065,270.75755 585.901041,271.811932 C585.315272,272.046243 584.496297,271.343507 583.910529,271.460662 C583.441891,271.577817 583.325357,272.397316 582.856719,272.514463 C582.38809,272.631619 581.920286,272.280283 581.451649,272.280283 C580.983019,272.397439 580.632354,272.982896 580.046578,272.865733 C579.929431,272.865733 577.705172,271.694531 577.002256,272.280283 C576.416488,272.748905 576.417084,273.56806 575.948455,273.919534 C575.479899,274.153828 574.894932,273.685223 574.426294,273.919534 C573.957738,274.270992 573.958213,274.856065 573.489583,275.207515 C572.786676,275.793275 571.733619,275.909744 571.030711,276.495496 C569.85924,277.549877 569.743441,278.36842 568.454741,279.305646 C566.931771,280.477174 563.186643,281.061978 561.429387,281.061978 C557.211894,281.061978 561.89903,280.594125 559.438875,279.656907 C558.033044,279.188294 557.682812,281.764395 557.214174,281.998698 C556.394128,282.350147 555.341234,281.881665 554.404033,281.764518 C554.286886,281.647362 554.287008,281.296158 554.052763,281.296158 C553.115545,281.413313 552.297003,282.232935 551.242621,282.115787 C550.891172,282.115787 551.008638,281.179207 550.65718,280.944888 C550.07142,280.593439 549.252559,280.242357 548.43248,280.242357 C543.863545,280.359504 546.093174,284.926984 541.524215,282.935409 C540.118384,282.232501 539.417439,278.602992 537.894452,278.837286 C537.308708,278.837286 537.30933,280.24248 536.723561,280.008177 C536.254948,279.891022 537.192223,278.486016 536.606529,278.486016 C535.435,278.603172 533.564422,282.936234 529.464084,281.413248 C525.129452,279.773123 527.590768,277.549444 527.356482,277.315125 C526.770706,276.612218 525.717665,277.080946 524.89761,277.080946 C524.546153,277.080946 524.156104,276.846643 524.038948,277.080946 C523.687499,277.666706 523.922177,278.602804 523.453507,279.188556 C522.164839,281.531613 509.989875,283.168886 506.943918,284.457569 C505.538079,284.926174 504.368529,286.798845 503.314155,287.736071 C502.376937,288.673281 500.738766,289.023676 499.684384,289.726583 C496.755567,292.06964 494.768104,295.69655 492.073589,298.625368 C491.370673,299.445439 490.200599,300.732651 489.380537,301.31842 C489.263381,301.435575 488.677997,301.31842 488.677997,301.552599 C488.209392,303.895657 489.967188,303.893507 487.741286,305.533632 C487.506992,305.767935 486.921845,305.533575 486.570395,305.650657 C483.758741,306.705038 485.986907,307.05567 482.355183,307.172817 C481.066499,307.172817 477.789338,306.235845 476.617809,306.704466 C476.266351,306.821613 476.383817,307.406875 476.03236,307.641177 C474.743676,308.812698 472.40348,309.280362 470.763346,309.397518 C468.771755,309.631804 463.972229,310.52927 463.855082,310.763556 C463.38646,311.817937 463.152681,312.987619 462.918362,314.159147 C462.566913,315.682134 465.455112,316.227676 465.806569,316.344815 C466.04088,316.344815 466.391962,316.344815 466.509101,316.578986 C466.626256,316.930444 466.040619,317.39855 466.274921,317.515706 C466.626379,317.632853 466.860183,316.930256 467.21164,316.930256 C467.445951,317.047411 467.328665,317.632796 467.562902,317.632796 C469.788812,317.867098 471.776856,315.642153 474.119905,315.876455 C476.111504,315.99361 470.607485,318.21818 470.138864,318.335327 C469.787414,318.335327 469.787725,317.51564 469.553422,317.632796 C469.31912,317.749943 463.843572,320.070864 462.215831,321.808975 C460.575706,324.034886 467.759251,320.714368 465.533357,323.994643 C465.064736,324.580403 460.538439,324.853158 458.898297,325.087477 C455.735169,325.556074 452.926809,327.078054 452.809662,326.960907 C452.341041,326.375147 454.449232,325.751245 453.863463,325.282624 C453.160556,324.69688 452.849202,324.814207 451.911975,324.931354 C451.79482,325.04851 450.585035,325.165534 450.467872,325.165534 C450.233586,325.165534 449.414005,325.750869 449.531161,325.985163 C449.993014,327.205673 451.716902,326.687245 451.599738,327.507324 C451.248281,328.678853 450.11724,328.287725 448.945711,328.639183 C445.353992,329.355635 446.018782,327.663504 445.433038,327.546349 C443.910052,327.312046 443.091886,328.75615 441.920357,328.990452 C441.451736,329.107599 439.578959,328.989635 438.876035,329.810074 C438.173128,330.630153 438.05679,331.917234 437.353875,332.737305 C437.002425,333.088763 436.417278,332.854207 436.182984,333.205665 C435.948673,333.67427 436.300008,334.142188 436.300008,334.493646 C436.182861,335.079406 436.183106,335.781381 435.831657,336.249986 C435.128741,336.952894 433.841136,336.36639 433.841136,337.655057 C433.958292,339.529493 434.894937,340.464439 434.894937,341.87027 C435.012093,342.338891 433.488918,345.031542 435.246207,345.265853 C435.480526,345.265853 442.739471,341.753302 443.559542,341.519 C443.793853,341.401845 444.262147,341.167608 444.144992,341.401975 C443.793534,342.690651 442.740371,345.148191 441.9203,346.319719 C441.803144,346.554022 440.749033,346.202319 441.45194,346.670989 C442.154847,347.256749 444.847343,347.255499 445.198793,349.012771 C445.198793,349.598548 444.02764,350.417548 444.496262,351.003292 C444.847711,351.237594 448.477605,349.948673 447.891845,351.471651 C447.306076,353.22894 443.793346,354.632482 444.496262,355.686864 C445.199169,356.741237 447.189191,358.380054 447.423493,358.145736 C447.892106,357.794278 448.477033,357.560351 448.945654,357.443204 C449.414267,357.326049 450.467815,356.974591 450.467815,357.443204 C450.350659,357.677515 446.838305,359.902076 446.369684,359.902076 C445.783932,360.019223 445.433234,358.613907 444.964613,358.965357 C444.378845,359.433978 445.784569,361.19018 445.198793,360.955877 C444.96449,360.955877 442.974477,356.506673 442.271561,356.155215 C441.920112,355.920913 441.100785,355.803692 440.86649,356.272248 C440.515041,356.975155 441.100613,357.911049 441.21776,358.73112 C441.21776,359.082578 440.866384,359.433594 441.100736,359.550741 C441.686504,359.785052 442.974223,359.199243 442.857076,359.667774 C442.622757,360.605 441.569537,361.072583 440.749466,361.541196 C440.515172,361.541196 440.281172,360.838542 440.164016,361.072845 C440.046869,361.307155 440.632441,361.541065 440.515286,361.775376 C440.515286,362.126834 439.578387,362.477785 439.929845,362.712095 C440.632752,363.180708 441.568638,362.712095 442.388717,362.946267 C442.623019,362.946267 444.496196,364.468542 444.730499,364.234256 C445.433422,363.64848 445.549678,362.478177 446.369749,362.009556 C447.306967,361.540935 447.188872,364.116978 448.12609,364.468428 C448.594711,364.585583 448.94545,363.648807 449.414071,363.648807 C449.999831,363.648807 453.199956,364.585518 453.199956,364.585518 C453.317112,364.819812 454.019839,367.629529 453.551226,368.215289 C452.848311,368.918196 449.999014,369.503082 450.936232,369.85454 C451.873458,370.08885 452.965327,369.737262 453.785406,370.205801 C454.722616,370.908725 453.082229,373.601327 454.253757,373.718482 C455.308139,373.835629 455.775395,372.079232 456.712638,372.079232 C457.649847,372.196387 458.000169,373.484057 458.82024,373.952662 C459.054542,374.069809 459.522779,373.48418 459.522779,373.718482 C461.280052,379.458954 451.207041,373.481654 455.658828,378.402054 C456.244589,378.987798 457.180613,377.816605 457.883529,377.816605 C459.055041,377.816605 458.585365,379.104962 459.874041,378.402054 C460.10836,378.284899 459.639804,377.933695 459.757016,377.933695 C460.577087,377.46509 461.512932,377.933695 462.332978,377.582425 C463.270204,377.11382 465.494079,376.060395 466.079839,375.826084 C467.017065,375.474635 468.304204,374.30349 468.889981,375.123553 C471.115858,377.935215 465.49439,376.879379 465.49439,377.816605 C465.49439,378.519512 466.665542,379.221414 466.196929,379.690035 C465.494014,380.392943 464.323997,379.690035 463.386787,379.924215 C461.512343,380.392828 459.874932,381.914155 458.351946,382.968529 C457.766185,383.437142 459.87373,382.734414 460.576638,382.617267 C461.162414,382.617267 461.747349,383.085749 462.098798,382.851447 C462.56742,382.499989 461.981398,381.563646 462.450068,381.212196 C463.152984,380.743583 464.088886,380.978074 464.90894,380.860926 C467.369144,380.158019 467.016501,378.987357 467.13364,379.221676 C468.656627,382.619098 467.017114,381.562886 465.962749,382.617267 C465.728431,382.851569 466.665166,383.202839 466.89946,382.968529 C467.133763,382.617079 470.529232,378.753381 470.529232,378.636226 C470.880681,378.050474 470.529232,377.114204 470.997583,376.879894 C474.04354,375.474054 472.636384,378.518768 473.456455,379.221676 C474.159371,379.690297 475.329436,379.455668 476.149515,379.807125 C476.383817,379.807125 476.383629,380.39264 476.500777,380.275477 C477.672305,379.221112 475.446101,377.699638 477.086226,377.465335 C480.366501,376.879567 480.130425,382.148785 480.364728,382.383087 C482.824924,384.140376 484.69564,383.202586 487.272992,383.436888 C487.624441,383.436888 487.741033,384.490738 488.326793,384.373599 C489.381174,384.256452 493.244414,380.509706 493.478717,380.392567 C494.064493,379.689659 495.820131,379.455668 496.523038,379.807125 C496.757332,379.924272 496.523038,380.978139 496.757218,380.743837 C497.342986,380.158068 497.693937,379.222125 497.693937,378.402054 C497.693937,377.933433 496.874308,377.933883 496.874308,377.582425 C496.757161,376.879518 497.342553,376.17773 497.576847,375.474823 C498.04546,374.069 495.702714,372.19727 496.991398,370.439981 C497.459995,369.854213 503.079526,368.800796 504.016752,368.68364 C504.36821,368.68364 514.554657,369.737401 514.788967,369.85454 C519.357918,371.143215 518.571567,374.537866 524.663488,375.006463 C527.70946,375.240782 525.130523,374.421782 527.590719,373.015943 C528.176496,372.664493 528.995471,373.250311 529.58124,372.898918 C529.932698,372.664616 529.58124,371.962346 529.81542,371.728027 C530.63549,371.142267 534.26455,370.674349 534.733163,370.440046 C535.201777,370.088589 535.318351,369.269343 535.786973,368.917886 C536.138422,368.80073 536.138046,369.620499 536.489504,369.503327 C536.606659,369.503327 537.777346,365.990589 538.011665,366.107744 C538.597409,366.107744 538.830967,367.395847 539.416736,367.161545 C541.759785,366.458638 539.88503,365.054523 540.002185,364.000134 C540.353635,361.774256 542.928779,358.497888 544.100308,356.740599 C546.443365,353.577496 553.349905,357.56054 554.169984,356.974779 C554.872891,356.389011 555.106319,355.45288 555.809234,354.984267 C556.038289,354.755196 559.153646,355.41173 557.760722,353.032779 C557.848147,352.911749 557.898591,352.774281 557.799689,352.642477 C557.565322,352.173872 556.863223,353.345074 556.277529,353.227926 C555.92603,353.110771 556.628569,352.642608 556.98006,352.408297 C557.448616,351.939684 558.267771,351.706027 558.736401,351.237406 C559.439308,350.300196 559.20418,348.427387 560.375651,348.193084 C562.015834,347.724471 563.653924,350.182902 564.005414,351.471586 C564.122569,352.057346 560.141324,357.325616 560.492741,358.14567 C561.195649,359.668649 564.005316,360.018087 564.239594,361.892531 C564.356749,362.243981 564.122692,362.711891 563.771234,363.180512 C564.591289,362.829054 566.815286,364.351706 567.283916,363.765954 C567.869684,363.180202 566.932548,362.127161 567.166891,361.307082 C567.401169,360.721313 568.454766,360.604869 568.689052,360.019101 L567.98639,356.974967 C567.98639,356.740657 571.381875,355.570019 571.616153,355.335717 C571.85052,354.984267 569.74291,353.696605 569.50855,353.462294 C568.571357,352.290766 567.634744,348.076886 568.337659,346.788202 C568.571937,346.436752 572.903864,346.319597 573.372493,346.788202 C573.489649,346.905357 572.786283,348.896262 574.192114,348.076183 C574.543531,347.84188 574.309147,347.256627 574.543384,347.139471 C575.714937,346.436548 577.235774,346.788578 578.407327,346.08567 C581.687553,344.445545 583.556921,338.240875 587.891561,337.889425 C589.531744,337.77227 591.169147,339.177406 592.926395,339.177406 C596.323834,339.177406 600.223433,336.251123 603.035104,334.493834 C607.604022,331.565025 609.706858,326.182207 614.04149,323.019087 C616.736022,321.144643 620.597054,320.756376 623.408635,318.881932 C624.697327,318.061861 627.155063,316.658065 627.975109,315.135079 C628.443747,314.315 628.793602,311.152902 630.902341,313.261649 C631.370978,313.613106 631.721782,314.198041 631.95615,314.783809 C632.190428,314.54949 632.541403,314.198548 632.775771,313.847098 C633.244327,313.378501 633.712384,313.144869 633.946662,312.559117 C634.18103,311.973357 634.063319,308.92942 634.766292,308.812256 C635.586338,308.57797 636.405166,309.163714 637.108074,308.812256 C637.810981,308.460798 638.04436,307.173193 638.864414,306.821744 C640.621736,305.884518 646.474351,307.057052 648.11446,304.948313 C649.87179,302.72242 647.176278,303.192422 649.870801,302.372351 C653.385379,301.31797 651.391875,304.947553 653.383482,306.353384 C654.203529,306.822005 655.139153,302.25576 656.310714,301.318542 C656.896482,300.967093 658.652643,301.201771 658.301226,300.616011 C655.723842,296.632812 657.717583,300.265943 654.437283,298.040049 C652.680035,296.86852 653.032262,294.293376 652.915123,293.941926 C652.680845,293.590469 649.285507,293.122297 648.93409,293.122297 C648.46546,293.122297 647.529158,294.176401 647.411929,293.590657 C647.060512,292.06767 647.528954,289.72758 647.646109,288.087463 C647.646109,287.501687 647.880338,286.799793 647.763134,286.214033 C646.708809,283.402379 646.007406,287.503027 644.952992,285.628583 C644.952992,285.394272 642.14285,279.657038 642.14285,279.657038 C640.737019,279.071262 641.558218,281.649324 640.03524,278.369049 C639.800962,277.783305 640.03524,276.847215 639.801068,276.261447 C639.215292,275.089918 636.991294,274.974161 636.288387,273.685485 C635.58548,272.513965 639.800962,272.866918 640.03524,270.875343 C640.269518,267.829371 635.582054,263.966139 642.61121,265.723411 L642.845381,265.489232 C641.43955,264.786316 639.216232,263.850177 638.161817,263.498719 C633.944316,262.092888 632.427052,265.372084 627.623782,265.489232 C627.272365,265.489232 628.20933,264.669749 627.975052,264.435431 C627.506422,263.615384 626.453267,263.382005 625.750351,262.67909 C624.461659,261.273259 625.516401,258.581842 625.16491,256.941717 C624.461995,253.895752 620.833082,254.132025 619.895888,253.311954 C619.544398,252.960496 619.661864,252.258341 619.310447,251.906883 C618.958956,251.555425 618.491046,251.438466 618.139556,251.555613 C617.553779,251.789916 617.203163,252.492267 616.617395,252.609414 C616.265905,252.609414 616.266272,251.906948 615.914856,251.789793 C615.563365,251.789793 615.212373,252.609602 615.095234,252.258153 C614.860866,251.906695 615.563594,251.555875 615.563594,251.087262 C615.680864,250.267183 613.924768,250.736114 613.104714,250.501812 C612.401807,250.384657 611.817109,249.916362 611.114202,249.916362 C610.879924,249.916362 611.114251,250.501747 610.997169,250.618902 C609.005569,251.087523 610.646153,249.448248 610.060458,248.979651 C609.972534,248.921074 609.875112,248.875992 609.787253,248.901594 L609.787253,248.901594 Z M448.477294,302.138172 C447.774387,302.255319 447.072599,302.138172 446.369684,302.372351 C445.432474,302.723801 444.730875,303.542932 443.910812,304.128684 C443.676501,304.245839 443.910877,304.714183 443.793787,304.597044 C441.099272,304.011275 440.282569,301.903232 437.588054,303.309063 L435.597542,305.533755 C434.777488,305.885213 433.724439,305.299264 433.138662,305.885025 C432.435755,306.470801 433.138662,307.640989 432.670311,308.343896 C431.991624,309.1357 429.512324,309.109673 430.289496,310.685687 C430.015433,311.052962 429.722946,311.443109 428.884425,311.77852 C427.747204,312.233409 428.916771,313.13246 428.68927,314.042245 C428.461826,314.952022 428.105202,317.123605 429.469866,318.374548 C430.83454,319.625499 432.646744,321.313256 431.850681,323.019087 C431.791981,323.144891 431.700256,323.460954 431.616501,323.682594 C431.595649,323.713812 431.559174,323.727807 431.538444,323.760651 C431.339815,324.075161 431.235926,324.448485 431.14815,324.814452 C431.018619,325.138959 430.910022,325.446014 430.757847,325.868262 C430.650068,325.996264 430.51452,326.126482 430.32852,326.180499 L430.211496,327.390422 L430.211496,327.46848 C430.621425,328.28824 430.952733,328.092815 431.53851,328.327134 C433.295782,328.912894 438.837322,324.910763 439.34446,326.219523 C439.48094,327.781599 433.724308,330.160518 433.489997,332.034962 C433.489997,332.386411 434.192471,332.503125 434.309619,332.854583 C434.426774,333.206041 434.426774,333.556935 434.309619,333.908384 C434.192471,334.6113 433.37258,336.601689 433.958349,336.133084 C436.184259,334.25864 436.650403,331.216657 438.524831,328.75646 C440.164973,326.413403 443.207594,325.947717 444.730564,323.370357 C445.199185,322.550302 445.667087,321.614515 446.018545,320.677305 C446.1357,319.97439 445.471866,319.897019 445.940488,319.311259 C447.932063,316.733899 448.749354,319.077529 451.092411,318.257458 C451.443869,318.140302 451.209313,317.438016 451.560771,317.086567 C452.263678,316.50079 452.965327,316.032896 453.902553,315.798586 C456.597052,314.861368 457.883905,317.790676 457.298144,314.861866 C457.063826,314.276098 457.766177,316.501183 458.351946,316.384027 C459.289155,316.26688 462.2157,315.682003 462.567158,314.744777 C462.918616,314.041869 462.44988,313.223065 462.684183,312.402995 C462.684183,311.93439 463.621213,311.115136 463.035452,310.880834 C460.575256,310.060771 455.19212,310.218341 452.146155,308.343896 C447.577213,305.532251 449.414447,304.012608 448.711531,302.138172 L448.477294,302.138172 Z M556.979995,353.774531 C556.842861,354.033324 556.702294,354.22185 556.745823,354.047736 C556.789785,353.937954 556.886373,353.870196 556.979995,353.774531 Z" id="turkey" stroke="#000000" stroke-width="0.5" fill="#DCCFBE" fill-rule="nonzero"></path>
        </svg>