<svg>
        <path d="M268.402188,246.188992 C268.787999,246.035881 268.838593,246.066325 268.834319,246.280027 C268.831229,246.433371 268.647387,246.627283 268.426025,246.710866 C267.72485,246.97561 267.581553,247.284872 267.788757,248.087172 C267.977511,248.818615 268.311713,249.362404 268.609731,249.440022 L268.677779,249.449531 C269.144234,249.456381 270.473079,251.545076 270.458905,252.249079 C270.45655,252.366258 270.597666,252.547787 270.788073,252.683892 L270.886948,252.747651 L271.319986,252.997665 L270.935463,253.408199 C270.776958,253.577574 270.603665,253.699723 270.493605,253.728016 L270.458001,253.731183 L270.764432,253.822102 C270.838402,253.84508 270.92061,253.871095 271.007905,253.899225 C271.067752,253.850031 271.120752,253.79506 271.168687,253.734054 L271.26984,253.612663 C271.496837,253.362616 271.690855,253.338837 272.486363,253.412361 L272.666267,253.429559 C273.769832,253.537674 274.274971,253.666541 274.479081,253.997227 L274.937586,253.686144 L275.338899,253.954109 C275.901934,254.329505 279.717293,255.150043 281.703183,255.333775 L281.901886,255.350466 C282.806937,255.418338 284.002188,255.613796 284.55812,255.785008 L284.858429,255.880329 C285.47728,256.085147 285.541896,256.181476 285.448147,256.477665 L285.327349,256.828357 C285.316524,256.855201 285.308788,256.871384 285.305308,256.873673 L284.223313,257.526332 C283.640471,257.877079 282.827717,258.511379 282.417003,258.935744 L282.072722,259.298178 C281.738864,259.66732 281.707354,259.811511 281.797909,260.234258 L281.858324,260.495499 C282.035316,261.236989 282.077578,261.278801 282.575136,261.203213 C283.206411,261.107278 284.751019,261.649019 284.744643,261.96397 C284.739943,262.197512 283.858384,263.094708 283.636687,263.091439 C283.565692,263.090401 283.334921,263.425272 283.123564,263.8357 C282.816501,264.432619 282.775302,264.667616 282.918256,265.011594 C283.113297,265.481123 283.757463,265.602847 284.120381,265.238531 C284.286534,265.071749 284.331591,265.148041 284.322845,265.581937 C284.316665,265.88891 284.200695,266.232537 284.065123,266.345531 C283.780311,266.58258 283.562332,267.442902 283.785951,267.446172 C284.126962,267.451174 283.889954,268.130196 283.482657,268.315567 C283.232738,268.429021 283.080834,268.610293 283.043094,268.836765 L283.033956,268.936526 C283.029297,269.168065 282.929316,269.454079 282.811801,269.57206 C282.538989,269.84591 282.485398,269.829896 282.027722,269.336924 C281.641098,268.920079 279.918117,268.296455 279.121335,268.284774 C278.85684,268.28089 278.63887,268.407527 278.438873,268.684313 L278.354177,268.812185 L277.573433,269.413314 L277.702678,269.715517 C278.025797,270.493441 277.983954,270.62556 277.607218,270.620025 C277.316611,270.615755 275.919751,271.276997 273.865118,272.386463 L272.704123,273.019128 C272.099683,273.342733 271.991776,273.364262 272.180056,273.141826 L272.264153,273.04709 C272.795038,272.469028 272.777636,272.148651 272.176407,271.877841 L272.056826,271.827594 C271.545221,271.626144 271.430298,271.607821 270.678444,272.093269 L270.215218,272.399098 C269.107752,273.138079 268.92091,273.353711 268.222074,274.699387 L268.057934,275.0248 C267.715774,275.723875 267.46978,276.362694 267.487229,276.525169 C267.534084,276.962417 269.569041,280.176962 270.369877,281.078883 C270.706499,281.457627 271.122804,281.76988 271.295308,281.772414 C271.678597,281.778038 271.694357,282.277583 271.337929,283.116995 C271.041893,283.814216 270.743224,284.067004 270.815117,283.590604 L270.830594,283.504403 C270.946327,282.938589 270.602104,282.738202 270.177681,283.123918 C269.944499,283.335962 269.866319,283.57042 269.931044,283.863725 C269.983172,284.099907 269.97024,284.291605 269.902907,284.290631 C269.845201,284.289777 269.768757,284.168731 269.719101,284.008101 L269.696717,283.924861 C269.661966,283.774342 269.570593,283.643509 269.470969,283.587016 L269.254412,283.73242 C269.005067,283.893104 268.78315,284.017046 268.755232,284.047469 C268.687327,284.121063 268.540973,284.591507 268.429866,285.092695 C268.019619,286.945689 268.913643,292.802458 269.85315,294.416678 C270.150196,294.927108 273.633412,296.035605 274.5,297 C275.144488,297.717228 273.225313,298.393419 273.406923,298.479064 L273.443005,298.489755 C273.731594,298.493989 273.555812,299.576025 273.200635,299.982406 C272.839061,300.396409 272.553003,300.37185 272.418719,299.924153 L272.392294,299.821747 C272.335654,299.564441 272.197057,299.384343 272.084447,299.421324 C271.783306,299.520621 271.32869,299.035543 271.27695,298.595938 L271.272232,298.502662 C271.281723,298.031354 270.930139,297.821337 270.456933,297.993968 L270.353757,298.036861 C270.142392,298.13551 269.792079,298.217817 269.575114,298.219943 C269.389299,298.221814 269.06181,298.345251 268.793227,298.508294 L268.664774,298.592736 C268.337905,298.826441 267.936722,298.940858 267.569643,298.905251 C267.13351,298.862734 267.007816,298.90513 266.978896,299.141848 L266.973248,299.211308 C266.950131,299.692362 266.723839,300.541477 266.455621,301.153371 C266.336054,301.426076 266.198692,301.641545 266.149572,301.632479 C265.733256,301.552448 265.192345,301.307755 264.812872,301.03556 L264.660959,300.917621 C264.445576,300.735442 264.113058,300.576974 263.864624,300.530576 L263.748346,300.517125 C263.104973,300.497163 262.243646,299.633057 262.104673,298.86809 C262.049026,298.561694 261.942441,298.224094 261.852696,298.058724 L261.815463,297.998989 C261.708239,297.855337 261.720007,297.713574 261.859646,297.530785 L261.927346,297.449809 C262.332142,297.001134 262.808627,295.815251 262.677125,295.584202 C262.618364,295.481008 262.363993,295.439599 262.029522,295.473788 L261.675755,295.520551 C261.316762,295.560255 261.23585,295.505888 261.196805,295.255084 L261.187016,295.181736 C261.15006,294.864392 261.063051,294.790765 260.654131,294.808339 L260.534422,294.815278 C260.07216,294.847596 259.869674,294.762706 259.473929,294.318701 L259.172234,293.970299 C258.866209,293.626007 258.762252,293.58128 258.582616,293.716491 L258.475458,293.807368 C258.326385,293.942883 258.170141,294.024899 258.097013,294.011623 L258.067793,293.99685 C258.024148,293.949686 257.886982,294.062665 257.746181,294.254843 L257.685877,294.341817 C257.494744,294.632785 257.198798,294.801717 256.823561,294.833711 C256.407203,294.869151 256.276394,294.945138 256.258692,295.196081 L256.256602,295.276747 C256.259414,295.520834 256.156523,295.669093 255.98715,295.665251 C255.855356,295.662318 255.523553,295.700523 255.206736,295.753552 L254.849061,295.814519 C254.528108,295.859818 254.453474,295.816037 254.461426,295.625839 L254.466125,295.56433 C254.519672,295.046162 254.055815,295.067788 253.712878,295.557887 L253.65015,295.655253 C253.296618,296.251097 253.031348,296.326796 252.647647,295.91493 L252.569267,295.826065 C252.42388,295.652953 252.222958,295.505701 252.086629,295.465978 L252.024403,295.455455 C251.894545,295.45355 251.657243,295.286924 251.49682,295.084894 C251.118668,294.608451 250.287326,294.582193 249.884298,295.00023 L249.804812,295.096608 L249.527864,295.491888 L248.995114,294.948741 C248.73893,294.687264 248.473627,294.326082 248.358141,294.088801 L248.318283,293.995346 C248.248689,293.797684 248.076079,293.630157 247.911654,293.589557 L247.842011,293.58021 C247.685462,293.577912 247.476285,293.449933 247.338716,293.281422 L247.276474,293.194183 C247.124972,292.947019 246.885567,292.824202 246.442055,292.775091 L246.286499,292.761381 C245.854193,292.73175 245.549959,292.630097 245.418543,292.473611 L245.37745,292.412392 C245.228828,292.123035 244.417889,291.61255 244.016945,291.536911 L243.932185,291.527474 C243.600926,291.52261 243.069755,290.782109 243.135248,290.416812 C243.206537,290.019668 241.983599,289.268638 241.395444,289.348371 C241.210468,289.373369 240.857048,289.666999 240.569716,290.025523 L240.279153,290.407967 C239.783445,291.030528 239.519296,291.074582 239.071519,290.659451 L238.985308,290.576262 C238.645341,290.236695 238.446607,290.162605 237.81765,290.195695 L237.378793,290.222904 C236.858859,290.247924 236.780134,290.195038 236.860719,289.986046 C236.921079,289.830095 237.074831,289.595768 237.202916,289.466065 C237.609522,289.053116 237.408845,287.930911 236.945722,287.807464 L236.866163,287.796431 C236.735937,287.794518 236.585962,287.667995 236.532918,287.515362 C236.462422,287.312536 236.392249,287.281526 236.176902,287.402881 L236.089057,287.455493 C235.832817,287.615958 235.711334,287.618216 235.489035,287.423352 L235.400488,287.340962 C235.236271,287.181245 235.036119,287.085427 234.922116,287.105275 L234.878888,287.121014 C234.646188,287.265063 233.994232,286.829564 233.999963,286.534166 C234.002708,286.409695 234.322916,286.25985 234.711583,286.201101 L235.022979,286.149687 C235.416704,286.069985 235.414404,285.956725 235.395501,285.322174 C235.381812,284.85667 235.450621,284.532006 235.60865,284.322491 L235.672106,284.24927 C236.084079,283.835695 236.061943,283.143978 235.626616,282.815515 L235.501835,282.718697 C235.308035,282.558053 235.306026,282.465517 235.487214,282.035244 L235.604161,281.764616 C235.764367,281.397784 236.025949,280.849492 236.230023,280.450066 L236.326531,280.264289 C236.665602,279.623943 236.739507,279.552252 237.309538,279.591863 L237.430384,279.601134 C237.834305,279.634411 236.368131,278.705256 236.5,279 L237.5,278 C237.794041,278.621233 238.180359,278.476918 239,278.5 C239.649081,278.517958 240.558825,278.202614 241,278.5 L242,278 C242.326787,278.242463 238.760948,277.955128 239,278 L240,278 C240.232684,278.003417 242.954125,277.801755 243,278 C243.09085,278.394741 245.894932,279.15197 246.5,279 C246.693363,278.951463 244.298785,278.756651 244.5,278.5 L249.5,280.5 C249.911965,279.877578 251.38121,278.984924 251.5,279.5 C251.537687,279.663004 252.49346,280.497211 253.09125,279.81964 L253.201001,279.700183 L253.216964,279.700449 C253.370095,279.691802 253.565662,279.636643 253.819539,279.532404 L253.978989,279.463951 L255.211744,278.897164 L255.205172,278.815044 C255.19605,278.690364 255.140278,278.58369 255.072786,278.550839 L255.031163,278.540433 C254.946215,278.539183 254.812441,278.345875 254.733951,278.110935 C254.655452,277.875995 254.440703,277.640327 254.256649,277.58739 C254.103563,277.543125 253.945765,277.425865 253.869168,277.306671 L253.83364,277.23549 C253.784995,277.09512 253.628749,276.978341 253.48676,276.976297 C253.360555,276.974451 253.091488,276.74164 252.855967,276.438804 L252.769564,276.322272 C252.516959,275.964896 252.22049,275.706447 252.110594,275.748357 C251.742019,275.888844 251.441057,275.466812 251.420698,274.81267 L251.420431,274.678845 C251.434653,274.139223 251.383793,273.970349 251.15783,273.90979 L251.091779,273.895763 C250.834708,273.852847 250.763707,273.733814 250.74114,272.992004 L250.732311,272.467812 C250.72722,271.862895 250.725307,271.523533 250.805172,271.205658 C250.49446,270.14177 251.107945,266.714018 250.901275,266.989845 C250.259163,267.846856 249.463794,267.290998 249.340956,265.949001 L249.330117,265.796687 C249.298654,265.184392 249.180395,264.780251 248.988223,264.629204 C248.713507,264.413074 248.714063,264.376362 248.992392,264.067738 C249.12883,263.916417 249.246494,263.701999 249.283676,263.547206 L249.295834,263.462466 C249.298883,263.311223 249.454114,263.048801 249.640589,262.879411 C250.148856,262.417526 250.499283,259.158872 250.088332,258.716392 C249.847322,258.456888 249.883176,258.275351 250.168086,258.25099 L250.251943,258.248302 C250.787561,258.256158 251.025649,257.807907 250.911886,257.006401 C250.811023,256.296673 250.427699,255.858857 249.770853,255.70227 L249.614422,255.671131 C249.307635,255.621323 249.222477,255.542989 249.2269,255.189953 L249.237403,254.968665 C249.259846,254.651335 249.219811,253.880077 249.146964,253.179378 L249.05035,252.292766 C248.851309,250.283569 249.042012,249.953229 250.054572,249.856117 C250.458002,249.817323 250.906707,249.73915 251.12132,249.672706 L251.190281,249.648439 C251.39964,249.561922 251.62712,249.68877 252.024933,250.126979 L252.137766,250.254283 C252.962054,251.20391 253.343169,251.401338 254.381839,251.416575 C255.398032,251.431483 255.859642,251.041862 256.180139,249.856773 L256.227207,249.672995 C256.352978,249.155768 256.622046,248.585564 256.825474,248.405899 C257.437065,247.866161 260.463223,247.266978 261.814695,247.418392 C262.445643,247.489035 262.987041,247.630093 263.017376,247.731717 C263.1479,248.167895 264.334378,247.873719 267.32048,246.640589 L268.402188,246.188992 Z" id="venice" stroke="#000000" stroke-width="0.5" fill="#6E8D4E" fill-rule="nonzero"></path>
 </svg>