<svg>
        <path d="M305.404327,244.57091 C305.430125,244.788512 305.61042,244.928572 305.664158,245.122248 C305.739411,245.392804 305.553183,245.498123 305.570022,245.682807 C305.59636,245.977837 305.706861,245.902771 305.878458,246.114185 C306.04752,246.323213 306.090256,246.562166 306.185471,246.803907 C306.517139,247.641766 306.652351,248.368354 306.765142,249.273406 C306.826376,249.763526 306.768084,250.043719 306.619997,250.490826 C306.47388,250.935896 306.512332,251.346136 306.422684,251.77548 C306.371185,252.023302 306.205441,252.213512 306.187548,252.465316 C306.169229,252.722801 306.315158,252.894569 306.372943,253.126714 C306.518136,253.713978 306.55936,254.320093 306.697392,254.912752 C306.932749,254.875967 307.29261,254.923918 307.546932,254.937749 C307.704379,255.402308 308.091755,255.309692 308.472567,255.313166 C308.542417,255.844354 309.212807,256.161913 309.481875,256.64994 C309.467623,256.720734 309.466683,256.796542 309.471084,256.879185 L309.492346,257.149444 C309.524692,257.597376 309.992447,258.97924 309.351828,258.908082 C309.038044,258.873485 308.898892,258.664794 308.594922,258.646819 L308.453569,258.651856 C308.147161,258.689474 307.80355,258.58073 307.516392,258.62748 C306.999542,258.713466 307.034782,259.637507 306.724564,260.036262 C306.291044,260.595463 305.857858,261.093578 305.142035,261.204668 C304.332959,261.329016 303.566512,261.622044 302.76655,261.807905 C302.341123,262.482349 302.196011,263.507662 302.69876,263.901439 L303.101048,264.221423 C303.351374,264.413206 303.573414,264.546071 303.81185,264.524981 C303.963771,265.072215 304.540123,265.074038 304.546899,265.685736 L304.56646,266.020346 C304.59127,266.255417 304.550896,266.427986 304.51188,266.617052 C305.078054,270.433313 303.178482,267.874289 302.30379,266.964316 C301.9147,267.078397 301.784697,266.944082 301.789594,266.712879 L301.799462,266.609632 L301.733278,266.678665 C300.883833,267.486246 300.99209,265.093443 300.638512,265.496834 C300.32706,265.294485 300.238866,264.674703 299.861807,264.700052 C299.454526,264.727076 299.253649,264.368098 298.989763,264.117553 C298.835373,263.969801 298.7273,264.019117 298.541717,263.970937 C298.332338,263.914877 298.096401,263.844725 297.894264,263.772896 C297.539283,263.644371 297.304662,263.519319 297.030362,263.271398 C296.772951,263.038984 296.340673,262.869488 295.982365,262.812332 L295.380256,262.745008 C295.255041,262.725692 295.209632,262.753101 295.088643,262.686202 C295.007439,262.64255 294.95303,262.565654 294.856458,262.557243 C294.761054,262.275593 294.41873,262.0709 294.14002,261.958509 L294.039093,261.920719 C293.849757,261.85476 293.691166,261.793134 293.510586,261.714602 C293.282839,261.614613 293.290041,261.551098 293.232199,261.318504 C293.126757,260.896665 293.345259,260.704894 293.086956,260.465695 C292.716149,260.122318 292.350478,260.010606 292.011407,260.050509 L291.928361,260.065168 C291.847137,260.097032 291.759255,260.124076 291.67013,260.144675 L291.576959,260.186531 L291.572202,260.164134 C291.461815,260.183768 291.351583,260.191673 291.254063,260.186523 L290.856326,260.269666 C289.960121,260.442692 289.947879,260.285783 289.949332,259.166728 C289.949332,258.897668 289.151283,259.218529 288.658401,259.397768 C288.108926,259.599054 288.084984,259.370409 287.521163,259.306943 L286.757389,259.220959 C285.720507,259.112348 284.381868,259.022687 283.591801,259.302365 C283.404779,259.368357 283.22406,259.458349 283.052463,259.578995 L283.04115,259.685589 C282.805482,259.767243 282.548823,260.068183 282.338112,260.225621 L282.217619,260.312986 C282.214002,260.312046 282.217613,260.301163 282.140493,260.340686 L282.036618,260.398963 L281.857462,260.520632 L281.822709,260.469436 L281.730033,260.293068 C281.680265,260.202156 281.617836,260.112082 281.508918,260.045025 C281.735439,259.816199 280.831891,259.069109 280.074583,259.395807 C279.735534,259.470087 279.522698,259.057264 279.041496,258.920041 C278.617,258.798986 278.103951,259.098406 277.740011,258.955305 C277.327891,258.793256 277.153401,259.124997 277.107804,258.983793 C276.593619,258.531896 276.740708,258.355232 276.467504,258.1417 C275.833677,258.323164 274.843921,258.37954 273.952638,258.334866 L273.825923,258.332809 L273.706515,258.320959 C273.566212,258.309561 273.429085,258.296717 273.297585,258.281381 L273.242462,258.319632 L273.189125,258.310183 C272.922223,258.272213 272.696373,258.235068 272.427828,258.247534 C272.262144,258.255375 272.106097,258.213502 271.946397,258.186744 L271.645912,258.1497 C271.300869,258.097738 270.530996,257.957867 270.500749,258.046215 L270.093117,258.088608 C269.894708,258.140229 269.750267,258.139264 269.587147,258.066251 C269.52149,258.180422 269.431695,258.261954 269.37852,258.377523 C269.317989,258.511559 269.345888,258.573014 269.219398,258.670992 C268.977951,258.858782 268.592292,258.868738 268.312131,258.76279 C268.094447,258.68094 267.979891,258.310681 267.696289,258.37006 C267.494733,258.412379 267.456444,258.758826 267.401054,258.93661 C267.216559,259.528534 267.963444,259.800202 267.865728,260.395444 C267.743888,261.126112 267.052809,260.605191 266.581965,260.637545 C266.36482,260.653174 265.891515,260.709259 265.788436,260.908673 C265.697619,261.082248 265.923076,261.703583 265.472226,261.501226 C265.379954,261.321749 265.17879,261.09549 264.977161,261.04973 C264.577858,260.959313 264.560529,261.328869 264.289311,261.492831 C264.19327,261.550804 264.039575,261.490869 263.955926,261.549537 C263.82449,261.640011 263.915275,261.767188 263.906439,261.892174 C263.891496,262.082343 263.8317,262.315411 263.631289,262.385302 L263.621635,262.46533 C263.459847,262.56742 263.128008,262.589245 263.239752,262.865458 C263.329319,263.086714 263.599801,262.938619 263.797025,263.036049 C264.029725,263.152779 264.036084,263.379757 264.150477,263.582654 C264.272937,263.800322 264.334139,263.925275 264.527823,264.083294 C264.691433,264.216839 264.937842,264.346755 265.052635,264.514689 C265.188134,264.712738 265.124676,264.926883 265.077256,265.136809 C265.027033,265.362169 264.872071,265.467022 264.791431,265.674267 C264.714992,265.870183 264.753019,266.163782 264.739302,266.402229 C264.370392,266.599812 264.008136,266.548779 263.598787,266.597237 C263.191033,266.645948 262.89324,266.839534 262.513392,266.980787 L262.388267,267.026741 C262.290953,267.065473 262.183016,267.120327 262.167501,267.190861 C262.163172,267.212481 262.180082,267.26249 262.203536,267.318687 L262.303662,267.53842 C262.436381,267.865223 262.692101,268.049188 262.508054,268.449578 C262.33788,268.81897 261.911341,268.679858 261.705747,268.379131 C261.611896,268.241515 261.637286,268.154826 261.480011,268.058343 C261.400793,268.009044 261.212308,267.911662 261.116095,267.937223 C260.872237,268.001401 260.731458,268.411575 260.55964,268.535842 C260.378774,268.66664 259.856937,268.624379 259.647812,268.623251 C259.502733,268.622433 259.310471,268.61488 259.190831,268.721262 C259.037733,268.855853 259.134575,268.890144 259.175545,269.056322 L259.251924,269.368239 C259.265763,269.418905 259.281504,269.470213 259.301169,269.524117 C259.357605,269.681417 259.306074,269.761183 259.321351,269.918572 C258.853687,269.85097 258.69848,269.289717 258.197005,269.282123 C257.926417,269.277954 257.687243,269.342016 257.594153,269.622872 C257.513095,269.868692 257.679918,269.973692 257.789872,270.178706 C257.907755,270.399193 258.01179,270.652698 258.042256,270.901044 C258.080692,271.214417 257.938188,271.428128 257.778877,271.68536 C257.671253,271.858747 257.513831,271.974488 257.481134,272.178553 C257.445951,272.400717 257.485711,272.620665 257.437466,272.847807 C256.992387,272.966204 256.634161,272.889668 256.21045,272.760798 L256.042452,272.706626 C255.902279,272.664145 255.76223,272.642241 255.626553,272.745308 C255.422079,272.898823 255.342951,273.143948 255.092054,273.271174 C254.993537,273.104629 254.985052,272.922292 254.935057,272.728158 C254.732373,272.728158 254.526109,272.787161 254.32309,272.788436 C254.286191,272.701052 254.432766,272.546082 254.47161,272.455935 C254.530548,272.316234 254.541738,272.168433 254.568469,272.012409 L254.63227,271.689382 C254.655018,271.549994 254.658801,271.410613 254.597676,271.24897 C254.547101,271.113929 254.405553,271.001548 254.341033,270.867774 C254.27424,270.729995 254.258275,270.590703 254.23524,270.441243 C254.17994,270.096153 254.096864,269.845706 253.703668,269.941975 C252.897297,270.141226 252.216501,270.39558 252.076155,271.307384 C252.042861,271.523008 252.067319,271.824578 251.881629,271.979842 C251.701065,272.129523 251.463207,272.051041 251.302245,271.915371 C251.134809,271.774403 250.632313,271.231232 250.772847,270.985093 C250.489605,270.766436 249.925973,270.615095 249.993101,270.137155 C250.011163,270.01004 250.121092,269.880011 250.198183,269.755916 L250.351771,269.46143 C250.404533,269.360557 250.450842,269.258011 250.45609,269.14315 C250.481336,268.588575 249.976911,267.482966 250.586099,267.143901 L250.698223,267.094714 C251.120659,266.952283 251.024627,266.670995 250.979251,266.284583 C250.932886,265.891984 250.806706,265.521807 250.740559,265.133891 L249,265.5 C248.898595,264.907777 248.666198,264.451987 249,264 C249.415651,263.437365 252.43591,262.324003 252.032381,261.40373 L251.953188,261.394763 L249.5,261 C249.392507,260.734749 250.221787,261.639022 250,261.5 L251.086301,260.684233 C251.020725,260.643512 250.952181,260.607324 250.867368,260.579891 C250.688651,260.522082 250.584322,260.561703 250.399433,260.564809 C250.072914,260.572234 250.02286,260.388646 250.018391,260.140689 L250.019332,259.985204 C250.021621,259.837599 250.014264,259.688466 250.014755,259.543093 C250.016798,259.382678 249.898466,259.173275 249.987084,259.031057 C249.868989,258.745044 249.372477,258.885529 249.251308,258.534332 C249.162094,258.27307 249.307849,257.870152 249.397191,257.576268 L249.431177,257.457725 C249.519673,257.121112 249.648428,256.81176 249.715768,256.470537 C249.776651,256.158708 249.791112,255.450243 250.167837,255.330995 C250.345997,254.979316 250.283578,254.621809 249.952752,254.38736 C249.557913,254.108965 249.668112,253.903722 249.683594,253.455324 C249.698798,253.015518 249.386185,252.756316 249.016719,253.069755 C248.812548,253.242161 248.590629,253.48342 248.506834,253.737905 C248.412248,254.024809 248.450782,254.490455 248.275597,254.731387 C247.977035,255.143131 247.907684,254.42806 247.677166,254.374812 C247.339801,254.296837 247.1967,254.879629 247.126033,255.104343 C247.016341,255.450545 246.872292,255.595068 246.516011,255.673052 L245.862027,255.917613 C245.500196,255.837243 245.374621,254.948392 245.218842,254.679847 C245.066578,254.416989 244.879836,254.190238 244.683701,253.969264 L244.286341,253.526033 C243.900616,253.081166 243.663125,252.865223 243.114886,252.647785 C242.932883,252.575973 242.739665,252.434564 242.540104,252.411087 C242.276782,252.378537 242.011744,252.492627 241.744597,252.476319 C241.792891,252.291749 241.807343,252.090373 241.858082,251.892888 L241.77024,251.158452 C241.753147,251.019079 241.765826,250.795853 241.707134,250.669469 C241.653943,250.553221 241.527853,250.455619 241.441196,250.354747 C241.041861,249.890147 240.399673,249.948496 239.857687,249.82221 C239.803016,249.662891 239.829174,249.431025 239.950858,249.301191 C240.068431,249.177946 240.252649,249.162087 240.382932,249.016559 C240.523719,248.860044 240.504526,248.760128 240.534787,248.568978 C240.563872,248.384736 240.762828,248.279213 240.768926,248.108155 C241.006098,248.036907 241.400054,248.132932 241.357237,247.76018 L240.50621,247.102787 L240.295961,247.088948 C240.261144,247.08447 240.22609,247.076787 240.190278,247.062725 C240.055008,247.010629 239.831144,246.765308 239.784665,246.618046 C239.691297,246.318406 240.120616,246.294079 240.210828,246.044433 C240.253204,245.92839 240.213035,245.816401 240.380749,245.786131 C240.490343,245.765687 240.611373,245.853104 240.650602,245.950338 C240.847515,245.84461 240.990681,245.519523 241.223823,245.543163 C241.337234,245.55379 241.40097,245.652071 241.501499,245.692673 C241.604112,245.733913 241.700831,245.719787 241.804213,245.712496 C242.404147,245.667218 241.936932,245.198335 242.120414,244.864477 C242.210578,244.700221 242.421183,244.707929 242.554106,244.806496 C242.747455,244.950815 242.603292,245.191084 242.882079,245.238406 C242.977646,245.255057 243.05097,245.20888 243.150967,245.236035 C243.252853,245.26588 243.288812,245.320035 243.371357,245.370954 L243.635115,245.520278 C243.738864,245.584698 243.824334,245.660232 243.890275,245.801719 L244.158469,246.231504 C244.222221,246.322575 244.28451,246.416302 244.35642,246.502763 L244.434968,246.594016 C244.485503,246.649944 244.545171,246.70955 244.579057,246.71985 C244.68073,246.751526 244.81945,246.652943 244.946561,246.653106 C245.218613,246.653106 245.353311,246.891741 245.421371,247.145605 C245.464302,247.305913 245.42227,247.399599 245.388354,247.544123 L245.371305,247.652037 L245.36621,247.856147 C245.352035,248.121905 245.386866,248.360253 245.709975,248.188796 L245.831714,248.122685 C245.980058,248.04462 246.14745,247.980688 246.301768,248.113657 C246.500071,248.283708 246.304956,248.608191 246.162052,248.738597 C246.060223,248.831523 245.958738,248.806812 245.930856,248.977166 C245.910812,249.10015 245.982256,249.244796 246.061025,249.330643 C246.109052,249.382866 246.166318,249.42935 246.229447,249.467971 L246.326234,249.519259 C246.430466,249.566384 246.545063,249.592191 246.655229,249.592853 C246.938856,249.592035 247.332109,249.474373 247.470828,249.209768 C247.532823,249.09312 247.467313,248.995281 247.482403,248.87358 C247.489515,248.812787 247.551698,248.77091 247.558294,248.689673 C247.56418,248.621139 247.532496,248.550463 247.519474,248.486286 C247.470828,248.224632 247.593338,247.87167 247.886676,248.178079 C247.970488,248.264875 247.976128,248.329068 248.091264,248.399409 C248.301142,248.527052 248.480169,248.461591 248.623785,248.275223 L248.925018,247.873509 C248.976817,247.808736 249.030643,247.746708 249.088343,247.689913 C249.341537,247.440978 249.763033,246.814771 249.262319,246.556134 C249.106065,246.475297 248.929719,246.475093 248.821662,246.312872 C248.683065,246.104163 248.829428,245.462392 248.986719,245.270523 C249.138379,245.084074 249.35482,245.130259 249.357845,245.393916 C249.359643,245.623477 249.207812,245.785166 249.379417,246.007624 C249.507967,246.172738 249.717975,246.192005 249.896275,246.102308 L250.318602,245.879355 C250.65363,245.707803 251.005494,245.566783 251.385027,245.639711 C251.633733,245.688022 251.822153,245.943561 252.086913,245.916684 C252.289351,245.896101 252.434087,245.551003 252.642248,245.72121 C252.81579,245.86458 252.774869,246.151199 253.051065,245.921973 C253.18658,245.810041 253.273041,245.504311 253.433005,245.425649 C253.784627,245.254967 253.58191,245.796872 253.598046,245.92848 C253.62775,246.177141 253.755686,246.253727 253.960421,246.273039 L254.040755,246.27782 C254.267749,246.284196 254.379207,246.311728 254.564373,246.455025 C254.721747,246.576046 254.856975,246.700689 255.007744,246.833564 L255.16487,246.983147 C255.19259,247.007061 255.220755,247.028109 255.24888,247.042755 C255.361474,247.101463 255.524431,247.063657 255.573951,247.204689 C255.928221,247.254455 256.137526,247.35558 256.481185,247.185651 C256.727635,247.064155 256.884894,246.835787 257.167016,246.773441 C257.742411,246.644899 258.291567,246.918986 258.85654,246.705439 C259.013692,246.645823 259.029894,246.529845 259.084392,246.395866 C259.134387,246.270782 259.24318,246.218229 259.300163,246.11909 C259.41454,245.922349 259.446992,245.639695 259.694112,245.530959 C259.777256,245.493717 259.881349,245.482937 259.980292,245.465849 L260.121583,245.431387 C260.211109,245.398771 260.377065,245.385373 260.462504,245.341322 C260.658673,245.23861 260.770319,244.948485 260.937232,244.80612 C261.075619,244.688135 261.363674,244.703387 261.590006,244.700068 L261.697049,244.696158 C261.971251,244.676907 262.234834,244.724286 262.522335,244.693052 L263.08103,244.477575 C263.562076,244.272978 264.013736,244.728226 264.532744,244.395292 C264.839692,244.19788 265.070537,243.803237 265.25406,243.511722 C265.464681,243.176556 265.621687,242.708981 265.921507,242.433373 L266.114462,242.255372 C266.3524,242.041374 266.633361,241.828332 266.937845,241.858926 C267.069207,242.428297 266.777676,242.818902 267.476946,242.890281 C267.95679,242.938599 268.484071,242.428706 268.948155,242.571095 C269.260482,242.667463 269.139591,242.763635 269.240349,243.036014 L269.311175,243.231406 C269.357444,243.343899 269.387144,243.320699 269.623744,243.381594 C269.777905,243.421689 269.879856,243.411872 269.985591,243.391003 L270.259033,243.373518 L270.252738,243.371392 L269.986973,243.390054 L270.151936,243.35667 C270.181941,243.351174 270.213768,243.346139 270.248267,243.342202 L270.290831,243.284262 C270.562302,242.87967 271.115169,241.57682 271.653174,242.013586 C271.806935,242.137975 271.821861,242.330785 272.022248,242.412063 C272.206965,242.487823 272.374629,242.433676 272.490313,242.634381 C272.696431,242.995877 272.340967,243.580411 272.650082,243.873161 C272.787035,244.002774 273.032954,244.013809 273.206725,244.062308 C273.454981,244.130719 273.696076,244.219166 273.927322,244.33315 C274.122779,244.596823 274.354196,245.10254 274.736431,245.095714 C275.11891,245.089093 275.304403,244.603804 275.424763,244.308104 C275.561993,243.972712 275.56656,243.724845 275.463805,243.412884 L275.41327,243.27482 C275.283685,242.952627 275.237928,242.652527 275.224047,242.322622 L275.213564,241.91322 C275.198506,241.632588 275.137337,241.238439 274.864809,241.266005 C274.547913,241.298384 274.591589,241.940916 274.198,241.878864 C273.814049,241.818774 273.900861,241.220368 273.869243,240.955264 C273.848144,240.783267 273.779422,240.604272 273.785414,240.430526 C273.790646,240.260025 273.881815,240.167507 273.948869,240.020956 C274.134796,239.612229 273.82945,239.269902 273.66427,238.910139 L273.522949,238.601608 C273.382598,238.302701 273.231918,238.034014 272.951766,237.807708 L272.713114,237.666251 C272.589845,237.622591 272.47103,237.617131 272.349869,237.574338 L272.300439,237.377433 C272.278932,237.313387 272.236294,237.308711 272.24997,237.228643 C272.254466,237.201504 272.268084,237.179335 272.286354,237.16042 L272.242474,237.121313 C272.266286,237.118371 272.27267,237.104768 272.261929,237.082877 C272.158041,236.951008 272.026499,236.814422 271.893379,236.706864 L271.764086,236.611136 C271.678032,236.546426 271.601768,236.472335 271.592357,236.343283 C271.577226,236.123245 271.757193,236.151161 271.825965,235.998537 C271.862676,235.916531 271.857297,235.546166 271.834809,235.459493 C271.951196,235.430556 272.101507,235.448368 272.210929,235.393706 C272.325649,235.336591 272.324259,235.213992 272.393749,235.134717 C272.499828,235.014463 272.861586,234.880837 272.915569,235.112997 L272.99509,235.122839 C273.006019,235.148074 273.014962,235.173561 273.022033,235.200177 C273.238049,235.237403 273.369526,235.172826 273.419275,234.958117 L273.463839,234.754977 C273.48596,234.673289 273.517659,234.631586 273.628794,234.570069 L273.705567,234.530302 C273.879281,234.445223 274.050559,234.332956 274.097569,234.141553 C274.162131,233.872534 273.970719,233.592586 274.285638,233.480253 C274.480016,233.412234 274.817692,233.509093 274.981433,233.366433 C275.072218,233.287477 275.045218,233.123866 275.123823,233.024106 C275.186283,232.945918 275.246807,232.92858 275.33388,232.883196 L275.457382,232.815146 C275.498149,232.795892 275.540578,232.784262 275.590858,232.792845 C275.782891,232.824234 275.712837,232.968226 275.796387,233.0857 C275.970076,233.332452 276.158872,233.204294 276.358515,233.12076 C276.348967,233.035649 276.372191,232.850997 276.423305,232.789755 C276.514245,232.681044 276.633403,232.727687 276.75145,232.675796 C276.883809,232.616515 276.917831,232.521782 277.0133,232.42445 C277.099384,232.336387 277.188232,232.316466 277.288597,232.25909 C277.362305,232.216019 277.474049,232.136523 277.530706,232.054771 C277.587935,231.972275 277.572322,231.823035 277.637373,231.742281 C277.772839,231.573365 278.03303,231.509196 278.21021,231.521687 C278.243365,231.3633 278.097951,231.219406 278.064657,231.08112 C278.009733,230.848616 278.054749,230.737665 278.135733,230.542313 C278.186463,230.423221 278.241076,230.193496 278.185907,230.053837 C278.125997,229.899218 277.90067,229.842635 277.949578,229.653929 C278.375308,229.571245 277.673243,228.991755 277.648074,228.872294 C277.554877,228.439035 278.247926,228.508935 278.514379,228.439272 C278.501733,228.177471 278.795038,227.817741 279.079131,227.893689 C279.320561,227.959338 279.276322,228.14049 279.347422,228.31333 C279.40336,228.451992 279.549452,228.546692 279.682106,228.601142 L280.155935,229.03091 C280.238202,229.232801 280.472978,229.025351 280.533338,228.935466 C280.639638,228.776883 280.608297,228.656376 280.621956,228.475828 C280.634087,228.319354 280.655602,228.15361 280.676447,227.996965 L280.680779,227.747719 C280.692747,227.646455 280.73782,227.592488 280.756065,227.493153 C280.86955,227.449706 280.972728,227.464518 281.080752,227.502398 C281.123275,227.697668 281.305278,228.154485 281.545744,227.889324 C281.631003,227.796406 281.608736,227.671403 281.628076,227.559095 C281.65542,227.400749 281.726733,227.279801 281.776744,227.125657 C281.855095,226.883327 281.946542,226.634654 281.962523,226.374529 C281.981741,226.069616 281.827638,225.800188 281.816144,225.50761 C282.089651,225.56842 282.342109,225.685657 282.619311,225.74376 C282.669236,225.872602 282.853073,225.955599 282.988219,226.042148 L283.181367,226.184657 L283.436748,226.381778 C283.459847,226.399559 283.481286,226.41685 283.498638,226.433041 C283.674926,226.597027 283.774842,226.847883 283.918646,227.035223 C283.970864,227.103381 284.085485,227.164101 284.088272,227.274365 C284.089744,227.340872 283.990147,227.435777 283.975866,227.518174 C284.370101,227.815346 285.025638,227.935125 285.492493,227.950567 C285.751973,227.959035 286.023984,227.912793 286.285899,227.910144 C286.600278,227.906466 286.917649,227.908918 287.228553,227.867842 L287.853436,227.39846 C287.952706,227.410599 288.057747,227.360311 288.164447,227.358243 C288.272341,227.354891 288.428831,227.423106 288.52255,227.351703 C288.682932,227.230861 288.547662,226.987272 288.761128,226.890553 C288.84521,226.853646 288.981052,226.855665 289.066695,226.822395 C289.151381,226.788569 289.205504,226.720877 289.330662,226.723305 C289.471245,226.725676 289.824403,226.837493 289.860395,226.995954 C290.010183,226.97846 290.076926,227.092142 290.204316,227.112766 C290.348398,227.134501 290.535322,227.060417 290.681422,227.058471 C290.737188,227.235896 290.747872,227.576556 290.874665,227.681736 C290.930193,227.727635 291.001507,227.754471 291.080496,227.769104 C291.239243,227.800975 291.425447,227.784872 291.556687,227.789482 C291.743659,227.796022 291.960608,227.798907 292.093728,227.948368 L292.092207,227.94482 C291.958866,227.795384 291.74236,227.792458 291.555387,227.78591 L291.327512,227.786057 C291.244656,227.785532 291.158361,227.781602 291.079,227.765777 L291.082433,227.746428 C291.077774,227.604627 291.122431,227.507008 291.128398,227.365926 C291.132076,227.261172 291.08724,227.19639 291.078591,227.102163 C291.052981,226.855019 291.147845,226.546681 291.147436,226.304335 L291.140059,225.853333 C291.143175,225.485889 291.197661,225.091985 291.518905,224.936351 C291.537918,224.74839 291.740978,224.625234 291.815455,224.469888 C291.893627,224.31003 291.883597,224.142529 291.868,223.958817 L291.810082,223.330139 C291.793349,223.118911 291.782574,222.90746 291.787907,222.700117 C291.925057,222.67021 292.06632,222.650312 292.207728,222.6335 L292.646025,222.585768 C292.75948,222.56524 292.806747,222.516428 292.841798,222.324259 C292.921286,221.890526 292.749436,221.459948 292.743959,221.028537 C292.742243,220.908905 292.748046,220.616687 292.8327,220.542537 C292.951654,220.439621 293.38779,220.39279 293.509572,220.486011 L293.701678,220.632275 C293.851117,220.737801 293.994866,220.801865 294.092725,220.668741 C294.195837,220.528477 294.357542,220.903183 294.537681,220.925221 L294.575635,221.026665 C294.709139,221.025847 294.649147,221.39403 294.740193,221.45224 C294.828926,221.508022 294.81512,221.566722 294.908684,221.603441 C295.072204,221.666948 295.466455,221.433847 295.601341,221.391602 L295.719592,221.357147 C295.784157,221.337161 295.859256,221.309556 295.955578,221.25867 L296.017433,220.768861 C296.677891,220.66794 297.495861,221.076071 298.414621,220.460147 C298.933213,220.112499 299.074474,221.779975 299.666283,221.976741 C300.266766,222.174921 300.892401,222.20421 301.511308,222.311817 C301.843538,222.369427 302.166633,222.460273 302.488108,222.558907 L303.965682,223.020079 C304.877224,223.297605 305.808223,223.501164 306.712875,223.077071 L307.04401,222.787924 C307.447482,222.446234 307.859385,222.175532 308.422812,222.284263 L308.580338,222.323556 C309.12722,222.490037 309.670748,222.356061 310.21709,222.169695 L310.581804,222.040411 C311.14188,221.838054 311.675954,221.547651 312.145548,222.076158 C312.324379,222.27903 312.66691,223.148891 313.015172,223.218995 L312.986586,223.359929 C313.057883,223.75149 312.576395,223.864902 312.725439,224.237229 C312.770643,224.348597 312.95536,224.466267 312.957322,224.591728 C312.959365,224.686771 312.83361,224.745234 312.809177,224.839698 C312.753869,225.054651 312.892351,225.096439 312.963444,225.254646 C313.090777,225.537496 312.958621,225.563638 312.892343,225.827916 C312.839463,226.04076 312.90449,226.202409 312.775621,226.417828 C312.61649,226.683823 312.280082,226.869079 312.157989,227.178054 C312.038864,227.478332 312.240747,227.736046 312.319793,228.010191 C312.421392,228.369643 312.64461,228.378054 312.873371,228.645079 L313.205987,229.02589 C313.483365,229.350749 313.698354,229.665133 313.741842,230.176207 L313.75383,230.353589 C313.761328,230.442153 313.776619,230.531837 313.824616,230.628537 C313.886692,230.753376 314.013967,230.849711 314.056499,230.984842 C314.107147,231.140597 314.120251,231.369668 314.150937,231.524948 C314.185809,231.696153 314.127861,231.869523 314.172125,232.040711 L314.004934,232.079317 C313.94605,232.090207 313.886823,232.09624 313.835676,232.088777 C313.712798,232.072101 313.711466,231.911638 313.536967,232.00673 C313.474817,232.300918 313.853014,232.397981 313.793864,232.678281 C313.537907,232.745973 313.276311,232.718401 313.0497,232.875757 C312.902046,232.978142 312.824864,233.175275 312.648714,233.231368 C312.669649,233.434926 312.561918,233.57273 312.422112,233.700733 C312.283621,233.826774 312.143913,234.05591 311.995589,234.165586 C311.742738,234.351627 310.934561,234.132986 310.905886,234.574223 C310.898529,234.696774 311.000398,234.750046 310.977125,234.877706 C310.972715,234.904718 310.943952,234.956178 310.912521,235.007092 L310.831916,235.133204 C310.734493,235.287545 310.519744,235.528828 310.326387,235.534093 C310.15618,235.538343 309.895114,235.358163 309.72046,235.331629 C309.490638,235.294967 309.280123,235.304368 309.083741,235.436384 C309.103123,235.61085 309.043866,235.740676 309.069747,235.917046 C309.09427,236.085921 309.232376,236.250537 309.183166,236.444008 C309.108338,236.740649 308.724649,236.910766 308.529779,237.126177 C308.097828,237.605213 307.717262,238.309747 307.891392,238.966902 C308.124223,239.03721 308.555553,238.936264 308.71524,239.132695 C308.94561,239.414621 308.55848,239.675262 308.392131,239.845951 C308.029989,240.217289 308.346322,240.512311 308.553101,240.888365 C308.731417,241.212946 308.807218,241.48073 308.744324,241.869169 C308.632082,241.891738 308.552095,241.994826 308.471798,242.062575 C308.275237,242.225932 308.165104,242.234728 307.953918,242.32261 C307.858147,242.362747 307.757112,242.467518 307.658316,242.523128 C307.527763,242.595251 307.380289,242.593313 307.255458,242.650084 C307.139921,242.702343 307.141834,242.883913 306.954796,242.829381 L306.939501,242.823161 C306.082907,242.952104 305.285954,243.580256 305.404327,244.57091 Z" id="vienna" stroke="#000000" stroke-width="0.5" fill="#EBE084" fill-rule="nonzero"></path>
</svg>