<svg>
<path
   id="afghanistan"
   d="m 691.616,139.10526 c 0.038,-0.316 0.066,-0.637 0.083,-0.964 0.041,-0.811 0.146,-1.91 -0.527,-2.442 -0.408,-0.322 -1.123,0.063 -1.444,-0.201 -0.526,-0.433 -0.141,-0.537 -0.498,-1.065 -0.323,-0.48 -0.347,-0.86 -0.586,-1.177 m 0,0 c 0.129,-1.463 -0.607,-1.473 0.856,-2.962 0.619,-0.63 1.632,-2.31 2.481,-2.572 1.703,-0.526 2.452,1.488 4.429,0.198 0.762,-0.497 1.006,-1.634 1.6,-1.995 0.884,-0.538 1.352,0.172 2.412,0.181 1.869,0.016 2.221,-2.085 4.061,-2.639 0.962,-0.289 1.788,-0.14 1.751,-1.032 -0.004,-0.092 -0.04,-0.192 -0.089,-0.293 -0.253,-0.527 -1.024,-1.13 -1.429,-1.338 -2.853,-1.467 -6.385,-1.771 -9.509,-0.918 -1.916,0.522 -2.386,-0.324 -4.005,-0.944 -0.543,-0.208 -1.855,-0.539 -2.466,-0.243 -0.923,0.448 -0.61,0.999 -0.687,2.112 -1.843,-0.145 -4.244,-1.956 -6.208,-1.1 0.015,1.023 0.085,2.458 -1.917,2.5695 -1.024,0.3895 -0.943,1.2195 -1.313,1.4355 -0.383,0.223 -0.888,-0.092 -1.252,0.084 -0.652,0.316 -1.076,0.389 -1.472,1.073 0.68588,3.57915 -6.93443,0.81433 -6.787,-0.222 -2.26,0.417 -1.418,-5.473 -2.898,-6.662 -0.938,-0.753 -2.343,-0.3 -3.381,-0.574 -1.146,-0.304 -1.785,-0.602 -3.253,-0.365 -1.332,0.214 -2.282,0.779 -3.507,0.037 -0.982,-0.595 -1.364,-1.694 -2.098,-2.51 -1.154,-1.286 -1.293,-1.004 -2.63,-0.125 -0.136,0.089 -0.249,0.165 -0.36,0.239 -1.005,0.667 -1.118,0.713 -2.399,0.338 -0.241,-0.07 -0.401,-0.524 -0.709,-0.629 -0.065,-0.022 -0.214,0.044 -0.378,0.104 -0.15,0.055 -0.314,0.104 -0.441,0.07 -0.671,-0.182 -1.04,0.082 -1.608,-0.541 -0.868,-0.948 -0.109,-2.461 0.104,-3.552 -1.437,-0.072 -3.393,-0.077 -4.688,0.46 -2.473,1.024 -1.943,4.648 -2.059,7.001 -0.114,2.332 -0.407,4.828 -0.479,7.257 l 0.393,-5e-4 -0.393,-5e-4 c -0.943,-0.007 -1.059,-0.101 -1.647,-1.003 -1.003,-1.535 -1.611,-2.526 -3.594,-2.501 -0.742,0.009 -3.22,0.498 -4.099,1.223 -0.119,0.098 -0.211,0.199 -0.263,0.305 -0.278,0.564 0.565,1.632 0.617,2.218 0.083,0.929 -0.167,1.79 -0.479,2.638 -0.283,0.771 -0.988,1.144 -0.031,1.748 0.542,0.343 1.875,0.25 2.491,0.369 -0.5,0.987 -1.036,1.465 -0.362,2.349 0.669,0.878 1.425,0.839 1.624,2.154 0.196,1.294 -1.207,4.261 0.196,4.986 -0.127,-0.132 -0.266,-0.258 -0.401,-0.371 1.359,0.108 5.551,-1.419 5.35,-3.222 0.835,-0.091 1.532,0.237 2.359,0.231 1.112,-0.007 1.215,0.146 2.241,0.471 1.75,0.553 3.885,0.527 5.499,1.558 1.157,0.739 1.85,2.045 3.141,2.471 1.178,0.389 1.001,-0.035 1.611,1.003 0.297,0.505 0.811,1.291 0.971,1.867 0.195,0.705 0.126,1.281 -0.0625,1.811 -0.3205,0.899 -0.9875,1.659 -1.3055,2.667 -0.098,0.31 -0.093,0.848 -0.224,1.152 -0.122,0.282 -0.617,0.695 -0.683,0.939 -0.188,0.71 0.144,1.393 0.495,2.057 0.605,1.144 0.74,0.547 -0.002,1.629 -0.604,0.881 -0.863,1.135 -0.467,2.263 0.237,0.673 0.513,1.634 0.777,2.245 0.526,1.212 0.787,0.613 1.762,1.107 2.001,1.014 -0.044,3.3 -0.51,4.518 -0.188,0.489 -0.271,1.084 -0.23,1.662 2.33,0.087 4.675,0.201 7.04,0.208 1.415,0.004 2.576,-0.522 3.949,-0.628 1.417,-0.109 1.966,-0.148 2.65,-1.458 0.539,-1.03 0.69,-2.234 1.545,-3.103 0.952,-0.968 1.57,-0.271 2.903,-0.332 -0.056,-0.561 -0.76,-1.001 -0.579,-1.582 0.04,-0.128 1.266,-0.99 1.419,-1.024 1.18,-0.26 2.075,1.258 3.408,0.978 0.575,-1.396 -0.145,-4.308 1.516,-4.984 0.96,-0.391 1.979,0.234 1.662,-1.372 -0.164,-0.828 -1.32,-1.358 -0.885,-2.225 0.917,0.091 2.23,0.575 3.085,0.209 -0.274,-2.142 0.856,-1.668 1.769,-3.167 0.651,-1.07 0.023,-2.239 0.24,-3.388 0.297,-1.569 1.285,-1.936 2.766,-2.295 1.217,-0.295 2.276,-0.55 3.62,-0.631 0.893,-0.054 2.325,-0.109 2.774,-0.931 0.144,-0.263 0.189,-0.603 0.081,-1.049 -0.125,0.018 -0.278,0.076 -0.438,0.14"
   fill="#dccfbe"
   stroke="#000000"
   stroke-width="0.5"/>
</svg>
