<svg>
<path
     fill="#DCCFBE"
     stroke="#000"
     stroke-width="0.5"
     d="M7.159,146.972l-0.527,0.176  c-1.735-0.309-3.478,1.313-4.379,2.639C3.984,151.018,9.118,147.693,7.159,146.972z M3.817,108.276l-0.704-0.527  c-0.572,0.168-4.024-0.818-2.46,1.581C1.412,110.492,3.998,109.827,3.817,108.276z M50.077,128.855  c-1.76-0.247-3.589,1.305-4.66,2.536c-1.129,1.296-1.197,2.303-1.118,4.122c2.266,0.461,2.533-1.68,3.888-2.781  c1.047-0.852,3.61-1.116,2.242-3.349L50.077,128.855z M81.897,118.249c0.012-0.055,0.031-0.108,0.044-0.163h-0.138V79.461h0.083  c-0.254-0.392-0.551-0.76-1.027-1.086c-2.146-1.472-5.169-1.612-7.646-1.759c-1.565-0.093-3.159,0.197-4.666-0.217  c-1.075-0.295-2.121-0.841-3.166-1.144c-2.403-0.696-4.71-1.081-7.224-1.102c-3.188-0.027-6.89,0.993-9.985,0.501  c-0.275-2.097-1.961-2.28-3.731-2.436c-1.021-0.089-2.183,0.088-3.154-0.206c-0.911-0.276-1.39-0.858-2.468-0.854  c-2.16,0.007-3.905,1.228-5.72,2.189c-2.075,1.098-4.185,0.602-6.334,1.157c-3.95,1.02-5.854,5.177-10.188,6.073  c-2.023,0.418-4.437,0.261-5.946,1.97c-1.652,1.87,0.462,2.482,2.154,3.255c1.941,0.886,2.883,2.345,4.39,3.729  c0.748,0.686,1.395,1.464,2.432,1.731c0.994,0.255,1.961-0.199,3.003-0.021c-0.117,0.529-0.036,1.165-0.123,1.702  c1.06,0.261,3.03,0.473,1.927,2.144c-0.962,1.458-2.581,0.235-3.616-0.194c-1.292-0.537-2.5,0.035-3.623-0.371  c-0.616-0.223-0.534-0.932-1.141-1.192c-0.771-0.33-1.556-0.121-2.34,0.003c-1.3,0.206-2.784,0.648-4.035,1.27  c-0.509,0.252-3.321,1.413-3.519,1.75c-0.61,1.041,1.133,1.912,1.992,2.246c0.66,0.257,1.308-0.336,1.802,0.36  c0.588,0.827-0.285,0.895-0.315,1.407c-0.036,0.613-0.605,0.322-0.254,1.229c0.09,0.234,1.039,0.781,1.266,0.922  c0.801,0.5,1.895,1.181,2.841,1.202c1.603,0.035,2.818-1.267,4.426-1.252c1.633,0.014,2.111,0.555,3.692-0.384  c1.425-0.846,1.765-1.669,2.632,0.042c0.281,0.554,0.731,2.851,0.559,3.473c-0.488,1.761-2.425,0.699-3.896,1.143  c-0.952,0.287-0.548,0.436-1.325,1.103c-0.808,0.693-0.723,0.628-1.713,1.003c-2.542,0.963-5.055,2.951-6.168,5.581  c-0.737,1.742,3.805,5.427,0.601,5.852c1.164,1.095,2.676,1.248,4.114,1.895c2.486,1.118,2.99,0.474,4.836-1.222  c2.534-2.328,1.476,0.84,1.225,2.446c-0.387,2.477,1.486,2.388,3.263,3.005c1.924,0.667,3.84,2.095,5.901,0.891  c0.712,1.82,5.789-1.585,4.019,1.927c-0.623,1.236-2.01,1.709-2.765,2.785c-0.89,1.268-0.755,2.083-2.396,2.969  c-1.109,0.599-2.687,0.86-3.529,1.892c-0.999,1.225-0.325,1.138-1.847,1.835c-1.486,0.68-3.242,0.955-4.669,1.663  c-1.071,0.531-1.718,1.385-2.899,1.819c-1.058,0.389-2.266,0.114-3.252,0.546c-0.529,0.231-2.483,2.071-2.35,2.656  c0.338,1.488,6.395-0.788,7.389-1.15c1.39-0.505,2.499-0.283,3.852-0.582c1.512-0.334,2.486-1.869,3.862-2.616  c2.127-1.154,4.082-2.577,6.163-3.78c2.425-1.402,4.21-2.94,6.345-4.542c1.759-1.32,3.132-4.032,5.582-4.591  c-0.002-1.858-1.334-2.779,0.16-4.418c1.125-1.235,2.88-2.544,4.353-3.393c1.429-0.823,2.811-1.696,4.22-2.526  c0.852-0.502,2.134-1.325,1.871,0.166c-0.146,0.826-1.944,1.662-2.521,2.19c-2.216,2.031-2.482,2.621-1.337,5.167  c3.147,0.634,7.01-3.65,9.969-4.392c0.162-0.886-0.158-1.712-0.124-2.586c2.928-0.535,4.14,0.347,6.175,2.216  c1.956,1.797,3.843,0.663,6.252,0.962c2.507,0.312,3.603,0.716,5.887-0.521c0.63-0.341,1.315-0.708,2.024-1.063  C81.809,119.553,81.724,119.027,81.897,118.249z M10.149,120.588H9.622c-1.375-0.138-4.479,1.187-2.638,2.423  c1.073,0.721,5.015,0.495,4.718-1.337C11.102,121.424,10.606,120.923,10.149,120.588z"
     id="alaska" />
</svg>
