<svg>
<path
     fill="#DCCFBE"
     stroke="#000"
     stroke-width="0.5"
     d="m 7.159,78.708266 -0.527,0.176 c -1.735,-0.309 -3.478,1.313 -4.379,2.638999 1.731,1.231 6.865,-2.093999 4.906,-2.814999 z m -3.342,-38.69599 -0.704,-0.527 c -0.572,0.168 -4.024,-0.817999 -2.46,1.581 0.759,1.162 3.345,0.497 3.164,-1.054 z m 46.26,20.578995 c -1.76,-0.247 -3.589,1.305 -4.66,2.535999 -1.129,1.296 -1.197,2.303 -1.118,4.121999 2.266,0.461 2.533,-1.679999 3.888,-2.780999 1.047,-0.852 3.61,-1.116 2.242,-3.348999 z m 31.82,-10.605997 c 0.012,-0.055 0.031,-0.108 0.044,-0.163 H 81.803 V 11.197278 h 0.083 c -0.254,-0.392 -0.551,-0.76 -1.027,-1.086 -2.146,-1.4720001 -5.169,-1.6120001 -7.646,-1.7590001 -1.565,-0.093 -3.159,0.197 -4.666,-0.217 -1.075,-0.295 -2.121,-0.841 -3.166,-1.144 -2.403,-0.696 -4.71,-1.0810004 -7.224,-1.1020004 -3.188,-0.027 -6.89,0.9930004 -9.985,0.5010004 -0.275,-2.0970005 -1.961,-2.2800005 -3.731,-2.4360005 -1.021,-0.089 -2.183,0.088 -3.154,-0.206 -0.911,-0.276 -1.39,-0.858 -2.468,-0.854 -2.16,0.007 -3.905,1.228 -5.72,2.189 -2.075,1.0980001 -4.185,0.6020001 -6.334,1.1570005 -3.95,1.02 -5.854,5.1770001 -10.188,6.0730001 -2.023,0.418 -4.437,0.261 -5.946,1.97 -1.652,1.87 0.462,2.482 2.154,3.255 1.941,0.886 2.883,2.345 4.39,3.729 0.748,0.686 1.395,1.464 2.432,1.731 0.994,0.255 1.961,-0.199 3.003,-0.021 -0.117,0.529 -0.036,1.165 -0.123,1.702 1.06,0.261 3.03,0.473 1.927,2.144 -0.962,1.458 -2.581,0.235 -3.616,-0.194 -1.292,-0.537 -2.5,0.035 -3.623,-0.371 -0.616,-0.223 -0.534,-0.932 -1.141,-1.192 -0.771,-0.33 -1.556,-0.121 -2.34,0.003 -1.3,0.206 -2.784,0.648 -4.035,1.27 -0.509,0.252 -3.321,1.413 -3.519,1.75 -0.61,1.041 1.133,1.912 1.992,2.246 0.66,0.257 1.308,-0.336 1.802,0.36 0.588,0.827 -0.285,0.895 -0.315,1.407 -0.036,0.613 -0.605,0.322 -0.254,1.229 0.09,0.234 1.039,0.781 1.266,0.922 0.801,0.5 1.895,1.181 2.841,1.202 1.603,0.035 2.818,-1.267 4.426,-1.252 1.633,0.014 2.111,0.555 3.692,-0.384 1.425,-0.846 1.765,-1.669 2.632,0.042 0.281,0.554 0.731,2.850999 0.559,3.472999 -0.488,1.761 -2.425,0.699 -3.896,1.143 -0.952,0.287 -0.548,0.436 -1.325,1.102999 -0.808,0.693 -0.723,0.628 -1.713,1.003 -2.542,0.963 -5.055,2.950999 -6.168,5.580999 -0.737,1.741999 3.805,5.426998 0.601,5.851998 1.164,1.095 2.676,1.248 4.114,1.895 2.486,1.117999 2.99,0.474 4.836,-1.222 2.534,-2.327999 1.476,0.84 1.225,2.445999 -0.387,2.477 1.486,2.388 3.263,3.005 1.924,0.666999 3.84,2.094999 5.901,0.890999 0.712,1.82 5.789,-1.584999 4.019,1.927 -0.623,1.235999 -2.01,1.708999 -2.765,2.784999 -0.89,1.268 -0.755,2.083 -2.396,2.968999 -1.109,0.599 -2.687,0.86 -3.529,1.892 -0.999,1.224999 -0.325,1.137999 -1.847,1.834999 -1.486,0.68 -3.242,0.955 -4.669,1.663 -1.071,0.531 -1.718,1.384999 -2.899,1.818999 -1.058,0.389 -2.266,0.114 -3.252,0.546 -0.529,0.231 -2.483,2.071 -2.35,2.656 0.338,1.487999 6.395,-0.788 7.389,-1.15 1.39,-0.505 2.499,-0.283 3.852,-0.582 1.512,-0.334 2.486,-1.869 3.862,-2.615999 2.127,-1.154 4.082,-2.577 6.163,-3.779999 2.425,-1.402 4.21,-2.94 6.345,-4.541999 1.759,-1.32 3.132,-4.031999 5.582,-4.590999 -0.002,-1.857999 -1.334,-2.778999 0.16,-4.417999 1.125,-1.234999 2.88,-2.543999 4.353,-3.392999 1.429,-0.823 2.811,-1.695999 4.22,-2.525999 0.852,-0.502 2.134,-1.325 1.871,0.166 -0.146,0.826 -1.944,1.661999 -2.521,2.189999 -2.216,2.031 -2.482,2.620999 -1.337,5.166999 3.147,0.634 7.01,-3.649999 9.969,-4.391999 0.162,-0.886 -0.158,-1.712 -0.124,-2.585999 2.928,-0.535 4.14,0.347 6.175,2.215999 1.956,1.797 3.843,0.663 6.252,0.962 2.507,0.312 3.603,0.716 5.887,-0.521 0.63,-0.341 1.315,-0.708 2.024,-1.063 -0.244,-0.375 -0.329,-0.901 -0.156,-1.678999 z M 10.149,52.324273 H 9.622 c -1.375,-0.138 -4.479,1.187 -2.638,2.422999 1.073,0.721 5.015,0.495 4.718,-1.336999 -0.6,-0.25 -1.096,-0.751 -1.553,-1.086 z"
     id="alaska" />
</svg>
