<svg>
<path
   id="argentina"
   d="m 323.446,343.65426 c 0.743,-0.45 1.492,-0.473 1.792,-1.298 0.406,-1.12 0.266,-2.027 0.755,-2.959 -0.214,-0.013 -0.433,-0.03 -0.651,-0.093 -0.039,-1.145 0.443,-2.334 0.616,-3.42 0.242,-1.519 0.034,-1.973 -1.508,-2.063 -1.423,-0.084 -1.629,-0.161 -1.994,-1.505 -0.252,-0.929 -0.248,-1.949 -0.508,-2.867 -0.299,-1.054 -0.804,-1.227 -1.748,-1.764 -0.374,0.25 -0.552,0.652 -0.52,1.118 -0.784,0.122 -2.107,-0.088 -2.757,-0.455 -1.009,-0.571 -0.533,-0.819 -0.599,-2.152 -0.082,-1.636 -0.56,-3.233 -0.875,-4.748 -0.034,-0.165 -0.034,-0.313 -0.039,-0.465 -1.239,-0.487 -34.365,-8.632 -35.336,-9.036 m 0,0 c 2.267,0.735 0.668,11.33 0.667,13.501 0,2.434 -0.995,4.684 -0.793,6.959 0.203,2.302 0.486,4.311 0.125,6.706 -0.355,2.36 -0.702,4.677 -1.158,7.008 -0.198,1.016 -0.648,2.051 -1.019,3.063 -0.468,1.275 -0.237,1.375 0.058,2.717 0.357,1.624 -0.244,1.279 -0.92,2.501 -0.591,1.068 -0.128,1.966 0.252,3.043 0.83,2.347 0.346,4.139 -0.045,6.497 -0.376,2.267 -0.725,5.008 -1.704,7.139 -1.075,2.34 -3.283,4.702 -3.154,7.52 -0.124,-0.138 -0.495,-0.329 -0.642,-0.507 -1.511,1.025 0.271,3.048 0.665,4.179 0.49,1.408 0.557,3.439 0.13,4.841 -0.493,1.619 -1.487,2.538 -1.467,4.331 0.021,1.848 0.749,2.451 2.309,3.198 0.041,0.195 0.045,0.412 0.058,0.609 1.716,0.696 0.4,2.433 -0.195,3.353 -0.411,0.635 -0.607,1.475 -1.167,2.01 -0.496,0.472 -1.045,0.454 -1.565,0.935 -1.413,1.308 -0.391,2.599 -0.93,4.147 -0.228,0.652 -1.015,0.895 -1.221,1.368 -0.339,0.777 0.27,1.521 0.061,2.224 -0.357,1.2 -2.426,2.33 -2.153,3.796 1.133,0.626 2.062,-0.965 2.95,-0.435 1.01,0.603 -0.052,2.118 -0.546,2.641 -1.59,1.684 -2.646,1.995 -2.389,4.627 0.086,0.877 -0.093,1.926 -0.05,2.772 0.06,1.182 1.015,1.699 1.18,2.743 0.185,1.168 -0.807,2.074 -0.389,3.223 0.385,1.058 1.197,1.19 1.382,2.372 0.186,1.188 -0.657,2.209 0.447,3.25 0.8,0.755 1.854,0.167 2.593,0.956 0.687,0.733 0.102,1.697 0.974,2.38 0.929,0.729 1.497,0.276 2.338,1.348 0.543,0.693 0.647,1.645 1.396,2.251 0.852,0.688 1.507,1.002 2.264,1.735 1.612,1.564 2.976,1.608 4.755,2.319 1.398,0.559 1.625,0.305 2.903,0.263 0.757,-0.025 1.898,0.786 2.672,0.509 0.685,-0.246 1.385,-1.539 1.995,-1.839 0.749,-0.367 2.349,-0.138 2.306,-1.562 -2.201,-0.41 -4.771,-3.667 -4.666,-5.833 -1.646,-0.606 -3.127,-0.894 -4.305,-2.195 -1.282,-1.416 -3.237,-3.085 -2.264,-5.158 1.26,-2.687 0.885,6.565 1.142,3.368 0.62,0.059 1.524,-0.38 2.194,-0.125 0.699,0.267 0.82,1.092 1.664,0.985 0.17,-0.762 -0.774,-1.807 -1.262,-2.355 -0.602,-0.678 -1.291,-0.913 -2.209,-0.904 1.272,-1.004 1.979,-1.627 0.223,-2.725 1.623,-1.046 1.805,-1.39 1.912,-3.356 0.696,-0.125 0.993,0.562 1.732,0.608 0.799,0.05 1.372,-0.405 1.841,-1.033 0.807,-1.079 0.662,-2.466 1.035,-3.719 0.458,-1.537 1.007,-1.643 2.219,-2.529 0.674,-0.493 1.794,-1.725 1.657,-2.659 -0.251,-1.715 -4.643,-1.616 -4.876,-4.373 -0.089,-1.062 1.065,-2.615 1.746,-3.346 0.935,-1.003 2.398,-0.679 3.347,-1.372 1.004,-0.733 0.566,-2.394 0.913,-3.464 0.177,-0.545 0.346,-1.181 0.675,-1.695 0.337,-0.527 1.087,-1.096 1.089,-1.665 0.466,-0.16 0.09,-2.091 0.014,-2.935 -0.111,-1.225 -1.171,-2.202 -0.91,-3.651 0.069,-0.386 0.193,-0.764 0.345,-1.139 0.443,-0.055 0.89,-0.247 1.378,-0.146 0.303,0.062 0.835,0.469 1.154,0.596 0.993,0.393 2.039,0.489 3.122,0.157 1.027,-0.315 2.122,-0.903 2.224,-2.06 0.082,-0.937 -0.593,-1.858 -0.592,-2.792 0.002,-1.119 0.462,-1.865 0.138,-3.034 1.196,-0.195 2.259,0.419 3.423,0.48 1.084,0.059 2.252,-0.395 3.308,-0.686 2.122,-0.587 4.369,-0.944 6.154,-2.405 1.619,-1.324 3.537,-3.95 2.292,-6.154 -0.299,-0.512 10.628,-9.011 10.383,-9.499 l 1.83304,-11.11398 -9.20729,-1.24941 c 0.547,-1.124 -5.22075,1.53939 -4.22975,0.87339 -0.018,10e-4 -0.036,0.004 -0.053,0.005 -0.392,0.113 -0.68,0.231 -0.68,0.231 0,0 0.072,-0.09 0.206,-0.245 -0.104,-0.008 -0.21,-0.008 -0.312,-0.023 -0.035,-1.243 1.26,-2.582 2.262,-3.197 1.341,-0.825 2.357,-1.365 3.346,-2.657 1.032,-1.35 2.008,-2.439 3.572,-3.191 1.806,-0.867 1.866,-1.184 1.669,-3.185 -0.058,-0.59 0.021,-1.775 -0.398,-2.259 -0.344,-0.397 -0.808,-0.391 -1.3,-0.418 -0.489,0.932 -0.349,1.839 -0.755,2.959 -0.299,0.825 -1.048,0.848 -1.792,1.298 m -32.875,-30.538 c -1.852,-1.562 -4.098,-1.725 -6.333,-2.167"
   fill="#dccfbe"
   stroke="#000000"
   stroke-width="0.5"/>
</svg>
