<svg>
<path
   id="australia"
   d="m 912.944,344.19626 c -0.33,-1.375 -0.514,-2.788 -0.87,-4.133 -0.688,-2.597 -1.8,-6.001 -4.457,-7.159 -0.474,-1.002 -0.74,-3.651 -1.6,-4.406 -1.52,-1.337 -3.621,0.876 -4.705,-0.86 -0.981,-1.572 0.35,-2.981 -1.301,-4.629 -1.064,-1.062 -2.198,-1.963 -3.254,-2.743 -2.536,-1.874 -3.797,-4.519 -5.56,-7.568 -0.786,-1.359 -1.643,-2.402 -1.873,-3.999 -0.308,-2.133 0.156,-2.285 -1.186,-4.065 -2.232,-2.962 -3.408,-6.324 -4.815,-9.686 l 0.75,-1.25 c -0.547,-1.588 -2.404,-0.754 -2.986,0.387 -0.43,0.842 -0.217,3.079 -0.453,3.932 -0.672,2.422 -0.959,4.383 -1.062,7.18 -0.093,2.516 0.474,5.255 -1.06,7.242 -2.127,2.757 -3.729,0.824 -6.181,-0.549 -1.365,-0.765 -2.552,-1.225 -3.824,-1.878 -1.415,-0.729 -2.031,-1.681 -3.896,-1.601 0.31,-2.395 -2.681,-2.445 -2.55,-4.599 0.084,-1.372 2.415,-2.733 3.273,-3.494 1.219,-1.081 2.75,-3.158 0.242,-4.183 -1.677,-0.684 -4.05,0.314 -6.013,-0.238 -0.383,-0.107 -0.658,-0.809 -1.116,-0.961 -0.486,-0.163 -1.203,0.215 -1.734,0.119 -0.537,-0.098 -2.361,-0.72 -2.834,-1.075 -0.705,3.323 -2.221,2.225 -4.557,3.718 -1.701,1.088 -2.697,4.366 -2.594,6.213 -0.279,0.032 -0.592,0.057 -0.881,0.074 0.378,0.734 0.659,1.156 1.43,1.506 -0.126,2.629 -4.068,-1.582 -5.393,0.682 -0.229,-3.931 -7.049,-3.621 -6.338,-1.038 -1.466,0.335 -3.343,2.034 -3.263,3.521 -1.031,0.255 -1.55,0.998 -1.306,2.005 -0.328,-0.035 -0.781,0.105 -1.118,0.077 0.92,3.433 -2.662,3.258 -2.326,0.249 -2.604,-0.219 -2.438,4.337 -2.25,5.924 -0.6,-0.048 -0.895,0.298 -1.418,0.332 0.723,3.458 -8.86,5.086 -11.172,5.704 -2.237,0.599 -3.83,0.637 -5.399,2.097 -1.651,1.535 -2.548,2.679 -4.922,3.367 -0.123,-0.406 -0.506,-0.709 -0.595,-1.167 -2.093,-0.14 -1.193,6.408 -0.88,7.888 0.257,1.213 1.15,2.178 1.427,3.317 0.438,1.808 -0.63,1.863 -0.846,3.166 -0.348,2.097 0.651,1.683 1.358,3.179 0.362,0.766 0.994,2.882 1.225,3.776 0.807,3.128 -0.027,5.186 1.636,8.144 1.094,1.944 3.158,5.633 1.881,8.109 -0.479,0.927 -2.188,0.979 -2.537,1.972 -0.677,1.927 0.927,2.436 2.407,2.911 2.212,0.71 6.55,1.677 8.832,0.686 1.165,-0.507 1.477,-1.758 2.479,-2.423 1.37,-0.908 2.565,-0.776 4.309,-0.777 3.9,-0.003 5.519,1.191 8.325,-1.761 2.721,-2.862 5.061,-3.426 8.677,-5.007 1.873,1.759 8.564,-1.716 11.119,-1.724 2.554,-0.009 3.847,0.423 5.632,2.241 0.734,0.749 0.993,1.439 1.944,2.082 0.663,0.447 2.606,0.571 3.004,0.98 0.949,0.977 0.194,2.047 0.55,3.195 0.377,1.219 1.547,1.58 1.296,3.218 2.344,-0.351 3.988,-7.257 5.95,-7.232 2.539,0.03 -2.141,8.531 -2.205,9.246 1.348,-0.723 2.427,-2.837 3.924,-2.942 0.089,1.062 0.264,2.579 -0.396,3.474 -0.537,0.729 -2.636,0.882 -2.783,1.292 -0.915,2.548 5.122,-0.166 5.923,-0.017 1.778,4.065 4.597,9.373 9.793,9.711 3.298,0.214 4.087,-2.209 7.203,-0.987 3.312,1.299 3.579,0.199 6.659,-1.521 3.077,-1.72 5.306,-0.169 6.863,-3.953 -0.303,-0.013 -0.635,-0.067 -0.936,-0.075 0.424,-1.916 1.484,-3.641 2.18,-5.419 -0.239,-0.059 -0.443,-0.021 -0.682,-0.08 -0.228,-2.805 3.199,-5.124 4.474,-7.215 1.531,-2.512 1.398,-5.342 2.681,-7.995 1.109,-2.294 2.523,-6.353 2.316,-8.88 -0.108,-1.345 -1.292,-2.196 -1.635,-3.627 z m -13.12,46.501 c -2.207,1.004 -5.003,1.02 -7.246,0.686 -2.926,-0.435 -4.484,-0.429 -2.505,2.947 0.771,1.314 1.262,1.588 1.501,3.12 0.206,1.317 -0.339,2.491 0.5,3.617 1.843,2.476 4.084,0.833 5.435,-1.176 0.78,-1.161 4.157,-5.675 3.065,-6.694 z"
   fill="#DCCFBE"
   stroke="#000"
   stroke-width="0.5" />
</svg>
