<svg>
<path
   fill="#ebe084"
   stroke="#000"
   stroke-width="0.5"
   d="m 837.152,125.69326 c 1.344,-0.635 2.569,-0.653 3.921,-1.08 2.096,-0.663 1.722,-0.616 3.332,-1.998 1.116,-0.958 4.78,-2.641 5.926,-3.71 0.108,-0.101 0.202,-0.198 0.261,-0.287 1.523,-2.292 -0.986,-7.403 3.084,-7.954 0.045,0.186 0.086,0.373 0.121,0.56 3.683,1.003 3.624,-4.334 4.623,-6.286 1.025,-2 6.013,-6.631999 0.328,-5.232999 -3.446,0.847999 -4.672,2.590999 -8.083,0.002 -1.534,-1.165 -2.365,-1.867 -3.934,-2.753 -1.423,-0.803999 -2.69,-0.385 -3.048,-2.615999 -2.744,-0.183 -2.578,-4.526999 -3.801,-6.549997 -1.302,-2.155 -3.085,-3.847 -5.139,-5.18 -3.065,-1.988999 -12.461,-4.640999 -14.952,-0.41 2.809,1.616 1.124,3.453 -0.181,5.123 -1.767,2.260998 -2.192,2.431998 -2.253,5.576997 -1.682,0.394 -5.569,0.209 -6.824,1.343 -0.159,0.144 -0.3,0.336 -0.425,0.562 -0.831,1.499999 -0.954,4.564999 -0.984,6.094998 2.062,0.112 4.633,-0.4 6.549,0.458 1.774,0.794 2.161,2.746 4.357,2.65 -0.571,2.598 -3.984,1.968 -5.955,2.536 -2.236,0.644 -3.39,2.422 -5.335,3.576 -2.113,1.253 -4.216,1.243 -6.475,1.855 -2.419,0.656 -4.082,-0.22 -6.476,0.358 -0.693,3.947 1.075,5.403 -3.492,7.346 -3.187,1.356 -6.586,0.636 -9.736,1.59 -3.62,1.097 -6.128,2.151 -10.102,1.944 -3.826,-0.198 -6.347,-2.228 -10.1,-2.589 -3.721,-0.358 -5.932,-0.86 -9.339,-2.029 -3.254,-1.116 -13.45889,-9.19767 -13.45889,-9.19767 l -2.55234,24.52421 52.76988,3.53903 v 0 l 26.67635,1.43843 -79.44623,-4.97746 2.55234,-24.52421 -2.55234,24.52421 79.44623,4.97746 c 0,0 -0.579,-3.403 -2.666,-3 -0.389,-1.215 -0.679,-2.257 -0.665,-3.567 3.303,-0.176 6.187,-0.82 8.696,-2.632 0.703,-0.508 1.291,-3.223 2.852,-2.362 1.394,0.769 0.184,3.909 -0.631,4.61 1.359,1.385 5.572,-1.157 7.197,-2.001 0.023,-0.012 0.04,-0.021 0.063,-0.033 1.51,-0.785 1.518,-0.761 2.767,-1.833 1.267,-1.087 1.616,-1.693 3.084,-2.386 z"
   id="beijing" />
</svg>
