<svg>
<path
   id="berlin"
   d="m 504.606,72.667268 c 1.677,1.246999 2.562,-0.609 3.557,-1.753 0.614,-0.707 1.195,-0.503 1.851,-1.021 1.047,-0.826999 0.055,-1.409999 0.164,-2.423999 -2.031,-0.832 -0.443,-1.753999 0.396,-2.896999 l -1.125,-1.125 c 0.145,-0.025 0.227,-0.1 0.243,-0.225 -1.612,-0.999 -1.755,2.026 -2.805,2.35 -0.762,0.235 -1.588,-0.467 -2.317,0.15 -0.716,0.604999 -0.614,1.749999 -0.622,2.599999 -0.016,1.571999 -0.802,3.259999 0.658,4.344999 z m 11.343,-1.845 -0.625,-0.875 c -0.577,-0.320999 -2.14,0.203 -2.72,1.035 -0.598,0.858 -0.283,0.622 -0.149,1.345 0.029,0.158 0.44,0.282 0.497,0.493 0.088,0.323 -0.426,0.542 -0.372,0.694999 1.091,3.089 4.549,-1.768999 3.369,-2.692999 z m -2.703,-13.230996 c -0.335,0.245 -0.673,0.466 -0.806,1.043999 -0.169,0.734 0.628,2.845 0.967,3.462999 0.228,0.413 0.651,0.645 0.915,1.034 0.435,0.641 0.271,0.888 0.494,1.566 0.421,1.278999 1.685,1.625999 2.398,2.762999 0.966,1.539 0.479,6.077998 3.171,3.861999 1.095,-0.9 1.587,-1.886999 3.162,-1.749999 1.206,0.104999 2.382,0.385999 3.381,-0.789 0.666,-0.784 0.734,-2.229 0.99,-3.229999 0.323,-1.257 0.547,-2.738 0.54,-4.042999 -0.005,-0.81 -0.216,-1.42 -0.499,-2.16 2.387,-0.579 5.917,-3.374999 5.36,-6.153998 -0.301,-1.498 -2.047,-1.654 -3.07,-2.494 -1.31,-1.074999 -1.334,-2.705999 -0.71,-4.122998 0.455,-1.035 0.936,-1.895 1.033,-3.006 0.07,-0.804999 -0.093,-1.612999 0.143,-2.356999 0.396,0.044 0.94,0.204 1.357,0.106 0.775,-0.182 0.411,-0.292 0.87,-0.75 0.146,-0.145 0.069,-0.487 0.215,-0.633 0.197,-0.196 0.429,0.017 0.606,-0.11 0.302,-0.216 0.729,-0.368 1.06,-0.600999 1.353,-0.951 2.562,-1.465 3.842,-2.437 1.067,-0.81 2.881,-1.938999 2.857,-3.284999 -0.016,-0.92 -0.569,-1.348 -0.201,-2.432 0.27,-0.798 0.75,-1.726 1.469,-2.159 1.707,-1.027 3.844,-0.343 6.0085,-0.3855 0.7975,0.5735 1.3705,0.3915 1.9305,0.6315 1.432,0.613 0.668,1.003 0.866,2.264 0.356,0.097 0.707,0.307 1.057,0.394 -0.872,0.747 -1.181,0.54 -2.016,1.002 -0.559,0.309 -1.19,1.201 -1.659,1.654 -0.693,0.67 -2.463,3.392999 -3.153,2.708999 -0.177,0.256 -0.341,0.792 -0.622,0.987 -0.344,0.239 -0.862,0.038 -1.006,0.141 -0.674,0.481 -0.488,1.303999 -1.125,1.773999 -1.192,-1.402999 -2.525,0.741 -2.621,1.799 -0.109,1.224 0.337,2.381999 0.379,3.560999 0.04,1.128 -0.253,2.207999 -0.132,3.375999 0.021,0.201 0.082,1.624 0.116,1.686 0.386,0.690999 0.741,0.205999 1.452,0.566999 0.833,0.423 1.182,1.81 2.418,2.017 -0.023,0.063 -0.106,0.27 -0.122,0.353 1.372,0.98 1.464,0.845 3.072,0.388 1.125,-0.319 2.072,-0.601 3.133,-0.995 2.054,-0.765 4.511,-1.168 6.689,-1.267 1.283,-0.058 1.83,-0.046 2.726,-0.924999 0.018,-0.017 0.033,-0.029 0.051,-0.047 0.885,-0.888 1.65,-1.818 2.588,-2.651 0.956,-0.849 1.84,-1.757999 2.699,-2.684999 0.954,-1.029 2.468,-1.866 3.134,-3.120999 0.966,-1.819 -2.501,-3.065999 -3.438,-4.545999 0.313,-0.307 0.685,-0.536 1.088,-0.672 0.066,-0.744 -0.021,-1.058 -0.323,-1.637999 -0.129,-0.249 -0.661,-0.35 -0.755,-0.615 -0.099,-0.283 0.285,-0.537 0.225,-0.726 -0.109,-0.334 0.004,-0.356 -0.25,-0.749 -0.148,-0.229 -0.744,-0.284 -0.85,-0.532 -0.278,-0.648 0.329,-0.941 0.583,-1.45 -0.263,0.008 -0.46,-0.144 -0.714,-0.165 -0.029,-1.339 1.229,-2.158 0.702,-3.571 -0.412,-1.106 -1.564,-1.784 -2.066,-2.912 -0.961,-2.157 2.655,-3.822 1.12,-5.524 -0.968,-1.073 -2.382,-1.503 -2.836,-2.546 -0.227,-0.521 -0.218,-1.191 0.214,-2.1765 -0.43,0.9825 -0.438,1.6535 -0.212,2.1735 0.347,-0.645 0.913,-1.113 1.373,-1.799 0.395,-0.588 0.513,-1.213 0.875,-1.745 0.478,-0.7 0.991,-0.476 1.562,-0.908 0.744,-0.562 0.619,-1.255 1.109,-1.872 -0.425,-0.6650001 -1.327,-1.1600001 -1.94,-1.7310001 0.753,0.008 1.701,0.155 2.259,-0.496 0.704,-0.822 0.104,-0.971 -0.361,-1.627 -1.15,-1.6190005 -1.974,-1.8440005 -3.814,-1.8660005 -0.696,-0.008 -1.627,0.006 -2.257,-0.282 -0.63,-0.288 -0.986,-1.125 -1.805,-0.785 -0.745,0.31 -0.714,1.655 -1.374,2.0580001 -0.458,0.279 -1.777,0.238 -2.289,0.103 -1.875,-0.4950001 -2.963,-1.7190001 -5.131,-1.5790001 -0.679,2.2380001 -1.993,1.3760001 -3.959,1.7010001 -1.639,0.27 -1.916,1.0800004 -3.011,1.9060004 -0.1,0.075 -1.516,0.902 -1.357,0.88 -0.675,0.094 -1.099,-0.622 -1.883,-0.504 -0.579,0.086 -0.722,0.609 -1.312,0.846 -0.651,0.261 -1.657,-0.042 -2.35,0.028 -0.953,0.098 -4.007,0.27 -3.412,1.4750001 -1.049,0.495 -0.55,1.537 -1.54,2.025 -0.838,0.414 -1.935,-0.255 -2.698,-0.638 -0.915,0.797 -1.117,0.972 -1.144,2.244 -1.271,0.221 -1.004,-1.499 -1.976,-1.465 -0.453,0.016 -1.274,1.096 -1.628,1.358 -0.687,0.509 -1.495,0.908 -2.234,1.272 -0.14,0.764 -0.542,1.894 -1.269,2.357 -0.67,0.427 -2.044,-0.004 -1.978,1.101 1.05,0.539 2.195,-0.383 3.056,-0.839 1.101,-0.584 2.033,-0.681 3.278,-0.62 0.164,1.223 -1.881,2.479 -2.636,3.328 -0.417,0.469 -0.867,1.324 -1.397,1.659 -0.704,0.443 -1.194,0.013 -1.58,0.799 -0.276,0.564 0.114,1.104 -0.315,1.694 -0.376,0.518 -1.178,0.707 -1.641,1.156 -0.965,0.937 -1.098,2.416 -1.88,3.47 -0.144,0.194 -0.192,0.464 -0.372,0.662 -0.227,0.25 -0.695,-0.098 -0.889,0.204 -0.353,0.55 0.027,1.184 -0.021,1.791 -0.162,2.01 -2.097,1.298 -3.312,2.52 -1.043,1.048 -0.377,2.366999 -2.034,3.070999 -1.365,0.581 -2.218,-0.545 -3.528,-0.254 -1.139,0.253 -2.03,2.249999 -2.999,2.879999 -1.062,0.691 -2.312,1.537 -3.481,2.022 0.06,0.281 -0.103,0.678 -0.032,0.959 -1.59,-0.346 -1.936,1.947999 -2.969,1.912999 -0.242,0.576 -0.782,0.987 -0.774,1.732 0.006,0.660999 0.69,1.145999 0.758,1.749999 0.086,0.765 -0.551,1.501 -0.634,2.229 -0.101,0.880999 0.155,0.938999 0.387,1.832999 0.272,1.051 0.783,6.478998 2.599,6.079998 0.022,0.968 1.238,2.487 1.893,2.797 1.07,0.507 2.326,0.508 3.375,0.072 1.424,-0.591 2.501,-1.57 3.785,-2.234 1.523,-0.787 2.442,-1.615999 2.847,-3.405999 0.195,-0.867 -0.228,-1.064 0.592,-1.518999 0.472,-0.262 1.343,-0.331 1.728,0.211999 0.339,0.478 -0.269,1.512 0.069,1.953 0.262,0.342 0.835,0.06 1.11,0.253 0.389,0.272 0.494,0.551 0.672,0.874 m 35.322,2.980999 c -0.1495,0.609 0.438,4.939999 -0.747,5.127999 -0.983,0.156 -1.901,-1.212 -2.63,-1.757 -2.052,-1.534 -3.492,0.288 -5.002,1.939999 -1.39,1.519 -0.912,3.08 0.379,4.212999 -0.072,-0.357 -0.141,-0.712999 -0.2035,-1.058499 0.0615,0.3465 0.1305,0.701499 0.2025,1.059499 0.223,1.088 0.523,2.202 1.022,3.2095 -0.918,1.041499 -2.182,0.271499 -3.328,0.895499 -1.24,0.675 0.032,0.605 0.064,1.302 0.009,0.197 -0.041,0.375 -0.1195,0.547 -0.1675,0.036 -0.3455,0.075 -0.5405,0.122 -1.045,0.25 -2.642,0.551 -3.703,0.13 0.191,-1.136 -1.195,-2.275 -2.209,-2.485 -1.832,-0.379999 -4.779,1.235 -6,2.316 -0.905,0.801 -1.77,1.194999 -2.876,1.703999 -0.673,0.31 -1.446,1.086 -2.203,1.666 0.049,0.311 0.067,0.627 0.0225,0.9385 0.0475,-0.3075 0.0295,-0.6245 -0.0175,-0.9385 -0.107,-0.725 -0.431,-1.428 -0.923,-1.928 -2.158,-2.192999 -4.249,0.616 -6.667,0.23 0.03,-1.541999 0.764,-1.691999 -1.216,-1.615999 -1.779,0.067 -2.353,-0.064 -2.196,-1.846 -1.515,-0.179 -3.592,-0.37 -4.959,0.377 0.218,0.791 1.189,1.653 0.843,2.657999 -0.458,1.327 -1.724,0.865 -2.679,1.01 -0.954,0.144 -1.892,0.783 -2.555,1.524 0.209,0.106 0.415,0.241 0.613,0.4365 -0.2,-0.2005 -0.406,-0.3355 -0.615,-0.4415 -1.242,-0.628 -2.639,0.194 -3.875,0.659 -1.86,0.698999 -2.432,1.635999 -3.264,3.315999 -0.378,0.763 -0.735,1.326 -1.241,2.001 -0.633,0.845 -1.041,1.604 0.481,1.331 -0.085,0.309 -0.31,0.549 -0.581,0.753 0.326,-0.047 0.666,-0.066 1.035,-0.027 0.486,0.052 1.338,0.167 1.755,0.375 0.491,0.246 0.708,0.876998 0.989,1.003998 0.546,0.247 1.338,-0.297 1.823,0.194 0.019,0.019 0.028,0.041 0.045,0.0605 0.367,0.4495 0.08,1.0725 0.097,1.6005 2.082,0.411 0.229,1.173 -0.403,2.024999 -0.98,1.321 -0.198,1.631 0.384,2.748 0.07,0.136 0.122,0.269999 0.166,0.401999 0.298,0.188 0.61,0.357 0.96,0.475 1.333,0.446 2.865,0.668 4.229,1.019 0.214,0.878 -0.553,1.701 -0.856,2.470999 -0.346,0.877 -0.507,1.811 -0.388,2.791 0.307,-0.002 0.64,-10e-4 1.014,-0.033 0.897,-0.077 2.688,-1.119 3.649,-0.2085 0.961,0.9105 1.023,1.0505 1.0805,1.178 0.1045,0.2265 0.2025,0.4035 0.5465,0.7455 0.395,0.391 0.826,0.786 1.236,1.188 0.618,-0.271 1.377,0.09 1.888,-0.06 0.777,-0.226 0.566,-0.705 1.229,-1.1 0.761,-0.454 2.815,0.12 3.618,0.377 1.102,0.353 1.626,1.044 2.774,1.346 0.201,-1.128 1.32,-0.285 2.354,-0.006 1.348,0.364 2.88,-0.116 4.186,-0.52 0.643,-0.198 1.148,-0.265 1.547,-0.152 0.128,-0.401 0.213,-0.833 0.266,-1.292 0.2,-1.742 0.169,-2.156 1.859,-2.648 -0.031,-0.113 -0.055,-0.214 -0.076,-0.314 0.777,0.064 1.674,0.251 2.313,0.186 1.458,-0.149 1.916,-0.465 3.148,-1.17 1.22,-0.696999 2.492,0.425 3.558,-0.233 1.114,-0.687999 0.671,-1.886999 2.447,-1.695999 0.893,0.096 1.796,0.736 2.69,0.782 0.341,-0.51 0.649,-1.029 0.927,-1.57 0.177,-0.344 0.344,-0.694 0.4945,-1.059 -0.1515,0.364 -0.3185,0.715 -0.4955,1.059 0.408,-0.32 0.75,-0.647 0.906,-0.933 0.555,-1.013999 -0.211,-2.405999 0.541,-3.588999 0.589,-0.926 2.238,-0.965 2.651,-1.842999 0.43,-0.913 -0.939,-2.259 -1.086,-3.150998 -0.04,-0.245 -0.008,-0.473 0.034,-0.697 0.039,-0.204 0.081,-0.406 0.105,-0.6115 0.171,0.0115 0.346,0.0135 0.523,0.007 0.499,-0.018 1.021,-0.106 1.523,-0.26 1.774,-0.542 4.037,-1.881 5.869,-1.065 0.834,0.371 1.572,1.217 2.434,1.494 0.993,0.318 1.722,-0.293 2.794,-0.061 0.632,0.137 0.306,0.312 0.979,0.198 0.515,-0.087 0.521,-0.512 1.181,-0.337 0.549,0.146 0.671,0.643 1.14,0.74 0.189,0.04 1.005,-0.258 1.395,-0.205 0.457,1.233998 1.541,0.13 1.892,-0.4 0.233,-0.354 0.277,-1.109 0.595,-1.376 0.472,-0.397 0.88,-0.077 1.41,-0.246 0.38,-0.121 0.621,-0.297 0.77,-0.51 0.7,-0.999 -0.744,-2.86 -0.626,-4.220999 1.411,0.174 2.283,0.269999 3.713,-0.044 -0.393,-1.202 -0.904,-1.815 -2.213,-1.744 0.169,-1.118 -1.117,-2.649999 -1.83,-3.355999 -0.337,-0.334 -1.091,-0.681 -1.255,-1.183 -0.293,-0.897 0.469,-1.207999 0.604,-1.940999 0.388,-2.105 -1.582,-1.857 -2.912,-1.776 -0.933,0.057 -1.153,-0.409 -1.775,-0.574 -0.824,-0.218 -1.104,0.28 -1.851,0.23 -0.634,-0.042 -1.011,-0.563 -1.624,-0.726 -0.009,-0.002 -0.019,-0.002 -0.0295,-0.004 0.1075,-0.0825 0.2055,-0.188499 0.2795,-0.333499 0.518,-1.018 -0.448,-2.458 -1.358,-2.714 -0.08,-1.299999 0.379,-2.484999 -0.855,-2.788999 -0.095,-0.023 -0.176,-0.053 -0.292,-0.065 m 0,0 c 0.116,0.012 0.197,0.042 0.292,0.065 0.515,-0.589 0.945,-1.22 1.09,-1.873999 0.185,-0.831 -0.032,-1.512 -0.189,-2.177 -0.149,-0.631 -0.245,-1.247 0.111,-1.960999 0.693,-1.387 0.9,-2.693 -1.303,-2.527 -1.207,0.091 -2.302,0.899 -3.59,0.974 -1.018,0.059 -2.033,0.08 -3.027,0.127 -1.648,0.079 -3.73,0.105 -3.529,2.351999 -0.377,0.142 -0.786,0.198 -1.207,0.169 -0.652,1.832 -2.89,-1.063999 -3.807,1.2 -1.062,2.623999 1.942,0.787 2.785,0.169 0.469,0.67 1.032,0.266 1.635,0.111 0.295,-0.075 0.229,-0.482 0.612,-0.507 0.271,-0.017 0.414,0.266 0.601,0.283 -0.077,-0.007 0.429,0.318 0.528,0.348 m -15.19,4.618999 c 0.954,-0.691 1.847,-0.498 1.689,-2.12 l -1,-0.999999 c -0.537,0.361999 -1.855,0.703999 -2.476,1.498999 -0.422,0.542 -1.249,2.770999 -0.591,3.191999 0.719,0.458 1.915,-1.235999 2.378,-1.570999 z"
   fill="#54bff9"
   stroke-width="0.5"
   stroke="#000000"/>
</svg>
