<svg>
<path
   fill="#4c85f2"
   stroke="#000"
   stroke-width="0.5"
   d="m 584.134,104.44526 c -1.094,0.156 -2.577,0.625 -3.528,1.16 -3.122,1.754 0.259,4.077 -0.179,6.569 -0.387,0.106 -0.932,0.466 -1.302,0.508 -0.644,0.072 -0.84,-0.326 -1.329,-0.336 -1.242,-0.025 -1.726,1.487 -2.954,1.206 0.052,-1.586 -0.48,-2.102 -1.644,-2.952 -1.8,-1.317 0.359,-1.178 1.39,-2.029 -1.256,-1.604 -4.361,0.669 -4.158,-2.231 -1.371,-0.07 -2.163,-0.035 -3.138,0.978 -0.391,0.406 -0.762,0.72 -1.146,0.982 0.001,0.116 -0.017,0.242 -0.072,0.394 -0.291,0.79 -0.767,0.256 -1.312,0.625 -0.718,0.485 -0.582,1.466 -1.067,2.292 -0.002,0.146 -0.008,0.293 -0.018,0.438 -0.245,0.08 -0.445,0.163 -0.624,0.25 -0.155,0.123 -0.318,0.225 -0.488,0.31 -0.608,0.498 -0.692,1.173 -1.119,2.327 -0.117,0.316 -0.283,0.622 -0.47,0.921 1.381,1.532 -1.69,2.412 -2.184,3.683 -0.588,1.516 0.418,0.831 0.795,2.154 0.194,0.684 -0.249,1.253 -0.496,1.875 0.072,0.081 0.154,0.164 0.263,0.251 0.439,0.356 0.977,0.382 1.474,0.623 0.63,0.304 1.514,0.815 1.956,1.478 0.009,-0.016 0.007,-0.033 0.02,-0.048 0.451,-0.548 3.271,0.143 3.972,0.072 1.465,-0.149 2.147,-1.148 3.436,-1.66 2.187,-0.869 6.238,-2.718 8.55,-1.719 0.983,0.424 1.842,1.482 2.824,2.041 1.369,0.778 2.401,0.157 3.739,0.688 1.075,0.426 1.979,1.167 3.11,1.407 1.293,0.274 2.902,0.182 4.21,-10e-4 1.76,-0.246 2.964,-1.109 4.563,-1.666 0.382,-0.133 0.801,-0.192 1.228,-0.223 0.187,-0.302 0.38,-0.596 0.391,-0.994 0.019,-0.702 -0.533,-1.663 -0.904,-2.217 -0.979,-1.46 -1.863,-2.372 -3.463,-2.929 -0.693,-0.241 -1.669,-0.315 -1.469,-1.322 0.012,-0.059 0.03,-0.094 0.044,-0.145 -1.467,-1.059 -3.054,-2.104 -3.96,-2.39 -2,-0.631 -5.25,-3.119 -4.5,-3.204 0.75,-0.085 1.5,-2.415 2.75,-3.555 1.25,-1.14 1,-2.11 2.25,-3.583 0.812,-0.957 -0.589,0.153 -1.535,-0.218 -0.033,0.02 -0.055,0.045 -0.092,0.064 -1.168,0.589 -2.561,-0.052 -3.814,0.126 z"
   id="blacksea" />
</svg>
