<svg>
<path
   fill="#6E8D4E"
   stroke="#000"
   stroke-width="0.5"
   d="m 361.70284,291.10323 -37.24884,42.72103 37.24884,-42.72103 c 0,0 -15.19771,-9.58785 -20.17907,-12.98962 -4.98137,-3.40177 -9.98595,-6.81175 -10.07883,-6.84463 L 304.073,300.31726 c 1.079,0.595 2.931,0.467 3.803,1.14 0.835,0.644 1.394,2.854 1.303,3.845 -1.569,0.518 0.415,2.69 0.645,3.523 0.316,1.143 0.009,1.193 1.378,1.25 0.981,0.04 1.642,-0.504 2.553,-0.499 0.261,0.002 0.538,0.042 0.823,0.104 -0.45,0.96 -0.587,1.929 0.244,2.89 0.552,0.639 1.62,0.955 1.884,1.754 0.25,0.757 -0.277,1.682 -0.369,2.377 -0.119,0.913 -0.143,1.469 -0.442,2.309 -0.243,0.68 -0.501,1.266 -0.481,1.976 0.004,0.151 0.004,0.3 0.039,0.465 0.315,1.515 0.793,3.112 0.875,4.748 0.066,1.333 -0.411,1.581 0.599,2.152 0.649,0.367 1.973,0.577 2.757,0.455 -0.033,-0.466 0.146,-0.868 0.52,-1.118 0.944,0.537 1.449,0.71 1.748,1.764 0.26,0.918 0.256,1.938 0.508,2.867 0.365,1.344 0.571,1.421 1.994,1.505 l 37.19128,-42.47102 -30.20034,-20.08426 c -8.25486,8.98623 -27.29713,29.17097 -27.50157,29.09641"
   id="brasilia" />
</svg>
