<svg>
<path
     d="m 268.883,113.32226 c 3.83448,-11.53188 -0.7915,-20.722268 -15.297,-24.531997 -0.489,-0.360998 -0.514,-1.126998 -0.948,-1.525998 -0.889,-0.816 -2.311,-1.196 -3.111,-2.216 -0.458,-0.584 -0.125,-0.432 -0.14,-1.144 -0.013,-0.591 -0.118,-0.506 -0.475,-0.923 -0.512,-0.599 -1.154,-1.042 -1.361,-1.87 -0.25,-0.995999 0.012,-2.138999 0.02,-3.139999 0.006,-0.712 -0.12,-0.756999 -0.473,-1.328999 -0.485,-0.785 -0.131,-0.656 0.055,-1.526 0.284,-1.328 -1.115,-1.392 -2.047,-1.682999 -0.77,-0.24 -1.832,-0.449 -2.871,-0.471 -0.24,-0.233 -0.49,-0.47 -0.789,-0.669 -0.868,-0.578 -1.465,-0.776 -2.438,-0.978 -1.726,-0.357 -3.299,-0.69 -4.782,-1.626 -0.278,-0.174999 -0.416,-0.507999 -0.771,-0.630999 -0.384,-0.133 -0.946,0.165 -1.323,0.003 -0.662,-0.282 -1.063,-1.415 -1.677,-1.842 -1.244,-0.866 -4.266,-1.865999 -5.759,-2.028999 -2.177,-0.239 -4.389,0.804999 -6.487,0.737999 0.994,-2.615999 0.601,-3.680999 -0.639,-6.111998 -0.514,-1.009 -0.567,-1.666999 -1.869,-1.630999 -1.55,0.043 -1.17,1.294999 -2.355,1.617999 -0.11,-1.446 -1.383,-1.969999 -1.209,-3.364999 0.164,-1.31 0.559,-2.411999 0.559,-3.873999 0,-0.641 -0.166,-1.531 0.149,-2.094999 0.273,-0.491 1.072,-0.886 1.415,-1.462 0.666,-1.117 0.757,-2.472999 1.807,-3.312999 0.61,-0.489 1.519,-0.556 2.006,-1.13 0.343,-0.403 0.457,-1.247 0.77,-1.726999 0.241,0.095 0.71,0 0.956,0.081 0.377,-1.862 3.193,-0.153 3.998,-2.008 0.636,-1.467 -1.1,-2.882999 -2.466,-2.872999 1.44,-0.781 3.739,0.568 5.031,-0.442 0.79,-0.618 0.226,-1.169 1.647,-1.154 0.44,0.004 0.819,0.334 1.252,0.25 0.52,-0.1 0.634,-0.509 1.055,-0.72 1.357,-0.678999 2.298,-1.124999 3.284,-2.497999 1.589,-2.214 -0.833,-1.874 -2.392,-2.03 -1.35,-0.135 -4.299,-0.397 -3.866,-2.612 1.549,0.152 3.232,1.168 4.846,1.361 1.293,0.155 3.064,-0.438 3.666,-1.846 0.582,-1.362 -0.41,-0.847 -0.886,-1.688 -0.725,-1.281 0.517,-1.134 1.361,-1.251 0.717,-0.1 1.773,-0.806 2.549,-0.464 0.669,0.295 0.733,1.257 1.28,1.654 0.692,0.503 1.629,0.633 2.255,0.071 1.006,-0.904 0.109,-1.31 -0.6,-1.953 -0.517,-0.469 -1.456,-1.245 -0.181,-1.397 1.109,-0.132 0.786,1.022 1.209,1.74 1.015,1.721 2.833,1.197 4.1,0.139 0.62,-0.518 1.095,-1.291 1.746,-1.792 0.601,-0.463 1.655,-0.613 1.855,-1.499 0.459,-2.028 -3.405,-2.463 -3.479,-4.339 -0.053,-1.35 1.324,-0.671 2.015,-1.13 0.874,-0.581 0.562,-1.721 -0.486,-1.894 0.071,-0.777 1.5,-1.042 0.689,-1.822 -0.301,-0.29 -0.746,-0.031 -1.09,-0.158 -0.519,-0.19 -0.773,-0.44 -1.239,-0.718 -1.409,-0.84 -3.313,-1.141 -4.877,-1.435 -1.271,-0.238 -4.869,-1.0760001 -4.095,1.152 0.392,1.129 2.955,2.536 1.775,4 -0.6,0.745 -1.729,0.129 -2.246,1.128 -0.426,0.824 0.325,2.156 -1.165,2.233 -0.151,-0.507 -0.211,-2.408 -1.286,-1.637 -0.419,0.301 -0.232,2.019 -0.025,2.441 0.385,0.784 1.42,0.327 0.562,1.585 -0.394,0.579 -1.265,1.061 -1.969,1.013 -1.199,-0.081 -0.904,-0.719 -1.35,-1.625 -0.344,-0.7 -1.023,-1.083 -1.439,-1.772 -1.41,-2.335 2.121,-1.472 1.527,-3.874 -0.454,-1.839 -2.579,-2.307 -4.226,-1.795 -2.058,0.64 -1.266,2.626 -1.893,4.154 -1.162,-0.98 -2.265,-2.432 -2.445,-3.287 -0.27,-1.278 1.07,-2.203 0.618,-3.312 -0.814,-1.9970001 -3.149,-0.568 -4.081,-1.6160001 -0.58,-0.651 -0.492,-2.818 -0.752,-3.6980004 -0.291,-0.9830001 -0.958,-2.4170001 -1.609,-3.0890001 -0.754,-0.777 -2.151,-1.3940001 -3.157,-1.6000001 -0.999,-0.206 -3.283,-0.113 -1.92,-1.803 0.76,-0.944 2.264,-0.531 2.797,-1.8750001 0.532,-1.343 -0.015,-2.737 -1.079,-3.5800001 1.239,0.5770001 2.217,1.0160001 3.58,1.1320001 1.491,0.127 2.348,-0.508 3.629,-1.0970001 1.327,-0.61 2.19,-1.21 2.755,-2.655 0.678,-1.7350001 -0.448,-2.1990001 -2.002,-1.8390001 -1.874,0.434 -2.857,0.438 -4.692,0.021 -1.435,-0.327 -3.182,-0.74 -4.634,-0.691 -1.295,0.043 -3.193,0.856 -3.694,2.0680001 -0.424,1.026 0.464,2.539 0.509,3.6980001 0.093,2.406 0.127,5.0170001 -0.997,7.0620001 -0.703,1.2790001 -1.215,1.8250001 -1.253,3.3760001 -0.03,1.2230001 -0.085,2.5160005 0.379,3.6200005 0.398,0.947 0.995,1.8430001 1.992,2.2810001 1.282,0.562 2.72,0.007 3.996,0.561 2.754,1.194 1.51,4.16 -0.082,5.754 -0.837,0.838 -1.803,0.786 -2.877,1.125 -1.907,0.603 -0.922,1.27 -0.503,2.685 0.875,2.952 -3.401,1.285 -2.867,-1.34 0.104,-0.514 0.36,-0.981 0.543,-1.474 -0.458,-0.5 -1.218,-0.611 -1.437,-1.255 1.993,-0.041 3.26,-1.937 1.793,-3.514 -0.822,-0.883 -3.405,-3.06 -4.694,-2.758 -0.636,0.148 -1.421,1.159 -1.986,1.616 -0.795,0.643 -1.658,0.719 -2.372,1.268 -2.027,1.558 2.571,1.758 3.333,2.522 1.073,1.074 0.011,1.074 -0.715,1.595 -0.652,0.468 -0.215,0.146 -0.625,0.871 -0.275,0.486 -0.082,0.703 -0.627,1.125 -1.358,1.053 -4.721,0.748 -6.377,0.499 -1.95,-0.293 -3.911,-0.562 -5.714,-1.526 -1.006,-0.539 -1.201,-0.692 -2.472,-0.357 -0.307,0.081 -1.021,0.514 -1.318,0.399 -0.672,-0.261 -0.194,-0.554 -0.515,-0.979 -1.179,-1.561 -3.324,-2.427 -5.229,-2.498 -1.517,-0.056 -2.492,0.15 -3.748,0.924 -0.763,0.47 -2.425,0.79 -2.736,1.644 0.54,0.296 1.035,0.604 1.383,1.003 0.117,0.032 0.217,0.004 0.333,0.043 0.732,1.059 2.149,3.745 1.312,4.984 -0.73,1.082 -1.385,0.396 -1.953,-0.374 -0.319,-0.432 -0.188,-0.698 -0.583,-1.037 -0.393,-0.336 -1.092,-0.262 -1.417,-0.683 -0.328,-0.425 -0.047,-0.839 -0.211,-1.288 -0.297,-0.808 -0.097,-0.49 -0.877,-0.964 -1.029,-0.625 -1.777,-0.666 -2.878,-0.128 -2.078,1.015 -3.842,1.532 -6.119,0.965 -1.961,-0.488 -5.396,-0.073 -7.019,-1.373 0.764,-0.873 3.778,-1.514 1.776,-2.751 -0.722,-0.447 -1.677,-0.323 -2.413,-0.596 -0.739,-0.274 -1.263,-0.9 -1.973,-1.183 -1.635,-0.651 -3.386,0.043 -5.031,-0.562 -1.704,-0.627 -3.405,-1.204 -5.09,-1.937 -1.196,-0.521 -2.84,-1.197 -4.128,-1.338 -1.142,-0.125 -1.767,0.529 -2.855,0.728 -0.035,-0.116 -0.011,-0.223 -0.037,-0.341 -1.493,-0.075 -2.811,-0.208 -3.942,0.764 -0.485,0.417 -0.981,0.838 -1.476,1.259 -0.591,-0.492 -1.068,-1.084 -1.194,-2.053 -0.093,-0.7140001 0.487,-0.7150001 -0.176,-1.3690001 -0.357,-0.352 -0.809,-0.475 -1.314,-0.339 -1.126,0.301 -0.924,1.6220001 -2.19,1.8440001 -2.578,0.453 -3.158,-4.4090001 -5.492,-3.9970001 -1.066,0.188 -1.237,1.909 -2.011,2.442 -0.837,0.577 -2.025,0.268 -2.937,0.708 -1.095,0.5290001 -1.433,1.6230001 -2.065,2.5290001 -0.84,1.203 -1.704,1.251 -3.166,1.173 -0.479,-2.163 3.665,-3.137 4.692,-4.5060001 1.255,-1.673 -1.338,-1.102 -2.22,-0.624 -1.388,0.751 -2.566,1.372 -4.177,1.6570001 -0.676,0.12 -1.498,0.063 -2.13,0.365 -0.684,0.327 -0.892,0.925 -1.682,1 -1.111,0.105 -2.676,-0.78 -3.806,-0.882 -1.481,-0.134 -2.729,1.02 -3.824,1.879 -1.342,1.054 -2.273,1.119 -3.972,0.883 -1.635,-0.227 -3.157,-0.725 -4.713,-1.319 -0.683,-0.261 -1.629,-0.667 -2.52,-0.808 v -10e-4 H 84.86 c -0.381,-0.06 -0.75,-0.07 -1.085,0 h -1.973 v 38.624996 h 0.138 c -0.013,0.055 -0.032,0.108 -0.044,0.163 -0.736,3.316999 3.071,2.172999 4.833,2.810999 2.164,0.783 3.181,2.775999 4.445,4.454999 2.156,2.862999 3.184,-1.312 5.034,-2.06 2.572,-1.041999 4.198,2.359 5.274,3.997999 1.391,2.119 3.137,3.694999 4.783,5.595999 1.6,1.846999 3.559,3.186999 5.491,4.662999 2.566,1.960999 0.831,3.791999 -0.134,6.103998 -0.643,1.542 -0.569,4.038999 0.235,5.473999 0.665,1.187999 1.499,1.311999 2.744,1.780999 1.655,0.623 4.769,1.04 5.437,2.948 0.389,1.109 -0.096,2.037 0.587,3.124998 0.357,0.57 0.867,0.942 1.273,1.449 0.742,0.926 0.339,0.275 0.319,1.378 -0.062,3.442999 3.731,5.096998 5.853,7.177998 0.478,0.468 0.94,0.92 1.386,1.384999 0.183,0.191 0.355,0.392 0.531,0.59 0.295,-0.256 0.694,-0.419 1.254,-0.425 0.757,-0.008 1.288,1.01 2.201,0.236 0.736,-0.625 0.456,-2.219999 0.797,-3.056999 v -0.317 h 75.514 c 0.914,-1.237999 1.321,-2.344999 2.771,-0.646 1.217,1.426 1.975,2.06 3.871,2.296 0.673,0.084 1.226,0.161 1.688,0.286 0.274,-0.184 0.579,-0.304 0.9,-0.393 0.457,-0.127 0.944,-0.198 1.429,-0.283 0.064,0.339 0.158,0.659 0.309,0.927 0.011,0.019 0.016,0.042 0.027,0.061 0.374,0.607999 1.819,1.637999 2.484,1.873999 0.761,0.27 1.857,-0.138 2.646,-0.473 0.084,-0.036 0.168,-0.072 0.244,-0.105 1.721,-0.75 3.05,-1.978999 4.652,-2.980999 2.543,-1.59 3.832,0.888 5.509,2.469999 1.643,1.548 4.091,-0.374999 4.628,2.38 0.182,0.932 0.022,2.052 0.813,2.749 0.604,0.532 1.624,1.112 2.377,1.515 1.197,0.639 2.076,1.781 3.394,2.285 1.005,0.384 1.56,0.011 2.483,-0.414 0.918,-0.422 1.477,-0.513 2.248,-0.202 0.262,0.31 0.683,0.608 0.886,0.847 0.432,0.508 0.846,1.027 1.051,1.667 0.135,0.423 0.462,1.808 0.246,2.21 -0.459,0.854 -1.25,-0.087 -1.67,-0.421 -0.697,-0.556 -1.257,-1.164 -1.83,-1.842 -1.396,0.818 -0.476,2.781 -0.813,4.007 -0.419,1.523 -1.221,2.363 -2.246,3.503 -0.176,0.195 -0.416,0.419 -0.677,0.66 0.01,0.261 0,0.524 -0.062,0.794 -0.162,0.706 -1.018,1.471 -1.67,2.22 0.545,0.7 2.797,-1.092 3.395,-1.354 1.38,-0.603 2.726,-0.351 4.157,-0.681 0.693,-0.16 1.437,-0.352 2.051,-0.748 0.269,-0.173 0.565,-0.348 0.72,-0.646 0.322,-0.619 -0.011,-0.469 -0.1,-0.996 -0.263,-1.546 1.473,-2.23 2.661,-2.722 0.867,-0.359 1.878,-0.828 2.811,-0.936 1.328,-0.153 2.801,0.269 4.105,0.493 0.25,0.043 0.497,0.071 0.742,0.103 0.002,-0.035 0.004,-0.069 0.006,-0.104 1.165,0.113 1.737,-1.187 2.894,-1.367 L 253.96634,88.920633 M 161.082,-29.720723 c 1.309,0.944 2.84,0.646 4.315,0.498 0.509,-0.051 2.307,0.06 2.683,-0.366 0.546,-0.621 -0.219,-1.114 -0.477,-1.769 0.972,-0.533 1.978,-0.783 3.112,-0.721 -0.039,-0.5 -0.326,-1.297 -0.142,-1.141 l -0.833,-0.833 c 1.207,0.02 2.411,-0.949 1.987,-2.251 -0.621,-1.905 -2.069,-0.767 -3.062,-0.502 -3.001,0.801 -5.303,0.003 -8.065,1.795 0.924,1.38 4.546,-0.147 5.286,1.596 -2.219,-0.183 -8.892,0.747 -4.804,3.694 z m 43.331,-4.757 c 0.504,0.572 0.149,0.988 0.996,1.474 0.713,0.409 1.398,0.087 1.86,0.423 0.807,0.163 2.431,-0.156 3.054,-0.304 1.094,-0.26 1.872,-0.578 2.084,-2.167 l -1.333,-0.833 c -1.729,-0.548 -6.559,-3.533 -8.248,-1.168 -0.96,1.342 0.794,1.674 1.587,2.575 z m -2.673,-10.242 -1,-1.333 c -1.131,-0.249 -3.89,-1.068 -4.146,0.508 1.25,1.15 5.606,4.883 5.146,0.825 z m -18.01,16.04 c 0.988,0.418 1.48,1.106 1.851,-0.338 0.342,-1.331 -0.688,-1.544 -1.507,-2.202 h -1.833 c -2.667,-0.213 0.825,2.259 1.489,2.54 z m -32.971,7.894 c -0.752,0.893 -0.505,1.852 -1.994,1.928 -1.035,3.368 2.542,2.042 4.554,2.811 0.991,0.378 1.855,1.329 2.986,0.56 0.763,-0.519 1.348,-1.747 2.102,-2.415 1.119,0.845 1.304,1.232 2.842,1.191 1.172,-0.032 2.413,-0.212 3.636,-0.15 -0.356,1.232 -8.678,1.367 -6.309,3.429 1.891,1.646 6.509,0.148 8.326,-0.911 2.702,-1.575 4.445,-2.134 7.5,-1.531 2.625,0.519 5.04,0.869 6.88,-1.803 0.65,-0.944 1.385,-3.198 0.082,-4.003 -1.122,-0.693 -3.024,0.826 -4.429,0.6 -0.52,-1.046 -1.336,-0.297 -2.038,-0.8 -0.542,-0.389 -0.783,-1.162 -0.951,-1.839 -0.446,-1.797 -0.372,-2.789 -2.709,-2.16 -1.105,0.297 -3.539,1.232 -2.964,2.829 0.752,2.089 2.586,0.435 1.827,3.309 0.725,0.127 1.507,0.367 1.957,0.862 -1.095,0.655 -2.442,0.303 -3.487,-0.296 -0.561,-0.322 -1.014,-0.933 -1.579,-1.195 -0.519,-0.241 -1.246,-0.09 -1.717,-0.371 -0.809,-0.48 -1.013,-1.5 -1.951,-1.811 -1.154,-0.383 -2.398,0.228 -3.583,-0.332 l -2.167,-1 c -0.838,-0.19 -2.045,-1.305 -3.004,-1.012 -1.095,0.334 -1.089,1.925 -1.7,2.645 -0.597,0.701 -1.467,0.701 -2.11,1.465 z m 32.311,-17.68 c 1.354,0.791 4.509,0.018 4.478,2.222 -1.203,0.396 -2.54,0.078 -3.783,0.049 -0.612,2.636 5.445,1.867 6.651,1.686 2.367,-0.355 4.63,1.533 6.614,2.67 2.417,1.386 3.679,-2.256 2.093,-4.088 -1.815,-2.097 -3.004,-2.566 -5.716,-2.997 -0.476,-0.076 -0.625,-0.562 -1.178,-0.464 -0.202,0.036 -0.612,0.5 -0.611,0.5 -0.238,0.003 -0.304,0.6 -0.709,0.524 -0.405,-0.076 -0.349,-0.801 -0.617,-1.022 -1.187,-0.98 -2.319,-2.377 -4.052,-2.167 l -1.5,0.167 c -2.563,0.002 -4.6,1.208 -1.67,2.92 z m -35.496,16.413 c -0.451,-0.809 -5.001,0.713 -3.339,2.583 1.409,1.585 4.85,-0.495 4.506,-2.416 z m -9.585,1.286 c 0.851,-0.088 1.341,-0.11 2.086,0.135 0.754,0.249 0.779,1.024 1.842,0.668 1.274,-0.426 1.312,-2.323 1.959,-3.295 1.216,-1.828 1.823,-1.093 3.54,-0.635 1.253,0.334 3.112,-0.243 3.183,-1.967 1.384,0.218 2.592,-0.766 2.641,-2.192 l -1.167,-1 c 0.722,-1.869 -2.67,-1.643 -3.665,-1.335 -2.121,0.655 -4.182,1.27 -6.295,1.83 -1.233,0.327 -2.985,1.104 -3.789,2.086 -0.553,0.674 -0.3,1.192 -1.135,1.707 -0.569,0.351 -1.331,0.205 -1.943,0.422 -1.063,0.377 -3.086,1.58 -2.083,3.039 0.841,1.222 3.629,0.66 4.826,0.537 z m -9.751,20.8780003 c 2.498,0.155 2.341,1.23 3.708,2.7990001 1.406,1.613 2.924,0.731 4.594,-0.177 1.373,-0.747 3.566,-0.285 4.205,-1.4510001 0.411,-0.75 -0.029,-1.752 0.371,-2.501 0.353,-0.659 1.54,-1.3930001 2.116,-1.8750001 1.527,-1.279 4.123,-1.675 2.338,0.7910001 -1.31,1.81 -2.506,4.7610001 1.349,3.601 0.39,0.5600001 0.57,1.3010001 0.684,1.9540001 1.974,0 3.727,-1.351 5.779,-1.278 0.199,2.413 -4.72,3.02 -5.156,4.9920005 -0.15,0.678 0.591,2.231 1.181,2.646 0.644,0.4520001 1.745,0.7410001 2.505,1.1730001 1.096,0.624 1.86,1.166 3.162,1.33 1.443,0.183 1.943,0.046 3.173,0.844 2.132,1.384 3.398,2.995 5.996,2.991 2.499,-0.004 5.302,0.416 7.509,-0.786 1.821,-0.992 3.658,-1.841 5.534,-2.844 1.392,-0.744 1.315,-0.608 2.736,-0.163 1.178,0.369 2.909,0.333 4.05,0.826 1.192,0.516 1.633,1.758 2.979,1.973 0.884,0.141 3.103,-0.201 3.863,-0.626 1.057,-0.59 1.601,-2.389 0.319,-3.215 -0.848,-0.546 -3.294,0.972 -2.369,-0.87 1.297,-2.5840001 4.299,0.346 5.843,0.85 1.053,-2.6010001 -1.925,-3.9940001 -3.968,-5.0190005 -1.541,-0.774 -5.758,-1.0130001 -6.168,-2.6260001 -0.347,-1.365 0.679,-1.79 -0.002,-3.1660001 -0.493,-0.994 -1.338,-1.615 -1.701,-2.627 -0.563,-1.5760001 0.168,-1.3820001 0.666,-2.5800001 0.499,-1.2 -0.004,-2.0110001 -0.459,-3.0460001 -0.81,-1.84 -4.603,-4.2490001 -5.363,-0.94 -2.091,-0.051 -4.599,2.8770001 -3.634,4.7320001 0.675,1.296 2.555,2.1950001 2.334,3.8030001 -0.261,1.9050001 -1.523,1.459 -2.336,0.652 -1.386,-1.375 -1.85,-5.4840001 -4.669,-4.6620001 -1.508,0.439 -1.216,1.9840001 -3.045,1.042 -0.996,-0.513 -1.18,-1.312 -2.378,-1.544 -1.046,-0.203 -3.196,-0.511 -4.242,-0.117 -1.776,0.67 -1.672,1.683 -3.808,1.594 0.009,-1.171 1.762,-1.438 1.467,-2.8080001 -0.244,-1.131 -1.514,-0.981 -2.453,-1.128 -1.534,-0.24 -1.152,-0.114 -1.921,-1.535 -0.58,-1.071 -1.172,-2.0020001 -2.278,-2.6250001 -1.97,-1.111 -4.26,-0.394 -6.174,-0.054 -2.239,0.397 -4.015,-1.401 -6.336,-1.503 -1.971,-0.086 -4.703,-1.781 -6.498,-0.655 l -1.667,0.833 c -2.322,-0.907 0.078,3.6040001 0.008,4.0030001 -0.285,1.625 -2.547,1.717 -3.013,3.1680001 -0.356,1.113 0.091,1.126 -0.828,2.067 -0.688,0.706 -1.254,0.94 -1.542,1.9270001 -0.72,2.458 1.799,1.722 3.539,1.83 z m 119.586,40.9189987 -0.75,0.417 c -1.104,0.174 -2.392,0.048 -3.33,0.747 -1.149,0.856 -0.758,1.905999 0.598,1.832999 0.991,-0.054 2.042,-0.785 2.898,-1.251999 0.356,-0.194 0.838,-0.319 1.083,-0.726 0.276,-0.457 0.355,-1.189 -0.499,-1.019 z m 6.748,29.577992 c 0.924,0.39 1.671,-0.767 2.341,-1.070999 0.478,0.847999 1.267,-0.693 0.994,-1.256 l -1.083,-0.25 c -1.007,-0.502 -2.59,0.308 -2.75,1.419 -0.073,0.501999 0.032,0.960999 0.498,1.157999 z m 1.752,-26.410993 -0.25,0.167 c -0.044,-2.081999 -2.217,-0.75 -2.503,0.5 -0.572,2.491999 2.985,1.872 2.753,-0.667 z m 45.417,-15.215997 c 0.358,-0.264 1.393,-0.035 1.848,-0.198 1.228,-0.438 1.809,-1.696 2.215,-2.791 1.058,-2.854 -2.097,-3.94 -4.44,-4.844 -1.509,-0.583 -3.074,-0.549 -4.315,-1.548 -1.286,-1.035 -1.844,-1.829 -3.638,-2.324 -2.473,-0.682 -4.074,-2.176 -5.945,-4.003 0.642,0.057 3.604,0.176 4.071,-0.198 1.485,-1.189 -0.396,-2.22 -0.931,-2.832 -0.905,-1.0370001 -0.529,-2.4720001 -1.537,-3.0080001 -0.661,-0.352 -1.252,0.134 -1.825,0.052 -1.076,-0.155 -1.208,-0.554 -2.13,-1.06 -1.169,-0.6410004 -2.357,-0.9020004 -3.487,-1.6570005 -1.265,-0.844 -3.002,-1.039 -4.146,-1.832 -0.511,-0.354 -0.237,-0.966 -0.741,-1.287 -0.586,-0.3730001 -1.338,-0.1560001 -1.962,-0.3770001 -1.087,-0.386 -1.741,-1.297 -2.863,-1.624 -0.859,-0.25 -1.723,-0.153 -2.509,-0.538 -1.002,-0.49 -0.663,-0.521 -1.376,-1.4620001 -0.952,-1.254 -3.089,-1.47 -3.726,-2.515 0.188,-0.014 0.367,0.011 0.55,-0.021 -2.441,-1.3590001 -2.979,-4.5390001 -6.032,-5.1400002 -2.304,-0.453 -6.01,-0.234 -8.226,0.3730001 2.068,2.761 -4.468,0.278 -4.848,0.257 -1.734,-0.093 -2.985,2.138 -4.954,1.838 -1.327,-0.202 -1.056,-1.224 -2.367,-1.845 -1.755,-0.8320001 -5.656,-0.033 -7.31,0.758 -2.449,1.171 -3.698,3.6430001 -4.336,6.1350001 -0.559,2.1800001 -1.638,4.0000001 0.135,5.6610002 0.33,0.309 0.904,0.097 1.161,0.657 0.243,0.53 -0.493,1.106 -0.338,1.6880001 0.328,1.2370004 2.237,1.3560004 3.338,2.1120004 0.813,0.558 1.506,1.483 2.48,1.712 1.203,0.283 2.544,-0.33 3.671,-0.619 2.011,-0.516 4.503,-0.746 6.328,0.196 0.991,0.511 1.757,1.242 2.931,1.25 1.078,0.007 1.786,-0.494 3.008,-0.172 1.052,0.2770001 1.487,0.8300001 2.461,1.3050001 0.348,0.169 1.09,0.17 1.442,0.292 0.595,0.205 0.295,0.782 1.197,0.748 3.133,-0.117 1.477,-5.8500001 4.528,-4.5430001 0.882,0.377 1.594,1.527 2.276,2.145 0.895,0.8110001 1.954,1.0750001 2.713,2.0100001 0.645,0.794 0.625,1.699 1.454,2.37 1.077,0.872 2.23,-0.019 2.135,1.68 -0.166,2.983 -3.875,1.138 -5.085,2.381 -2.399,2.463 0.754,3.285 2.801,3.286 3.347,0.001 2.359,-1.398 4.288,-3.216 0.616,-0.58 1.646,-1.214 2.522,-1.125 1.602,0.163 1.617,1.256 2.012,2.327 0.833,2.252 1.439,4.125 -1.318,4.842 -2.861,0.743 -2.257,2.032 -1.52,4.264 0.589,1.78 0.128,1.741 -1.083,1.746 -0.401,0.002 -0.792,-0.397 -1.327,-0.343 -0.463,0.046 -0.819,0.773 -1.428,0.835 -1.238,0.127 -1.928,-1.14 -3.157,-0.997 l -1.333,0.167 c -1.179,0.179 -3.459,2.112 -3.962,2.999 -1.195,2.109 1.857,2.614999 3.292,2.666999 0.926,0.033 1.906,-0.197999 2.837,-0.333999 0.956,-0.14 2.023,-0.025 2.917,-0.16 0.992,-0.149 1.563,-1.04 2.836,-0.663 0.798,0.236 1.816,1.033 2.507,1.478999 1.589,1.028 2.771,2.703 4.885,2.537 -0.227,0.227 -0.34,0.628 -0.786,0.850999 0.564,0.793 1.712,1.385 2.346,2.088 1.317,1.462 1.232,1.253 3.128,1.2 1.716,-0.048 2.097,0.827999 3.401,1.664999 1.29,0.83 2.271,0.521 3.85,0.671 1.388,0.132 2.652,0.637 3.708,1.483 1.498,-2.604 -6.573,-6.187999 -7.27,-7.953998 2.307,-0.221 4.911,1.745999 7.062,2.468999 1.366,0.458 1.534,1.526 2.796,0.838 1.42,-0.773 1.316,-2.565999 0.785,-3.847999 -0.933,-2.25 -3.332,-4.372999 -5.335,-5.644999 -0.861,-0.547 -1.863,-1.234 -2.529,-2.002 -0.618,-0.711 -1.083,-2.957 -0.196,-3.722 1.026,-0.884 2.129,0.472 2.897,1.051 1.24,0.936 2.404,1.067 3.675,1.667 1.686,0.796 3.668,4.914 5.32,1.329 0.365,-0.792 -0.315,-1.03 0.504,-1.634 z"
     stroke="#000"
     fill="#DCCFBE"
     stroke-width="0.5" id="canada"/>
</svg>
