<svg>
<path d="M268.9 181.6c3.8-11.5-.8-20.7-15.3-24.5-.5-.4-.5-1.2-1-1.6-.9-.8-2.3-1.2-3-2.2-.5-.6-.2-.4-.2-1.1 0-.6-.1-.5-.5-1-.5-.6-1.1-1-1.3-1.8-.3-1 0-2.2 0-3.2 0-.7-.1-.7-.5-1.3-.5-.8-.1-.7 0-1.5.3-1.3-1-1.4-2-1.7a11 11 0 0 0-2.9-.5 5.6 5.6 0 0 0-3.2-1.6c-1.7-.4-3.3-.7-4.8-1.6-.3-.2-.4-.6-.7-.7-.4-.1-1 .2-1.4 0-.6-.3-1-1.4-1.6-1.8-1.3-.9-4.3-1.9-5.8-2-2.2-.3-4.4.8-6.5.7 1-2.6.6-3.7-.6-6.1-.5-1-.6-1.7-1.9-1.7-1.5 0-1.2 1.3-2.4 1.7 0-1.5-1.3-2-1.2-3.4.2-1.3.6-2.4.6-3.9 0-.6-.2-1.5.1-2 .3-.6 1.1-1 1.5-1.5.6-1.1.7-2.5 1.8-3.3.6-.5 1.5-.6 2-1.2.3-.4.4-1.2.7-1.7h1c.4-1.8 3.2 0 4-2 .6-1.4-1.1-2.8-2.5-2.8 1.5-.8 3.8.6 5-.4.9-.7.3-1.2 1.7-1.2.4 0 .8.3 1.3.3.5-.1.6-.6 1-.8 1.4-.6 2.3-1 3.3-2.5 1.6-2.2-.8-1.8-2.4-2-1.3-.1-4.3-.4-3.9-2.6 1.6.1 3.3 1.2 4.9 1.4 1.3.1 3-.5 3.7-1.9.5-1.4-.5-.8-1-1.7-.7-1.3.6-1.1 1.4-1.2.7-.1 1.8-.8 2.6-.5.6.3.7 1.3 1.3 1.7.6.5 1.6.6 2.2 0 1-.9.1-1.3-.6-2-.5-.4-1.4-1.2-.2-1.3 1.1-.2.8 1 1.2 1.7 1 1.7 2.9 1.2 4.1.2.7-.6 1.1-1.3 1.8-1.8.6-.5 1.6-.6 1.8-1.5.5-2-3.4-2.5-3.4-4.4 0-1.3 1.3-.6 2-1.1.9-.6.5-1.7-.5-1.9 0-.8 1.5-1 .7-1.8-.3-.3-.8 0-1.1-.2l-1.2-.7c-1.5-.8-3.4-1.1-5-1.4-1.2-.3-4.8-1.1-4 1.1.4 1.2 3 2.6 1.8 4-.6.8-1.8.2-2.3 1.2-.4.8.3 2.1-1.2 2.2-.1-.5-.2-2.4-1.2-1.7-.5.4-.3 2 0 2.5.3.8 1.4.3.5 1.6-.4.6-1.3 1-2 1-1.2 0-.9-.7-1.3-1.6-.4-.7-1-1.1-1.5-1.8-1.4-2.3 2.2-1.5 1.6-3.9-.5-1.8-2.6-2.3-4.3-1.8-2 .7-1.2 2.6-1.9 4.2a7.9 7.9 0 0 1-2.4-3.3c-.3-1.3 1-2.2.6-3.3-.8-2-3.1-.6-4-1.6-.6-.7-.6-2.9-.8-3.7-.3-1-1-2.5-1.6-3.1a6.8 6.8 0 0 0-3.2-1.6c-1-.2-3.3-.1-1.9-1.8.8-1 2.3-.6 2.8-1.9.5-1.3 0-2.7-1-3.6 1.2.6 2.1 1 3.5 1.1 1.5.2 2.3-.5 3.6-1 1.4-.7 2.2-1.3 2.8-2.7.7-1.7-.5-2.2-2-1.8-1.9.4-2.9.4-4.7 0-1.4-.3-3.2-.8-4.6-.7-1.3 0-3.2.8-3.7 2-.5 1 .4 2.6.5 3.8 0 2.4 0 5-1 7-.7 1.3-1.2 1.8-1.3 3.4 0 1.2 0 2.5.4 3.6a4 4 0 0 0 2 2.3c1.3.6 2.7 0 4 .6 2.7 1.1 1.5 4.1-.1 5.7-.8.8-1.8.8-2.9 1.1-1.9.6-.9 1.3-.5 2.7.9 3-3.4 1.3-2.8-1.3 0-.5.3-1 .5-1.5-.5-.5-1.2-.6-1.4-1.3 2 0 3.2-1.9 1.8-3.5-.9-.8-3.5-3-4.7-2.7-.7.1-1.5 1.1-2 1.6-.8.6-1.7.7-2.4 1.3-2 1.5 2.6 1.7 3.3 2.5 1.1 1 0 1-.7 1.6-.6.4-.2.1-.6.8-.3.5 0 .8-.6 1.2-1.4 1-4.8.7-6.4.5-2-.3-4-.6-5.7-1.6-1-.5-1.2-.6-2.5-.3-.3 0-1 .5-1.3.4-.7-.3-.2-.6-.5-1a7 7 0 0 0-5.3-2.5c-1.5 0-2.4.2-3.7 1-.8.4-2.4.7-2.7 1.6.5.3 1 .6 1.3 1h.4c.7 1 2.1 3.8 1.3 5-.7 1-1.4.4-2-.4-.3-.4-.2-.7-.5-1-.4-.3-1.1-.3-1.5-.7-.3-.4 0-.8-.2-1.3-.3-.8 0-.5-.9-1-1-.6-1.7-.6-2.8 0-2.1 1-3.9 1.5-6.2.9-2-.5-5.3 0-7-1.4.8-.8 3.8-1.5 1.8-2.7-.7-.5-1.7-.3-2.4-.6s-1.3-1-2-1.2c-1.6-.7-3.4 0-5-.6l-5.1-1.9c-1.2-.5-2.8-1.2-4.1-1.3-1.2-.2-1.8.5-2.9.7v-.4c-1.5 0-2.8-.2-4 .8l-1.4 1.3a3 3 0 0 1-1.2-2c-.1-.8.5-.8-.2-1.5-.4-.3-.8-.4-1.3-.3-1.1.3-1 1.6-2.2 1.9-2.6.4-3.2-4.5-5.5-4-1 .1-1.2 1.9-2 2.4-.9.6-2 .3-3 .7-1 .5-1.4 1.6-2 2.5-.9 1.2-1.7 1.3-3.2 1.2-.5-2.2 3.7-3.1 4.7-4.5 1.3-1.7-1.3-1.1-2.2-.6-1.4.7-2.6 1.4-4.2 1.6-.7.2-1.5.1-2.1.4-.7.3-1 1-1.7 1-1.1.1-2.7-.8-3.8-.9-1.5-.1-2.7 1-3.8 1.9-1.4 1-2.3 1.1-4 .9-1.6-.2-3.2-.7-4.7-1.3-.7-.3-1.6-.7-2.5-.8a3 3 0 0 0-1.1 0h-2V118h.1v.1c-.7 3.4 3 2.2 4.8 2.9 2.2.7 3.2 2.7 4.5 4.4 2.1 2.9 3.2-1.3 5-2 2.6-1.1 4.2 2.3 5.3 4 1.4 2 3.1 3.6 4.8 5.5 1.6 1.9 3.5 3.2 5.5 4.7 2.5 2 .8 3.8-.2 6.1-.6 1.6-.5 4 .3 5.5.6 1.2 1.5 1.3 2.7 1.8 1.7.6 4.8 1 5.4 3 .4 1 0 2 .6 3l1.3 1.5c.7 1 .3.3.3 1.4 0 3.4 3.7 5 5.9 7.1l1.4 1.4.5.6c.3-.2.7-.4 1.2-.4.8 0 1.3 1 2.2.2.8-.6.5-2.2.8-3v-.3h75.6c.9-1.3 1.3-2.4 2.7-.7 1.2 1.4 2 2 3.9 2.3.7 0 1.2.2 1.7.3l.9-.4 1.4-.3c0 .4.2.7.3 1a7 7 0 0 0 2.5 1.9c.8.2 1.9-.2 2.7-.5l.2-.1c1.7-.8 3-2 4.7-3 2.5-1.6 3.8.9 5.5 2.5 1.6 1.5 4-.4 4.6 2.4.2.9 0 2 .8 2.7a14 14 0 0 0 2.4 1.5c1.2.7 2 1.8 3.4 2.3 1 .4 1.6 0 2.5-.4.9-.4 1.5-.5 2.2-.2l1 .8c.3.6.8 1 1 1.7.1.4.4 1.8.2 2.2-.5.9-1.2 0-1.7-.4a13 13 0 0 1-1.8-1.8c-1.4.8-.5 2.7-.8 4-.4 1.5-1.2 2.3-2.3 3.5l-.6.6v.8c-.3.7-1.1 1.5-1.8 2.2.6.7 2.8-1 3.4-1.3 1.4-.6 2.8-.4 4.2-.7.7-.2 1.4-.3 2-.7l.8-.7c.3-.6 0-.5-.1-1-.3-1.5 1.4-2.2 2.6-2.7.9-.4 1.9-.8 2.8-1 1.4 0 2.8.3 4.1.6h.8c1.2 0 1.7-1.2 2.9-1.4l-15-24.4M161.2 38.5c1.3 1 2.8.7 4.3.5.5 0 2.3.1 2.7-.3.5-.6-.2-1.1-.5-1.8 1-.5 2-.8 3.1-.7 0-.5-.3-1.3-.1-1.2l-.9-.8c1.2 0 2.5-1 2-2.2-.6-2-2-.8-3-.5-3 .8-5.3 0-8.1 1.8 1 1.3 4.5-.2 5.3 1.5-2.2-.1-9 .8-4.8 3.7zm43.3-4.7c.5.6.2 1 1 1.5.7.4 1.4 0 1.9.4.8.1 2.4-.2 3-.3 1.1-.3 1.9-.6 2.1-2.2l-1.3-.8c-1.8-.6-6.6-3.6-8.3-1.2-1 1.4.8 1.7 1.6 2.6zm-2.7-10.3-1-1.3c-1-.2-3.8-1-4.1.5 1.2 1.2 5.6 4.9 5.1.8zm-18 16c1 .5 1.5 1.2 1.9-.3.3-1.3-.7-1.5-1.5-2.2h-1.9c-2.6-.2.9 2.3 1.5 2.6zm-33 8c-.7.9-.4 1.8-2 2-1 3.3 2.6 2 4.6 2.7 1 .4 1.9 1.3 3 .6.8-.5 1.4-1.8 2.1-2.4 1.1.8 1.3 1.2 2.8 1.2 1.2 0 2.5-.3 3.7-.2-.4 1.2-8.7 1.4-6.3 3.4 1.9 1.7 6.5.2 8.3-.9 2.7-1.6 4.4-2.1 7.5-1.5 2.6.5 5 .9 6.9-1.8.6-1 1.4-3.2 0-4-1-.7-3 .8-4.4.6-.5-1-1.3-.3-2-.8-.5-.4-.8-1.2-1-1.9-.4-1.8-.3-2.7-2.7-2.1-1 .3-3.5 1.2-3 2.8.8 2.1 2.7.4 1.9 3.3.7.2 1.5.4 2 .9-1.1.6-2.5.3-3.5-.3-.6-.3-1-1-1.6-1.2-.5-.2-1.3-.1-1.7-.4-.8-.5-1-1.5-2-1.8-1.1-.4-2.4.2-3.6-.3l-2.1-1c-.9-.2-2-1.3-3-1-1.1.3-1.1 1.9-1.7 2.6-.6.7-1.5.7-2.1 1.5zm32.4-17.7c1.3.8 4.5 0 4.4 2.2-1.2.4-2.5.1-3.7 0-.6 2.7 5.4 2 6.6 1.8 2.4-.4 4.6 1.5 6.6 2.6 2.4 1.4 3.7-2.2 2.1-4-1.8-2.2-3-2.6-5.7-3-.5-.1-.6-.6-1.2-.5-.2 0-.6.5-.6.5-.2 0-.3.6-.7.5-.4 0-.3-.8-.6-1-1.2-1-2.3-2.4-4-2.2l-1.6.2c-2.5 0-4.6 1.2-1.6 2.9zm-35.5 16.4c-.5-.8-5 .7-3.4 2.6 1.4 1.6 4.9-.5 4.5-2.4zm-9.6 1.3c.8 0 1.3-.1 2 .1.8.3.9 1 2 .7 1.2-.4 1.2-2.3 1.9-3.3 1.2-1.8 1.8-1 3.5-.6 1.3.3 3.1-.3 3.2-2 1.4.2 2.6-.8 2.6-2.2l-1.1-1c.7-1.9-2.7-1.6-3.7-1.3a161 161 0 0 1-6.3 1.8c-1.2.3-3 1.1-3.8 2-.5.8-.3 1.3-1.1 1.8-.6.3-1.3.2-2 .4-1 .4-3 1.6-2 3 .8 1.3 3.6.7 4.8.6zm-9.8 20.9c2.5.1 2.4 1.2 3.7 2.8 1.5 1.6 3 .7 4.6-.2 1.4-.8 3.6-.3 4.2-1.5.5-.7 0-1.7.4-2.5.4-.6 1.6-1.3 2.1-1.8 1.6-1.3 4.2-1.7 2.4.8-1.3 1.8-2.5 4.7 1.3 3.6.4.5.6 1.3.7 2 2 0 3.7-1.4 5.8-1.4.2 2.5-4.7 3-5.2 5-.1.7.6 2.3 1.2 2.7L152 79c1.1.7 1.9 1.2 3.2 1.4 1.4.2 2 0 3.1.8 2.2 1.4 3.4 3 6 3 2.5 0 5.3.4 7.6-.8l5.5-2.8c1.4-.8 1.3-.6 2.7-.2 1.2.4 3 .4 4 .8 1.3.6 1.7 1.8 3 2a9 9 0 0 0 4-.6c1-.6 1.5-2.4.2-3.2-.8-.6-3.3 1-2.3-.9 1.3-2.6 4.3.4 5.8.9 1-2.6-2-4-4-5-1.5-.8-5.7-1-6.1-2.7-.4-1.4.7-1.8 0-3.2-.5-1-1.4-1.6-1.7-2.6-.6-1.6.1-1.4.6-2.6.5-1.2 0-2-.4-3-.8-1.8-4.6-4.3-5.4-1-2 0-4.6 3-3.6 4.8.7 1.3 2.5 2.2 2.3 3.8-.2 1.9-1.5 1.4-2.3.6-1.4-1.3-1.9-5.4-4.7-4.6-1.5.4-1.2 2-3 1-1-.5-1.2-1.3-2.4-1.5-1-.2-3.2-.5-4.3-.1-1.7.6-1.6 1.6-3.8 1.6 0-1.2 1.8-1.5 1.5-2.9-.2-1-1.5-1-2.5-1-1.5-.3-1.1-.2-1.9-1.6a6 6 0 0 0-2.3-2.6c-2-1.2-4.2-.4-6.1-.1-2.3.4-4-1.4-6.4-1.5-2 0-4.7-1.8-6.5-.7l-1.6.9c-2.3-1 0 3.6 0 4-.3 1.6-2.6 1.7-3 3.2-.4 1 0 1-.9 2-.6.7-1.2 1-1.5 2-.7 2.4 1.8 1.7 3.5 1.8zm119.6 40.9-.7.4c-1.1.2-2.4 0-3.4.8-1.1.8-.7 1.9.6 1.8 1 0 2-.8 3-1.3.3-.2.8-.3 1-.7.3-.4.4-1.2-.5-1zm6.8 29.6c.9.4 1.6-.8 2.3-1.1.5.8 1.3-.7 1-1.3l-1-.2c-1-.5-2.7.3-2.8 1.4-.1.5 0 1 .5 1.2zm1.7-26.4-.2.1c0-2-2.2-.7-2.5.5-.6 2.5 3 1.9 2.7-.6zm45.4-15.3c.4-.2 1.4 0 1.9-.2 1.2-.4 1.8-1.6 2.2-2.7 1-2.9-2-4-4.4-4.9-1.5-.6-3.1-.5-4.4-1.5-1.2-1-1.8-1.9-3.6-2.4-2.5-.6-4-2.1-6-4 .7 0 3.7.2 4.1-.2 1.5-1.1-.4-2.2-.9-2.8-.9-1-.5-2.5-1.5-3-.7-.4-1.3.1-1.9 0-1-.1-1.2-.5-2-1-1.3-.6-2.4-1-3.6-1.7-1.2-.8-3-1-4.1-1.8-.5-.4-.3-1-.8-1.3-.5-.4-1.3-.1-2-.4-1-.3-1.7-1.3-2.8-1.6-.8-.2-1.7-.1-2.5-.5-1-.5-.7-.5-1.4-1.5-1-1.2-3-1.5-3.7-2.5h.6c-2.5-1.4-3-4.6-6-5.2-2.4-.4-6-.2-8.3.4 2 2.8-4.5.3-4.9.3-1.7-.1-3 2.1-5 1.8-1.2-.2-1-1.2-2.3-1.8-1.7-.9-5.6 0-7.3.7-2.4 1.2-3.7 3.7-4.3 6.2-.6 2.1-1.7 4 .1 5.6.3.3 1 .1 1.2.7.2.5-.5 1-.4 1.7.4 1.2 2.3 1.3 3.4 2 .8.6 1.5 1.6 2.5 1.8 1.2.3 2.5-.3 3.6-.6 2-.6 4.5-.8 6.4.2 1 .5 1.7 1.2 2.9 1.2 1 0 1.8-.5 3-.2 1 .3 1.5.9 2.5 1.3.3.2 1 .2 1.4.3.6.2.3.8 1.2.8 3.1-.1 1.5-5.9 4.5-4.6 1 .4 1.6 1.6 2.3 2.2.9.8 2 1 2.7 2 .7.8.6 1.7 1.5 2.4 1 .8 2.2 0 2.1 1.6-.2 3-3.9 1.2-5 2.4-2.5 2.5.7 3.3 2.7 3.3 3.4 0 2.4-1.4 4.3-3.2.6-.6 1.7-1.2 2.5-1.1 1.6.1 1.6 1.2 2 2.3.9 2.3 1.5 4.1-1.3 4.8-2.8.8-2.2 2-1.5 4.3.6 1.8.1 1.7-1 1.8-.5 0-.9-.4-1.4-.4-.5 0-.8.8-1.4.8-1.3.2-2-1.1-3.2-1l-1.3.2c-1.2.2-3.5 2.1-4 3-1.2 2.1 1.9 2.6 3.3 2.7 1 0 2-.2 2.8-.4l3-.1c1-.2 1.5-1 2.8-.7.8.3 1.8 1 2.5 1.5 1.6 1 2.8 2.7 4.9 2.5-.2.3-.4.7-.8.9.6.8 1.7 1.4 2.3 2 1.4 1.5 1.3 1.3 3.2 1.3 1.7 0 2 .8 3.4 1.6 1.3.9 2.2.6 3.8.7a7 7 0 0 1 3.7 1.5c1.5-2.6-6.5-6.2-7.2-8 2.3-.2 4.9 1.8 7 2.5 1.4.5 1.6 1.5 2.8.8 1.4-.7 1.3-2.5.8-3.8-1-2.2-3.3-4.4-5.3-5.6-.9-.6-1.9-1.3-2.6-2-.6-.8-1-3-.2-3.8 1-.9 2.2.5 3 1 1.2 1 2.3 1.2 3.6 1.8 1.7.7 3.7 4.9 5.3 1.3.4-.8-.3-1 .5-1.7z" fill="#DCCFBE"
     stroke="#000"
     stroke-width="0.5" id="canada"/>
</svg>
