<svg>
<path
   fill="#4c85f2"
   stroke="#000"
   stroke-width="0.5"
   d="m 618.983,124.91126 c 0.463,1.33 2.986,2.586 2.216,3.94 0.546,0.22 0.279,0.269 -0.306,0.24 -0.233,0.107 -0.514,0.169 -0.66,0.356 -0.345,0.443 -0.372,0.727 -0.384,1.25 -0.026,1.139 0.584,1.312 -0.149,2.188 -0.656,0.783 -0.802,0.546 -0.999,1.69 -0.082,0.47 -0.125,1.042 -0.316,1.431 0.089,0.15 0.149,0.366 0.313,0.816 0.256,0.703 0.359,1.309 1.034,1.847 0.581,0.464 0.914,0.338 1.626,0.619 0.653,0.257 0.798,0.733 1.246,1.137 1.19,1.069 2.312,0.843 3.939,1.179 1.6,0.33 2.932,0.643 4.501,-0.188 0.38,-0.201 0.201,-0.595 0.652,-0.72 0.32,-0.089 0.906,0.314 1.071,0.244 0.688,-0.296 0.428,-0.808 10e-4,-1.254 -1.403,-0.726 0,-3.692 -0.196,-4.986 -0.199,-1.314 -0.955,-1.276 -1.624,-2.154 -0.674,-0.884 -0.138,-1.362 0.362,-2.349 -0.616,-0.119 -1.949,-0.026 -2.491,-0.369 -0.957,-0.604 -0.252,-0.978 0.031,-1.748 0.312,-0.848 0.562,-1.708 0.479,-2.638 -0.052,-0.586 -0.896,-1.654 -0.617,-2.218 0.052,-0.106 0.144,-0.208 0.263,-0.305 -0.148,-0.37 -0.236,-0.757 -0.223,-1.176 0.053,-1.593 0.561,-2.037 -1.308,-2.727 -1.842,-0.681 -1.891,-0.434 -2.479,-2.381 -0.405,-1.342 -1.447,-2.096 -1.957,-3.366 0.678,0.874 1.865,0.668 2.924,0.63 -0.165,-1.37 -1.486,-2.636 0.428,-3.447 0.939,-0.398 2.95,-0.371 3.993,-0.314 -2.605,-2.093 1.177,-3.489 -0.447,-5.039 -0.814,-0.776 -2.062,-0.341 -2.896,-0.081 -0.521,0.163 -0.708,0.673 -1.303,0.664 -0.473,-0.007 -0.759,-0.658 -1.152,-0.665 -1.557,-0.024 -3.156,2.026 -5.197,1.818 0,0 -2.034,0.862 -4.284,1.612 -2.25,0.75 0,0 -2,2.5 -2,2.5 0,0 2.1,3.869 2.1,3.869 -0.85,2.131 0,4.682 0.33,0.991 1.069,2.524 1.943,4.068 0.097,-0.047 0.202,-0.09 0.333,-0.118 1.218,-0.263 1.232,0.597 1.533,1.463 z"
   id="caspiansea" />
</svg>
