<svg>
<path
   fill="#FFF"
   stroke="#000"
   stroke-width="0.5"
   d="M618.983,193.175  c0.463,1.33,2.986,2.586,2.216,3.94c0.546,0.22,0.279,0.269-0.306,0.24c-0.233,0.107-0.514,0.169-0.66,0.356  c-0.345,0.443-0.372,0.727-0.384,1.25c-0.026,1.139,0.584,1.312-0.149,2.188c-0.656,0.783-0.802,0.546-0.999,1.69  c-0.082,0.47-0.125,1.042-0.316,1.431c0.089,0.15,0.149,0.366,0.313,0.816c0.256,0.703,0.359,1.309,1.034,1.847  c0.581,0.464,0.914,0.338,1.626,0.619c0.653,0.257,0.798,0.733,1.246,1.137c1.19,1.069,2.312,0.843,3.939,1.179  c1.6,0.33,2.932,0.643,4.501-0.188c0.38-0.201,0.201-0.595,0.652-0.72c0.32-0.089,0.906,0.314,1.071,0.244  c0.688-0.296,0.428-0.808,0.001-1.254c-1.403-0.726,0-3.692-0.196-4.986c-0.199-1.314-0.955-1.276-1.624-2.154  c-0.674-0.884-0.138-1.362,0.362-2.349c-0.616-0.119-1.949-0.026-2.491-0.369c-0.957-0.604-0.252-0.978,0.031-1.748  c0.312-0.848,0.562-1.708,0.479-2.638c-0.052-0.586-0.896-1.654-0.617-2.218c0.052-0.106,0.144-0.208,0.263-0.305  c-0.148-0.37-0.236-0.757-0.223-1.176c0.053-1.593,0.561-2.037-1.308-2.727c-1.842-0.681-1.891-0.434-2.479-2.381  c-0.405-1.342-1.447-2.096-1.957-3.366c0.678,0.874,1.865,0.668,2.924,0.63c-0.165-1.37-1.486-2.636,0.428-3.447  c0.939-0.398,2.95-0.371,3.993-0.314c-2.605-2.093,1.177-3.489-0.447-5.039c-0.814-0.776-2.062-0.341-2.896-0.081  c-0.521,0.163-0.708,0.673-1.303,0.664c-0.473-0.007-0.759-0.658-1.152-0.665c-1.557-0.024-3.156,2.026-5.197,1.818  c0,0-2.034,0.862-4.284,1.612s0,0-2,2.5s0,0,2.1,3.869s-0.85,2.131,0,4.682c0.33,0.991,1.069,2.524,1.943,4.068  c0.097-0.047,0.202-0.09,0.333-0.118C618.668,191.449,618.682,192.309,618.983,193.175z"
   id="caspiansea" />
</svg>
