<svg>
<path
   id="chennai"
   d="m 721.649,196.43726 c -0.13527,0.0551 -11.2408,-10.62594 -11.2408,-10.62594 l -22.13301,25.01521 21.93025,-25.25279 M 688.243,210.96926 c 1.705,3.453 1.89,7.348 3.749,10.553 1.215,2.094 1.737,4.287 2.558,6.583 0.388,1.084 0.531,2.306 0.942,3.299 0.655,1.58 1.302,1.259 2.937,1.344 0.828,1.985 3.415,0.272 4.036,-1.142 0.646,-1.469 0.612,-3.619 1.976,-4.781 0.858,-0.732 1.75,-0.42 2.098,-1.667 0.257,-0.919 -0.478,-1.771 -0.499,-2.669 -0.048,-2.016 1.257,-3.531 1.148,-5.607 -0.092,-1.748 -1.417,-4.402 -0.845,-5.956 0.368,-1 1.066,-1.147 2.07,-1.516 0.805,-0.296 1.647,-1.144 2.284,-1.351 1.044,-0.34 1.871,0.602 2.695,-0.615 0.666,-0.985 0.102,-1.636 1.059,-2.559 1.425,-1.375 3.562,-2.092 4.599,-3.959 0.835,-1.504 0.619,-3.852 2.599,-4.489 m -33.37379,14.38927 22.133,-25.0152 11.24082,10.62595"
   fill="#8f8f8f"
   stroke="#000000"
   stroke-width="0.5"/>
</svg>
