<svg>
<path
     fill="#ef7f72"
     stroke="#000000"
     stroke-width="0.5"
     d="m 244.826,124.19326 c -0.377,-0.589 0.04,-1.242 0.618,-1.907 -0.084,-0.108 -0.131,-0.271 -0.121,-0.513 0.034,-0.84 1.049,-1.759 1.853,-2.501 -0.024,-0.652 -0.201,-1.287 -0.223,-1.955 -0.046,-1.396 0.155,-1.466 -1.267,-1.016 -3.459,1.097 -0.975,-1.741 -0.653,-3.347 0.402,-2.003 -0.383,-3.515 -2.396,-3.635 -2.506,-0.149 -3.13,1.799 -4.943,3.134 -1.576,1.16 -2.206,3.399 -1.831,5.261 0.34,1.687 0.72,3.84 -0.787,5.203 -1.886,1.705 -2.888,-1.19 -2.878,-2.724 0.013,-1.895 1.336,-3.361 1.158,-5.283 -0.194,-2.086 -0.669,-2.98 0.874,-4.686 0.699,-0.773 1.185,-1.241 2.181,-1.403 0.96,-0.155 1.971,0.094 2.913,-0.124 2.082,-0.48 2.624,-2.451 0.025,-2.625 -1.222,-0.082 -2.312,0.788 -3.516,0.753 -0.933,-0.027 -1.598,-0.636 -2.383,-1.096 -0.961,-0.563 -1.356,-0.794 -1.875,-1.65 -0.28,-0.46 0.066,-0.701 -0.5,-1.01 -0.541,-0.295 -0.927,0.031 -1.439,0.189 -1.799,0.555 -3.241,1.678 -5.191,1.803 -0.894,0.057 -1.832,0.035 -2.726,-0.011 0.354,-1.562 4.105,-2.593 4.161,-4.107 -0.788,0.335 -1.885,0.743 -2.646,0.473 -0.665,-0.236 -2.11,-1.266 -2.484,-1.873999 -0.011,-0.018 -0.017,-0.042 -0.027,-0.061 -0.033,-0.012 -0.065,-0.016 -0.099,-0.029 -0.551,-0.212 -1.089,-0.425 -1.639,-0.615 -0.321,0.089 -0.626,0.209 -0.899,0.393 -0.463,-0.125 -1.016,-0.202 -1.689,-0.286 -1.896,-0.237 -2.653,-0.87 -3.871,-2.296 -1.451,-1.698999 -1.857,-0.592999 -2.771,0.646 h -37.7575 l 1.68004,33.231159 c 21.52368,6.59693 50.2003,15.31616 50.2003,15.31616 l 20.94816,-21.64832 -20.94816,21.64832 -50.2003,-15.31616 c 0,0 1.05578,21.67659 0,0 l 50.15106,15.19522 z"
     id="chicago"/>
</svg>
