<svg>
<path
   fill="#ebe084"
   stroke="#000000"
   stroke-width="0.5"
   d="m 789.77865,137.45883 -21.24289,60.86849 -31.50402,-17.13759 -0.023,-47.26993 -0.31418,40.95251 19.38121,14.16695 -19.38121,-14.16695 0.31418,-40.95251 c 0,0 12.76016,0.26674 26.99775,1.36736 8.93914,0.69103 18.46069,2.62974 25.77213,2.17167 0.6345,12.01257 -1.70661,37.87229 -12.9792,33.67313 0.034,1.996 -0.93963,3.60684 -1.90763,4.99484 m -12.84399,15.42046 c -0.756,-0.463 -1.53,-0.625 -2.169,-0.138 -0.704,0.537 -1.198,2.872 -1.516,0.53 -0.162,-1.195 0.925,-1.983 0.201,-3.094 -0.633,-0.972 -1.541,-0.537 -2.488,0.194"
   id="chongqing"/>
</svg>
