<svg>
<path
   id="colombia"
   d="m 121.7012,226.53321 c 0.0203,-0.12316 0.0402,-0.23807 0.0644,-0.36914 -0.23045,-0.0812 -0.49116,-0.28568 -0.74218,-0.33789 -0.22394,-0.0461 -0.48027,0.057 -0.68555,-0.0176 0.0187,-0.007 0.0378,-0.0151 0.0566,-0.0234 -0.006,-0.003 -0.0116,-0.01 -0.0176,-0.0137 l 0.0274,0.008 c 0.52213,-0.23734 1.07739,-0.81152 1.10547,-1.29297 0.0211,-0.35492 -0.14891,-0.6829 -0.0898,-1.05469 0.0527,-0.33382 0.32885,-0.70784 0.3125,-1.05273 -0.008,-0.17825 -0.22581,-0.67155 -0.48633,-0.70899 l -2e-5,-1.8e-4 c -0.34331,-0.0501 -0.53647,0.56052 -0.70312,0.75196 -0.16374,0.18763 -0.40983,0.26005 -0.60547,0.39843 -0.10864,-0.22694 -0.29328,-0.32564 -0.69141,-0.35351 -0.4124,-0.0295 -0.86248,-0.1218 -1.24218,-0.0332 -0.0712,0.0158 -0.57553,0.20635 -0.61719,0.26172 -0.13712,0.18353 0.0192,0.50054 -0.0156,0.73047 -0.2294,-0.0206 -0.48538,0.0209 -0.60351,0.22656 0.35755,0.35861 0.90812,0.44713 1.09375,0.96289 0.22096,0.61386 -0.0552,0.77402 -0.56836,0.88477 -0.4008,0.0865 -0.99292,0.16587 -1.3125,0.45117 -0.36705,0.32644 -0.29516,0.89313 -0.31836,1.35352 -0.0274,0.55848 -0.16877,0.73028 0.31641,1.08203 0.35597,0.25841 0.70316,0.48537 1.13086,0.58398 0.4799,0.11022 0.93417,0.13797 1.43359,0.17383 0.4509,0.0322 1.5735,-0.0234 1.97851,-0.26758 m -0.11721,-3.09766 c -0.003,0.002 -0.006,0.004 -0.01,0.006 0.0313,0.016 0.0657,0.0252 0.10352,0.0215 z m 7.39439,1.28715 c 0.19357,0.067 0.59395,0.1981 0.80078,0.32617 0.0752,-0.0252 0.14696,-0.0588 0.21875,-0.0937 -0.0102,-0.12716 -0.0708,-0.26383 -0.14453,-0.3711 -0.29796,-0.43402 -0.56467,-0.0757 -0.95703,-0.38476 -0.12288,-0.097 -0.10822,-0.27609 -0.27539,-0.39844 -0.12921,-0.0949 -0.3432,-0.11646 -0.48243,-0.18555 -0.33382,-0.16559 -0.58076,-0.37277 -0.96679,-0.41601 -0.44826,-0.0512 -0.66868,0.22886 -1.07422,0.26367 -0.4625,0.0396 -0.66619,-0.047 -1.125,0.11914 -0.25261,0.0907 -0.37563,0.15192 -0.65039,0.14453 -0.28953,-0.007 -0.34208,-0.12882 -0.58203,-0.20898 -0.34056,0.11865 -0.61772,0.36429 -0.85938,0.67187 l 1.4e-4,-9e-5 m 0.5586,4.12891 c -0.0324,-0.34155 0.19098,-0.57215 0.13476,-0.84961 -0.002,-0.0101 -0.004,-0.0175 -0.006,-0.0273 -0.0238,-0.0891 0.10752,0.13192 0.006,0.0273 m 6.42383,-2.51367 c 10e-4,0.0138 0.002,0.0275 0.002,0.041 l 0.0176,-0.0508 c -0.007,0.003 -0.013,0.007 -0.0195,0.01 z m 0.0195,-0.01 c 0.0303,-0.0153 0.0622,-0.0258 0.0918,-0.043 0.028,-0.0691 -0.0176,-0.0594 -0.0371,-0.12109 z m -0.0176,0.0508 -0.0605,0.17969 c 0.0454,-0.0512 0.0589,-0.11397 0.0605,-0.17969 z m -6.10351,3.19332 c -0.23204,-0.15715 -2.08291,-1.40812 -2.19524,-1.65599 -0.065,-0.14338 1.81485,0.68159 1.86715,0.90795 0.002,0.009 -1.86915,-0.91675 -1.86715,-0.90795 0.0783,0.34865 2.02598,1.77616 1.73839,1.78486 0.038,0.39974 0.33274,0.69735 0.63281,0.90039 0.65762,0.44615 1.19484,1.01605 1.74804,1.57031 0.1314,0.13174 0.36229,0.37823 0.58204,0.53125 0.0168,-0.0101 0.0244,-0.0287 0.043,-0.0371 0.0321,-0.0146 0.0694,-0.0173 0.10352,-0.0273 0.0277,0.0613 0.0443,0.11082 0.0762,0.16992 0.0329,0.008 0.0702,0.0308 0.0996,0.0273 0.0119,-0.0789 0.002,-0.1582 -0.0156,-0.23829 0.20033,-0.0271 0.41827,-0.02 0.62109,-0.0566 0.0313,0.11649 0.0798,0.22708 0.17188,0.32227 0.0766,0.0792 0.13869,0.11913 0.19921,0.14258 0.10694,-0.14132 0.18462,-0.31507 0.22071,-0.47852 0.032,-0.14485 0.0205,-0.27047 -0.0117,-0.38672 0.1722,-0.35516 -0.0527,-0.77743 0.27148,-1.09961 l 0.79102,1.31836 c 0.0488,0.31363 0.23068,0.55786 0.43945,0.78711 5.4e-4,-0.34652 -0.25264,-0.94215 -0.30859,-1.22656 -0.12288,-0.6244 0.27312,-1.04574 0.38281,-1.62109 0.0986,-0.51735 0.0531,-1.04176 0.19336,-1.53907 0.14344,-0.50891 0.34977,-0.84308 0.34766,-1.41211 -0.001,-0.28688 0.0769,-0.64278 -0.13086,-0.85742 -0.0192,-0.0199 -0.0845,-0.0384 -0.11719,-0.0586 l -2.8e-4,10e-6 c -0.13109,0.044 -1.23469,-1.55478 -2.75829,-1.84999 -1.25983,-0.24411 -3.6306,-0.35202 -4.89774,0.34017 -0.48027,0.26236 -0.84109,0.0986 -0.8446,1.78156 m 8.13344,6.4431 c -7e-5,0.0454 0.0104,0.10176 0,0.13672 -0.14766,0.49731 -0.82731,-0.23767 -1.1875,-0.26562 -0.24379,-0.0184 -0.3736,0.0463 -0.52344,-0.0117 -0.12906,0.17056 -0.30414,0.2934 -0.53515,0.27148 -0.24279,-0.0233 -0.41102,-0.22787 -0.54102,-0.46875 -0.0708,-0.0175 -0.14328,-0.0502 -0.22265,-0.10547 -0.30818,0.18582 -0.33919,0.64352 -0.26368,1.01758 0.077,0.38234 1.10349,1.88608 1.34766,0.88672 0.45195,-0.0796 0.45843,0.50308 0.70313,0.68555 0.14871,0.11022 0.37065,0.0191 0.52148,0.0977 0.2062,0.10811 0.24812,0.27767 0.37891,0.45117 0.21758,0.28946 0.53932,0.93605 0.90234,1.23633 -0.002,-0.0318 -0.01,-0.0598 -0.002,-0.0977 0.75835,0.0686 1.51449,-0.28993 1.54297,-0.85157 0.009,-0.17931 -0.8405,-0.77527 -0.69336,-0.86914 0.0438,-0.028 0.084,-0.0311 0.125,-0.0371 -0.22489,-0.51583 -0.61571,-0.86386 -0.9375,-1.36718 -0.16637,-0.26041 -0.40451,-0.47759 -0.61524,-0.70899 z m 16.17775,2.28515 c -0.23834,-0.26484 -0.45767,-0.52976 -0.40039,-0.69141 0.21991,-0.49203 -1.34112,-0.98724 -1.18555,-1.50195 l 2.76758,-1.51563 c 0.15378,0.0115 0.27637,0.0928 0.3789,0.20899 0.45183,-0.33666 1.64728,-1.2087 0.39063,-1.15625 -1.03153,0.0427 -1.24076,1.33798 -2.17578,1.54101 -0.48149,0.10442 -0.81961,-0.006 -1.29688,0.19922 -0.16928,0.0733 -0.41853,0.10822 -0.5625,0.22266 -0.17192,0.13711 -0.21261,0.36952 -0.41406,0.49609 -0.17087,-0.44773 -0.86587,-0.36773 -1.08789,0.002 -0.20673,0.34384 -0.025,0.93849 -0.10938,1.32031 -0.16032,0.72724 -1.11953,1.03927 -1.58203,1.64258 -0.318,0.41398 -0.24369,0.87495 -0.26953,1.38281 -0.37804,0.0139 -0.5347,-0.35139 -0.79492,-0.56055 -5.9e-4,-0.001 -0.001,-0.003 -0.002,-0.004 -0.18722,-0.40502 -0.47866,-0.74611 -0.84571,-1.0293 -0.35702,-0.27581 -0.81596,-0.53425 -1.23047,-0.63867 -0.44668,-0.1118 -0.9243,-0.0264 -1.30664,-0.0918 -1.06475,-0.18141 -1.52708,0.88618 -2.47265,1.15039 -0.30007,0.0839 -0.41411,0.1155 -0.6836,-0.0527 -0.2679,-0.16665 -0.17363,-0.27899 -0.52539,-0.28321 -0.20831,-0.003 -0.45014,0.22224 -0.64843,0.0566 -0.15821,-0.13184 -0.0423,-0.44288 -0.13086,-0.60742 -0.0773,-0.14404 -0.24054,-0.32749 -0.4375,-0.29883 l 4e-5,8e-5 c 0.0423,0.0971 0.089,0.18871 0.11718,0.30079 0.14661,0.58221 0.12395,1.67107 -0.70507,1.71484 -0.13179,0.007 -0.26034,-0.0572 -0.38477,-0.16016 0.0228,0.41125 0.77423,0.34485 1.04688,0.29492 0.56955,-0.10389 0.76184,-0.19736 1.10937,0.30469 0.12815,0.18511 0.19755,0.41039 0.38477,0.53906 0.30165,0.20726 0.39702,0.0138 0.62695,-0.0137 0.27054,-0.0332 0.15827,-0.12568 0.39453,0.21289 0.0991,0.14186 0.20585,0.37974 0.35352,0.48047 0.42136,0.28742 1.10111,-0.0463 1.12695,-0.55469 -0.28214,-0.0258 -0.85713,-0.35731 -0.88086,-0.68164 -0.0306,-0.42347 0.61212,-0.31682 0.88477,-0.53515 0.34384,-0.27582 0.31927,-0.79797 0.83398,-0.88867 0.47041,-0.0828 0.58555,0.33114 0.90039,0.56054 0.33593,0.2447 1.00232,0.0715 1.21484,0.35157 -0.31167,0.24628 -0.61845,0.2356 -0.62109,0.74609 -0.002,0.3913 0.256,0.68927 0.57031,0.88281 0.12646,0.0779 0.25171,0.1153 0.37696,0.15625 -0.16512,0.23003 -0.0793,0.2518 0.16406,0.57617 0.17878,0.23785 0.40965,0.53628 0.42969,0.82422 0.0237,0.34015 -0.11911,0.67776 -0.13282,1.0332 -0.0153,0.40028 0.13676,0.73009 0.17578,1.09766 0.0417,0.39025 -0.007,0.74192 0.0918,1.1211 0.0949,0.36546 0.26572,0.74508 0.25781,1.12109 -0.009,0.43349 -0.33967,0.61311 -0.6582,0.87891 -0.12077,0.10072 -0.34201,0.12311 -0.39844,0.30664 -0.0427,0.13922 0.17284,0.36194 0.12696,0.56445 -0.77681,0.48834 -1.61271,0.29018 -1.44922,1.4082 -0.36547,-0.049 -0.69372,0.24682 -0.46485,0.56641 0.14292,0.19934 0.58154,0.24568 0.7793,0.36328 0.0131,0.008 0.0241,0.0193 0.0371,0.0273 -0.43485,0.30857 -0.93201,0.55988 -1.18164,0.63282 -0.90707,0.26632 -0.91757,0.65753 -1.05469,1.61523 -0.12024,0.84273 -0.48594,0.82776 -0.90625,1.49805 -0.38023,0.60647 -0.0507,1.3395 -0.0976,2.02929 -0.0332,0.48835 -0.16483,0.78059 0.4121,0.85547 0.42243,0.0548 0.8962,-0.26025 0.86719,-0.71484 0.87701,0.009 0.16009,1.37033 -0.0762,1.73633 -0.44879,0.69559 -1.30312,0.67124 -1.32422,1.7207 -0.0332,1.62587 2.28016,2.66753 3.51367,3.25977 3.14311,1.50985 5.2848,-3.18703 5.90235,-5.5586 0.23362,-0.89758 0.66187,-1.81734 0.74414,-2.74023 0.01,-0.1106 0.007,-0.23365 0.0137,-0.34766 0.0274,0.0577 0.047,0.12165 0.082,0.17383 0.1677,0.24997 0.43255,0.30349 0.61133,0.48437 0.33751,0.34121 0.40646,1.34066 0.95703,1.52735 0.33119,0.11233 0.76962,-0.24726 1.07813,-0.31055 0.31747,-0.0649 0.66166,-0.0288 0.9707,0.043 0.12498,0.029 0.30607,0.14715 0.42578,0.125 0.0944,-0.0174 0.25822,-0.21894 0.4043,-0.25586 0.29216,-0.0744 0.87695,0.10008 0.98242,0.42969 0.17139,0.53158 -0.65943,1.48428 -0.88672,1.93359 0.19934,0.23784 0.44333,0.11789 0.6875,0.24024 0.16876,0.0844 0.32521,0.26194 0.47656,0.39062 0.0928,-0.1329 0.17471,-0.32329 0.26172,-0.61914 0.3681,-1.24828 0.70072,-2.7784 0.44336,-4.1543 -0.22729,-1.21769 -1.45863,-3.14998 0.73047,-3.10937 0.23679,-1.01624 -0.80541,-0.35065 -1.17774,-0.61328 -0.76151,-0.53792 0.40501,-0.79401 0.75782,-0.82617 0.5975,-0.0549 0.98285,-0.30172 1.48437,-0.39454 0.12621,-0.0235 0.22156,-0.0566 0.32813,-0.0859 0.40881,-0.70173 0.88216,-1.33922 0.14062,-1.64063 m -2e-5,-1e-5 c 0.52157,0.18142 0.97247,0.41219 1.32422,0.87891 0.23995,0.318 0.52669,1.48239 0.23242,1.77929 -0.11233,-0.16031 -0.27444,-0.27777 -0.49804,-0.28515 -0.13817,-0.23415 -0.18284,-1.03506 -0.54883,-0.9375 0.0427,-0.0248 0.0871,-0.0467 0.13086,-0.0684 -0.26661,0.11096 -0.50978,0.19865 -0.78125,0.27344 -0.32007,0.5494 -0.60288,1.13783 -0.22656,1.64453 0.42189,0.5685 0.66602,1.17137 0.79101,1.86328 0.0765,0.42242 -0.03,0.78663 0.30273,1.05664 0.69402,0.56428 3.07241,0.28235 3.9336,0.16211 1.45606,-0.20409 3.39687,-0.92833 4.40625,-2.04688 0.9208,-1.02082 2.17019,-2.00302 2.81445,-3.25195 -0.005,-0.0118 -0.0151,-0.0256 -0.0195,-0.0371 2.46945,-2.93087 0.32209,-0.4676 0,0 -0.0661,0.19954 0.11582,-0.14955 0.0195,0.0371 0.32662,0.79072 1.72803,2.09765 2.58594,1.58789 0.5358,-0.31853 0.68595,-0.85744 1.37891,-0.92969 0.55479,-0.0575 1.10958,0.16919 1.66015,0.008 0.0264,-0.008 0.0518,-0.0109 0.0781,-0.0215 -0.057,-0.19354 -0.16812,-0.36322 -0.37696,-0.46289 0.006,-0.0612 0.0294,-0.11285 0.0605,-0.1582 0.005,-0.008 0.008,-0.0161 0.0137,-0.0234 0.0322,-0.0401 0.0731,-0.0726 0.1211,-0.10156 0.0132,-0.008 0.0287,-0.0161 0.043,-0.0234 0.048,-0.0248 0.0988,-0.0456 0.15624,-0.0625 0.0253,-0.008 0.0532,-0.0132 0.0801,-0.0195 0.0348,-0.008 0.071,-0.0132 0.10742,-0.0195 0.0759,-0.0127 0.15332,-0.0215 0.23243,-0.0273 0.28952,-0.0216 0.58431,-0.009 0.75781,-0.01 0.47332,-0.005 0.90438,0.11191 1.32226,0.22461 0.0871,-0.24517 0.19351,-0.49111 0.28126,-0.70899 -0.0878,0.21833 -0.19229,0.46271 -0.2793,0.70899 -6.1e-4,-1.7e-4 -10e-4,1.7e-4 -0.002,0 0.0155,0.004 0.0314,0.01 0.0469,0.0137 0.0247,0.007 0.0494,0.0127 0.0742,0.0195 0.0812,0.0211 0.16203,0.041 0.24219,0.0606 0.0359,0.008 0.0696,0.017 0.10547,0.0254 0.0759,0.0163 0.15257,0.0308 0.22851,0.043 0.0432,0.007 0.0876,0.0118 0.13086,0.0176 0.0575,0.007 0.11386,0.011 0.17187,0.0137 0.0649,0.004 0.13045,0.004 0.19532,0.002 0.0554,-0.002 0.11064,-0.003 0.16601,-0.01 0.0258,-0.003 0.0523,-0.008 0.0781,-0.0117 0.10916,-0.0164 0.21827,-0.0411 0.33008,-0.0801 l 1.13672,-0.97656 0.18945,-0.31641 c 0.27634,-0.52473 0.51533,-1.09117 0.92773,-1.54102 l 0.19141,-0.32031 c 0.0612,0.0153 0.10847,0.0464 0.16015,0.0723 -0.0195,-0.15927 -0.0531,-0.3006 -0.10742,-0.38867 -0.24575,-0.39869 -0.76639,-0.20659 -1.07226,-0.51563 -0.31115,-0.31536 -0.4302,-0.80294 -0.79883,-1.07031 -0.34437,-0.25103 -0.8585,-0.50773 -1.26563,-0.64063 -0.22043,-0.0717 -0.23702,-0.0986 -0.35937,0.0137 -0.14766,-0.34174 -0.96757,-0.48684 -1.2207,-0.51954 -0.26421,-0.0343 -0.57579,-0.10676 -0.83789,-0.0234 -0.23837,0.0759 -0.37886,0.31259 -0.60352,0.41015 -0.36125,0.15663 -0.51512,0.0958 -0.81836,-0.0898 -0.21358,-0.13079 -0.49022,-0.25086 -0.75391,-0.21289 -0.19881,0.029 -0.29841,0.13489 -0.36328,0.27148 -0.10969,-0.36757 -0.35703,-0.66038 -0.72461,-0.84179 -0.24575,-0.12077 -0.42466,-0.19703 -0.57812,-0.4375 -0.13553,-0.21148 -0.17594,-0.65058 -0.50977,-0.50977 -0.23731,0.0997 -0.40962,0.57665 -0.62109,0.74805 -0.25788,-0.73304 0.4301,-1.30419 -0.0762,-2.04883 -0.24259,-0.35756 -1.01147,-1.18579 -1.51563,-1.10352 -0.24575,0.0396 -0.49302,0.47636 -0.69922,0.65039 -0.0246,0.0208 -0.0488,0.0406 -0.0742,0.0605 0.42068,0.64984 0.52284,1.69248 0.59961,2.57422 l 1.76564,-0.13276 c -0.0198,-0.17598 -1.74782,0.33732 -1.76564,0.13276 -0.19071,-0.59816 -0.43987,-1.07722 -0.75195,-1.33203 -0.0954,-0.10969 -0.29166,-0.0943 -0.35547,-0.23828 -0.0385,-0.087 0.003,-0.40766 0.0332,-0.49414 0.0787,-0.22625 0.28356,-0.35952 0.4746,-0.50977 -0.13366,-0.20648 -0.2924,-0.3798 -0.50195,-0.48047 -1.68599,-0.80951 0.95273,-0.52355 0.10156,-1.57617 -0.42189,-0.52262 -0.92003,-0.16212 -1.42578,-0.33984 -0.47357,-0.16612 -0.41625,-0.52805 -0.82812,-0.65039 -0.43297,-0.12974 -0.57233,0.1766 -0.9668,-0.28907 -0.24153,-0.28477 -0.21854,-0.64387 -0.55078,-0.89648 -0.95664,-0.72724 -1.33024,0.37922 -2.10547,0.71094 -0.77786,0.33171 -1.61593,-0.27796 -2.28516,-0.53321 -0.45458,-0.1735 -0.65579,-0.2509 -1.17578,-0.25195 -0.38286,-0.001 -0.8108,0.0363 -1.13672,-0.15039 -0.33435,-0.19143 -0.42344,-0.68159 -0.73828,-0.85352 -0.3971,-0.2178 -1.21408,-0.0518 -1.68554,-0.0508 -0.71511,0.002 -1.71276,-0.19653 -2.12305,0.40625 -0.51893,0.76152 0.35324,1.448 0.29102,2.20899 -0.0696,0.85908 -1.16906,1.75416 -1.80665,0.86132 -0.58063,-0.81319 0.24717,-1.75537 0.2129,-2.51953 -0.0178,-0.40382 -0.1073,-1.22052 -0.44532,-1.60351 l 1e-4,-6e-5 c -0.0161,0.012 -0.0445,0.0343 -0.0586,0.0449 -0.68452,0.51418 -1.22874,0.83289 -1.46289,1.67773 -0.10495,0.37865 -0.30498,0.70887 -0.43945,1.08594 0.1367,0.24223 0.26592,0.45735 0.40039,0.69141 m 18.57813,3.75002 c 0.30746,0.35175 0.27792,-0.0918 0,0 z m -1.35547,-10.29297 c -0.0886,0.16507 -0.26459,0.73938 0.15625,0.61914 0.2157,-0.0617 0.23171,-0.53863 -0.0684,-0.53125 z m -11.69922,1.27539 c -0.0594,0.005 -0.1167,0.019 -0.16601,0.043 l -0.0879,0.043 c -0.47832,0.58168 0.58616,0.77109 0.43164,-0.0801 -0.058,-0.008 -0.11834,-0.0112 -0.17774,-0.006 z m 1.44532,0.41602 c -0.37637,0.0399 -0.60125,0.47917 -0.2168,0.86718 0.55004,0.55427 1.00244,-0.43313 0.62695,-0.66992 v -0.0879 c -0.14252,-0.0927 -0.2847,-0.12267 -0.41015,-0.10937 z m 9.5957,0.10937 c -0.24364,0.12868 -0.52779,0.44226 -0.21875,0.61523 0.36652,0.2041 0.48507,-0.37071 0.21875,-0.52734 z m 0.43945,2.40234 c -0.0781,0.009 -0.14952,0.0416 -0.20898,0.11329 -0.11866,0.14291 0.0127,0.28306 -0.0137,0.41015 -0.0116,0.0549 -0.19178,0.46192 -0.19336,0.43555 0.0163,0.26526 0.55565,0.39696 0.8457,0.23242 0.25103,-0.14186 0.29943,-0.61811 0.27148,-0.86914 l -0.043,-0.17578 c -0.13804,0.0115 -0.42391,-0.1739 -0.65821,-0.14649 z"
   transform="matrix(1.8962146,0,0,1.8962146,0,-150.38163)"
   fill="#dccfbe"/>
</svg>
