<svg>
<path
   id="colombia"
   d="m 230.77159,210.91021 c 0.0385,-0.23354 0.0762,-0.45143 0.12212,-0.69997 -0.43698,-0.15397 -0.93135,-0.54171 -1.40733,-0.64071 -0.42464,-0.0874 -0.9107,0.10808 -1.29995,-0.0334 0.0355,-0.0133 0.0717,-0.0286 0.10732,-0.0444 -0.0114,-0.006 -0.022,-0.019 -0.0334,-0.026 l 0.052,0.0152 c 0.99008,-0.45005 2.04297,-1.53882 2.09621,-2.45175 0.04,-0.67301 -0.28236,-1.29493 -0.17028,-1.99992 0.0999,-0.63299 0.62357,-1.34222 0.59257,-1.9962 -0.0152,-0.338 -0.42818,-1.2734 -0.92219,-1.3444 l -3e-5,-3.4e-4 c -0.65099,-0.095 -1.01727,1.06287 -1.33327,1.42588 -0.31049,0.35578 -0.77713,0.49311 -1.1481,0.75551 -0.20601,-0.43033 -0.55612,-0.61749 -1.31106,-0.67033 -0.782,-0.0559 -1.63545,-0.23096 -2.35544,-0.063 -0.13501,0.03 -1.09133,0.39128 -1.17033,0.49628 -0.26001,0.34801 0.0364,0.94913 -0.0296,1.38513 -0.43499,-0.0391 -0.92038,0.0396 -1.14438,0.4296 0.67799,0.68 1.72199,0.84786 2.07398,1.82585 0.41899,1.16401 -0.10467,1.46771 -1.07773,1.67771 -0.76,0.16402 -1.88279,0.31453 -2.48878,0.85552 -0.69601,0.619 -0.55969,1.69356 -0.60368,2.56656 -0.052,1.059 -0.32003,1.38477 0.59998,2.05176 0.675,0.49 1.33334,0.92037 2.14435,1.10735 0.91,0.209 1.77139,0.26162 2.7184,0.32962 0.855,0.0611 2.98369,-0.0444 3.75168,-0.50739 m -0.22226,-5.87382 c -0.006,0.004 -0.0114,0.008 -0.019,0.0114 0.0593,0.0303 0.12458,0.0478 0.1963,0.0408 z m 14.02135,2.44071 c 0.36705,0.12704 1.12626,0.37564 1.51845,0.61849 0.1426,-0.0478 0.27867,-0.1115 0.4148,-0.17768 -0.0193,-0.24112 -0.13425,-0.50028 -0.27406,-0.70368 -0.565,-0.823 -1.07074,-0.14355 -1.81473,-0.72959 -0.23301,-0.18393 -0.20521,-0.52353 -0.5222,-0.75553 -0.24501,-0.17995 -0.65078,-0.22083 -0.91479,-0.35184 -0.633,-0.314 -1.10125,-0.70685 -1.83325,-0.78885 -0.84999,-0.0971 -1.26796,0.43397 -2.03695,0.49998 -0.877,0.0751 -1.26324,-0.0891 -2.13324,0.22591 -0.479,0.17199 -0.71227,0.28808 -1.23328,0.27406 -0.54901,-0.0133 -0.64865,-0.24427 -1.10365,-0.39627 -0.64578,0.22499 -1.17133,0.69078 -1.62957,1.27401 l 2.7e-4,-1.7e-4 m 1.05922,7.8293 c -0.0614,-0.64765 0.36214,-1.08492 0.25553,-1.61104 -0.004,-0.0192 -0.008,-0.0332 -0.0114,-0.0518 -0.0451,-0.16895 0.20388,0.25015 0.0114,0.0518 m 12.18096,-4.76646 c 0.002,0.0262 0.004,0.0521 0.004,0.0777 l 0.0334,-0.0963 c -0.0133,0.006 -0.0246,0.0133 -0.037,0.019 z m 0.037,-0.019 c 0.0575,-0.029 0.11795,-0.0489 0.17407,-0.0815 0.0531,-0.13103 -0.0334,-0.11263 -0.0703,-0.22961 z m -0.0334,0.0963 -0.11472,0.34073 c 0.0861,-0.0971 0.11168,-0.21611 0.11472,-0.34073 z m -11.57357,6.05522 c -0.43999,-0.29799 -3.94964,-2.6701 -4.16264,-3.14012 -0.12326,-0.27188 3.44134,1.29244 3.54051,1.72167 0.004,0.0171 -3.54431,-1.73835 -3.54051,-1.72167 0.14847,0.66112 3.84169,3.36798 3.29636,3.38448 0.0721,0.75799 0.63094,1.32233 1.19994,1.70733 1.24699,0.846 2.26567,1.92665 3.31466,2.97765 0.24916,0.24981 0.68698,0.7172 1.10367,1.00736 0.0319,-0.0191 0.0463,-0.0544 0.0815,-0.0703 0.0609,-0.0277 0.1316,-0.0328 0.1963,-0.0518 0.0525,0.11623 0.084,0.21014 0.14449,0.3222 0.0624,0.0152 0.13311,0.0584 0.18886,0.0518 0.0226,-0.14961 0.004,-0.29998 -0.0296,-0.45185 0.37987,-0.0514 0.79313,-0.0379 1.17772,-0.10733 0.0593,0.22089 0.15132,0.4306 0.32592,0.6111 0.14525,0.15018 0.26299,0.22589 0.37775,0.27036 0.20278,-0.26797 0.35007,-0.59744 0.41851,-0.90738 0.0607,-0.27466 0.0389,-0.51287 -0.0222,-0.7333 0.32653,-0.67346 -0.0999,-1.47418 0.51479,-2.0851 l 1.49994,2.4999 c 0.0925,0.5947 0.43742,1.05782 0.83329,1.49252 0.001,-0.65707 -0.47906,-1.78651 -0.58515,-2.32582 -0.23301,-1.18399 0.51789,-1.98294 0.72589,-3.07393 0.18697,-0.98101 0.10069,-1.9754 0.36665,-2.91841 0.272,-0.965 0.66324,-1.59866 0.65924,-2.67766 -0.002,-0.54399 0.14582,-1.21885 -0.24814,-1.62585 -0.0364,-0.0377 -0.16023,-0.0728 -0.22222,-0.11112 l -5.3e-4,2e-5 c -0.24857,0.0834 -2.34123,-2.9482 -5.23031,-3.50798 -2.3889,-0.46289 -6.88439,-0.66751 -9.28716,0.64503 -0.9107,0.4975 -1.59489,0.18697 -1.60155,3.37822 m 15.42275,12.2175 c -1.3e-4,0.0861 0.0197,0.19296 0,0.25926 -0.27999,0.943 -1.56876,-0.45068 -2.25175,-0.50368 -0.46228,-0.0349 -0.70843,0.0878 -0.99256,-0.0222 -0.24472,0.32342 -0.57671,0.55635 -1.01476,0.51478 -0.46038,-0.0442 -0.77938,-0.43209 -1.02589,-0.88885 -0.13425,-0.0332 -0.27169,-0.0952 -0.42219,-0.19999 -0.58437,0.35235 -0.64318,1.22025 -0.49999,1.92955 0.14601,0.725 2.09245,3.57641 2.55545,1.68141 0.85699,-0.15094 0.86928,0.95395 1.33329,1.29995 0.28198,0.209 0.70283,0.0362 0.98883,0.18526 0.391,0.205 0.47049,0.52652 0.7185,0.85551 0.41258,0.54888 1.02266,1.77496 1.71103,2.34435 -0.004,-0.0603 -0.019,-0.11339 -0.004,-0.18526 1.43799,0.13008 2.87179,-0.54977 2.9258,-1.61476 0.0171,-0.34001 -1.59377,-1.47008 -1.31476,-1.64808 0.083,-0.0531 0.15928,-0.059 0.23703,-0.0703 -0.42644,-0.97813 -1.16752,-1.63807 -1.77771,-2.59247 -0.31547,-0.49379 -0.76703,-0.90561 -1.16662,-1.3444 z m 30.67649,4.33314 c -0.45195,-0.50219 -0.86784,-1.00454 -0.75923,-1.31106 0.417,-0.933 -2.54305,-1.87202 -2.24805,-2.84802 l 5.24792,-2.87396 c 0.2916,0.0218 0.52406,0.17597 0.71848,0.39629 0.85676,-0.63838 3.12359,-2.29196 0.74071,-2.1925 -1.956,0.081 -2.35274,2.5371 -4.12574,2.92209 -0.91301,0.198 -1.55416,-0.0114 -2.45916,0.37776 -0.32099,0.13899 -0.79363,0.20521 -1.06662,0.42221 -0.326,0.25999 -0.40316,0.70069 -0.78515,0.94069 -0.32401,-0.84899 -1.64188,-0.69729 -2.06287,0.004 -0.39201,0.65199 -0.0474,1.77957 -0.20741,2.50359 -0.304,1.379 -2.12287,1.97068 -2.99987,3.11468 -0.603,0.785 -0.46209,1.65909 -0.51109,2.62211 -0.71684,0.0263 -1.0139,-0.66631 -1.50734,-1.06293 -10e-4,-0.002 -0.002,-0.006 -0.004,-0.008 -0.35501,-0.76801 -0.90764,-1.41479 -1.60365,-1.95178 -0.67698,-0.52299 -1.54723,-1.01305 -2.33323,-1.21105 -0.847,-0.212 -1.75267,-0.0501 -2.47767,-0.17407 -2.019,-0.344 -2.89567,1.68038 -4.68868,2.18138 -0.56899,0.1591 -0.78524,0.21902 -1.29625,-0.0999 -0.50799,-0.316 -0.32924,-0.52902 -0.99625,-0.53702 -0.395,-0.006 -0.85356,0.42141 -1.22956,0.10732 -0.3,-0.25 -0.0802,-0.83979 -0.24814,-1.1518 -0.14658,-0.27313 -0.45612,-0.62099 -0.8296,-0.56664 l 8e-5,1.5e-4 c 0.0802,0.18412 0.16876,0.35783 0.2222,0.57036 0.278,1.104 0.23503,3.16871 -1.33697,3.25171 -0.2499,0.0133 -0.49366,-0.10847 -0.7296,-0.3037 0.0432,0.77982 1.4681,0.65391 1.98511,0.55923 1.07999,-0.197 1.44461,-0.37424 2.1036,0.57776 0.243,0.35101 0.3746,0.77818 0.72961,1.02217 0.57199,0.39301 0.75283,0.0262 1.18883,-0.026 0.513,-0.063 0.30011,-0.23831 0.74811,0.40369 0.18792,0.26899 0.39034,0.72007 0.67035,0.91107 0.79899,0.54501 2.08794,-0.0878 2.13694,-1.05181 -0.535,-0.0489 -1.6253,-0.67754 -1.6703,-1.29254 -0.058,-0.80299 1.16071,-0.60075 1.67772,-1.01475 0.65199,-0.52302 0.6054,-1.51313 1.5814,-1.68511 0.892,-0.15701 1.11033,0.62791 1.70733,1.0629 0.637,0.464 1.90062,0.13558 2.3036,0.66665 -0.59099,0.467 -1.17271,0.44675 -1.17772,1.41475 -0.004,0.74199 0.48543,1.307 1.08143,1.674 0.2398,0.14771 0.4773,0.21863 0.7148,0.29628 -0.3131,0.43619 -0.15037,0.47747 0.31109,1.09254 0.33901,0.45102 0.77679,1.0169 0.81479,1.5629 0.0449,0.645 -0.22586,1.28518 -0.25186,1.95917 -0.029,0.75902 0.25933,1.38441 0.33332,2.0814 0.0791,0.74 -0.0133,1.40684 0.17407,2.12584 0.17995,0.69299 0.50386,1.41284 0.48886,2.12583 -0.0171,0.82199 -0.64408,1.16259 -1.24809,1.6666 -0.229,0.19099 -0.64852,0.23345 -0.75552,0.58146 -0.081,0.26399 0.32774,0.68631 0.24074,1.07032 -1.473,0.92599 -3.05804,0.55024 -2.74803,2.67025 -0.69301,-0.0929 -1.31544,0.46802 -0.88146,1.07403 0.27101,0.37799 1.10273,0.46586 1.47772,0.68886 0.0248,0.0152 0.0457,0.0366 0.0704,0.0518 -0.82457,0.58512 -1.76729,1.06166 -2.24064,1.19997 -1.72,0.505 -1.73991,1.24682 -1.99992,3.06282 -0.228,1.598 -0.92145,1.56961 -1.71844,2.84062 -0.721,1.15 -0.0961,2.53998 -0.18507,3.84797 -0.063,0.92602 -0.31256,1.48017 0.78143,1.62216 0.80101,0.10391 1.69938,-0.49349 1.64437,-1.35549 1.663,0.0171 0.30357,2.59844 -0.14449,3.29245 -0.851,1.31899 -2.47099,1.27282 -2.511,3.26282 -0.063,3.083 4.32367,5.05821 6.66267,6.18122 5.96001,2.863 10.02111,-6.04329 11.19212,-10.5403 0.443,-1.702 1.25505,-3.44606 1.41105,-5.19606 0.019,-0.20972 0.0133,-0.44305 0.026,-0.65924 0.0519,0.10941 0.0891,0.23068 0.15549,0.32962 0.31799,0.474 0.82021,0.57548 1.15921,0.91847 0.63999,0.64701 0.77074,2.54218 1.81474,2.89618 0.628,0.21301 1.45936,-0.46885 2.04436,-0.58887 0.60199,-0.12306 1.25465,-0.0546 1.84066,0.0815 0.23699,0.055 0.58037,0.27903 0.80737,0.23703 0.179,-0.033 0.48964,-0.41516 0.76664,-0.48517 0.55399,-0.14108 1.66288,0.18978 1.86288,0.81479 0.32499,1.00799 -1.25043,2.81451 -1.68142,3.6665 0.378,0.45099 0.84065,0.22354 1.30365,0.45555 0.32001,0.16004 0.61667,0.49669 0.90366,0.74069 0.17597,-0.252 0.33129,-0.61302 0.49628,-1.17402 0.698,-2.367 1.32871,-5.26844 0.8407,-7.87744 -0.43099,-2.309 -2.76587,-5.97304 1.38513,-5.89603 0.44901,-1.92701 -1.52723,-0.66491 -2.23324,-1.16292 -1.44399,-1.02001 0.76798,-1.50561 1.43698,-1.56659 1.13299,-0.1041 1.8637,-0.57213 2.81469,-0.74813 0.23932,-0.0446 0.42012,-0.10733 0.6222,-0.16289 0.77519,-1.33063 1.67277,-2.53945 0.26665,-3.11098 m -4e-5,-2e-5 c 0.98901,0.34401 1.84401,0.7816 2.51101,1.6666 0.45499,0.60299 0.99871,2.81093 0.44071,3.37391 -0.213,-0.30398 -0.52039,-0.52671 -0.94439,-0.5407 -0.262,-0.444 -0.3467,-1.9627 -1.0407,-1.7777 0.081,-0.047 0.16516,-0.0886 0.24814,-0.1297 -0.50555,0.2104 -0.96665,0.37668 -1.48141,0.5185 -0.60693,1.04178 -1.14319,2.15757 -0.42961,3.11838 0.79999,1.078 1.26292,2.22117 1.49992,3.53318 0.14506,0.801 -0.0569,1.49162 0.57404,2.00361 1.31602,1.07 5.82595,0.5354 7.45895,0.3074 2.76101,-0.387 6.4412,-1.76031 8.3552,-3.88132 1.74603,-1.9357 4.11515,-3.79816 5.3368,-6.1664 -0.009,-0.0224 -0.0286,-0.0485 -0.037,-0.0704 4.6826,-5.55756 0.61075,-0.88667 0,0 -0.12534,0.37837 0.21961,-0.28358 0.037,0.0704 0.61934,1.49938 3.27672,3.9776 4.9035,3.01098 1.01599,-0.604 1.30071,-1.62589 2.61471,-1.76289 1.052,-0.10903 2.104,0.32082 3.148,0.0152 0.0501,-0.0152 0.0982,-0.0207 0.14809,-0.0408 -0.10808,-0.36699 -0.31879,-0.68874 -0.71479,-0.87774 0.0114,-0.11605 0.0557,-0.21399 0.11472,-0.29998 0.009,-0.0152 0.0152,-0.0305 0.026,-0.0444 0.0611,-0.076 0.13862,-0.13767 0.22964,-0.19258 0.025,-0.0152 0.0544,-0.0305 0.0815,-0.0444 0.091,-0.047 0.18735,-0.0865 0.29627,-0.11852 0.048,-0.0152 0.10088,-0.025 0.15189,-0.037 0.066,-0.0152 0.13463,-0.025 0.20369,-0.037 0.14392,-0.0241 0.29072,-0.0408 0.44073,-0.0518 0.549,-0.041 1.10798,-0.0171 1.43697,-0.019 0.89752,-0.009 1.7149,0.21221 2.50729,0.42591 0.16516,-0.46489 0.36694,-0.93125 0.53333,-1.3444 -0.16649,0.41401 -0.36462,0.8774 -0.52961,1.3444 -10e-4,-3.2e-4 -0.002,3.2e-4 -0.004,0 0.0294,0.008 0.0595,0.019 0.0889,0.026 0.0468,0.0133 0.0937,0.0241 0.1407,0.037 0.15397,0.04 0.30724,0.0777 0.45924,0.11491 0.0681,0.0152 0.13198,0.0322 0.2,0.0482 0.14392,0.0309 0.2893,0.0584 0.4333,0.0815 0.0819,0.0133 0.16611,0.0224 0.24814,0.0334 0.10903,0.0133 0.2159,0.0209 0.3259,0.026 0.12307,0.008 0.24736,0.008 0.37037,0.004 0.10505,-0.004 0.2098,-0.006 0.31479,-0.019 0.0489,-0.006 0.0992,-0.0152 0.14809,-0.0222 0.207,-0.0311 0.41389,-0.0779 0.62591,-0.15188 l 2.15546,-1.85177 0.35924,-0.59998 c 0.524,-0.995 0.97718,-2.06909 1.75918,-2.92211 l 0.36295,-0.60737 c 0.11605,0.029 0.20568,0.088 0.30368,0.13709 -0.037,-0.30201 -0.10069,-0.57 -0.20369,-0.737 -0.466,-0.756 -1.45324,-0.39174 -2.03324,-0.97774 -0.59,-0.59799 -0.81575,-1.52255 -1.51475,-2.02954 -0.653,-0.47601 -1.6279,-0.96277 -2.39991,-1.21477 -0.41798,-0.13596 -0.44944,-0.18697 -0.68144,0.026 -0.27999,-0.64802 -1.83472,-0.92316 -2.31471,-0.98516 -0.501,-0.065 -1.09182,-0.20244 -1.58882,-0.0444 -0.452,0.14393 -0.7184,0.59274 -1.1444,0.77774 -0.68501,0.297 -0.97678,0.18165 -1.55179,-0.17028 -0.40499,-0.24801 -0.92956,-0.47569 -1.42957,-0.40369 -0.37699,0.055 -0.56585,0.25578 -0.68886,0.51479 -0.208,-0.697 -0.67701,-1.25223 -1.37402,-1.59622 -0.46599,-0.229 -0.80524,-0.37361 -1.09624,-0.82959 -0.25699,-0.40101 -0.33362,-1.23364 -0.96663,-0.96664 -0.44999,0.18906 -0.77673,1.09346 -1.17772,1.41847 -0.48899,-1.39 0.81556,-2.47303 -0.14449,-3.88502 -0.46,-0.67801 -1.91796,-2.24852 -2.87396,-2.09251 -0.46599,0.0751 -0.93487,0.90328 -1.32587,1.23328 -0.0467,0.0394 -0.0925,0.077 -0.1407,0.11472 0.7977,1.23223 0.99142,3.2093 1.13699,4.88127 l 3.34803,-0.25174 c -0.0375,-0.3337 -3.31424,0.63963 -3.34803,0.25174 -0.36163,-1.13424 -0.83409,-2.04264 -1.42586,-2.52582 -0.1809,-0.20799 -0.55305,-0.17881 -0.67405,-0.45183 -0.073,-0.16497 0.006,-0.77301 0.063,-0.93699 0.14923,-0.42902 0.53769,-0.68173 0.89994,-0.96663 -0.25345,-0.39153 -0.55445,-0.72019 -0.9518,-0.91108 -3.197,-1.535 1.80658,-0.99276 0.19258,-2.98875 -0.8,-0.991 -1.74458,-0.30742 -2.70359,-0.64441 -0.89799,-0.315 -0.7893,-1.0013 -1.57029,-1.23328 -0.82101,-0.24602 -1.08526,0.33487 -1.83326,-0.54814 -0.458,-0.53999 -0.4144,-1.22092 -1.0444,-1.69992 -1.81399,-1.379 -2.52242,0.71908 -3.99242,1.34809 -1.47499,0.629 -3.06415,-0.52707 -4.33316,-1.01108 -0.86198,-0.32899 -1.24352,-0.47576 -2.22953,-0.47775 -0.72598,-0.002 -1.53745,0.0688 -2.15546,-0.28517 -0.634,-0.36299 -0.80294,-1.29244 -1.39994,-1.61846 -0.75299,-0.41299 -2.30216,-0.0982 -3.19615,-0.0963 -1.356,0.004 -3.24776,-0.37267 -4.02575,0.77033 -0.98401,1.44401 0.66981,2.74572 0.55183,4.18872 -0.13197,1.629 -2.21679,3.32627 -3.42579,1.63325 -1.101,-1.54198 0.46868,-3.32856 0.4037,-4.77757 -0.0337,-0.76573 -0.20346,-2.31437 -0.84442,-3.0406 l 1.9e-4,-1.1e-4 c -0.0305,0.0228 -0.0844,0.065 -0.11112,0.0851 -1.298,0.97499 -2.32996,1.57934 -2.77395,3.18133 -0.19901,0.71801 -0.57831,1.34417 -0.8333,2.05918 0.25922,0.45932 0.50425,0.86723 0.75923,1.31106 m 35.22812,7.11084 c 0.58301,0.667 0.527,-0.17407 0,0 z m -2.57026,-19.51768 c -0.16801,0.31301 -0.50172,1.40203 0.29628,1.17403 0.40902,-0.117 0.43937,-1.02136 -0.1297,-1.00737 z m -22.18423,2.41842 c -0.11264,0.009 -0.22129,0.036 -0.31479,0.0815 l -0.16668,0.0815 c -0.907,1.10299 1.11148,1.46215 0.81848,-0.15189 -0.10998,-0.0152 -0.2244,-0.0212 -0.33703,-0.0114 z m 2.74063,0.78886 c -0.71367,0.0757 -1.14009,0.90861 -0.41109,1.64436 1.04299,1.05101 1.90084,-0.82131 1.18883,-1.27031 v -0.16668 c -0.27025,-0.17578 -0.53986,-0.23261 -0.77774,-0.20739 z m 18.19551,0.20739 c -0.46199,0.244 -1.0008,0.83862 -0.4148,1.16661 0.695,0.38701 0.9198,-0.70295 0.4148,-0.99995 z m 0.83329,4.55535 c -0.14809,0.0171 -0.28352,0.0789 -0.39627,0.21482 -0.225,0.27099 0.0241,0.53675 -0.026,0.77774 -0.022,0.1041 -0.36365,0.87589 -0.36665,0.82589 0.0309,0.50299 1.05363,0.75272 1.60363,0.44072 0.47601,-0.269 0.56778,-1.17207 0.51478,-1.64808 l -0.0815,-0.33331 c -0.26176,0.0218 -0.80383,-0.32975 -1.24811,-0.27778 z"
   fill="#dccfbe"/>
</svg>
