<svg>
  <path
   id="congo"
   d="m 532.506,248.09726 c -0.002,-0.041 0.002,-0.08 10e-4,-0.121 -0.96,-0.041 -1.916,-0.096 -2.931,-0.197 -2.484,-0.25 -2.69,0.201 -3.138,2.406 -0.007,0.035 -0.014,0.062 -0.021,0.098 -0.213,1.055 -0.274,4.147 -1.578,4.317 -1.022,0.134 -2.632,-1.873 -3.681,-2.155 -1.283,-0.344 -2.214,-0.326 -2.828,0.106 m 0,10e-4 c -1.676,-0.194 -3.306,-0.796 -4.923,-0.605 -0.677,0.079 -1.082,0.382 -1.334,0.815 -0.553,0.951 -0.367,2.541 -0.691,3.827 -1.519,-0.138 -2.814,-0.661 -3.754,0.215 -0.137,0.128 -0.267,0.284 -0.388,0.478 -0.646,1.024 -0.179,3.883 -1.642,3.691 0.01,1.905 -1.303,2.766 0.015,4.805 1.14,1.765 2.845,1.964 4.218,3.171 0.893,0.784 1.426,1.676 2.266,2.299 -0.041,0.511 0.174,1.13 1.8445,4.4265 1.0255,2.5985 0.8915,2.6375 0.7595,2.6775 -0.144,0.043 -0.292,0.084 -0.435,0.128 0.312,1.363 0.677,2.646 1.436,3.969 0.878,1.527 1.701,1.949 1.29,3.581 -0.193,0.769 -0.684,0.926 -0.592,1.925 0.047,0.51 0.435,1.149 0.633,1.662 0.424,1.096 0.953,2.105 1.375,3.246 0.396,1.07 0.907,2.939 0.298,4.047 -0.575,1.043 -1.835,1.199 -2.507,2.165 -1.439,2.069 -1.519,4.868 -2.124,7.204 -0.646,2.499 -1.272,4.705 -0.729,7.34 0.036,-0.283 0.102,-0.537 0.236,-0.703 0.744,-0.911 3.39,0.241 4.59,0.353 1.565,0.146 3.397,0.204 4.884,0.674 2.187,0.69 2.97,0.549 5.215,-0.002 2.112,-0.52 3.431,-0.104 5.386,0.512 3.771,1.188 7.129,-0.783 10.775,-1.008 0.375,-0.022 0.75,-0.026 1.125,-0.026 -0.053,-0.143 -0.112,-0.295 -0.191,-0.475 0.079,0.18 0.139,0.332 0.191,0.475 1.436,0 2.866,0.132 4.265,0.195 1.611,0.072 2.888,0.139 3.246,1.223 0.521,0.212 1.027,0.453 1.354,0.448 1.495,-0.024 3.517,-1.81 4.813,-2.506 2.145,-1.152 0.853,-3.301 2.999,-4.329 0.784,-0.376 1.917,-0.657 3.072,-0.833 -0.181,-1.467 1.371,-1.772 3.016,-2.67 1.584,-0.863 2.967,-2.072 4.694,-2.467 0.033,-0.4 0.058,-0.801 0.061,-1.197 0.009,-1.208 -0.121,-1.823 0.244,-2.994 0.39,-1.252 0.119,-1.441 0.245,-2.697 0.146,-1.455 1.89,-3.048 1.367,-4.634 -0.057,-0.173 -0.133,-0.346 -0.249,-0.519 -0.495,-0.736 -1.667,-0.811 -2.402,-1.201 -0.912,-0.485 -1.588,-1.266 -2.467,-1.863 -0.735,-0.5 -1.714,-0.996 -2.7685,-1.358 -0.1995,-2.484 -1.3955,-3.753 -2.8085,-5.986 -0.836,-1.321 -0.214,-2.215 -0.496,-3.5 -0.281,-1.282 -1.446,-1.604 -1.144,-3.227 0.187,0.032 0.369,0.024 0.55,10e-4 -0.038,-0.179 -0.074,-0.357 -0.115,-0.536 -0.376,-1.654 -0.703,-3.493 -0.644,-5.263 0.035,-1.02 0.196,-2.016 0.556,-2.939 0.129,-0.33 0.284,-0.649 0.444,-0.967 0.392,-0.773 0.818,-1.529 0.995,-2.375 0.313,-1.504 -0.143,-2.53 0.723,-3.899 0.732,-1.158 1.89,-1.913 2.696,-2.993 0.416,-0.557 0.889,-0.874 0.771,-1.744 -0.166,-1.229 -0.616,-0.498 -1.154,-1.309 -0.542,-0.816 -0.426,-1.664 -0.455,-2.469 -0.014,-0.383 -0.058,-0.758 -0.228,-1.113 -0.402,-0.846 -1.671,-1.893 -2.545,-2.209 -1.25,-0.453 -2.198,0.271 -3.635,0.139 -0.411,-0.037 -0.745,-0.144 -1.045,-0.285 -0.751,-0.355 -1.259,-0.961 -2.028,-1.46 -1.02,-0.662 -0.367,-0.252 -1.404,-0.415 -0.698,-0.109 -1.407,-0.115 -2.103,-0.176 -1.69,-0.148 -1.996,0.541 -3.432,0.82 -0.692,0.135 -1.07,-0.319 -1.912,-0.038 -0.556,0.187 -0.922,0.847 -1.454,0.972 -0.704,0.165 -1.335,-0.451 -1.988,-0.266 -0.757,0.214 -0.61,0.674 -1.14,1.112 -2.165,1.79 -4.536,-0.17 -6.546,-1.442 -2.86,-1.811 -5.062,0.803 -4.999,3.525 10e-4,0.041 -0.003,0.08 -10e-4,0.121 m -21.123,8.493 c 0.324,-1.286 0.139,-2.876 0.691,-3.827 -1.167,-0.048 -2.312,-0.09 -3.333,-0.964 -0.184,0.293 -0.351,0.596 -0.525,0.894 -0.562,0.956 -1.098,1.926 -1.616,2.877 0.324,0.402 0.666,0.826 1.029,1.235 0.94,-0.877 2.236,-0.353 3.754,-0.215 z m 2.323,18.4 c -0.124,0.674 0.617,2.678 0.996,3.364 0.133,-0.04 0.267,-0.079 0.401,-0.117 3.7104,-2.83371 2.28983,-7.14868 -1.397,-3.247 z"
   stroke="#000000"
   stroke-width="0.5"
   fill="#dccfbe"/>
</svg>
