<svg>
<path
   id="eastafrica"
   d="m 588.98,203.68226 c -1.359,-2.25 -3.737,-3.835 -3.74,-6.92 -10e-4,-1.1 0.052,-2.211 10e-4,-3.31 -0.072,-1.556 -0.597,-1.419 -1.182,-2.58 -0.666,-1.322 -1.537,-3.556 -3.554,-3.584 -0.039,0 -0.072,-0.014 -0.112,-0.013 -0.507,0.016 -1.794,1.109 -1.977,1.351 -0.324,0.429 0.036,1.009 -0.313,1.366 -0.323,0.331 -1.173,0.048 -1.57,0.235 -1.344,0.632 -0.859,0.948 -2.459,0.723 -0.76,-0.106 -1.414,-0.233 -2.164,-0.242 v -0.001 h -21.335 v 0.739 4 h -2.905 v 2.891 11.395 c -1.048,0.17 -2.584,0.346 -2.936,0.873 -0.316,0.475 0.147,1.775 -0.025,2.35 -0.151,0.502 -0.732,1.334 -0.957,1.73 -0.041,0.072 0.004,0.604 -0.173,0.896 -0.105,0.175 -0.718,0.243 -0.798,0.404 -0.406,0.825 0.112,0.912 0.007,1.591 -0.021,0.129 0.25,0.53 0.263,0.709 0.028,0.387 -0.92,0.198 -0.821,0.664 0.115,0.545 1.003,0.843 1.365,1.326 -1.181,0.936 0.635,2.02 0.99,3.021 0.155,0.437 0.041,0.977 0.299,1.557 0.169,0.379 0.619,0.835 0.984,1.246 0.119,0.136 0.23,0.267 0.318,0.389 1.06,1.463 0.904,1.859 0.885,3.629 -0.025,2.382 0.717,1.225 2.155,2.283 0.601,0.441 0.42,1.038 0.905,1.551 0.364,0.385 0.963,0.42 1.316,0.782 0.448,0.46 0.526,1.185 0.869,1.56 0.507,0.555 1.155,0.592 1.702,1.023 0.899,0.709 1.345,1.654 1.845,2.678 0.723,1.479 1.28,2.268 2.523,3.483 0.631,0.618 0.926,1.236 1.128,1.866 0.3,0.142 0.634,0.248 1.045,0.285 1.437,0.132 2.385,-0.592 3.635,-0.139 0.874,0.316 2.143,1.363 2.545,2.209 0.17,0.355 0.214,0.73 0.228,1.113 0.84,-0.252 1.674,-0.593 2.2775,-0.8195 -0.6035,0.2285 -1.4375,0.5685 -2.2765,0.8205 0.029,0.805 -0.087,1.652 0.455,2.469 0.536,0.81 0.987,0.079 1.153,1.309 0.117,0.87 -0.355,1.188 -0.771,1.744 -0.807,1.08 -1.964,1.835 -2.696,2.993 -0.865,1.369 -0.409,2.396 -0.723,3.899 -0.177,0.846 -0.604,1.602 -0.995,2.375 0.769,-0.169 1.597,-0.24 2.186,-0.318 0.412,-0.055 0.832,-0.016 1.247,0.077 0.416,-0.334 1.001,-0.576 1.589,-0.5845 -0.59,0.01 -1.175,0.2515 -1.591,0.5855 -0.771,0.62 -0.954,1.562 0.555,1.949 0.021,0.208 -0.369,0.706 -0.754,1.253 -0.705,1 -1.398,2.172 0.429,2.08 -0.539,1.44 -2.038,4.421 -3.903,4.664 -0.181,0.023 -0.363,0.031 -0.55,-10e-4 -0.303,1.623 0.862,1.944 1.144,3.227 0.282,1.285 -0.34,2.179 0.496,3.5 1.412,2.233 2.608,3.502 2.809,5.985 1.055,0.361 2.033,0.857 2.769,1.357 0.879,0.598 1.555,1.378 2.467,1.863 0.735,0.391 1.907,0.465 2.402,1.201 0.116,0.173 0.192,0.346 0.249,0.519 0.763,-1.536 1.853,-2.976 3.188,-1.027 0.431,0.628 0.404,2.636 0.58,3.384 0.179,0.766 0.208,1.561 0.338,2.327 0.48,-0.034 1.006,0.005 1.527,-0.028 1.248,-0.078 2.09,0.036 3.174,0.053 0.311,0.005 0.52,0.324 0.83,0.293 0.344,-0.034 0.409,-0.508 0.546,-0.521 0.059,-0.006 0.409,-0.43 0.613,-0.469 0.165,-0.031 0.625,0.539 0.836,0.496 0.858,-0.179 1.02,-0.926 1.712,-1.144 0.486,-0.153 1.052,0.468 1.801,0.252 1.011,-0.291 2.145,-1.272 3.157,-1.857 -0.02,-1.325 -0.232,-3.337 -1.476,-3.806 0.6,-1.098 -0.385,-2.951 -0.646,-4.172 -0.156,-0.73 -0.464,-1.273 -0.337,-2.086 0.113,-0.729 0.688,-1.154 0.628,-1.959 -0.131,-1.791 -1.95,-1.922 -1.679,-3.842 0.18,-1.278 1.301,-2.234 0.407,-3.416 -0.008,-0.01 -0.01,-0.02 -0.0165,-0.03 0.01,0.009 0.0115,0.019 0.0195,0.028 0.264,-0.216 0.521,-0.444 0.768,-0.701 0.82,-0.85 0.635,-1.178 1.122,-2.125 0.163,-0.316 0.679,-0.328 0.845,-0.654 0.164,-0.324 0.042,-0.959 0.196,-1.183 0.499,-0.726 0.789,-1.238 1.815,-1.017 -0.082,-0.427 -0.025,-0.738 0.118,-0.98 0.359,-0.602 1.258,-0.764 1.9,-1.159 0.239,-0.147 0.44,-0.331 0.565,-0.579 0.12,-0.239 0.176,-0.534 0.1155,-0.931 0.0605,0.396 0.005,0.691 -0.1165,0.932 1.147,-1.292 2.076,-2.962 2.767,-4.008 1.964,-2.977 3.406,-4.883 6.277,-7.064 2.372,-1.802 4.862,-3.051 6.812,-5.427 1.942,-2.366 3.446,-5.233 4.749,-8.01 0.611,-1.304 1.7,-2.294 2.323,-3.492 0.332,-0.636 0.201,-1.528 0.563,-2.216 0.296,-0.562 0.866,-0.963 1.261,-1.468 1.181,-1.513 1.267,-2.583 1.549,-4.347 0.229,-1.43 1.042,-2.754 1.128,-4.198 0.131,-2.22 -0.767,-2.466 -2.603,-1.647 -1.621,0.723 -2.112,0.939 -3.862,0.954 -1.066,0.009 -1.281,0.476 -2.047,0.688 -0.857,0.236 -1.359,0.027 -2.292,0.148 -1.594,0.207 -2.092,1.392 -3.71,1.384 -1.208,-0.006 -2.43,0.254 -3.581,0.356 l -4.193,-1.78 -0.085,-0.036 c -0.109,-0.177 -0.219,-0.365 -0.321,-0.576 -0.421,0.268 -0.607,0.631 -0.671,1.03 -0.202,0.293 -0.438,0.58 -0.638,0.873 -0.318,0.465 -0.548,0.947 -0.4075,1.508 -0.1395,-0.561 0.0905,-1.043 0.915,-4.4175 0.2165,-5.1795 -4.5575,-8.3545 -5.8675,-9.6345 -1.349,-1.318 -2.851,-1.935 -3.579,-3.553 -0.762,-1.693 -1.05,-3.619 -1.885,-5.322 -0.513,-1.047 -0.67,-1.303 -1.087,-1.1 m 11.911,22.519 c 0.2,-0.293 0.436,-0.58 0.638,-0.873 0.063,-0.399 0.25,-0.763 0.671,-1.03 0.103,0.212 0.212,0.399 0.322,0.577 l 0.085,0.036 c -0.143,-0.211 -0.245,-0.45 -0.229,-0.769 -0.272,-0.094 -0.37,-0.225 -0.616,-0.362 0.472,-1.177 0.906,-2.04 0.787,-3.475 -0.239,-0.028 -0.446,0.013 -0.643,0.077 -3.61564,0.12987 -3.77407,4.0143 -1.015,5.819 z"
   stroke="#000000"
   stroke-width="0.5"
   fill="#dccfbe"/>
</svg>
