<svg>
<path
   fill="#6E8D4E"
   stroke="#000"
   stroke-width="0.5"
   d="m 372.21431,296.55405 c -4.98137,-3.40177 -40.67649,-25.25219 -40.76937,-25.28507 -1.391,-0.492 0.455,1.201 0,0 l 40.76937,25.28507 -40.76937,-25.28507 40.85195,25.34871 c 0,0 8.78111,-8.79243 8.78111,-13.91743 0,-5.125 -0.379,-7.378 -2.629,-8.003 -2.25,-0.625 -2.25,-0.125 -3.5,-1.375 -1.25,-1.25 -9.125,-6.25 -10.25,-6.125 -1.125,0.125 -1.75,-0.13 -2.625,-0.002 -0.875,0.127 -3.75,-1.248 -4.75,-0.873 -1,0.375 -1.625,0.375 -2.5,0.875 l -0.357,0.396 c -0.124,0.003 -0.249,-0.006 -0.371,0 -0.045,0.266 -0.259,0.42 -0.294,0.709 -1.864,0.33 -0.344,-2.613 -0.599,-3.357 -0.299,-0.871 -1.133,-0.779 -1.87,-1.252 -0.675,-0.433 -1.022,-1.074 -1.94,-1.377 -1.259,-0.414 -3.264,-1.057 -4.562,-1.002 -0.897,0.038 -3.242,1.418 -1.392,2.157 -0.658,0.918 -5.38,0.955 -6.179,1.477 -0.741,0.485 -5.50806,5.62872 -5.81506,6.32072"
   id="fortaleza" />
</svg>
