<svg>
<path
   id="guinea"
   d="m 434.1885,208.05226 c -0.257,0.061 -0.423,0.105 -0.423,0.105 0,0 -0.341,1.023 -0.341,2.157 0,1.135 -0.91,1.026 -1.243,1.367 -0.333,0.341 -0.804,1.137 -0.804,1.934 0,0.795 0.341,0.568 2.16,1.363 1.357,0.594 0.689,1.582 0.263,2.047 2.43434,-1.05706 2.20139,-0.9389 0.003,-0.001 -0.421,0.157 -0.717,0.256 -0.717,0.256 -0.228,0.654 -1.591,1.881 -0.455,2.746 1.137,0.864 0.341,-0.387 1.137,0.864 0.205,0.321 0.394,0.62 0.582,0.878 0.174,-0.028 0.504,-0.091 0.782,-0.536 m 0.001,0.001 c -0.278,0.445 -0.608,0.508 -0.782,0.537 -0.182,0.031 -0.193,0.023 0.214,0.373 0.796,0.682 1.819,1.181 1.592,1.727 -0.228,0.547 0.114,0.059 0.796,0.984 0.682,0.928 1.257,0.674 1.591,1.609 -0.001,1.592 1.136,0.796 2.045,1.371 0.909,0.576 1.592,0.902 1.994,1.664 0.194,0.369 0.427,0.869 0.679,1.338 0.236,-0.181 0.514,0.078 1.0805,-0.7195 -0.5645,0.7965 -0.8435,0.5375 -1.0795,0.7185 -0.096,0.072 -0.187,0.212 -0.285,0.535 -0.341,1.117 -0.683,1.686 0,2.482 0.683,0.795 0.796,0.596 1.137,1.662 0.341,1.066 2.816,1.977 2.816,1.977 l 0.91175,0.1955 c -0.0573,0.1435 -0.0702,0.2705 0.0238,0.3465 0.455,0.368 2.161,2.141 3.411,2.619 1.25,0.478 2.387,1.691 2.956,2.619 0.569,0.928 1.807,1.725 2.666,2.18 0.81,0.428 1.363,1.664 3.14,0.277 -0.582,0.154 -0.916,0.18 -0.916,0.18 0,0 0.335,-0.025 0.918,-0.18 0.505,-0.133 1.194,-0.362 2.04,-0.768 1.819,-0.875 3.846,-1.689 3.846,-1.689 0,0 4.818,-0.131 5.034,0 0.216,0.133 0.412,0.867 1.354,0.814 0.189,-0.01 0.431,-0.188 0.694,-0.4585 0.286,0.5185 0.56,0.9035 0.894,1.1415 0.796,0.569 1.479,-0.227 2.843,-1.022 1.364,-0.795 2.616,-0.909 4.093,-1.706 0.632,-0.34 1.347,-1.033 1.958,-1.717 -0.082,-0.202 -0.127,-0.417 -0.454,-0.3975 0.329,-0.0195 0.374,0.1955 0.457,0.3965 0.112,0.271 0.294,0.518 1.339,0.125 0.437,-0.163 0.859,-0.5 1.252,-0.932 -0.396,-0.321 -0.586,-0.893 -0.629,-1.4825 0.041,0.5895 0.231,1.1605 0.627,1.4815 0.156,0.127 0.342,0.218 0.567,0.25 0.796,0.113 1.034,0.517 2.45,-0.651 v -7.5 c 10e-4,0.001 0.501,-2.332 1.763,-2.499 1.263,-0.167 0.403,-2 0.09,-3 -0.313,-1 0.313,-1 0.059,-2.048 -0.149,-0.613 0.019,-0.899 0.119,-1.449 -0.319,-0.143 -0.622,-0.225 -0.864,-0.179 -0.913,0.175 -1.666,-1.824 -2.166,-2.144 -0.145,-0.093 -0.459,-0.131 -0.83,-0.139 -0.059,0.537 -0.036,0.993 0.176,1.418 0.341,0.682 0.811,0.795 -0.106,1.363 0.917,-0.569 0.447,-0.682 0.106,-1.363 -0.212,-0.425 -0.234,-0.881 -0.176,-1.418 -0.911,-0.021 -2.17,0.14 -2.17,0.14 0,0 -1.5,-1.014 -1.5,-2.014 0,-1 -0.5,-1.334 -0.834,-1.834 -0.334,-0.5 -2,-3 -2.166,-3.483 -0.021,-0.059 -0.021,-0.11 -0.009,-0.155 0.0925,-0.328 1.0045,-0.299 2.1755,0.155 1.333,0.517 0.834,-0.35 1.667,-0.824 0.833,-0.474 0.833,-0.358 1.833,-0.192 1,0.166 4,0.334 4.5,0 0.5,-0.334 1,-1.333 1.799,-3.333 0.799,-2 -0.299,-4 0.035,-4.997 0.289,-0.861 -0.045,-2.104 -0.033,-3.394 -0.714,0.028 -1.482,0.011 -1.938,-0.14 -1.023,-0.342 -1.022,-0.455 -0.568,-1.251 0.454,-0.796 0.58,-1.251 -0.961,-1.933 -1.541,-0.683 -2.11,-0.229 -2.564,-0.568 -0.454,-0.342 -0.932,-1.593 -1.318,-1.82 -0.387,-0.227 -0.489,-0.909 -0.893,-1.592 -0.403,-0.682 -17.0045,-12.1645 -17.0045,-12.1645 l -10.4725,-7.277 v -0.1585 -1.321 h -0.017 -12.479 c 0,0 0.022,0.114 0.009,0.311 -0.037,0.548 -0.359,1.761 -2.283,3.1 -2.615,1.819 -1.365,3.752 -2.843,5.799 -1.478,2.047 -2.728,2.351 -3.297,3.904 -0.569,1.553 -0.682,2.349 -1.592,3.713 -0.91,1.364 -1.462,1.819 -1.47,2.501 -0.004,0.308 0.941,0.868 2.0625,1.467 -0.8415,0.011 -1.3875,0.019 -1.3875,0.019 0,0 -1.235,0.565 -0.674,1.134 0.561,0.569 2.73,1.023 2.043,2.388 -0.687,1.365 -1.824,0.553 -0.915,1.925 0.909,1.372 0.806,2.068 0.915,2.857 0.109,0.789 1.132,0.836 0.45,3.484 -0.414,1.608 -0.49,2.776 -0.486,3.453"
   fill="#dccfbe"
   stroke="#000000"
   stroke-width="0.5"/>
</svg>
