<svg>
<path
   id="indonesia"
   d="m 779.196,271.19526 c -0.522,-1.644 0.171,-2.863 -0.258,-4.35 0.207,0.096 0.554,0.178 0.741,0.287 -1.08,-1.139 -2.898,-0.856 -3.86,-1.785 -0.684,-0.66 -1.184,-3.15 -1.095,-4.097 -0.512,0.036 -1.084,-0.088 -1.594,-0.05 -0.695,-1.93 0.752,-4.339 -2.172,-4.428 -1.277,-0.039 -1.206,0.542 -2.266,-0.32 -0.557,-0.453 -0.863,-1.346 -1.479,-1.852 -1.346,-1.104 -3.229,-1.792 -4.266,-3.421 -0.861,-1.353 -1.336,-2.561 -2.7,-3.713 -1.274,-1.076 -2.689,-2.168 -3.955,-3.543 v -1.318 c -2.35,1.326 -3.728,-1.269 -5.763,-1.438 -3.061,-0.253 -1.07,3.117 0.041,4.191 1.303,1.259 2.504,2.854 3.899,3.921 0.903,0.689 1.467,0.713 1.936,1.771 0.357,0.81 0.05,1.941 0.922,2.557 0.773,0.544 1.833,-0.101 2.596,0.57 0.559,0.49 0.888,2.365 1.141,3.091 0.347,0.994 0.534,1.771 1.231,2.484 0.674,0.689 1.375,0.9 1.902,1.79 0.506,0.854 0.446,1.864 0.874,2.772 0.418,0.889 1.326,1.492 1.819,2.308 0.957,1.585 1.159,3.188 2.251,4.733 1.117,1.579 9.133,9.456 9.424,3.574 1.731,-0.668 1.045,-2.429 0.631,-3.734 z m 25.352,13.875 c -0.628,-0.547 -1.776,-1.707 -2.353,-2.025 -0.968,-0.535 -1.958,-0.106 -2.91,-0.562 -1.052,-0.504 -0.782,-1.236 -1.56,-2.057 -0.872,-0.918 -1.701,-0.735 -2.882,-0.736 -1.109,-0.002 -2.146,-0.072 -3.179,0.266 -0.965,0.315 -1.763,1.104 -2.916,0.895 -1.538,-0.277 -4.103,-3.373 -5.434,-2.65 l -2.472,-0.824 c -0.928,1.277 -3.396,3.192 -0.653,4.449 0.573,0.262 1.479,-0.234 2.061,-0.014 0.762,0.289 0.696,0.683 1.22,1.158 0.759,0.689 1.226,1.071 2.162,1.32 2.032,0.541 4.367,0.05 6.427,0.494 1.755,0.38 3.344,0.005 5.1,0.342 1.789,0.344 3.293,1.209 5.119,1.479 1.805,0.265 4.483,0.395 2.27,-1.535 z m 5.132,-0.775 -1.977,0.66 c -0.16,0.445 -0.223,1.021 -0.305,1.458 0.708,0.039 1.589,-0.138 2.28,0.021 0.708,0.16 1.209,0.74 1.973,0.828 0.745,0.086 1.406,-0.34 2.148,-0.297 0.794,0.045 1.201,0.901 2.145,0.213 2.123,-1.548 -0.854,-1.98 -1.903,-2.068 -1.229,-0.103 -3.31,-1.346 -4.361,-0.815 z m 14.665,0.495 -1.647,0.659 c -0.584,-0.275 -1.172,-0.395 -1.787,-0.305 -0.014,1.949 4.872,0.79 3.434,-0.354 z m 5.909,4.919 c -1.661,0.225 -1.456,1.833 0.271,1.393 1.303,-0.334 2.422,-2.062 3.213,-3.016 l -1.318,-0.494 c -1.728,-0.165 -1.912,0.708 -2.166,2.117 z m -8.71,-0.635 h -1.978 c 0.126,-1.243 -2.002,-1.096 -1.985,-0.082 0.021,1.289 1.694,0.571 2.318,0.938 0.517,0.304 0.778,1.632 1.184,1.745 1.227,0.344 1.983,-2.365 0.461,-2.601 z m -8.181,-42.914 c 0.422,0.07 0.824,0.112 1.194,0.096 -2.251,-2.104 2.701,-1.287 1.018,-3.809 l 0.5,-0.166 c -0.893,-0.329 -1.186,-1.065 -1.024,-1.975 -1.954,0.569 -1.736,0.006 -2.851,-1.148 -0.47,-0.486 -2.025,-1.572 -2.671,-1.26 -0.773,0.375 -0.801,2.524 -1.252,3.219 -0.466,0.717 -1.344,1.183 -1.913,1.957 -0.9,1.225 -0.633,1.506 -2.121,1.834 -0.673,0.148 -1.048,-0.377 -1.673,0.204 -0.354,0.329 -0.06,1.048 -0.364,1.468 -0.545,0.752 -1.648,1.068 -2.434,1.576 -0.786,0.508 -1.53,1.712 -2.23,2.08 -1.021,0.539 -2.435,-0.246 -3.133,0.959 -0.323,0.559 -0.189,2.718 -0.192,3.393 -1.3,-0.187 -2.47,-1.133 -3.752,-1.438 -0.012,-0.003 -0.023,-0.007 -0.035,-0.011 m -0.002,-0.001 c 0.012,0.004 0.023,0.008 0.035,0.011 -0.186,-0.075 -0.372,-0.126 -0.558,-0.118 -1.434,0.068 -0.822,1.437 -1.205,2.586 -0.585,1.752 -1.082,1.473 -0.338,3.043 0.259,0.545 0.555,0.793 0.72,1.457 0.113,0.461 -0.34,0.971 -0.056,1.532 0.538,1.062 1.872,0.89 2.349,2.131 0.438,1.138 -0.532,2.391 0.073,3.46 0.559,0.988 1.593,0.754 2.795,0.706 1.971,-0.079 1.137,0.032 2.178,1.33 0.584,0.728 -0.109,0.866 1.195,0.544 0.656,-0.162 1.255,-1.168 1.8,-1.219 0.884,-0.083 0.868,0.629 1.486,0.684 0.687,0.059 1.4,-0.246 1.98,-0.482 -0.03,0.428 1.045,2.238 1.362,2.483 1.049,0.808 1.398,0.138 2.45,-0.716 2.136,-1.734 2.108,-2.586 2.379,-5.289 0.249,-2.491 2.094,-2.55 3.004,-4.666 0.46,-1.072 0.204,-2.348 0.332,-3.5 0.225,-2.032 0.6,-1.157 1.998,-1.835 1.849,-0.896 -0.159,-1.294 -0.964,-2.5 -0.771,-1.155 -0.562,-2.617 -1.02,-3.8 0.345,0.15 0.599,0.018 0.95,0.283 -0.018,-0.164 -0.585,-1.213 -0.609,-1.021 0.045,-0.353 0.334,-0.858 0.352,-1.088 0.02,-0.254 0.134,-0.613 0.246,-0.994 m 2.379,22.71 c 0.312,0.964 1.456,0.546 1.848,1.311 0.31,0.604 -0.145,2.181 -0.178,2.843 -0.081,1.617 0.167,6.007 2.543,3.435 1.105,-1.197 1.224,-3.693 0.757,-5.176 -0.486,-1.544 -1.745,-4.591 1.338,-3.474 -0.181,0.333 -0.14,0.925 -0.278,1.276 0.226,0.058 0.386,0.159 0.608,0.225 0.153,1.589 -0.033,4.842 1.521,6.054 2.187,1.703 4.39,-2.685 2.704,-3.611 -0.218,-0.932 0.455,-1.329 0.476,-2.139 0.031,-1.242 -0.435,-1.016 -0.887,-1.96 -0.678,-1.415 -0.615,-2.708 0.729,-3.755 0.937,-0.729 2.736,-1.552 0.886,-2.768 -1.5,-0.987 -2.473,0.574 -3.409,1.235 -2.197,1.55 -6.055,-0.322 -4.82,-3.259 1.824,-4.341 14.679,1.484 13.83,-4.326 l 0.333,-0.5 c -0.528,-1.705 -3.238,0.891 -4.071,1.343 -1.938,1.052 -3.17,-0.104 -5.003,-0.692 -1.45,-0.465 -3.065,-0.068 -4.432,0.607 -1.693,0.836 -1.278,2.372 -1.917,3.992 -0.295,0.746 -1.087,1.487 -1.256,2.166 -0.226,0.91 0.426,1.768 0.352,2.672 -0.107,1.259 -2.052,3.338 -1.674,4.501 z m 24.503,-14.921 c -0.074,0.691 -0.031,1.395 -0.123,1.998 -0.141,0.926 -0.434,1.276 -0.178,2.297 0.052,0.205 0.531,0.709 0.64,1.042 0.143,0.438 -0.379,0.882 -0.181,1.332 0.24,0.546 1.46,1.268 2.057,0.876 0.814,-0.533 -0.132,-3.545 0.141,-4.525 0.8,0.205 1.697,0.686 2.438,1.128 0.017,-0.221 0.116,-0.296 0.203,-0.483 l -0.833,-0.832 c -0.145,0.053 -0.156,0.287 -0.476,0.141 -0.223,-1.037 2.442,-4.562 -0.499,-3.5 -0.185,-0.988 0.274,-1.696 0.282,-2.616 -1.791,-0.428 -3.315,1.688 -3.471,3.142 z m 1.664,13.998 -0.833,0.334 c -1.218,-0.047 -0.971,1.814 0.007,2.299 0.837,0.414 1.437,-0.174 2.325,-0.299 1.256,-0.176 3.967,-0.449 4.976,0.149 0.691,-3.471 -4.787,-2.446 -6.475,-2.483 z m 14.572,-2.178 c 0.797,-0.166 2.402,0.027 3.096,-0.607 0.755,-0.692 0.614,-1.736 0.007,-2.54 -0.878,-1.158 -1.939,-0.585 -3.149,-1.204 -0.043,-0.168 0.002,-0.303 -0.025,-0.471 l -0.833,-0.166 c -1.205,-0.924 -5.357,0.355 -5.338,1.925 0.016,1.345 1.427,0.921 2.092,1.239 1.206,0.578 1.292,0.889 1.271,2.311 1.093,0.174 1.908,-0.288 2.879,-0.487 z m 21.58,1.544 c -0.005,-0.113 -0.005,-0.228 -0.011,-0.341 -1.294,-0.123 -3.124,-0.127 -4.271,-0.725 -0.727,-0.379 -1.066,-1.252 -1.866,-1.471 -0.789,-0.217 -1.481,0.363 -2.337,0.004 v -0.168 c 0.005,-0.221 0.012,-0.43 -0.025,-0.645 -1.487,0.234 -9.815,9.299 -9.334,3.174 -0.976,-0.469 -3.475,0.161 -3.81,0.973 -0.273,0.661 0.142,3.468 0.194,4.307 1.979,0.576 1.574,-2.525 2.312,-2.316 0.743,0.209 0.016,1.272 0.402,1.686 0.469,0.501 1.155,0.231 1.76,0.322 2.371,0.358 4.528,1.618 6.538,2.79 2.395,1.396 3.254,3.034 4.389,5.462 1.119,2.391 -0.474,1.316 -1.604,3.145 -1.169,1.891 0.314,1.848 1.521,1.532 1.384,-0.361 2.462,-1.28 3.812,-0.328 0.775,0.547 2.234,2.007 2.334,3.017 0.089,-0.229 0.171,-0.515 0.242,-0.841 m 10e-4,0 c 1,0.513 2.162,0.308 3.688,0.382 0.813,0.04 2.042,0.199 2.742,-0.161 0.286,-0.147 0.855,-0.872 1.007,-1.173 0.162,-0.322 0.205,-1.011 0.284,-1.162 0.98,-1.862 2.88,-1.915 4.78,-0.995 0.897,0.435 1.112,1.368 1.845,1.938 1.02,0.794 1.804,0.841 2.699,1.925 1.506,1.825 2.19,2.885 4.395,3.801 1.357,0.564 1.944,0.629 3.519,0.329 1.543,-0.294 1.65,0.02 1.067,-1.341 -0.158,-0.369 -0.968,-1.766 -1.216,-2.023 -0.771,-0.801 -1.358,-0.399 -2.375,-0.752 -1.549,-0.537 -3.328,-2.821 -4.241,-4.115 -0.349,-0.495 -1.643,-2.182 -1.27,-2.847 0.331,-0.589 2.148,-0.481 2.693,-1.083 -0.746,-1.701 -2.928,-2.033 -4.351,-2.996 -1.806,-1.223 -1.06,-2.246 -2.041,-3.795 -0.884,-1.394 -2.779,-0.943 -4.12,-1.411 -1.839,-0.644 -2.454,-2.089 -4.087,-2.885 -1.478,-0.72 -3.452,-1.099 -5.266,-1.213 m 24.016,8.968 -1.167,0.332 c -0.098,-0.1 -0.306,-0.25 -0.804,-0.141 -1.001,1.796 2.329,1.611 3.274,1.67 0.054,1.491 1.007,1.416 2.193,0.93 1.344,-0.552 1.329,-1.408 2.162,-2.211 0.632,-0.609 1.953,-0.613 2.347,-1.407 0.468,-0.941 -0.499,-2.129 -0.194,-3.015 -2.696,-1.105 -1.336,2.026 -2.727,2.92 -0.745,0.479 -4.483,1.376 -5.084,0.922 z m 10.046,-2.217 c 0.859,-1.504 -0.031,-3.069 -1.246,-3.908 -0.745,-0.516 -1.56,-0.576 -2.267,-1.085 -0.74,-0.534 -0.498,-1.521 -1.7,-1.29 l -1.833,-1.334 c -1.954,2.521 2.147,2.735 3.423,3.329 2.098,0.977 2.756,2.326 3.623,4.288 z"
   fill="#dccfbe"
   stroke="#000000"
   stroke-width="0.5"/>
</svg>
