<svg>
<path
   id="indochina"
   d="m 769.951,189.54726 c 0.093,-0.168 0.144,-0.282 0.21,-0.466 0.089,-0.018 0.187,-0.029 0.282,-0.042 -0.947,-0.73 -1.855,-1.166 -2.488,-0.194 -0.724,1.111 0.363,1.898 0.201,3.094 -0.317,2.342 -0.812,0.007 -1.516,-0.53 -0.639,-0.487 -1.413,-0.325 -2.169,0.138 0.011,0.002 0.021,0.004 0.035,0.006 -0.01,-0.002 -0.02,-0.005 -0.031,-0.007 -0.812,-0.15 -1.573,-0.268 -2.248,-0.809 -1.052,-0.845 -0.244,-0.933 -0.656,-1.849 -0.372,-0.827 -0.705,-0.637 -0.991,-1.648 -0.184,-0.647 0.009,-1.608 -0.028,-2.278 -1.152,-0.278 -1.856,-0.871 -1.645,-2.146 -0.766,-0.129 -1.509,0.102 -2.257,0.115 -0.547,-2.693 2.18,-4.865 2.451,-7.386 0.135,-1.247 0.265,-3.13 -0.454,-4.16 -0.968,-1.388 -1.752,-0.914 -1.718,-2.909 -1.046,0.352 -2.187,0.943 -3.318,1.321 0.024,0.412 0.073,0.766 0.217,0.972 0.794,1.145 2.334,1.415 0.369,2.634 -1.038,0.644 -2.445,0.44 -3.668,1.151 -1.866,1.085 -0.953,1.608 -1.484,3.461 -0.511,1.782 -1.942,1.456 -1.976,3.808 -0.029,2.061 -0.87,2.553 -2.936,1.978 -0.433,1.175 -0.562,2.771 -0.387,3.909 -0.233,-0.03 -0.538,0.069 -0.773,0.05 -0.041,0.748 0.239,1.987 -0.358,2.495 -0.042,1.399 -0.386,2.384 -1.359,2.237 0.274,1.977 2.611,2.761 3.835,4.635 0.516,0.791 0.285,1.248 0.369,2.014 0.04,0.375 -0.271,0.658 -0.173,1.084 0.051,0.216 0.566,0.369 0.624,0.561 0.402,1.35 0.496,2.896 0.868,4.379 0.331,1.314 1.435,3.608 0.306,4.782 2.096,0.13 2.447,-0.772 4.061,-1.754 0.067,0.13 0.16,0.315 0.235,0.44 2.53,0.611 0.881,-5.583 3.599,-3.27 1.034,0.882 1.576,3.635 1.978,4.943 0.534,1.745 0.989,3.626 0.988,5.524 -10e-4,2.086 -0.319,4.032 0.199,5.972 0.334,1.25 0.627,2.995 0.611,4.621 -0.008,0.83 -0.092,1.631 -0.3035,2.314 0.2105,-0.684 0.2945,-1.484 0.3025,-2.314 -0.471,0.639 -0.92,1.322 -1.191,2.174 -0.354,1.111 -0.187,2.787 -0.115,3.957 0.029,0.481 -0.228,1.5 0.32,1.782 0.658,0.341 1.016,-0.414 1.021,-0.934 2.261,0.198 1.92,2.12 2.277,3.681 0.372,1.626 1.71,1.659 2.973,2.347 0.195,0.106 0.389,0.226 0.5755,0.3725 -0.1885,-0.1455 -0.3815,-0.2655 -0.5765,-0.3715 -0.09,1.945 0.019,4.112 0.164,5.73 0.048,0.531 0.098,1.146 0.329,1.646 0.368,0.794 0.845,0.753 1.243,1.23 0.795,0.955 0.513,1.673 0.928,2.944 1.659,0.713 3.085,1.746 4.828,2.344 1.238,0.424 3.759,2.416 4.365,0.725 0.672,-1.873 -1.978,-3.225 -2.836,-4.48 -1.102,-1.609 0.396,-3.504 -0.498,-5.438 -0.96,-2.078 -3.168,-2.903 -4.805,-4.255 0.012,0.232 -0.005,0.474 -0.0925,0.7375 0.0895,-0.2645 0.1055,-0.5065 0.0945,-0.7375 -0.07,-1.276 -1.482,-2.103 -2.277,-2.833 -0.947,-0.868 -1.362,-1.84 -2.018,-3.016 -0.43,-0.77 -0.603,-0.502 -0.743,-1.551 -0.09,-0.67 0.421,-1.391 0.124,-2.031 -0.309,-0.665 -1.168,-0.475 -1.45,-1.186 -0.232,-0.587 0.222,-1.418 0.379,-1.938 0.362,-1.197 1.152,-2.385 1.43,-3.6 0.442,-1.943 -1.957,-7.457 1.801,-6.799 0.074,1.168 0.736,2.777 1.674,3.352 0.532,0.328 1.501,0.252 2.145,0.611 0.639,0.355 0.661,0.97 1.454,1.1 0.006,-0.145 0.018,-0.299 0.029,-0.456 m -0.002,0.002 c 0.358,1.293 0.659,2.974 2.112,2.644 0.018,1.669 0.713,3.825 2.65,3.014 0.015,-0.007 0.03,-0.019 0.0455,-0.0255 0.1295,0.6195 0.5665,1.1285 0.8335,1.7715 0.538,1.294 0.109,1.358 -0.002,2.474 -0.082,0.812 -0.825,1.193 0.536,1.476 2.151,0.446 6.458,-5.311 6.204,-7.227 2.681,-0.153 3.385,0.142 4.878,-2.503 0.982,-1.74 2.216,-3.43 2.019,-5.516 -0.109,-1.152 -0.8,-1.888 -1.106,-2.932 -0.272,-0.93 -0.23,-2.016 -0.374,-2.996 -0.284,-1.947 -1.146,-3.481 -2.632,-4.902 -0.96,-0.916 -2.193,-1.802 -3.106,-2.845 -0.21,-0.24 -0.399,-0.49 -0.568,-0.749 -0.101,-0.154 -0.199,-0.311 -0.28,-0.473 -0.504,-1.006 -0.293,-2.08 -0.791,-3.023 -0.524,-0.996 -1.353,-0.898 -1.2,-2.264 0.238,-2.135 2.997,-2.082 4.172,-3.425 0.623,-0.712 0.754,-1.188 0.619,-1.544 -0.351,-0.919 -2.518,-1.02 -2.984,-2.119 -0.475,-1.117 0.352,-2.055 -0.604,-3.018 -0.791,-0.797 -1.854,-0.689 -3.07,-0.567 -1.817,0.184 -2.046,1.418 -3.567,1.911 -0.921,0.298 -2.488,0.184 -3.644,0.345 -0.096,0.014 -0.193,0.025 -0.282,0.042 -0.066,0.184 -0.117,0.298 -0.21,0.466"
   fill="#dccfbe"
   stroke-width="0.5"
   stroke="#000000"/>
</svg>
