<svg>
<path
   fill="#DCCFBE"
   stroke="#000"
   stroke-width="0.5"
   d="M654.287,248.557  c0.402-0.35,0.31-1.748,0.602-2.276c0.266-0.48,0.925-1.53,1.346-1.921c0.749-0.696,1.284-0.11,2.086-0.518  c0.939-0.479,0.62-1.278,0.326-1.888c-0.389-0.809-0.621-1.164-0.824-2.127c-0.349-1.651-1.93-2.248-2.895-3.594  c-1.233-0.15-1.76-1.158-1.836-2.229c-0.041-0.578,0.043-1.172,0.23-1.662c0.466-1.217,2.511-3.503,0.51-4.518  c-0.975-0.494-1.235,0.105-1.762-1.107c-0.265-0.61-0.54-1.571-0.777-2.245c-0.396-1.128-0.137-1.382,0.467-2.263  c0.742-1.083,0.607-0.486,0.002-1.629c-0.352-0.664-0.683-1.346-0.495-2.057c0.065-0.244,0.561-0.657,0.683-0.939  c0.131-0.305,0.126-0.843,0.224-1.152c0.317-1.008,0.984-1.768,1.305-2.666c0.188-0.529,0.258-1.105,0.062-1.81  c-0.16-0.577-0.674-1.362-0.971-1.867c-0.61-1.038-0.434-0.614-1.611-1.003c-1.291-0.425-1.983-1.731-3.141-2.471  c-1.614-1.03-3.749-1.005-5.499-1.558c-1.026-0.325-1.129-0.478-2.241-0.471c-0.827,0.005-1.524-0.323-2.359-0.231  c0.201,1.803-3.99,3.33-5.35,3.222c0.136,0.113,0.274,0.239,0.401,0.371c0.427,0.446,0.687,0.958-0.001,1.254  c-0.165,0.071-0.751-0.333-1.071-0.244c-0.451,0.125-0.272,0.52-0.652,0.72c-1.569,0.831-2.901,0.518-4.501,0.188  c-1.628-0.335-2.749-0.109-3.939-1.179c-0.448-0.403-0.593-0.88-1.246-1.137c-0.712-0.28-1.045-0.155-1.626-0.619  c-0.675-0.538-0.778-1.144-1.034-1.847c-0.164-0.451-0.225-0.667-0.313-0.816c-0.116-0.196-0.282-0.275-0.804-0.587  c-0.877-0.524-1.275-0.543-1.229-1.721c0.026-0.638,0.792-1.445,0.13-2.034c-1.062-0.945-3.066,1.244-3.935,1.752  c-0.272,0.16-0.587,0.291-0.922,0.391c-0.37,0.11-0.766,0.181-1.163,0.195c-0.761,0.028-1.524-0.14-2.113-0.584  c-0.954-0.719-1.165-3.438-2.808-1.752c-1.041,1.069-0.404,2.559-0.321,3.885c0.223,0.029,0.354,0.154,0.591,0.165  c-0.241,0.419-0.595,0.834-0.593,1.335c0.369,0.029,0.707,0.216,1.096,0.169c-0.564,0.714,0.573,1.851,0.809,2.845  c0.315,0.073,0.356,0.271,0.703,1.002c0.309,0.648,1.043,1.298,1.259,2.005c0.085,0.278-0.32,0.649-0.134,1.062  c0.148,0.326,0.699,0.53,0.965,0.728c1.926,1.433,0.086,2.579-0.683,4.442c-0.895,2.168,1.587,3.251,1.487,5.498  c0.635,0.146,0.483,0.594,0.886,0.862c0.448,0.298,0.917,0.502,1.344,0.784c0.617,0.408,1.931,1.419,2.374,2.132  c0.573,0.924,0.374,1.948,0.899,2.863c0.437,0.761,0.665,1.299,0.861,1.975c0.515-0.189,0.387-0.337,1.114-0.275  c0.469,0.04,0.777,0.521,1.375,0.439c1.155-0.157,0.865-0.994,1.909,0.083c0.469,0.483,0.801,1.311,1.187,1.937  c0.866,1.403,1.377,2.963,2.28,4.345c0.403,0.617,0.908,1.034,1.497,1.375c0.629,0.365,1.652,0.276,1.771,1.108  c0.846,0.033,1.519,0.918,2.018,1.482c0.731,0.827,0.768,1.035,1.834,1.408c1.589,0.555,3.711,0.796,5.154-0.211  c1.138-0.794,2.097-2.858,3.352-1.222c0.99,1.291,0.546,3.581,2.127,4.441c0.633,0.344,1.639,0.354,2.341,0.651  c0.691,0.293,1.32,0.554,1.999,0.754c1.583,0.467,3.222,0.354,4.902,0.463c0.098,0.006,0.214,0.025,0.336,0.048  C652.937,248.631,653.873,248.917,654.287,248.557z"
   id="iran" />
</svg>
