<svg>
<path
   id="japan"
   d="m 845.9,154.52826 c 0.268,0.838 1.209,0.876 1.6,1.587 0.463,0.842 0.064,1.333 -0.054,2.164 -0.235,1.644 0.996,3.233 2.667,1.847 1.027,-0.852 0.97,-2.328 1.286,-3.43 0.173,-0.598 0.991,-1.631 1,-2.173 0.024,-1.543 -2.951,-2.624 -4.158,-3.076 l 0.666,0.5 c -1.312,-0.596 -3.523,0.962 -3.007,2.581 z m 8.916,-0.564 c 1.177,0.818 1.906,-0.934 2.751,-1.357 0.947,-0.474 2.699,-0.151 1.674,-2.16 l -0.5,0.167 c -0.048,0.033 -6.852,1.314 -3.925,3.35 z m -3.885,-4.208 c 1.812,0.413 2.7,0.269 4.474,-0.31 1.407,-0.459 2.824,-1.883 4.33,-2.175 0.668,-0.129 1.646,0.313 2.336,0.344 1.36,0.062 1.338,-0.477 1.543,0.833 0.204,1.307 -1.177,4.562 1.428,3.792 2.406,-0.713 0.784,-3.196 1.729,-4.43 1.313,-0.07 5.018,1.436 5.328,-0.505 1.325,-0.446 1.789,-0.085 2.946,0.114 0.349,-1.207 2.018,-0.626 2.69,-1.81 0.703,-1.236 -0.022,-2.608 0.086,-3.828 0.052,-0.579 0.493,-1.039 0.572,-1.597 0.091,-0.637 -0.255,-1.139 -0.152,-1.819 0.201,-1.341 1.129,-2.014 0.688,-3.426 1.587,-0.4 1.271,-3.142 1.146,-4.492 -0.145,-1.542 -0.328,-3.074 -0.525,-4.642 -1.74,-0.093 -3.406,-0.556 -3.809,1.392 -0.159,0.769 0.24,1.615 0.091,2.258 -0.222,0.958 -1.003,0.613 -0.466,1.992 0.395,1.014 1.121,1.057 0.833,2.162 -0.114,0.439 -1.041,1.403 -1.332,1.799 -0.944,1.283 -1.841,2.5 -3.044,3.538 -1.631,1.406 -3.173,1.757 -5.23,1.984 0.298,-0.733 0.832,-1.405 0.624,-2.291 -4.324,-0.536 -0.395,7.664 -4.871,5.953 -1.814,-0.693 -1.235,-1.53 -3.201,-0.648 -1.411,0.633 -2.806,0.53 -4.024,1.378 -1.177,0.82 -2.658,2.045 -3.545,3.125 l 0.5,-0.167 c -0.705,0.207 -1.231,0.74 -1.145,1.476 z m 27.839,-32.28 c -0.29,1.38 -1.265,0.316 -2.038,0.834 -0.807,0.54 -0.553,0.942 -0.659,1.638 -0.231,1.516 -0.425,3.344 -0.307,4.808 1.047,0.163 1.688,-0.799 2.641,-0.975 l -1.333,-2 c 1.48,0.823 2.22,-1.026 3.499,-1.167 2.177,-0.239 1.642,1.982 2.913,2.675 1.972,1.075 1.893,-2.363 2.803,-3.307 1.006,-1.044 2.864,-1.313 4.26,-1.393 0.058,-1.073 0.826,-2.812 0.491,-3.48 -0.479,-0.956 -2.517,-0.698 -3.465,-0.79 -1.215,-0.117 -2.829,-0.148 -3.752,-1.039 -0.775,-0.748 -0.531,-2.817 -2.058,-2.475 -0.334,1.399 -1.119,6.798 -2.995,6.671 z m 2.174,-9.53 c 1.228,1.337 1.305,-0.836 1.913,-1.495 1.03,-1.115 2.284,-0.567 2.883,0.996 v -0.167 c -0.201,-2.167 -2.102,-2.997 -1.869,-5.037 0.214,-1.877 0.539,-3.949999 0.691,-5.904999 1.002,0.711 2.416,1.308 3.652,1.084 -0.146,-1.479999 -0.776,-3.433999 -1.293,-4.891999 -0.498,-1.404999 -1.116,-2.748999 -1.473,-4.253997 -0.349,-1.469 -0.078,-2.661 -0.245,-4.167 -0.082,-0.735 -0.33,-1.032 -0.298,-1.913 0.031,-0.817 0.242,-1.552999 0.334,-2.332999 0.163,-1.376 0.126,-4.144999 -1.804,-4.220999 -0.481,1.179 -0.094,2.725999 -0.392,3.947999 -0.113,-0.09 -0.473,-0.164 -0.643,-0.332 -1.581,0.759 -1.291,1.726 -1.367,3.314999 -0.05,1.033 -0.593,3.312 -0.096,4.339 0.263,0.542 1.025,0.53 1.343,1.165 0.236,0.471 0.111,1.145998 0.124,1.701998 0.032,1.367 -0.135,2.526 -0.342,3.831999 -0.196,1.239 -0.196,2.333 -0.146,3.676999 0.016,0.42 -0.165,1.008 -0.135,1.447 0.022,0.308 0.415,0.834 0.456,1.209 0.207,1.878999 -2.798,6.363999 -1.293,8.001999 z"
   fill="#DCCFBE"
   stroke="#000"
   stroke-width="0.5" />
</svg>
