<svg>
<path
   id="kazakhstan"
   d="m 651.049,114.44526 c -0.028,0.089 -0.049,0.163 -0.075,0.247 0.111,-0.074 0.225,-0.149 0.36,-0.239 1.337,-0.879 1.476,-1.16 2.63,0.125 0.733,0.816 1.115,1.915 2.098,2.51 1.225,0.742 2.175,0.177 3.507,-0.037 1.468,-0.237 2.106,0.061 3.253,0.365 1.038,0.274 2.442,-0.179 3.381,0.574 1.48,1.188 0.639,7.079 2.898,6.662 -0.481,2.347 3.835,-0.133 3.84,2.587 2.535,0.928 2.15,-0.986 2.947,-2.365 0.396,-0.684 0.819,-0.757 1.472,-1.073 0.364,-0.176 0.869,0.139 1.252,-0.084 0.37,-0.216 0.289,-1.047 0.718,-1.169 0.647,-0.186 0.869,-0.059 0.957,0.194 0.104,-0.25 0.184,-0.499 0.233,-0.726 1.407,0.155 1.337,-1.279 1.322,-2.303 1.964,-0.856 4.365,0.955 6.208,1.1 0.076,-1.113 -0.236,-1.664 0.687,-2.112 0.61,-0.296 1.923,0.036 2.466,0.243 1.619,0.62 2.089,1.467 4.005,0.944 3.124,-0.853 6.656,-0.549 9.509,0.918 0.404,0.208 1.176,0.811 1.43,1.338 1.05,-0.508 0.146,-0.763 0.721,-1.651 0.461,-0.712 1.403,-0.689 1.825,-1.364 0.373,-0.598 0.148,-1.767 -0.025,-2.409 -0.128,-0.471 -0.439,-1.955 -0.648,-2.32 -0.668,-1.169 -3.652,-2.626 -0.348,-2.792 1.621,-0.081 3.414,0.461 4.95,-0.103 2.151,-0.79 0.884,-1.715 0.998,-3.348 0.062,-0.893 1.432,-3.629 2.214,-4.145 1.232,-0.813 2.849,0.855 4.433,1.001 1.961,0.18 2.548,-1.044 2.746,-2.946 0.078,-0.757 -0.252,-1.864 0.114,-2.518999 0.661,-1.184 1.123,-0.234 2.042,-0.829 0.633,-0.41 1.106,-1.261 1.244,-2.1 0.099,-0.602999 0.03,-1.199999 -0.301,-1.623999 -2.217,-0.132 -3.838,-0.426 -5.738,-1.517 -0.725,-0.417 -1.106,-0.724 -1.603,-1.522999 -0.398,-0.641 -0.82,-2.122 -1.52,-2.433 -1.527,-0.68 -3.232,1.257 -5.022,0.255 -0.568,-0.318 -0.991,-1.425998 -1.745,-1.411998 -0.738,0.014 -1.386,1.346998 -2.057,1.654998 -2.18,1.001 -2.341,-1.362 -2.753,-2.926998 -0.502,-1.905 -1.302,-2.458 -2.604,-3.825 -1.51,-1.584 -4.574,-6.435998 -6.678,-6.435998 -1.385,0 -3.071,1.274999 -4.313,1.853999 -1.135,0.528 -4.433,1.56 -3.368,-0.832 -0.44,0.071 -0.99,-0.107 -1.43,-0.053 -0.694,-1.560999 -4.359,-0.456 -5.767,-1.152999 0.063,-1.214 -0.012,-3.15 -1.009,-3.763999 -0.246,-0.151 -1.388,-0.2 -1.698,-0.284 -0.612,-0.167 -0.795,-0.464 -1.604,-0.538 -2.196,-0.198 -3.868,1.416999 -5.933,1.971999 -2.28,0.612 -4.635,1.113 -6.92,1.693 -2.354,0.597 -4.871,1.09 -7.236,1.739999 -1.114,0.306 -2.637,0.515 -3.312,1.646 -0.715,1.196 0.176,1.448 1.011,2.510999 -0.557,0.809 -1.234,0.061 -1.837,0.524 -1.143,0.88 0.011,0.68 -0.199,1.486 -0.096,0.368 0.3,0.472 0.054,0.964 -0.202,0.403 -0.9,-0.059 -1.167,0.266 -0.75,0.914 -0.806,0.889 0.008,1.828 0.77,0.89 2.21,0.892 2.129,2.503998 -0.028,0.557 -0.418,1.365 -0.952,1.66 -0.743,0.41 -0.834,-0.115 -1.505,-0.052 -1.383,0.129 -1.637,0.654 -2.805,0.168 -1.241,-0.516 -1.531,-1.89 -2.81,-2.104 -0.904,-0.151 -1.226,0.558 -1.856,0.667 -0.407,0.07 -0.779,-0.058 -1.225,-0.051 -1.725,0.028 -1.218,-0.042 -2.354,1.188 -0.551,0.596 -0.318,1.25 -1.45,0.968 -0.381,-0.095 -1.015,-1.148 -1.36,-1.421 -1.045,-0.822 -2.208,-1.281 -2.798,0.154 -1.36,-2.087998 -4.345,-4.190998 -6.745,-4.308998 -0.775,-0.038 -1.351,0.525 -1.982,0.587 -0.62,0.061 -1.162,-0.423 -1.818,-0.259 -0.875,0.218 -1.841,1.546 -2.592,2.024 -0.971,0.617998 -2.732,0.678998 -3.176,1.772998 -0.327,0.809 0.913,3.255999 -0.444,3.834999 -1.399,0.598 -1.208,-1.944999 -1.689,-2.511999 -0.843,-0.994 -2.218,-0.204 -2.934,0.977999 -0.743,1.227 -0.229,2.777 -0.898,4.080999 -0.596,1.159 -1.615,2.145 0.673,1.881 -0.019,1.265 0.405,2.483999 1.474,3.145999 0.827,0.513 1.954,0.281 2.63,1.152 1.05,1.351 -0.404,3.822 2.178,4.085 2.041,0.208 3.641,-1.843 5.197,-1.818 0.389,0.006 0.675,0.657 1.148,0.664 0.595,0.009 0.781,-0.501 1.303,-0.664 0.834,-0.26 2.082,-0.695 2.896,0.081 1.624,1.55 -2.158,2.946 0.447,5.039 -1.043,-0.057 -3.054,-0.084 -3.993,0.314 -1.914,0.812 -0.593,2.077 -0.428,3.447 -1.059,0.038 -2.246,0.244 -2.924,-0.63 0.51,1.27 1.552,2.024 1.957,3.366 0.589,1.947 0.638,1.7 2.479,2.381 1.868,0.69 1.36,1.134 1.308,2.727 -0.014,0.418 0.074,0.806 0.223,1.176 0.879,-0.725 3.356,-1.214 4.099,-1.223 1.982,-0.025 2.591,0.966 3.594,2.501 0.589,0.902 0.704,0.996 1.647,1.003 0.071,-2.429 0.364,-4.925 0.479,-7.257 0.115,-2.353 -0.414,-5.977 2.059,-7.001 1.296,-0.537 3.252,-0.532 4.688,-0.46 -0.213,1.091 -0.972,2.604 -0.104,3.552 0.568,0.623 0.938,0.358 1.608,0.541 0.127,0.034 0.291,-0.015 0.441,-0.07 -0.072,-0.137 -0.13,-0.278 -0.09,-0.424 m 0,-0.002 c -0.04,0.146 0.018,0.288 0.09,0.424 0.164,-0.06 0.312,-0.126 0.378,-0.104 0.308,0.106 0.468,0.56 0.71,0.63 1.281,0.375 1.395,0.329 2.399,-0.338 0.026,-0.084 0.047,-0.157 0.075,-0.247"
   fill="#dccfbe"
   stroke-width="0.5"
   stroke="#000000"/>
</svg>
