<svg>
<path
   id="kolkata"
   d="m 721.649,196.43726 c -0.13527,0.0551 -11.2408,-10.62594 -11.2408,-10.62594 l -0.20276,-0.23758 -9.10584,-8.44734 12.65577,-12.75716 8.61372,4.00389 8.42491,3.91613 m -9.14497,24.14802 c 0.606,-0.329 6.24829,-2.21964 6.46329,-2.78764 m -6.46329,2.78764 c 1.101,0.339 12.90497,-5.33302 13.98297,-5.80802 1.604,-0.709 3.218,-0.677 3.646,-2.435 0.405,-1.658 -1.472,-2.609 -0.497,-4.283 0.051,-0.087 0.104,-0.148 0.158,-0.21 m -9.035,-12.419 c -0.528,0.004 -1.194,0.272 -1.705,0.14 -0.444,-0.114 -0.985,-0.801 -1.191,-0.832 -0.364,-0.054 -1.079,0.437 -1.326,0.387 -0.106,-0.021 -1.035,-0.422 -0.976,-0.419 -0.813,-0.046 -1.807,0.112 -2.688,-0.375 -0.915,-0.506 -1.111,-1.782 -2.277,-1.755 -0.261,-1.969 -1.983,-0.837 -3.162,-1.619 -0.941,-0.625 -1.273,-2.017 -2.506,-2.598 m 31.683,3.951 c -0.286,-0.501 -8.239,2.286 -8.572,1.852 -1.195,1.404 0.951,0.397 10e-4,-0.001 -0.879,-0.369 -2.679,-0.261 -3.548,-0.065 -1.331,0.3 -2.189,1.208 -2.843,2.341 m -9.14497,24.14802 c 0.12111,0.0481 13.80254,-6.0236 13.80254,-6.0236 3.78602,-2.34335 4.0278,-6.50032 4.11443,-6.46542 0.537,0.217 0.868,0.287 1.095,0.462 0.254,0.197 0.374,0.523 0.482,1.348 0.142,1.086 -0.249,2.306 -0.01,3.375 0.172,0.765 0.252,1.777 1.324,1.242 0.062,-0.031 0.106,-0.078 0.156,-0.121 0.598,-0.508 0.317,-1.748 0.358,-2.495 0.235,0.02 0.54,-0.08 0.773,-0.05 -0.175,-1.138 -0.046,-2.733 0.387,-3.909 2.065,0.575 2.906,0.083 2.936,-1.978 0.033,-2.353 1.465,-2.026 1.976,-3.808 0.531,-1.853 -0.382,-2.375 1.484,-3.461 1.223,-0.711 2.63,-0.507 3.668,-1.151 1.965,-1.219 0.425,-1.489 -0.369,-2.634 -0.144,-0.206 -0.192,-0.56 -0.217,-0.972 -0.069,-1.168 0.071,-2.818 -1.096,-2.998 -0.766,-0.117 -0.851,0.919 -1.419,0.989 -0.72,0.089 -1.065,-0.629 -1.712,-0.654 -1.09,-0.043 -2.496,0.737 -3.626,1.029 -1.57,0.407 -13.545,2.484 -14.962,4.127"
   fill="#8f8f8f"
   stroke="#000000"
   stroke-width="0.5"/>
</svg>
