<svg>
<path
   id="korea"
   d="m 838.449,139.07326 c -0.013,0.067 -0.023,0.131 -0.042,0.207 -0.329,1.327 -0.253,0.902 -1.085,1.667 -0.787,0.725 -1.005,0.06 -1.081,1.583 -0.043,0.862 0.347,1.519 0.506,2.333 0.31,1.582 -0.438,3.101 -0.147,4.558 2.017,0.297 3.405,-1.363 5.146,-1.934 0.601,-0.197 1.83,0.086 2.328,-0.196 1.145,-0.648 0.252,-1.399 0.651,-2.351 0.306,-0.727 1.234,-0.892 1.521,-1.656 0.288,-0.768 -0.169,-1.816 -0.378,-2.512 -0.488,-1.626 -1.255,-3.506 -1.461,-5.16 l -1.833,-0.333 c -0.041,0.226 -0.333,0.416 -0.738,0.598 m -10e-4,0 c -0.372,-1.144 -1.044,-2.136 -1.106,-3.354 -0.048,-0.924 1.16,-3.336 1.837,-3.991 0.633,-0.611 1.412,-0.376 2.105,-0.896 0.562,-0.42 0.663,-1.13 1.064,-1.761 1.549,-2.429 1.798,-5.159 4.237,-6.338 0.336,-0.163 0.717,-0.293 1.145,-0.392 0.043,-0.01 0.079,-0.023 0.123,-0.033 l -0.023,-0.005 -0.887,-0.205 c -1.145,1.071 -4.809,2.754 -5.925,3.712 -1.61,1.382 -1.236,1.335 -3.332,1.998 -1.352,0.427 -2.577,0.445 -3.921,1.08 -1.468,0.693 -1.816,1.3 -3.083,2.387 -1.249,1.072 -1.257,1.048 -2.767,1.833 1.025,0.82 2.799,1.216 2.94,2.865 0.082,0.964 -0.959,1.659 -0.661,2.702 0.353,1.229 0.682,0.52 1.828,0.838 1.518,0.421 1.859,1.92 3.039,2.756"
   fill="#dccfbe"
   stroke="#000000"
   stroke-width="0.5"/>
</svg>
