<svg>
<path
   id="london"
   d="m 437.824,27.697278 0.25,-1 c -3.021,-0.739 -6.767,-2.483 -9.806,-1.512 -0.654,0.209 -1.19,1.069 -1.939,1.268 -0.854,0.227 -1.617,-0.484 -2.362,-0.246 -1.558,0.498 -1.745,2.515 -4.106,1.953 -0.82,-4.348 -5.02,-4.764 -7.284,-1.088 -2,3.247 0.693,1.863 2.501,2.886 2.438,1.379 -1.625,1.77 -0.446,4.195 0.828,1.705999 3.937,1.597999 5.199,2.476999 1.899,1.322 2.459,2.346 4.989,2.758999 4.798,0.782 6.689,-2.196999 10.763,-3.954998 2.113,-0.912 3.671,-0.954 4.676,-3.545 0.798,-2.059 0.145,-4.17 -2.435,-4.192 z m 26.351,38.897991 c 0.359,0.971 -0.509,1.271 -0.676,2.04 -0.378,1.741999 0.964,0.45 1.83,1.056999 0.837,0.586 0.01,1.279 -0.236,1.974 0.938,0.417 1.143,2.351999 1.378,3.259999 1.367,0.273 2.732,-1.791999 3.981,-1.452 1.325,0.36 -0.003,1.858 -0.237,2.577 1.154,-0.098 1.365,0.231 1.203,1.243999 -0.054,0.339 -0.453,0.542 -0.469,0.966 -0.021,0.574 0.413,0.7 0.471,1.187 0.29,2.419999 -2.271,0.353 -3.474,0.877 -1.669,0.727999 1.344,2.344999 0.346,3.842999 -0.563,0.846 -3.805,1.559 -1.474,2.662 1.312,0.621 3.453,-0.694 3.902,1.471 0.707,0.173 1.768,-0.73 2.359,-1.059 0.214,1.990998 -2.567,2.329998 -3.945,2.568998 -1.652,0.288 -3.152,1.744 -3.304,3.616999 0.83,0.147 2.51,-0.527 3.306,-0.897 0.391,-0.180999 0.674,-0.534999 1.063,-0.707999 0.362,-0.161 0.673,-0.022 1.062,-0.251 0.854,-0.502 0.728,-1.105 1.812,-1.25 0.74,-0.099 1.581,0.151 2.362,0.101 0.01,-0.062 -0.018,-0.106 -0.076,-0.134 0.771,0.074 1.535,-0.642 2.341,-0.322 0.519,0.206 0.172,0.765 0.873,0.855 0.632,0.082 0.811,-0.405 1.312,-0.629 1.423,-0.635 3.117,-0.408 3.925,-2.092998 -0.458,-0.269 -1.052,-0.363 -1.594,-0.297 -0.099,-1.302 3.539,-4.387 1.36,-5.336 -0.919,-0.4 -1.689,0.869 -2.373,0.747 -0.518,-0.093 -1.183,-1.47 -1.106,-1.901 0.065,-0.373999 0.578,-0.653999 0.841,-0.971999 -0.59,-0.073 -2.356,-1.319 -2.347,-1.895 0.009,-0.531 1.068,-0.663 0.984,-1.373999 -0.072,-0.614 -0.714,-0.677 -1.156,-0.968 -1.369,-0.9 -1.415,-1.178 -1.719,-2.706999 -0.27,-1.356 -1.085,-1.285 -1.754,-2.198 -0.604,-0.826 -0.284,-1.576999 -1.374,-1.877999 -0.799,-0.221 -2.062,0.663999 -2.564,-0.248 -0.424,-0.769 0.838,-1.915 1.429,-2.348 1.304,-0.954999 2.042,-0.83 2.13,-2.666999 0.14,-2.882999 -3.695,0.279 -5.236,-1.133 0.212,-0.44 0.591,-1.284999 1.017,-1.570999 0.598,-0.403 1.675,-0.079 2.105,-0.72 0.405,-0.603 -0.22,-0.916 -0.137,-1.438 0.137,-0.864 1.095,-1.445999 1.131,-2.374999 l -0.125,-0.25 c -0.739,0.152 -1.312,0.475 -1.94,0.938 -0.611,0.451 -1.019,1.279999 -1.587,1.654999 -1.68,1.109 -3.193,-0.454 -4.406,1.717 -0.388,0.695 -0.284,1.530999 -0.695,2.192999 -0.427,0.688 -1.446,0.898 -1.598,1.746 -0.183,1.029 0.78,0.968 1.079,1.774999 z m -1.043,10.856997 c 0.082,0.017 0.153,0.011 0.228,0.013 0.962,0.029 1.334,-1.076999 1.018,-1.830999 -0.422,-1.004 -1.409,-1.295 -1.449,-2.546999 -0.768,0.241 -2.771,0.975999 -3.481,0.608999 l -1.25,-0.249999 c -1.107,-0.585 -2.006,0.974999 -1.631,1.776999 0.12,0.255 0.286,0.434 0.469,0.582 m 0.002,0 c -0.503,0.509 -1.345,0.898 -1.839,1.016 -1.308,0.313 -2.476,-0.578 -2.249,1.374999 0.18,1.548 1.791,1.172 2.097,2.277 0.204,0.735999 -1.625,2.408999 -2.098,2.975999 -0.843,1.01 -1.206,1.838 -0.093,2.876 1.336,1.248 2.194,-0.002 3.597,-0.761 0.464,-0.25 1.231,-0.681 1.742,-0.802 1.263,-0.299 0.437,0.132 1.538,0.655 1.348,0.641 2.609,-0.983 2.969,-2.126 0.433,-1.375 -0.503,-2.500999 -0.255,-3.735999 0.101,-0.505 0.703,-1.325 0.914,-2.09 -0.075,-0.002 -0.146,0.004 -0.228,-0.013"
   fill="#54bff9"
   stroke="#000000"
   stroke-width="0.5"/>
</svg>
