<svg>
<path
   fill="#6E8D4E"
   stroke="#000"
   stroke-width="0.5"
   d="m 331.44494,271.26898 c -1.391,-0.492 6.27006,-5.11972 5.81506,-6.32072 -0.716,-0.016 -4.31,-1.621 -4.941,-1.295 -0.301,-3.146 3.53,-4.345 4.726,-6.7 0.308,-0.605 0.702,-1.591 0.781,-2.257 0.128,-1.079 -0.174,-0.892 -0.817,-1.673 -0.749,-0.91 -1.021,-2.084 -1.436,-3.199 -0.449,-1.209 -0.343,-3.361 -1.873,-3.752 l -0.364,0.605 c -0.782,0.853 -1.233,1.929 -1.757,2.924 l -0.574,0.953 c -0.35,0.492 -0.768,0.926 -1.336,1.236 -2.263,1.236 -4.085,-0.365 -6.466,-0.342 -0.782,0.007 -2.883,-0.173 -2.986,0.846 0.396,0.188 0.61,0.51 0.718,0.877 -1.094,0.4 -2.193,-0.089 -3.296,0.025 -1.314,0.137 -1.602,1.16 -2.618,1.764 -1.651,0.981 -4.374,-1.59 -4.939,-3.081 -0.777,-2.046 1.412,-4.166 0.617,-5.933 -0.18,-0.402 -0.705,-0.447 -0.93,-0.82 -0.428,-0.708 -0.043,-0.858 -0.132,-1.555 -0.186,-1.457 -1.038,-0.694 -1.562,0.249 -0.389,0.7 0.056,0.727 -0.75,1.188 -0.213,0.121 -1.151,0.464 -1.401,0.531 -1.08,0.293 -2.111,0.459 -3.202,0.803 -0.042,2.186 -4.74,0.283 -6.003,0.123 -0.03,0.97 1.097,1.253 1.485,2.045 0.403,0.822 -0.074,2.045 0.682,2.684 0.392,0.331 0.863,-0.173 1.222,0.473 0.314,0.566 -0.017,0.987 -0.411,1.378 -0.285,0.282 -0.723,0.2 -1.066,0.511 -0.426,0.384 -0.449,0.818 -0.833,1.143 -0.573,0.482 -1.668,0.184 -2.104,0.562 -0.321,0.278 -0.41,1.281 -0.515,1.664 -0.446,0.095 -0.867,0.151 -1.331,0.127 -0.153,-0.418 -0.191,-0.892 -0.166,-1.336 -0.937,-0.048 -1.9,0.008 -2.837,-0.038 -0.114,-0.64 -0.529,-1.231 -1.247,-1.253 -0.262,-0.444 -0.347,-1.964 -1.041,-1.779 0.081,-0.047 0.164,-0.088 0.247,-0.129 -0.704,0.293 -1.255,0.521 -2.104,0.68 -0.952,0.176 -1.679,0.646 -2.812,0.75 -0.67,0.062 -2.883,0.547 -1.439,1.566 0.706,0.498 2.683,-0.763 2.234,1.164 -4.15,-0.077 -1.817,3.586 -1.386,5.895 0.487,2.609 -0.142,5.51 -0.84,7.877 -0.165,0.561 -0.32,0.922 -0.496,1.174 -0.413,0.59 -0.958,0.504 -2.136,0.451 -1.449,-0.064 -2.565,0.762 -3.69,1.498 -0.965,0.632 -2.27,1.482 -2.841,2.467 -0.628,1.083 -0.841,2.543 -1.347,3.627 -0.547,1.17 -1.296,2.914 -0.528,4.188 0.853,1.412 1.85,1.93 1.927,3.824 1.241,-0.115 1.339,-0.281 2.269,0.743 0.566,0.624 0.872,1.263 1.838,1.149 0.901,-0.105 1.171,-1 2.004,-1.468 0.31,-0.174 0.652,-0.318 1.009,-0.446 -0.179,1.314 -0.339,2.654 -0.265,3.916 0.12,2.031 1.653,1.373 3.109,1.037 0.389,-0.09 0.773,-0.157 1.123,-0.144 0.295,1.696 1.778,0.351 2.518,-0.051 1.196,-0.65 2.176,-0.577 3.251,-1.53 0.846,-0.75 1.797,-1.802 2.929,-2.07 2.02,-0.479 1.9,0.959 1.82,2.51 -0.068,1.32 -0.375,2.732 0.28,3.969 0.21,0.397 0.583,1.007 1.002,1.249 0.637,0.367 1.068,-0.044 1.684,0.183 0.331,0.121 0.927,0.887 1.28,1.1 0.189,0.113 0.619,0.045 0.847,0.15 0.307,0.144 0.44,0.578 0.784,0.727 0.634,0.275 1.161,0 1.813,0.443 0.535,0.362 0.832,0.842 1.432,1.172 -0.12963,0.0481 33.187,-35.369 33.187,-35.369 -0.0927,-0.45325 -8.31969,8.43831 -16.57455,17.42455 -8.25486,8.98623 -16.53764,18.06714 -16.74208,17.99258"
   id="manaus" />
</svg>
