<svg>
<path
     id="mexico"
     d="m 262.805,201.30626 c -0.753,-0.779 -4.635,-1.547 -5.182,-0.043 -0.404,1.111 1.229,1.119 1.827,1.441 0.657,0.354 1.187,1.619 1.976,1.393 0.356,-0.102 0.526,-0.777 1.024,-0.91 0.487,-0.129 0.905,0.062 1.356,0.139 0.059,-0.968 -0.446,-1.172 -0.595,-1.918 z m 5.592,-6.967 c -1.101,-0.634 -1.984,-0.608 -2.709,-1.595 -1.025,-1.397 -1.689,-1.023 -3.146,-1.619 -2.138,-0.874 -3.817,-2.846 -6.203,-2.84 -2.773,0.007 -5.103,-2.131 -7.924,-2.136 -0.67,-0.001 -1.459,-0.101 -2.088,0.105 0,0 -1.964,0.843 -3.25,1.225 -0.546,0.163 -1.055,0.153 -1.535,0.554 -0.546,0.457 -0.348,0.879 -0.597,1.387 -0.225,0.461 -0.801,0.704 -0.579,1.199 0.34,0.76 1.099,0.293 1.574,0.014 0.458,-0.269 0.822,-0.661 1.272,-0.928 0.543,-0.323 1.158,-0.359 1.708,-0.675 0.613,-0.352 2.453,-1.951 3.309,-1.133 0.489,0.467 -0.406,1.047 0.018,1.566 0.285,0.35 1.254,0.115 1.654,0.15 1.186,0.103 2.563,0.276 3.524,0.999 0.96,0.722 1.612,1.641 2.988,1.346 0.752,-0.161 0.673,-0.648 1.179,0.102 0.279,0.412 0.25,0.947 0.621,1.402 0.587,0.72 2.702,0.779 2.856,1.445 0.182,0.784 -2.305,1.924 -0.206,2.43 1.251,0.303 3.091,-0.277 4.348,-0.459 0.931,-0.135 2.911,0.303 3.679,-0.066 1.23,-0.594 0.196,-2.076 -0.493,-2.473 z m -22.448,-4.142 c -0.885,-0.949 -1.349,1.409 -1.353,2.104 1.134,0.574 2.911,-0.939 1.978,-1.979 z m 32.112,13.449 c -1.75364,-1.79571 -0.75667,-4.44225 -1,-6.391 0.981,-0.395 1.897,0.147 2.831,0.367 0.415,0.097 0.919,-0.01 1.321,0.125 0.878,0.295 0.443,0.422 0.837,0.992 1.024,1.484 4.088,0.627 3.624,3.365 -1.062,0.084 -1.222,-0.391 -2.073,-0.688 -1.024,-0.358 -1.115,0.561 -2.083,0.6 -0.694,0.029 -1.29,-0.898 -1.911,-0.588 -0.614,0.309 -0.414,1.744 -0.443,2.303 -0.331,0.162 -0.652,0.143 -0.9,-0.086 m -1.881,-6.162 c -0.832,-0.562 -1.671,-0.993 -2.695,-0.958 -3.09,0.107 0.383,2.299 0.612,3.562 0.477,2.637 -2.979,0.094 -3.97,0.734 -1.101,0.712 -0.048,1.68 0.765,1.807 0.85,0.134 1.943,-0.015 2.799,-0.098 1.037,-0.102 1.978,0.068 2.943,0.047 m -42.529,-11.118 c -1.101,-0.883 -1.974,0.314 -3.228,0.287 -1.141,-0.025 -2.158,-0.581 -3.242,-0.065 -0.412,0.196 -0.668,0.573 -1.13,0.749 -0.531,0.203 -1.457,0.016 -1.894,0.336 -0.882,0.646 -0.5,2.273 -0.559,3.254 -0.082,1.352 -0.761,1.539 -1.575,2.542 -0.683,0.843 -0.513,2.327 -1.479,2.636 -1.294,0.412 -1.682,-1.216 -2.796,-0.604 -0.533,0.293 -0.562,0.851 -1.082,1.013 -0.532,0.165 -1.066,-0.191 -1.597,-0.197 -1.124,-0.013 -2.135,1.269 -3.13,1.028 -0.604,-0.146 -0.571,-0.635 -0.985,-1.015 -0.426,-0.392 -1.058,-0.584 -1.579,-0.795 -2.247,-0.91 -3.029,-2.912 -4.202,-4.999 -2.342,-4.168 -3.688,-8.958 -2.114,-13.492 0.296,-0.854 0.647,-1.419 0.466,-2.039 0.622,-0.819 1.414,-1.593 1.242,-2.677 -1.48,-0.265 -2.719,-1.06 -4.189,-1.134 -0.281,-0.014 -0.547,-0.026 -0.807,-0.038 -0.092,-0.129 -0.184,-0.258 -0.271,-0.403 -1.124,-1.868 -2.35,-3.502 -3.163,-5.56 -0.368,-0.931 -0.811,-1.886 -1.403,-2.703 -0.503,-0.694 -0.941,-1.642 -1.592,-2.193 -0.416,-0.352 -3.403,-0.811 -3.95,-0.724 -0.795,0.126 -1.295,0.281 -1.673,0.857 -0.221,0.338 -0.166,0.977 -0.409,1.238 -1.012,1.092 -2.633,-0.663 -3.432,-1.318 -0.042,-0.035 -0.077,-0.069 -0.117,-0.104 -0.062,-0.423 -0.122,-0.848 -0.239,-1.257 -0.267,-0.935 -0.44,-1.913 -1.292,-2.467 -0.432,-0.281 -0.952,-0.444 -1.488,-0.592 -0.576,-0.84 -1.202,-1.533 -2.203,-2.182 -0.825,-0.534 -2.786,-1.328 -3.808,-1.383 -1.107,-0.059 -2.277,1.061 -2.687,2.001 -0.626,0.125 -1.25,0.24 -1.85,0.332 -0.681,0.104 -1.657,0.123 -2.333,-0.004 -0.802,-0.15 -1.454,-0.717 -2.164,-1.07 -0.91,-0.453 -1.613,-0.593 -2.596,-0.735 -0.919,-0.133 -1.951,-0.21 -2.869,-0.402 -0.89,-0.186 -1.123,-0.806 -1.831,-1.252 -0.718,-0.453 -1.643,-0.513 -2.418,-0.814 -0.749,-0.292 -1.21,-0.653 -2.058,-0.686 -1.777,-0.068 -3.731,0.523 -5.375,0.931 0.031,0.746 0.8,1.848 1.104,2.579 0.369,0.886 0.597,1.786 0.901,2.643 0.521,1.467 1.664,2.958 2.684,4.095 0.967,1.079 2.839,2.051 3.207,3.482 0.53,2.06 -2.647,2.156 -1.466,3.969 0.548,0.841 1.716,0.894 2.506,1.346 0.601,0.344 1.741,2.324 2.152,0.804 0.545,-0.122 1.126,0.962 1.506,1.345 0.695,0.698 0.911,1.108 1.025,2.093 0.206,1.787 -0.182,3.471 1.386,4.612 1.425,1.037 2.846,1.308 3.695,2.929 0.306,0.584 0.572,1.917 1.459,1.45 0.637,-0.335 0.706,-1.823 0.576,-2.377 -0.456,-1.938 -2.969,-1.501 -3.156,-3.261 -0.187,-1.755 -1.004,-3.12 -1.655,-4.742 -0.628,-1.565 -1.754,-2.818 -2.723,-4.208 -0.505,-0.724 -1.218,-1.249 -1.655,-2.027 -0.423,-0.753 -0.612,-1.656 -0.982,-2.435 -1.45,-3.049 -4.645,-4.235 -3.828,-8.243 0.085,-0.418 0.175,-0.787 0.495,-1.104 1.338,0.615 2.862,0.562 3.717,2.011 0.682,1.156 1.024,2.771 1.577,4.044 0.606,1.396 1.386,2.831 2.394,4.021 0.866,1.022 2.434,1.703 2.938,2.952 0.387,0.958 0.24,0.952 1.249,1.501 0.809,0.441 1.368,1.05 2.026,1.756 0.38,0.407 0.833,0.779 1.185,1.193 -0.515,0.568 -1.101,1.204 -0.777,2.034 0.229,0.585 0.718,0.91 1.275,1.026 0.606,1.073 2.67,1.708 3.544,2.649 0.993,1.071 1.622,1.886 2.842,2.698 0.011,0.007 0.021,0.016 0.032,0.023 0.515,0.934 1,1.942 1.599,2.838 0.897,1.342 2.002,2.669 2.214,4.296 0.211,1.625 -1.248,2.488 -1.018,4.067 0.188,1.291 1.763,2.844 2.835,3.566 1.374,0.926 2.846,1.793 4.215,2.748 1.31,0.915 2.792,0.668 4.03,1.412 1.25,0.754 1.93,1.982 3.163,2.777 1.601,1.031 3.034,1.152 4.869,1.523 1.39,0.279 2.836,0.32 4.179,0.788 0.713,0.249 1.233,0.478 1.928,0.566 0.273,0.438 0.604,0.881 0.864,0.958 0.543,0.16 1.255,-0.359 1.857,-0.784 0.295,0 0.587,-0.012 0.87,-0.054 0.988,-0.145 2.042,-0.479 3.078,-0.861 1.606,0.403 3.074,2.138 4.199,3.213 0.86,0.82 1.661,1.563 2.896,1.721 1.193,0.152 1.808,-0.234 2.751,-0.908 1.146,-0.818 2.253,-1.291 3.218,-2.327 0.546,-0.587 1.858,-1.485 1.933,-2.237 l 1.627,-4.576 c -0.426,-0.666 0.439,-1.908 0.625,-2.629 2.249,0.311 1.457,-3.16 2.007,-4.439 0.761,-1.767 2.379,-2.736 1.929,-4.816 z"
     fill="#dccfbe"
     stroke="#000000"
     stroke-width="0.5"/>
</svg>
