<svg>
<path
   fill="#DCCFBE"
   stroke="#000"
   stroke-width="0.5"
   d="M731.122,168.553  c0.462,0.408,1.692,0.123,2.247,0.678c2.407,2.414,2.474,6.116,4.082,8.699c1.661,2.667,5.223,2.251,8.181,3.901  c3.128,1.745,4.137,3.91,7.391,5.026c3.407,1.169,5.618,1.671,9.339,2.029c3.753,0.362,6.273,2.391,10.1,2.589  c3.974,0.207,6.481-0.847,10.102-1.944c3.15-0.955,6.55-0.234,9.736-1.59c4.567-1.943,2.799-3.399,3.492-7.346  c2.394-0.578,4.057,0.297,6.476-0.358c2.259-0.612,4.361-0.602,6.475-1.855c1.945-1.154,3.099-2.932,5.335-3.576  c1.971-0.568,5.384,0.062,5.955-2.536c-2.196,0.096-2.583-1.855-4.357-2.65c-1.916-0.859-4.487-0.346-6.549-0.458  c0.03-1.529,0.153-4.595,0.984-6.095c-0.603-0.467-1.155-0.869-1.53-0.987c-1.016-0.32-2.287,0.126-3.336-0.026  c-1.342-0.195-2.223-1.233-3.503-1.342c-1.585-0.136-2.015,0.875-3.076,1.592c-0.94,0.635-2.012,0.856-3.088,1.192  c-2.187,0.683-4.98,1.248-7.293,0.503c-2.222-0.715-4.083-2.152-6.211-3.081c-2.288-1-4.321-0.483-6.664-0.371  c-1.823,0.087-5.057-0.113-6.291-1.706c-0.559-0.721-0.249-1.897-1.083-2.586c-0.519-0.428-1.975-0.706-2.623-0.875  c-1.395-0.365-2.806-0.532-4.231-0.965c-1.61-0.489-1.714-0.875-2.815,0.304c-2.361,2.527-0.438,4.018-0.818,6.632  c-1.774,0.982-4.014,0.48-5.882,0.211c-1.003-0.145-1.969-0.14-3.005-0.178c-1.627-0.06-1.063-0.369-1.986-1.012  c-1.859-1.296-3.703-2.228-5.924-1.461c-2.258,0.779-3.495,2.852-5.685,3.634c-2.691,0.961-5.34,0.785-7.839,2.291  c-0.016,0.01-0.027,0.02-0.043,0.029c1.172,0.138,1.796,1.002,2.857,1.892C730.388,167.047,730.668,168.153,731.122,168.553z"
   id="mongolia" />
</svg>
