<svg>
<path
   fill="#dccfbe"
   stroke="#000000"
   stroke-width="0.5"
   d="m 731.122,100.28926 c 0.462,0.408 -2.23587,2.15466 -1.68087,2.70966 2.407,2.414 6.40187,4.08434 8.00987,6.66734 1.661,2.667 5.223,2.251 8.181,3.901 3.128,1.745 4.137,3.91 7.391,5.026 3.407,1.169 5.618,1.671 9.339,2.029 3.753,0.362 6.273,2.391 10.1,2.589 3.974,0.207 6.481,-0.847 10.102,-1.944 3.15,-0.955 6.55,-0.234 9.736,-1.59 4.567,-1.943 2.799,-3.399 3.492,-7.346 2.394,-0.578 4.057,0.297 6.476,-0.358 2.259,-0.612 4.361,-0.602 6.475,-1.855 1.945,-1.154 3.099,-2.932 5.335,-3.576 1.971,-0.568 5.384,0.062 5.955,-2.536 -2.196,0.096 -2.583,-1.855 -4.357,-2.65 -1.916,-0.859 -4.487,-0.346 -6.549,-0.458 0.03,-1.528999 0.153,-4.594999 0.984,-6.094998 -0.603,-0.467 -1.155,-0.869 -1.53,-0.987 -1.016,-0.32 -2.287,0.126 -3.336,-0.026 -1.342,-0.195 -2.223,-1.233 -3.503,-1.342 -1.585,-0.135999 -2.015,0.875 -3.076,1.592 -0.94,0.635 -2.012,0.856 -3.088,1.192 -2.187,0.683 -4.98,1.247999 -7.293,0.503 -2.222,-0.715 -4.083,-2.152 -6.211,-3.081 -2.288,-0.999999 -4.321,-0.482999 -6.664,-0.370999 -1.823,0.087 -5.057,-0.113 -6.291,-1.706 -0.559,-0.721 -0.249,-1.897 -1.083,-2.585998 -0.519,-0.428 -1.975,-0.706 -2.623,-0.875 -1.395,-0.365 -2.806,-0.532 -4.231,-0.965 -1.61,-0.489 -1.714,-0.875 -2.815,0.304 -2.361,2.526998 -0.438,4.017998 -0.818,6.631997 -1.774,0.982 -4.014,0.48 -5.882,0.211 -1.003,-0.145 -1.969,-0.14 -3.005,-0.178 -1.627,-0.06 -1.063,-0.369 -1.986,-1.011999 -1.859,-1.296 -3.703,-2.228 -5.924,-1.461 -2.258,0.779 -3.495,2.851999 -5.685,3.633999 -2.691,0.961 -5.34,0.785 -7.839,2.290999 -0.016,0.01 -0.027,0.02 -0.043,0.029 1.172,0.138 -6.87241,1.54378 -5.81141,2.43378 0.346,0.29 9.29441,0.85422 9.74841,1.254219 z"
   id="mongolia"/>
</svg>
