<svg>
<path
   id="moscow"
   d="m 603.446,125.69526 c -0.271,0.052 -0.504,0.133 -0.719,0.227 1.245,1.201 1.466,3.181 3.23,4.083 1.49602,0.91802 11.16079,8.64679 4.504,3.997 0.397,-0.014 0.793,-0.085 1.1645,-0.195 0.3365,-0.1 0.6505,-0.231 0.9235,-0.391 0.868,-0.508 2.873,-2.697 3.935,-1.752 0.662,0.589 -0.104,1.396 -0.13,2.034 -0.047,1.178 0.352,1.197 1.229,1.721 0.521,0.312 0.688,0.391 0.804,0.587 0.191,-0.389 0.234,-0.96 0.316,-1.431 0.197,-1.144 0.343,-0.907 0.999,-1.69 0.733,-0.875 0.123,-1.049 0.149,-2.188 0.012,-0.523 0.039,-0.807 0.384,-1.25 0.146,-0.188 0.427,-0.25 0.66,-0.356 0.125,-0.058 0.24,-0.125 0.306,-0.24 0.771,-1.354 -1.753,-2.61 -2.216,-3.94 -0.301,-0.867 -0.314,-1.727 -1.533,-1.463 -0.131,0.028 -0.236,0.071 -0.3345,0.116 -0.8755,-1.545 -1.6145,-3.079 -1.9445,-4.07 -0.85,-2.551 2.1,-0.813 0,-4.682 -2.1,-3.869 -4.1,-1.369 -2.1,-3.869 2,-2.5 -0.25,-1.75 2,-2.5 2.25,-0.75 4.284,-1.612 4.284,-1.612 -2.582,-0.263 -1.128,-2.734 -2.178,-4.085 -0.676,-0.871 -1.803,-0.639 -2.63,-1.152 -1.068,-0.663 -1.492,-1.880999 -1.474,-3.145999 -2.288,0.264 -1.269,-0.723 -0.673,-1.881 0.669,-1.302999 0.155,-2.853999 0.898,-4.080999 0.716,-1.181999 2.091,-1.971999 2.934,-0.977999 0.481,0.567 0.29,3.109999 1.689,2.511999 1.357,-0.58 0.117,-3.026999 0.444,-3.834999 0.443,-1.094 2.205,-1.155 3.176,-1.772998 0.751,-0.478 1.717,-1.806 2.592,-2.024 0.656,-0.164 1.198,0.32 1.818,0.259 0.632,-0.062 1.207,-0.625 1.982,-0.587 0,0 -3.8,0.328 -0.004,-0.0569 l -2e-4,3e-5 -3.97134,-33.569352 c -0.0675,0.367 -14.74499,5.852388 -28.95575,10.182087 -14.21074,4.329689 -21.45271,21.255635 -21.30671,21.704135 0.164,0.501 -5.396,-8.957998 -5.059,-8.623998 0.713,0.707 1.999,2.238999 1.83,3.355999 1.309,-0.072 1.82,0.542 2.213,1.744 -1.43,0.313999 -2.302,0.218 -3.713,0.044 -0.118,1.360999 1.326,3.222999 0.626,4.220999 1.445,0.297 2.645,-0.365 4.103,-0.741 1.056,-0.272 3.144,0.483 3.595,1.652 0.317,0.821 -0.352,1.288 0.315,2.065 0.275,0.319 1.216,0.681998 1.618,1.004998 0.536,0.432 1.016,0.629 1.237,1.396 0.301,1.041 -0.235,1.372 1.106,1.644 0.789,0.16 1.761,-0.034 2.565,0.047 1.066,0.108 2.06,0.549999 3.047,0.083 0.199,1.503999 1.173,1.704999 2.569,1.989999 0.753,0.153 0.95,0.148 1.605,0.495 0.249,0.132 0.271,0.508 0.594,0.626 0.385,0.143 0.791,-0.224 1.125,-0.134 1.555,0.423 0.958,1.718999 0.274,2.537999 -0.488,0.586 -0.813,0.291 -0.757,1.215 0.02,0.32 0.67,0.351 0.61,0.751 -0.099,0.660999 -0.625,0.259 -0.942,0.678999 -0.4,0.531 -0.34,1.159 -0.814,1.475 -0.456,0.303 -1.237,0.022 -1.74,0.229 -1.227,0.505 -0.756,1.622 -1.666,2.178 0.946,0.371 2.348,-0.739 1.535,0.218 -1.25,1.473 -1,2.443 -2.25,3.583 -1.25,1.14 -2,3.47 -2.75,3.555 -0.75,0.085 2.5,2.573 4.5,3.204 0.906,0.286 2.493,1.331 3.96,2.39 m 0,0.004 c -0.014,0.051 -0.032,0.085 -0.044,0.145 -0.199,1.004 0.776,1.078 1.469,1.319 1.6,0.557 2.483,1.469 3.463,2.929 0.371,0.554 0.923,1.515 0.904,2.217 -0.011,0.397 -0.204,0.692 -0.391,0.994 0.935,-0.067 1.924,0.062 2.753,0.268 0.666,0.166 1.151,0.467 1.54,0.842 0.215,-0.094 0.447,-0.174 0.719,-0.227"
   fill="#9c6bae"
   stroke-width="0.5"
   stroke="#000000"/>
</svg>
