<svg>
<path
   id="mumbai"
   d="m 676.18549,154.12093 c 4.94908,4.50216 34.22271,31.69039 34.22271,31.69039 l -22.13301,25.01521 -14.98222,-26.40645 m 2.89249,-30.29933 24.91414,23.00565 -0.0663,-0.01 c 0,0 -24.63349,-23.51478 -24.84784,-22.99565 -1.333,0.28 -2.98749,3.43933 -4.16649,3.69933 -0.153,0.034 -1.379,0.896 -1.419,1.024 -0.181,0.58 0.523,1.021 0.579,1.582 -1.333,0.061 -1.951,-0.637 -2.903,0.332 -0.854,0.869 -1.006,2.073 -1.545,3.103 -0.685,1.31 -1.233,1.349 -2.65,1.458 -1.373,0.105 -2.534,0.632 -3.949,0.628 -2.365,-0.007 -4.71,-0.121 -7.04,-0.208 0.076,1.07 0.603,2.079 1.836,2.229 0.965,1.346 2.546,1.943 2.895,3.594 0.203,0.964 0.436,1.318 0.824,2.127 0.294,0.61 0.613,1.41 -0.326,1.888 -0.802,0.408 -1.337,-0.179 -2.086,0.518 -0.421,0.391 -1.08,1.441 -1.346,1.921 -0.292,0.528 -0.199,1.926 -0.602,2.276 -0.414,0.361 -1.35,0.075 -2.007,-0.049 l 0.044,0.079 c 1.436,0.105 3.116,0.846 4.623,0.627 1.305,-0.189 2.596,-0.829 3.686,-1.26 0.922,-0.365 0.975,-0.011 1.741,0.203 0.87,0.243 1.311,0.052 2.198,-0.162 0.987,-0.237 3.268,-1.018 4.158,-0.321 0.788,0.616 0.205,1.356 0.379,2.076 0.3,1.241 0.704,0.23 1.473,0.895 0.565,0.489 0.141,1.251 0.804,1.751 0.317,0.239 1.138,0.395 1.657,0.338 0.094,-0.01 0.181,-0.025 0.25,-0.049 m -10e-4,10e-4 c -0.069,0.024 -0.25,0.049 -0.25,0.049 0.224,0.97 0.717,1.855 1.892,2.563 l 1.38721,2.871 c 0,0 1.85627,-0.31723 0,0 -0.484,2.342 1.55186,4.80618 3.16186,5.18018 l 6.08796,10.73493 c 0.337,2.369 1.59297,2.96589 2.67197,5.14989"
   fill="#8f8f8f"
   stroke="#000000"
   stroke-width="0.5"/>
</svg>
