<svg>
<path
   fill="#9c6bae"
   stroke="#000000"
   stroke-width="0.5"
   d="m 618.48815,19.989685 c -2,1.5 -8.30619,5.956593 -9.48419,4.456593 -1.178,-1.5 -3.972,-4.5 -1.825,-4.75 2.147,-0.25 3.195,-0.5 3.296,-1.25 0.101,-0.75 -5.661,-2 -6.53,-2 -0.869,0 -1.061,-1.5 -1.215,1.25 -0.154,2.75 1.215,3.75 1.215,3.75 l 2.131,4.75 c 0,0 0.238,3.5 -2.131,1.5 -2.369,-2 -2.014,-3.25 -5.191,-1.5 -3.177,1.75 -7.898,4.963 -5.788,5.606 2.11,0.643 -0.525,1.894 -0.525,1.894 0,0 -6.364,-2.037 -7.114,-1.894 -0.75,0.143 0.5,3.144 0,4.143999 -0.5,1 -4.75,1 -5.5,-2.249999 -0.75,-3.25 0.051,-3.75 -1.85,-5.75 -1.901,-2 -7.688,-5.5 -5.294,-4.75 2.394,0.75 8.394,2.75 12.144,3 3.75,0.25 6.961,3.25 9.23,0 2.269,-3.25 3.77,-4.25 1.77,-6.25 -2,-2 0.5,-1.5 -5.25,-2 -5.75,-0.5 -7.838,0 -8.544,-2 -0.706,-2 2.294,-1.25 -0.706,-2 -3,-0.75 -3.5,0.532 -4.25,-0.859 -0.75,-1.391 -0.07,-1.998 -2.291,-1.891 -5.209,0.25 -2.662,-2.3480001 -6.248,-0.75 -3.586,1.598 2.508,-1.2990001 -2.477,-0.274 -0.49,0.617 -0.365,1.31 -1.109,1.872 -0.571,0.432 -1.085,0.208 -1.562,0.908 -0.362,0.532 -0.48,1.157 -0.875,1.745 -0.46,0.686 -1.026,1.154 -1.373,1.799 0.454,1.043 1.868,1.473 2.836,2.546 1.535,1.702 -2.081,3.368 -1.12,5.524 0.502,1.128 1.654,1.806 2.066,2.912 0.527,1.414 -0.731,2.232 -0.702,3.571 0.254,0.021 0.451,0.173 0.714,0.165 -0.254,0.509 -0.861,0.802 -0.583,1.45 0.105,0.248 0.701,0.303 0.85,0.532 0.254,0.393 0.141,0.415 0.25,0.749 0.061,0.189 -0.323,0.443 -0.225,0.726 0.094,0.265 0.626,0.366 0.755,0.615 0.303,0.580999 0.39,0.893999 0.323,1.637999 -0.403,0.136 -0.774,0.365 -1.088,0.672 0.938,1.48 4.404,2.727999 3.438,4.545999 -0.666,1.254999 -2.18,2.091999 -3.134,3.120999 -0.859,0.927 -1.743,1.835999 -2.699,2.684999 -0.938,0.833 -1.703,1.762 -2.588,2.651 -0.018,0.018 -0.033,0.03 -0.051,0.047 0.184,0.296999 0.501,0.648999 1.148,1.298999 1.744,1.75 -1.106,3.385999 -1.106,3.385999 0,0 -0.649,1.907 -1.458,4.502999 0.157,0.665 0.374,1.346 0.189,2.177 -0.145,0.653999 -0.575,1.284999 -1.09,1.873999 1.234,0.303 0.775,1.489 0.855,2.788999 0.73676,0.20727 5.5848,17.409656 9.48462,21.876216 0.91696,1.050218 5.16522,-4.97303 5.42241,-4.79675 0.53488,-0.033 7.65295,-6.026869 18.52291,-10.217748 1.4724,-0.567669 9.39524,-10.333027 10.89733,-10.964487 14.97824,-6.296668 20.91023,-10.137457 20.91023,-10.137457 l -5.59012,-32.324579"
   id="murmansk"/>
</svg>
