<svg>
<path
   id="neareast"
   d="m 617.093,164.35826 c 0.073,-0.02 0.15,-0.03 0.22,-0.062 -0.076,-0.332 -0.149,-0.614 -0.227,-0.88 -0.196,-0.676 -0.425,-1.214 -0.861,-1.975 -0.527,-0.915 -0.328,-1.938 -0.901,-2.863 -0.443,-0.713 -1.757,-1.725 -2.374,-2.132 -0.427,-0.282 -0.896,-0.486 -1.344,-0.784 -0.402,-0.268 -0.251,-0.716 -0.886,-0.862 0.1,-2.246 -2.382,-3.329 -1.487,-5.498 0.769,-1.863 2.608,-3.009 0.683,-4.442 -0.266,-0.198 -0.816,-0.402 -0.965,-0.728 -0.187,-0.413 0.219,-0.784 0.134,-1.062 -0.216,-0.707 -0.95,-1.356 -1.259,-2.005 -0.347,-0.73 -0.388,-0.929 -0.703,-1.002 -0.196,-0.045 -0.499,-0.043 -1.053,-0.088 -0.924,-0.075 -1.535,-0.311 -2.469,-0.687 -0.982,-0.396 -1.03,-0.757 -2.274,-0.252 -0.286,0.116 -0.564,0.27 -0.8365,0.4395 -0.1125,-0.1765 -0.2885,-0.3575 -0.5425,-0.5435 -0.885,0.999 -2.293,0.808 -3.499,1.238 -1.144,0.407 -2.525,1.176 -3.688,1.393 -1.252,0.234 -2.258,-0.692 -3.501,-0.491 -0.601,0.097 -0.972,0.458 -1.624,0.5 -0.681,0.043 -1.281,-0.465 -1.841,-0.474 -1.718,-0.03 -0.282,1.801 -1.953,1.868 -0.167,0.684 -0.177,1.31 -0.767,1.733 -0.151,0.109 -0.354,0.141 -0.564,0.159 -0.405,0.033 -0.851,0.008 -1.069,0.333 -0.452,0.672 0.048,3.031 0.479,3.412 0.794,0.698 2.494,0.197 1.377,1.815 -0.312,0.452 -0.985,0.736 -1.298,1.206 -0.349,0.525 -0.388,1.122 -0.646,1.701 -0.19,0.427 -0.356,0.848 -0.508,1.259 -0.629,-0.204 -1.206,0.394 -1.586,1.053 -0.655,1.135 -0.258,1.996 -1.283,2.967 -0.824,0.781 -1.268,1.378 -1.504,2.503 -0.031,0.151 -0.034,0.294 -0.048,0.44 0.794,0.933 2.241,3.107 2.156,4.238 -0.064,0.866 -0.938,1.803 -1.21,2.624 -0.123,0.373 -0.189,0.784 -0.261,1.198 0.11,0.084 0.249,0.167 0.43,0.248 0.316,0.142 0.755,0.212 1.177,0.2655 0.013,0.2055 0.04,0.3905 0.101,0.5145 0.232,0.478 1.241,0.722 1.63,1.105 0.472,0.464 0.802,1.226 1.146,1.795 0.693,1.143 1.789,1.898 2.356,3.059 0.285,0.584 0.225,1.248 0.434,1.857 0.228,0.661 0.754,1.081 1.057,1.682 0.667,1.323 -0.014,2.874 1.382,3.686 1.716,0.998 2.456,0.893 3.42,2.893 0.679,1.411 1.17,2.605 0.737,4.01 -0.619,2.008 -0.289,2.145 1.202,3.394 1.207,1.011 1.235,2.274 2.062,3.47 0.755,1.09 2.154,1.683 2.922,2.767 0.949,1.343 1.829,2.647 2.41,4.115 0.577,1.458 1.212,2.435 2.3925,3.163 l -0.0625,0.191 -0.59,2.557 c 0.117,0.932 0.133,1.568 0.008,2.585 -0.125,1.017 1.25,2.733 1.283,3.858 0.033,1.125 1.842,2.75 1.842,2.75 l 0.625,0.725 c 0.625,0.724 1.125,-0.475 2.625,-1.023 1.5,-0.55 2.688,-1.951 2.688,-1.951 0,0 1.562,0.375 3.438,0 1.876,-0.375 2.375,-1.5 2.375,-1.5 l 1.5,-0.382 c 1.5,-0.382 2.375,-1.243 3.75,-2.477 1.375,-1.234 3.5,-0.767 4.5,-1.392 1,-0.625 1.875,-1.375 2.125,-2.375 0.17,-0.68 1.141,-1.238 1.75,-1.529 0.286,-0.137 0.4995,-0.2205 0.4995,-0.2205 0,0 -0.2145,0.0845 -0.5005,0.2215 0.134,-0.045 2.92,-0.971 4.75,-0.971 1.875,0 1.125,-0.875 1.875,-2.25 0.75,-1.375 0,0 1,-0.318 1,-0.317 1.5,-0.182 2,-1.057 0.5,-0.875 1.625,-1.625 2.625,-2.168 1,-0.543 1.125,-1.582 1.125,-1.582 0,0 0.25,-2.5 0.5,-3.75 0.25,-1.25 1.375,0.625 2,0.875 0.625,0.25 0.375,-0.625 0.5,-1.875 0.125,-1.25 0.75,-1.375 1,-2 0.25,-0.625 1.375,-2.125 1.75,-3.125 0.375,-1 -0.75,-0.75 -1.625,-2.17 -0.875,-1.42 -0.875,-1.58 -1.875,-1.636 -1,-0.056 -3.75,-1.819 -4.75,-2.319 -0.374,-0.187 -0.573,-0.619 -0.676,-1.087 -0.172,-0.783 -0.074,-1.6645 -0.074,-1.6645 0,0 -0.098,0.8805 0.074,1.6625 0.574,-1.092 0.418,-2.522 0.21,-3.696 -0.312,-1.761 -0.84,-2.666 -2.476,-1.032 -1.113,1.111 -1.624,2.524 -2.59,3.694 -0.601,0.728 -1.137,0.394 -1.807,0.906 -0.657,0.502 -0.274,1.315 -0.856,1.708 -0.784,0.529 -2.139,-0.435 -2.931,-0.284 -0.557,0.106 -0.965,0.594 -1.453,0.915 -0.198,0.131 -0.409,0.236 -0.6505,0.2725 0.2405,-0.0355 0.4515,-0.1415 0.6495,-0.2715 -0.432,-0.362 -0.863,-0.794 -1.395,-1.285 -1.28,-1.182 -2.707,-1.586 -3.622,-3.214 -0.856,-1.524 -1.049,-3.322 -2.186,-4.591 -0.681,-0.76 -0.97,-1.111 -1.342,-2.035 -0.364,-0.902 -0.958,-1.536 -1.354,-2.502 -0.448,-1.099 -0.222,-1.6 -1.185,-1.697 -0.126,-0.013 -0.267,-0.02 -0.437,-0.02 m 0.003,0.001 c 0.17,0 0.311,0.007 0.437,0.02 0.111,-0.312 0.13,-0.664 0.01,-1.054 -0.201,-0.654 -0.926,-0.532 -0.85,-1.374 0.062,-0.675 0.58,-0.548 0.88,-0.959 0.61,-0.838 0.439,-1.129 0.013,-1.376"
   stroke="#000000"
   stroke-width="0.5"
   fill="#dccfbe"/>
</svg>
