<svg>
<path
   id="newzealand"
   d="m 969.446,371.32226 c 0.457,0.652 0.315,0.705 0.504,1.439 0.947,3.679 4.943,1.122 2.874,-1.564 h -2 c -0.374,-0.51 -1.39,-2.584 -2.128,-1.252 -0.43,0.775 0.387,0.858 0.75,1.377 z m 14.129,8.081 c -1.182,-0.616 -1.55,1.337 -2.379,1.761 -0.757,0.387 -2.009,0.072 -2.671,-0.476 -0.636,-0.526 -0.7,-1.369 -1.201,-2.116 l -1.125,-2 c -1.086,0.122 -1.293,1.34 -1.521,2.231 -2.842,-0.145 -0.689,3.038 -1.104,4.655 -0.33,1.292 -2.498,1.417 -2.223,2.96 0.327,1.832 2.508,1.05 3.312,2.519 0.867,1.581 -0.612,2.599 -0.588,4.136 0.037,2.312 2.668,1.155 3.551,-0.056 1.062,-1.456 2.634,-3.414 2.448,-5.254 -0.18,-1.781 -1.247,-2.977 1.126,-2.568 0.963,0.165 0.817,0.455 1.403,-0.78 0.407,-0.859 0.433,-1.672 0.729,-2.471 0.26,-0.694 1.558,-1.854 0.243,-2.541 z m -14.153,12.623 -1.375,0.25 c 0.073,0.001 0.122,0.065 0.159,0.097 -0.123,0.105 -0.297,0.245 -0.431,0.388 -0.982,-0.429 -0.913,-1.949 -2.238,-1.194 -0.959,0.547 -1,2.039 -1.235,2.959 -0.391,1.521 -0.796,0.699 -1.59,1.616 -0.661,0.762 -0.213,2.038 -0.918,2.896 -0.69,0.84 -2.111,1.035 -3.01,1.661 -0.913,0.636 -1.589,1.554 -2.503,2.188 -0.701,0.484 -1.515,1.078 -2.276,1.476 -1.303,0.68 -1.291,0.446 -1.824,1.917 -0.565,1.559 -3.38,3.569 -2.48,5.454 0.649,1.362 1.488,-0.38 2.728,0.295 0.477,0.261 0.57,0.818 1.098,1.02 0.454,0.173 1.975,0.219 2.511,0.224 1.484,0.014 2.07,-1.074 3.261,-1.654 1.283,-0.625 2.242,-0.771 2.608,-2.229 0.622,-2.48 -0.122,-5.044 2.847,-6.154 0.982,-0.368 2.187,0.183 2.938,-0.113 1.234,-0.484 0.833,-2.446 1.139,-3.339 0.506,-1.478 2.065,-2.633 2.969,-3.891 0.978,-1.359 0.426,-1.458 -0.272,-2.717 -1.246,0.082 -1.777,0.314 -2.106,-1.15 z"
   fill="#DCCFBE"
   stroke="#000"
   stroke-width="0.5" />
</svg>
