<svg>
<path
     fill="#ef7f72"
     stroke="#000"
     stroke-width="0.5"
     d="m 173.67754,130.52542 79.44346,24.09884 -29.24316,-8.78268 c 23.21284,-23.98869 23.21284,-23.98869 0,0 l -50.2003,-15.31616 1.24768,26.87884 c 6.21553,-112.755475 -77.714758,-18.12816 -1.24522,7.383 1.363,0.371 2.834,0.606 4.305,0.812 0.137,0.905 0.33,1.798 0.602,2.672 1.077,3.461 2.475,5.962 4.952,8.063 1.454,1.232 3.406,2.276 4.91,3.737 l 8.06,-3.721 8.565,1.971 c 0.586,-1.631 -0.498,-2.503 -0.772,-3.952 -0.069,-0.366 0,-1.015 0.133,-1.678 l 16.492,-7.614 c 0.326,0.162 0.206,0.456 0.658,0.916 1.314,1.338 1.773,0.481 3.112,0.003 1.108,-0.396 2.748,1.315 3.276,0.686 0.927,-1.105 -1.823,-2.307 -1.079,-3.441 0.472,-0.72 3.248,-0.806 3.994,-0.621 1.412,0.35 2.23,0.589 3.795,0.423 1.98,-0.21 2.203,0.399 3.719,1.316 1.509,0.912 2.532,-0.811 4.091,-0.535 1.062,0.188 2.43,1.705 2.965,2.594 0.681,1.132 -0.014,2.515 0.103,3.869 0.065,0.755 0.17,1.235 0.623,1.857 0.516,0.709 1.465,0.836 1.906,1.468 0.655,0.94 0.123,2.886 1.028,3.743 0.49,0.464 0.93,0.227 1.419,0.903 0.389,0.536 0.309,1.023 0.902,1.448 1.458,1.043 1.969,-0.583 2.106,-1.825 0.341,-3.088 -0.322,-5.711 -1.603,-8.531 -1.097,-2.416 -1.746,-5.395 -2.096,-8.043 -0.343,-2.593 1.123,-5.257 3.275,-6.683 0,0 -76.40809,-63.025627 -79.44346,-24.09884 z"
     id="neworleans" />
</svg>
