<svg>
<path
   id="newdelhi"
   d="m 676.1855,154.12093 24.84783,22.99547 13.03969,-12.90514 -6.058,-0.47699 m -2e-5,-1e-5 c 0.134,-0.421 0.201,-0.86 0.135,-1.344 -1.666,-0.497 -3.17,-2.124 -4.22,-3.195 -1.029,-1.051 -2.463,-2.493 -2.152,-4.393 0.823,0.18 1.635,0.929 2.445,1.314 1.223,-1.246 -0.009,-2.871 -0.745,-3.789 -1.085,-1.351 -1.007,-2.243 -0.93,-3.944 -2.202,-0.567 -1.649,-3.298 -4.09,-3.157 -0.151,0.009 -0.3,0.031 -0.4465,0.0585 -0.7425,-0.6215 -2.2735,-0.9145 -2.9405,-1.4495 -0.966,-0.776 -0.103,-1.458 -0.749,-2.447 -0.422,-0.646 -1.531,-1.173 -2.348,-1.374 -0.449,0.822 -1.882,0.877 -2.774,0.931 -1.344,0.081 -2.403,0.336 -3.62,0.631 -1.48,0.359 -2.469,0.726 -2.766,2.295 -0.217,1.149 0.411,2.318 -0.24,3.388 -0.912,1.5 -2.043,1.025 -1.769,3.167 -0.854,0.365 -2.168,-0.119 -3.085,-0.209 -0.436,0.867 -1.69851,3.07567 -1.53451,3.90367 0,0 37.3326,34.5259 24.91411,23.00547 l 12.65577,-12.75716 -12.72204,12.74734 c 0,0 -24.63349,-23.51478 -24.84784,-22.99565 m 37.88751,10.09033 c -0.889,-0.418 -2.605,-1.122 -3.59,-1.354 -0.994,-0.234 -1.738,0.444 -2.468,0.878"
   fill="#8f8f8f"
   stroke="#000000"
stroke-width="0.5"/>
</svg>
