<svg>
<path
     fill="#ef7f72"
     stroke="#000000"
     stroke-width="0.5"
     d="m 290.677,111.51926 c -2.409,-2.725 -1.013,-4.955 -1.365,-6.415 -0.282,-1.17 -1.929,-1.782 -3.047,-2.035 -1.587,-0.359 -2.157,-0.09 -2.564,1.503 -0.363,1.417 -1.594,2.356 -1.794,3.792 -0.194,1.398 -0.426,2.206 -1.833,2.75 -1.186,0.458 -1.512,0.707 -2.749,0.705 -1.497,-0.002 -2.892,0.629 -4.315,0.943 -1.355,0.298 -2.753,0.354 -4.126,0.568 -1.156,0.181 -1.729,1.48 -2.894,1.367 -0.002,0.035 -0.004,0.069 -0.006,0.104 -0.091,1.761 -0.208,3.433 -2.402,3.551 -1.639,0.088 -3.162,-1.25 -4.793,-0.314 -1.502,0.862 -2.115,3.079 -3.586,4.251 -1.371,1.092 -3.427,1.877 -5.127,2.162 -1.168,0.195 -4.496,0.919 -5.25,-0.258 -0.377,-0.589 0.04,-1.242 0.618,-1.907 -0.084,-0.108 -0.131,-0.271 -0.121,-0.513 0.034,-0.84 1.049,-1.759 1.853,-2.501 -4.28623,-5.8933 -23.11933,26.36317 -23.11933,26.36317 l 29.06433,8.98883 -29.24316,-8.78268 20.94816,-21.64832 -20.94816,21.64832 29.24316,8.78268 c 1.315,-0.871 2.364,-1.058 3.19,-2.408 0.504,-0.825 0.379,-0.847 1.26,-1.148 0.629,-0.215 1.218,-0.064 1.804,-0.506 0.524,-0.395 0.654,-1.193 1.05,-1.601 0.546,-0.561 0.756,-0.416 1.687,-0.588 1.002,-0.187 2.613,-0.889 3.301,-1.689 1.13,-1.315 0.629,-4.31 -0.499,-5.994 -0.43,-0.898 -0.854,-1.738 -0.844,-2.307 0.018,-1.008 0.578,-2.031 0.627,-3.126 0.07,-1.579 -0.103,-2.523 1.725,-2.671 0.934,1.495 -1.017,3.823 0.022,5.115 1.025,1.274 2.119,-2.021 2.353,-2.757 0.185,-0.585 0.345,-1.429 0.681,-1.971 0.356,-0.577 0.981,-0.669 1.222,-1.403 0.238,-0.726 -0.281,-1.67 0.152,-2.347 0.415,-0.648 1.463,-0.67 2.002,-1.123 0.568,-0.477 0.634,-0.938 1.348,-1.276 0.677,-0.32 1.514,-0.226 2.242,-0.372 1.283,-0.258 3.554,-0.918 4.287,-2.096 1.102,-1.772 -1.221,-2.323 -1.037,-3.915 0.105,-0.903 1.025,-1.121 1.415,-1.748 0.44,-0.709 0.205,-1.596 0.808,-2.257 1.124,-1.231 3.909,-1.188 5.405,-1.897 0.746,-0.353 1.76,-0.625 2.402,-1.064 0.652,-0.446 0.557,-1.389 1.203,-1.678 -0.092,-0.092 -0.167,-0.184 -0.25,-0.278 z"
     id="newyork"/>
</svg>
