<svg>
<path
   id="nigeria"
   d="m 490.439,222.61926 c -0.101,0.55 -0.269,0.836 -0.119,1.449 0.255,1.048 -0.372,1.048 -0.059,2.048 0.313,1 1.173,2.833 -0.09,3 -1.263,0.167 -1.763,2.5 -1.763,2.5 v 7.5 c 0,0 3.332,-0.667 4.166,0.833 0.834,1.5 3.333,1.833 3.5,2.5 0.167,0.667 0.333,1.605 1,2.469 0.667,0.865 3,1.198 4.167,0.865 0.735,-0.211 2.52,-0.595 3.825,-0.816 -0.289,-0.317 -0.404,-0.598 -0.039,-0.854 -0.365,0.254 -0.25,0.535 0.039,0.85 0.467,0.508 1.389,1.104 1.498,1.82 0.177,1.162 2.33,-0.504 1.92,1.496 -0.347,1.689 -0.64,3.488 -0.269,4.41 0.175,-0.298 0.342,-0.601 0.525,-0.894 1.021,0.877 2.167,0.919 3.334,0.966 0.252,-0.434 0.657,-0.736 1.334,-0.815 1.617,-0.19 3.247,0.411 4.923,0.605 0.614,-0.433 1.545,-0.45 2.828,-0.106 1.049,0.282 2.658,2.289 3.681,2.155 1.304,-0.17 1.365,-3.263 1.578,-4.317 0.007,-0.035 0.014,-0.062 0.021,-0.098 -0.41,-0.111 -0.688,-0.195 -0.7865,-0.238 0.0975,0.043 0.3755,0.127 0.7855,0.238 0.447,-2.205 0.653,-2.656 3.138,-2.406 1.015,0.102 1.971,0.156 2.931,0.197 -0.063,-2.723 2.139,-5.336 4.999,-3.525 2.01,1.272 4.381,3.232 6.546,1.442 0.529,-0.438 0.383,-0.898 1.14,-1.112 0.653,-0.186 1.284,0.431 1.988,0.266 0.532,-0.125 0.898,-0.785 1.454,-0.972 0.842,-0.281 1.22,0.173 1.912,0.038 1.436,-0.279 1.741,-0.969 3.432,-0.82 0.695,0.061 1.404,0.066 2.103,0.176 1.037,0.162 0.385,-0.247 1.406,0.415 0.77,0.499 1.277,1.104 2.028,1.46 -0.202,-0.63 -0.497,-1.248 -1.128,-1.866 -1.243,-1.216 -1.801,-2.005 -2.523,-3.483 -0.5,-1.023 -0.945,-1.969 -1.845,-2.678 -0.547,-0.432 -1.195,-0.469 -1.702,-1.023 -0.343,-0.375 -0.421,-1.1 -0.869,-1.56 -0.354,-0.362 -0.952,-0.397 -1.316,-0.782 -0.485,-0.513 -0.305,-1.109 -0.905,-1.551 -1.438,-1.059 -2.181,0.099 -2.155,-2.283 0.02,-1.77 0.175,-2.166 -0.885,-3.629 -0.088,-0.122 -0.199,-0.253 -0.318,-0.389 -0.619,-0.044 -1.176,-0.155 -1.627,-0.3185 0.449,0.1625 1.006,0.2735 1.625,0.3175 -0.365,-0.411 -0.815,-0.867 -0.984,-1.246 -0.258,-0.58 -0.144,-1.12 -0.299,-1.557 -0.355,-1.002 -2.171,-2.086 -0.99,-3.021 -0.362,-0.483 -1.25,-0.781 -1.365,-1.326 -0.099,-0.466 0.85,-0.277 0.821,-0.664 -0.013,-0.179 -0.283,-0.58 -0.263,-0.709 0.105,-0.679 -0.413,-0.766 -0.007,-1.591 0.08,-0.161 0.692,-0.229 0.798,-0.404 0.177,-0.291 0.132,-0.823 0.173,-0.896 0.225,-0.396 0.806,-1.229 0.957,-1.73 0.173,-0.574 -0.291,-1.875 0.025,-2.35 0.352,-0.527 1.888,-0.703 2.936,-0.873 v -11.395 c -6.671,-3.764 -17.666,-10.109 -20.571,-11.696 l -1.656,-0.444 c -1.047,0.091 -2.458,0.561 -3.256,0.853 m 0,0 c -0.373,0.137 -0.612,0.235 -0.612,0.235 0,0 -3.667,-0.171 -4.167,-0.009 -0.343,0.111 -1.468,-0.79 -2.035,-1.635 -1.773,0.744 -4.635,1.901 -5.798,2.806 -1.5,1.167 -2.594,2.167 -4.547,3.667 -1.953,1.5 -5.452,3.251 -6.119,4.042 -0.667,0.791 -0.334,1.743 -1.834,2.101 -1.5,0.358 -2,0.523 -2.833,0.69 -0.833,0.167 -2.166,-0.833 -2.333,0.667 -0.022,0.204 -0.031,0.407 -0.033,0.609 -0.012,1.29 0.322,2.532 0.033,3.394 -0.334,0.997 0.764,2.997 -0.035,4.997 -0.799,2 -1.299,2.999 -1.799,3.333 -0.5,0.334 -3.5,0.166 -4.5,0 -1,-0.166 -1,-0.282 -1.833,0.192 -0.833,0.474 -0.334,1.341 -1.667,0.824 -1.171,-0.454 -2.083,-0.483 -2.175,-0.155 -0.013,0.045 -0.012,0.097 0.009,0.155 0.166,0.483 1.832,2.983 2.166,3.483 0.334,0.5 0.834,0.834 0.834,1.834 0,1 1.5,2.014 1.5,2.014 0,0 1.26,-0.16 2.17,-0.139 0.371,0.008 0.686,0.046 0.83,0.139 0.5,0.319 1.253,2.318 2.166,2.144 0.242,-0.046 0.545,0.036 0.864,0.179"
   fill="#dccfbe"
   stroke="#000000"
   stroke-width="0.5"/>
</svg>
