<svg>
<path
   id="northafrica"
   d="m 550.935,159.46826 c -0.065,-0.092 -0.128,-0.184 -0.195,-0.276 -1.167,-1.58 -4.334,-2.247 -4.667,-2.747 -0.333,-0.5 -2.333,-2.167 -5.333,-1.667 -3,0.5 -5.166,2.074 -4.5,3.787 0.666,1.713 1.332,3.712 -0.834,3.879 -2.166,0.167 -2.166,-0.5 -5.333,-1.833 -3.167,-1.333 -5.666,-0.735 -6.333,-2.034 -1.80146,-2.22867 -4.32105,-3.84427 -5.667,-3.892 -2.167,-0.074 -1.006,1.074 -3.003,0 -1.997,-1.074 -2.994,-1.407 -2.994,-1.407 0,0 0.433,0.81 0.506,1.667 m 10e-4,0.002 c -0.655,-1.188 -0.591,-2.519 -2.293,-3.086 -1.705,-0.568 -2.929,0.24 -1.806,-1.125 1.123,-1.365 0.824,-1.251 2.281,-3.184 1.457,-1.933 -0.32,-2.956 0,-4.207 0.32,-1.251 1.002,-1.365 1.002,-2.274 0,-0.909 -0.91,-0.114 -1.592,0 -0.682,0.114 -0.938,-0.682 -2.004,-1.137 -1.066,-0.455 -1.861,-1.137 -2.657,0 -0.284,0.406 -0.626,0.854 -0.948,1.264 -0.581,0.738 -1.0985,1.353 -1.0985,1.353 0,0 0.5185,-0.611 1.0995,-1.349 -0.527,-0.021 -0.313,0.804 -1.213,-0.014 -1.25,-1.137 -1.482,-1.819 -2.162,-1.364 -0.68,0.455 -0.794,0.541 -1.362,0.896 -0.568,0.355 -0.796,0.213 -1.592,0 -0.796,-0.213 -1.591,1.151 -2.273,1.038 -0.682,-0.113 -1.592,-1.727 -3.639,-1.034 -2.047,0.693 -2.388,0.366 -6.14,1.041 -3.752,0.675 -4.434,0.789 -5.344,1.812 -0.91,1.023 -0.797,1.024 -1.82,1.365 -1.023,0.341 -1.478,0.228 -2.956,1.592 -0.577,0.533 -0.925,0.854 -1.139,1.052 -0.334,0.309 -0.34,0.3105 -0.34,0.3105 0,0 0.003,-0.006 0.338,-0.3135 -0.807,-0.176 -1.908,-0.414 -2.261,-0.483 -0.579,-0.114 -0.125,-1.023 -0.693,-1.137 -0.568,-0.114 -0.91,1.478 -2.274,0.91 -1.364,-0.568 -3.07,1.018 -3.411,-0.003 -0.341,-1.021 -1.478,-2.157 -1.478,-2.157 0,0 -1.478,0.228 -1.592,1.535 -0.114,1.307 -0.455,3.468 -2.956,4.832 -2.501,1.364 -2.66,1.137 -4.343,3.184 -1.683,2.047 -1,2.501 -2.365,3.866 -1.365,1.365 -1.719,2.729 -1.201,3.638 0.518,0.909 1.655,1.875 0.746,2.643 -0.909,0.768 -2.554,4.634 -5.029,5.43 -2.475,0.796 -4.139,0.88 -4.408,2.161 l 12.48,-0.001 0.018,-0.001 v 1.321 0.157 l 10.472,7.276 c 0,0 16.601,11.483 17.004,12.165 0.403,0.683 0.506,1.365 0.893,1.592 0.387,0.228 0.864,1.479 1.318,1.82 0.454,0.34 1.023,-0.114 2.564,0.568 1.541,0.682 1.415,1.137 0.961,1.933 -0.454,0.796 -0.455,0.909 0.568,1.251 0.455,0.15 1.224,0.168 1.938,0.14 0.002,-0.202 0.011,-0.405 0.033,-0.609 0.167,-1.5 1.5,-0.5 2.333,-0.667 0.833,-0.167 1.333,-0.333 2.833,-0.69 1.5,-0.357 1.167,-1.31 1.834,-2.101 0.667,-0.791 4.166,-2.542 6.119,-4.042 1.953,-1.5 3.047,-2.5 4.547,-3.667 1.163,-0.905 4.024,-2.062 5.7975,-2.8065 0.5665,0.8445 1.6915,1.7455 2.0345,1.6345 0.5,-0.162 4.167,0.009 4.167,0.009 0,0 0.239,-0.098 0.612,-0.235 0.798,-0.292 2.209,-0.762 3.256,-0.853 0.39,-0.034 0.73,-0.018 0.967,0.083 0.093,0.04 0.339,0.169 0.688,0.361 2.905,1.587 13.9,7.933 20.571,11.696 v -2.891 h 2.905 v -4 l 5e-4,-0.738 21.3355,0.001 v 0.001 c 0.75,0.009 1.404,0.136 2.164,0.242 1.6,0.225 1.115,-0.091 2.459,-0.723 0.397,-0.187 1.247,0.095 1.57,-0.235 0.35,-0.357 -0.011,-0.938 0.313,-1.366 0.184,-0.242 1.471,-1.335 1.979,-1.35 0.04,-0.001 0.073,0.012 0.112,0.013 0.229,-1.029 0.278,-2.045 -0.079,-2.927 -1.234,-3.047 -3.819,-5.782 -5.07,-8.921 -1.007,-2.526 -4.114,-6.168 -3.615,-8.993 0.797,-4.518 3.988,3.22 4.361,4.641 0.211,0.016 0.4,0.005 0.608,-0.004 0.217,-0.461 0.312,-0.972 0.399,-1.478 0.071,-0.414 0.138,-0.825 0.261,-1.198 0.272,-0.821 1.146,-1.758 1.211,-2.624 0.085,-1.131 -1.362,-3.305 -2.156,-4.238 -0.028,-0.034 -0.062,-0.078 -0.089,-0.107 -1.261,-1.424 -2.892,-0.898 -4.759,-0.993 -1.719,-0.087 -3.271,-0.833 -5.008,-0.664 -1.726,0.168 -2.969,1.286 -4.836,1.331 -1.943,0.047 -3.67,-0.194 -5.497,-0.663 -1.275,-0.328 -3.591,-1.591 -4.913,-1.174 -0.142,0.045 -0.264,0.121 -0.388,0.192"
   fill="#dccfbe"
   stroke="#000000"
   stroke-width="0.5"/>
</svg>
