<svg>
<path
   fill="#9c6bae"
   stroke="#000000"
   stroke-width="0.5"
   d="m 623.95946,52.434043 c 0,0 3.97134,33.569352 3.97554,33.626222 2.4,0.118 5.385,2.221 6.745,4.308998 0.59,-1.435 1.753,-0.976 2.798,-0.154 0.346,0.272 0.979,1.326 1.36,1.421 1.132,0.282 0.899,-0.373 1.45,-0.968 1.137,-1.23 0.63,-1.16 2.354,-1.188 0.445,-0.007 0.817,0.121 1.225,0.051 0.631,-0.109 0.952,-0.817 1.856,-0.667 1.278,0.213 1.568,1.587 2.81,2.104 1.168,0.486 1.422,-0.039 2.805,-0.168 0.671,-0.062 0.762,0.462 1.505,0.052 0.534,-0.294 0.924,-1.103 0.952,-1.66 0.081,-1.612998 -1.359,-1.613998 -2.129,-2.503998 -0.813,-0.939 -0.758,-0.914 -0.008,-1.828 0.267,-0.325 0.965,0.137 1.167,-0.266 0.246,-0.492 -0.149,-0.596 -0.054,-0.964 0.21,-0.807 -0.943,-0.606 0.199,-1.486 0.603,-0.464 1.28,0.284 1.837,-0.524 -0.835,-1.062999 -1.726,-1.314999 -1.011,-2.510999 0.676,-1.13 2.198,-1.339 3.312,-1.646 2.365,-0.649999 4.883,-1.143999 7.236,-1.739999 2.285,-0.58 4.64,-1.082 6.92,-1.693 2.064,-0.555 3.736,-2.168999 5.933,-1.971999 0.81,0.073 0.992,0.371 1.604,0.538 0.311,0.084 1.452,0.133 1.698,0.284 0.997,0.613999 1.072,2.549999 1.009,3.763999 1.407,0.697999 5.072,-0.408 5.767,1.152999 0.439,-0.054 0.989,0.125 1.43,0.053 -1.064,2.392 2.233,1.359 3.368,0.832 1.242,-0.579 2.929,-1.853999 4.313,-1.853999 2.104,0 5.168,4.851998 6.678,6.435998 1.303,1.367 2.103,1.92 2.604,3.825 0.412,1.564998 0.573,3.928998 2.753,2.926998 0.671,-0.308 1.318,-1.641998 2.057,-1.654998 0.754,-0.014 1.177,1.092998 1.745,1.411998 1.79,1.002 3.495,-0.935 5.022,-0.255 0.699,0.311 1.121,1.792 1.52,2.433 0.496,0.798999 0.878,1.105999 1.603,1.522999 1.9,1.091 3.521,1.385 5.738,1.517 0.331,0.423 0.399,1.021 0.301,1.623999 0.279,-0.035 0.541,-0.046 0.771,-0.019 0.016,-0.01 0.027,-0.02 0.043,-0.029 2.499,-1.505999 5.147,-1.329999 7.839,-2.290999 2.189,-0.782 3.427,-2.854999 5.685,-3.633999 2.221,-0.767 4.064,0.165 5.924,1.461 0.923,0.642999 0.359,0.951999 1.986,1.011999 1.036,0.038 2.002,0.034 3.005,0.178 1.868,0.269 4.107,0.771 5.882,-0.211 0.38,-2.613999 -1.543,-4.103999 0.818,-6.631997 1.102,-1.179 1.205,-0.792 2.815,-0.304 L 752.63536,-21.915994 761.175,86.146265 c 0,0 -8.53964,-108.062259 -8.5416,-108.449988 0,0 -9.3094,-0.75 -11.8094,1.5 -2.5,2.25 0.75,1.5 -2.5,2.25 -3.25,0.75 -1.5,-0.25 -4.75,0.75 -3.25,1 -2.25,-0.75 -5.25,1.25 -3,2 -3.25,1.25 -5,2.75 -1.75,1.5 -4,-0.5 -1.75,1.5 2.25,2 -3.5,2.5000001 -6,2.7500001 -2.5,0.25 -1.75,0.25 -4,0.5 -2.25,0.25 0.5,-2.2500001 -2.25,0.25 -2.75,2.5 -3.5,0.75 -2.75,2.5 4.25,5.5000002 6.277,6.3580002 5.5,6.5000002 -2.75,0.5 1.5,1.5000001 -2.75,0.5 -4.25,-1 -3.25,-2.5 -5.75,-2.75 -2.5,-0.25 2.25,-2.0000001 -2.5,-0.25 -4.75,1.75 -3.5,0.75 -4.75,1.75 l -1.25,1 c 0,0 -0.75,2.0000001 1.25,2.2500001 2,0.25 2.25,-1 3.25,1 0,0 -0.75,2.0000001 -2,1.7500001 -1.25,-0.25 -2.638,-1.0000001 -2.638,-1.0000001 0,0 -0.612,-1 -1.612,-2.25 -1,-1.2500001 -1.25,-1.7500001 -1.25,-3.0000001 v -2.2500001 c 0,0 1.5,-1 0,-1 -1.5,0 -2.75,1 -3.75,2.7500001 -1,1.75 -3.25,1.5 -1.75,3.5000001 1.5,2 1.25,-0.75 1.75,3.2500001 0.5,4.0000004 -2.262,4.1860004 0,5.2500005 4.25,2 3.25,0.5 6,1.5 2.75,1 0.75,-1.25 2.75,1 2,2.25 2,4.25 2,4.25 0,0 -0.25,1.5 1.75,2.25 2,0.75 2.5,2 2.5,2 l -6,-0.75 c 0,0 -0.5,-2.75 -3,-4.5 -2.5,-1.75 -0.75,-2.5 -2.5,-1.75 -2.5,4 -2.5,3.75 -2.75,5.75 -0.25,2 4.25,-1 -0.25,2 l -4.5,3 c 0,0 5,1.75 0,0.75 -5,-1 -6.5,-3 -7.25,-3.25 -0.75,-0.25 6.691,1.5 7.846,-1 1.155,-2.5 1.904,-2.75 2.154,-5.25 0.25,-2.5 -0.5,-3.75 -0.5,-3.75 0,0 -1.809,-3.2500001 -1.654,-5.0000001 0.155,-1.7500004 -0.846,-3.0000005 -1.346,-4.0000005 -0.5,-1 -2.75,0.25 -1,-2.25 1.75,-2.5000001 1.441,-2.7500001 2.346,-4.7500002 0.905,-2 -0.223,-3.2500001 -3.784,-2.25 -3.561,1 -3.562,1 -3.562,1 0,0 0.066,-2.5000001 -2.217,0 -2.283,2.5000001 -0.121,5.7500002 -2.952,6.2500002 -2.831,0.5 -4.987,-0.7840001 -4.159,1.358 0.828,2.1420001 3.01,2.1420001 2.294,2.8920001 -0.716,0.7500004 -1.497,2.2030004 -1.481,3.2270004 0.016,1.0240001 1.336,1.5230001 2.551,1.7730001 1.215,0.25 5.281,1 3.748,3.25 -1.533,2.25 -2.621,3.75 -2.952,3.5 -0.331,-0.25 -10.839,-6.75 -13.46,-7.25 -2.621,-0.5 -2.621,1 -5.371,-0.25 -2.75,-1.2500001 -1.5,-2.5000001 -4.25,-3.0000001 -2.75,-0.5 -6.75,-2.0000004 -4.25,0.25 2.5,2.25 4,1.75 4.25,4.0000001 0.25,2.25 -1.033,3.75 -1.033,3.75 0,0 2.283,2 -1.717,1 l -4,-1 c 0,0 -3.574,-0.25 -5.787,1 -2.213,1.25 -0.463,2 -2.213,1.25 -1.75,-0.75 1,-2.5 0,-3.25 -1,-0.75 -3.479,-0.75 -6.239,0.75 -2.76,1.5 -9.96662,4.913186 -9.96662,4.913186"
   id="novosibirsk"/>
</svg>
