<svg>
<path
   id="paris"
   d="m 489.127,121.07926 c 0.075,-0.218 0.144,-0.471 0.197,-0.809 0.506,-3.174 4.024,-3.172 6.564,-2.196 1.433,0.55 2.306,1.211 3.655,0.081 0.507,-0.424 1.382,-1.342 2.163,-2.247 -0.583,-0.1 -0.945,-0.699 -1.196,-1.464 -0.155,-0.474 -0.093,-0.862 -0.306,-1.308 -0.281,-0.59 -0.758,-0.498 -0.756,-1.25 0.003,-1.17 1.084,-1.113 0.817,-2.379 -0.106,-0.503 -1.095,-0.639 -0.255,-1.255 0.124,-0.091 0.247,-0.122 0.367,-0.122 -0.136,-0.428 -0.34,-0.845 -0.805,-1.195 -0.687,0.412 -1.443,0.42 -2.23,0.369 0.071,-1.032 1.483,-2.389 2.106,-3.233 0.688,-0.934 1.343,-0.96 2.236,-0.964 -0.119,-0.98 0.042,-1.914 0.388,-2.791 0.304,-0.770999 1.07,-1.592999 0.856,-2.470999 -1.363,-0.351 -2.896,-0.572 -4.229,-1.019 -0.35,-0.117 -0.662,-0.287 -0.959,-0.475 -0.043,-0.132 -0.095,-0.265999 -0.165,-0.401999 -0.582,-1.117 -1.364,-1.427 -0.384,-2.748 0.632,-0.851999 2.485,-1.613999 0.403,-2.024999 -0.017,-0.528 0.271,-1.15 -0.097,-1.6 -0.017,-0.02 -0.026,-0.041 -0.045,-0.06 -0.485,-0.492 -1.277,0.053 -1.823,-0.194 -0.281,-0.127 -0.498,-0.757998 -0.989,-1.003998 -0.417,-0.208 -1.269,-0.323 -1.755,-0.375 -0.369,-0.04 -0.709,-0.02 -1.035,0.027 -0.9,0.13 -1.687,0.485 -2.652,0.479 -1.12,-0.007 -1.774,0.260998 -2.151,0.920998 0.176,-0.023 0.352,-0.048 0.5265,-0.048 -0.1765,-0.001 -0.3525,0.023 -0.5275,0.046 -0.79,0.104 -1.55,0.443 -2.067,1.109 -0.7,0.898 -0.309,1.84 -1.066,2.689999 -0.39,0.437 -1.47,1.307 -1.967,1.592 -0.887,0.507 -1.994,0.194 -2.944,0.438 -0.411,0.105 -0.937,0.643 -1.375,0.506 -0.606,-0.19 -0.507,-0.944 -0.935,-1.311 -2.494,-2.136999 -1.1,2.860999 -1.139,3.660999 -1.344,0.166 -1.417,0.72 -2.702,-0.135 -0.855,-0.568 -1.298,-0.832 -2.537,-0.728 -0.783,0.066 -2.028,0.234 -2.743,0.631 -1.244,0.691 -0.735,0.985 0.143,1.625 -1.793,0.838999 1.238,1.638999 1.796,1.748999 1.415,0.278 1.625,1.114 2.683,1.622 1.274,0.611 2.308,-0.618 2.508,1.129 0.085,0.748 -0.29,1.177 0.178,1.937 0.429,0.696 1.075,0.744 1.628,1.064 1.345,0.779 0.653,1.12 1.201,2.575 -1.222,0.271 -0.481,3.04 -0.637,4.049 -0.157,1.012 -1.152,2.331 -1.2895,3.494 -1.0695,-0.047 -2.1015,-0.175 -3.2075,-0.242 -1.922,-0.117 -3.567,0.029 -5.502,0.125 -1.71,0.085 -3.347,0.089 -5.007,0.281 -1.566,0.182 -2.681,-1.42 -4.344,-1.137 -0.202,1.571 -0.793,1.042 -1.897,1.475 -0.666,0.261 -1.328,1.03 -1.891,1.382 1.028,0.914 1.19,2.93 1.413,4.229 1.244,1.118 -0.031,3.371 -0.272,4.941 -0.17,1.108 0.371,2.757 0.096,3.824 -0.276,1.073 -1.159,1.928 -1.237,2.984 1.043,-0.176 1.372,0.749 1.285,1.625 1.617,-0.081 0.532,1.867 0.6,2.521 0.132,1.274 1.135,0.968 2.132,0.781 0.4,-0.075 0.786,-0.174 1.165,-0.29 m -0.001,0.005 c 0.024,0.223 0.117,0.431 0.318,0.612 0.354,0.317 1.265,0.08 1.706,0.207 0.694,0.2 0.635,0.277 1.164,0.727 0.854,0.727 1.148,1.564 2.458,1.467 1.103,-0.082 1.741,-0.921 2.919,-1.006 1.785,-0.128 5.796,0.46 6.937,-0.772 0.407,-0.44 0.4,-1.154 0.788,-1.627 0.64,-0.78 0.806,-0.461 1.602,-0.726 1.074,-0.356 0.54,-0.03 0.939,-0.998 0.256,-0.621 0.36,-0.955 0.832,-1.496 0.843,-0.968 1.571,-1.255 1.425,-2.742 -0.129,-1.324 -0.534,-1.901 0.577,-2.89 0.799,-0.71 0.652,-0.567 1.052,-1.428 0.243,-0.527 0.443,-1.019 0.845,-1.471 0.843,-0.951 2.049,-1.555 3.211,-2.053 0.987,-0.424 2.8,-0.877 3.366,-1.859 0.432,-0.749 0.311,-1.703 -0.124,-2.431"
   fill="#54bff9"
   stroke="#000000"
   stroke-width="0.5"/>
</svg>
