<svg>
<path 
   id="peru"
   d="m 283.512,293.93226 c -0.257,-0.598 -0.347,-0.787 -0.204,-1.324 -1.457,0.336 -2.99,0.994 -3.109,-1.037 -0.074,-1.262 0.086,-2.602 0.265,-3.916 -0.357,0.128 -0.699,0.272 -1.009,0.446 -0.833,0.468 -1.104,1.362 -2.004,1.468 -0.967,0.113 -1.272,-0.525 -1.838,-1.149 -0.929,-1.024 -1.028,-0.858 -2.269,-0.743 -0.078,-1.895 -1.075,-2.412 -1.927,-3.824 -0.769,-1.273 -0.02,-3.018 0.528,-4.188 0.506,-1.084 0.719,-2.544 1.347,-3.627 0.571,-0.984 1.876,-1.835 2.841,-2.467 1.125,-0.736 2.241,-1.562 3.69,-1.498 1.179,0.053 1.723,0.139 2.136,-0.451 -0.287,-0.244 -0.583,-0.58 -0.903,-0.74 -0.463,-0.232 -0.924,-0.006 -1.303,-0.457 0.432,-0.852 2.005,-2.658 1.68,-3.666 -0.201,-0.625 -1.31,-0.955 -1.863,-0.814 -0.277,0.07 -0.586,0.453 -0.765,0.486 -0.228,0.042 -0.57,-0.185 -0.807,-0.239 -0.586,-0.136 -1.241,-0.204 -1.843,-0.081 -0.584,0.12 -1.415,0.801 -2.043,0.588 -1.044,-0.354 -1.175,-2.247 -1.814,-2.895 -0.339,-0.344 -0.846,-0.443 -1.163,-0.917 -0.317,-0.474 -0.426,-1.099 -0.748,-1.589 -0.569,-0.865 -2.089,-2.074 -3.081,-2.25 -0.443,-0.078 -0.774,0.039 -1.098,0.027 l -0.05,0.038 c -0.105,0.281 -0.354,0.677 -0.274,0.94 0.068,0.227 0.604,0.421 0.738,0.724 0.309,0.694 -0.359,1.337 -0.704,1.969 -0.796,1.456 -1.256,3.209 -2.843,3.972 -1.61,0.773 -3.018,0.887 -4,2.562 -0.27,0.461 -0.211,0.533 -0.686,0.814 -0.363,0.214 -0.633,0.182 -0.89,0.561 -0.495,0.732 -0.255,1.72 -0.667,2.505 -0.548,1.044 -1.125,1.151 -1.833,0.155 -0.392,-0.551 -0.266,-0.676 -1.009,-0.787 -0.476,-0.07 -1.007,0.016 -1.485,-0.014 -0.139,-0.355 -0.101,-0.747 -0.085,-1.137 0.795,-0.025 1.305,-1.807 0.616,-2.021 -0.404,-0.125 -1.51,1.179 -1.775,1.444 -0.614,0.613 -1.137,1.057 -1.187,1.937 -0.027,0.477 0.225,0.896 0.231,1.311 0.009,0.631 -0.298,0.689 0.021,1.234 0.312,0.533 1.502,1.662 0.01,1.76 -0.246,1.779 1.778,1.333 2.742,2.115 1.139,0.924 1.667,2.271 2.525,3.419 0.955,1.277 1.327,2.857 1.991,4.284 0.615,1.32 1.392,2.611 1.835,4.004 0.36,1.131 0.444,2.814 1.301,3.719 0.212,0.225 0.563,0.172 0.758,0.403 0.211,0.251 0.133,0.741 0.249,1.048 0.24,0.635 0.742,0.95 1.16,1.465 0.893,1.098 1.213,2.336 1.26,3.695 0.027,0.781 -0.04,1.365 0.324,2.047 0.413,0.775 1.084,0.945 1.661,1.559 0.476,0.508 0.877,1.061 1.449,1.541 0.621,0.523 1.37,1.003 1.979,1.475 1.674,1.296 4.1,1.225 5.795,2.51 0.192,0.146 0.496,0.458 0.636,0.625 -0.023,0.157 -0.007,0.331 0,0.483 0.178,-0.134 0.17,0.018 0.317,-0.204 0.961,0.479 1.372,1.894 2.008,2.669 0.474,0.578 1.948,1.896 2.732,1.7 0.21,-0.597 0.671,-0.665 1.015,-1.068 0.317,-0.372 0.643,-1.144 0.803,-1.599 0.006,-0.017 0.015,-0.039 0.021,-0.055 -0.021,-0.004 -0.039,-0.004 -0.058,-0.005 -0.057,-0.005 -0.112,-0.004 -0.171,-0.021 0.016,-0.06 0.038,-0.109 0.055,-0.166 m -0.001,-0.003 c 0.04,0.062 0.077,0.124 0.117,0.187 0.019,10e-4 0.038,10e-4 0.058,0.006 -0.005,0.016 -0.015,0.038 -0.021,0.055 0.788,1.258 1.428,2.573 2.219,3.852 0.44,0.711 1.066,1.675 1.063,2.536 -0.003,0.854 -0.625,1.416 -0.586,2.298 0.079,1.797 0.969,3.106 1.648,4.666 0.379,0.872 0.43,4.09 1.564,4.254 0.476,0.069 1.612,-1.188 1.924,-1.498 0.518,-0.515 1.019,-1.411 1.781,-1.685 1.123,0.772 1.7,0.927 3.125,0.925 0.853,-0.002 0.917,0.011 1.354,0.665 0.334,0.498 0.584,1.039 0.792,1.554 0.558,-0.823 -0.206,-1.66 1.014,-2.181 0.851,-0.362 1.735,-0.082 2.624,-0.039 0.286,0.014 0.514,0.016 0.704,-0.002 0.645,-0.057 0.795,-0.355 0.806,-1.336 0.01,-0.91 -0.115,-1.917 0.07,-2.787 0.339,-1.596 1.967,-3.09 3.356,-3.812 1.639,-0.853 3.896,-1.699 5.649,-0.969 0.972,0.404 2.189,1.124 3.428,1.611 -0.021,-0.71 0.238,-1.296 0.481,-1.976 0.3,-0.84 0.323,-1.396 0.442,-2.309 0.091,-0.695 0.619,-1.62 0.369,-2.377 -0.264,-0.799 -1.332,-1.115 -1.884,-1.754 -0.831,-0.961 -0.693,-1.93 -0.244,-2.89 -0.285,-0.062 -0.562,-0.102 -0.823,-0.104 -0.912,-0.005 -1.572,0.539 -2.553,0.499 -1.369,-0.057 -1.062,-0.107 -1.378,-1.25 -0.23,-0.833 -2.214,-3.006 -0.645,-3.523 0.091,-0.99 -0.468,-3.201 -1.303,-3.845 -0.873,-0.673 -2.725,-0.545 -3.803,-1.14 -0.6,-0.33 -0.897,-0.81 -1.432,-1.172 -0.652,-0.443 -1.179,-0.168 -1.813,-0.443 -0.344,-0.148 -0.477,-0.583 -0.784,-0.727 -0.229,-0.105 -0.658,-0.037 -0.847,-0.15 -0.353,-0.213 -0.949,-0.979 -1.28,-1.1 -0.616,-0.227 -1.047,0.185 -1.684,-0.183 -0.419,-0.242 -0.792,-0.852 -1.002,-1.249 -0.655,-1.236 -0.348,-2.648 -0.28,-3.969 0.08,-1.551 0.2,-2.988 -1.82,-2.51 -1.131,0.269 -2.083,1.32 -2.929,2.07 -1.075,0.953 -2.055,0.88 -3.251,1.53 -0.74,0.401 -2.223,1.747 -2.518,0.051 -0.35,-0.014 -0.733,0.054 -1.123,0.144 -0.143,0.537 -0.053,0.727 0.204,1.324"
   fill="#dccfbe"
   stroke="#000000"
   stroke-width="0.5"/>
</svg>
