<svg>
<path
   id="philippines"
   d="m 818.433,208.70926 c -0.324,0.549 -0.27,1.416 -0.058,2.003 0.379,1.05 1.489,2.107 2.114,3.067 0.311,0.479 0.769,0.902 0.999,1.337 0.234,0.441 0.102,1.246 0.543,1.545 3.12,2.111 1.833,-5.384 2.055,-6.307 0.401,-1.673 1.905,-2.15 2.437,-3.571 0.384,-1.027 0.246,-3.666 -0.115,-4.669 l -0.666,-0.167 c -1.118,0.206 -3.061,-1.025 -4.1,-0.334 -0.866,0.576 -0.711,2.965 -0.735,3.918 -0.016,0.621 0.2,1.578 10e-4,2.164 -0.456,1.344 -0.273,0.469 -1.124,0.587 -0.777,0.108 -0.663,-0.735 -1.351,0.427 z m 4.142,9.572 -1.5,-1 c -0.001,1.108 0.143,4.527 1.925,4.492 1.819,-0.036 0.499,-3.006 -0.425,-3.492 z m 5.167,-3.5 -1,0.333 c -0.034,-0.192 -0.134,-0.304 -0.3,-0.333 -1.155,3.02 1.601,3.376 1.491,6.308 0.433,-0.103 0.832,0.086 1.274,-0.134 -0.002,0.359 0.271,0.74 0.226,1.134 1.399,0.264 1.043,-0.997 1.308,-1.808 0.218,-0.664 1.079,-1.788 0.998,-2.498 -0.081,-0.712 -3.27,-2.715 -3.997,-3.002 z m -0.334,8.333 -1.166,-0.167 c -0.187,-0.151 -0.117,-0.26 -0.329,-0.357 -0.932,0.616 -0.698,2.133 -0.646,3.166 1.685,0.501 2.314,-1.276 2.141,-2.642 z m 2.833,5.668 c 0.668,-0.989 1.002,-1.864 -0.166,-3.001 l -1.333,-0.167 c -1.019,1.435 -2.492,2.712 -2.142,4.642 1.886,0.099 2.546,0.145 3.641,-1.474 z m 4.001,-8.168 -0.667,-0.5 c -0.687,0.15 -1.982,1.44 -2.132,2.165 -0.26,1.25 0.692,1.205 0.969,2.254 0.198,0.75 -0.496,1.502 -0.311,1.926 0.251,0.57 1.463,0.195 1.761,1.146 0.553,-1.26 2.89,-6.763 0.38,-6.991 z m -1.36,11.475 c -1.02,0.033 -2.056,1.02 -2.355,2.026 -0.436,1.463 0.596,1.467 0.844,2.537 0.452,1.945 -1.121,3.869 2.508,3.657 0.205,0.588 0.316,1.216 0.526,1.792 1.113,-0.84 0.788,-3.469 0.862,-4.796 1.625,-0.454 0.699,1.037 1.379,1.4 1.091,0.583 1.509,-1.063 1.596,-2.013 0.126,-1.373 -1.73,-10.582 -2.859,-11.079 l 0.021,1.933 c -0.328,1.039 -0.041,1.881 -0.896,2.742 -0.679,0.682 -1.839,0.333 -1.626,1.801 z m 2.523,-4.437 0.003,0.295 c -0.018,-0.086 -0.012,-0.191 -0.003,-0.295 z m -10.178,8.795 c 0.953,1.32 1.532,-0.368 2.138,-0.84 0.658,-0.512 1.714,-0.051 1.377,-1.493 l -0.334,-0.833 c -1.141,-0.748 -4.115,1.872 -3.181,3.166 z"
   fill="#DCCFBE"
   stroke="#000"
   stroke-width="0.5" />
</svg>
