<svg>
<path
     id="quebec"
     d="m 268.883,113.32226 c 1.423,-0.314 6.944,-1.514 8.441,-1.511 1.236,0.002 1.562,-0.246 2.749,-0.705 1.407,-0.544 1.639,-1.352 1.833,-2.75 0.2,-1.435 1.431,-2.375 1.794,-3.792 0.408,-1.593 0.977,-1.863 2.564,-1.503 1.118,0.253 2.765,0.865 3.047,2.035 0.352,1.46 -1.044,3.69 1.365,6.415 1.55,0.023 3.128,0.367 4.527,-0.492 0.542,-0.333 1.651,-1.914 2.086,-0.799 0.287,0.735 -1.088,1.397 -1.626,1.839 -1.217,0.999 -3.643,3.489 -1.515,4.714 2.38,1.371 3.477,-1.446 5.154,-2.688 1.031,-0.764 2.099,-0.788 3.273,-1.06 1.029,-0.238 1.802,-0.711 2.683,-1.234 0.928,-0.55 2.034,-0.241 3.059,-0.533 1.36,-0.387 2.19,-1.287 2.654,-2.51 0.504,-1.329 -0.102,-1.942 -1.041,-2.897 -0.396,-0.403 -0.464,-0.792 -1.123,-0.631 -0.573,0.14 -0.84,0.804 -1.114,1.252 -0.547,0.894 -1.247,1.795 -2.291,2.149 -1.37,0.465 -1.377,-0.438 -2.117,-1.304 -0.781,-0.915 -1.903,-1.237 -3.051,-1.298 -1.04,-0.056 -2.808,0.317 -3.512,-0.734 -0.762,-1.138 0.765,-2.226 0.52,-3.195 -0.159,-0.63 -1.881,-0.768 -2.5,-0.985 -0.402,-0.142 -0.82,-0.309 -1.223,-0.505 1.641,0.024 3.503,0.013 4.617,-1.353999 1.672,-2.052 -1.097,-2.864 -2.799,-2.809 -1.364,0.044 -2.573,0.549 -3.899,0.753 -1.117,0.171 -2.387,-0.086 -3.439,0.394 -0.945,0.431 -1.692,1.396 -2.499,2.014 -0.815,0.623999 -1.686,1.176999 -2.299,2.052999 -0.861,1.23 -1.913,3.557 -3.781,3.358 -0.239,-1.026 1.08,-1.967 1.745,-2.584 0.992,-0.919 1.639,-1.969 2.483,-2.989999 0.882,-1.067 2.349,-1.58 3.373,-2.487 0.788,-0.698 1.395,-1.430999 2.387,-1.915999 0.508,-0.248 1.115,-0.423 1.494,-0.867 0.033,-0.038 0.053,-0.08 0.081,-0.119 l 11.158,-1.688999 c 0.327,0.053 0.654,0.105999 0.981,0.156999 2.139,0.331 4.234,0.245 6.26,-0.312999 0.834,-0.23 2.429,-0.338 2.178,-1.452 0.479,-0.295 0.938,-0.7 1.267,-0.956 0.688,-0.539 1.219,-0.923 2.006,-1.253998 1.537,-0.646 3.254,-1.179 4.87,-1.513 0.592,-0.122 1.672,0.013 2.159,-0.383 0.67,-0.535 0.265,-1.593 0.383,-2.319 0.21,-1.291 1.162,-2.756 0.393,-4.098999 -0.369,-0.645 -1.207,-1.136 -1.896,-1.422 -0.239,-0.099 -1.055,-0.414 -1.297,-0.354 -0.371,0.092 -0.581,0.576 -0.869,0.84 -0.538,-0.469 -0.591,-1.304 -0.596,-1.998 -1.08,-0.453999 -2.398,1.019 -3.33,1.406 -1.166,0.485 -2.389,1.434 -3.571,1.767 -1.614,0.456 -1.703,-1.257 -0.613,-2.039 0.883,-0.632 2.283,-0.596 3.361,-0.897 0.943,-0.264 2.967,-0.827999 3.503,-1.749999 -1.269,-2.281 -3.365,-1.396 -5.353,-2.115 -1.229,-0.443999 -1.821,-1.573999 -2.87,-2.264999 -0.559,-0.368 -0.809,-0.429 -1.209,-1 -0.331,-0.472 -0.64,-1.020999 -0.875,-1.542999 -0.436,-0.968 -0.399,-1.994 -0.785,-2.949 -0.217,-0.536999 -0.491,-1.029999 -0.673,-1.592999 -0.137,-0.422 -0.134,-1.166 -0.28,-1.494 -0.291,-0.656 -1.63,-0.672 -2.211,-1.492999 -0.619,-0.874 -0.937,-2.144 -1.414,-3.123999 -0.524,-1.08 -0.826,-2.22 -1.561,-3.194 -0.572,-0.757999 -1.405,-0.998999 -1.862,-1.884999 -0.295,-0.572 -0.242,-0.872 -0.985,-0.928 -0.614,-0.046 -1.155,0.274 -1.485,0.773 -0.566,0.855 -0.067,1.999999 -0.356,2.965999 -0.188,0.629 -0.961,1.811 -1.572,2.089 -0.499,0.227 -1.031,-0.004 -1.499,0.173 -0.752,0.284999 -0.469,0.775999 -0.597,1.397999 -0.119,0.581 -0.338,0.65 -0.731,1.031 -0.674,0.653 -0.357,0.604 -1.047,0.247 -0.861,-0.446 -1.493,-1.296 -2.481,-1.431 -0.52,-0.071 -1.213,0.173 -1.668,-0.081 -0.67,-0.373 -0.513,-0.824 -1.157,-0.999 -0.136,-0.304999 -0.254,-0.590999 -0.352,-0.833999 -0.279,-0.691 -0.919,-1.835 -0.88,-2.594 0.02,-0.396 0.247,-0.765999 0.305,-1.171999 0.062,-0.434 -0.072,-0.901 0.018,-1.328 0.232,-1.097 0.89,-2.548999 -0.602,-3.276999 -0.857,-0.419 -2.343,-0.073 -3.329,-0.38 -1.222,-0.38 -2.741,-0.789 -3.251,-2.015999 -0.5,-1.204 -0.918,-1.927 -2.361,-2.144 -0.974,-0.146 -2.06,-0.168 -3.042,-0.091 -1.018,0.08 -1.859,0.54 -2.906,0.5 -2.415,-0.094 -5.595,-2.574999 -7.984,-1.507 -1.054,0.471 -1.598,1.633 -1.015,2.625 0.43,0.732 1.906,1.453999 1.559,2.495999 -0.296,0.894 -1.988,1.232 -2.003,2.323999 -0.018,1.267 2.015,1.779 2.091,3.245 0.117,2.239999 -3.04,3.535999 -2.508,5.748998 0.365,1.521 2.843,2.144999 3.841,3.221999 0.916,0.988 1.563,2.406 1.584,3.769999 0.013,0.817 -0.289,1.642 -0.436,2.439 -0.145,0.783999 -0.262,1.730999 -0.708,2.420999 -0.801,1.241 -3.039,1.738999 -4.323,2.353999 -0.667,0.32 -3.106,0.478 -3.362,1.235 -0.233,0.688 1.099,1.677 1.452,2.093999 0.813,0.96 1.257,1.899 1.36,3.159 0.09,1.113999 -0.066,2.223999 -0.066,3.338999 0.001,0.813 -0.006,2.15 -0.667,2.753 -0.282,0.257 -0.878,0.354 -1.232,0.618 -0.414,0.308 -0.811,0.645 -1.141,1.031 -0.392,0.456998 -0.333,0.975998 -1.115,0.397998 -0.489,-0.360998 -0.514,-1.126998 -0.948,-1.525998 -0.69368,-0.14036 1.69747,2.260218 1.32834,1.656368 M 331.201,102.31926 c -0.095,-0.631 -0.419,-1.109 -0.624,-1.669 -0.237,-0.646 -0.211,-1.251999 -0.255,-1.953999 -0.104,-1.681 -0.721,-3.427999 -2.282,-4.237999 -1.713,-0.889 -2.993,0.055 -4.786,0.06 -0.037,-0.768 0.398,-1.211 -0.344,-1.722 -0.418,-0.288 -1.472,-0.475999 -1.991,-0.446999 0.228,-0.727 1.018,-1.175 1.508,-1.736 0.639,-0.73 0.891,-1.448 0.897,-2.416998 l -0.167,-0.25 c -3.246,-1.208 -4.078,3.147998 -5.437,5.006997 -0.68,0.93 -1.927,1.734 -2.229,2.908 -0.164,0.639999 0.228,1.308999 -0.234,1.862999 -0.319,0.382 -0.976,0.458 -1.37,0.699 -0.938,0.575 -2.228,2.245999 -1.798,3.432999 0.44,1.215 2.82,1.035 3.818,1.09 1.347,0.073 2.457,-0.564 3.748,-0.672 0.795,-0.067 1.595,0.092 2.374,-0.087 0.512,-0.118 1.422,-0.752 1.94,-0.304 1.118,0.97 -2.969,2.695 -1.152,3.536 1.226,0.567 2.834,-2.267 4.243,-2.042 0.218,0.542 -0.156,1.49 0.174,1.945 0.37,0.51 1.646,0.658 2.212,0.623 1.66,-0.102 1.969,-2.198 1.755,-3.626 z m -28.21,-7.704998 c -0.712,0.25 -2.105,-0.728 -2.917,-0.833 -1.521,-0.198 -1.925,0.385 -0.662,1.312 0.871,0.639 1.644,1.480999 2.662,1.854999 0.645,0.237 2.416,0.581 3.003,0.128 1.307,-1.006999 -1.019,-1.728999 -1.586,-2.044999 z"
     fill="#DCCFBE"
     stroke="#000"
     stroke-width="0.5" />
</svg>
