<svg>
<path 
   fill="#6E8D4E"
   stroke="#000"
   stroke-width="0.5"
   d="m 361.70284,291.10323 -37.24884,42.72103 37.24884,-42.72103 c -0.0576,0.25001 -37.24884,42.72103 -37.24884,42.72103 1.542,0.091 1.75,0.545 1.508,2.063 -0.173,1.086 -0.655,2.274 -0.615,3.419 0.218,0.062 0.437,0.08 0.651,0.093 0.492,0.027 0.956,0.021 1.3,0.418 0.419,0.483 0.34,1.669 0.398,2.259 0.197,2.001 0.136,2.317 -1.669,3.185 -1.564,0.752 -2.54,1.842 -3.572,3.191 -0.989,1.292 -2.005,1.832 -3.346,2.657 -1.001,0.615 -2.296,1.954 -2.262,3.197 0.101,0.016 0.208,0.016 0.312,0.023 -0.134,0.155 -0.206,0.245 -0.206,0.245 0,0 0.289,-0.118 0.68,-0.231 0.476,-0.015 0.969,-0.089 1.466,-0.194 0.36,0.031 0.678,0.145 0.854,0.426 0.625,1 2.875,2.75 3.25,2.75 0.375,0 5.375,4.125 5.375,4.125 0,0 1,1.375 0.625,2.375 -0.375,1 0.084,2 0.084,2 0,0 1.416,-1.375 1.916,-2 0.5,-0.625 5.125,-6.125 6.25,-8.75 1.125,-2.625 4.125,-4.875 5,-6.875 0.875,-2 0.625,-8.5 0.625,-8.5 0,0 3.375,-4.875 5.5,-6 2.125,-1.125 8.125,-2.5 9.625,-3 1.5,-0.5 4.625,-2.25 6,-5 1.375,-2.75 1.875,-2.375 3.125,-7.125 1.25,-4.75 2.375,-4.75 2.375,-7.875 0,-3.125 -0.375,-8.875 0,-9.875 0.375,-1 2.51131,-4.27121 2.51131,-4.27121 l -10.51147,-5.45082 10.59405,5.51446"
   id="riodejaneiro" />
</svg>
