<svg>
<path
   id="rome"
   d="m 549.14,146.88226 c 0.503,0.253 0.587,0.98 1.24,1.197 0.613,0.204 1.377,-0.161 1.945,-0.133 0.645,0.032 1.165,0.286 1.852,0.229 0.082,-0.16 0.126,-0.305 0.146,-0.478 l 0.125,-0.625 c -0.696,-0.681 -2.301,-0.718 -3.249,-1.06 -0.984,-0.355 -1.668,-1.121 -2.756,-1.189 -1.502,-0.094 -2.654,0.963 -0.896,1.778 0.479,0.221 1.12,0.042 1.593,0.281 z m -8.169,-8.663 c -0.233,1.248 0.649,1.574 1.295,2.291 0.638,0.708 0.833,1.726 1.936,1.811 2.502,0.193 1.124,-4.102 2.354,-3.893 0.047,-0.294 0.032,-0.604 -0.017,-0.916 -2.96288,-2.109 -4.74678,-2.12518 -5.568,0.707 z m 13.236,-13.137 c 0.021,-0.047 0.042,-0.094 0.064,-0.141 0.018,-0.041 0.036,-0.075 0.053,-0.121 l 0.009,-0.002 c 0.679,-1.361 1.884,-2.402 3.617,-2.123 0.751,0.121 0.753,0.444 1.142,0.873 0.246,-0.62 0.69,-1.19 0.495,-1.874 -0.377,-1.323 -1.383,-0.638 -0.795,-2.154 0.493,-1.271 3.564,-2.151 2.184,-3.683 -0.05,-0.055 -0.091,-0.109 -0.152,-0.166 m -37.661,20.848 c -0.686,-0.787 -1.714,-0.025 -2.497,0.127 -0.986,0.191 -1.629,-0.219 -2.463,-0.351 -1.218,-0.194 -4.014,0.961 -1.882,1.762 0.688,0.258 1.517,-0.051 2.226,0.398 0.677,0.428 0.805,1.128 1.304,1.689 0.696,0.783 3.457,2.112 3.698,0.557 0.135,-0.881 -1.601,-3.419 -0.386,-4.182 z m -18.494,-14.371 c -0.149,0.577 0.219,2.288 0.775,2.606 1.729,0.989 2.277,-4.348 1.504,-4.828 v -0.125 c -0.946,0.366 -2.027,1.376 -2.279,2.347 z m -0.316,6.877 c 0.218,0.679 0.511,1.039 0.596,1.776 0.087,0.759 -0.109,1.5 0.146,2.231 0.488,0.004 0.699,-0.418 1.101,-0.483 0.198,-0.032 1.066,0.158 1.122,0.134 0.72,-0.311 0.998,-1.056 1.006,-1.943 0.013,-1.496 -0.998,-3.107 -1.375,-4.564 l -0.25,0.375 c -0.574,0.111 -1.643,-0.05 -2.064,0.305 -0.595,0.502 -0.475,1.563 -0.282,2.169 z m 56.471,-13.353 c 0.062,0.057 0.103,0.11 0.152,0.166 0.187,-0.299 0.353,-0.605 0.47,-0.921 0.427,-1.153 0.511,-1.829 1.119,-2.327 0.135,-0.11 0.291,-0.214 0.488,-0.31 0.179,-0.087 0.379,-0.17 0.624,-0.25 0.01,-0.145 0.016,-0.292 0.018,-0.438 0.005,-0.34 -0.018,-0.671 -0.121,-0.933 -0.058,0.062 -0.093,0.192 -0.146,0.247 -1.407,0.085 -2.007,0.147 -2.823,-0.982 -0.004,-0.006 -0.007,-0.011 -0.011,-0.017 0.517,-0.461 1.065,-0.891 1.418,-1.48 0.44,-0.735 0.158,-2.207 1.062,-2.387 0.551,0.538 1.348,0.755 1.975,1.06 0.06,-0.364 0.042,-0.703 -0.094,-0.986 -0.334,-0.698 -1.204,-0.695 -1.512,-1.368 -0.316,-0.694 0.141,-1.747 -0.18,-2.508 -0.297,-0.706 -1.026,-1.325 -1.746,-1.566 -1.026,-0.344 -1.33,-0.086 -2.161,-0.774999 -1.343,-1.113 -2.47,-1.298 -3.664,0.077 0.277,0.061 0.551,0.166999 0.8095,0.336499 -0.2595,-0.1705 -0.5325,-0.2765 -0.8105,-0.337499 -0.732,-0.159 -1.495,0.034 -2.12,0.453999 -0.814,0.549 -1.285,1.273 -2.307,1.513 -1.288,0.302 -1.538,-0.289 -2.562,-0.792 -1.187,-0.584 -1.662,-0.18 -3.1985,0.3765 -0.5745,-0.6605 -0.7495,-1.907499 -1.4295,-2.359499 -0.352,0.244 -0.705,0.311 -1.06,0.292 -0.895,-0.046 -1.798,-0.686 -2.69,-0.782 -1.776,-0.191 -1.333,1.008 -2.447,1.695999 -1.065,0.659 -2.338,-0.463999 -3.558,0.233 -1.232,0.705 -1.69,1.021 -3.148,1.17 -0.64,0.065 -1.536,-0.122 -2.313,-0.186 0.021,0.1 0.045,0.201 0.076,0.314 -1.69,0.492 -1.659,0.906 -1.707,2.4755 -0.048,1.5695 0.224,1.8435 0.408,2.3355 0.198,-0.026 0.374,0.029 0.818,0.3075 -0.444,-0.2775 -0.62,-0.3325 -0.818,-0.3065 -0.161,0.021 -0.336,0.094 -0.684,0.151 -0.157,0.026 -0.44,0.378 -0.622,0.443 -0.238,0.085 -0.522,-0.272 -0.818,-0.1405 0.294,-0.1325 0.578,0.2245 0.816,0.1395 0.182,-0.065 0.465,-0.417 0.622,-0.443 0.348,-0.057 0.522,-0.13 0.684,-0.151 -0.183,-0.491 -0.455,-0.766 -2.0665,-0.541 -1.6115,0.225 -3.1435,0.706 -4.4915,0.342 -1.033,-0.279 -2.152,-1.122 -2.364,0.3665 -0.032,0.0575 -0.021,-0.1735 0.012,-0.3575 -1.148,-0.302 -1.673,-0.993 -2.774,-1.346 -0.803,-0.257 -2.857,-0.831 -3.618,-0.377 -0.663,0.395 -0.452,0.874 -1.229,1.1 -0.511,0.149 -1.27,-0.212 -1.888,0.06 h -0.002 c 0.467,0.811 0.322,2.06 -0.892,1.661 -0.309,-0.101 -0.449,-0.823 -0.741,-0.979 -0.384,-0.207 -1.063,-0.103 -1.485,-0.069 0.082,0.413 0.211,1.018 0.11,1.48 -0.463,2.128 -1.015,0.159 -1.132,-0.748 -0.173,-1.341 -0.834,-1.607 -1.749,-0.564 -0.819,0.934 -0.577,1.782 -1.876,1.755 -0.307,-0.006 -0.674,-0.382 -1.068,-0.384 -0.12,0 -0.243,0.03 -0.367,0.122 -0.84,0.616 0.148,0.752 0.255,1.255 0.267,1.266 -0.814,1.208 -0.817,2.379 -0.002,0.753 0.475,0.661 0.756,1.25 0.213,0.446 0.15,0.834 0.306,1.308 0.251,0.765 0.612,1.365 1.199,1.465 0.219,0.038 0.466,0.012 0.754,-0.108 1.106,-0.459 1.293,-1.249 2.735,-1.228 2.116,0.031 3.516,0.604 4.285,2.714 0.352,0.966 0.337,1.683 1.31,2.319 1.027,0.672 2.048,0.72 2.86,1.824 0.506,0.687 0.545,1.458 1.107,2.138 0.586,0.708 1.462,1.278 2.235,1.759 0.948,0.591 1.787,0.667 2.887,0.87 1.557,0.288 1.077,0.808 1.869,1.945 0.599,0.86 1.765,1.021 2.496,1.675 0.735,0.658 0.826,1.543 1.164,2.415 0.391,1.006 0.718,1.593 0.255,2.682 -0.436,1.022 -0.993,1.606 -1.074,2.765 0.86,0.036 1.839,-0.996 2.265,-1.704 0.25,-0.417 0.325,-1.042 0.587,-1.397 0.18,-0.244 1.034,-0.653 1.104,-0.78 0.725,-1.304 -2.404,-2.988 -0.514,-4.251 0.557,-0.373 5.273,1.883 4.411,-0.099 -0.147,-0.339 -1.436,-0.957 -1.777,-1.218 -0.693,-0.53 -1.458,-0.953 -2.128,-1.5 -0.543,-0.444 -0.944,-1.107 -1.561,-1.44 -1.037,-0.561 -1.801,-0.125 -1.679,-1.693 -1.499,-0.897 -3.084,-0.526 -4.356,-2.122 -0.497,-0.624 -0.595,-1.365 -1.117,-2.024 -0.567,-0.714 -0.844,-0.771 -1.13,-1.688 -0.583,-1.867 -1.675,-1.441 -2.88,-2.815 -1.289,-1.47 -0.791,-3.608 0.41,-4.653 0.606,-0.527 1.388,-0.776 2.217,-0.517 0.172,0.054 0.347,0.133 0.521,0.233 0.19,-0.066 0.434,-0.111 0.7135,-0.14 -0.2785,0.025 -0.5215,0.07 -0.7125,0.136 -0.142,0.049 -0.259,0.109 -0.331,0.184 -0.562,0.583 -0.097,2.142 0.686,2.257 0.791,0.117 1.288,-1.124 2.233,-0.983 0.034,0.622 -0.044,1.243 0.165,1.837 1.351,-0.142 1.392,1.561 2.294,2.322 0.318,0.269 0.864,0.369 1.126,0.63 0.422,0.422 0.342,0.772 0.667,1.255 0.607,0.899 1.362,0.956 2.392,1.34 1.187,0.442 4.48198,0.57225 5.36298,0.33575 -0.0146,1.50914 0.82802,3.46725 1.76402,3.07025 0.12,-0.051 0.21,-0.107 0.287,-0.166 0.376,-0.287 0.313,-0.658 0.473,-1.052 0.028,-0.073 0.064,-0.145 0.056,-0.11 -0.215,0.503 -0.153,0.874 -0.529,1.16 0.028,0.574 0.062,1.145 0.085,1.732 0.044,1.075 -0.346,1.827 -0.371,2.877 -0.025,1.042 1.194,3.659 2.728,3.517 -0.008,0.103 -0.002,0.212 0.011,0.3245 -0.351,0.6865 -0.521,1.3175 -0.237,1.7145 0.537,0.75 1.536,0.225 2.088,1.072 0.464,0.71 0.011,1.897 0.304,2.727 0.46,0.021 0.948,-0.044 1.44,-0.119 0.943,-0.143 1.904,-0.32 2.732,0 0.802,0.311 1.407,1.085 2.146,1.578 0.395,0.264 0.826,0.45 1.351,0.433 1.979,-0.066 1.438,-2.034 0.188,-2.764 -0.962,-0.562 -0.931,-0.378 -1.501,-1.232 -0.369,-0.552 -0.669,-0.837 -1.164,-1.348 -0.861,-0.888 -1.882,-2.62 -0.845,-3.798 0.763,0.471 0.949,1.519 1.944,1.758 1.02,0.245 1.882,-0.299 1.703,-1.308 -0.133,-0.749 -1.413,-1.317 -0.42,-2.091 0.908,-0.708 1.268,0.53 2.008,0.637 0.041,-0.169 0.119,-0.289 0.168,-0.456 1.265,-0.079 2.44,-0.044 3.666,-0.283 0.019,-0.004 0.034,-0.005 0.053,-0.008 0.005,-0.001 0.008,-0.001 0.013,-0.002 0.408,-0.072 0.695,-0.064 0.92,-0.167 0.175,-0.08 0.318,-0.23 0.452,-0.562 0.2,-0.495 -0.097,-1.798 -0.252,-1.625 l -0.491,0.123 -0.009,0.002 c -0.017,0.046 -0.035,0.081 -0.053,0.121 -0.022,0.047 -0.043,0.093 -0.064,0.141"
   fill="#54bff9"
   stroke="#000000"
   stroke-width="0.5"/>
</svg>
