<svg>
<path
     fill="#ef7f72"
     stroke="#000000"
     stroke-width="0.5"
     d="m 171.9975,97.294261 1.68004,33.231159 v 0 l 1.24768,26.87884 -2.92772,-60.109999 -37.7585,0.312 c -0.342,0.837 -0.06,2.437999 -0.796,3.061999 -0.913,0.774 -1.443,-0.245 -2.201,-0.236 -0.56,0.006 -0.959,0.169 -1.254,0.425 -0.176,-0.198 -0.348,-0.399 -0.531,-0.59 -0.74,0.156 -1.057,0.786 -0.498,2.188 0.774,1.942 0.986,3.36 0.99,5.486 0.004,2.587 0.181,5.274 -0.19,7.818 -0.273,1.873 -1.337,3.546 -1.555,5.417 -0.233,1.999 1.356,2.415 1.788,4.288 0.467,2.028 -1.09,3.461 0.3,5.514 0.594,0.878 1.191,1.302 1.506,2.352 0.255,0.851 0.357,1.518 0.88,2.29 0.991,1.462 1.338,2.98 2.147,4.559 0.853,1.664 1.661,3.104 2.249,4.898 0.602,1.838 1.703,2.483 3.152,3.579 1.296,0.98 3.085,1.325 4.515,2.373 1.301,0.954 2.406,1.85 3.255,3.214 1.123,1.802 24.4434,7.67023 26.5624,8.00723 1.53054,-3.63417 -2.5609,-64.956229 -2.5609,-64.956229 z"
     id="sanfrancisco"/>
</svg>
