<svg>
<path
   fill="#ebe084"
   stroke="#000"
   stroke-width="0.5"
   d="m 789.77865,137.45883 -19.33365,51.58043 19.33365,-51.58043 26.67635,1.43843 -26.67635,-1.43843 -19.61765,51.62243 -5.69763,10.59435 5.98163,-10.63635 c 1.155,-0.162 2.723,-0.047 3.644,-0.345 1.521,-0.492 1.75,-1.727 3.567,-1.911 1.216,-0.123 2.279,-0.23 3.07,0.567 0.955,0.963 0.129,1.901 0.604,3.018 0.467,1.099 2.634,1.2 2.981,2.12 2.052,-0.705 3.96,-1.757 6.046,-0.158 -0.139,0.654 0.222,1.576 0.099,2.234 1.442,0.15 2.124,-0.788 2,-2.233 1.727,-0.624 3.301,0.353 4.95,-0.287 1.169,-0.453 3.174,-2.101 4.256,-2.834 2.413,-1.637 5.596,-2.256 8.41,-4.121 2.745,-1.819 4.66,-3.374 6.678,-6.073 0.814,-1.09 2.432,-2.222 2.987,-3.387 0.86,-1.804 0.605,-3.684 1.396,-5.359 1.217,-2.582 6.731,-5.828 1.232,-7.98 0.511,-0.313 0.68,-0.783 1.316,-1.067 0.55,-2.007 -1.016,-2.919 -1.899,-3.884 0.376,0 0.857,-0.028 1.232,-0.108 1.347,-2.545 -3.111,-7.047 -3.93,-9.368 -1.194,-3.388 1.816,-7.167 5.93,-6.974 0.295,-0.341 0.982,-1.575 1.108,-1.959 -0.862,-0.615 -1.854,-0.042 -2.365,-0.275 -1.079,-0.493 -1.151,-1.558 -2.531,-1.386 -2.07,0.258 -2.069,3.002 -4.771,1.628 0.405,-1.961 2.087,-0.403 0,0 z"
   id="shanghai" />
</svg>
