<svg>
<path
   id="southafrica"
   d="m 551.009,315.42526 c 0.028,-0.29 0.147,-0.561 0.438,-0.768 0.386,-0.274 1.013,-0.067 1.62,0.18 -0.358,-1.084 -1.635,-1.15 -3.246,-1.223 -1.398,-0.063 -2.829,-0.195 -4.265,-0.195 -0.375,0 -0.75,0.004 -1.125,0.026 -3.646,0.225 -7.004,2.196 -10.775,1.008 -1.955,-0.616 -3.273,-1.031 -5.386,-0.512 -2.245,0.551 -3.028,0.692 -5.215,0.002 -1.486,-0.47 -3.318,-0.527 -4.884,-0.674 -1.2,-0.112 -3.847,-1.265 -4.59,-0.354 -0.135,0.166 -0.2,0.42 -0.236,0.703 -0.166,1.277 0.522,3.466 0.9,4.204 0.735,1.436 2.128,2.366 2.821,3.874 0.718,1.558 0.837,3.232 1.694,4.733 0.886,1.551 1.946,2.743 2.146,4.549 0.207,1.859 -0.264,3.617 0.414,5.391 0.696,1.823 1.015,2.873 1.086,4.876 0.103,2.854 1.29,6.243 3.415,8.203 0.317,0.293 0.663,0.564 1.004,0.838 -0.135,-0.158 -0.27,-0.315 -0.4015,-0.478 0.1355,0.164 0.2705,0.321 0.4045,0.48 0.712,0.835 1.403,1.642 1.698,2.827 0.33,1.33 0.142,2.442 0.824,3.723 0.537,1.009 1.413,1.758 1.945,2.779 0.228,0.438 0.601,1.142 0.628,1.642 0.068,1.266 -0.488,1.113 -1.013,1.968 -1.606,2.617 1.178,3.471 3.028,5.019 0.871,0.728 1.611,1.596 2.811,1.709 1.298,0.123 2.361,-0.729 3.655,-0.838 1.715,-0.144 1.735,-0.554 3.124,-1.221 1.096,-0.527 2.409,-0.26 3.542,-0.111 1.264,0.166 2.655,0.535 3.995,0.343 1.312,-0.188 2.237,-0.84 3.504,-1.174 2.047,-0.54 4.581,-2.638 6.039,-4.307 1.582,-1.81 2.936,-3.898 4.739,-5.568 0.881,-0.815 1.869,-1.46 2.46,-2.562 0.647,-1.21 0.585,-2.394 1.569,-3.45 0.88,-0.944 2.056,-1.394 2.815,-2.514 0.735,-1.083 0.786,-2.186 1.01,-3.397 0.013,-0.068 0.024,-0.137 0.038,-0.206 l -0.1645,-0.503 c 0.1525,0.569 0.1415,0.638 0.1285,0.706 0.235,-0.34 0.426,-0.739 0.543,-1.211 0.108,-0.438 0.118,-1.717 -0.042,-2.128 -0.242,-0.623 -1.273,-0.243 -1.14,-1.205 0.034,-0.252 2.93,-2.316 3.342,-2.507 2.501,-1.155 4.408,-2.347 4.511,-5.485 0.062,-1.893 -0.068,-5.278 -0.851,-6.993 -0.564,-1.238 -1.183,-1.515 -0.992,-3.174 0.162,-1.417 0.684,-1.806 1.709,-2.637 0.832,-0.675 1.779,-1.341 2.582,-2.071 0.847,-0.77 0.881,-1.955 1.548,-2.62 0.541,-0.54 0.818,-0.183 1.413,-0.508 0.397,-0.218 0.847,-0.779 1.237,-0.959 1.156,-0.534 2.58,-0.392 3.668,-1.214 0.915,-0.691 1.789,-1.742 2.669,-2.504 0.946,-0.818 1.643,-1.665 1.84,-2.989 0.733,-4.927 -0.644,-10.009 -1.527,-14.479 -0.154,0.068 -0.314,0.153 -0.476,0.247 -1.013,0.585 -2.146,1.566 -3.157,1.857 -0.749,0.216 -1.315,-0.405 -1.801,-0.252 -0.692,0.218 -0.854,0.965 -1.712,1.144 -0.211,0.043 -0.671,-0.527 -0.836,-0.496 -0.204,0.039 -0.555,0.463 -0.613,0.469 -0.137,0.014 -0.202,0.487 -0.546,0.521 -0.311,0.031 -0.52,-0.288 -0.83,-0.293 -1.084,-0.017 -1.926,-0.131 -3.174,-0.053 -0.521,0.033 -1.047,-0.006 -1.527,0.028 -0.603,0.043 -1.132,0.204 -1.474,0.796 -0.504,0.871 -0.066,2.428 0.294,3.215 0.895,1.953 3.118,3.048 3.541,5.219 0.415,2.126 -0.826,5.007 -1.661,6.851 -0.481,-0.903 -1.573,-1.132 -1.963,-1.979 -0.391,-0.851 0.008,-2.516 -0.038,-3.462 -0.156,-3.215 -2.489,-1.494 -3.829,-3.93 -0.311,0.015 -0.605,0.063 -0.894,0.129 -1.728,0.395 -3.11,1.604 -4.694,2.467 -1.645,0.897 -3.196,1.203 -3.016,2.67 0.045,0.357 0.188,0.781 0.2315,0.651 -1.3855,-0.475 -2.5185,-0.194 -3.3025,0.182 -2.148,1.028 -0.856,3.177 -3,4.329 -1.297,0.696 -3.318,2.481 -4.813,2.506 -0.327,0.005 -0.834,-0.236 -1.354,-0.448 -0.607,-0.247 -1.234,-0.454 -1.62,-0.18 -0.291,0.207 -0.41,0.478 -0.438,0.768"
   stroke="#000000"
   stroke-width="0.5"
   fill="#dccfbe"/>
</svg>
