<svg>
<path
   id="turkey"
   d="m 583.842,142.96526 c 1.671,-0.067 0.235,-1.898 1.953,-1.868 0.56,0.009 1.16,0.518 1.841,0.474 0.652,-0.042 1.023,-0.403 1.624,-0.5 1.243,-0.202 2.249,0.725 3.501,0.491 1.163,-0.217 2.545,-0.985 3.688,-1.393 1.206,-0.43 2.614,-0.239 3.499,-1.238 0.254,0.186 0.43,0.367 0.542,0.544 0.271,-0.169 0.55,-0.323 0.836,-0.439 1.244,-0.504 1.292,-0.144 2.274,0.252 0.934,0.376 1.545,0.611 2.469,0.687 0.554,0.045 0.856,0.043 1.053,0.088 -0.235,-0.995 -1.373,-2.131 -0.809,-2.845 -0.389,0.047 -0.727,-0.14 -1.096,-0.169 -0.002,-0.501 0.352,-0.916 0.593,-1.335 -0.237,-0.011 -0.368,-0.136 -0.591,-0.165 -0.083,-1.326 -0.72,-2.816 0.321,-3.885 1.643,-1.686 1.854,1.034 2.808,1.752 0.589,0.444 1.353,0.612 2.113,0.584 0.233,-1.774 -3.322,-3.393 -4.504,-3.997 -1.765,-0.902 -1.985,-2.881 -3.23,-4.083 -0.389,-0.375 -0.874,-0.676 -1.54,-0.842 -0.829,-0.207 -1.818,-0.335 -2.753,-0.268 -0.427,0.031 -0.846,0.09 -1.228,0.223 -1.6,0.556 -2.804,1.42 -4.563,1.666 -1.308,0.183 -2.917,0.275 -4.21,0.001 -1.132,-0.24 -2.035,-0.98 -3.11,-1.407 -1.338,-0.531 -2.37,0.09 -3.739,-0.688 -0.982,-0.558 -1.841,-1.616 -2.824,-2.041 -2.312,-0.999 -6.363,0.85 -8.55,1.719 -1.288,0.512 -1.971,1.511 -3.436,1.66 -0.701,0.071 -3.521,-0.62 -3.972,-0.072 -0.013,0.015 -0.011,0.032 -0.02,0.048 -0.12,0.212 0.058,0.478 0.263,0.756 0.2,0.27 0.415,0.55 0.372,0.797 -0.134,0.779 -0.777,0.532 -1.378,0.824 -1.251,0.61 -1.381,1.229 -2.954,1.059 -1.071,-0.116 -2.605,-0.685 -3.577,-0.044 -0.434,0.287 -1.929,2.649 -1.923,3.147 0.017,1.281 2.774,1.303 1.643,3.519 -0.472,0.924 -1.471,0.963 -0.53,1.794 0.647,0.572 2.3,0.377 2.723,1.202 0.325,0.635 -0.312,1.352 -0.331,1.952 1.369,0.071 2.093,-0.323 2.238,1.205 0.119,1.251 -0.478,2.053 1.436,1.94 1.384,-0.082 1.521,-1.044 2.556,-1.631 0.205,-0.117 0.635,-0.29 0.881,-0.247 0.737,0.128 0.32,0.442 0.745,0.75 1.875,1.357 1.905,-2.068 3.871,-1.543 1.465,0.391 3.022,1.218 4.413,1.645 1.502,0.461 3.158,0.246 4.271,-0.73 1.334,-1.17 2.105,-1.135 3.918,-0.957 0.199,0.02 0.904,-0.004 1.093,0.086 0.833,0.401 0.525,0.096 0.308,0.745 -0.347,1.033 -1.1,0.894 -0.596,2.225 0.066,0.174 0.169,0.315 0.288,0.443 0.211,-0.018 0.413,-0.05 0.564,-0.159 0.59,-0.421 0.599,-1.047 0.766,-1.732 z m -21.058,-17.043 c -0.442,-0.662 -1.326,-1.173 -1.956,-1.478 -0.497,-0.24 -1.034,-0.266 -1.474,-0.623 -0.108,-0.088 -0.19,-0.171 -0.263,-0.251 -0.389,-0.429 -0.391,-0.752 -1.142,-0.873 -1.733,-0.279 -2.938,0.762 -3.617,2.123 l 0.491,-0.123 c 0.155,-0.173 0.452,1.129 0.252,1.625 -0.134,0.332 -0.276,0.482 -0.454,0.563 0.167,0.212 0.35,0.389 0.57,0.443 0.876,0.215 1.515,-0.701 2.226,-1.038 0.818,-0.387 1.935,-0.615 2.906,-0.469 0.941,0.143 1.755,0.881 2.723,0.856 -0.205,-0.277 -0.382,-0.544 -0.262,-0.755 z"
   stroke="#000"
   stroke-width="0.5"
   fill="#DCCFBE" />
</svg>
