<svg>
<path
   id="ukraine"
   d="m 562.011,108.44626 c -0.353,0.589 -0.901,1.019 -1.418,1.48 0.004,0.006 0.007,0.011 0.011,0.017 0.816,1.129 1.416,1.067 2.823,0.982 0.054,-0.055 0.089,-0.185 0.146,-0.247 0.104,0.262 0.126,0.593 0.121,0.933 0.485,-0.826 0.35,-1.807 1.067,-2.292 0.546,-0.369 1.021,0.165 1.312,-0.625 0.056,-0.151 0.073,-0.278 0.072,-0.394 -10e-4,-0.387 -0.273,-0.61 -0.572,-0.861 -0.149,-0.125 -0.331,-0.227 -0.526,-0.321 -0.627,-0.305 -1.424,-0.522 -1.975,-1.06 -0.903,0.182 -0.62,1.653 -1.061,2.388 z m 5.403,-22.627995 c -0.317,0.267 -0.361,1.022 -0.595,1.376 -0.351,0.531 -1.435,1.634998 -1.892,0.4 -0.39,-0.053 -1.205,0.245 -1.395,0.205 -0.469,-0.098 -0.591,-0.595 -1.14,-0.74 -0.66,-0.175 -0.666,0.25 -1.181,0.337 -0.673,0.114 -0.347,-0.061 -0.979,-0.198 -1.072,-0.232 -1.801,0.379 -2.794,0.061 -0.861,-0.277 -1.6,-1.123 -2.434,-1.494 -1.832,-0.816 -4.095,0.523 -5.869,1.065 -0.503,0.154 -1.024,0.242 -1.523,0.26 -0.215,0.196 -0.422,0.396 -0.626,0.602 -0.042,0.225 -0.074,0.453 -0.034,0.697 0.146,0.892998 1.516,2.237998 1.086,3.150998 -0.413,0.877999 -2.062,0.916999 -2.651,1.842999 -0.752,1.184 0.014,2.575 -0.541,3.588999 -0.156,0.285 -0.498,0.613 -0.906,0.933 -0.277,0.541 -0.586,1.061 -0.927,1.57 0.354,0.019 0.708,-0.048 1.06,-0.292 0.681,0.452 0.855,1.698999 0.984,2.393999 -0.508,0.254 -1.004,0.348 -1.457,0.506 0.738,0.296 1.676,-0.253 2.349,-0.575 1.091,-0.522 1.566,-0.926 2.753,-0.342 1.024,0.504 1.274,1.095 2.562,0.792 1.021,-0.24 1.492,-0.964 2.307,-1.513 0.625,-0.42 1.388,-0.612999 2.12,-0.453999 1.194,-1.375 2.321,-1.19 3.664,-0.077 0.831,0.687999 1.135,0.430999 2.161,0.774999 0.72,0.241 1.449,0.861 1.746,1.566 0.32,0.761 -0.137,1.813 0.18,2.508 0.308,0.673 1.178,0.67 1.512,1.368 0.136,0.284 0.153,0.623 0.094,0.986 0.195,0.095 0.377,0.197 0.526,0.321 0.299,0.25 0.571,0.474 0.572,0.861 0.384,-0.262 0.755,-0.576 1.146,-0.982 0.975,-1.013 1.767,-1.048 3.138,-0.978 -0.203,2.9 2.902,0.626 4.158,2.231 -1.03,0.851 -3.189,0.712 -1.39,2.029 1.163,0.85 1.695,1.366 1.644,2.952 1.229,0.281 1.712,-1.231 2.954,-1.206 0.489,0.01 0.686,0.408 1.329,0.336 0.37,-0.042 0.915,-0.402 1.302,-0.508 0.438,-2.493 -2.943,-4.815 0.179,-6.569 0.951,-0.535 2.435,-1.004 3.528,-1.16 1.253,-0.179 2.646,0.463 3.812,-0.126 0.037,-0.019 0.059,-0.044 0.092,-0.064 0.91,-0.556 0.439,-1.673 1.666,-2.178 0.503,-0.207 1.284,0.074 1.74,-0.229 0.475,-0.316 0.414,-0.944 0.814,-1.475 0.317,-0.418999 0.844,-0.018 0.942,-0.678999 0.06,-0.401 -0.591,-0.431 -0.61,-0.751 -0.057,-0.925 0.269,-0.629 0.757,-1.215 0.684,-0.819 1.28,-2.113999 -0.274,-2.537999 -0.334,-0.09 -0.74,0.276 -1.125,0.134 -0.322,-0.119 -0.345,-0.494 -0.594,-0.626 -0.655,-0.347 -0.853,-0.342 -1.605,-0.495 -1.396,-0.285 -2.37,-0.486 -2.569,-1.989999 -0.987,0.467999 -1.98,0.025 -3.047,-0.083 -0.805,-0.081 -1.776,0.113 -2.565,-0.047 -1.342,-0.272 -0.806,-0.604 -1.106,-1.644 -0.222,-0.768 -0.701,-0.964 -1.237,-1.396 -0.402,-0.324 -1.343,-0.685998 -1.618,-1.004998 -0.667,-0.777 0.002,-1.244 -0.315,-2.065 -0.451,-1.168 -2.539,-1.924 -3.595,-1.652 -1.458,0.376 -2.657,1.038 -4.103,0.741 -0.148,0.213 -0.39,0.389 -0.77,0.51 -0.531,0.17 -0.939,-0.15 -1.41,0.247 z"
   fill="#DCCFBE"
   stroke="#000"
   stroke-width="0.5" />
</svg>
