<svg>
<path
   fill="#ebe084"
   stroke="#000"
   stroke-width="0.5"
   d="m 739.56111,109.39559 c -2.958,-1.65 -2.68198,60.38068 -2.68198,60.38068 -0.60517,0.84269 0.12964,-35.85647 0.12964,-35.85647 v 0 l 2.55234,-24.52421 c -0.555,-0.556 -7.98011,-8.69933 -8.44211,-9.10633 -0.453,-0.399999 -0.733,-1.504999 -1.082,-1.797999 -1.062,-0.89 -1.686,-1.754 -2.857,-1.892 -0.229,-0.027 -0.491,-0.016 -0.771,0.019 -0.138,0.839 -0.611,1.69 -1.244,2.1 -0.919,0.595 -1.381,-0.355 -2.042,0.829 -0.366,0.654999 -0.036,1.761999 -0.114,2.518999 -0.198,1.902 -0.785,3.126 -2.746,2.946 -1.584,-0.146 -3.2,-1.814 -4.433,-1.001 -0.782,0.516 -2.152,3.252 -2.214,4.145 -0.114,1.633 1.153,2.558 -0.998,3.348 -1.536,0.563 -3.329,0.021 -4.95,0.103 -3.305,0.166 -0.32,1.623 0.348,2.792 0.209,0.365 0.521,1.849 0.648,2.32 0.174,0.642 0.398,1.811 0.025,2.409 -0.422,0.675 -1.364,0.652 -1.825,1.364 -0.574,0.888 0.329,1.143 -0.721,1.651 0.049,0.101 0.085,0.201 0.089,0.293 0.037,0.892 -0.789,0.743 -1.751,1.032 -1.84,0.554 -2.191,2.655 -4.061,2.639 -1.061,-0.009 -1.528,-0.719 -2.412,-0.181 -0.594,0.361 -0.838,1.499 -1.6,1.995 -1.977,1.29 -2.726,-0.725 -4.429,-0.198 -0.85,0.262 -1.862,1.942 -2.481,2.572 -1.464,1.49 -0.728,1.499 -0.856,2.962 0.239,0.317 0.263,0.697 0.586,1.177 0.357,0.529 -0.028,0.633 0.498,1.065 0.321,0.264 1.036,-0.122 1.444,0.201 0.673,0.532 0.568,1.631 0.527,2.442 -0.017,0.327 -0.045,0.647 -0.083,0.964 0.159,-0.063 0.312,-0.122 0.438,-0.14 0.108,0.446 0.062,0.786 -0.081,1.049 0.816,0.201 1.926,0.728 2.348,1.374 0.646,0.99 -0.217,1.671 0.749,2.447 0.667,0.535 2.198,0.828 2.941,1.449 0.147,-0.028 0.296,-0.05 0.447,-0.059 2.44,-0.141 1.888,2.59 4.09,3.157 -0.077,1.701 -0.155,2.593 0.93,3.944 0.736,0.918 1.968,2.543 0.745,3.789 -0.811,-0.385 -1.622,-1.134 -2.445,-1.314 -0.311,1.899 1.123,3.342 2.152,4.393 1.05,1.071 2.554,2.699 4.22,3.195 0.066,0.484 -10e-4,0.922 -0.135,1.344 0.729,-0.434 1.474,-1.112 2.468,-0.878 0.984,0.232 2.701,0.936 3.59,1.354 1.232,0.581 1.564,1.973 2.506,2.598 1.179,0.782 2.901,-0.35 3.162,1.619 1.166,-0.027 1.74124,1.05938 2.65624,1.56538 0.881,0.488 1.49476,0.51962 2.30876,0.56462 -0.06,-0.003 0.869,0.398 0.976,0.419 0.247,0.05 0.962,-0.44 1.326,-0.387 0.206,0.031 0.747,0.718 1.191,0.832 0.511,0.132 1.177,-0.136 1.705,-0.14 -0.032,0.842 0.139,1.61 0.478,2.297 -0.011,-0.33 0.078,-0.708 0.413,-1.288 0.653,-1.132 1.512,-2.041 2.843,-2.341 0.869,-0.196 2.669,-0.304 3.548,0.065 z"
   id="urumqi" />
</svg>
