<svg>
<path 
   fill="#9c6bae"
   stroke="#000"
   stroke-width="0.5"
   d="m 1015.74,94.134 c -0.666,-1.256 0,-1.423 -1.333,-1.923 -1.333,-0.5 2,-1.333 -2,-1.167 -4,0.166 -2.667,1.457 -4.5,-0.021 -1.833,-1.478 -0.333,-3.312 -1.833,-1.479 -1.5,1.833 -1.833,0.5 -1.5,1.833 0.333,1.333 0.5,-0.834 0.333,1.333 -0.167,2.167 -1.5,4 -2,2 -0.5,-2 -0.833,-0.167 -0.5,-2 0.333,-1.833 1.501,-2.87 -0.333,-3.935 -1.834,-1.065 -2,-1.565 -3,-2.065 -1,-0.5 0,-2.5 -3.167,-2 -3.167,0.5 -1.333,-2 -4,-2 -2.667,0 0.666,-1.833 -3.167,-2.167 -3.833,-0.334 -3,-0.833 -5.333,-0.833 -2.333,0 -0.833,-3 -3.5,-2.333 -2.667,0.667 -1.333,-0.526 -4.5,-0.097 -3.167,0.429 -1.666,-0.455 -4.333,-0.096 -2.667,0.359 -1.834,-0.035 -3.667,-0.088 -1.833,-0.053 -2.667,0 -2.667,0 0,0 -2.333,-0.661 -2.833,-0.024 -0.449,0.572 -0.228,-0.706 -0.419,0.233 0.106,0.129 0.243,0.438 0.419,1.071 0.833,3 0.999,1.5 0.833,3 -0.166,1.5 -0.833,1.166 -2.333,1.333 -1.5,0.167 -0.001,-0.167 -2.667,-1 -2.666,-0.833 -3.166,-1.166 -2.666,-1.833 0.5,-0.667 0.999,-1.5 2.166,-1.5 1.167,0 2.833,-1.163 0.5,-1.582 -2.333,-0.419 -2,-1.748 -3.5,0 -1.5,1.748 2.166,0.582 -1.5,1.748 -3.666,1.166 -1.166,1.833 -3.666,1.167 -2.5,-0.666 -1.833,-2.167 -3.5,-1.167 -1.667,1 -0.334,-0.333 -2.834,0.333 -2.5,0.666 -1.5,-0.834 -3.833,-0.167 -2.333,0.667 -2.833,0 -2.833,0 0,0 -4.714,0.833 -4.19,-0.667 0.524,-1.5 -1.478,-4.667 -2.644,-4.667 -1.166,0 0.668,-2 -1.166,-1.833 -1.834,0.167 -1.501,-0.52 -3.834,-0.01 -2.333,0.51 -1.166,-1.394 -3.333,-0.192 -2.167,1.202 -0.333,2.035 -4.833,2.035 -4.5,0 -3.334,-0.667 -5.167,-0.667 -1.833,0 -0.666,-2.214 -2.833,-1.773 -2.167,0.441 -1.334,0.44 -2.167,0.44 -0.833,0 -2.333,-1.333 -2.333,-1.333 0,0 -0.834,-1 -0.667,-2.167 0.167,-1.167 0.833,-0.5 -2.5,-1.333 -3.333,-0.833 -2.999,-2.5 -4.333,-1 -1.334,1.5 -0.168,1 -1.334,1.5 -1.166,0.5 0.334,-0.667 -2.166,0.333 -2.5,1 -3.001,2.333 -3.334,1.333 -0.333,-1 0.601,-2.666 1.884,-2.833 1.283,-0.167 2.922,-0.509 2.116,-0.937 -2,-1.063 -3,-0.896 -3,-0.896 0,0 -1,1.167 -3.333,1 -2.333,-0.167 -2.539,-1.01 -2.539,-1.01 0,0 -1.628,-0.176 -3.128,0 -1.5,0.176 -1.5,0.5 -2.333,-0.079 -0.06,-0.042 -0.093,-0.076 -0.137,-0.113 -0.112,0.324 -0.313,0.743 -0.696,1.202 -0.834,1 -0.021,-0.333 -2.344,0.667 -2.323,1 -2.656,0 -2.323,1 1,2.667 1.833,3 0.5,3.5 -1.333,0.5 0.501,0.333 -1.333,0.5 -1.834,0.167 -0.168,-1 -1.834,0.167 -1.666,1.167 -1.166,-0.833 -2.666,-0.333 -1.5,0.5 -2,-0.667 -2,-0.667 0,0 -2.668,-0.667 -3.334,0.5 -0.666,1.167 -0.832,-2.5 -2.166,-1 -1.334,1.5 -0.333,-0.667 -2,0.167 -1.667,0.834 -2,-0.167 -3.167,0.5 -1.167,0.667 0.167,-2.833 -1,-1.833 -1.167,1 -0.501,-0.667 -2.167,2.167 -1.666,2.834 -1.166,2.167 -2.666,2.333 -0.103,0.011 -0.179,0.027 -0.24,0.045 -0.229,-0.229 -0.719,-0.607 -1.688,-1.211 -3.739,-2.333 -4.238,-2.833 -4.572,-3.333 -0.334,-0.5 -1.333,-2.667 0,-2 1.333,0.667 2.166,0.333 2.166,0.333 0,0 0.834,-0.167 -0.666,-1.833 -1.5,-1.666 1.166,-2 -1.167,-3 -2.333,-1 -0.834,-3 -2.667,-2.667 -1.833,0.333 -1.334,-0.741 -3,-0.037 -1.666,0.704 -0.666,-1.193 -2.333,-0.245 -1.667,0.948 0.334,-1.158 -1.833,-0.271 -2.167,0.887 -5.501,-0.281 -5.834,1.386 -0.052,0.257 -0.094,0.402 -0.129,0.487 0.035,0.138 0.077,0.347 0.129,0.68 0.334,2.167 -2.5,3.667 -2.833,3.167 -0.333,-0.5 0.333,-1 -3.167,-1.667 -3.5,-0.667 -0.667,0.833 -3.5,-0.667 -2.833,-1.5 -0.332,-1.333 -3.666,-2 -3.334,-0.667 -3.5,-1 -9,-0.5 -5.5,0.5 -3.5,2.167 -5.5,0.5 -2,-1.667 0.833,-3.5 -2,-2.5 -2.833,1 0.666,0 -3.667,0.667 l -4.583,2.417 -5.5,1 c 0,0 -2,1 -4.75,1.25 -2.75,0.25 0.25,-1.75 1.75,-2.5 1.5,-0.75 1.75,-2.985 4,-3.118 2.25,-0.133 1.5,-0.118 3.5,0 2,0.118 0.75,-0.882 3.5,-1.882 2.75,-1 0.5,0 2.75,-1 2.25,-1 3.5,-2 3.5,-2 1.25,-2.75 3.75,-1.25 1.75,-4 -2,-2.75 -0.5,0.75 -2,-2.75 -1.5,-3.5 2,-3.25 -1.5,-3.5 -3.5,-0.25 -3.75,-0.5 -6.25,0 -2.5,0.5 -1.75,0.5 -5,0.75 -3.25,0.25 -1.25,2.5 -3.25,0.25 -2,-2.25 -1.738,-2.5 -3.869,-2.75 -2.131,-0.25 -2.131,1.5 -3.381,0 -1.25,-1.5 7.693,-4.75 -1.903,-2.5 -9.596,2.25 -9.097,1.25 -11.097,3.5 -2,2.25 0.30713,1.354359 -2,2.25 L 752.63536,46.347729 761.175,154.41 c 0,0 -8.53964,-108.062271 -8.5416,-108.45 0.002,0.387729 8.5416,108.45 8.5416,108.45 1.426,0.433 2.837,0.6 4.231,0.965 0.648,0.17 2.104,0.448 2.623,0.875 0.834,0.689 0.524,1.865 1.083,2.586 1.234,1.593 4.468,1.793 6.291,1.706 2.343,-0.112 4.376,-0.628 6.664,0.371 2.128,0.929 3.989,2.366 6.211,3.081 2.312,0.745 5.106,0.18 7.293,-0.503 1.076,-0.336 2.147,-0.558 3.088,-1.192 1.062,-0.717 1.491,-1.728 3.076,-1.592 1.28,0.109 2.161,1.147 3.503,1.342 1.049,0.153 2.32,-0.294 3.336,0.026 0.375,0.118 0.928,0.52 1.53,0.987 0.125,-0.226 0.266,-0.417 0.425,-0.562 1.255,-1.133 5.143,-0.949 6.824,-1.343 0.061,-3.145 0.486,-3.316 2.253,-5.577 1.305,-1.67 2.989,-3.506 0.181,-5.123 2.491,-4.231 11.887,-1.58 14.952,0.41 2.054,1.333 3.837,3.024 5.139,5.18 1.223,2.023 1.057,6.368 3.801,6.55 0.357,2.23 1.625,1.812 3.048,2.616 1.568,0.886 2.399,1.588 3.934,2.753 3.411,2.588 4.637,0.846 8.083,-0.002 5.685,-1.399 0.697,3.232 -0.328,5.233 -0.999,1.952 -0.94,7.29 -4.623,6.286 -0.035,-0.188 -0.076,-0.375 -0.121,-0.56 -4.07,0.551 -1.561,5.662 -3.084,7.954 -0.059,0.088 -0.152,0.186 -0.261,0.287 l 0.887,0.205 c 1.627,-0.63 2.258,-1.112 2.867,-0.495 0.822,0.833 0.812,2.273 2.734,1.637 1.922,-0.636 1.756,-1.21 3.422,-1.923 1.666,-0.713 2.334,-1.213 4,-2.713 1.666,-1.5 1.5,-2.167 2.333,-3.667 0.833,-1.5 0.834,-1 1.667,-2.5 0.833,-1.5 -0.334,-1 1.333,-2.5 1.667,-1.5 0.501,-0.333 1.667,-1.5 1.166,-1.167 0.832,-0.833 1.666,-2.333 0.834,-1.5 -0.332,0.333 0.834,-1.5 1.166,-1.833 1.989,-3 1.989,-3 0,0 0.845,-1.834 1.511,-4.167 0.666,-2.333 -0.666,-1.666 0,-3.333 0.666,-1.667 0.667,-1.833 1,-3.5 0.333,-1.667 0.5,0.166 0.333,-1.667 -0.167,-1.833 0.631,-1.667 0.065,-3 -0.566,-1.333 -0.732,-1 -0.565,-2.333 0.167,-1.333 10e-4,-0.834 -0.833,-1.667 -0.834,-0.833 -0.021,-0.833 -1.511,-1.333 -1.49,-0.5 -0.489,-2.5 -2.489,-1 -2,1.5 -0.166,0.167 -2,1.5 -1.834,1.333 -3.155,2.787 -2.834,1.827 0.667,-1.994 0.5,-2.161 0.667,-2.994 0.167,-0.833 1,-0.607 0.5,-1.304 -0.5,-0.697 -0.166,-2.53 -1.833,-0.696 -1.667,1.834 -1.667,1.833 -1.667,1.833 -2.167,-1.167 -3.833,-2.249 -3.833,-2.625 0,-0.376 -0.656,-0.542 1.005,-1.209 1.661,-0.667 2.661,-1.167 3.161,-1.5 0.5,-0.333 3.001,-1.5 3.834,-3.333 0.833,-1.833 2.166,-3.667 3.666,-4.167 1.5,-0.5 1.5,0.667 2.667,-1 1.167,-1.667 1.376,-2 2.271,-3 0.895,-1 -0.379,-1.833 1.675,-1.667 2.054,0.166 1.261,-0.167 2.907,-1 1.646,-0.833 1.979,-2.167 2.979,-1.167 1,1 1.333,1.333 3,1 1.667,-0.333 1.5,-1.547 2.667,-1.357 1.167,0.19 -0.334,1.19 1.833,0.857 2.167,-0.333 5,0.5 6.167,-0.167 1.167,-0.667 1.501,-1.087 2.667,-0.71 1.166,0.377 0.666,-0.161 2.333,-0.142 1.667,0.019 1.999,-0.315 2.833,0.852 0.834,1.167 1.5,1.333 3,0.833 1.5,-0.5 1.834,-1.667 3.834,-1 2,0.667 3.166,0.5 3.166,0.5 0,0 -2.5,-1.5 -1,-3.333 1.5,-1.833 3.166,-3 4.5,-4 1.334,-1 2.167,-1.833 2.167,-1.833 0,0 0.667,-2.834 2.167,-2.167 1.5,0.667 -0.5,1.334 2.333,1.167 2.833,-0.167 2.667,-1.87 3.667,-1.269 1,0.601 -0.666,0.102 1,0.602 1.666,0.5 0,3.833 0,3.833 0,0 1.334,1.167 2.5,0 1.166,-1.167 -0.501,-0.5 1.166,-1.167 1.667,-0.667 0.834,0.166 2.667,-1.167 1.833,-1.333 1.001,-2.5 1.667,-3.667 0.666,-1.167 0.333,-1.333 2.333,-1.5 2,-0.167 1,-0.333 2,-0.167 1,0.166 1.499,1.333 0.833,1.667 -0.666,0.334 -2.833,0.667 -2.833,1.667 v 1.667 c 0,0.833 1.999,0.167 -0.167,1.667 -2.166,1.5 0.501,0 -2.166,1.5 -2.667,1.5 -3.334,1.5 -3.667,2.333 -0.333,0.833 -10e-4,0 -1.167,1.333 -1.166,1.333 0.334,0.167 -2.333,2 -2.667,1.833 -3.833,1.667 -3.833,3 0,1.333 1.166,1 -0.667,2 -1.833,1 2.167,-1.5 -1.833,1 -4,2.5 -3.333,0 -4,2.5 -0.667,2.5 0.334,-0.666 -1.5,3.167 -1.834,3.833 -1.666,3.167 -2,4.667 -0.334,1.5 -0.334,1.167 -0.167,2.667 0.167,1.5 0.334,-0.833 0.167,1.5 -0.167,2.333 -1.834,2.654 -0.167,3.494 1.667,0.84 2.001,-0.827 1.667,0.84 -0.334,1.667 -1.834,-3 -0.667,2.5 1.167,5.5 -1.833,4.667 1.167,5.5 3,0.833 2.834,3.5 4,-1 1.166,-4.5 -1.168,-2.5 1.166,-4.5 2.334,-2 1.334,-1.5 2.334,-2 1,-0.5 0.666,1.226 1.666,-0.054 1,-1.28 0.834,-0.946 1.167,-2.946 0.333,-2 -1.501,-1.5 0.333,-2 1.834,-0.5 -1.832,0.833 1.834,-0.5 3.666,-1.333 3.833,-2.5 3.833,-2.5 0,0 -3.166,3.333 -0.333,-2.333 2.833,-5.666 2.833,-5.667 2.833,-5.667 0,0 2.667,-1.833 1.167,-2.667 -1.5,-0.834 -0.834,0.167 -2.167,-0.833 -1.333,-1 -3.666,-1.667 -1.333,-2.667 l 2.333,-1 c 0,0 0.834,-2.167 1.167,-3 0.333,-0.833 -1,-3.833 1,-2 2,1.833 0.834,0.666 2.5,0.833 1.666,0.167 1.166,-1.333 2.333,-0.667 1.167,0.666 1.661,-1.773 2.167,-0.833 1.166,2.167 0.666,2.667 2.166,2.167 1.5,-0.5 2.167,-1.667 2.667,-2 0.5,-0.333 0.5,-2.333 2,-0.5 1.5,1.833 2.666,-2 3.833,-0.167 1.167,1.833 0.501,1.167 2.667,0 2.166,-1.167 0.5,-1.167 2.833,-2.667 2.333,-1.5 0.333,-1.333 2.333,-1.5 2,-0.167 2.166,-1.167 3.5,-1 1.334,0.167 1,-1.167 2.167,-0.5 1.167,0.667 0.667,-0.667 2.167,-0.333 1.5,0.334 0.667,-3.5 3.5,-2.5 2.635,0.93 4.403,-1.081 4.638,-1.366 -0.077,0.106 -0.199,0.476 1.195,1.033 1.667,0.667 3.167,0.529 2.167,-1.069 -1,-1.598 0.832,-0.265 -1.834,-2.765 -2.666,-2.5 -1.499,-0.667 -2.666,-2.5 l -1.167,-1.833 c 0,0 10e-4,-1 -1.833,-1.667 -1.834,-0.667 -2.167,-1.833 -1.167,-2 1,-0.167 4.001,0.833 5.167,2 1.166,1.167 2.145,2.333 3.822,0.667 1.677,-1.666 1.511,-2.369 2.511,-2.685 1,-0.316 0,-0.482 0,-1.315 0,-0.833 -1.167,-0.667 -0.5,-1.667 0.667,-1 -0.778,-1.833 0.944,-2.167 1.722,-0.334 1.222,-0.667 1.389,1.5 0.167,2.167 -1.166,1.667 0.167,2.167 1.333,0.5 2.666,-0.833 3.833,-0.333 1.167,0.5 1.167,0 2.167,1.333 1,1.333 1.667,1.167 1.667,1.167 0,0 1.167,-0.333 1.5,0.833 0.333,1.166 0.782,-0.039 1.5,0.5 2,1.5 2.832,-0.167 3.666,0.667 0.834,0.834 1.334,0.667 2.167,0.667 0.833,0 1.167,-2.667 1.5,-3.333 0.333,-0.666 -1.667,-1.333 0,-1.5 l 1.667,-0.167 c 0,0 1.5,0.167 2.833,-1 1.333,-1.167 1.504,-1.482 0.838,-2.739 z M 866.603,145.33 c -0.073,-0.04 -0.155,-0.083 -0.251,-0.135 0.079,0.042 0.165,0.088 0.251,0.135 z"
   id="vladivostok" />
</svg>
