<svg>
  <path
     d="m 193.2181,179.77753 c 0.11327,0.004 0.21949,0.0538 0.35127,0.15633 0.35145,0.35146 -0.9369,1.05368 -0.58545,1.28798 l 0.52524,0.26482 c 1.84266,0.88473 -0.017,-0.65098 1.93363,-1.08444 0.35146,-0.11715 0.93628,3.27844 1.75635,3.39558 1.87444,0.35146 4.33149,0.23311 5.85446,2.2247 0.11716,0.23432 -0.4683,0.46823 -0.58544,0.70254 -0.23431,0.70291 -0.81957,1.28761 -0.93672,1.99052 0,0.23423 0.5855,0.11695 0.46836,0.35127 -0.11716,0.35145 -0.70248,0.4681 -0.81963,0.93671 -0.80142,2.86224 1.08088,2.14294 2.91637,2.21811 l 0.12795,0.007 h 0.11703 c 0.14851,0.25989 0.33791,0.56055 0.50739,0.85865 -0.17059,0.38381 -0.31224,0.84756 -0.31224,1.13186 0,0.51992 1.1153,1.46443 1.32701,1.63925 0.0157,0.0468 0.0281,0.0933 0.046,0.13552 l 0.0321,0.0596 -0.3903,1.17089 -0.97575,-0.46835 -0.039,1.36604 -0.46836,0.27321 0.50739,0.74156 -0.50739,0.46835 0.11703,0.89769 -0.31224,0.58545 c -1.26534,0.0877 -2.79148,3.00275 -3.16141,4.02006 -0.34443,1.03329 3.02378,5.43918 0.73286,5.39447 l -0.14741,-0.008 -0.11703,0.46835 c -0.28116,-0.0937 -0.56197,-0.18736 -0.84299,-0.22106 l -0.21081,-0.0131 c -0.82007,-0.11716 -1.63888,0.70272 -2.34179,0.35126 -0.58576,-0.23431 -0.1169,-1.28772 -0.46836,-1.75633 -0.2343,-0.35127 -0.81943,-0.11696 -1.17089,-0.35127 -0.11715,-0.11716 0.46836,-0.35121 0.46836,-0.46836 -0.11715,-0.23432 -0.23404,-0.4683 -0.46836,-0.58544 -0.2343,-0.11714 -0.58538,0.35132 -0.70254,0.23417 -0.46861,-0.35145 -0.58518,-1.05361 -1.0538,-1.40507 -0.76881,-0.3295 -1.84536,-0.0409 -2.36304,-0.58267 l -0.0958,-0.11986 c -0.46862,-0.46861 0.46836,-1.17058 0.46836,-1.75634 -0.11714,-0.4686 -0.81963,-0.58518 -0.81963,-1.0538 0,-0.58575 0.4683,-1.05354 0.58545,-1.52217 0.11715,-0.35145 0.70266,-0.70241 0.46835,-0.93671 -0.82007,-0.70291 -1.5217,1.4047 -2.34178,2.10761 -1.64012,1.52304 -5.50338,0.58588 -5.15192,-0.11703 0.35145,-0.58574 0.93671,-0.9364 0.93671,-1.52216 0,-0.32635 -0.80773,-0.34928 -0.82932,-0.72609 l 0.01,-0.0935 c 0,-0.70291 0.93671,-1.2876 0.93671,-1.99051 -0.2343,-1.99159 -5.03471,-0.81912 -5.26902,-1.75634 -0.11722,-0.46862 0.23418,-1.05354 0.11703,-1.52216 -0.35146,-1.87444 -2.92686,8.7e-4 -3.62977,-1.63925 -0.46859,-0.93724 0.235,-3.62944 -1.28798,-4.21522 -0.70291,-0.35145 -1.28749,1.28799 -2.2247,1.28799 -2.51448,0 -2.68582,-4.23415 -2.91026,-5.96372 l -0.017,-0.12492 0.11703,-0.11703 c 2.01289,-0.55915 5.08926,-2.93097 7.70829,-3.85868 l 0.37087,-0.12236 0.23417,0.46836 c -0.2343,3.04597 2.22376,1.05337 3.98104,1.87343 0.23431,0.11717 -0.23429,0.58533 0,0.81963 1.40583,0.93721 2.57547,-0.70209 3.51268,-1.52217 l 0.28001,0.22692 c 0.6018,0.47326 1.15618,0.81133 1.35924,0.7098 0.35146,-0.23431 0.2343,-0.7023 0,-1.17089 l 0.24521,0.0841 c 0.2305,0.0768 0.42791,0.12074 0.6915,0.0329 0.80144,0 -1.30695,-2.57244 1.22108,-1.92396 l 0.18399,0.0505 c 0.23437,0 -0.23417,0.58538 -0.11702,0.70253 1.18617,0.98846 1.63388,-0.86201 2.37523,-0.97128 z"
     id="belgium"
     fill="#dccfbe"
     fill-rule="nonzero"
     style="stroke:#000000;stroke-width:0.5" />
  
</svg>