<svg>
  <path
     d="m 263.48369,135.72039 -0.0312,0.004 -0.0625,0.0117 -0.13477,0.0508 -0.0605,0.0391 -0.0645,0.0469 -0.0664,0.0449 -0.0527,0.0449 -0.0547,0.0508 -0.041,0.0449 -0.0508,0.0508 -0.0488,0.0508 -0.0586,0.0449 -0.0606,0.0391 -0.12109,0.0723 -0.12696,0.0644 -0.13281,0.0644 -0.12891,0.0781 -0.0586,0.0391 -0.0605,0.0449 -0.0527,0.0508 -0.0527,0.0527 -0.0273,0.0371 -0.0371,0.0215 -0.0723,0.0547 -0.0723,0.0391 -0.0801,0.0332 -0.29492,0.0918 -0.0625,0.0254 -0.0488,0.0312 -0.0176,0.0137 -0.0156,0.0234 -0.0176,0.0215 -0.004,0.0273 -0.01,0.0547 0.0195,0.0664 0.0156,0.0469 0.0215,0.0391 0.0586,0.10547 0.0391,0.0703 0.0293,0.0645 v 0.002 l 0.0312,0.0644 v 0.002 l 0.0195,0.0723 0.0117,0.0664 0.0117,0.0742 0.006,0.0684 -0.008,0.0742 v 0.002 l -0.002,0.0664 -0.0117,0.0684 -0.0137,0.0781 -0.0195,0.0684 v 0.002 l -0.0469,0.13867 -0.0586,0.13281 v 0.002 l -0.006,0.006 -0.004,0.0332 0.004,0.0547 0.0137,0.0723 v 0.002 l 0.0137,0.0801 0.082,0.33399 0.0117,0.0664 v 0.002 l 0.01,0.0469 -0.006,0.0137 0.002,0.0137 h -0.0117 l -0.0137,-0.0117 -0.0137,-0.0195 -0.0449,-0.0703 v -0.002 l -0.13867,-0.2539 -0.0312,-0.0645 -0.002,-0.002 -0.0234,-0.0664 -0.0234,-0.0644 -0.0117,-0.0664 -0.0234,-0.14258 -0.0176,-0.14843 -0.0195,-0.14063 v -0.002 l -0.0234,-0.13867 v -0.002 l -0.0117,-0.0664 v -0.002 l -0.0176,-0.0645 -0.0234,-0.0605 -0.0234,-0.0664 -0.0606,-0.10938 -0.0566,-0.0781 -0.0293,-0.0312 -0.0254,-0.0254 -0.0527,-0.0234 h -0.002 l -0.0312,-0.01 -0.0508,0.004 -0.0234,0.008 -0.0254,0.008 -0.0293,0.0176 -0.0547,0.0312 -0.23828,0.19336 -0.0703,0.0488 -0.0742,0.0391 -0.0859,0.0332 -0.043,0.01 -0.0449,0.004 -0.14453,0.0176 -0.12891,0.0312 -0.125,0.0371 -0.11718,0.043 -0.23243,0.0781 -0.11718,0.0312 -0.0566,0.0117 -0.0625,0.004 -0.25,0.0273 -0.25391,0.0117 -0.25195,-0.01 -0.13086,-0.008 -0.11914,-0.0176 -0.0762,-0.008 -0.14063,0.01 -0.0664,0.0195 -0.0684,0.0254 -0.0664,0.0312 -0.0606,0.0332 -0.0664,0.0391 -0.11914,0.0918 -0.11133,0.10547 -0.2168,0.19726 -0.0957,0.008 0.0117,0.15039 -0.0234,0.0332 -0.0293,0.0312 -0.0644,0.0586 -0.0664,0.0469 -0.0781,0.0332 -0.0801,0.0332 -0.0801,0.0273 -0.16601,0.0527 -0.15626,0.0547 -0.0664,0.0312 -0.0586,0.0391 -0.0488,0.0449 -0.0156,0.0293 -0.0176,0.0274 -0.0156,0.0351 -0.01,0.0352 -0.002,0.0332 -0.004,0.041 0.004,0.0488 0.01,0.0391 0.006,0.0273 0.01,0.0117 v 0.002 l 0.0195,0.0176 v 0.002 l 0.0137,0.004 0.0254,0.0117 0.0254,0.006 0.0625,-0.006 0.0313,-0.01 0.0742,-0.0195 0.16016,-0.0586 0.0801,-0.0273 0.0742,-0.0195 0.0625,-0.006 0.0332,0.006 0.0254,0.0117 h 0.002 l 0.0234,0.0117 0.0234,0.0234 0.0137,0.0273 0.01,0.0391 0.01,0.041 0.004,0.0547 -0.008,0.13672 -0.0195,0.0957 -0.0234,0.084 -0.0312,0.0762 v 0.002 l -0.0391,0.0644 -0.0391,0.0645 -0.10547,0.11523 -0.0527,0.0527 -0.23828,0.20313 -0.1211,0.11133 -0.0586,0.0586 -0.0586,0.0644 v 0.002 l -0.0586,0.0781 -0.043,0.0723 -0.0332,0.0762 -0.0195,0.0703 -0.0117,0.0762 -0.008,0.0684 v 0.0684 l -0.002,0.0684 0.004,0.13477 0.006,0.0684 -0.008,0.0625 -0.006,0.0684 -0.0156,0.0625 -0.0195,0.0625 -0.0332,0.0625 v 0.002 l -0.0352,0.0488 -0.0332,0.0449 -0.0352,0.0352 -0.0352,0.0234 -0.0312,0.0234 -0.0371,0.01 -0.0293,0.01 -0.0312,0.002 -0.0391,-0.0117 -0.0332,-0.004 -0.0645,-0.0352 -0.0684,-0.0488 -0.0625,-0.0625 -0.125,-0.14844 -0.12731,-0.15383 v -0.002 l -0.11719,-0.13281 -0.0547,-0.0566 h -0.002 l -0.0254,-0.0254 h -0.002 l -0.0254,-0.0176 -0.0606,-0.0312 -0.0449,-0.0234 -0.0508,-0.0156 -0.082,-0.006 -0.0391,0.008 -0.0371,0.01 -0.0293,0.0156 -0.0312,0.0254 -0.0293,0.0293 -0.0469,0.0566 -0.0449,0.0644 -0.0391,0.0801 -0.0762,0.13477 -0.0234,0.0273 -0.0469,0.0449 -0.0234,0.0156 -0.0488,0.0176 h -0.002 l -0.0312,-0.004 -0.0312,-0.006 -0.0332,-0.0176 -0.0391,-0.0234 h -0.002 l -0.0391,-0.0312 -0.041,-0.0449 -0.0215,-0.0254 h -0.002 l -0.0195,-0.0176 -0.0293,-0.0586 -0.0293,-0.0527 -0.0176,-0.0605 -0.0586,-0.25391 -0.0176,-0.0586 -0.0234,-0.0664 -0.0312,-0.0605 -0.0352,-0.0508 -0.041,-0.0566 h -0.002 l -0.0605,-0.0449 -0.0645,-0.041 -0.0859,-0.043 h -0.002 l -0.2793,-0.11328 -0.14453,-0.0566 -0.13672,-0.0508 -0.0723,-0.0156 -0.0625,-0.0137 -0.0703,-0.01 h -0.0703 l -0.0606,0.01 -0.0644,0.0195 -0.0664,0.0254 -0.0605,0.0391 -0.0293,0.0234 -0.0371,0.0156 -0.0664,0.0254 -0.0703,0.0195 -0.0742,0.0117 -0.28906,0.01 -0.0742,0.0117 -0.0684,0.0117 -0.0703,0.0215 -0.0606,0.0293 -0.0293,0.0176 -0.0312,0.0215 -0.0215,0.0293 -0.0293,0.0293 -0.0234,0.0371 -0.0215,0.0371 -0.0371,0.0898 -0.2539,0.16211 -0.0254,0.14453 -0.0625,0.0117 -0.0566,0.0176 -0.041,0.0234 -0.043,0.0254 -0.0293,0.0215 -0.0234,0.0293 -0.0234,0.0352 -0.0156,0.0371 -0.01,0.0332 -0.004,0.0352 -0.004,0.082 0.0117,0.16211 0.0137,0.0879 v 0.082 0.0742 l -0.01,0.041 v 0.002 l -0.0117,0.0332 -0.01,0.0352 -0.0195,0.0293 -0.0254,0.0293 -0.0293,0.0215 -0.043,0.0254 -0.041,0.0156 -0.0508,0.0176 -0.01,0.002 -0.0527,0.01 -0.25586,0.0488 -0.0488,0.01 -0.125,0.0293 -0.10937,0.0371 -0.0996,0.0332 -0.0859,0.0352 -0.0664,0.0312 -0.0312,0.0234 -0.0234,0.0156 -0.0176,0.0156 -0.0117,0.006 -0.0254,0.002 -0.006,-0.004 -0.002,-0.008 -0.006,-0.0137 0.004,-0.0117 -0.002,-0.0371 0.01,-0.041 0.0176,-0.10156 0.008,-0.0566 0.002,-0.0547 0.002,-0.0547 -0.002,-0.0195 -0.008,-0.0273 -0.0176,-0.0391 -0.0137,-0.0117 -0.008,-0.01 0.1289,0.0117 h 0.002 0.0117 l 0.1836,0.0137 0.20898,0.004 0.18164,-0.0137 0.0742,-0.0137 h 0.002 l 0.0605,-0.0195 h 0.002 l 0.0156,-0.006 0.0195,-0.0156 0.004,-0.008 0.006,-0.006 h 0.002 l 0.006,-0.008 -0.002,-0.008 0.0566,-0.57421 0.004,-0.18555 v -0.0898 l -0.008,-0.0859 -0.0117,-0.0742 -0.0176,-0.0742 -0.008,-0.0254 -0.0176,-0.0332 -0.0137,-0.0195 -0.0137,-0.0274 -0.0137,-0.0117 h -0.002 l -0.0137,-0.0117 -0.0391,-0.0234 -0.0469,-0.0312 -0.0586,-0.0234 -0.13476,-0.0566 h -0.002 l -0.15039,-0.0488 -0.14648,-0.0371 -0.13477,-0.0312 -0.0664,-0.008 -0.0508,-0.004 -0.0703,0.006 -0.0293,0.0176 h -0.01 l -0.01,0.0606 -0.0195,0.0781 -0.0254,0.0781 -0.0391,0.0684 v 0.002 l -0.0137,0.0234 -0.0254,0.0391 -0.0449,0.0664 -0.0469,0.0508 -0.0469,0.0527 -0.0527,0.0508 -0.0469,0.0391 -0.0488,0.0273 -0.0488,0.0332 -0.041,0.0234 -0.0371,0.0117 -0.0195,0.006 -0.043,0.004 v 0.0137 l -0.0117,0.0137 -0.006,0.002 -0.0117,0.006 -0.043,0.0234 -0.0625,0.0195 -0.14844,0.0371 -0.17383,0.0351 -0.17383,0.041 -0.14843,0.0391 -0.0625,0.0254 -0.0234,0.008 -0.0195,0.008 -0.0117,0.0156 h -0.006 v 0.002 l -0.0117,0.0137 0.006,0.0664 -0.01,0.125 -0.0176,0.17188 -0.004,0.18945 -0.004,0.19922 0.0137,0.0918 0.0137,0.0879 0.0215,0.0801 0.006,0.0332 0.0176,0.0352 0.0215,0.0234 0.0137,0.0273 0.0254,0.0176 0.0215,0.0195 0.0137,0.0801 0.006,0.082 v 0.082 l -0.0137,0.14843 -0.0117,0.0762 -0.0195,0.0703 -0.0195,0.0703 -0.0273,0.0625 -0.0332,0.0645 -0.0273,0.0645 -0.0371,0.0625 -0.0801,0.12109 v 0.002 l -0.0937,0.11523 -0.0156,0.0234 -0.01,0.0195 -0.006,0.0137 0.002,0.0332 0.008,0.008 v 0.006 l 0.0195,0.006 0.0137,0.0137 0.0527,0.01 0.0625,0.008 h 0.15821 l 0.38281,-0.0293 0.19141,-0.008 0.15039,0.002 0.0254,-0.002 0.0254,-0.01 0.0234,-0.002 0.0254,-0.0156 0.0488,-0.0234 0.0488,-0.0312 0.20118,-0.1582 0.0527,-0.0371 0.0488,-0.0312 0.0488,-0.0254 0.0254,-0.002 0.0254,-0.008 0.0234,-0.002 0.0274,0.004 0.0176,0.006 0.0273,0.0117 0.0215,0.0117 0.0254,0.0176 0.0195,0.0195 v 0.002 l 0.0215,0.0293 0.0215,0.0332 0.0176,0.0391 0.0312,0.0937 0.0215,0.10742 0.0176,0.12891 0.0312,0.58008 v 0.002 l 0.0234,0.29687 0.0176,0.13672 0.0312,0.125 0.0352,0.11328 0.0215,0.0527 0.0234,0.0449 v 0.002 l 0.0273,0.0371 v 0.002 l 0.0293,0.0312 0.0391,0.0312 0.0352,0.0234 0.0117,-0.006 0.0117,-0.002 0.006,0.004 v 0.002 l 0.0117,-0.002 0.0274,0.0117 0.0273,0.0195 0.0332,0.0234 0.0293,0.0254 0.0664,0.0644 0.0625,0.0547 0.0273,0.0332 0.0332,0.0156 0.0254,0.0195 0.0195,0.006 0.0273,0.01 0.0312,-0.002 0.20508,-0.375 -0.004,-0.0352 0.13086,-0.01 0.0176,-0.0352 0.0176,-0.0215 0.0156,-0.0293 0.0293,-0.0293 0.0527,-0.043 h 0.002 l 0.0703,-0.0469 0.0742,-0.041 0.16015,-0.0547 0.15626,-0.0117 0.0391,0.004 0.0312,0.0117 h 0.002 l 0.0312,0.006 0.0527,0.0352 0.0215,0.0176 0.0293,0.0527 0.01,0.0332 0.008,0.041 -0.002,0.041 -0.01,0.041 v 0.002 l -0.008,0.0527 -0.0215,0.0566 -0.0527,0.14648 -0.0312,0.14649 -0.0137,0.0703 -0.0137,0.0742 v 0.0684 0.0742 l 0.004,0.0684 0.0137,0.0742 0.0234,0.0645 v 0.002 l 0.0254,0.0723 0.0371,0.0723 0.043,0.0645 0.0566,0.0703 0.0625,0.0703 0.0332,0.0234 0.043,0.0664 0.0156,0.0312 0.0156,0.0332 0.01,0.0351 0.004,0.0664 -0.008,0.0684 -0.0195,0.0703 -0.0254,0.0703 -0.0332,0.0684 -0.082,0.15039 -0.0977,0.13672 -0.0879,0.14258 v 0.002 l -0.0391,0.0703 -0.0391,0.0703 -0.0332,0.0586 -0.0234,0.0215 -0.0488,0.0312 -0.0254,0.008 -0.0293,0.01 -0.0254,0.01 -0.0625,-0.004 h -0.0703 l -0.14258,-0.0293 -0.1543,-0.043 -0.0723,-0.0156 -0.0742,-0.006 -0.0703,-0.01 -0.10742,0.01 -0.0312,0.01 -0.0293,0.0137 -0.0312,0.0156 -0.0234,0.0156 -0.0312,0.0234 -0.0176,0.0215 -0.0215,0.0215 -0.0332,0.0586 -0.0274,0.0625 -0.0254,0.0703 -0.0137,0.0762 -0.0254,0.1504 v 0.002 l -0.0312,0.33594 -0.0176,0.15625 v 0.002 l -0.0215,0.0742 v 0.002 l -0.0254,0.0684 v 0.002 l -0.0156,0.0352 -0.0215,0.041 v 0.002 l -0.0234,0.0273 -0.0215,0.0352 -0.0547,0.0527 -0.0586,0.0449 -0.0664,0.0332 -0.0723,0.0332 -0.14844,0.0527 -0.15429,0.0508 -0.0742,0.0351 -0.0664,0.0371 -0.0644,0.0469 -0.0684,0.0527 -0.0488,0.0645 v 0.002 l -0.0508,0.0781 -0.0664,0.13477 -0.0645,0.13281 v 0.002 l -0.0586,0.14649 -0.0508,0.14648 v 0.002 l -0.0449,0.14453 -0.0332,0.15234 v 0.002 l -0.0312,0.15625 v 0.002 l -0.0176,0.10937 h -0.002 v 0.004 l -0.01,0.0449 -0.006,0.0547 v 0.002 l -0.008,0.0527 -0.0156,0.0488 -0.0215,0.043 -0.0234,0.0352 -0.0215,0.0293 -0.0234,0.0215 -0.0312,0.0156 -0.0312,0.0176 -0.0312,0.01 -0.0293,0.008 -0.0391,-0.004 -0.0371,0.004 -0.0391,-0.0117 -0.0781,-0.0215 -0.0781,-0.0352 -0.0801,-0.0469 -0.0723,-0.0488 -0.0762,-0.0625 -0.0742,-0.0644 -0.0625,-0.0606 -0.0527,-0.0606 -0.002,-0.004 -0.0488,-0.0586 -0.0488,-0.0644 -0.0566,-0.0566 -0.0527,-0.0566 -0.0625,-0.0488 -0.0664,-0.043 -0.0742,-0.041 -0.14453,-0.0703 -0.14844,-0.0586 -0.15624,-0.0469 -0.30274,-0.0801 -0.0664,-0.0215 -0.0586,-0.0234 -0.125,-0.0508 -0.125,-0.0586 v 0.004 l 0.01,0.0293 v 0.004 l 0.0215,0.041 0.002,0.006 0.0293,0.0645 0.008,0.0176 0.002,0.002 v 0.002 l 0.0195,0.0352 0.002,0.004 0.01,0.0274 v 0.004 l 0.008,0.0215 0.006,0.0684 v 0.002 l -0.006,0.0195 -0.01,0.0215 -0.0117,0.0215 -0.0293,0.0488 -0.0391,0.0566 -0.0566,0.0684 -0.0762,0.0742 -0.19336,0.18359 -0.0547,0.0449 -0.0488,0.0312 -0.041,0.0176 -0.0312,0.0156 -0.0625,0.006 -0.0254,-0.004 -0.0273,-0.006 -0.0859,-0.041 -0.0176,-0.004 -0.0137,-0.006 h -0.0176 l -0.0137,0.008 -0.0117,0.002 -0.0117,0.006 -0.0254,0.0156 -0.0176,0.0156 -0.041,0.0371 -0.0352,0.043 -0.0273,0.043 -0.11524,0.21484 -0.0352,0.0488 -0.0332,0.0449 -0.043,0.043 -0.0391,0.0371 -0.0254,0.0156 -0.0254,0.008 -0.0293,0.01 -0.0625,0.0176 -0.0313,0.002 h -0.0703 l -0.18554,-0.0273 -0.1543,-0.043 -0.0644,-0.0215 -0.0684,-0.0293 -0.0566,-0.0273 -0.002,-0.002 -0.0508,-0.0332 -0.002,-0.002 -0.0527,-0.043 -0.002,-0.002 -0.0527,-0.043 -0.10352,-0.0957 -0.20898,-0.22852 -0.01,-0.01 -0.002,-0.002 -0.0352,-0.0312 -0.0254,-0.0215 -0.002,-0.002 -0.0664,-0.0508 -0.0664,-0.0469 -0.002,-0.002 -0.0254,-0.0234 v -0.002 l -0.0273,-0.0293 -0.002,-0.002 -0.006,-0.01 -0.0215,-0.0274 v -0.002 l -0.0137,-0.0371 -0.002,-0.002 -0.0156,-0.0449 -0.008,-0.0371 -0.004,-0.0156 v -0.004 l -0.006,-0.0566 v -0.004 l 0.002,-0.0723 0.0117,-0.082 v -0.004 l 0.0254,-0.0859 0.002,-0.0352 v -0.002 l 0.006,-0.0254 -0.004,-0.0547 -0.002,-0.002 -0.006,-0.0176 -0.002,-0.008 v -0.002 l -0.0137,-0.0234 -0.002,-0.002 -0.004,-0.0117 -0.002,-0.006 v -0.002 l -0.0137,-0.0176 -0.002,-0.002 -0.0801,-0.0742 -0.0547,-0.0332 -0.0508,-0.0273 -0.002,-0.002 -0.11133,-0.0586 -0.0606,-0.0352 -0.0527,-0.0312 -0.0547,-0.043 -0.0469,-0.043 -0.0195,-0.0234 -0.002,-0.004 -0.0137,-0.0215 -0.002,-0.004 -0.0195,-0.0234 v -0.002 l -0.002,-0.008 -0.006,-0.0234 -0.002,-0.002 -0.0371,-0.0957 -0.002,-0.004 -0.01,-0.0488 -0.008,-0.0352 v -0.004 l -0.004,-0.0234 -0.008,-0.0527 v -0.0762 l 0.0137,-0.0625 0.0137,-0.0547 v -0.002 l 0.0156,-0.0488 v -0.002 l 0.0215,-0.0449 0.0449,-0.0723 v -0.002 l 0.0176,-0.0332 0.01,-0.0273 -0.004,-0.0391 v -0.002 -0.002 l -0.0137,-0.0254 -0.002,-0.002 -0.0273,-0.0254 -0.0195,-0.0117 -0.0391,-0.0176 -0.0527,-0.0156 -0.12109,-0.0254 -0.33984,-0.041 -0.84961,-0.043 -0.0332,-0.002 c -0.2328,0.25711 -0.56286,0.65588 -0.76562,0.61719 l -0.57813,0.25976 c -0.13444,0.0115 -0.38747,-0.0273 -0.47851,0.0879 -0.1141,0.14487 0.0374,0.36011 0,0.52344 -0.0161,0.0704 -0.0505,0.13278 -0.0977,0.18946 -0.14143,0.17003 -0.38666,0.29148 -0.51953,0.44726 -0.16047,0.18881 -0.3625,0.52234 -0.42578,0.83008 -0.0156,0.076 -0.0237,0.1505 -0.0195,0.2207 3e-5,6.2e-4 -4e-5,0.001 0,0.002 0.004,0.0694 0.0198,0.1347 0.0488,0.19335 0.0272,0.0563 0.0686,0.10435 0.12304,0.14649 0.004,0.003 0.006,0.007 0.01,0.01 8.1e-4,5.9e-4 0.001,0.001 0.002,0.002 0.0605,0.0428 0.13783,0.0761 0.23438,0.0977 2.8e-4,7e-5 -2.9e-4,0.002 0,0.002 0.0252,0.12175 0.008,0.26042 -0.006,0.39453 -7e-5,6.6e-4 7e-5,0.001 0,0.002 -0.0135,0.13405 -0.0229,0.26238 0.0215,0.36328 5.8e-4,-1.1e-4 0.001,1.1e-4 0.002,0 4.7e-4,0.001 -4.9e-4,0.003 0,0.004 0.0434,-0.008 0.0945,-0.009 0.14648,0 0.0511,0.009 0.10281,0.0245 0.14648,0.0508 7.1e-4,4.2e-4 0.001,0.002 0.002,0.002 0.0433,0.0265 0.0812,0.061 0.10156,0.10547 2e-4,4.3e-4 -2e-4,0.002 0,0.002 0.0201,0.045 0.0246,0.0982 0.006,0.1621 -0.0914,0.0259 -0.14304,0.0883 -0.23438,0.11524 -2e-5,5.1e-4 3e-5,0.001 0,0.002 -0.003,0.0708 0.01,0.16326 0.0332,0.26367 0.008,0.0333 0.023,0.0688 0.0332,0.10352 0.0211,0.0714 0.0407,0.14234 0.0703,0.21289 0.0433,0.10299 0.0945,0.20059 0.15039,0.2793 0.0566,0.08 0.1171,0.14243 0.17969,0.16992 0.18499,0.0817 0.34462,-0.0667 0.52735,0.11133 7.8e-4,7.6e-4 0.001,0.001 0.002,0.002 0.0674,0.0676 0.1205,0.17563 0.16211,0.28711 0.0419,0.11238 0.0718,0.22833 0.0918,0.30859 -0.37047,0.0232 -0.83757,0.32277 -0.91015,0.75196 -2.2e-4,0.001 2.1e-4,0.003 0,0.004 -0.01,0.0602 -0.0129,0.12276 -0.006,0.1875 1.4e-4,0.001 -1.5e-4,0.003 0,0.004 0.0161,0.13027 0.0796,0.20175 0.0957,0.3457 9e-5,7.6e-4 -8e-5,0.001 0,0.002 0.0177,0.17169 -0.0755,0.24429 -0.0898,0.3789 -0.009,0.0849 5.3e-4,0.15458 0.0195,0.2168 0.007,0.0226 0.0182,0.0416 0.0273,0.0625 0.0402,0.0925 0.0956,0.17346 0.14063,0.26953 0.008,0.0174 0.0105,0.0418 0.0176,0.0605 0.0168,0.0449 0.0345,0.0888 0.041,0.14453 0.032,0.26789 -0.0778,0.46273 -0.1582,0.71093 -0.11211,0.34215 -0.19749,0.31991 -0.55664,0.34571 -0.30506,0.0227 -0.41995,0.0469 -0.64649,0.24805 -0.18998,0.16874 -0.41915,0.14812 -0.59179,0.32812 -0.0656,0.0681 -0.0672,0.1873 -0.14063,0.26758 -0.077,0.0854 -0.19756,0.11275 -0.28515,0.19922 -3.6e-4,3.4e-4 3.5e-4,0.002 0,0.002 -0.0854,0.0829 -0.15868,0.17461 -0.23438,0.26367 -0.076,0.0894 -0.15661,0.17566 -0.25586,0.24414 l -0.002,-0.002 v -0.004 l -0.01,-0.0137 -0.002,-0.002 -0.002,-0.002 -0.0195,-0.0117 -0.0527,-0.0215 -0.002,-0.002 -0.0293,-0.01 -0.002,-0.002 -0.0645,-0.0156 h -0.0742 l -0.0781,-0.002 -0.082,0.006 -0.16211,0.0273 -0.0742,0.0195 -0.0684,0.0195 -0.0527,0.0254 -0.12305,0.041 -0.0703,0.0195 -0.0742,0.0195 -0.0684,0.0137 -0.0742,0.006 -0.0762,-0.002 -0.0703,-0.008 -0.0645,-0.0156 -0.0664,-0.0215 -0.0312,-0.0176 -0.0273,-0.0176 -0.002,-0.002 -0.0254,-0.0215 -0.002,-0.002 -0.0234,-0.0234 v -0.002 l -0.0293,-0.0273 -0.0215,-0.0273 v -0.002 l -0.0215,-0.0391 v -0.002 l -0.0156,-0.0371 v -0.002 l -0.0156,-0.0371 v -0.002 l -0.002,-0.01 -0.008,-0.0352 -0.0215,-0.0996 -0.006,-0.62304 v -0.004 -0.002 l -0.002,-0.0117 -0.01,-0.0606 -0.0137,-0.0508 -0.004,-0.0156 v -0.002 l -0.0156,-0.0332 -0.0117,-0.0195 -0.004,-0.0117 -0.002,-0.002 -0.004,-0.0117 -0.01,-0.0215 -0.0215,-0.0234 v -0.002 l -0.0274,-0.0254 -0.0273,-0.0234 -0.0273,-0.0195 -0.0645,-0.0351 -0.0449,-0.0117 -0.0918,-0.0117 -0.0762,-0.0137 -0.0762,-0.0215 -0.0664,-0.0332 -0.002,-0.002 -0.0664,-0.0449 -0.0586,-0.041 -0.0547,-0.0508 -0.11523,-0.10352 -0.002,-0.002 -0.10742,-0.0996 -0.002,-0.002 -0.0586,-0.043 -0.0606,-0.0352 -0.0664,-0.0312 -0.0762,-0.0117 -0.0312,-0.004 -0.0449,-0.004 -0.082,0.0117 -0.11133,0.01 -0.0332,-0.01 -0.002,-0.002 -0.0312,-0.004 -0.0195,-0.0117 -0.0273,-0.0195 -0.0215,-0.0195 v -0.002 l -0.0137,-0.0176 -0.0137,-0.0215 v -0.002 l -0.0137,-0.0254 -0.002,-0.002 -0.006,-0.0176 -0.002,-0.008 v -0.002 l -0.004,-0.0156 -0.0117,-0.043 -0.01,-0.0449 -0.004,-0.0195 v -0.004 l -0.0117,-0.14649 v -0.002 l 0.002,-0.1543 v -0.002 l -0.008,-0.14648 v -0.002 l -0.002,-0.01 -0.008,-0.0625 -0.0117,-0.0606 -0.002,-0.002 -0.0117,-0.0332 -0.0195,-0.0469 -0.0391,-0.0762 v -0.002 l -0.041,-0.0625 v -0.002 l -0.0547,-0.0684 -0.002,-0.004 -0.0625,-0.0547 -0.0586,-0.0625 -0.0332,0.0215 -0.0234,0.0156 -0.0312,0.01 -0.0254,0.002 -0.0684,0.0117 -0.0625,-0.002 -0.0703,-0.0137 -0.0781,-0.0156 -0.0703,-0.0234 -0.0742,-0.0332 -0.0723,-0.0351 -0.0586,-0.0352 -0.0606,-0.0449 -0.0547,-0.041 -0.0586,-0.0293 -0.002,-0.002 -0.0566,-0.0234 -0.0723,-0.0195 -0.0645,-0.0156 -0.0703,-0.01 h -0.0762 l -0.0684,0.006 -0.0684,0.0117 -0.13672,0.0371 -0.0684,0.0273 -0.0586,0.0371 -0.0547,0.0391 -0.0469,0.043 v 0.002 l -0.041,0.0508 -0.0918,0.10938 -0.0781,0.0664 -0.0274,0.0293 -0.0312,0.0156 -0.0312,0.01 -0.0254,0.002 -0.0195,-0.006 -0.0391,-0.0215 -0.0137,-0.0195 v -0.002 l -0.0156,-0.0254 -0.0137,-0.0254 -0.0234,-0.0586 -0.0606,-0.22656 -0.0215,-0.0801 v -0.002 l -0.006,-0.0176 -0.0117,-0.0469 -0.002,-0.002 -0.0215,-0.0586 -0.002,-0.002 -0.002,-0.004 -0.0117,-0.0137 v -0.002 l -0.0195,-0.0176 -0.0156,-0.0176 v -0.002 l -0.0176,-0.006 -0.0664,-0.0234 -0.0762,-0.006 -0.0703,-0.0156 h -0.082 l -0.0762,-0.002 h -0.0747 l -0.082,0.0137 -0.0742,0.0195 -0.0742,0.0195 -0.0664,0.0312 -0.0684,0.0391 -0.0234,0.0234 -0.0274,0.0215 -0.0254,0.0293 -0.0156,0.0293 -0.0234,0.0293 -0.0156,0.0352 -0.01,0.0352 -0.01,0.0332 -0.002,0.043 -0.006,0.0469 -0.004,0.0898 -0.0176,0.082 -0.0195,0.0703 -0.0332,0.0684 v 0.002 l -0.0332,0.0566 -0.0391,0.0527 -0.0488,0.043 -0.0469,0.0371 -0.42774,0.27148 -0.30859,0.34375 0.004,0.0352 -0.0762,0.29883 -0.041,0.0644 -0.0254,0.0703 -0.0195,0.0684 -0.006,0.0762 -0.002,0.0684 0.0117,0.14062 0.0176,0.0723 0.0742,0.29492 0.0293,0.14062 0.0137,0.0742 0.006,0.0762 -0.004,0.0391 -0.004,0.043 -0.01,0.0332 v 0.002 l -0.008,0.0391 v 0.002 l -0.0273,0.0684 -0.0371,0.0644 -0.0469,0.0664 -0.0508,0.0645 -0.11915,0.11719 -0.10351,0.12304 v 0.002 l -0.0508,0.0644 -0.0391,0.0703 v 0.002 l -0.0332,0.0684 -0.01,0.0371 -0.008,0.041 -0.01,0.041 0.002,0.041 -0.002,0.0469 v 0.002 l 0.002,0.008 0.008,0.0371 0.0137,0.0664 0.0176,0.0684 0.043,0.13867 0.10938,0.27148 0.0488,0.13867 0.0488,0.14649 0.0195,0.0664 0.0117,0.0742 0.0117,0.1543 v 0.002 l -0.33789,0.35157 -0.36523,0.0273 -0.0117,0.0156 -0.0117,0.008 -0.0117,0.006 -0.0371,0.0234 -0.0527,0.0332 -0.22071,0.10351 -0.39648,0.18946 -0.0391,0.0625 v 0.002 l -0.0273,0.0606 v 0.002 l -0.0195,0.0625 -0.0137,0.0703 -0.002,0.13477 0.006,0.14257 v 0.002 l 0.0351,0.27539 -0.002,0.13672 -0.008,0.0664 v 0.002 l -0.006,0.0684 -0.0195,0.084 -0.002,0.0391 0.006,0.082 0.01,0.0332 v 0.002 l 0.008,0.0371 v 0.002 l 0.01,0.0332 0.0351,0.0566 0.0371,0.0664 0.043,0.0586 0.0488,0.0508 0.10351,0.11328 v 0.002 l 0.10352,0.11133 v 0.002 l 0.041,0.0586 0.0391,0.0644 0.0293,0.0664 0.0254,0.0801 0.008,0.10156 v 0.0469 l -0.004,0.041 -0.01,0.0351 -0.01,0.0352 -0.0234,0.0352 -0.0156,0.0273 v 0.002 l -0.0234,0.0273 v 0.002 l -0.0234,0.0215 -0.0586,0.0449 -0.0684,0.0469 -0.0664,0.0312 -0.13867,0.0801 -0.0664,0.0391 -0.0586,0.0449 v 0.002 l -0.0234,0.0273 v 0.002 l -0.0293,0.0274 -0.0234,0.0293 -0.0176,0.0352 v 0.002 l -0.0156,0.0332 -0.0156,0.043 -0.008,0.041 -0.004,0.0469 -0.008,0.0625 0.006,0.0664 0.0117,0.0684 v 0.002 l 0.0117,0.0664 0.0293,0.13281 0.043,0.13282 v 0.002 l 0.0137,0.041 0.0273,0.0879 0.041,0.13476 0.008,0.0371 0.12304,0.002 0.0293,-0.0234 0.0312,-0.0215 0.0312,-0.0176 0.0352,-0.0156 0.0312,-0.01 h 0.002 l 0.0293,-0.008 0.0625,-0.004 0.12695,0.0156 0.125,0.0312 0.12891,0.0371 0.0644,0.01 0.0625,0.008 0.0879,-0.006 0.0625,-0.0176 0.0293,-0.0176 0.0312,-0.0156 0.0293,-0.0234 0.0234,-0.0215 v -0.002 l 0.0254,-0.0273 0.0195,-0.0293 v -0.002 l 0.0176,-0.0332 v -0.002 l 0.0274,-0.0742 v -0.002 l 0.0176,-0.082 0.0488,-0.33789 0.0117,-0.0801 0.0273,-0.0644 v -0.002 l 0.0156,-0.0332 v -0.002 l 0.0117,-0.0195 v -0.002 l 0.0234,-0.0215 0.0234,-0.0195 0.0254,-0.0176 0.0234,-0.008 0.0391,-0.01 0.0312,0.004 0.043,0.004 0.0449,0.0117 0.10352,0.0391 0.0723,0.0293 0.0723,0.0137 0.0703,0.006 0.0625,-0.004 0.0664,-0.0137 h 0.002 l 0.0547,-0.0234 0.0625,-0.0176 0.0606,-0.0312 0.22461,-0.12109 0.0605,-0.0254 0.0547,-0.0176 0.0644,-0.0117 0.13672,-0.01 0.0312,-0.01 0.0371,-0.0156 0.0723,-0.0351 0.0723,-0.0449 0.27149,-0.1914 0.0664,-0.0332 0.0293,-0.01 0.0312,-0.01 0.0644,-0.004 0.0312,0.004 0.0332,0.0117 0.0254,0.0176 0.0332,0.0176 0.0293,0.0312 v 0.002 l 0.0273,0.0371 v 0.002 l 0.0274,0.0371 0.0234,0.0527 v 0.002 l 0.0566,0.13086 0.0234,0.0644 v 0.002 l 0.0117,0.0645 v 0.002 0.01 l 0.01,0.12695 -0.002,0.13281 -0.0156,0.13282 -0.0195,0.27343 -0.01,0.0684 v 0.0684 l 0.006,0.0684 0.0234,0.13281 v 0.002 l 0.006,0.0742 v 0.15625 l -0.008,0.15625 0.008,0.14257 v 0.006 0.002 l 0.0117,0.14843 0.0176,0.0742 0.0234,0.0645 0.0312,0.0586 v 0.002 l 0.0156,0.0234 v 0.002 l 0.0195,0.0254 0.0273,0.0254 v 0.002 l 0.0273,0.0215 0.0273,0.0254 0.0332,0.0195 0.0586,0.0274 0.0664,0.0234 0.0645,0.0176 0.0645,0.008 0.125,-0.002 0.12695,-0.004 0.13867,0.002 0.0703,0.008 0.0703,0.0156 0.0781,0.0215 0.0723,0.0274 0.0801,0.043 0.0801,0.0527 0.0312,0.0195 0.0215,0.0117 0.0117,0.006 h 0.002 0.004 l 0.0195,0.006 0.0332,0.004 0.0254,0.004 0.0312,-0.008 0.0234,-0.01 0.0312,-0.01 0.0254,-0.0137 0.0293,-0.0254 0.0527,-0.043 v -0.002 l 0.0996,-0.11523 v -0.002 l 0.11133,-0.12304 0.0566,-0.0586 0.0644,-0.0586 0.0586,-0.0449 0.0742,-0.041 0.0371,-0.0176 0.0352,-0.008 0.0449,-0.01 0.13282,-0.0117 0.0371,-0.008 0.041,-0.0176 0.0391,-0.0156 0.0293,-0.0176 0.0664,-0.043 v -0.002 l 0.0527,-0.0586 v -0.002 l 0.0449,-0.0625 v -0.002 l 0.0449,-0.0703 v -0.002 l 0.0371,-0.0684 v -0.002 l 0.14649,-0.33007 0.043,-0.0781 v -0.002 l 0.0391,-0.0762 v -0.002 l 0.0508,-0.0684 v -0.002 l 0.0508,-0.0644 0.0547,-0.0508 0.0586,-0.0488 0.0723,-0.043 0.0781,-0.0488 0.0801,-0.0332 0.0859,-0.0332 0.0879,-0.0215 0.082,-0.0117 0.0742,-0.006 0.0762,0.008 0.0332,0.004 0.0234,0.01 0.002,0.002 0.0254,0.0117 0.0273,0.0176 0.0195,0.0176 v 0.002 l 0.0156,0.0254 v 0.002 l 0.0156,0.0293 v 0.002 l 0.008,0.0254 0.006,0.0801 v 0.002 l -0.01,0.0469 v 0.002 l -0.01,0.0469 -0.0176,0.0762 v 0.002 l -0.008,0.0644 -0.006,0.0742 v 0.004 0.0664 0.004 l -0.004,0.13281 0.0117,0.125 v 0.01 0.002 l 0.004,0.13477 v 0.002 l -0.002,0.12696 v 0.002 0.0664 0.002 l -0.0137,0.0586 -0.0137,0.0703 -0.0273,0.0645 -0.0586,0.14648 -0.0273,0.11914 -0.01,0.041 -0.002,0.041 0.004,0.0606 0.002,0.002 0.006,0.0117 0.0215,0.0195 v 0.002 l 0.006,0.008 0.01,0.006 0.0254,0.002 h 0.0195 l 0.0254,-0.008 0.0293,-0.008 0.0312,-0.01 0.0606,-0.0391 0.0644,-0.0449 0.0644,-0.0605 0.0606,-0.0586 0.0566,-0.0723 0.0508,-0.0664 v -0.002 l 0.0352,-0.0605 0.0137,-0.0371 0.0117,-0.0273 0.01,-0.0352 0.0176,-0.0293 0.0156,-0.0273 0.0176,-0.0215 0.0156,-0.0293 0.0254,-0.0156 0.0234,-0.0215 0.0312,-0.0156 0.0527,-0.0254 0.0645,-0.0273 0.0605,-0.01 0.0742,-0.0137 0.43946,-0.0332 0.0703,-0.0137 0.0625,-0.01 0.24414,-0.27149 0.0801,-0.25781 0.0195,-0.0703 v -0.002 l 0.0391,-0.0684 0.0391,-0.0645 0.0527,-0.0664 0.0508,-0.0644 0.0644,-0.0547 0.0606,-0.043 0.0742,-0.0332 0.0664,-0.0254 0.0391,-0.01 0.0351,-0.002 0.0332,0.004 0.0371,0.002 0.0332,0.004 0.0391,0.0195 0.0312,0.0156 0.002,0.002 0.0664,0.0488 0.0254,0.0273 0.002,0.002 0.002,0.002 0.0254,0.0371 0.002,0.002 0.0273,0.043 0.002,0.004 0.0508,0.10743 0.002,0.002 0.0156,0.0449 v 0.002 l 0.006,0.0156 0.01,0.0273 0.01,0.12305 -0.002,0.041 -0.0137,0.0762 -0.0273,0.0781 -0.0293,0.0684 v 0.002 l -0.041,0.0625 -0.0449,0.0664 -0.0859,0.12695 -0.0371,0.0664 -0.0332,0.0644 -0.0273,0.0703 -0.008,0.0273 v 0.002 l -0.004,0.0293 -0.008,0.0723 0.004,0.0371 v 0.002 0.002 l 0.002,0.008 0.006,0.0234 0.002,0.002 0.008,0.0234 0.0137,0.0352 0.002,0.002 0.0195,0.0234 0.002,0.002 0.0176,0.0176 0.002,0.002 0.0293,0.0254 0.0293,0.0137 0.002,0.002 0.0664,0.041 0.002,0.002 0.3125,0.14453 0.002,0.002 0.0781,0.0352 0.0644,0.0332 0.002,0.002 0.0254,0.0215 0.002,0.002 0.0273,0.0234 0.002,0.002 0.0156,0.0176 0.002,0.002 0.0195,0.0234 0.002,0.004 0.004,0.006 0.01,0.0176 0.008,0.0332 0.002,0.0254 -0.002,0.0352 v 0.002 l -0.0117,0.0332 -0.0156,0.0352 -0.0215,0.043 -0.0293,0.041 -0.0449,0.0664 -0.0449,0.0723 v 0.002 l -0.0391,0.0684 -0.0312,0.0703 v 0.002 l -0.0254,0.0703 v 0.002 l -0.0273,0.0684 -0.0391,0.14453 -0.0586,0.29101 -0.0273,0.14453 -0.0391,0.14649 -0.0156,0.041 -0.0156,0.043 -0.0449,0.0566 -0.0293,0.0312 -0.0293,0.0215 -0.0312,0.0156 -0.0391,0.01 -0.0723,0.0254 -0.0742,0.0137 -0.16406,0.0195 -0.082,0.006 -0.0742,0.0195 -0.0664,0.0254 -0.0293,0.0156 -0.0312,0.0156 -0.0234,0.0234 -0.0215,0.0293 v 0.002 l -0.0254,0.0254 -0.0156,0.0449 -0.0156,0.0391 v 0.004 l -0.01,0.0391 v 0.0547 0.002 l -0.002,0.0586 0.006,0.28906 v 0.004 0.002 l 0.002,0.0176 0.0156,0.12891 0.0234,0.14843 0.002,0.002 0.0234,0.0644 v 0.002 l 0.008,0.0234 0.0156,0.0469 0.002,0.002 0.0352,0.0586 0.043,0.0625 0.11718,0.10742 0.0723,0.043 0.084,0.0391 0.002,0.002 0.0254,0.01 0.002,0.002 0.0234,0.0176 0.002,0.002 0.0195,0.0156 0.002,0.002 0.0254,0.0156 0.002,0.002 0.041,0.0586 v 0.002 l 0.0234,0.0352 0.0117,0.0195 0.002,0.002 0.0352,0.0625 0.0254,0.0801 0.0176,0.0742 0.0117,0.0801 v 0.0742 l 0.004,0.0352 -0.01,0.041 -0.008,0.0351 -0.0117,0.0352 -0.0156,0.0273 -0.0176,0.0352 -0.0215,0.0215 -0.0234,0.0312 -0.0312,0.0234 -0.0293,0.0215 -0.0371,0.0156 -0.0352,0.0176 -0.0449,0.0117 -0.0488,0.004 -0.61719,-0.0156 -0.0742,0.008 -0.15039,0.0254 -0.0586,0.0234 -0.0684,0.0332 -0.0547,0.0391 -0.0527,0.0508 -0.0449,0.0645 -0.0625,0.0859 -0.0293,0.0371 -0.0293,0.0312 -0.0351,0.0215 -0.0312,0.0156 -0.0293,0.01 -0.0391,0.01 -0.0312,0.01 -0.0293,0.002 -0.0644,-0.002 -0.0723,-0.0156 -0.0625,-0.0156 -0.1289,-0.0234 -0.0625,-0.002 -0.0332,-0.006 -0.0312,0.01 -0.0312,0.002 -0.0605,0.0332 -0.0293,0.0234 -0.0312,0.0195 -0.0293,0.0312 -0.0273,0.043 -0.0293,0.043 -0.0254,0.0508 -0.0234,0.0488 -0.0156,0.043 -0.008,0.0469 -0.002,0.041 -0.006,0.0332 0.004,0.043 0.002,0.004 0.008,0.0273 0.002,0.002 v 0.004 l 0.006,0.0137 0.008,0.0215 0.002,0.004 0.0137,0.0332 0.0371,0.0605 0.002,0.004 0.0449,0.0547 0.002,0.004 0.0547,0.0527 0.002,0.004 0.1211,0.11914 0.0644,0.0566 0.10742,0.125 0.002,0.004 0.0352,0.0606 0.002,0.004 0.0215,0.0332 0.002,0.006 0.006,0.0351 0.002,0.004 0.0137,0.0352 0.01,0.10937 v 0.0684 l -0.008,0.14453 -0.0215,0.29883 v 0.14453 0.0664 l 0.002,0.006 0.01,0.0625 0.0117,0.0664 0.0234,0.0664 0.002,0.006 0.0293,0.0547 0.002,0.004 0.0332,0.0527 0.002,0.004 0.0195,0.0293 0.002,0.004 0.0195,0.0293 0.002,0.004 0.0176,0.0762 0.002,0.004 0.008,0.0293 0.002,0.041 -0.006,0.082 -0.0117,0.082 -0.0137,0.0762 -0.0332,0.14454 -0.0137,0.0703 0.002,0.0254 -0.004,0.0273 0.002,0.006 0.006,0.0234 0.002,0.004 0.006,0.0137 0.002,0.004 0.008,0.0156 0.002,0.004 0.0137,0.0156 0.0195,0.01 0.0254,0.0137 0.0332,0.004 0.0391,0.004 0.0918,-0.0137 0.12695,-0.0312 0.24219,-0.0391 0.0879,-0.0195 0.0273,-0.0352 0.14844,0.19726 0.13086,0.0449 0.0586,0.0352 0.0527,0.0371 0.0566,0.0508 0.0488,0.0488 0.041,0.0606 0.043,0.0586 0.0352,0.0586 0.002,0.004 0.0352,0.0606 0.002,0.004 0.0293,0.0703 0.002,0.004 0.0215,0.0684 0.002,0.004 0.0488,0.14844 0.002,0.004 0.0312,0.15625 0.002,0.006 0.008,0.0547 0.002,0.004 0.0215,0.0508 0.002,0.002 v 0.002 l 0.0215,0.0391 0.002,0.006 0.0215,0.0332 0.0273,0.0312 0.0332,0.0176 0.0332,0.0176 0.0391,0.0117 0.0391,0.002 0.0371,0.006 0.0801,-0.0156 0.18164,-0.0332 0.0937,-0.0156 0.0879,-0.0117 0.043,-0.004 0.0391,0.004 0.0391,0.004 0.0391,0.0156 0.0332,0.0137 0.0312,0.0234 0.0273,0.0273 0.002,0.004 0.0254,0.0352 0.002,0.004 0.0215,0.0352 0.002,0.004 0.0215,0.0547 0.01,0.0625 0.0137,0.0742 0.006,0.0801 -0.0117,0.0762 v 0.004 l -0.0156,0.0644 -0.0234,0.0703 -0.0332,0.0703 -0.0332,0.0644 -0.0762,0.13477 -0.0801,0.1289 -0.0312,0.0703 -0.0312,0.0703 -0.0273,0.0703 v 0.004 l -0.0137,0.0723 v 0.006 l -0.006,0.0781 v 0.0781 l 0.0469,0.58985 0.0254,0.24609 0.006,0.0586 v 0.004 l 0.0234,0.13672 v 0.004 l 0.0312,0.14257 v 0.004 l 0.0723,0.26367 v 0.004 l 0.0371,0.13867 v 0.004 l 0.0352,-0.0195 0.12109,-0.0566 0.25196,-0.10742 0.0801,-0.0332 0.0879,-0.0156 0.082,0.002 0.0762,0.008 0.084,0.0195 0.0781,0.0352 0.0781,0.041 0.0742,0.0488 0.1543,0.11133 0.14258,0.125 0.28125,0.24414 0.0176,0.01 0.0274,0.0195 0.0605,0.0293 0.14844,0.0508 0.16211,0.0547 0.16406,0.0625 0.0664,0.0352 0.0586,0.0371 0.0274,0.0234 0.0215,0.0195 0.0137,0.0215 0.0156,0.0254 0.004,0.0117 0.002,0.01 0.002,0.0293 -0.002,0.0274 v 0.004 l -0.006,0.0215 -0.0156,0.0293 -0.0254,0.0352 -0.0273,0.0371 -0.0332,0.0371 -0.0703,0.0742 -0.0586,0.0781 -0.0371,0.084 v 0.004 l -0.0254,0.0723 -0.0195,0.084 v 0.004 l -0.0117,0.0801 v 0.004 l -0.006,0.16016 v 0.004 0.14453 0.004 l -0.008,0.0645 -0.0137,0.0703 -0.01,0.0332 v 0.004 l -0.01,0.0254 -0.0176,0.0273 -0.0156,0.0293 -0.0234,0.0293 -0.0254,0.0234 -0.0273,0.0215 -0.0312,0.0215 -0.11523,0.0586 -0.15235,0.0664 -0.16015,0.0723 -0.0781,0.041 -0.0684,0.0391 -0.0586,0.0449 -0.0215,0.0234 -0.0176,0.0215 -0.0176,0.0215 -0.0117,0.0273 -0.01,0.0215 v 0.004 l 0.004,0.0508 v 0.004 l 0.0137,0.0215 0.002,0.004 0.0137,0.0234 0.002,0.004 0.0195,0.0254 0.0332,0.0312 0.041,0.0234 0.0996,0.0625 0.0801,0.0391 0.0664,0.0566 0.0606,0.0508 0.0488,0.0625 0.0371,0.0586 0.0371,0.0703 0.002,0.004 0.006,0.0156 0.0176,0.0508 0.0137,0.0566 0.0215,0.0859 0.01,0.0527 0.004,0.0195 v 0.004 l 0.004,0.0312 0.0117,0.11328 0.0293,0.23047 0.01,0.0742 v 0.004 l 0.0488,0.20898 -0.0312,0.002 -0.24219,0.38086 -0.10547,0.0273 -0.043,0.0254 -0.0371,0.0176 -0.0293,0.0215 -0.0293,0.0293 -0.0176,0.0215 -0.0176,0.0293 -0.01,0.0332 -0.002,0.0293 v 0.004 l -0.004,0.0293 0.004,0.0293 v 0.004 0.004 l 0.004,0.0156 0.004,0.0137 0.002,0.004 0.006,0.0293 0.002,0.004 0.0254,0.0762 v 0.004 l 0.0371,0.0723 0.0449,0.0801 0.10156,0.16016 0.0996,0.15234 0.002,0.004 0.0859,0.15039 0.0527,0.0977 0.0566,0.0703 0.0547,0.0625 0.0547,0.043 0.0527,0.0293 0.0527,0.0254 0.0527,0.0156 0.0586,0.01 0.10742,0.004 0.0508,0.01 0.0566,0.01 0.0527,0.0156 0.0605,0.0312 0.0527,0.0351 0.0605,0.0508 0.0488,0.043 0.0606,0.043 0.14258,0.0723 0.0781,0.0195 0.0781,0.0156 0.082,0.006 0.082,0.002 0.0762,-0.0156 0.0742,-0.0176 0.0371,-0.0176 0.0293,-0.0156 0.0293,-0.0215 0.0293,-0.0234 0.0312,-0.0234 0.0215,-0.0352 0.0234,-0.0293 0.0234,-0.0352 0.0156,-0.041 v -0.004 l 0.01,-0.0469 0.008,-0.0469 v -0.004 l 0.008,-0.0449 v -0.004 l 0.002,-0.0645 -0.008,-0.0996 -0.002,-0.0156 v -0.004 l -0.0117,-0.0273 -0.002,-0.008 -0.002,-0.004 -0.0156,-0.0332 -0.0195,-0.0293 -0.002,-0.004 -0.0274,-0.0234 -0.0312,-0.0117 -0.0351,-0.0195 -0.0312,-0.002 -0.0762,-0.01 -0.0918,0.008 -0.082,0.0137 -0.17383,0.0137 -0.0781,-0.002 -0.0371,-0.002 -0.0332,-0.0117 -0.0312,-0.01 -0.0273,-0.0195 -0.0293,-0.0254 -0.002,-0.004 -0.01,-0.0273 -0.0156,-0.0293 -0.002,-0.004 -0.004,-0.0117 -0.0117,-0.0312 v -0.004 l -0.004,-0.0508 v -0.002 -0.002 l 0.002,-0.0566 0.004,-0.0352 0.004,-0.0332 v -0.004 l 0.0254,-0.0742 0.0312,-0.0781 0.0391,-0.0703 0.0508,-0.0781 0.0625,-0.0723 0.0645,-0.0664 0.0644,-0.0605 0.0723,-0.0527 0.0781,-0.041 0.0762,-0.0254 0.0352,-0.0176 0.0762,-0.006 0.0371,0.004 0.0391,0.004 0.0312,0.0117 0.041,0.01 0.0332,0.0176 0.0254,0.0254 0.0352,0.0312 0.11523,0.11329 0.0527,0.0371 0.0469,0.0234 0.0391,0.0176 0.0391,0.004 0.0371,-0.004 0.0312,-0.008 0.0254,-0.0176 0.0469,-0.0449 0.0215,-0.0352 0.0332,-0.0644 0.0644,-0.13867 0.0312,-0.0645 0.0254,-0.0215 0.0176,-0.0176 0.0254,-0.0137 0.0371,-0.004 0.0117,0.006 0.0352,0.0117 0.0312,0.0234 0.041,0.0312 0.0899,0.0996 0.002,0.004 0.11133,0.16016 0.0215,0.0352 0.002,0.004 0.0215,0.043 0.0156,0.0391 0.002,0.004 0.008,0.0352 0.004,0.0273 v 0.008 l -0.008,0.008 0.002,0.0391 -0.004,0.041 -0.01,0.0332 -0.0176,0.0781 -0.0332,0.0781 -0.0391,0.0703 -0.0449,0.0723 -0.084,0.13477 -0.0391,0.0566 -0.0332,0.0644 -0.01,0.0274 -0.006,0.0351 -0.008,0.0274 0.006,0.082 0.0137,0.0273 0.0156,0.0254 0.0508,0.0723 0.043,0.0703 0.0312,0.0781 v 0.002 l 0.0312,0.0703 0.0801,0.21289 0.0293,0.0586 0.0371,0.0566 0.0371,0.0527 0.0176,0.0215 0.0215,0.0156 0.0527,0.0371 h 0.002 l 0.0312,0.0117 0.0332,0.0117 0.0312,0.002 0.0469,0.0117 h 0.0801 l 0.10742,-0.0156 0.125,-0.0234 0.11719,-0.0293 0.125,-0.0293 0.0605,-0.0254 0.0566,-0.0254 0.0527,-0.0293 0.0586,-0.0391 0.0547,-0.0391 0.0469,-0.0508 0.0527,-0.0508 0.0527,-0.0606 0.0469,-0.0644 0.043,-0.0703 0.0742,-0.11524 0.0332,-0.0449 0.0293,-0.0273 0.0312,-0.0254 0.0234,-0.0137 0.0117,-0.008 0.0254,-0.002 0.006,0.006 0.0137,0.006 0.008,-0.002 0.006,0.0137 0.008,0.008 0.0137,0.0176 0.0137,0.0273 0.008,0.0332 0.0117,0.0391 0.0117,0.0801 0.008,0.0957 v 0.002 l -0.006,0.10156 -0.004,0.0957 -0.0156,0.10157 -0.0117,0.0898 -0.0254,0.084 -0.0215,0.0625 -0.0156,0.0234 -0.0117,0.0215 -0.0449,0.0547 v 0.002 l -0.01,0.0351 -0.0176,0.0293 -0.004,0.0332 -0.004,0.0274 -0.004,0.0351 0.004,0.0684 0.01,0.0254 0.01,0.0332 0.0137,0.0332 0.0312,0.0586 0.043,0.0508 0.0527,0.0508 0.0547,0.043 0.0664,0.0371 0.0703,0.0195 0.0723,0.0234 h 0.0762 l 0.0801,-0.006 0.082,-0.0195 0.043,-0.0176 0.041,-0.01 h 0.002 l 0.082,-0.008 0.0391,0.004 0.0332,0.0117 0.0312,0.0117 0.0332,0.0176 0.0332,0.0156 0.0254,0.0195 0.0547,0.0527 0.0508,0.0625 0.0488,0.0703 0.17187,0.32813 0.084,0.16406 0.0488,0.0781 0.0508,0.0703 0.0703,0.10351 0.0234,0.0469 0.0195,0.0312 0.01,0.0391 0.01,0.0273 -0.004,0.0273 v 0.008 l -0.006,0.0137 -0.004,0.008 -0.006,0.006 -0.0176,0.0176 -0.0176,0.0117 -0.0273,0.01 -0.0547,0.004 -0.0762,-0.002 -0.0762,-0.004 -0.084,-0.01 -0.17187,-0.0332 -0.1543,-0.0293 -0.0644,-0.01 -0.0508,0.004 -0.125,0.0176 -0.0488,0.01 -0.0371,0.0117 -0.0312,0.0137 -0.0156,0.0156 -0.0137,0.008 -0.006,0.0137 -0.004,0.0215 0.002,0.0391 0.0176,0.0273 0.0137,0.0195 0.043,0.0586 0.0527,0.0566 0.25391,0.23828 0.0488,0.0586 0.0215,0.0312 0.0156,0.0274 0.01,0.0254 0.006,0.0254 -0.002,0.0273 v 0.0156 l -0.006,0.0137 -0.0566,0.16016 -0.0547,0.18164 -0.043,0.17382 -0.0137,0.082 -0.006,0.082 -0.006,0.082 0.0117,0.0684 0.002,0.0332 0.01,0.0332 0.0137,0.0254 0.01,0.0332 0.0215,0.0195 0.0137,0.0273 0.0273,0.0176 0.0195,0.0195 0.0332,0.01 0.0644,0.0234 0.0391,0.004 0.0586,0.002 0.0508,0.0156 0.0508,0.01 0.0469,0.0234 0.0391,0.0254 0.0391,0.0234 0.0273,0.0254 0.0293,0.0312 0.0273,0.0391 0.0137,0.0332 0.0254,0.0391 0.0195,0.0801 0.006,0.082 -0.004,0.0391 -0.004,0.0352 -0.01,0.041 -0.008,0.0371 -0.0176,0.0332 -0.0156,0.0352 -0.0234,0.0312 -0.0234,0.0273 -0.0215,0.0293 -0.0313,0.0234 -0.0312,0.0137 -0.0352,0.0176 -0.0371,0.01 -0.0371,0.004 -0.0469,-0.006 -0.043,-0.002 -0.0449,-0.01 -0.16406,0.0879 -0.0723,-0.10351 -0.27149,-0.16211 -0.1582,-0.0762 -0.0859,-0.0352 -0.0762,-0.0215 -0.0781,-0.0137 -0.0762,-0.008 -0.0371,0.01 -0.0293,0.002 -0.0391,0.01 -0.0293,0.0156 -0.0312,0.0176 -0.0293,0.0215 -0.0293,0.0293 -0.0234,0.0371 -0.0215,0.0352 -0.0215,0.043 -0.0234,0.0469 -0.0137,0.0566 -0.008,0.0352 -0.004,0.041 v 0.082 l 0.002,0.0937 0.0137,0.0957 0.0508,0.40429 0.008,0.0879 v 0.082 l -0.004,0.041 -0.01,0.0352 -0.004,0.0332 -0.0156,0.0293 -0.0117,0.0215 -0.0234,0.0215 -0.0488,0.0312 -0.0293,0.01 -0.0391,0.002 -0.0371,-0.002 -0.0449,-0.0117 -0.0723,-0.0215 -0.0723,-0.0293 -0.32813,-0.15039 -0.13672,-0.0566 -0.0508,-0.01 -0.0215,-0.006 -0.0312,0.002 -0.01,0.0156 v 0.0195 l 0.01,0.0273 0.0137,0.0254 v 0.002 l 0.0508,0.0684 0.18945,0.22461 0.0605,0.0625 0.0742,0.0566 0.16016,0.10938 0.16015,0.10351 0.0742,0.0488 0.0684,0.0547 0.0527,0.0586 0.0293,0.0312 0.0156,0.0332 0.0215,0.0312 0.01,0.0332 0.008,0.041 0.002,0.0332 -0.002,0.041 -0.004,0.041 -0.0156,0.043 -0.0215,0.043 -0.0215,0.0488 -0.0332,0.0508 -0.0859,0.10938 -0.0527,0.2207 -0.0332,0.35547 -0.33398,0.0274 -0.33985,0.35351 0.0156,0.0391 0.01,0.041 0.01,0.12109 -0.004,0.0352 -0.0137,0.0684 -0.0195,0.0703 -0.0254,0.0606 -0.0664,0.1289 -0.0703,0.13477 -0.0273,0.0625 -0.0254,0.0762 -0.0137,0.0703 -0.006,0.084 0.006,0.0801 0.0195,0.0937 0.0293,0.10742 0.0195,0.11328 0.0137,0.0664 0.004,0.0625 -0.002,0.0605 -0.008,0.0625 -0.0137,0.0547 -0.0273,0.0625 -0.01,0.0215 -0.0176,0.0293 -0.0234,0.0234 -0.0176,0.0273 -0.0293,0.0234 -0.0234,0.0156 -0.0664,0.0391 -0.0742,0.0332 -0.0918,0.0195 -0.0508,0.0117 -0.0371,0.0176 -0.0352,0.0156 -0.0293,0.0293 -0.0234,0.0273 -0.0234,0.0293 -0.0156,0.0352 -0.01,0.0351 -0.01,0.043 -0.006,0.082 0.01,0.0449 0.0137,0.0937 0.0332,0.0957 0.0391,0.0918 0.0508,0.0898 0.0586,0.084 0.0684,0.0781 0.0684,0.0605 0.0664,0.0508 h 0.002 l 0.0371,0.0156 0.0332,0.0117 0.0391,0.0117 0.0391,0.004 0.0938,-0.008 0.041,-0.0176 0.0391,-0.0176 0.0293,-0.0137 0.0293,-0.0312 0.0234,-0.0274 0.0156,-0.0293 0.0156,-0.0371 0.0176,-0.0352 0.0176,-0.082 0.0312,-0.17188 0.0234,-0.17187 0.0273,-0.082 0.008,-0.0371 0.0176,-0.043 0.0215,-0.0273 0.0176,-0.0293 0.0293,-0.0293 0.0293,-0.0215 0.0293,-0.0176 0.043,-0.0156 0.0449,-0.01 0.0488,-0.004 0.12696,-0.004 0.15234,0.0156 0.0781,0.0137 0.084,0.0215 0.0723,0.0215 0.0723,0.0332 0.0645,0.0371 0.0605,0.043 0.0274,0.0312 0.0215,0.0273 0.0215,0.0312 0.0156,0.0332 0.0156,0.0312 0.0176,0.082 -0.002,0.041 -0.002,0.0488 -0.002,0.0469 -0.0312,0.10351 -0.0918,0.11719 0.15429,0.27149 -0.17187,0.37695 -0.17383,0.37305 0.0254,0.0801 0.0391,0.0723 0.041,0.0703 0.0273,0.0274 0.002,-0.002 0.0312,-0.01 0.0293,-0.01 h 0.002 l 0.0312,-0.002 0.0293,0.006 h 0.002 l 0.0312,0.004 0.0312,0.004 0.0742,0.0293 0.0664,0.0351 0.29102,0.16797 0.0801,0.0391 0.0703,0.0312 0.0781,0.0137 0.0312,0.004 0.0391,0.004 0.0312,0.0117 0.0391,0.0176 0.0137,0.004 0.0195,0.0137 0.0195,0.006 0.0137,0.0117 0.0977,-0.041 0.082,-0.0215 0.0859,-0.0117 h 0.002 l 0.0801,-0.008 0.0898,0.008 0.084,0.0137 0.084,0.0293 0.084,0.0254 0.0742,0.043 0.0723,0.0488 0.0723,0.0488 0.0625,0.0566 0.0488,0.0625 0.0508,0.0723 0.0371,0.0703 0.0254,0.0801 0.0195,0.0801 0.0195,0.0859 v 0.002 l 0.0234,0.0723 0.0371,0.0664 0.0371,0.0586 0.0488,0.043 0.0508,0.0449 0.0625,0.0371 0.0586,0.0332 0.25586,0.11133 0.0586,0.0273 0.0606,0.0371 0.0605,0.0352 0.0469,0.0391 0.0215,0.0254 0.0195,0.0234 0.0234,0.0273 0.008,0.0273 0.0137,0.0312 0.008,0.0254 0.0137,0.0762 0.0117,0.0664 v 0.082 0.15625 0.16406 l 0.0137,0.16211 0.0176,0.0723 v 0.002 l 0.0254,0.0723 0.0137,0.0332 0.0234,0.0312 0.0215,0.0332 0.0274,0.0254 0.0527,0.043 0.0606,0.043 0.0664,0.0293 0.0644,0.0352 0.28906,0.11914 0.0664,0.0371 0.0586,0.043 0.0566,0.043 0.0527,0.0566 0.0215,0.0273 0.0156,0.0312 0.0234,0.041 0.008,0.0312 0.0156,0.041 0.002,0.041 0.0117,0.0469 -0.004,0.0449 0.36328,0.33398 0.24219,-0.0391 0.0879,-0.0195 0.23828,0.0488 0.10937,0.10156 0.0645,0.0332 0.0684,0.043 0.0606,0.0508 0.0606,0.0488 0.0605,0.0508 0.0566,0.0566 0.0547,0.0625 0.0508,0.0645 0.043,0.0723 0.0371,0.0644 0.0293,0.0801 0.0273,0.0723 0.0117,0.082 0.006,0.0801 0.002,0.0879 -0.0137,0.084 -0.006,0.0742 v 0.002 0.0801 l 0.006,0.0762 0.0176,0.0723 0.0195,0.0723 0.0293,0.0664 0.0391,0.0645 0.041,0.0664 0.0508,0.0625 v 0.002 l 0.10937,0.11329 0.0625,0.0488 0.0664,0.0508 0.0664,0.0352 0.0723,0.043 0.0723,0.0273 0.11523,0.0391 0.0449,0.01 0.0469,0.002 0.0312,-0.002 0.0293,-0.01 0.0313,-0.008 0.0195,-0.008 0.0156,-0.0234 0.0195,-0.0195 0.01,-0.0234 0.004,-0.0273 0.0156,-0.0547 0.006,-0.0605 0.0156,-0.13868 0.0137,-0.0625 0.0176,-0.0293 0.01,-0.0274 0.0156,-0.0293 0.0488,-0.043 0.0293,-0.0176 0.0371,-0.01 0.0449,-0.01 0.0996,-0.008 0.0508,0.01 0.0586,0.01 0.11719,0.0508 0.13867,0.0508 0.0625,0.0215 0.0645,0.0176 h 0.0644 l 0.0332,0.006 0.0234,-0.01 0.0312,-0.002 0.0488,-0.0312 0.0234,-0.0137 0.0234,-0.0234 0.0176,-0.0293 0.0156,-0.0352 0.0156,-0.041 0.0156,-0.043 0.008,-0.0547 0.01,-0.12305 -0.002,-0.12304 -0.006,-0.0547 -0.01,-0.0449 -0.01,-0.041 -0.0312,-0.0664 -0.0215,-0.0254 -0.0195,-0.0195 -0.0273,-0.0176 -0.0527,-0.0234 -0.0312,-0.01 -0.0332,-0.006 h -0.0625 l -0.27149,0.0137 -0.0703,-0.002 -0.0547,-0.008 -0.0352,-0.0117 -0.0254,-0.0137 -0.0215,-0.0117 -0.0254,-0.0156 -0.0957,-0.082 -0.11329,-0.0801 -0.10742,-0.0937 -0.0566,-0.0508 -0.043,-0.0586 -0.0351,-0.0566 -0.0156,-0.0332 -0.0137,-0.0312 -0.01,-0.0352 -0.008,-0.10938 0.004,-0.0391 0.006,-0.0488 0.0312,-0.0898 0.043,-0.10156 0.0684,-0.10547 0.12109,-0.15235 0.0586,-0.0586 0.0527,-0.0449 0.10156,-0.084 0.0937,-0.0664 0.0488,-0.0391 0.043,-0.0371 0.0391,-0.0449 0.0469,-0.0508 0.0391,-0.0566 v -0.002 l 0.0391,-0.0703 0.043,-0.084 0.0371,-0.0996 0.0215,-0.043 0.0176,-0.0332 0.0215,-0.0312 0.0469,-0.043 0.0312,-0.0176 0.0234,-0.008 0.0332,-0.002 0.0312,0.004 0.0312,0.006 0.0312,0.004 0.041,0.0176 0.0664,0.0352 0.0723,0.041 0.13672,0.125 0.0684,0.0703 0.0703,0.0762 0.11133,0.15429 0.0508,0.0781 0.0371,0.0703 0.0293,0.041 0.0215,0.0332 0.0273,0.0312 0.0352,0.0176 0.0254,0.0117 0.0312,0.004 0.0332,0.004 0.0352,-0.002 0.0332,-0.01 0.0371,-0.01 0.0664,-0.0312 0.14648,-0.0801 0.13672,-0.0937 0.0664,-0.0332 0.0684,-0.0254 0.0586,-0.004 0.0312,0.004 0.0254,0.006 0.0254,0.0117 0.0273,0.0254 0.0215,0.0234 0.0215,0.0351 0.0508,0.0762 0.0508,0.0703 0.0469,0.0586 0.0566,0.0488 0.0586,0.0371 0.0605,0.0371 0.0566,0.0234 0.0606,0.0137 0.0625,0.002 0.0566,0.004 0.0625,-0.0117 0.0566,-0.0117 0.0547,-0.0234 0.0547,-0.0312 0.0469,-0.0332 0.0469,-0.043 0.0371,-0.0312 0.0293,-0.0156 0.0371,-0.0234 0.0293,-0.008 0.0371,-0.01 0.0332,-0.004 0.0371,0.006 0.0391,0.002 0.0312,0.004 0.0332,0.0117 0.0332,0.0176 0.0332,0.0195 0.0645,0.041 0.0566,0.0508 0.0488,0.0644 0.0371,0.0644 0.0312,0.0723 0.008,0.041 0.01,0.0391 0.006,0.0742 -0.004,0.043 -0.008,0.0351 -0.008,0.0391 -0.0176,0.0371 -0.0234,0.0352 -0.0215,0.0352 -0.0293,0.043 -0.0215,0.0371 -0.0156,0.043 -0.01,0.0332 -0.008,0.0352 0.006,0.0937 0.0156,0.0332 0.008,0.0254 0.0195,0.0273 0.0215,0.0254 0.0215,0.0254 0.0274,0.0176 0.0586,0.0371 0.0664,0.0293 0.0723,0.0137 0.0762,0.0156 0.14258,-0.0117 0.0684,-0.0254 0.0293,-0.0156 0.0332,-0.0176 0.0293,-0.0215 0.0234,-0.0234 0.0566,-0.0645 0.0469,-0.0645 0.0371,-0.0723 0.0332,-0.0684 v -0.002 l 0.0195,-0.0703 0.0195,-0.0742 v -0.002 l 0.0137,-0.0762 0.006,-0.0742 0.008,-0.14844 -0.008,-0.1582 -0.0234,-0.29688 -0.0215,-0.58593 -0.0215,-0.28321 -0.0176,-0.14062 v -0.002 l -0.0312,-0.13086 v -0.002 l -0.01,-0.0801 0.002,-0.0352 -0.004,-0.0312 0.004,-0.0371 0.01,-0.0352 0.0215,-0.0684 0.0273,-0.0566 0.0312,-0.0566 0.0469,-0.0586 0.041,-0.0566 0.1836,-0.21289 0.0469,-0.0566 0.0391,-0.0586 0.0273,-0.0625 0.0254,-0.0644 0.043,-0.11719 0.0488,-0.0918 0.0215,-0.0449 0.0293,-0.0293 0.0234,-0.0293 0.0293,-0.0293 0.0293,-0.0234 0.0312,-0.0137 0.0312,-0.01 0.0312,-0.01 0.0293,-0.01 0.0312,-0.002 0.0644,0.002 0.0645,0.01 0.0703,0.0137 0.12891,0.0449 0.12305,0.043 0.0605,0.0254 0.0586,0.0156 0.0371,0.01 0.041,0.0156 0.0312,0.0195 0.0547,0.0371 0.0273,0.0254 0.043,0.0508 0.0352,0.0586 0.0234,0.0645 0.0254,0.0742 0.0117,0.0723 0.0137,0.16407 -0.006,0.15625 -0.0195,0.30859 0.002,0.11523 0.008,0.0957 0.01,0.0312 0.0137,0.0332 0.0156,0.0332 0.0137,0.0195 0.0156,0.0254 0.0195,0.0137 0.0215,0.0195 0.0254,0.01 0.0469,0.0234 0.0508,0.0156 0.0527,0.0176 0.0527,0.0156 0.0449,0.0312 0.0273,0.0176 0.0215,0.0195 0.0215,0.0234 v 0.002 l 0.0195,0.0254 0.0215,0.0332 0.0156,0.0332 0.0156,0.0391 0.0156,0.0449 0.0215,0.11524 0.0312,0.12695 v 0.002 l 0.0156,0.0508 0.0156,0.0391 0.0215,0.0391 v 0.002 l 0.0273,0.0234 0.0274,0.0176 0.0254,0.0117 0.0312,0.0137 0.0332,0.004 0.0332,-0.004 0.0293,-0.008 0.0742,-0.0215 0.0801,-0.0391 0.34179,-0.16992 0.0781,-0.0332 0.0879,-0.0195 0.0371,-0.002 0.0371,0.002 0.0391,0.0117 0.041,0.01 0.043,0.0176 0.041,0.01 0.043,0.0117 0.0723,-0.006 0.0293,-0.01 0.0312,-0.01 0.0254,-0.0156 0.0215,-0.0234 0.0234,-0.0195 0.0449,-0.0605 0.041,-0.0625 0.0312,-0.0781 0.12891,-0.28906 0.0332,-0.0625 0.0234,-0.0234 0.0176,-0.0273 0.0215,-0.0176 0.0254,-0.0137 0.0254,-0.0156 0.0234,-0.008 0.0684,-0.006 0.0332,0.01 0.0332,0.01 0.0254,0.0117 0.0332,0.0195 0.0547,0.0488 0.0488,0.0664 0.0566,0.0625 0.10156,0.15625 0.10547,0.14648 0.0625,0.0645 0.0605,0.0566 0.0332,0.0234 0.0332,0.0195 0.0391,0.0176 0.0332,0.0117 0.0391,0.002 0.0449,0.004 0.043,-0.004 0.043,-0.01 0.0156,-0.17774 0.0274,-0.17968 0.084,-0.11524 0.0859,-0.0605 0.082,-0.0469 0.0859,-0.0293 0.082,-0.0137 0.0879,0.002 0.0898,0.008 0.17969,0.0332 0.1875,0.0449 0.0898,0.0215 0.0898,0.0117 h 0.18491 l 0.0937,-0.0156 0.0937,-0.0332 0.041,-0.0156 0.0371,-0.01 0.0723,-0.006 0.0371,0.004 0.0312,0.004 0.0332,0.0117 0.0332,0.01 0.0527,0.0371 0.0547,0.043 0.0488,0.0586 0.043,0.0586 0.0371,0.0703 0.0312,0.0723 0.0312,0.0781 0.0176,0.0762 0.0137,0.0801 0.0137,0.0742 0.004,0.0664 v 0.0684 0.0879 l 0.0137,0.0879 0.0176,0.0801 0.0332,0.0781 0.0351,0.0664 0.0449,0.0723 0.0488,0.0566 0.0547,0.0566 0.0606,0.0566 0.0684,0.0508 0.12695,0.084 0.13867,0.0703 0.13086,0.0645 0.22656,0.0859 0.0312,-0.0293 v -0.002 l 0.22071,-0.26171 0.0527,-0.0586 0.0566,-0.0586 0.0605,-0.0449 0.0586,-0.0469 0.0664,-0.0312 0.0684,-0.0254 0.0703,-0.0137 0.0801,0.002 0.084,0.0137 0.084,0.0195 0.0723,0.0293 0.0723,0.043 0.0684,0.0488 0.0605,0.0566 0.0625,0.0625 0.0527,0.0644 0.10937,0.14844 0.28125,0.44727 0.0312,0.0586 0.0215,0.0586 0.0254,0.0606 0.0117,0.0664 0.01,0.0625 0.006,0.0664 -0.002,0.13672 -0.002,0.27734 v 0.14454 l 0.006,0.0742 0.0117,0.0664 0.008,0.0352 0.008,0.0254 0.0312,0.0644 0.0371,0.0742 0.0547,0.0625 0.0566,0.0625 0.0605,0.0508 0.0605,0.0508 0.0664,0.0352 0.0332,0.0117 0.0273,0.0117 0.0293,0.004 0.0332,0.006 0.0254,-0.002 0.0234,-0.0117 0.0254,-0.008 0.0234,-0.0234 0.0391,-0.0488 0.0117,-0.0351 0.0156,-0.041 0.002,-0.0488 0.008,-0.0547 -0.004,-0.13086 -0.0312,-0.39843 0.008,-0.12891 0.002,-0.0684 0.0137,-0.0684 0.0137,-0.0625 0.0137,-0.0703 0.0254,-0.0762 0.0254,-0.0703 0.0391,-0.0723 0.0391,-0.0762 0.36719,-0.54102 0.0391,-0.0703 0.0312,-0.0703 0.0195,-0.0762 0.0137,-0.0742 0.006,-0.084 -0.006,-0.0801 -0.0274,-0.0937 -0.0332,-0.0937 -0.0469,-0.11132 -0.01,-0.0469 -0.008,-0.041 -0.006,-0.0664 0.0156,-0.043 0.0156,-0.0215 0.0176,-0.0137 0.0195,-0.008 0.0234,-0.01 0.0508,-0.0117 0.0566,-0.004 0.0625,-0.0117 0.0625,-0.0117 0.0605,-0.0254 0.0312,-0.01 0.0234,-0.0195 0.0293,-0.0254 0.0469,-0.0566 0.0312,-0.0859 0.0156,-0.0488 0.006,-0.0527 0.008,-0.0703 0.004,-0.0332 0.01,-0.0352 0.0117,-0.0215 0.0176,-0.0273 0.0156,-0.0156 0.0488,-0.0312 0.0312,-0.01 0.0625,-0.0117 0.0762,-0.006 0.16406,0.008 0.17774,0.008 0.0898,0.006 0.0879,-0.006 0.082,-0.0137 0.0723,-0.0254 0.0371,-0.0176 0.0312,-0.0176 0.0273,-0.0215 0.0312,-0.0293 0.0703,-0.0742 0.0645,-0.0586 0.0644,-0.0606 0.0606,-0.0391 0.0605,-0.0371 0.0547,-0.0254 0.0605,-0.0176 0.11328,-0.01 0.0527,0.01 0.0566,0.01 0.0605,0.0215 0.0566,0.0234 0.0586,0.0371 0.1289,0.0781 0.0391,0.0293 0.041,0.0176 0.0332,0.0195 0.0312,0.004 0.0313,0.004 0.0254,-0.002 0.0488,-0.0176 0.0195,-0.0156 0.0215,-0.0234 0.0176,-0.0195 0.0176,-0.0293 0.0332,-0.0566 0.0312,-0.0703 0.0723,-0.14844 0.0371,-0.0762 0.0449,-0.0801 0.0508,-0.0645 0.0586,-0.0605 0.0371,-0.0293 0.0352,-0.0234 0.043,-0.0176 0.043,-0.0176 0.46289,-0.21094 0.0566,-0.0176 0.0625,-0.006 0.0254,0.004 0.0312,0.006 0.0273,0.004 0.0254,0.0176 0.0332,0.0117 0.0273,0.0195 0.0547,0.0488 0.0488,0.0703 0.0508,0.0918 0.0176,0.0332 0.0195,0.0254 0.0215,0.0254 v 0.002 l 0.0254,0.0176 0.0215,0.0195 0.0274,0.01 0.0254,0.0137 0.0312,0.01 0.0586,0.008 0.0703,0.002 0.13672,-0.01 0.37696,-0.0703 0.0742,0.002 0.0684,0.002 0.0723,0.006 0.20117,-0.41015 -0.0254,-0.14063 -0.0117,-0.0684 -0.0176,-0.0723 0.043,-0.25977 0.0215,-0.13281 0.0137,-0.0547 0.0215,-0.043 0.0156,-0.043 0.0469,-0.0566 0.0293,-0.0234 0.0254,-0.0156 0.0293,-0.01 0.0312,-0.008 0.10156,-0.008 0.0684,0.006 h 0.002 l 0.14649,0.0234 0.0762,0.008 0.10742,-0.008 0.0352,-0.01 h 0.002 l 0.0312,-0.0156 0.0352,-0.0176 0.0293,-0.0234 0.0371,-0.0293 0.0274,-0.0352 0.0293,-0.0449 0.0215,-0.0352 0.0234,-0.0293 0.0293,-0.0215 0.0234,-0.0215 0.0293,-0.0234 0.0254,-0.0156 0.0293,-0.01 0.0332,-0.01 0.0625,-0.0117 0.0625,-0.006 0.0625,0.01 0.0723,0.0156 0.53321,0.18946 0.13281,-0.3711 -0.006,-0.0137 -0.0254,-0.0234 0.1582,-0.1582 -0.0215,-0.0918 -0.008,-0.0879 0.004,-0.0332 0.0117,-0.0371 0.01,-0.0332 0.0156,-0.0293 0.0156,-0.0273 0.0195,-0.0234 0.0215,-0.0215 0.0254,-0.0156 0.0234,-0.0137 0.0312,-0.0176 0.0605,-0.0254 0.0684,-0.0176 0.13868,-0.0117 h 0.0684 l 0.0684,0.002 0.0664,0.01 0.0566,0.0156 0.0527,0.01 0.082,0.0156 0.0391,0.002 0.0703,-0.006 0.0312,-0.008 0.0293,-0.0176 0.0293,-0.008 0.0254,-0.0215 0.0234,-0.0176 0.0234,-0.0234 0.0254,-0.0215 0.0371,-0.0566 0.0293,-0.0586 0.0254,-0.0606 0.0195,-0.0703 0.0137,-0.0684 0.0137,-0.0762 v -0.0684 l 0.002,-0.0684 -0.01,-0.12891 -0.0117,-0.0527 -0.01,-0.0488 -0.01,-0.0508 v -0.002 l -0.0195,-0.0586 0.18164,-0.26758 0.002,-0.0605 v -0.0254 l 0.0156,0.004 0.0586,0.0156 0.0664,0.0215 0.0586,0.0293 0.0508,0.0312 0.0566,0.0371 0.0527,0.043 0.0547,0.0488 0.10351,0.11523 0.11133,0.12891 0.0547,0.0566 0.0566,0.0566 0.0605,0.043 0.0586,0.0352 0.0332,0.0195 0.0332,0.01 0.0312,0.006 0.0645,0.006 0.0684,-0.0176 0.0371,-0.0156 0.0351,-0.0176 0.0371,-0.0234 0.0762,-0.0664 0.0586,-0.0664 0.0449,-0.0645 0.0391,-0.0645 0.0332,-0.0703 0.0176,-0.0703 0.0156,-0.0625 0.008,-0.0664 v -0.0788 l -0.0371,-0.5625 0.01,-0.11719 0.008,-0.0469 0.0156,-0.043 0.0156,-0.0352 0.0176,-0.0293 0.0234,-0.0215 0.0234,-0.0215 0.0234,-0.0176 0.0312,-0.008 0.0254,-0.01 0.0996,-0.008 0.0703,0.008 0.28321,0.0527 0.0684,0.004 0.0625,-0.006 0.0273,-0.01 0.0723,-0.0469 0.0508,-0.0586 0.0586,-0.0508 0.0586,-0.0449 0.0547,-0.0391 0.0606,-0.0312 0.0684,-0.0332 0.0605,-0.0176 0.0625,-0.0195 0.0684,-0.0195 0.0625,-0.01 0.0684,-0.006 h 0.0625 l 0.0723,0.002 0.0703,0.01 0.13281,0.0215 0.0645,0.01 0.0566,0.002 0.0625,-0.01 0.0566,-0.0117 0.0625,-0.0195 0.0605,-0.0234 0.12304,-0.0586 0.24219,-0.11524 0.0625,-0.0234 0.0664,-0.0195 0.0625,-0.0195 0.0625,-0.004 0.0957,-0.0156 0.0801,-0.0176 0.0801,-0.0215 0.0723,-0.0332 0.0742,-0.0391 0.0645,-0.0449 0.0605,-0.0449 0.0527,-0.0527 0.0527,-0.0586 0.0527,-0.0605 0.0918,-0.1211 0.16211,-0.24414 0.0508,-0.0781 0.0586,-0.0586 h 0.002 l 0.0508,-0.0586 0.0586,-0.0449 0.0625,-0.0332 0.0605,-0.0332 0.0606,-0.0176 0.0625,-0.0176 0.0625,-0.006 0.0625,-0.0117 0.125,-0.002 h 0.26172 l 0.0801,-0.0137 0.0684,-0.0176 0.0664,-0.0332 0.0605,-0.0391 0.10742,-0.0898 0.0918,-0.10351 0.0996,-0.0899 0.0547,-0.0371 0.0547,-0.0371 0.0605,-0.0195 0.0312,-0.01 0.0762,-0.006 0.0332,0.004 0.082,0.0156 0.10938,0.0996 0.25195,-0.16211 0.0918,0.0332 0.0449,0.01 0.0391,0.006 0.0391,0.004 0.0293,-0.01 0.0312,-0.002 0.0312,-0.0176 0.0293,-0.01 0.0488,-0.043 0.0215,-0.0234 0.041,-0.0566 0.0391,-0.0645 0.0254,-0.0703 0.0254,-0.0762 0.0332,-0.16211 0.0254,-0.15625 0.0137,-0.12891 0.0137,-0.0859 0.0254,-0.0684 0.0332,-0.0645 0.0391,-0.0625 0.0469,-0.0527 0.0586,-0.0449 0.0527,-0.0449 0.0684,-0.0332 0.13476,-0.0488 0.0762,-0.0137 0.0684,-0.006 0.0762,0.002 0.14063,0.0273 0.0664,0.0293 0.18359,0.0137 0.0898,0.0156 0.0957,0.0176 0.19726,-0.0898 0.0723,-0.11524 0.0488,-0.0918 0.0176,-0.0352 0.002,-0.0352 0.002,-0.0351 -0.002,-0.0254 -0.006,-0.0273 -0.0137,-0.0195 -0.0215,-0.0176 -0.041,-0.0254 -0.0234,-0.004 -0.0645,-0.0156 -0.0723,-0.002 -0.0762,0.006 -0.1543,0.0273 -0.13672,0.0293 -0.0976,0.0371 -0.10547,0.0273 -0.043,0.01 -0.0703,0.006 -0.0312,-0.006 -0.0274,-0.0117 -0.0195,-0.01 -0.0195,-0.0195 -0.0156,-0.0195 -0.0137,-0.0273 -0.01,-0.0254 -0.008,-0.0254 -0.008,-0.10352 0.008,-0.28711 -0.006,-0.0918 -0.0176,-0.0547 -0.008,-0.0215 -0.0156,-0.0176 -0.0117,-0.0117 -0.0469,-0.0391 -0.0664,-0.0273 -0.15039,-0.0625 -0.15625,-0.0645 -0.1582,-0.0605 -0.0645,-0.043 -0.0547,-0.0371 -0.0215,-0.0195 -0.0215,-0.0254 -0.0117,-0.0195 -0.0156,-0.0274 -0.004,-0.0449 0.006,-0.0215 0.008,-0.0293 0.0176,-0.0273 0.0234,-0.0273 v -0.002 l 0.0274,-0.0293 0.0371,-0.0293 0.0293,-0.0293 0.0293,-0.0312 0.0234,-0.0352 0.0176,-0.0352 0.0137,-0.0352 0.0176,-0.043 0.0234,-0.16406 0.006,-0.082 0.006,-0.15821 0.008,-0.0684 0.004,-0.0352 0.01,-0.0273 0.0117,-0.0215 0.0293,-0.0352 0.0234,-0.0156 0.0234,-0.008 0.0254,-0.004 0.0391,0.006 0.0332,0.004 0.0957,0.0312 0.11328,0.0605 0.0566,0.0215 0.0684,0.0254 0.0566,0.0215 0.0644,0.0137 0.13477,0.0176 0.13281,0.01 0.28516,0.0117 0.14062,0.0156 0.14063,0.0312 0.0469,0.01 0.0449,0.002 0.0371,-0.002 0.0371,-0.01 0.0371,-0.01 0.0606,-0.0312 0.0254,-0.0234 0.0527,-0.0449 0.0391,-0.0566 0.0742,-0.10157 0.0293,-0.043 0.0176,-0.0156 0.0156,-0.006 0.0195,-0.01 0.0117,-0.008 0.0156,0.006 0.004,-0.002 0.0195,0.006 0.0215,0.0195 0.0274,0.0176 0.0215,0.0332 0.0273,0.0391 0.0527,0.0957 v 0.002 l 0.0684,0.14453 0.0352,0.0645 0.0488,0.0645 0.0586,0.0566 0.0605,0.0508 0.0586,0.041 0.0723,0.043 0.14453,0.0703 h 0.002 l 0.30859,0.13867 0.0781,0.0352 0.0664,0.043 0.0664,0.041 0.0625,0.0586 0.0254,0.0234 0.0215,0.0332 0.0215,0.0273 0.0156,0.0312 0.0176,0.0391 0.008,0.0332 0.0117,0.0762 v 0.14844 l -0.0137,0.15625 v 0.002 l -0.006,0.0742 -0.002,0.0742 0.006,0.0762 0.01,0.0332 0.008,0.0332 0.008,0.0254 0.0176,0.0332 0.041,0.0508 0.0215,0.0254 0.0332,0.0176 0.0332,0.0254 0.0391,0.0176 0.57227,0.11133 0.0723,0.0293 0.0254,0.0117 0.0274,0.0195 0.041,0.0352 0.0137,0.0215 0.0156,0.0254 0.004,0.0547 -0.004,0.0273 -0.0117,0.0332 -0.0215,0.0312 -0.0215,0.0352 -0.0703,0.0859 -0.041,0.0449 -0.0391,0.0566 v 0.002 l -0.0352,0.0547 -0.0312,0.0644 -0.0195,0.0625 -0.0137,0.0684 -0.008,0.0703 -0.002,0.0605 0.002,0.0352 0.01,0.0332 0.008,0.0254 0.01,0.0332 0.0156,0.0254 0.0215,0.0273 0.0137,0.0254 0.0215,0.0273 0.0273,0.0234 0.0254,0.0195 0.0352,0.0234 0.0332,0.0195 0.0781,0.0254 0.0898,0.0215 0.58594,0.14453 0.0703,0.01 0.0625,-0.006 0.0625,-0.0176 0.0293,-0.0176 0.0508,-0.0312 0.0215,-0.0273 0.0332,-0.0586 0.0176,-0.041 0.006,-0.043 0.0195,-0.0957 0.043,-0.0918 0.0156,-0.043 0.0215,-0.0488 0.2539,-0.23828 0.0742,-0.004 0.0312,-0.01 0.0371,-0.01 0.0625,-0.0332 0.0586,-0.0371 0.0547,-0.0449 0.0527,-0.0449 0.10546,-0.10351 0.0508,-0.0527 h 0.002 l 0.0527,-0.043 0.0547,-0.0332 0.0605,-0.0312 0.0234,-0.01 0.0391,-0.01 0.0293,-0.01 0.0332,0.006 0.0371,-0.004 0.0332,0.0117 0.0391,0.01 0.0391,0.0176 0.0469,0.0176 0.0371,0.01 0.0391,0.0117 0.0371,0.004 0.0391,-0.004 0.0312,-0.01 0.0234,-0.008 0.0312,-0.01 0.0234,-0.0137 0.0234,-0.0234 0.0176,-0.0215 0.0234,-0.0215 h 0.002 l 0.0156,-0.0293 0.01,-0.0293 0.0273,-0.0684 0.0117,-0.0703 0.0137,-0.0762 0.008,-0.0762 -0.002,-0.082 -0.006,-0.0801 -0.0117,-0.0742 -0.0195,-0.0723 -0.0176,-0.0606 -0.0156,-0.0664 -0.0137,-0.0664 -0.006,-0.0684 0.004,-0.0684 v -0.29297 l -0.0117,-0.14258 -0.0195,-0.0723 -0.0156,-0.0684 -0.0312,-0.0566 -0.0352,-0.0586 -0.0215,-0.0254 -0.0274,-0.0332 -0.0605,-0.043 0.10351,-0.36133 0.11719,-0.16211 -0.0117,-0.002 -0.0645,-0.0234 -0.0645,-0.0351 h -0.002 l -0.0645,-0.0352 -0.0625,-0.0508 -0.0801,-0.0762 -0.0293,-0.0391 -0.0215,-0.0391 -0.0156,-0.0371 -0.0176,-0.041 -0.008,-0.0391 -0.004,-0.0352 0.004,-0.0391 0.002,-0.0352 0.0156,-0.0762 0.0449,-0.14063 0.0195,-0.0684 0.0137,-0.0684 0.004,-0.0371 0.006,-0.0254 -0.006,-0.0684 -0.01,-0.0273 -0.0156,-0.0332 -0.0195,-0.0332 -0.0293,-0.0234 -0.0332,-0.0332 -0.041,-0.0234 -0.0976,-0.0527 -0.0469,-0.0176 -0.0371,-0.004 -0.0391,-0.002 -0.0371,-0.004 -0.0371,0.01 -0.0312,0.008 -0.0351,0.0156 -0.0312,0.0176 -0.0606,0.0449 -0.0586,0.0508 -0.20899,0.25 -0.0527,0.0508 -0.0527,0.0469 -0.0234,0.0117 -0.0313,0.0176 -0.0254,0.008 -0.0312,0.004 -0.0312,-0.004 -0.0312,-0.006 -0.0332,-0.01 h -0.002 l -0.0312,-0.0176 -0.0547,-0.0371 -0.0469,-0.0508 -0.043,-0.0508 -0.041,-0.0645 -0.13672,-0.27734 -0.0371,-0.0723 -0.043,-0.0566 -0.043,-0.0586 -0.0488,-0.0488 -0.0274,-0.0254 -0.0312,-0.0176 -0.0273,-0.0117 -0.0332,-0.0195 -0.0371,-0.004 -0.0332,-0.01 -0.0391,-0.004 -0.10742,0.008 -0.0488,-0.002 -0.0527,-0.01 -0.0391,-0.0176 -0.0664,-0.0371 -0.0215,-0.0234 -0.043,-0.0644 -0.008,-0.0332 -0.0195,-0.082 -0.0137,-0.16797 -0.002,-0.17773 -0.0117,-0.0801 -0.01,-0.0391 -0.008,-0.0352 -0.0312,-0.0664 -0.0215,-0.0254 -0.0274,-0.0176 -0.0273,-0.0176 -0.0391,-0.0176 -0.0371,-0.01 -0.0508,-0.004 -0.11524,-0.0117 -0.0449,-0.01 -0.0391,-0.0117 -0.0391,-0.0156 -0.0273,-0.0195 -0.0547,-0.0508 -0.0156,-0.0254 -0.0137,-0.0254 -0.0156,-0.0332 -0.008,-0.0332 -0.0137,-0.0684 -0.0117,-0.0723 -0.01,-0.14258 -0.0117,-0.0742 -0.01,-0.0332 -0.0156,-0.0332 -0.0156,-0.0332 -0.0137,-0.0254 -0.0215,-0.0254 -0.0547,-0.0508 -0.0332,-0.0176 -0.041,-0.0156 -0.0449,-0.0176 -0.082,-0.17774 -0.10742,-0.0586 -0.0898,-0.35547 -0.004,-0.0879 -0.006,-0.0879 -0.0117,-0.0879 -0.0195,-0.0879 -0.0273,-0.0859 -0.0391,-0.0859 -0.0351,-0.0781 -0.0449,-0.0703 -0.043,-0.0723 -0.0566,-0.0703 -0.0547,-0.0586 -0.0547,-0.0488 -0.0684,-0.0488 -0.0605,-0.043 -0.0645,-0.0312 -0.0645,-0.0195 -0.0644,-0.01 -0.0645,-0.008 -0.0566,-0.002 -0.0625,0.004 -0.13086,0.0176 -0.125,0.0293 -0.25,0.0527 -0.12304,0.0234 -0.0645,0.006 -0.0566,-0.002 -0.043,0.004 -0.0449,0.01 -0.043,0.0176 -0.0352,0.0215 -0.0352,0.0312 -0.0312,0.0293 -0.0547,0.0781 -0.0488,0.0918 -0.0449,0.0937 -0.0801,0.18945 -0.0313,0.0762 -0.0391,0.0723 -0.0176,0.0215 -0.0156,0.0215 -0.0195,0.0156 -0.0371,0.002 -0.0137,-0.004 -0.0273,-0.0254 -0.0273,-0.0254 -0.0215,-0.041 -0.0293,-0.0508 -0.0547,-0.13867 -0.041,-0.0918 -0.0352,-0.0801 -0.0508,-0.0644 -0.043,-0.0566 -0.0488,-0.0508 -0.0527,-0.043 -0.0527,-0.0312 -0.0547,-0.0293 -0.0508,-0.0156 -0.0566,-0.0156 -0.0605,-0.01 -0.0488,-0.01 -0.2168,-0.01 -0.13867,0.01 -0.14258,0.0312 -0.29687,0.0781 -0.20899,0.0156 -0.0644,-0.0137 -0.0254,-0.006 -0.0254,-0.0137 -0.0273,-0.01 -0.0273,-0.0176 -0.0254,-0.0195 -0.0215,-0.0254 -0.0215,-0.0234 -0.0137,-0.0332 -0.0449,-0.0801 -0.0508,-0.0703 -0.0566,-0.0781 -0.0605,-0.0684 -0.13672,-0.12696 -0.0742,-0.0547 -0.0684,-0.043 -0.0664,-0.043 -0.0645,-0.0215 -0.0586,-0.0156 -0.0332,-0.004 -0.0234,-0.006 -0.0254,0.01 -0.0254,0.002 -0.0156,0.0137 -0.0215,0.008 -0.0156,0.0234 -0.0117,0.0215 -0.01,0.0293 -0.01,0.0254 -0.0293,0.11133 -0.0371,0.0918 -0.0156,0.043 -0.0234,0.0332 -0.0234,0.0254 -0.0293,0.0293 -0.0234,0.0215 -0.0312,0.0156 -0.0234,0.008 -0.0312,0.01 -0.0312,0.01 -0.0566,0.004 -0.0293,-0.004 -0.0605,-0.0156 -0.0625,-0.0156 -0.0606,-0.0293 -0.10547,-0.0606 -0.041,-0.0371 -0.041,-0.0371 -0.12304,-0.11523 -0.10157,-0.0801 -0.0605,-0.041 -0.11719,-0.0605 -0.0664,-0.0215 -0.0586,-0.008 -0.0937,0.006 -0.0312,0.01 -0.0293,0.0156 -0.0254,0.0156 -0.0273,0.0234 -0.0312,0.0274 -0.0508,0.0664 -0.043,0.0859 -0.043,0.11133 -0.01,0.0352 -0.0176,0.0215 -0.0156,0.0273 -0.0234,0.0176 -0.0195,0.0156 -0.0234,0.0137 -0.0254,0.01 -0.0312,0.008 -0.0605,0.0117 -0.0645,-0.002 -0.0684,-0.008 -0.0801,-0.0215 -0.60351,-0.18945 -0.0508,-0.01 -0.0586,-0.01 -0.13281,-0.0254 -0.0293,-0.004 v 0.002 h -0.002 l -0.11133,-0.0176 -0.0703,-0.0156 -0.0644,-0.0234 -0.0606,-0.0293 -0.0586,-0.0371 -0.0195,-0.0176 h -0.002 l -0.0273,-0.0254 -0.0195,-0.0254 -0.0156,-0.0254 -0.0137,-0.0273 -0.0156,-0.0312 -0.0117,-0.041 -0.006,-0.0801 0.004,-0.041 0.0176,-0.10352 0.0391,-0.14648 0.0508,-0.14649 0.0332,-0.0723 0.0391,-0.0625 0.0332,-0.0645 v -0.002 l 0.0918,-0.11328 0.0527,-0.0449 0.0527,-0.0391 0.0625,-0.0254 0.0293,-0.008 0.0391,-0.004 0.0312,-0.01 0.0371,0.006 0.0723,0.006 0.082,0.0195 0.0605,0.0234 0.11524,0.0332 0.0234,0.004 -0.0176,-0.0918 -0.0176,-0.0547 v -0.002 l -0.0137,-0.0176 -0.0195,-0.0117 -0.0312,0.004 -0.0137,0.006 -0.0117,0.008 -0.0176,0.01 -0.0469,0.043 -0.0117,0.01 -0.0137,0.006 -0.006,0.002 -0.006,-0.006 -0.008,-0.008 -0.006,-0.0117 -0.004,-0.0469 0.006,-0.082 0.0332,-0.28516 0.006,-0.0898 0.002,-0.0801 -0.0137,-0.0801 -0.0254,-0.0684 -0.0293,-0.0664 -0.0371,-0.0566 -0.041,-0.0449 -0.0547,-0.043 -0.0527,-0.0391 -0.0586,-0.0273 -0.0586,-0.0234 -0.12891,-0.0176 -0.0644,0.006 -0.0606,0.0117 -0.0625,0.0195 -0.041,0.01 -0.0586,0.0176 -0.0547,0.01 -0.0625,0.0137 -0.0625,0.004 -0.0625,-0.002 -0.0586,-0.01 -0.0645,-0.0156 -0.0254,-0.004 -0.0274,-0.01 -0.0254,-0.0195 -0.0625,-0.0566 -0.0195,-0.0254 -0.0156,-0.0254 -0.0195,-0.0684 -0.008,-0.12109 0.01,-0.0469 0.0215,-0.10547 0.01,-0.043 0.002,-0.041 -0.006,-0.0723 -0.008,-0.0273 -0.0156,-0.0332 -0.0156,-0.0254 -0.0117,-0.0195 -0.0274,-0.0195 -0.0215,-0.0176 -0.0312,-0.0176 -0.0273,-0.0137 -0.0645,-0.0215 -0.0762,-0.008 h -0.0762 l -0.082,0.0137 -0.0801,0.0195 -0.0801,0.0273 -0.0801,0.0332 -0.0664,0.0449 -0.0645,0.0547 -0.0586,0.0586 -0.0293,0.0293 -0.0234,0.0195 -0.0605,0.0352 -0.0312,0.008 -0.0254,0.01 -0.0312,0.002 -0.0332,-0.006 -0.0625,-0.008 -0.0703,-0.0156 -0.13867,-0.0488 -0.14258,-0.0566 -0.14062,-0.0312 -0.0703,-0.008 -0.0391,0.004 -0.0312,0.008 -0.0351,0.0117 -0.0391,0.008 -0.0293,0.0234 -0.0352,0.0234 -0.0918,0.0527 -0.0352,0.0176 -0.0371,0.01 -0.0644,0.006 -0.0254,-0.004 -0.0254,-0.0137 -0.0274,-0.0176 -0.0215,-0.0176 -0.0195,-0.0195 -0.0137,-0.0273 -0.0371,-0.0644 -0.0254,-0.0664 -0.0996,-0.3125 -0.0254,-0.0723 -0.0371,-0.0586 -0.0137,-0.0254 -0.0215,-0.0254 -0.0195,-0.0195 -0.0195,-0.0137 -0.11524,-0.0703 -0.0996,-0.0742 -0.0937,-0.0742 -0.0957,-0.0879 -0.0859,-0.10352 -0.084,-0.11523 -0.0801,-0.13086 -0.0762,-0.15039 -0.0527,-0.12696 -0.0273,-0.10351 -0.006,-0.082 0.002,-0.0352 0.004,-0.0273 0.0117,-0.0273 0.01,-0.0215 0.0176,-0.0215 0.0176,-0.0156 0.0176,-0.008 0.0254,-0.0156 0.0566,-0.0117 0.0566,-0.01 0.17969,-0.0137 0.0586,-0.0117 0.0234,-0.008 0.0195,-0.01 0.0234,-0.0156 0.0176,-0.01 0.0293,-0.0352 0.0274,-0.0566 0.0332,-0.0488 0.0293,-0.0371 0.0351,-0.0371 0.0293,-0.0215 0.0352,-0.0254 0.0293,-0.0137 0.0391,-0.0117 0.0703,-0.004 0.0684,0.008 0.0723,0.0156 0.0703,0.0137 0.0645,0.0215 0.0703,0.01 0.0312,0.004 0.0273,0.004 0.0312,-0.01 0.0293,-0.002 0.0488,-0.0312 0.0293,-0.0215 0.0234,-0.0371 0.0156,-0.0352 0.0215,-0.041 0.0352,-0.11328 0.0332,-0.13086 0.041,-0.13281 0.0527,-0.12696 0.0606,-0.11914 0.0742,-0.11328 0.0859,-0.11718 0.0449,-0.0508 0.0527,-0.0605 0.11914,-0.0977 0.0274,-0.0273 0.0254,-0.0293 0.0527,-0.0606 0.0371,-0.0703 0.0332,-0.0762 0.0234,-0.0762 0.0195,-0.084 0.043,-0.17383 0.0391,-0.16015 0.0254,-0.0762 0.0312,-0.0781 0.0391,-0.0644 0.0215,-0.0293 0.0312,-0.0273 0.0234,-0.0234 0.0293,-0.0293 0.0352,-0.0156 0.0391,-0.0176 0.13868,-0.0723 0.0547,-0.0332 0.0469,-0.0352 0.0332,-0.0371 0.0312,-0.0293 0.0176,-0.0352 0.0137,-0.0352 0.006,-0.0273 -0.006,-0.0625 -0.0137,-0.0254 -0.0156,-0.0254 -0.0254,-0.0254 -0.0293,-0.0176 -0.0254,-0.0195 -0.0332,-0.0176 -0.0371,-0.01 -0.0801,-0.0234 h -0.082 l -0.082,0.006 -0.043,0.0117 -0.043,0.0156 -0.0723,0.0488 -0.0352,0.0293 -0.0293,0.0371 -0.0273,0.0352 -0.0234,0.0488 -0.0274,0.0508 -0.0215,0.041 -0.0586,0.0742 -0.0273,0.0215 -0.0254,0.0156 -0.0312,0.008 -0.0234,0.01 -0.0332,0.004 -0.0234,-0.006 -0.0547,-0.0234 -0.0195,-0.0176 -0.0195,-0.0273 -0.0215,-0.0195 -0.0156,-0.0312 -0.0156,-0.0254 v -0.002 l -0.0156,-0.0312 v -0.002 l -0.008,-0.0391 -0.01,-0.0332 -0.002,-0.041 0.002,-0.0332 0.002,-0.041 v -0.002 l 0.0117,-0.0391 0.01,-0.043 0.0156,-0.041 0.0215,-0.0371 0.0293,-0.043 0.0293,-0.0371 0.0391,-0.0352 0.043,-0.0312 0.0469,-0.0293 0.0547,-0.0391 0.041,-0.0312 0.0312,-0.0293 0.0215,-0.0293 0.006,-0.0156 0.004,-0.0117 0.006,-0.0137 v -0.0137 l -0.008,-0.0137 -0.002,-0.0137 -0.006,-0.006 -0.008,-0.0137 -0.0195,-0.0176 -0.0273,-0.0195 -0.0391,-0.0176 h -0.002 l -0.0371,-0.01 -0.0899,-0.0195 -0.10156,-0.0137 -0.10938,-0.004 -0.10742,0.008 -0.0976,0.0137 -0.0117,-0.004 h -0.002 v -0.002 l -0.1621,-0.043 -0.1504,-0.0625 -0.15234,-0.0762 -0.14062,-0.0918 -0.0664,-0.0488 -0.0684,-0.0547 -0.0605,-0.0566 -0.0625,-0.0645 -0.0547,-0.0644 -0.0566,-0.0703 -0.0488,-0.0684 -0.002,-0.002 -0.0449,-0.0781 -0.0195,-0.0312 v -0.002 l -0.0156,-0.0391 -0.01,-0.0391 -0.006,-0.0684 0.004,-0.0332 0.004,-0.0352 0.008,-0.0332 v -0.002 l 0.0176,-0.0351 0.0176,-0.0293 0.0156,-0.0273 0.0234,-0.0293 0.0527,-0.0586 0.0586,-0.0469 0.0723,-0.0449 0.0723,-0.0332 0.0742,-0.0312 0.0801,-0.0274 0.0801,-0.0195 0.0762,-0.006 h 0.0762 l 0.0684,0.002 0.0391,0.01 0.0371,-0.002 h 0.002 l 0.0312,0.004 0.0371,-0.01 0.0312,-0.01 0.0371,-0.01 0.0605,-0.0312 0.0605,-0.0391 0.0586,-0.0527 0.0527,-0.0488 v -0.002 l 0.0527,-0.0586 v -0.002 l 0.21289,-0.24804 0.0527,-0.0586 0.0605,-0.0508 0.0586,-0.0391 h 0.002 l 0.0644,-0.0371 0.0801,-0.0273 h 0.002 l 0.0742,-0.0215 0.0312,-0.002 0.0312,0.004 0.0391,0.008 0.0117,0.002 0.0254,0.0137 0.0273,0.0117 0.0469,0.0273 0.0391,0.0332 0.0488,0.043 0.082,0.0742 0.0449,0.0371 h 0.002 l 0.0527,0.0312 0.0273,0.01 0.0332,0.0137 0.0293,0.004 0.0332,0.004 0.0391,0.004 0.0371,-0.004 0.0879,-0.0195 0.082,-0.006 0.0879,0.006 0.0977,0.0273 0.0918,0.0391 0.0977,0.0547 0.0937,0.0527 0.17968,0.12305 0.16211,0.11133 0.0664,0.041 0.0586,0.0234 0.0273,0.0117 0.0488,-0.004 0.0117,-0.0156 0.0117,-0.008 0.006,-0.006 -0.002,-0.0137 0.01,-0.0273 0.004,-0.0352 -0.002,-0.0352 0.01,-0.0332 0.0137,-0.0625 0.0332,-0.0644 0.0332,-0.0644 0.041,-0.0645 0.043,-0.0645 0.0996,-0.12305 0.0918,-0.12109 0.0449,-0.0606 0.0312,-0.0625 0.0274,-0.0625 0.0215,-0.0644 0.004,-0.0273 0.004,-0.0352 -0.006,-0.0664 -0.01,-0.0352 0.004,-0.0312 0.002,-0.0293 0.0117,-0.0352 0.0117,-0.0273 0.0156,-0.0273 0.0469,-0.0586 0.0469,-0.0527 0.0586,-0.0508 0.12305,-0.10352 0.0606,-0.0547 0.0586,-0.0527 0.0703,-0.0859 0.0156,-0.0293 0.0156,-0.0352 0.0117,-0.0332 0.01,-0.0293 0.002,-0.041 -0.006,-0.0742 -0.008,-0.041 -0.0176,-0.0449 -0.0469,-0.11914 -0.0156,-0.0469 -0.004,-0.041 0.004,-0.0273 -0.002,-0.0137 0.006,-0.006 0.006,-0.008 0.0117,-0.008 0.006,-0.008 0.0371,-0.002 0.0254,0.004 0.0332,0.006 0.0332,0.0156 0.0781,0.0371 0.0508,0.0293 0.0293,0.0176 h 0.002 l 0.29101,0.19531 h 0.002 l 0.0449,0.0293 0.0215,0.0117 h 0.0117 l -0.002,-0.006 v -0.002 l -0.006,-0.0117 -0.0156,-0.0273 -0.0762,-0.0879 -0.0352,-0.0508 v -0.002 -0.006 l 0.0117,0.0117 0.0273,0.0195 0.35352,0.32618 0.25195,0.20507 0.12695,0.0859 0.1211,0.0801 0.11132,0.0508 0.0508,0.0176 0.0449,0.008 0.0391,0.004 0.0176,-0.008 0.0195,-0.002 0.0117,-0.006 0.0195,-0.0156 0.01,-0.008 0.0117,-0.0215 0.0215,-0.043 0.041,-0.0508 0.0899,-0.12891 0.22265,-0.32421 0.10547,-0.17774 0.041,-0.0918 0.0449,-0.0859 0.0312,-0.0898 0.0254,-0.084 0.0137,-0.082 0.004,-0.082 -0.004,-0.0352 0.006,-0.0273 0.0117,-0.0274 0.0332,-0.043 0.0234,-0.0156 0.0234,-0.0176 0.0312,-0.008 0.0625,-0.0117 0.0762,0.002 0.1582,0.008 0.14649,0.0156 0.0664,0.008 0.0566,0.004 0.043,-0.004 0.0117,-0.008 0.002,-0.002 h 0.006 l 0.006,-0.008 v -0.004 l 0.004,-0.008 v -0.002 -0.0195 l -0.0156,-0.0312 h -0.002 l -0.006,-0.008 v -0.0137 h 0.0117 l 0.0137,0.006 0.0312,0.0117 0.19922,0.10546 0.10547,0.0527 0.0508,0.0156 0.0547,0.0117 0.0547,-0.006 0.0117,-0.0156 h 0.006 l 0.002,-0.004 0.004,-0.002 -0.002,-0.0156 0.006,-0.0117 0.004,-0.0293 -0.002,-0.0274 0.006,-0.0254 0.01,-0.0234 0.0293,-0.0352 0.0176,-0.01 0.0254,-0.008 0.0234,-0.008 0.0547,-0.01 h 0.0586 l 0.13867,0.01 0.13477,0.0176 h 0.002 l 0.0566,0.008 0.0937,-0.006 0.01,-0.01 h 0.002 0.006 l 0.006,-0.006 0.0117,-0.008 h 0.002 l -0.002,-0.008 0.006,-0.008 h 0.002 l -0.004,-0.0391 -0.0312,-0.0742 -0.0371,-0.0781 -0.0449,-0.0703 -0.0488,-0.0781 -0.1211,-0.14062 -0.13086,-0.13867 h -0.002 l -0.27344,-0.27149 -0.1289,-0.13476 -0.10547,-0.13281 -0.0352,-0.0391 -0.0234,-0.0508 v -0.002 l -0.0234,-0.0469 -0.0156,-0.0449 -0.0586,-0.20703 -0.0176,-0.0469 -0.0215,-0.0391 -0.0254,-0.0449 -0.0254,-0.0332 -0.0156,-0.0176 -0.0195,-0.0117 -0.0215,-0.0195 -0.0195,-0.0137 -0.0195,-0.004 -0.0254,-0.0117 h -0.002 l -0.0508,-0.0156 -1.22461,-0.19727 -0.0762,-0.0156 -0.0723,-0.0352 -0.0781,-0.041 h -0.002 l -0.084,-0.0488 h -0.002 l -0.16797,-0.13477 -0.17773,-0.15625 -0.66406,-0.65039 -0.0937,-0.0605 -0.11133,-0.0527 h -0.002 l -0.1211,-0.0391 -0.13672,-0.0293 -0.55664,-0.0859 -0.12695,-0.0234 h -0.002 l -0.10742,-0.0391 -0.0547,-0.0234 -0.0449,-0.0234 -0.0391,-0.0234 -0.002,-0.002 -0.0332,-0.0371 -0.0215,-0.0312 -0.0234,-0.0469 -0.0156,-0.0449 -0.004,-0.0547 0.002,-0.0547 0.006,-0.0625 0.0195,-0.0762 0.0332,-0.0781 0.23828,-0.6582 0.0371,-0.0781 0.041,-0.0703 0.0371,-0.0703 0.0527,-0.0645 0.0449,-0.0586 0.0586,-0.0527 0.0586,-0.0469 0.0742,-0.0312 0.0977,-0.041 h 0.002 l 0.0762,-0.0488 0.0391,-0.0215 0.0215,-0.0293 0.0234,-0.0234 0.0156,-0.0293 0.0176,-0.0195 0.0215,-0.0566 0.004,-0.0274 0.008,-0.0547 v -0.002 l -0.0234,-0.28906 0.01,-0.0625 0.004,-0.0352 0.01,-0.0273 0.01,-0.0352 0.0156,-0.0293 0.0234,-0.0274 v -0.002 l 0.0215,-0.0352 0.0234,-0.0352 0.0234,-0.0352 0.0156,-0.0293 0.01,-0.0352 0.004,-0.0332 -0.008,-0.0957 -0.0156,-0.0254 -0.01,-0.0332 v -0.002 l -0.0351,-0.0566 -0.0781,-0.11719 -0.0859,-0.1211 -0.0312,-0.0664 v -0.002 l -0.004,-0.01 -0.01,-0.0215 -0.01,-0.0332 -0.01,-0.0332 -0.006,-0.0762 0.004,-0.041 0.008,-0.0391 0.0156,-0.0371 0.0176,-0.041 0.0273,-0.0488 0.0469,-0.0664 0.0508,-0.0566 0.0527,-0.0469 0.0605,-0.0391 0.0547,-0.0234 0.0606,-0.0273 h 0.002 l 0.0606,-0.01 0.0644,-0.0117 0.13086,-0.01 0.13281,-0.004 0.19532,-0.0156 0.0664,-0.0176 0.10547,0.0254 0.0293,-0.0176 0.0293,-0.0215 h 0.002 l 0.0644,-0.0391 0.0508,0.01 h 0.002 l 0.0508,0.01 0.082,-0.006 0.0371,-0.0176 0.0351,-0.01 0.0312,-0.0234 0.0293,-0.0156 0.0234,-0.0273 0.0234,-0.0293 0.0391,-0.0566 v -0.002 l 0.0391,-0.0723 0.0312,-0.0762 0.0625,-0.16211 0.0332,-0.0762 0.0391,-0.0703 0.0742,-0.0957 0.0352,-0.0293 0.0293,-0.0234 0.0371,-0.0176 0.0859,-0.0332 0.0625,-0.01 0.0664,-0.0273 h 0.002 l 0.0664,-0.0312 0.0664,-0.0391 0.0664,-0.041 0.0664,-0.0449 0.0586,-0.0586 v -0.002 l 0.0508,-0.0566 0.0527,-0.0586 0.0391,-0.0723 0.0391,-0.0703 0.0195,-0.0684 0.0117,-0.084 0.004,-0.0332 v -0.002 l 0.004,-0.0391 -0.0117,-0.041 -0.004,-0.0469 v -0.002 l -0.0137,-0.0371 -0.0117,-0.0488 -0.0254,-0.0645 v -0.002 l -0.0156,-0.0586 v -0.002 l -0.01,-0.0644 v -0.002 l -0.0254,-0.31055 -0.0176,-0.12695 -0.0176,-0.0684 -0.0176,-0.0664 -0.0332,-0.0723 -0.0293,-0.0723 -0.0449,-0.0703 -0.0488,-0.0781 -0.0918,-0.0957 -0.0742,-0.0684 -0.002,-0.002 -0.0371,-0.0215 -0.0352,-0.0273 -0.0371,-0.008 -0.0332,-0.0117 -0.0332,-0.0117 -0.0312,-0.006 -0.0625,0.006 -0.0625,0.0117 -0.0605,0.0195 -0.11719,0.0488 -0.0566,0.0195 -0.125,0.01 -0.0332,-0.0137 -0.0312,-0.002 -0.0664,-0.0371 -0.0332,-0.0234 -0.082,-0.0762 -0.0488,-0.0508 -0.084,-0.10157 -0.0859,-0.11718 -0.082,-0.10156 -0.0488,-0.0508 -0.0566,-0.0508 -0.0508,-0.0371 -0.0664,-0.0351 -0.0664,-0.0293 -0.0762,-0.0195 h -0.002 l -0.0879,-0.006 h -0.002 l -0.0859,-0.008 -0.14063,0.004 -0.22851,-0.0254 h -0.002 l -0.0762,-0.0195 -0.0781,-0.0195 -0.0703,-0.0293 h -0.002 l -0.0644,-0.0371 -0.0547,-0.0352 -0.0254,-0.0254 -0.0156,-0.0332 -0.0215,-0.0254 -0.0156,-0.0312 -0.0195,-0.0684 v -0.002 l -0.002,-0.0371 0.002,-0.043 0.01,-0.041 0.01,-0.0488 0.041,-0.10547 0.0273,-0.0566 0.0391,-0.0566 0.0469,-0.0586 0.0527,-0.0508 0.0547,-0.0469 0.0586,-0.0371 h 0.002 l 0.0586,-0.0391 0.0664,-0.0332 0.0684,-0.0234 0.0664,-0.0215 0.0762,-0.0117 0.0684,-0.0117 h 0.0781 l 0.0684,0.008 0.0703,0.0156 0.0723,0.0215 0.0644,0.0215 0.0332,0.0117 0.0254,0.006 0.0508,-0.004 0.0234,-0.01 0.0176,-0.008 0.0195,-0.01 0.0176,-0.0137 0.0117,-0.0156 0.0117,-0.0195 0.01,-0.0156 0.0117,-0.0274 0.0137,-0.0488 0.01,-0.0625 v -0.0684 l 0.002,-0.14843 v -0.002 l -0.0195,-0.36523 -0.0332,-0.60352 -0.004,-0.12109 -0.004,-0.11719 0.0117,-0.11523 0.0156,-0.125 0.0176,-0.14258 0.0469,-0.16016 0.0234,-0.084 0.0312,-0.0859 0.0371,-0.0762 0.0469,-0.0723 0.0449,-0.0644 0.0586,-0.0527 h 0.002 l 0.0273,-0.0215 h 0.002 l 0.0274,-0.0234 h 0.002 l 0.0293,-0.0156 0.0371,-0.01 0.0371,-0.01 0.0742,-0.006 h 0.002 l 0.0391,0.0117 0.0449,0.008 0.0449,0.0176 h 0.002 l 0.0976,0.0469 0.17969,0.10938 0.14844,0.0644 0.0664,0.0137 0.0586,0.008 0.0937,-0.006 0.0352,-0.0176 0.0371,-0.0215 0.0293,-0.0234 0.0215,-0.0352 v -0.002 l 0.0234,-0.0352 0.0215,-0.041 0.0312,-0.0977 0.0586,-0.20899 0.0293,-0.11132 0.043,-0.0996 0.0274,-0.0508 0.0273,-0.0488 0.0293,-0.0352 0.0391,-0.0449 0.043,-0.0312 0.0488,-0.0234 0.0547,-0.0234 0.0625,-0.0195 0.0195,-0.008 -0.0508,-0.0566 -0.043,-0.0586 v -0.002 l -0.0352,-0.0566 -0.0293,-0.0586 -0.0293,-0.0664 -0.0254,-0.0664 -0.0352,-0.13282 -0.0195,-0.0742 -0.0195,-0.14844 -0.004,-0.14844 0.008,-0.14453 0.0137,-0.14453 0.0137,-0.13477 0.006,-0.16406 v -0.082 l -0.0137,-0.16992 -0.0176,-0.0801 -0.0274,-0.0723 -0.0234,-0.0684 -0.0215,-0.0312 v -0.002 l -0.0137,-0.0234 -0.0215,-0.0254 -0.0274,-0.0195 -0.0195,-0.0176 -0.0273,-0.0117 -0.0312,-0.0117 -0.0645,-0.008 -0.0762,0.006 -0.041,0.0156 -0.0312,0.01 -0.0254,0.0156 -0.0469,0.0449 -0.0117,0.0215 -0.0156,0.0215 -0.01,0.0273 -0.006,0.0273 -0.0156,0.0547 0.002,0.0703 -0.01,0.1289 -0.008,0.0684 -0.006,0.0684 -0.0215,0.0625 -0.01,0.0371 -0.0176,0.0273 -0.0156,0.0293 -0.0234,0.0293 -0.0312,0.0215 -0.0273,0.0293 -0.0371,0.0156 -0.0352,0.0254 -0.0976,0.0332 -0.10547,0.0234 -0.0449,0.002 -0.0449,-0.004 -0.0449,-0.004 -0.0312,-0.002 -0.0391,-0.0117 -0.0332,-0.0176 -0.0274,-0.0117 -0.0254,-0.0254 -0.0566,-0.043 -0.041,-0.0508 -0.043,-0.0586 -0.0781,-0.12109 v -0.002 l -0.0371,-0.0586 -0.0976,-0.10156 -0.0254,-0.0254 -0.0332,-0.0156 -0.0254,-0.0195 h -0.002 l -0.0391,-0.0176 -0.0332,-0.01 -0.043,-0.006 -0.0976,-0.0254 -0.0449,-0.01 -0.041,-0.0234 -0.0332,-0.0195 -0.0312,-0.0234 h -0.002 l -0.0254,-0.0254 -0.0293,-0.0332 -0.0215,-0.0312 -0.0215,-0.0312 -0.0312,-0.0723 -0.0254,-0.0801 -0.0117,-0.082 -0.008,-0.0879 v -0.0879 l 0.004,-0.1836 0.0312,-0.33789 0.01,-0.27148 0.008,-0.11524 0.0176,-0.125 0.006,-0.0605 0.0215,-0.0645 0.0195,-0.0703 0.0254,-0.0684 0.0703,-0.14843 0.10156,-0.17774 0.0957,-0.14453 0.10352,-0.11719 0.0937,-0.10156 0.0996,-0.0957 v -0.002 l 0.0879,-0.0879 0.082,-0.0937 0.0391,-0.0508 0.0391,-0.0508 0.0352,-0.0508 0.0273,-0.0566 0.15235,-0.29102 0.0723,-0.14258 0.0645,-0.14062 0.0254,-0.0762 0.0215,-0.0703 0.0117,-0.0742 0.006,-0.0781 v -0.0742 l -0.006,-0.0742 -0.0117,-0.0801 -0.0293,-0.0723 -0.0312,-0.0644 -0.002,-0.002 -0.0371,-0.0586 -0.0351,-0.0566 v -0.002 l -0.0488,-0.0566 -0.0469,-0.0508 -0.0566,-0.0508 -0.0527,-0.043 -0.0664,-0.0371 -0.0605,-0.041 -0.0723,-0.0293 h -0.002 l -0.0703,-0.0273 -0.0762,-0.0273 -0.002,-0.002 -0.0762,-0.0215 -0.0781,-0.0137 -0.082,-0.0137 h -0.002 l -0.0879,-0.006 -0.0391,-0.006 -0.0332,-0.01 -0.0254,-0.0117 -0.0254,-0.0195 -0.0137,-0.0195 -0.0215,-0.0234 v -0.002 l -0.0176,-0.0527 -0.01,-0.0254 -0.008,-0.0352 -0.006,-0.0723 v -0.002 l -0.006,-0.14649 0.002,-0.082 -0.0156,-0.0762 -0.0176,-0.0801 -0.0137,-0.0332 -0.0156,-0.0312 -0.0234,-0.0391 -0.0215,-0.0332 -0.0332,-0.0254 -0.0332,-0.0234 -0.041,-0.0234 -0.0449,-0.0234 -0.0527,-0.0156 -0.0586,-0.0176 -0.0957,-0.0137 -0.082,-0.008 h -0.002 l -0.0742,0.0137 -0.0684,0.0195 -0.0605,0.0312 -0.0605,0.0332 -0.0469,0.0449 -0.0547,0.041 -0.1836,0.20703 -0.0488,0.0469 -0.0586,0.0508 -0.0586,0.0391 -0.0684,0.0371 -0.0899,0.0351 -0.0879,0.0293 -0.0742,0.006 h -0.002 l -0.0625,-0.01 -0.0254,-0.006 h -0.002 l -0.0254,-0.01 -0.0254,-0.0137 -0.0274,-0.0156 -0.0469,-0.0312 -0.0391,-0.0449 -0.0918,-0.0937 -0.041,-0.0469 h -0.002 l -0.0527,-0.0488 -0.0547,-0.0449 -0.0605,-0.041 -0.0703,-0.0371 h -0.002 l -0.084,-0.0195 -0.13477,-0.0449 h -0.002 l -0.0508,-0.0156 -0.0391,-0.0234 h -0.002 l -0.0274,-0.0254 -0.0195,-0.0254 -0.008,-0.0117 -0.002,-0.002 -0.004,-0.0137 h -0.002 l -0.006,-0.006 -0.002,-0.0137 0.006,-0.0137 v -0.0137 l 0.01,-0.0273 0.0117,-0.0273 0.0137,-0.0371 0.0547,-0.0566 0.0566,-0.0664 0.12109,-0.14063 0.0586,-0.0781 0.0215,-0.043 0.0156,-0.0332 v -0.002 l 0.0156,-0.043 0.01,-0.0469 -0.008,-0.0879 -0.0156,-0.041 -0.0176,-0.0449 -0.0352,-0.0508 -0.043,-0.0449 -0.0332,-0.0391 -0.0332,-0.0234 -0.0332,-0.0254 -0.0332,-0.0176 -0.0273,-0.0117 h -0.002 l -0.0293,-0.01 -0.0312,-0.006 h -0.002 l -0.0312,0.002 h -0.0644 l -0.0606,0.01 -0.11914,0.0371 -0.0605,0.0117 -0.0937,0.008 h -0.002 -0.004 l -0.0273,-0.006 -0.0312,-0.004 h -0.002 l -0.0312,-0.01 -0.0664,-0.0352 -0.0332,-0.0273 -0.0332,-0.0293 -0.0703,-0.0762 v -0.002 l -0.0703,-0.10156 -0.0605,-0.11914 -0.0391,-0.0898 -0.0176,-0.0488 -0.008,-0.0391 -0.004,-0.0488 h -0.002 l -0.002,-0.0254 0.004,-0.0352 0.004,-0.0332 v -0.002 l 0.0117,-0.0273 0.008,-0.0273 0.0274,-0.0586 0.0351,-0.0488 0.0801,-0.0938 0.0391,-0.0566 0.002,-0.002 0.0332,-0.0566 0.0332,-0.0625 0.0176,-0.0762 v -0.002 l 0.01,-0.041 0.004,-0.041 -0.004,-0.0937 v -0.002 l -0.0117,-0.0996 -0.0215,-0.0879 -0.0312,-0.0801 -0.0371,-0.0703 v -0.002 l -0.043,-0.0645 -0.0488,-0.0566 -0.0547,-0.043 -0.0586,-0.0371 -0.0605,-0.0352 -0.0645,-0.0293 -0.0664,-0.0156 -0.0645,-0.0137 -0.0703,-0.0176 -0.12695,-0.004 -0.11914,0.01 -0.0625,0.0117 -0.12891,0.0391 -0.26757,0.0664 -0.0625,0.0117 -0.0664,0.0117 h -0.0645 l -0.0684,-0.002 h -0.002 l -0.0645,-0.008 -0.0644,-0.0254 -0.0586,-0.0274 -0.0664,-0.043 -0.3457,-0.11523 -0.28711,0.13086 -0.043,-0.46485 v -0.002 l -0.0547,-0.0566 -0.0605,-0.0508 -0.0742,-0.0547 -0.0742,-0.0488 -0.0859,-0.041 -0.0781,-0.041 -0.0918,-0.0332 -0.084,-0.0215 -0.084,-0.0137 -0.0762,-0.008 -0.0762,0.006 -0.0351,0.01 -0.0312,0.0156 -0.0293,0.0156 -0.0312,0.0156 -0.0234,0.0234 v 0.002 l -0.0234,0.0273 -0.0215,0.0352 -0.0176,0.0352 -0.0156,0.043 -0.008,0.0469 -0.0195,0.084 -0.0254,0.0762 -0.0254,0.0781 -0.0312,0.0703 -0.041,0.0645 -0.0254,0.0312 -0.0195,0.0254 v 0.002 l -0.0469,0.0586 -0.0449,0.0508 -0.0547,0.0508 -0.0527,0.0391 -0.0527,0.043 -0.0605,0.0332 -0.0547,0.0312 -0.0606,0.0312 -0.125,0.0449 -0.0664,0.0254 -0.0664,0.0313 -0.0606,0.041 -0.0664,0.0371 -0.0527,0.0547 -0.0527,0.0488 -0.0527,0.0527 -0.0469,0.0664 -0.0449,0.0625 v 0.002 l -0.0371,0.0625 -0.041,0.0644 -0.0254,0.0703 -0.0312,0.0781 -0.0215,0.0684 -0.0176,0.0781 -0.0137,0.0742 -0.0176,0.0977 -0.0156,0.041 -0.0156,0.043 -0.0215,0.0293 -0.0195,0.0273 -0.0215,0.0293 -0.0234,0.0215 -0.0312,0.0156 -0.0234,0.01 -0.0312,0.0156 -0.0625,0.006 -0.0645,-0.01 -0.0312,-0.004 -0.0644,-0.0215 -0.0684,-0.0371 -0.0645,-0.041 h -0.002 l -0.0606,-0.0566 -0.0605,-0.0566 -0.0566,-0.0703 -0.043,-0.0703 -0.0449,-0.0781 -0.0156,-0.041 -0.0254,-0.0273 -0.0293,-0.0234 -0.0273,-0.0176 -0.0312,-0.004 -0.0332,-0.0117 -0.0742,0.006 -0.082,0.0117 -0.0801,0.0293 -0.17774,0.0586 -0.0801,0.0273 -0.0801,0.0195 -0.0762,0.006 -0.0391,-0.002 -0.0312,-0.006 -0.0273,-0.0176 -0.0273,-0.0176 -0.0254,-0.0254 -0.0176,-0.0332 -0.0215,-0.0391 -0.0215,-0.10547 v -0.002 l -0.006,-0.0664 0.004,-0.041 0.004,-0.0352 0.0195,-0.0703 0.0312,-0.0703 0.0391,-0.0703 v -0.002 l 0.0977,-0.13477 0.10352,-0.13086 0.0508,-0.0723 0.0449,-0.0723 0.0449,-0.0762 v -0.002 l 0.0254,-0.0684 v -0.002 l 0.0195,-0.082 0.002,-0.043 0.004,-0.041 -0.004,-0.0469 -0.01,-0.0391 -0.0156,-0.0469 -0.0176,-0.0469 -0.0606,-0.12891 v -0.002 l -0.043,-0.0566 v -0.002 l -0.0488,-0.0566 -0.0469,-0.0488 -0.0547,-0.0527 -0.0605,-0.0352 -0.0586,-0.0293 -0.0586,-0.0254 -0.0332,-0.01 -0.0332,-0.004 -0.0977,0.008 -0.0254,0.008 -0.008,0.002 -0.0351,0.0156 -0.0625,0.0332 -0.0352,0.0234 -0.0644,0.0645 v 0.002 l -0.0645,0.0781 -0.0215,0.0293 -0.0234,0.0234 -0.0254,0.0215 -0.0215,0.0156 -0.0332,0.01 -0.0293,0.01 -0.0645,0.004 -0.0625,-0.002 -0.0703,-0.01 -0.14062,-0.0215 -0.0723,-0.0156 -0.0742,-0.008 -0.0703,-0.002 -0.0684,0.0137 -0.0312,0.01 -0.0371,0.01 -0.0312,0.0234 -0.0293,0.0156 -0.0293,0.0273 v 0.002 l -0.0293,0.0274 v 0.002 l -0.0215,0.0352 -0.0293,0.043 -0.0391,0.0566 v 0.002 l -0.0469,0.0508 -0.0527,0.0449 -0.0547,0.0371 -0.0606,0.0273 -0.0703,0.0176 -0.0605,0.0195 -0.0742,0.006 -0.14062,-0.004 -0.14063,-0.0312 -0.0644,-0.0195 -0.13281,-0.0605 -0.0586,-0.0352 -0.0684,-0.0566 -0.0273,-0.0312 -0.0273,-0.0234 -0.0234,-0.0332 -0.0293,-0.0664 -0.0156,-0.0312 -0.002,-0.0351 -0.01,-0.0352 0.004,-0.0312 v -0.002 l -0.002,-0.0332 0.0117,-0.0684 0.0215,-0.0625 v -0.002 l 0.0332,-0.0684 0.0312,-0.0723 0.0449,-0.0645 0.0527,-0.0586 0.0527,-0.0586 0.0586,-0.0586 0.0586,-0.0527 0.0605,-0.0449 0.0293,-0.0234 0.0449,-0.0566 0.0176,-0.0293 0.0156,-0.0293 0.0117,-0.0332 0.0117,-0.0762 v -0.002 l 0.008,-0.0742 -0.041,-0.51367 -0.002,-0.082 0.0137,-0.082 0.01,-0.0351 0.01,-0.041 0.0156,-0.0371 0.0156,-0.0332 0.0234,-0.0293 v -0.002 l 0.0215,-0.0273 0.0527,-0.0527 0.0547,-0.0391 h 0.002 l 0.0586,-0.0371 0.20117,-0.0781 0.14453,-0.0371 0.14258,-0.0449 0.0664,-0.0332 0.0664,-0.0254 0.0605,-0.0391 0.0547,-0.043 v -0.002 l 0.0508,-0.0527 0.0391,-0.0566 0.0254,-0.041 v -0.002 l 0.0215,-0.0351 0.01,-0.0352 0.008,-0.0352 0.004,-0.0312 v -0.002 l -0.004,-0.0547 -0.008,-0.0273 -0.0137,-0.0234 -0.0137,-0.0215 -0.043,-0.0371 -0.0527,-0.0371 -0.0586,-0.0293 -0.0664,-0.0215 -0.0723,-0.0215 -0.14648,-0.0293 -0.26954,-0.041 -0.0508,-0.0156 -0.0391,-0.01 -0.0391,-0.0254 -0.0273,-0.0195 -0.0215,-0.0234 v -0.002 l -0.0156,-0.0312 -0.0137,-0.0274 -0.008,-0.10742 0.0117,-0.0762 0.0371,-0.16602 0.0176,-0.0898 0.0117,-0.082 -0.008,-0.11524 -0.01,-0.0332 -0.0156,-0.0332 -0.0273,-0.0312 -0.0605,-0.0586 -0.0918,-0.0391 -0.0586,-0.0176 -0.0703,-0.008 -0.13477,-0.0215 -0.1289,-0.0312 -0.13477,-0.0371 -0.19726,-0.0879 -0.0606,-0.0371 -0.0605,-0.043 -0.0605,-0.041 -0.0527,-0.0508 -0.0566,-0.0566 -0.0488,-0.0644 -0.0488,-0.0645 -0.0762,-0.14258 v -0.002 l -0.0234,-0.0723 -0.0371,-0.14649 -0.006,-0.0742 -0.0176,-0.14258 -0.006,-0.14844 -0.0156,-0.13477 -0.006,-0.0742 v -0.002 l -0.0391,-0.13281 -0.0273,-0.0586 -0.0469,-0.084 v -0.002 l -0.0488,-0.0762 -0.0508,-0.0703 v -0.002 l -0.0605,-0.0625 h -0.002 l -0.0664,-0.0547 -0.0684,-0.0586 -0.1543,-0.0957 -0.63867,-0.33789 -0.0879,-0.0606 -0.12891,-0.11914 -0.0449,-0.0664 -0.0352,-0.0644 -0.0312,-0.0644 -0.0234,-0.0606 -0.0547,-0.19922 -0.0234,-0.0664 v -0.002 l -0.0234,-0.0644 -0.0742,-0.12891 v -0.002 l -0.0566,-0.0703 -0.0684,-0.0645 -0.0664,-0.0547 -0.0684,-0.0488 -0.14453,-0.084 -0.28516,-0.13476 -0.13086,-0.0723 -0.0605,-0.0488 -0.0547,-0.0488 -0.0488,-0.0586 -0.043,-0.0644 -0.0312,-0.0859 -0.0332,-0.0859 -0.0332,-0.15429 -0.0117,-0.0762 -0.084,0.0488 -0.15234,0.0684 -0.0742,0.0234 -0.0684,0.0195 -0.0684,0.0137 -0.0566,0.004 -0.0312,-0.006 -0.0273,-0.0117 -0.0254,-0.0117 -0.0195,-0.01 -0.0215,-0.0195 -0.0137,-0.0254 v -0.002 l -0.0156,-0.0234 -0.0156,-0.0332 -0.008,-0.0352 -0.004,-0.0391 v -0.002 l -0.004,-0.0996 0.002,-0.0312 h -0.002 l -0.002,0.002 -0.0137,0.0293 -0.0176,0.0215 -0.0117,0.008 v 0.002 l -0.006,0.006 -0.0312,0.004 h -0.002 l -0.0273,-0.0254 -0.008,-0.0293 -0.0137,-0.0234 -0.0176,-0.0684 -0.0137,-0.0801 -0.0137,-0.0879 -0.006,-0.0762 z"
     id="berlin"
     fill="#8f8f8f"
     fill-rule="nonzero"
     style="stroke:#000000;stroke-width:0.5" />
  
</svg>
