<svg>
  <path d="M263.5 135.7h-.2l-.1.1-.1.1-.1.1-.1.1-.1.1h-.1l-.1.1h-.2v.1l-.2.1-.1.1-.1.1h-.1v.1h-.1l-.1.1h-.3v.1h-.1v.1h-.1v.2l.1.1v.1l.1.1v1h-.1v.2l.1.3v.1l-.2-.3v-.2l-.1-.2v-.4l-.1-.1v-.1l-.1-.2-.1-.1h-.2l-.3.2h-.1v.1h-.4l-.1.1H259.4l-.2.2H257.5v.1l-.2.1-.1.2-.2.2h-.1v.1l-.1.1h-.1v.1h-.2l-.2.1h-.2v.1l-.1.1V139.8h.7v.5l-.1.1-.2.2-.2.2-.2.1v.1l-.1.1v.1h-.1v.8l-.1.1v.1h-.1v.1h-.4v-.1l-.2-.1-.1-.2-.1-.1h-.1v-.1h-.1l-.1-.1h-.2l-.1.1v.1l-.2.2v.1h-.2l-.1-.1v-.1h-.1v-.1l-.1-.3v-.1l-.1-.1-.1-.1-.2-.1-.2-.1h-.2l-.1-.1H252v.1h-.7v.1h-.1l-.1.1v.2l-.3.1v.2h-.2l-.1.1V142.5h-.1v.1h-.1l-.1.1h-.5v.1h-.2v.1h-.2v-.4H250.2V141h-.1l-.2-.1h-.2l-.1-.1H249.2l-.1.1v.1l-.1.1v.1l-.1.1h-.1v.1h-.2v.1h-.2l-.2.1H248l-.2.1v.1l-.1.2v.9h.1V143.9h-.1v.1l-.1.2h-.1v.2h1.1l.1-.1.2-.2h.4v.4l.1.6v.4l.1.2v.1l.1.1.1.1h.1l.1.1v.1h.2l.3-.3h.1v-.1h.1v-.1h.2l.1-.1H251.1l.1.1v.4l-.1.1v.6l.1.1v.1h.1v.1h.1v.5l-.1.2-.1.1-.1.2-.1.2h-1.1v.1l-.1.1v.8h-.1v.2h-.1v.1h-.1l-.2.1h-.1l-.2.1-.1.1-.1.1-.1.1-.1.2v.1l-.1.2v.1l-.1.2V151h-.1V151.5h-.1v.1h-.5v-.1h-.2v-.1h-.1v-.2h-.1l-.1-.1-.1-.1-.2-.1-.1-.1h-.2l-.1-.1h-.3v-.1H245.8v-.1.4l-.1.1-.1.1-.2.2h-.1v.1h-.4l-.1.1-.1.2v.1h-.1v.1H243.8l-.1-.1-.1-.1-.1-.1-.2-.2v-.1h-.2v-.1l-.1-.1v-.6l-.1-.1h-.1v-.1h-.2v-.1h-.1v-.1h-.1v-.2l-.1-.1v-.4h.1v-.2H242.1l-.3-.1h-.8c-.3.2-.6.6-.8.6l-.6.2-.5.1v.5l-.1.2-.5.5a2 2 0 0 0-.4.8v.4l.1.2h.3v.8H238.9v.4h-.2v.3l.1.1v.3l.2.2.2.2.5.1.2.3v.3c-.3 0-.7.3-.8.8v1.1c0 .2.1.2.2.3v.2l-.1.7c-.1.4-.2.4-.6.4-.3 0-.4 0-.6.2-.2.2-.5.2-.6.4 0 0 0 .2-.2.2l-.3.2-.2.3-.2.2H235.6l-.1.1h-.7v-.1l-.1-.1v-.9l-.1-.1v-.1h-.1l-.1-.1H234.1l-.1-.1-.1-.1-.2-.1v-.1h-.1v-.1h-.6v-.2h-.1v-.8h-.1v-.1l-.1-.1-.1-.1h-.5l-.2-.1-.1-.1h-.2v-.1h-.5l-.1.1h-.1v.1l-.2.1v.1h-.2l-.1-.3v-.1l-.1-.1-.1-.1h-.7l-.1.1-.1.1v.5h-.1v.1h-.1v.1l-.5.3-.3.3-.1.4V160.2l-.1.1-.1.2h-.1l-.1.1v.2l-.1.1v.4l.2.3V161.9h.1V162.2l-.3.3h-.4v.1l-.3.1-.4.2v.1l-.1.1V164.4l.1.1v.1l.2.2h.1v.2h.1v.5h-.1l-.1.1-.2.1-.1.1-.1.1V166.8l.1.1h1.1l.1-.1v-.2l.1-.4v-.1h.1v-.1h.8l.3-.1h.1l.2-.1h.2v-.1l.3-.2H230.3v.1h.1v.2h.1V167.8h.1v.1h.1l.1.1h.8v.1h.2v.1H232l.2-.2.1-.1.1-.1h.1v-.1h.4v-.1h.1v-.1h.1v-.2l.2-.3v-.1l.1-.1.1-.1.1-.1h.1v-.1h.2l.1-.1h.4v1.3l-.1.2V168.1H234.7v-.1l.1-.2h.1v-.2h.1v-.1h.2v-.1H235.9l.3-.3v-.3l.1-.1v-.1h.1v-.1h.1v-.1h.2v-.1H237v.1l.1.1v.1l.1.1v.4h-.1v.1l-.1.2h-.1v.5h.2l.3.2h.1v.1h.1v.4h-.1v.1l-.1.1V169.2l-.2.3V169.7l-.1.1-.1.1h-.4l-.2.1v.1h-.1V171l.1.2.2.1.1.1h.1v.1h.1v.7h-.1v.1h-1.1v.1h-.1v.1l-.1.1v.1h-.8l-.1.1v.1h-.1v.5l.1.1.2.1.1.2v.1h.1V175l.1.1V176H235.8l.2.1h.1v.1h.1v.1h.1v.1h.1v.2h.1v.2l.1.1V177.1h.1v.1H237.6v.1l.1.2V177.8l-.1.2-.2.2v1.7l.1.2v.2h.1l.1-.1.3-.1H238.6l.2.2.1.1.3.3H239.4l.1.1.2.1h.1v.1l.1.1v.1l-.1.1-.1.2-.1.1v.7h-.1v.1h-.1l-.1.1h-.2l-.2.1-.1.1v.1h-.1v.2l.2.1.1.1h.1v.2h.1V183.8h.1v.5l.1.2-.3.4h-.1v.1h-.1v.5l.2.2v.1l.2.2v.2h.2v.1h.4l.1.1h.1v.1h.1l.2.2h.5v-.1h.1v-.1l.1-.1v-.4H240.3l-.1-.1v-.6h.1l.1-.2h.1l.1-.1h.4l.2.2H241.7v-.1l.1-.2H242l.2.2v.5l-.1.2h-.1v.2l-.1.1v.2h.1v.2l.2.2v.2h.1l.1.1h.7v-.1h.2v-.1h.1v-.1h.1v-.2l.2-.1v-.1h.2v.8l-.1.1v.4h.1v.1h.1l.2.1h.6v.1l.1.1.2.3v.2h.1v.1l.1.1v.1h.1v.2H244.3v.2l.3.3v1.2h.2l.1.1h.1l.1.1v.1l.1.1V191.3h-.1v.1H244.8l-.2.1-.3-.2-.2-.1h-.5v.1h-.1V192.6h-.1v.1h-.2l-.4-.2h-.2l.2.3.1.1.2.1.2.1.1.1v.1h.1v.4l-.1.2-.1.2v.3h-.4l-.3.4v.4l-.1.2v.1h-.1v1.1l-.1.1h-.2v.1h-.2v.2l-.1.1v.2l.1.2.1.1v.1h.1l.1.1h.4v-.2l.1-.2V197h.1v-.1H243.9v.1h.1v.5l.1.4-.2.3-.1.4v.2h.4v.1l.3.2H244.7v.1H245.7v.1h.2v.1l.1.2v.1h.1V200h.1v.1h.1v.1h.1l.3.1.1.1h.1v.1h.1V201.5l.1.1v.1h.1l.1.1h.1l.3.2h.1l.1.1v.1h.1v.2l.4.4h.6v.1h.2v.1h.1l.1.1.1.1v.1h.1v.2l.1.1V204.3l.1.1v.1h.1l.1.2h.1l.1.1h.2v.1H250.7v-.4h.1v-.1H251.6v.1h.2v-.2l.1-.2V203.7h-.1v-.1h-.7l-.1-.2h-.1l-.1-.1-.1-.2-.1-.1v-.4l.1-.1.2-.2.2-.1v-.1h.1l.1-.1v-.1l.1-.1.1-.2v-.1h.4l.2.2.2.1v.2h.1v.1h.1v.1h.5l.1-.2H253.4l.1.1v.1h.1v.1h.1v.1h.5l.1-.1h.1l.1-.1h.2l.1.1.1.1v.1l.1.1V203h-.1v.4l.1.1h.5l.1-.1.1-.2V202.8l.1-.2V201.2l-.1-.2V200.6l.1-.1.2-.3.1-.1v-.1l.1-.2.1-.1.1-.1h.6l.1.1h.1l.1.1v.1h.1v1.1h.1v.1h.1v.1h.2v.1h.1v.2l.1.1v.2l.1.1h.4l.3-.2h.6v-.1l.1-.1.2-.4v-.1h.4v.1h.1l.1.2.1.2.1.1H260.8v-.1l.1-.2v-.1h.2v-.1H262.7l.1.1.1.1v.2h.1v.7h.1v.1l.1.1h.1v.2H263.6v.2h.2l.2.1 2.7 3 .1-.1h.1v-.1h.6v.1h.1l.1.1v.1l.2.2.2.4v.1h.1V207.9l.1.1.1.1v.1h.1v.1h.4V207h.1v-.2l.5-.6V205.3h.1v-.1h.2l.1-.1v-.2l.1-.1v-.1h.2v-.1h.8v-.1h.1l.1-.1v-.1h.2v-.1h.5l.1.1.1.1h.2l.1-.1v-.1l.1-.2v-.1h.1l.1-.1.1-.1.5-.2v-.9H273.6v.1h.1v.2h.1v.1h1l.2-.4v-.8l.1-.1h.7v-.1h.1v-.1h.1v-.1h.1l.1-.1h.2l.6.2.1-.4.1-.2V200.6h.1l.1-.1H278.2v-.1l.1-.1V199.5l.2-.3v-.1h.2l.1.1.1.1.1.1.1.1v.1h.1l.1.1h.4l.1-.1v-.1h.1v-.4l-1.6-.6v-.2h.1v-.1h.8v-.1h.1v-.1h.2v-.1H280.6l.2-.1.2-.2h.5v-.1h.2v-.1h.1v-.1l.1-.1.1-.1.2-.3.1-.1.1-.1h.1l.1-.1h.1l-.6-2.5.3 6.6h.5l.2-.2.2-.2h.5l.2-.1h.4v-.1h.1v-.2l.1-.2v-.4h.1v-.2h.1l.1-.1h.2l.2-.1h.5l.1.1h.2v-.2h.1V198.4h-.8v.1h-.2v-.7h-.2l-.1-.2h-.4v-.1h-.1V197.2l.1-.1v-.1l.1-.2v-.4h.6l.2.1h1.1v-.2H286.8v.1l.1.2.1.1.1.1h.1v.1h.2l.3.2h.1v.1h.1l.1.1v.1h.1V198.4l.1.1h.1l.6.2h.1v.4h-.1v.2h-.1v.4l.1.1.2.1.4-6.5H289.8V193l.1-.1v-.1l.3-.2h.1l.1-.1h.1v-.1l.2-.1v-.1h.2v-.1h.6v-.1h.1v-1.5h-.1v-.1h-.1v-.5l.2-.2H291.1v-.1h-.1V188.6l-.1-.1h-.1v-.1H290.5l-.1.1-.3.3-.1.1h-.2l-.1-.1v-.1l-.2-.3-.1-.1-.1-.1-.1-.1H289l.1 6.6v-.1l-.3-6.8v-.4l-.1-.2h-.4v-.1h-.1v-.1l-.1-.2V186.6h-.1v-.1h-.1l-.2-.3-.2-.4v-.5h-.1v-.2l-.1-.1h-.1v-.1h-.1v-.1h-1.3v.1h-.1l-.1.2v.1l-.2.2v.2h-.2v-.1l-.1-.1v-.2h-.1v-.1h-.1v-.1h-.1v-.1h-1.5l-.1-.2-.1-.1-.2-.2-.2-.1h-.1l-.1-.1h-.1v.2l-.1.1v.1h-.1v.1h-.5v-.1l-.2-.2h-.1v-.1h-.6v.2l-.1.1-.1.1H280.2l-.6-.2H279v-.1l-.1-.1v-.1h-.1v-.4l.1-.2v-.1h.1l.1-.2h.1l.1-.1h.4v-.1h-.1v-.6l-.1-.1v-.1h-.1v-.1H278.4l-.1-.1V181.4h-.1v-.1H277.5v.1h-.1v.1H276v-.1l-.1-.4-.1-.1-.2-.1v-.1h-.2v-.2h-.2v-.2l-.1-.1-.1-.2v-.4h.1l.2-.1h.1l.1-.1v-.1h.1v-.1H276.4l.1-.1v-.2l.1-.2v-.2h.1l.1-.2.1-.1.1-.1.1-.1.1-.1v-.1l.1-.2v-.2l.1-.2v-.1h.1v-.1l.1-.1.2-.1h.1v-.1h.1V176.4H277.2v.1l-.1.1v.1h-.1l-.1.1h-.1v-.1h-.1v-.4l.1-.1.1-.1h.1V175.8H276.3l-.2-.1-.1-.1-.2-.1-.1-.1-.1-.1-.1-.2h-.1v-.2h-.1V174.6h.1l.1-.1.1-.1h.6l.1-.1h.1l.1-.1.1-.1.2-.3h.1v-.1h.2v-.1H277.5l.1.1v.1h.2l.1.1h.5l.1.1h.1l.2.2h.2v.1h.2v-.2l.1-.1v-.1l.2-.2.1-.1v-.1l.1-.1v-.4h.1v-.1l.2-.1.1-.1.1-.1v-.6h.2v.1l.4.2v-.1l.3.3.3.2.2.2H282l.1-.1.1-.1.2-.4.1-.1v-.1l.1-.1v-.4h.1v-.1H283.4v-.1l.3.1H284v-.1h.6V171.1l-.2-.2-.1-.2-.3-.2-.1-.2-.2-.1v-.1l-.1-.3v-.1h-.1v-.1h-.1l-1.3-.3H281.6l-.2-.2-.2-.2-.6-.6h-.1l-.1-.1h-.1l-.2-.1-.5-.1H279.4v-.1h-.1v-.1h-.1v-.4l.3-.7v-.1l.1-.1v-.1h.2v-.1h.2v-.1h.1v-.1l.1-.1v-.6h.1v-.5l-.2-.2v-.4l.1-.1.1-.1h.2v-.1h.7l.1-.1H281.7l.1-.1v-.1l.1-.1v-.2h.1v-.1l.1-.1h.1l.1-.1h.2v-.1h.1l.1-.1.1-.1.1-.2v-1.2h-.1v-.2l-.1-.1h-.1l-.1-.2H281.4l-.1-.1v-.1l-.2-.2-.1-.1-.1-.1h-.5l-.3-.1h-.1l-.2-.1v-.1l-.1-.1V159.6l.1-.1.1-.1.1-.1h.1v-.1h.9V157h.1v-.2l.1-.1.1-.1h.1v-.1h.4l.2.2h.4l.1-.1v-.1l.1-.2v-.2h.1v-.1l.1-.1h.1l.1-.1v-.1h-.1v-.2l-.1-.2V154l-.1-.1v-.1h-.4l-.1.1v.5h-.1v.1h-.1l-.2.1h-.4v-.2l-.2-.1-.1-.2h-.2l-.1-.1h-.1v-.1h-.1v-.1l-.1-.2V152.3l.1-.1v-.2l.2-.1v-.2l.2-.1v-.1l.2-.1.1-.2h.1v-.1l.2-.4.1-.1v-.2h.1V149.8l-.1-.1v-.1h-.1v-.1h-.1l-.1-.1h-.1l-.2-.1H280.9l-.1-.1v-.4l-.1-.2v-.1h-.1v-.1h-.2v-.1h-.5v.1h-.1l-.2.3h-.1v.1h-.2l-.1.1H278.8v-.1l-.1-.1-.1-.1h-.1l-.1-.1h-.2v-.1h-.1V148l.2-.2v-.2h.1v-.2l-.1-.1-.1-.1H277.5l-.1-.1-.1-.2-.1-.1V146.2h.1v-.1h.1v-.7h-.1l-.1-.1h-.1l-.1-.1H275.6l-.4-.1h-.3v-.4h-.1v-.1h-.2v-.1h-.1l-.1-.1h-.5v.2l-.1.1v.2l-.1.1-.1.1-.1.1-.1.1h-.1v.1h-.2l-.2.1-.1.1-.1.1v.1h-.1v.1h-.1V146.4h-.1V146.7l-.1.1h-.1l-.1.1h-.2v-.1h-.2v-.2h-.1v-.1l-.1-.1H270.6v-.5l.1-.2h.1v-.2h.1v-.1l.1-.2v-.2l-.1-.2h-.1v-.1h-.1v-.1h-.5l-.1.2H269.2v.1h-.1v.1l-.1.1-.1.1H268.2l-.1-.1v-.1h-.1v-.5l.1-.1.1-.1.1-.1h.1v-.1l.1-.1V142.9l.1-.1h.2l.2-.2H269.3v-.1h.1l.1-.1v-.1h.1V142l-.1-.1H269.2l-.3-.1h-.1v-.1h-.1V140.8l-.2-.1H268.1l-.2-.1-.2-.1-.1-.1h-.1v-.1l-.1-.1-.1-.2-.1-.2v-.7l-.1-.1-.1-.2-.1-.1h-.1v-.1l-.2-.1-.7-.3v-.1l-.2-.1v-.2h-.1v-.3l-.1-.1v-.1l-.1-.1h-.1v-.1h-.1l-.2-.2-.3-.1h-.1v-.1h-.1v-.1l-.1-.1v-.2l-.1-.1v-.1h-.1l-.2.1h-.4v-.2h-.1V135.7h-.1z" id="berlin"
     fill="#8f8f8f"
     fill-rule="nonzero"
     style="stroke:#000000;stroke-width:0.5"/>
</svg>
