<svg>
  <path
     id="brest"
     fill="#54bff9"
     style="fill-rule:nonzero;stroke:#000000;stroke-width:0.5"
     d="m 161.43302,202.10395 -0.26339,0.51003 0.41633,0.0446 -0.26419,0.51766 -0.32031,1.0516 0.25143,0.56625 -0.0966,0.91877 0.52437,0.0559 -0.24641,0.34848 -0.43994,0.66629 -0.18802,0.43255 -0.004,-0.001 -0.011,0.0339 0.42016,0.47896 0.0205,1.25228 0.2208,0.45717 -0.37623,0.0656 -0.43819,-0.31387 -0.15062,0.62565 -0.43227,0.45022 -0.44224,1.15235 -0.43308,0.60649 -1.50153,0.27544 -0.2369,0.24514 0.22081,0.45717 -0.0452,0.42992 0.4542,0.15373 -0.29336,0.24609 -8e-5,0.24411 -0.30753,0.21153 0.34344,-0.23172 0.46109,0.58689 0.09,0.66146 0.37114,0.47531 -0.26966,0.56967 -0.0559,0.53184 0.31944,0.46988 -0.43151,0.60454 0.26724,0.95841 0.66784,0.60932 0.0453,0.60277 0.61222,0.16951 0.0258,1.20154 0.41028,0.64395 1.0692,0.33041 0.0283,0.70626 0.0904,0.17355 -0.0442,1.45428 0.14149,-0.001 -0.0691,0.0958 0.1177,0.32878 -0.52423,0.36905 0.001,1.01667 -0.41591,0.0362 -0.37252,0.96827 -0.50199,0.46112 -0.63255,-0.0665 -0.63371,0.28042 0.002,0.002 0.63379,-0.28112 0.63256,0.0665 0.50198,-0.46113 0.37266,-0.96827 0.41591,-0.0362 -0.002,-1.01674 0.52556,-0.36892 -0.11695,-0.32777 0.0699,-0.0964 1.53786,0.0249 0.74062,-0.57416 0.52684,0.54262 1.38602,0.24873 0.43826,0.86211 0.58868,0.39349 -0.0453,0.91586 -0.8949,0.50466 0.42016,0.47883 0.61184,-0.31778 1.40343,0.19938 0.52649,-0.0484 0.20299,-0.41345 0.57002,0.11249 0.0549,0.44043 1.37612,-0.61953 0.84279,1.0182 0.16681,0.88699 0.60241,0.81918 -0.10203,0.97021 -1.47616,1.03527 0.40716,0.58963 -0.18274,0.78913 -0.79102,0.4658 -1.03882,-0.10919 0.0948,0.60939 0.57244,1.03255 0.0694,0.87663 0.0955,0.60945 -1.07219,0.2084 -0.006,0.54615 0.5419,0.81284 -0.10757,1.02361 -0.53853,0.64727 0.0827,0.65999 0.86194,0.85547 -0.0296,0.75277 0.40574,1.19112 -0.24338,1.27562 0.5133,0.64565 -0.30496,1.3848 -0.12331,0.6888 0.20847,0.51081 -0.53719,1.27417 0.0123,-0.29535 -1.18636,-0.22985 -0.82451,0.88783 -0.42098,0.007 -0.51717,0.44411 -0.46266,-0.64945 -1.54934,1.3052 -0.0903,0.85914 0.23615,0.24005 0.005,0.4388 -0.7851,0.50638 -0.65771,-0.28576 -1.32844,0.1401 -0.75882,0.72788 -0.307,0.52451 -1.24107,0.0259 0.0701,-0.42813 0.57927,-0.48607 -0.0581,-0.47442 -0.23647,-0.64415 0.13245,-0.22036 0.11325,-0.68986 0.20504,-0.21425 0.0586,-0.151 -0.002,-0.002 -0.0585,0.15018 -0.20707,0.2131 -0.11272,0.69144 -0.13245,0.22036 0.23595,0.64257 0.058,0.47512 -0.57927,0.48595 -0.07,0.4273 -0.4559,0.003 -0.96263,-0.36899 -2.57043,-0.60037 -0.39845,0.82605 -0.93411,-0.14935 -0.19568,-0.13415 -0.63025,-0.005 -0.43244,-0.37496 -1.16869,1.12648 -0.74244,-0.94597 -0.51577,0.43176 -1.29738,-0.23941 -0.14468,-0.051 0.42457,-0.0346 0.18354,-0.79675 -0.53337,-0.37715 -0.19739,-1.15789 -0.82146,-0.20062 -0.45914,-0.58598 -0.90534,-0.91401 0.27587,-0.62242 0.10728,-1.0207 -0.11823,-0.15417 -0.72183,-0.91369 -0.0202,-0.76419 -0.79,-1.05893 -0.1731,-1.31798 -0.34817,-0.20135 -0.35402,-0.63662 -0.44439,0.22321 0.0464,0.60219 -1.39225,0.18528 -1.55588,-0.16353 0.11912,-0.6417 0.10728,-1.0207 -1.21002,-0.50856 0.0676,-0.64492 -0.96929,-0.31851 -0.11816,-0.88176 -0.0668,-0.005 -0.39954,-0.042 -1.10336,0.96999 -0.42695,0.60724 -0.33043,-0.35722 -0.11957,-0.39325 -1.41145,-0.0972 -1.32741,0.1304 -1.41861,-0.0355 -0.0786,0.74749 -0.77458,0.41284 -1.57518,-0.54834 -1.0366,0.33483 -0.64201,-0.69353 -1.33227,-0.14003 -0.40517,-0.31166 0.40342,0.31236 1.33293,0.1401 0.64201,0.69354 -0.10503,0.0303 0.4374,0.81225 -0.0677,0.64418 1.13624,1.20398 -0.38145,0.66448 0.73157,1.04928 -0.41757,0.45259 0.43108,0.85295 0.002,1.52011 -0.3534,0.39752 0.29759,0.68258 -0.43942,0.6668 0.005,0.43452 0.44924,-0.28229 0.45947,0.59583 -0.77364,0.40383 -0.29138,0.29186 -0.59127,0.10262 -0.70992,0.25628 -0.76496,-0.73169 -1.03431,0.32595 -0.21778,-0.89292 -0.7374,-0.0249 -1.695,0.83069 -0.26289,-0.31507 -0.12973,0.75269 -1.08575,-0.71645 -0.43028,-0.86057 -1.15029,-0.12172 -0.35261,-1.12162 -1.19856,-0.1268 -0.92734,-1.18272 -0.98471,-0.64415 -0.66625,-3.16945 -0.46602,-0.0504 0.10087,-0.47524 -1.4373,-1.77627 0.18592,-1.28445 1.76396,-1.90124 0.9128,0.76546 -0.91146,-0.76658 0.074,-0.0778 -1.2208,-1.433 -1.16146,0.0953 -0.0225,-0.81911 0.62316,0.0655 0.63644,-0.53253 -0.15624,-0.50296 0.007,-0.54754 0.98256,-0.38257 -0.88168,-0.0927 -0.7543,0.68489 -0.93944,-0.0987 -0.4967,-0.81637 -0.1439,0.41953 -0.96862,-0.31843 -0.54061,-0.37932 0.60322,-0.70076 -0.16366,-0.45187 -0.1849,-0.23676 1.0881,-0.80545 -0.24676,-0.21663 -0.003,-2.7e-4 -0.0932,-0.0883 0.003,-0.49533 0.38793,-0.28031 -0.70541,-0.2389 -2.84106,-0.028 -0.38731,-0.79787 -0.60116,-0.28134 0.47318,-0.4971 0.7419,0.46006 0.65235,0.2852 0.3017,-0.40296 -0.44741,-0.69762 -0.65639,-0.23374 0.10942,0.39301 -0.73554,0.0349 -0.48601,-0.86642 0.23584,0.78077 -0.37193,0.50928 -0.61292,-0.66677 -0.11816,-0.3938 -0.27647,0.62154 -0.60825,-0.22015 -0.10123,0.96315 0.27198,0.46344 -0.35668,0.3446 -0.57317,-0.54749 0.18194,-0.69188 0.1727,-0.68725 -0.24531,-0.6245 -0.83895,-1.06127 -0.68888,-0.40399 0.21111,-0.56811 -0.35812,0.4489 -0.81081,-0.30185 -0.48246,-1.0253 9e-4,-0.002 -0.0327,-0.0637 -0.67553,-0.071 -0.87262,-0.25648 -0.30112,-0.57147 -0.0926,0.31298 -1.44556,-0.25709 -0.5553,-1.1955 -0.11145,-0.94205 -0.0965,0.92021 -0.527768,0.0476 -0.779992,-0.56923 -0.482305,0.003 -0.441417,-0.26372 0.396449,0.69319 -0.307765,0.4542 -1.205044,-0.065 -1.066659,-0.3302 0.445553,-0.71886 -0.112333,-1.41816 -0.962566,-1.40305 -0.680109,-0.021 -0.419494,-0.47876 -0.579596,-0.008 -0.483679,-0.37274 0.40876,-0.452 1.783766,0.0808 1.057741,-0.0515 0.623158,0.0655 0.669613,0.12086 0.37697,-0.55081 -0.117269,-0.88025 -0.51278,-0.16607 -1.023564,-0.75818 -0.669678,0.84872 -0.280447,0.18786 0.201499,-1.43916 -0.897123,-0.42379 0.813654,-0.78464 1.136321,0.71885 0.962412,0.37107 1.243529,0.18328 0.08247,-0.31312 -1.143474,-0.17289 0.287607,-0.73394 -1.091485,0.37252 -0.04274,-0.54304 1.257972,-1.00701 -1.398433,0.8254 -2.000264,0.0597 -0.134534,-0.23148 -0.352839,0.29523 -0.820782,-0.20054 0.331912,-1.15554 -0.207277,-0.50833 0.905223,-0.61574 -0.571905,-0.54666 0.827632,-0.83364 1.404352,0.0936 0.174327,-0.63157 0.438932,-0.1712 0.339392,0.30419 0.83597,0.0367 0.03972,-0.37929 1.207103,-0.0386 0.04513,0.60498 0.692654,-0.0919 0.26347,-0.51073 1.16008,0.008 0.60023,0.32879 0.63385,-0.58537 -0.0216,1.24915 0.63395,-0.0371 0.0501,0.49181 0.41633,0.0438 0.11275,-1.07411 1.46263,0.10114 0.8012,0.60651 -0.001,0.006 0.03,0.0179 0.82989,-0.94546 -0.35355,-0.62979 1.17056,-0.64043 0.76502,0.731 0.3049,-0.34934 1.20817,-0.0294 0.51432,-0.32662 0.22959,0.78058 0.21534,-0.51789 1.03814,0.10912 -0.11208,0.58833 0.56136,0.11089 -0.14006,0.8546 0.71413,0.23981 -0.0956,0.90976 0.90303,0.85207 -0.20074,0.9604 1.03507,0.64861 -0.10196,0.97008 0.41633,0.0438 0.0568,-0.54156 2.03331,-0.87155 0.38466,-0.61086 0.91619,0.26174 0.67374,-0.41573 -0.11282,1.0734 0.41048,-0.39152 0.50873,0.21752 -0.0288,0.75203 0.62847,0.0149 0.16304,-0.58228 0.97881,0.21504 0.37009,-0.34949 -8.2e-4,-0.002 0.56029,-0.53236 1.24292,0.18252 -0.71352,0.79446 0.87727,0.69021 2.55701,0.26959 0.0858,0.69536 0.19983,1.05718 0.8064,0.89941 0.40607,0.14784 0.002,-0.003 -0.40421,-0.14623 -0.80699,-0.90018 -0.20005,-1.0551 -0.0855,-0.69826 0.98107,0.10312 0.59399,-0.20609 -0.0447,-0.55012 -1.12028,-0.38696 -0.51981,-2.01215 0.82039,-1.32094 0.15793,-1.50274 -0.48962,-1.35558 0.20313,-1.93254 -0.2174,-0.40702 -0.12873,-1.26214 -1.05147,-1.51967 -0.27641,-0.89837 0.21495,-1.01149 -0.14414,-0.12732 -0.23263,-0.2946 0.47245,-0.49017 0.12448,-1.18435 -1.00125,-1.02867 0.26494,-0.51829 1.86833,0.79509 1.25201,1.0521 1.28819,-0.73254 2.22922,0.34729 0.36458,1.50709 -0.57614,-0.0606 -0.52975,1.02901 1.18404,1.80211 -0.0851,1.29434 2.08519,-0.31762 0.93449,0.63665 4.19365,1.09206 1.66654,1.20994 2.32523,-0.67752 2.10489,-0.9776 1.23896,-0.0964 0.24618,-0.0169 -1.47273,-0.47659 -0.95464,-0.91638 0.41585,-1.47621 1.45099,-1.80349 2.25665,-0.96165 2.70659,-0.68861 4.05944,-0.60882 2.41426,-1.53749 0.3863,-0.39407 0.43144,0.24315 0.5796,0.008 0.20249,0.5604 2.04489,2.55161 0.0585,0.98064 0.41376,1.02706 z" />
  
            </svg>