<svg>
  <path
     d="m 357.80634,275.85927 -0.005,0.0103 c -0.006,-0.003 -0.0136,-0.007 -0.0211,-0.0111 -0.1052,-0.0587 -0.22983,-0.10244 -0.3276,-0.17717 -0.12246,-0.0935 -0.22323,-0.21274 -0.32907,-0.30584 -0.39544,-0.34523 -0.73063,-0.66272 -1.20941,-0.85196 -0.51471,-0.20308 -0.73484,-0.52928 -0.46428,-1.03063 0.0672,-0.12495 0.24235,-0.20052 0.28148,-0.31751 0.0749,-0.22299 -0.14292,-0.3643 -0.29446,-0.45968 -0.12353,-0.0767 -0.27677,-0.12573 -0.40003,-0.21851 -0.16475,-0.12462 -0.22212,-0.3388 -0.3666,-0.46592 -0.25491,-0.22484 -0.7133,-0.3463 -1.02366,-0.44674 -0.4662,-0.14866 -0.83392,-0.007 -1.29749,0.004 -0.37728,0.009 -0.72854,-0.0254 -1.08671,-0.0596 -0.39404,-0.0383 -0.63149,-0.0752 -0.77069,-0.45842 -0.0662,-0.18426 -0.11817,-0.26844 -0.22441,-0.43585 -0.0784,-0.12666 -0.26822,-0.31331 -0.29662,-0.44454 -0.29303,0.003 -0.5804,-0.44124 -0.65947,0.13459 -0.0243,0.17599 0.0677,0.35686 0.0476,0.52266 -0.0253,0.20023 -0.14887,0.25843 -0.29505,0.38383 -0.48104,0.41073 -1.1932,0.31998 -1.81616,0.39286 -0.39596,0.0464 -0.53373,0.0633 -0.87613,-0.13055 -0.29016,-0.16374 -0.54382,-0.0864 -0.83065,0.0725 -0.28551,0.15873 -0.55079,0.34742 -0.88568,0.38628 -0.31589,0.037 -0.73733,-0.0331 -1.0443,-0.11327 -0.32951,-0.085 -0.56074,-0.2774 -0.91826,-0.20399 l -0.5874,0.0325 c -0.20284,-0.083 -0.32819,-0.0469 -0.50497,-0.20203 -0.21733,-0.19025 -0.24534,-0.30734 -0.55292,-0.23916 -0.29122,0.0666 -0.35909,0.11888 -0.52841,-0.16513 -0.13493,-0.22628 -0.21089,-0.38771 -0.0105,-0.59479 0.17363,-0.18059 0.44558,-0.19821 0.24105,-0.51394 -0.1106,-0.17205 -0.38806,-0.26684 -0.4061,-0.51062 -0.009,-0.11109 0.13342,-0.53768 0.19782,-0.642 0.0834,-0.13167 0.34137,-0.33456 0.50969,-0.34869 0.0565,-0.28402 -0.34438,-0.60584 -0.59857,-0.6715 -0.1497,-0.0384 -0.37856,-0.0143 -0.49928,0.0942 -0.14367,0.12577 -0.0981,0.20173 -0.0966,0.39461 -0.15347,0.0788 -0.24091,0.21227 -0.41176,0.25871 l -0.5473,-0.31555 c 0.0274,0.34019 -0.58765,0.47563 -0.65412,0.14722 -0.25908,-0.0637 -0.30272,0.21177 -0.54585,-0.006 -0.15187,-0.13635 -0.095,-0.30417 -0.31869,-0.26139 -0.15545,0.0297 -0.15074,0.1922 -0.2304,0.25964 -0.0931,0.0784 -0.17164,0.0729 -0.30913,0.10487 -0.24535,0.0556 -0.26956,0.0644 -0.36583,0.29926 -0.11136,-0.0176 -0.22053,-0.063 -0.27984,-0.15803 0.14437,-0.19119 -0.0443,-0.5823 -0.1612,-0.75426 -0.19544,0.0558 -0.56661,0.5012 -0.81483,0.31091 -0.0879,-0.069 -0.18908,-0.59112 -0.20573,-0.70869 -0.2729,0.0664 -0.19804,-0.14239 -0.34363,-0.24392 -0.25027,-0.17426 -0.0889,0.0413 -0.2706,0.0377 -0.15691,-0.004 -0.60885,-0.19715 -0.60594,-0.36129 0.56151,-0.21447 0.26417,-0.84726 -0.2794,-0.68906 0.0187,0.0664 -0.01,0.17582 0.01,0.24119 -0.13951,0.0356 -0.35732,0.0878 -0.50193,0.0727 -0.16213,-0.0175 -0.24129,-0.13932 -0.39746,-0.15935 0.003,-0.18515 -0.25213,-0.30606 -0.39327,-0.33851 -0.27711,-0.0647 -0.17757,0.0628 -0.40125,0.17474 -0.15043,-0.12277 -0.29465,-0.36819 -0.53786,-0.30971 -0.18763,0.0447 -0.23098,0.35883 -0.4441,0.29782 -0.01,-0.034 -0.0223,-0.0689 -0.0359,-0.1026 -0.0359,-0.005 -0.0712,-0.008 -0.108,-0.0104 -0.006,-0.18194 -0.22662,-0.50496 -0.43808,-0.3828 -0.004,0.2174 0.18849,0.65742 -0.15421,0.66007 -0.20365,0.002 -0.40554,-0.25253 -0.58015,-0.30971 -0.002,0.0335 -0.006,0.0676 -0.013,0.10049 -0.16674,-0.0313 -0.1479,-0.19518 -0.16876,-0.33792 -0.061,-0.0155 -0.11752,-0.008 -0.17326,0.0213 0.001,0.11472 0.01,0.60388 -0.21675,0.32352 -0.12873,-0.15924 0.0767,-0.38742 -0.0746,-0.59143 -0.13907,-0.18703 -0.3473,-0.19187 -0.4645,0.0275 -0.0799,0.1479 0.0838,0.42968 -0.11403,0.52606 -0.13517,-0.49636 -0.65438,-0.0411 -0.57714,0.26392 -0.0651,0.0348 -0.16534,0.044 -0.23741,0.0291 -0.0548,-0.20008 -0.0467,-0.42116 -0.0957,-0.62308 -0.24869,0.006 -0.35489,0.0163 -0.53414,-0.18087 -0.0731,0.0953 -0.0351,0.20616 -0.0611,0.31027 0.0548,0.0676 0.0301,0.10331 0.0485,0.18012 -0.2601,0.0813 -0.44502,-0.0253 -0.62762,-0.21151 -0.11146,-0.11337 -0.29096,-0.48039 -0.45216,-0.19657 -0.11297,-0.0472 -0.25282,-0.002 -0.37971,-0.004 -0.056,-0.16434 -0.21591,-0.20237 -0.32706,-0.32411 -0.11062,-0.12114 -0.11977,-0.26689 -0.23715,-0.36647 -0.0347,-0.0295 -0.17732,-0.03 -0.23815,-0.0663 -0.0726,-0.0447 -0.0787,-0.10861 -0.13164,-0.16653 -0.11649,-0.12514 -0.20745,-0.18268 -0.28275,-0.3442 -0.27595,0.0652 -0.80811,-0.82554 -1.01659,-0.28879 -0.21569,-0.0636 -0.47319,-0.0122 -0.67741,-0.1011 -0.0371,-0.0162 -0.60104,-0.39973 -0.45837,-0.0721 -0.20766,-0.0876 -0.36376,0.13568 -0.55915,0.0313 -0.12814,-0.0687 -0.29827,-0.436 -0.33875,-0.56912 -0.40456,0.009 -0.0849,-0.37098 -0.0309,-0.51457 0.10992,-0.2951 0.0419,-0.55776 -0.0715,-0.84751 -0.27444,-0.0904 -0.38497,-0.021 -0.35167,0.28334 -0.054,0.0287 -0.11445,0.0375 -0.17283,0.0212 -0.0525,-0.21275 -0.009,-0.50061 -0.15386,-0.66528 -0.0948,-0.10707 -0.45927,-0.27273 -0.60315,-0.20347 0.14205,0.60725 -0.46975,-0.0937 -0.56787,-0.1238 -0.47655,-0.14739 -0.4658,0.38543 -0.68372,0.59534 l -0.2843,-0.19443 c -0.11348,-0.18634 -0.25948,-0.13619 -0.42019,-0.23879 -0.18428,-0.11772 -0.23169,-0.39485 -0.35899,-0.4932 -0.39527,-0.30561 -0.89674,0.0736 -0.97107,-0.70754 -0.6151,-0.16597 -0.59228,-1.26609 -0.81538,-1.78252 -0.20801,-0.47908 -0.70559,-1.10981 -1.22646,-1.24636 -0.36867,-0.096 -0.63268,-0.0302 -0.97567,-0.24154 -0.33668,-0.20737 -0.50787,-0.26767 -0.91152,-0.32421 -0.68819,-0.0959 -1.31621,-0.19028 -1.97927,-0.3587 -0.29379,-0.0748 -0.69685,-0.0352 -0.95034,0.15476 -0.14176,0.10662 -0.20567,0.21494 -0.22957,0.3375 -0.26971,-0.48773 -0.93947,-0.80559 -1.00932,-1.33677 -0.38057,-0.003 -0.76791,0.0895 -0.9256,-0.3752 -0.25435,-0.014 -0.61422,-0.062 -0.84935,-0.0253 -0.13803,-0.59266 -0.17953,-1.19919 -0.32464,-1.78578 -0.0578,-0.23237 -0.20349,-0.40395 -0.18539,-0.66141 0.0179,-0.25158 0.18366,-0.44179 0.23555,-0.6901 0.0897,-0.4289 0.051,-0.83934 0.19731,-1.28466 0.14788,-0.44709 0.20616,-0.72727 0.14493,-1.21739 -0.11283,-0.90527 -0.24802,-1.63164 -0.57965,-2.46928 -0.0952,-0.24174 -0.13817,-0.48067 -0.30701,-0.68972 -0.17118,-0.21169 -0.2823,-0.1361 -0.30867,-0.43136 -0.0168,-0.18446 0.16942,-0.28978 0.0944,-0.56036 -0.0544,-0.19381 -0.23401,-0.33351 -0.25982,-0.55134 -0.11863,-0.99084 0.67816,-1.61852 1.53501,-1.74739 h 9e-4 c 0.004,0.002 0.009,0.004 0.0144,0.006 0.1875,0.0547 0.1854,-0.12662 0.30088,-0.17932 0.12464,-0.0565 0.27227,-0.0551 0.40286,-0.12696 0.0984,-0.0551 0.19939,-0.16032 0.29538,-0.2005 0.21143,-0.0877 0.32157,-0.0965 0.51788,-0.26003 0.0803,-0.0678 0.16051,-0.17087 0.27275,-0.19344 0.0627,-0.3884 -0.0131,-0.65619 -0.19145,-0.98077 -0.207,-0.37603 -0.52311,-0.67107 -0.16075,-1.04244 0.16635,-0.17068 0.55351,-0.43111 0.32311,-0.71325 -0.15966,-0.19621 -0.59096,-0.095 -0.82406,-0.16577 -0.17414,-0.65716 0.20668,-1.3615 0.63816,-1.8407 0.19487,-0.21541 0.57884,-0.38511 0.65339,-0.68217 0.0494,-0.19349 -0.0889,-0.35809 -0.11342,-0.52696 -0.0257,-0.1764 0.0336,-0.30644 0.0142,-0.48046 0.19638,-0.13202 0.40693,-0.1412 0.63672,-0.10476 0.17465,0.0265 0.43569,0.20647 0.60593,0.20246 0.19338,-0.005 0.40854,-0.2466 0.50552,-0.40089 0.0299,-0.0496 0.13643,-0.20125 0.14524,-0.25527 0.0235,-0.12747 -0.0786,-0.18094 -0.0711,-0.30373 0.0287,-0.44102 0.83647,-0.22211 1.08971,-0.40864 0.14857,-0.10948 0.28806,-0.33859 0.42652,-0.46485 0.13915,-0.12792 0.24729,-0.26601 0.22638,-0.46934 0.17643,-0.0557 0.25361,-0.25281 0.40102,-0.35539 0.22636,-0.15756 0.48796,-0.12998 0.74413,-0.1977 0.0591,-0.2803 -0.31923,-0.37712 -0.25667,-0.67158 0.17475,-0.0949 0.17592,0.066 0.2987,0.082 0.10209,0.0149 0.23669,-0.0241 0.33624,-0.048 -0.0443,-0.17119 0.0133,-0.34428 -0.0212,-0.51576 -0.0309,-0.15525 -0.0442,-0.38408 -0.0944,-0.54011 -0.043,-0.13529 -0.16981,-0.23147 -0.23189,-0.3563 -0.0804,-0.16089 -0.0696,-0.30257 -0.0828,-0.45233 -0.06,-0.70249 -0.44381,-1.03337 -0.86844,-1.53091 -0.22882,-0.26747 -0.45223,-0.27562 -0.5538,-0.63486 -0.0786,-0.2742 -0.28098,-0.5323 -0.16183,-0.83235 0.12215,-0.30854 0.45806,-0.49419 0.61785,-0.76026 0.12845,-0.21514 0.0639,-0.37685 0.11678,-0.58947 0.0658,-0.26467 0.1984,-0.29064 0.0711,-0.57327 -0.0711,-0.1582 -0.2098,-0.19997 -0.1543,-0.41516 0.0245,-0.094 0.14996,-0.15291 0.14792,-0.24795 -0.002,-0.12571 -0.1867,-0.24336 -0.23166,-0.35453 -0.14904,-0.37233 0.33248,-0.48552 0.26093,-0.87728 l 0.0286,-0.14092 c 0.038,0.008 0.0766,0.006 0.11523,-0.007 0.40533,-0.14686 0.51307,-1.31171 0.72217,-1.6575 0.3621,-0.58604 1.31707,-1.38588 1.54612,-1.3393 0.11084,0.0225 0.24515,0.0167 0.39922,0.001 0.15408,-0.0156 0.29969,0.0771 0.48954,0.0605 0.18987,-0.0166 0.19197,0.28731 0.64219,-0.12287 0.16229,-0.14785 0.48715,-9e-4 0.68783,0.15982 0.73572,0.58918 1.11576,-0.29735 1.70779,-0.66405 0.10331,-0.0335 0.11785,0 0.20599,0.11402 0.23871,0.30781 0.50528,-0.23535 0.61692,-0.33468 0.13511,-0.1202 0.23043,-0.17271 0.36642,-0.21289 0.13597,-0.0402 0.28163,-0.15955 0.41398,-0.11483 0.0705,0.0238 0.32891,-0.077 0.47128,-0.16346 0.14237,-0.0865 0.16762,-0.26989 0.22903,-0.35744 0.15139,-0.21582 -0.0519,-0.32627 -0.059,-0.44904 0.30168,-0.73303 0.17139,-0.42439 0.97979,-0.77568 0.25497,-0.22792 0.38359,-0.53694 0.39072,-0.87145 0.009,-0.4108 0.33577,-0.72409 0.33338,-0.95121 -0.002,-0.18669 0.0795,-0.84929 0.13199,-1.0078 0.14583,-0.44046 -0.19508,-0.74407 -0.20621,-1.05055 -0.0122,-0.33459 0.20692,-0.51688 0.45357,-0.72952 0.24664,-0.21263 0.54885,-0.38588 0.83612,-0.55659 0.28725,-0.17071 0.62117,-0.23486 0.74643,-0.54136 0.17666,-0.43224 0.28827,-0.43923 0.23372,-0.74714 0.57379,-0.22172 1.0039,-0.45442 1.0888,-1.06082 -0.0152,-0.0198 -0.0315,-0.0365 -0.0522,-0.0515 0.43578,-0.48889 0.83432,-0.44336 1.2675,-0.51877 0.44204,-0.077 0.87002,-0.16562 1.30366,-0.26415 0.19809,-0.0451 0.38579,-0.12193 0.55628,-0.2242 0.48248,0.29602 0.82565,0.77338 1.10519,1.26103 0.0355,0.005 0.0707,0.009 0.10712,0.0105 0.0572,0.355 0.63465,0.42377 0.90453,0.39852 0.39534,-0.0368 0.78585,-0.0857 0.94954,-0.48965 0.2817,-0.6933 -0.0942,-1.67687 0.90056,-1.83935 0.002,-0.0365 0.005,-0.0721 0.01,-0.10818 0.30589,-0.17498 0.4989,-0.35097 0.66969,-0.65871 0.18364,-0.33072 0.38791,-0.62096 0.78338,-0.70782 0.46081,-0.1014 0.69767,0.21891 1.10222,0.30644 0.33784,0.0745 0.41356,-0.23843 0.69571,-0.33886 0.3431,-0.12165 0.68976,0.18721 0.97028,0.34719 0.32275,0.18317 0.61317,0.32526 0.81788,0.64975 0.3764,0.59875 0.67059,1.30987 0.75118,2.01252 0.0425,0.38294 0.0977,0.78932 0.069,1.17558 -0.03,0.42113 -0.23505,0.79458 -0.29272,1.20919 -0.15911,1.14367 1.03106,0.54901 1.56907,0.31083 0.34713,-0.15255 0.71816,-0.27268 1.10008,-0.20175 0.30038,0.0555 0.76131,0.44945 1.06533,0.31209 0.64923,-0.29283 -0.0367,-1.60374 -0.18224,-2.02764 -0.23236,-0.67952 -0.6883,-1.46877 -0.18736,-2.14056 0.60592,-0.81375 1.36362,0.11529 2.05513,0.21286 0.38209,0.054 0.77686,-0.11881 1.15584,-0.15768 0.44075,-0.0442 0.89966,-8.2e-4 1.32357,-0.15464 0.73705,-0.26824 0.98371,-0.86599 1.83776,-0.48493 0.33371,0.14847 0.67231,0.32587 0.96745,0.54487 0.22728,0.16741 0.58574,0.61428 0.9081,0.53347 0.29964,-0.0764 0.35755,-0.5438 0.59559,-0.72103 0.28036,-0.20811 0.82915,-0.15587 1.01181,-0.49459 0.21023,-0.39121 -0.28429,-0.53549 -0.42477,-0.80885 -0.18972,-0.36824 0.30375,-0.36395 0.57755,-0.35364 0.42693,0.0183 0.84049,0.16105 1.25635,-0.004 0.36566,-0.1438 0.67524,-0.38725 1.05475,-0.51113 0.37869,-0.12331 0.77366,-0.17046 1.15664,-0.27154 0.39664,-0.10458 0.63954,-0.3189 0.9706,-0.54225 0.73663,-0.49978 1.30231,0.0714 1.71253,0.65772 0.17226,0.24602 0.4637,0.71576 0.72165,0.34325 0.1963,-0.28408 0.11884,-0.78437 0.60539,-0.58279 0.42075,0.17407 0.76257,0.63672 1.09821,0.9341 0.30853,0.27345 0.64605,0.4931 0.99403,0.71058 0.31251,0.19636 0.60141,0.3954 0.84514,0.67681 0.15033,-0.0185 0.24028,0.0381 0.35454,0.10853 0.17191,0.10459 0.33627,0.16574 0.51004,0.25253 0.30494,0.15292 0.62634,0.29593 0.9905,0.41905 0.34822,0.11719 0.6844,0.19283 1.04845,0.30042 l 3.64443,-0.10686 c 0.22263,-0.0165 0.58518,-0.0324 0.78857,0.0259 0.7091,0.20444 0.23642,0.82928 0.29493,1.27535 0.0311,0.23565 0.0736,0.46517 0.33831,0.55634 0.19853,0.068 0.42222,-2e-5 0.63768,0.11477 0.35727,0.19087 0.88987,0.38837 1.02523,0.84438 0.39095,0.18471 0.26421,-0.25028 0.45072,-0.41173 0.19855,-0.17261 0.79832,-0.12257 0.99699,0.0231 0.19872,0.14433 0.32899,0.40926 0.46971,0.59518 0.22599,0.29912 0.30123,0.20834 0.65591,0.20669 0.22643,0 0.54051,-0.0299 0.7789,0.002 0.28154,0.0368 0.56956,0.16863 0.84848,0.20422 0.30175,0.0375 0.65433,-0.0177 0.96602,-0.001 0.14683,0.008 0.30112,0.025 0.45818,0.0449 0.14293,0.0178 0.38391,-0.006 0.50185,0.0325 0.24826,0.0794 0.28516,0.39302 0.48464,0.52351 0.21017,0.1391 0.456,0.0618 0.67849,0.13364 0.0819,0.37584 0.37476,0.1092 0.55575,0.30595 0.0943,0.1033 0.0718,0.39375 0.14015,0.51872 0.16413,0.30199 0.50813,0.47962 0.80341,0.27644 0.004,-0.0359 0.008,-0.0712 0.0102,-0.10826 0.15175,-0.0416 0.33287,-0.0645 0.49004,-0.0602 0.18276,0.40648 0.50109,1.35997 0.94293,1.50892 0.44872,0.15215 0.30112,-0.2431 0.47646,-0.47369 0.23049,-0.30449 0.50647,0.003 0.54919,-0.44252 0.0223,-0.24535 -0.0421,-0.29039 0.20488,-0.32544 0.21308,-0.0304 0.25831,0.0537 0.361,0.19221 0.10043,0.13477 0.27754,0.40566 0.33234,0.56789 0.0596,0.17605 0.0323,0.31998 0.12056,0.48486 0.17652,0.33179 0.52833,0.1737 0.70211,0.4941 0.16737,0.31017 0.099,0.54046 0.40174,0.77429 0.2361,0.18277 0.61687,0.38653 0.72769,-0.0454 0.073,-0.2838 -0.0657,-0.62113 0.0434,-0.91048 0.35542,-0.127 0.69599,0.0373 0.91576,0.29665 0.29905,0.35302 0.51657,0.32045 0.94002,0.3304 0.40502,0.009 0.6854,0.0769 0.80754,0.50167 0.11272,0.39548 0.0247,0.80301 0.0693,1.19605 -0.15821,0.0674 -0.4399,0.19345 -0.51111,0.35539 -0.10502,0.242 0.16293,0.56211 0.27617,0.75929 0.22433,0.38967 0.62946,0.77381 0.73348,1.2206 0.11852,0.50291 0.0765,1.03792 0.24437,1.50345 0.0792,0.21916 0.24341,0.32447 0.42857,0.44029 0.23484,0.14688 0.42717,0.0841 0.67448,0.16476 0.009,0.41323 0.46682,0.2432 0.6709,0.17579 0.0163,0.16222 0.12775,0.39568 0.20753,0.52262 0.10021,0.15846 0.25807,0.19404 0.37758,0.30913 0.17384,0.16586 0.2518,0.37458 0.38907,0.54876 0.13788,0.17366 0.28094,0.20903 0.3173,0.47444 0.0386,-0.0282 0.0736,-0.0581 0.10549,-0.0904 0.2395,0.30715 0.49119,0.55131 0.80464,0.79555 0.34054,0.26434 0.61866,0.59626 1.05184,0.71113 0.47144,0.12391 0.89212,-0.005 1.03764,0.54977 0.11235,0.42708 0.23237,0.86199 0.37184,1.28213 0.17735,0.53376 0.0356,0.65322 -0.21247,1.10089 -0.22867,0.416 -0.31609,0.77231 -0.20778,1.24493 0.0987,0.43078 0.38212,0.90623 0.69613,1.2261 0.008,0.009 0.0169,0.0175 0.026,0.0263 0.30068,0.29515 0.83492,0.29803 1.22454,0.43176 0.46778,0.16154 0.88737,0.19833 1.36954,0.138 0.47946,-0.0607 0.88203,-0.14254 1.33662,0.0648 0.42202,0.19171 0.73991,0.62711 1.23227,0.66442 0.4805,0.0372 0.81123,-0.0356 1.26267,0.21532 0.71857,0.39657 1.08894,1.23802 1.66615,1.80107 0.30013,0.2943 0.77043,0.31586 1.15995,0.4487 0.44649,0.1522 0.69223,0.4372 1.01518,0.75889 0.37726,0.37584 0.75332,0.72549 1.06312,1.16435 0.26464,0.37526 0.66012,0.7464 0.53491,1.24341 -0.10428,0.41402 -0.73191,0.94862 -0.46217,1.36921 0.1257,0.19475 0.37254,0.23698 0.50423,0.44046 0.14114,0.22033 0.15343,0.40626 0.43596,0.49322 0.16974,-0.15219 0.22026,-0.50283 0.47714,-0.54654 0.2317,-0.0393 0.28662,0.17679 0.33464,0.37319 0.0461,0.18584 -0.0127,0.46405 0.10373,0.61759 0.0745,0.0988 0.36199,0.16934 0.46662,0.23422 0.2184,0.13516 0.41761,0.37652 0.50199,0.61938 0.0736,0.21128 0.015,0.4852 0.12355,0.6789 0.0968,0.17261 0.38588,0.34213 0.52728,0.47525 0.15404,0.14486 0.41582,0.34362 0.64227,0.33632 0.0111,0.034 0.0226,0.0675 0.0364,0.10142 0.28443,-0.0288 0.4098,0.33468 0.5462,0.5164 0.12835,0.17257 0.28802,0.27394 0.4639,0.3981 0.3209,0.22462 0.57463,0.2811 0.45209,0.68858 -0.10105,0.33456 -0.1074,0.62391 -0.0508,0.97561 0.0686,0.42455 0.31551,0.58393 0.46161,0.97419 0.0484,0.13012 0.13011,0.32374 0.10293,0.46517 -0.0319,0.16724 -0.19443,0.24645 -0.2622,0.39264 -0.18264,0.39548 0.12097,0.48098 0.27283,0.75947 0.19872,0.3651 0.0698,0.56904 -0.19314,0.82616 -0.14453,0.14051 -0.16234,0.14135 -0.18758,0.33323 -0.0193,0.14925 -0.0455,0.32773 -0.0598,0.47772 -0.0358,0.35064 0.084,0.72318 0.0614,1.07356 -0.017,0.27896 -0.40574,0.51569 -0.3664,0.75078 l -0.51273,0.063 c -0.0631,0.14404 -0.46862,0.0341 -0.64302,0.19204 -0.12767,0.1139 -0.2163,0.28878 -0.25197,0.4432 -0.0522,0.22019 0.0135,0.37455 -0.12385,0.57186 -0.0793,0.11585 -0.33571,0.36246 -0.46894,0.3599 0.002,0.17189 0.11834,0.45585 -0.0287,0.57415 -0.12834,0.10114 -0.35393,8.1e-4 -0.48125,-0.047 -0.36996,-0.13751 -0.77913,-0.26636 -1.17959,-0.2458 -0.2105,0.0114 -0.3646,0.0849 -0.42684,0.29255 -0.0399,0.13422 0.0838,0.38035 -0.0165,0.49652 -0.10812,0.12726 -0.42584,0.009 -0.57974,0.0329 -0.24341,0.0387 -0.49595,0.27829 -0.74808,0.21846 -0.12693,-0.0297 -0.25348,-0.20947 -0.40939,-0.23831 -0.18635,-0.0343 -0.38317,0.0193 -0.57016,0.0437 -0.20786,0.0255 -0.45671,0.0362 -0.64629,0.13613 -0.17353,0.092 -0.21016,0.23125 -0.32827,0.38475 -0.0932,0.12274 -0.19819,0.24127 -0.29548,0.36023 -0.14791,0.18058 -0.44376,0.35906 -0.51321,0.58272 -0.0659,0.21085 0.20339,0.82455 -0.24133,0.8145 -0.0985,-0.002 -0.3465,-0.178 -0.44949,-0.22956 -0.16019,-0.0801 -0.27015,-0.16845 -0.38331,-0.31023 -0.12481,-0.15836 -0.20818,-0.3547 -0.3418,-0.50635 -0.0881,-0.0978 -0.2092,-0.13854 -0.25148,-0.27527 -0.13194,0.008 -0.24781,-0.032 -0.27919,-0.16375 -0.39448,0.0511 -0.95661,-0.12809 -1.21537,-0.4518 l -0.384,0.0471 c -0.0362,0.25427 -0.43203,0.23394 -0.61214,0.19388 -0.25076,-0.0559 -0.34799,-0.10078 -0.59714,0.0206 -0.25155,0.12189 -0.40313,0.23782 -0.70156,0.1526 -0.25712,-0.0732 -0.3949,-0.21869 -0.68976,-0.11244 -0.25618,0.0914 -0.35108,0.20982 -0.66709,0.16549 -0.12631,-0.0174 -0.19712,-0.0929 -0.32299,-0.032 -0.19164,0.0904 -0.098,0.26637 -0.15771,0.39985 -0.12488,0.27891 -0.35919,0.36805 -0.61441,0.23922 -0.29721,-0.15004 -0.34036,-0.27022 -0.65281,-0.13769 -0.006,0.12782 -0.15721,0.37839 -0.28094,0.42039 -0.18186,0.0606 -0.26892,-0.10733 -0.41412,-0.1546 -0.26066,-0.0838 -0.50337,0.0863 -0.76317,0.16286 -0.30577,0.0903 -0.55032,0.2692 -0.86813,0.30507 -0.377,0.044 -0.6508,0.14862 -0.76114,0.53521 -0.0883,0.30574 -0.0865,0.50263 -0.35124,0.71379 -0.22408,0.1798 -0.43214,0.29681 -0.71405,0.34989 -0.45214,0.0864 -1.51022,-0.0371 -1.55105,0.63695 -0.28121,0.0953 -0.54518,0.012 -0.82821,0.0467 -0.38164,0.0482 -0.28732,0.20423 -0.44109,0.4903 -0.1123,0.21 -0.33904,0.3079 -0.57247,0.29286 -0.28964,-0.0171 -0.31612,-0.1182 -0.45756,-0.3482 -0.11614,-0.19164 -0.0676,-0.1843 -0.27381,-0.21846 -0.11557,-0.0192 -0.31844,0.0272 -0.434,0.0573 -0.13124,0.0337 -0.19918,0.0873 -0.35168,0.0972 -0.12572,0.008 -0.28326,-0.0364 -0.40074,-0.0145 -0.56868,0.11037 -0.0379,1.0229 0.14238,1.29587 l -0.10508,0.73222 c 0.0467,0.34276 -0.13117,0.50856 -0.25453,0.79989 -0.14908,0.35533 -0.0396,0.79559 -0.41306,1.02887 -0.75033,0.47015 -1.65075,-0.31815 -2.40135,0.24642 -0.24563,0.1847 -0.40288,0.48064 -0.68986,0.60735 -0.2584,0.1135 -0.58199,0.005 -0.81604,0.15876 -0.25017,0.16229 -0.25889,0.31564 -0.60514,0.34757 -0.4073,0.036 -0.67935,0.0764 -1.05015,0.24946 -0.33343,0.15673 -0.62118,0.0837 -0.97255,0.13789 -0.36459,0.0558 -0.63255,0.3266 -0.98565,0.41591 -0.37831,0.0935 -0.73751,0.0236 -0.97533,0.39617 -0.21289,0.33116 -0.27439,0.7602 -0.46249,1.11108 -0.29952,0.55897 -0.4387,1.20841 -0.30832,1.84458 0.072,0.35499 0.24354,0.6885 0.23751,1.05712 -0.005,0.34644 -0.13938,0.69159 -0.25592,1.01296 -0.19765,0.54488 -0.52913,1.10236 -0.45431,1.70142 0.0822,0.65178 0.57884,1.16007 0.61549,1.80369 l 0.0641,-0.008 c -0.2598,0.0948 -0.42363,0.16195 -0.64971,0.33276 -0.15934,0.12207 -0.42024,0.33364 -0.62022,0.35595 0.009,0.167 -0.114,0.40597 -0.18524,0.55305 -0.0863,0.1827 -0.29275,0.30042 -0.38402,0.48486 -0.10271,0.20973 -0.0664,0.62767 -0.11004,0.85965 -0.0375,0.19992 -0.0899,0.45641 -0.0693,0.66091 -0.69285,0.45521 -0.8826,-0.89299 -1.58403,-0.91815 -0.0364,-0.1219 -0.23448,-0.33368 -0.3201,-0.42972 -0.10601,-0.11629 -0.22405,-0.28697 -0.32952,-0.39162 -0.20926,-0.20657 -0.75193,-0.13768 -1.06257,-0.14009 -0.41055,-0.001 -0.85632,0.20247 -1.26647,0.15325 -0.36197,-0.0432 -0.61975,-0.078 -0.99186,0.0332 -0.2313,0.0699 -0.67149,0.36855 -0.86988,0.16673 -0.2007,-0.20423 -0.0618,-0.67184 -0.24045,-0.89501 -0.18127,-0.22645 -0.69931,-0.16104 -0.91762,-0.0419 -0.14913,0.0812 -0.17141,0.31368 -0.34002,0.37831 -0.13734,0.0534 -0.35309,-0.0292 -0.46257,-0.11171 -0.22053,-0.16531 -0.0939,-0.21645 -0.11559,-0.42982 -0.0168,-0.15158 -0.0721,-0.31803 -0.12458,-0.46297 -0.04,-0.11246 -0.094,-0.36648 -0.21579,-0.39117 -0.20736,-0.0414 -0.21703,0.18997 -0.19068,0.33361 -0.1733,0.072 -0.28259,0.27193 -0.46732,0.3329 -0.23129,0.0773 -0.45126,-0.0761 -0.64315,0.0578 -0.15543,0.1083 -0.17561,0.34326 -0.23104,0.50439 -0.10093,0.29534 -0.13079,0.34383 -0.44033,0.38319 -0.47748,0.0586 -0.91335,0.0148 -1.37906,0.16933 -0.36924,0.12193 -0.51299,0.60275 -0.90816,0.71209 -8.2e-4,0.0366 -0.005,0.0714 -0.0101,0.10779 -0.1802,0.13071 -0.29335,0.0984 -0.49443,0.0736 -0.11599,-0.0153 -0.259,-0.0702 -0.37076,-0.02 -0.0793,0.0338 -0.0883,0.18498 -0.21872,0.22712 -0.29476,0.0943 -0.72314,-0.13828 -0.99159,-0.2673 -0.31428,-0.15064 -0.67775,-0.34841 -0.95031,-0.56388 -0.19092,-0.15001 -0.51073,-0.67957 -0.74093,-0.68825 -0.34866,-0.74656 -0.57866,0.30263 -1.00053,0.10122 z"
     id="budapest"
     fill="#ebe084"
     fill-rule="nonzero"
     style="stroke:#000000;stroke-width:0.5" />
  
</svg>