<svg>
  <path d="m357.8 275.9-.3-.2-.4-.3c-.4-.4-.7-.7-1.2-.9-.5-.2-.7-.5-.5-1l.3-.3c.1-.2-.1-.4-.3-.5l-.4-.2-.3-.5-1-.4c-.5-.2-.9 0-1.4 0h-1c-.4-.1-.7-.1-.8-.5l-.2-.5-.3-.4c-.3 0-.6-.5-.7.1v.5c0 .2 0 .3-.2.4-.5.4-1.2.4-1.9.4l-.8-.1c-.3-.2-.6 0-.9 0l-.8.5c-.4 0-.8 0-1-.2l-1-.2h-.6l-.5-.1c-.2-.2-.2-.3-.6-.3-.2 0-.3.1-.5-.1-.1-.3-.2-.4 0-.6.2-.2.5-.2.2-.5 0-.2-.3-.3-.4-.6l.2-.6.6-.3c0-.3-.4-.7-.6-.7h-.5c-.2.2-.1.3-.1.5l-.5.2-.5-.3c0 .4-.6.5-.7.2-.2-.1-.3.2-.5 0s-.1-.4-.3-.3c-.2 0-.2.2-.3.3h-.3c-.2.1-.2.1-.3.4l-.3-.2c.1-.2 0-.6-.2-.8-.2.1-.5.5-.8.4l-.2-.8c-.3.1-.2-.1-.3-.2-.3-.2-.1 0-.3 0l-.6-.3c.6-.2.3-.9-.3-.7v.2l-.5.1-.4-.2c0-.1-.2-.3-.4-.3l-.4.2c-.1-.1-.3-.4-.5-.3-.2 0-.2.3-.5.3v-.1h-.1c0-.2-.2-.6-.4-.4 0 .2.2.6-.2.6l-.6-.3v.1l-.2-.3h-.1c0 .1 0 .6-.2.3-.2-.1 0-.4-.1-.6-.2-.1-.4-.2-.5 0v.6c-.2-.5-.7 0-.7.3h-.2l-.1-.6c-.3 0-.4 0-.5-.2l-.1.3v.2c-.2 0-.4 0-.6-.2 0-.2-.3-.5-.4-.2h-.4c0-.2-.2-.2-.3-.4l-.3-.3-.2-.1-.1-.2c-.2 0-.3-.1-.3-.3-.3 0-.8-.8-1-.3l-.7-.1s-.6-.4-.5 0c-.2-.2-.3 0-.5 0-.2-.1-.3-.5-.4-.6-.4 0 0-.4 0-.5v-.9c-.4 0-.5 0-.4.3h-.2c0-.2 0-.5-.2-.6 0-.1-.4-.3-.6-.2.2.6-.4-.1-.5-.2-.5-.1-.5.4-.7.6l-.3-.2c-.1-.1-.3 0-.4-.2l-.4-.5c-.4-.3-.9 0-1-.7-.6-.2-.5-1.3-.8-1.8-.2-.5-.7-1-1.2-1.2-.4-.1-.6 0-1-.3a2 2 0 0 0-.9-.3c-.7 0-1.3-.2-2-.4-.3 0-.7 0-1 .2l-.1.3c-.3-.4-1-.8-1-1.3-.4 0-.8 0-1-.4h-.8l-.3-1.8-.2-.6.2-.7c0-.5 0-.9.2-1.3.1-.5.2-.7.1-1.2 0-1-.2-1.7-.5-2.5l-.3-.7c-.2-.2-.3-.1-.3-.4v-.6l-.2-.5c-.1-1 .7-1.7 1.5-1.8.2 0 .2-.1.3-.2h.4l.3-.3c.2 0 .4 0 .6-.2l.2-.2c0-.4 0-.7-.2-1-.2-.4-.5-.7-.1-1 .1-.2.5-.5.3-.8-.2-.2-.6 0-.8-.1-.2-.7.2-1.4.6-1.9.2-.2.6-.4.7-.7l-.1-.5v-.5h.6l.6.1c.2 0 .4-.2.5-.4l.2-.2-.1-.3c0-.5.8-.3 1-.4l.5-.5c.1-.1.3-.3.2-.5.2 0 .3-.2.4-.3.3-.2.5-.2.8-.2 0-.3-.3-.4-.3-.7h.3c.1.1.3 0 .4 0v-.5l-.2-.5-.2-.4v-.4c-.1-.7-.5-1-1-1.6-.2-.2-.4-.2-.5-.6 0-.3-.3-.5-.2-.8l.7-.8v-.6c.1-.2.3-.3.1-.6 0-.1-.2-.2-.1-.4l.1-.2-.2-.4c-.1-.3.3-.5.3-.8v-.2h.1c.4-.1.5-1.3.7-1.7.4-.5 1.4-1.3 1.6-1.3h.9c.2 0 .2.4.6 0 .2-.2.5 0 .7.1.7.6 1.1-.3 1.7-.7l.2.2c.3.3.5-.3.6-.4l.4-.2c.1 0 .3-.2.4-.1 0 0 .3 0 .5-.2l.2-.3c.2-.2 0-.4 0-.5.3-.7.1-.4 1-.8.2-.2.3-.5.3-.8 0-.4.4-.7.4-1v-1c.2-.4-.1-.7-.1-1 0-.4.2-.5.4-.8l.9-.5c.3-.2.6-.3.7-.6.2-.4.3-.4.3-.7.5-.2 1-.5 1-1v-.1c.4-.5.8-.5 1.3-.5a26 26 0 0 0 1.8-.5c.5.3.8.7 1.1 1.2h.1c0 .4.7.5 1 .4.3 0 .7 0 .9-.4.3-.7-.1-1.7.9-1.9.3-.3.5-.4.7-.8.1-.3.3-.6.7-.7.5 0 .7.3 1.1.3.4.1.5-.2.7-.3.4-.1.7.2 1 .4.3.1.6.3.8.6.4.6.7 1.3.8 2v1.2l-.2 1.2c-.2 1.1 1 .6 1.5.3.4-.1.7-.3 1.1-.2.3 0 .8.5 1 .3.7-.3 0-1.6 0-2-.3-.7-.8-1.5-.3-2.1.6-.9 1.4 0 2 .2l1.2-.2 1.4-.1c.7-.3 1-1 1.8-.5l1 .5c.2.2.5.6.9.5.3 0 .3-.5.6-.7.2-.2.8-.1 1-.5.2-.4-.3-.5-.4-.8-.2-.3.3-.3.5-.3h1.3l1-.5 1.2-.3c.4-.1.6-.3 1-.6.7-.5 1.3.1 1.7.7.2.2.4.7.7.3.2-.2.1-.7.6-.5.4.1.8.6 1.1.9l1 .7.8.7h.4c.2.2.3.3.5.3l1 .5 1 .3 3.7-.1h.8c.7.2.2.8.3 1.3 0 .2 0 .4.3.5l.7.1c.3.2.8.4 1 .9.4.2.2-.3.4-.4.2-.2.8-.2 1 0l.5.6c.2.3.3.2.7.2h.7l.9.2h1.9c.3.1.3.5.5.6l.7.1c0 .4.3.1.5.3l.2.5c.1.4.5.5.8.3l.5-.1c.2.4.5 1.3 1 1.5.4.1.2-.3.4-.5.2-.3.5 0 .5-.5 0-.2 0-.2.2-.3.3 0 .3 0 .4.2l.3.6c0 .2 0 .3.2.5.1.3.5.1.7.5.1.3 0 .5.4.7.2.2.6.4.7 0v-1c.4 0 .7.1 1 .4.2.3.5.3.9.3s.7 0 .8.5v1.2s-.4.2-.4.4c-.2.2.1.5.2.7.3.4.7.8.8 1.2 0 .5 0 1 .2 1.5 0 .3.2.4.4.5.3.1.5 0 .7.2 0 .4.5.2.7.1l.2.5c0 .2.2.2.4.4l.4.5c0 .2.2.2.3.5v-.1l.9.8c.3.3.6.6 1 .7.5.1 1 0 1 .5l.4 1.3c.2.6 0 .7-.2 1.1-.2.4-.3.8-.2 1.3.1.4.4.9.7 1.2.3.3.9.3 1.3.5.4.1.9.2 1.3.1h1.4c.4.3.7.7 1.2.7s.8 0 1.3.2c.7.4 1 1.3 1.6 1.8.3.3.8.4 1.2.5.4.1.7.4 1 .8.4.3.8.7 1 1.1.3.4.7.8.6 1.3 0 .4-.7 1-.5 1.3l.6.5c0 .2.1.4.4.5.2-.2.2-.5.5-.6.2 0 .3.2.3.4l.1.6.5.2.5.7.1.6c0 .2.4.4.5.5.2.2.4.4.7.3v.2c.3 0 .4.3.5.5l.5.4c.3.2.6.2.5.7a2 2 0 0 0 0 1c0 .4.2.5.4.9v.5l-.2.4c-.2.4.1.4.3.7.2.4 0 .6-.2.8l-.2.4v1.5c0 .3-.4.5-.4.8h-.5c0 .2-.4 0-.6.2l-.3.5v.6l-.6.3c0 .2.2.5 0 .6h-.5a3 3 0 0 0-1.1-.3c-.3 0-.4 0-.5.3v.5h-.6c-.2 0-.5.3-.7.2l-.4-.2h-.6c-.2 0-.5 0-.6.2-.2 0-.3.2-.4.4l-.3.3-.5.6c0 .2.2.8-.2.8l-.5-.2a1 1 0 0 1-.4-.3c0-.2-.2-.4-.3-.5l-.2-.3c-.2 0-.3 0-.3-.2-.4 0-1-.1-1.2-.4h-.4c0 .3-.5.3-.6.2h-.6c-.3.2-.4.3-.7.2-.3 0-.4-.2-.7-.1-.3 0-.4.2-.7.1h-.3c-.2.1-.1.3-.2.4-.1.3-.3.4-.6.3-.3-.2-.3-.3-.6-.2l-.3.4c-.2.1-.3 0-.4-.1-.3-.1-.5 0-.8.1l-.9.4c-.3 0-.6.1-.7.5-.1.3-.1.5-.4.7l-.7.4c-.4 0-1.5 0-1.5.6h-.9c-.4 0-.3.2-.4.5-.1.2-.4.3-.6.3-.3 0-.3-.1-.4-.3-.2-.2-.1-.2-.3-.2h-.5l-.3.1h-.4c-.6.1 0 1 .1 1.3v.7c0 .4-.2.5-.3.8-.2.4 0 .8-.4 1-.8.5-1.7-.3-2.4.3-.3.2-.4.5-.7.6-.3.1-.6 0-.8.2-.3.1-.3.3-.6.3-.5 0-.7 0-1.1.3h-1l-1 .5c-.3.1-.7 0-1 .4l-.4 1.1c-.3.6-.4 1.2-.3 1.9l.2 1-.2 1c-.2.6-.6 1.1-.5 1.7.1.7.6 1.2.6 1.8h.1l-.6.4-.7.3c0 .2 0 .4-.2.6 0 .2-.2.3-.3.5l-.1.8-.1.7c-.7.4-.9-1-1.6-1l-.3-.4-.3-.4c-.3-.2-.8-.1-1.1-.1l-1.3.2h-1c-.2 0-.6.4-.8.2-.2-.3-.1-.7-.3-1-.2-.2-.7-.1-.9 0l-.3.4-.5-.1c-.2-.2 0-.2-.1-.4l-.1-.5c0-.1-.1-.4-.3-.4-.2 0-.2.2-.1.3l-.5.4h-.7l-.2.5c0 .3-.1.4-.4.4-.5 0-1 0-1.4.2-.4.1-.5.6-1 .7v.1c-.1.1-.2.1-.4 0h-.4s0 .2-.2.3l-1-.3c-.3-.1-.7-.3-1-.6-.1-.1-.5-.6-.7-.6-.3-.8-.6.3-1 0z" id="budapest"
     fill="#ebe084"
     fill-rule="nonzero"
     style="stroke:#000000;stroke-width:0.5"/>
</svg>