<svg>
  <path
     d="m 422.98618,275.63487 -1.71731,1.01477 -0.23418,1.01478 -1.13186,0.23417 -0.85866,2.84918 -0.81962,0.50738 -0.66351,1.36604 c 0,0 -0.71531,0.30547 -1.32701,0.58545 -0.0112,0.0147 -0.0286,0.0241 -0.039,0.039 -1.04508,0.47945 -2.25409,1.01477 -2.4979,1.01477 -0.39803,0 -0.79406,-0.48619 -1.24895,-0.42933 -0.2695,0.0337 -0.56017,0.29413 -0.89769,0.46836 -0.0156,0.007 -0.0233,0.0315 -0.039,0.039 -0.10129,0.0476 -0.20413,0.0611 -0.31224,0.0781 -0.12477,0.0196 -0.26286,0.0189 -0.3903,-0.039 -0.13903,-0.0632 -0.27968,-0.15662 -0.42933,-0.23418 -0.0127,-10e-4 -0.0263,0.001 -0.039,0 -0.51246,-0.26722 -1.01478,-0.54641 -1.01478,-0.54641 0,0 -0.0296,0.20043 -0.15612,0.42932 -0.0297,0.0547 -0.0757,0.10129 -0.11702,0.15612 -0.01,0.0137 -0.0279,0.0255 -0.039,0.039 -0.0577,0.0692 -0.11341,0.13657 -0.19515,0.19515 -0.0235,0.018 -0.0525,0.0224 -0.0781,0.039 -0.0833,0.0503 -0.16437,0.12568 -0.27321,0.15611 -0.10266,0.0335 -0.18429,0.032 -0.31224,0.039 -0.74934,0.0417 -1.40442,0.12657 -1.87342,0.0781 -0.0131,-10e-4 -0.0262,0.002 -0.039,0 -0.15724,-0.0187 -0.27658,-0.0602 -0.3903,-0.11703 -0.16909,-0.0846 -0.28406,-0.18059 -0.3903,-0.2732 -0.0335,-0.0331 -0.0531,-0.0483 -0.0781,-0.0781 -0.0798,-0.0764 -0.0848,-0.11478 -0.11703,-0.15612 -0.022,-0.0281 -0.0781,-0.0781 -0.0781,-0.0781 l -0.11703,0.11703 -1.01477,0.85865 -0.81963,0.039 -0.74156,0.039 c 0,0 -1.00605,0.7806 -2.02955,0.7806 -1.0235,0 -5.07387,-0.27321 -5.07387,-0.27321 l -0.15612,0.0781 -1.01477,0.54642 c 0,0 -1.61704,-0.70254 -2.18566,-0.70254 -0.14216,0 -0.38969,0.0366 -0.70254,0.11703 -0.16175,0.0416 -0.36066,0.10391 -0.54642,0.15612 -0.0267,0.0125 -0.0519,0.0265 -0.0781,0.039 -0.88363,0.24608 -1.89666,0.54642 -2.34178,0.54642 -0.73919,0 -2.24926,0.21497 -2.41985,-1.09283 -0.0213,-0.16348 2.8e-4,-0.26958 0.039,-0.3903 0.004,-0.0112 -0.004,-0.0285 0,-0.039 0.0244,-0.0746 0.0753,-0.13364 0.11703,-0.19515 0.0212,-0.0312 0.054,-0.0501 0.0781,-0.0781 0.0368,-0.0406 0.0743,-0.0817 0.11702,-0.11702 0.0541,-0.047 0.0956,-0.0778 0.15612,-0.11703 0.0151,-0.01 0.0236,-0.0296 0.039,-0.039 0.048,-0.0291 0.10654,-0.0516 0.15612,-0.0781 0.0416,-0.0222 0.0757,-0.0571 0.11703,-0.0781 0.0749,-0.038 0.16219,-0.0792 0.23418,-0.11703 0.025,-0.0191 0.0547,-0.0199 0.0781,-0.039 0.21278,-0.12152 0.35836,-0.26644 0.35126,-0.46836 -3.9e-4,-0.0112 10e-4,-0.0275 0,-0.039 -0.007,-0.058 -0.004,-0.12491 -0.039,-0.19515 -0.0568,-0.11366 -0.11066,-0.1923 -0.19515,-0.27321 -0.006,-0.006 -0.0326,0.006 -0.039,0 -0.0192,-0.0204 -0.0199,-0.0627 -0.039,-0.0781 -0.0166,-0.007 -0.0216,-0.033 -0.039,-0.039 -0.0342,-0.0112 -0.0796,-0.0305 -0.11703,-0.039 -0.62613,-0.38937 -1.64114,-0.31317 -2.26373,-0.62447 -0.0155,-0.007 -0.0233,-0.0314 -0.039,-0.039 -0.46302,-0.22808 -0.84497,-0.38629 -1.17089,-0.50739 -0.14215,-0.0541 -0.13387,-0.0422 -0.23418,-0.0781 -0.0788,-0.007 -0.14747,-4.4e-4 -0.23417,0 0.005,-0.0347 -0.005,-0.0472 0,-0.0781 -0.0192,-0.006 -0.11703,-0.039 -0.11703,-0.039 l -0.11703,0.039 -0.3903,0.46835 c 0,0 -0.11253,0.65056 -1.60022,1.09284 -1.48766,0.44226 -2.1076,0.556 -2.1076,1.56119 0,1.00516 0.0568,2.0521 0.78059,2.61499 0.23002,0.1789 0.58521,0.38037 0.93672,0.58545 -0.0289,0.34007 3.8e-4,0.54765 0.11702,0.6635 0.17366,0.17194 0.46479,0.34434 0.66351,1.17089 0.20043,0.83364 1.10568,0.2099 1.17089,1.28799 0.0804,1.32984 0.66332,1.81472 1.01478,2.1076 0.84512,-0.0242 0.41793,0.53412 0.97574,0.35127 0.52039,-0.17058 0.24025,0.76987 1.28798,0.58545 0.4718,-0.0831 0.53103,0.80617 1.17089,0.93671 0.40563,0.0828 0.23277,0.49959 0.97575,1.0538 0.0731,0.0546 0.12709,0.0761 0.19515,0.11703 -0.12153,0.27733 -0.24795,0.53606 -0.31224,0.62448 -0.32166,0.44226 -2.40336,1.82027 -2.96626,2.30275 -0.56289,0.48248 -2.48377,1.42762 -2.96626,1.99052 -0.48249,0.5629 0.74037,1.86401 0.78059,2.18566 0.0402,0.32166 -0.66232,1.07989 -0.70253,1.52217 -0.0402,0.44226 0.0355,3.90197 0.15612,5.26901 0.12064,1.36704 0.75941,0.9983 1.48312,1.56119 0.72373,0.5629 1.52705,1.10596 2.69306,1.99052 0.76529,0.58056 2.35282,0.81721 3.39559,0.89768 0.33807,0.0621 0.44271,-0.002 0.6635,0.039 0.13309,0.005 0.31224,0 0.31224,0 v -0.039 c 0.19099,-0.0146 0.37632,0.0634 0.46836,0.62448 0.14489,0.88314 0.43364,1.35873 0.58544,1.60022 0.15179,0.24148 0.41489,0.18742 0.74157,1.0538 0.12695,0.33669 0.33417,0.56526 0.42933,0.66351 0.0125,-9.9e-4 0.0269,9.6e-4 0.039,0 0.009,0.01 -0.004,0.0748 0,0.0781 5.4e-4,0.0137 -1.3e-4,0.0257 0,0.039 0.0129,0.01 0.0264,0.0286 0.039,0.039 0.0733,0.73008 -0.45047,0.84994 -0.54642,1.52216 -0.0125,0.11715 -0.0135,0.24313 0,0.3903 0.0125,0.14661 0.0287,0.31585 0.0781,0.50739 0.0711,0.27583 0.1614,0.59141 0.23418,0.89768 l 2.45888,4.87872 c 1.18165,-0.28271 1.97353,-0.5184 2.57596,-0.81963 1.13722,-0.56861 1.35058,-1.34384 2.14664,-1.91245 0.79605,-0.56861 0.71737,-0.47847 2.53693,-0.81963 1.81955,-0.34116 5.1129,-0.42933 5.1129,-0.42933 l 0.78059,1.91246 h 1.13186 l 1.75634,2.57597 c 2.29521,-1.06599 0.69262,1.56715 4.25425,0.42932 0.58582,-1.03455 1.3657,-1.50227 2.22469,-2.1076 1.52282,-1.87426 0.51472,0.0139 1.79537,-0.11703 0.52179,-0.0537 0.98308,-0.26971 1.79537,-0.19515 0.8123,0.0746 1.67778,0.48785 2.61499,0.54642 1.17154,0.11715 4.25374,-1.05418 5.19096,-0.35127 1.84022,1.61019 0.49741,1.21758 1.13186,2.10761 0.01,-0.028 0.0295,-0.0501 0.039,-0.0781 l 0.11665,-1.1709 c 0.17484,-0.0508 0.28604,-0.1573 0.3903,-0.2732 0.20418,-0.56654 0.37227,-0.94842 0.54642,-1.40508 0.0555,-0.19943 0.13827,-0.40578 0.23417,-0.58544 0.0142,-0.0356 0.0252,-0.0832 0.039,-0.11703 0.0884,-0.21765 0.20726,-0.60024 0.27321,-0.74156 0.79606,-1.70584 -1.01615,-3.39359 -2.38082,-4.64454 -1.36466,-1.25094 -1.00804,-3.42253 -0.78059,-4.33231 0.22744,-0.90978 -0.94207,-1.80883 0.19515,-2.26372 0.86941,-0.34776 1.16131,-0.75279 1.4441,-1.13186 -0.79717,-1.58963 1.70012,-1.5086 2.38081,-2.30276 0.46862,-0.70291 -0.23455,-1.8731 0.46836,-2.45887 0.58577,-0.58576 1.63882,1.8e-4 2.45887,-0.35127 l 1.99052,-2.2247 c 2.69452,-1.40583 3.51122,0.70221 6.20573,1.28798 -0.005,-0.0878 -0.0586,-0.38049 0.11703,-0.46835 0.82006,-0.58576 1.52166,-1.40489 2.45887,-1.75634 0.70291,-0.23432 1.4047,-0.11703 2.10761,-0.23418 h 0.23418 c -0.11715,-0.35145 -0.46817,-0.70229 -0.81963,-1.17089 -0.58577,-0.46862 -3.16134,-1.99046 -3.2785,-2.10761 0,-0.23429 0.35133,-0.58532 0.23418,-0.81962 -1.28868,-3.16314 -6.44104,1.05532 -4.3323,-1.75634 0.46862,-0.70291 1.5219,-0.93634 1.99052,-1.63925 0.2343,-0.23429 -0.46842,-0.58526 -0.35127,-0.93672 0.11715,-0.46859 0.70241,-0.58518 0.93671,-1.0538 0,-0.11715 -0.46842,-0.35127 -0.35126,-0.35127 0.58575,-0.35145 1.63906,3.2e-4 1.99051,-0.58544 0.35146,-0.58577 -0.3512,-1.52179 -0.46835,-2.2247 -0.46862,-1.87444 -0.35113,-3.04331 -0.58545,-4.91775 0,-0.2343 -0.70253,-0.1169 -0.70253,-0.35127 0.23431,-0.35145 1.05374,-0.35103 1.17089,-0.81962 0.14514,-0.29027 0.21605,-0.51401 0.27321,-0.74157 0.15363,-0.61174 0.0385,-1.06888 0,-1.4441 -0.18478,-0.13867 -0.39171,-0.28858 -0.58545,-0.42932 l -0.62448,0.2732 c 0,0 -0.24057,-0.0834 -0.58544,-0.23417 -0.34117,-0.14927 -0.79406,-0.36861 -1.24896,-0.62448 -0.66819,-0.37586 -1.06815,-0.75758 -1.52216,-0.97574 -0.0112,-0.005 -0.0281,0.005 -0.039,0 -0.15549,-0.0719 -0.28356,-0.1277 -0.46836,-0.15612 -0.36959,-0.0568 -0.76588,0 -1.09283,0 -0.32695,0 -0.62062,-0.0457 -0.81963,-0.27321 -0.19901,-0.22743 -0.25887,-0.36187 -0.35127,-0.3903 -0.0924,-0.0285 -0.18405,0.0425 -0.46835,0.15612 -0.56861,0.22745 -1.25906,0.4371 -1.60022,0.039 -0.24767,-0.28896 -0.51948,-0.43641 -0.89769,-0.50739 -0.0112,-10e-4 -0.0277,0.001 -0.039,0 -0.13327,-0.0222 -0.25875,-0.039 -0.42933,-0.039 -0.32636,0 -0.62901,-0.0204 -0.85866,-0.039 -0.0145,-10e-4 -0.0251,10e-4 -0.039,0 -0.23456,-0.0214 -0.38307,-0.0708 -0.46836,-0.15612 -0.17059,-0.17052 -0.76177,0.0179 -1.4441,-0.039 -0.35534,-0.0296 -0.59907,-0.27085 -0.93671,-0.50739 -0.15816,-0.1149 -0.30881,-0.22253 -0.50739,-0.31223 -0.19858,-0.0897 -0.43245,-0.14192 -0.70254,-0.15612 -1.08036,-0.0568 -1.36841,-0.11029 -2.1076,0.11702 -0.17218,0.053 -0.34666,0.10217 -0.50739,0.11703 -0.51442,0.032 -1.03497,-0.15171 -1.71731,-0.66351 -0.90977,-0.68232 -1.28798,-0.9758 -1.28798,-0.9758 z"
     id="bulgaria"
     fill="#dccfbe"
     fill-rule="nonzero"
     style="stroke:#000000;stroke-width:0.5" />
  
        </svg>