<svg>
        <path d="M230.2 165.2h.1l.1.1v.2h.1V167.5l.1.1.1.1.1.1h.7l.1.1h.1l.2.1H232.2l.1-.2h.1v-.1l.1-.1h.2v-.1H233l.1-.1.1-.2.1-.1.2-.3V166.4h.1l.1-.1.2-.1h.2v-.1h.4v1.5l-.1.2v.1H234.8v-.2l.2-.1v-.1l.1-.1v-.1h.2l.2-.1h.5l.3-.3v-.4h.1v-.1l.2-.1v-.1h.2v-.1h.2l.1.1h.1v.2l.1.1v.4l-.2.3-.1.2v.2l.2.2.3.1h.1v.1h.1V168.4l-.1.2v.1l-.1.2v.1l-.1.3v.1l-.1.2v.1h-.1l-.1.1h-.4l-.1.1h-.1v.1l-.1.1v.9h.1v.1l.2.1.1.1h.1v.1l.2.2v.5h-.2v.1h-1.1v.1h-.1l-.1.2v.1H234.6v.1h-.1v.1l-.1.1v.4l.3.2.1.2.1.1V174.9l.2.2V175.7h.6l.2.1h.1v.1h.1v.1h.1l.1.2.1.1.1.3v.2l.1.1v.1H237.7v.1h.1v.7l-.2.2-.1.2v1.5l.1.2v.2h.1l.1-.1.4-.2H238.5l.2.1.2.2.4.4h.1l.3.1h.2v.1h.1v.1h.1v.2l-.2.2v.2h-.1v.7h-.1l-.1.1-.1.1h-.2l-.1.1h-.1v.1h-.1l-.1.1v.2l.2.1.2.2h.1v.2l.1.2v.5l.1.2-.3.4h-.1l-.1.1v.5l.3.3v.2h.1v.1l.1.1h.1v.1h.5v.1h.1v.1h.1l.2.1h.6v-.1l.1-.1v-.4h-.1l-.1-.1h-.6V185l.1-.1h.1v-.1h.2v-.1h.4l.2.1.1.1h.2l.1-.4H242.2v.2l.2.1v.5l-.2.3v.5l.1.1v.2h.1v.2h.1l.2.1H243.2l.1-.1.2-.1v-.1l.1-.1.2-.3h.2v.8h-.1v.5h.1v.1H245v.2l.1.1.2.3v.2h.1l.2.2v.2H244.4V189l.3.3h.1V189.6l-.1.2v.7H245.2l.1.1h.1v.1l.1.1v.4l-.1.1H245l-.2.1-.3-.2-.2-.1h-.5v.1h-.1V192.4H243.3l-.4-.1h-.1l-.1-.1v.2l.2.2.2.1.1.1.2.1.1.1.1.1v.4l-.1.2v.2l-.1.3h-.4l-.3.4v.5l-.2.2V196.4l-.1.1h-.1l-.2.1-.1.1V197.3l.1.1v.1h.2v.1h.4v-.1l.1-.1v-.5h.1v-.1h.2v-.1h.5l.2.1.1.1v.1l.1.1v.2l-.1.2.1.3-.3.7v.2h.1v.1h-.1v.7h.1v.4l-.2.1v.4l-.1.3-.3.4h-.5l-.2.2-.1.1h-1.3v-.1H240.8v.2l-.1.1V201.9l-.1.3v.5l.1.3v.2l-.1.2h-.1l-.2.1-.2.1v.2h-.1v.8h-.7l-.1.2h-.2l-.3-.4H238.4v1.2h.1V205.9l.2.2v.5l-.1.1H237.5l-.2-.2v-.1l-.2-.2v-.1h-.5l-.1.2h-.1l-.2-.1-.2-.2h-.2l-.1-.1h-.5v.2l-.1.3v.2h-.6v-.1l-.1-.2h-.1l-.1-.2h-.4l-.1.1h-.1v.1l-.2.2v.1l-.1.1-.1.1h-.2v.1h-.1v.5l.1.1.2.2.1.1.1.1h.1v.2h.1V208.7l-.1.2V210.1l.1.1.1.1.3.2h.1v.1l.1.1v.7l.2.3v.7l-.1.3v.2h-.1V213.2l.1.2v.8h-.1v.2h-.1v.4l.1.1.1.1-.2.2-.3.3-.1.1-.2.2v.2l-.1.1-.1.1h-.2l-.2-.1h-.5l-.1.1v.1l-.1.1v.5l-.1.1v.1l-.2.1-.1.2h-.1l-.1.1-.4.2h-.1v-.5l.1-.3.1-.3v-.6h-.5v-.2h-.2v-.1h-.2l-.2-.1-.2-.2-.1-.2-.3-.4-.2-.2h-.2v.1h-.1v1.3h-.1l-.2-.1-.2-.3-.3-.3-.3-.3v-.2h-.2v-.1h-.2V215h-.1l-.1-.1h-.1l-.1-.1h-.5l-.2-.1-.1-.1h-.4l-.2.2h-.4l-.1-.2v-.4l-.1-.1v-.1l-.1-.1h-.5v-.1h-.1v-.1h-.1V212.7h-.1v-.1h-.2l-.2-.1H223.6l-.2.2h-.2V212h-.1v-.2h-.5v-.1h-.2l-.2-.2-.3-.2-.1-.1H221.5v-.2h.1v-.1l.1-.1h.1l.1-.1h.2v-.1h.2v-.2h.1v-.1l.1-.1V210l.1-.2V208.8h-.1v-.1l-.2-.2v-.6h-.1V207.5h-.1v-.1l-.1-.1-.1-.1h-.1l-.3-.2v-.1l-.2-.1V206.6h-.1V206.2l-.2-.3v-.3l-.1-.2-.1-.2v-.1h-.1l-.1-.1-.3-.2-.1-.1-.1-.2V203.6l.1-.3V203h-.2v-.2h-.2v-.1h-.1V202.4l.1-.1.5-.2v-.1h.1v-.2l-.1-.2h-.1V201h.1v-.4l-.2-.2h-.7v-.2l-.1-.2v-.2h.1v-.1H220l.1-.1h.1l.1-.1.1-.2.1-.1V197.7l-.2-.7V196.8h.1l.1-.1h.1l.1-.1.1-.2.2-.6v-.1h.1v-.1h.4v.1h.2v.2h.1l.1.2.3.6.1.1h.2l.1-.1v-.7h.4l.1.1v.2l.2.2h.4l.1-.1v-.1h.1v-.1h1-.9v-.2l-.1-.1-.1-.2-.1-.1v-.1h-.1v-.1h-.1v-.1h-.1v-.8h.1l.1-.3v-.2l-.1-.1h-.2l-.5-.2-.8-.2h-.1l-.1-.1h-.1v-.4l.2-.2v-.4h-.2v-.2h-.1l-.2.3h-.1v.7l-.2.2h.1l-.2.5h-.3l-.1-.1h-.2V194.1h.1l.1.2.2.2V194.9h-.2v.1l-.3.1h-.2l-.1.1h-.6v.1h-.1v.2h-.1l-.1.1h-.2l-.2.2h-.3l-.3.2-.4-.2-.2.1v.2l-.1.1v.6h-.1l-.1.3v.2h-.9l-.1-.1h-.1l-.1-.2h-.1v-.1h-.2v.2l-.1.2v.2h-.1v.1h-.1l-.1.1H214l-.2.1V198h-.1v.1h-.1v.1h-.2l-.2.4v-.1h-.2v-.1h-.1l-.2.1V198.8l-.1.2V200h-.4l-.2-.2h-.1l-.2-.2h-.4v1.5l.1.2v.1h.1V201.7H210v-.1h-.1v-.1l-.1-.1h-1l-.2.1v.1l-.3.3v-.7h-.1l-.2.1v.1l-.1.1-.1.1V202.2H206.6v.2h-.1v.5h-.1v.1h-.8v.1h-.1v.1h-.1V205h-.1l-.2.1v.2h-.3c-.2 0-.6 0-.7-.2v-.8l.1-.3c.2-.6.2-.8.2-1.4 0-.5.3-.6.4-1-.2-.3-.5-.2-.6-.5a3 3 0 0 1-.2-.8c0-.4 0-.5.4-.6h.5l.4-.1-.4-1.1c-.2-.4-.4-.5-.5-.9v-.2l-.2-.4v-.5c0-.2.2-.3.4-.5l.3-.2.3-.3.2-.1h-.1v-.1h-.7v-.1h-.1v-.1h-.1v-.2h-.1v-.1h-.1v-1l.1-.1v-.8h.2l.1-.1.1-.2.2-.2v-.7h-.1l-.1-.1-.2-.1h-.1V190.5h-.1v-.1l-.1-.1h-.2v-.1h-.7v-.1l-.1-.1v-.1h-.1V189.6h.1l.1-.1.3-.1h.1l.1-.2.3-.4v-.1h.4l.4-.2.2-.1h.1l.5-.2.1-.1h.1v-.1l.1-.1v-.6l-.1-.3v-.1H204.8v-.5l.1-.1v-.1h.2l.1-.1v-.5h.1v-.1h.1l.4-.4v-.1h.1l.1-.2.1-.1.2-.3.2-.2V184l-.2-.4v-.5l.2-.2v-.1l.1-.2V181.4h-.1l-.1-.2-.3-.2v-.1l-.1-.1-.1-.1v-.1l-.2-.4-.4-.3V178.9h-.2l-.1-.1-.1-.1v-.9h-.1l-.3-.2-.1-.1v-.1l-.2-.1v-.2l.1-.1.1-.1v-.2l-.2-.3-.1-.2h.5l.3-.3.3-.1h.3l.3-.1v-.2l.1-.1h.2l.3.3.1.1h.2l.1.2h.7l.1.2h.2v.2h.4l.1-.1.1-.1.1-.1h.1v-.1h.2l.2-.1h.2l.2-.2h.2l.3-.1h.1l.1-.1h.1v-.2h.2v-.1h1.4l.2-.1.1-.1v-.1h.1v-.2l.2-.6v-.7l-.1-.1h-.2l-.1-.1h-.2l-.1-.1h-.2v-.1l-.1-.2h-.1v-.2l.1-.2.2-.1.1-.2.1-.1v-.2h.2l.2-.1h.3l.1-.1h.1v-.1h.1v-.2l.1-.1.1-.1h.2v-.1h.3l.1-.1h.1v-.1h.1l.2-.2.2-.2v-.1l.2-.1.1-.2h.2v-.1l.1-.1v-.2l.1-.1h.6l.1-.1h.2v-.1h.2v-.1h.4l.3.1h.6v-.2h.2v-.2h.1l.2-.1h.1l.2-.1v-.1h.2v-.2l.3-.3h.1l.1-.2h.2v-.1l.5-.2h.1v-.1h.1V166h.1l.1-.1h.7v.1h.1v.1l.1.1v.8H221.3v.1h.1l.1.1v.1l.2.2v.1l.1.1H222l.6-.2H222.9l.1.2.1.1v.1l.1.1.3.4V168.9l-.2.1v.1l-.1.2v.5h-.1v.1l-.2.2h-.3V171.1h.1v.1h.4l.1-.1h.4v.7l-.2.3V172.4h-.1l-.1.1h-.4v.1l-.1.1-.1.2V173.3h.1l.2.1h.5l.3-.1.2-.1h1.2v-.1l.2-.2v-.1l.2-.2v-.2h.1l.1-.1h.1v-.1h.9l.1.1.1.1.2.2.1.1h.4l.1-.1v-.1l.1-.1v-.4l.1-.1.3-.2v-.1h.1V171.1l-.2-.1-.1-.1-.1-.1V170.5l.2-.2v-.1l.1-.2v-.5l-.1-.3v-.2l-.1-.2v-.7h-.1l-.1-.1-.2-.1-.3-.2-.2-.1-.1-.2-.1-.1v-.2l-.1-.2V166.7l.1-.1H227.9l.1-.1v-.2l.2-.4v-.2H229l.3-.1H229.6v-.1h.2v-.1l.3-.2h.2Z" id="cologne" stroke="#000000" stroke-width="0.5" fill="#8f8f8f" fill-rule="nonzero"/></svg>
