<svg>
        <path d="M230.20515,165.155376 L230.237684,165.160117 L230.270725,165.171226 L230.296409,165.19015 L230.328869,165.206401 L230.357864,165.238747 L230.413638,165.316223 L230.492733,165.501856 L230.516373,165.567071 L230.528373,165.633202 L230.539302,165.77049 L230.536523,165.90482 L230.521548,166.036076 L230.499493,166.310049 L230.491482,166.378804 L230.490665,166.445916 L230.496142,166.514695 L230.519561,166.649131 L230.525447,166.722978 L230.525447,166.880172 L230.519398,167.035689 L230.524629,167.186294 L230.536474,167.335044 L230.554842,167.409259 L230.578728,167.474458 L230.609627,167.533747 L230.644907,167.585458 L230.700411,167.634512 L230.726856,167.65982 L230.759561,167.679267 L230.819112,167.707093 L230.884204,167.729392 L230.948872,167.746354 L231.013793,167.753875 L231.265654,167.748725 L231.403907,167.750605 L231.474771,167.757717 L231.546125,167.774155 L231.622858,167.795548 L231.695046,167.822384 L231.775237,167.865234 L231.855534,167.918809 L231.920864,167.95664 L232.003613,167.968984 L232.091316,167.94339 L232.115251,167.927842 L232.197583,167.859749 L232.29624,167.743166 L232.407183,167.618123 L232.464812,167.559193 L232.529128,167.499733 L232.587902,167.455199 L232.662624,167.413706 L232.699221,167.397447 L232.779485,167.378597 L232.911035,167.368362 L232.949341,167.357875 L233.028542,167.325692 L233.058338,167.308624 L233.124812,167.263755 L233.177488,167.205202 L233.222136,167.139766 L233.268027,167.068068 L233.304918,166.995995 L233.450087,166.665234 L233.494499,166.58748 L233.533196,166.509896 L233.583796,166.437831 L233.635147,166.372142 L233.688395,166.32079 L233.748011,166.274311 L233.898362,166.180796 L234.064589,166.114485 L234.15046,166.094131 L234.232139,166.080529 L234.307703,166.074643 L234.416635,166.087109 L234.46833,166.110177 L234.495935,166.128153 L234.515177,166.147575 L234.5307,166.173455 L234.55385,166.232548 L234.560308,166.31385 L234.542823,166.410439 L234.524504,166.487237 L234.509708,166.630011 L234.507256,166.835376 L234.518038,166.970801 L234.521798,167.105695 L234.518447,167.235782 L234.519264,167.304929 L234.491725,167.435016 L234.407136,167.646798 L234.369191,167.805864 L234.365839,167.848232 L234.37058,167.907414 L234.378428,167.921556 L234.413136,167.953518 L234.438828,167.956869 L234.457163,167.95548 L234.543518,167.928643 L234.669444,167.844553 L234.793368,167.726008 L234.901997,167.58746 L234.936093,167.524191 L234.961253,167.461338 L234.971888,167.42591 L235.005485,167.368845 L235.022251,167.347689 L235.038338,167.318008 L235.063531,167.30264 L235.085978,167.280774 L235.171458,167.239787 L235.233452,167.213777 L235.369891,167.189752 L235.810131,167.155501 L235.941926,167.132638 L236.18603,166.860978 L236.285619,166.533757 L236.324823,166.462583 L236.363381,166.398962 L236.467866,166.267984 L236.532861,166.213837 L236.592624,166.169221 L236.664804,166.136515 L236.733093,166.111354 L236.771234,166.101946 L236.807905,166.099084 L236.91024,166.110202 L236.982174,166.146447 L237.049417,166.195673 L237.078084,166.226973 L237.10658,166.265523 L237.133687,166.3117 L237.187074,166.421809 L237.221864,166.514327 L237.231649,166.637221 L237.228052,166.679351 L237.21364,166.755038 L237.187556,166.831371 L237.157188,166.900787 L237.116504,166.965921 L236.986817,167.159213 L236.914351,167.288507 L236.878302,167.386796 L236.868084,167.490063 L236.871191,167.528711 L236.880943,167.563632 L236.904076,167.622455 L236.925649,167.64921 L236.972905,167.691668 L237.07318,167.751995 L237.387534,167.899207 L237.466253,167.933057 L237.532499,167.969744 L237.587921,168.017736 L237.627411,168.062948 L237.644177,168.088738 L237.652777,168.121599 L237.654902,168.148787 L237.651714,168.183643 L237.639837,168.219169 L237.603354,168.296302 L237.483992,168.475379 L237.412523,168.617204 L237.360689,168.758302 L237.322433,168.903978 L237.263798,169.19448 L237.236422,169.339044 L237.197504,169.485839 L237.166049,169.569831 L237.120975,169.626717 L237.091262,169.65746 L237.060877,169.679678 L237.030902,169.694613 L236.992834,169.704815 L236.919109,169.73067 L236.845106,169.743668 L236.682166,169.763589 L236.599916,169.769965 L236.526428,169.789362 L236.459038,169.813379 L236.397616,169.846591 L236.373918,169.868286 L236.351954,169.899226 L236.327937,169.926308 L236.296752,170.010545 L236.287425,170.053117 L236.284891,170.168654 L236.289714,170.460659 L236.307256,170.608967 L236.331755,170.757005 L236.379689,170.895708 L236.416621,170.955602 L236.459831,171.019297 L236.575237,171.125654 L236.648921,171.16821 L236.733984,171.209605 L236.760992,171.220109 L236.807847,171.257507 L236.834439,171.275286 L236.877313,171.334714 L236.95036,171.456978 L236.97418,171.53694 L236.993766,171.610787 L237.005921,171.691387 L237.005921,171.767008 L237.008619,171.800327 L236.990283,171.877125 L236.979313,171.911507 L236.945398,171.973967 L236.92376,171.996569 L236.90097,172.026504 L236.8403,172.072264 L236.803621,172.08746 L236.767866,172.104995 L236.724101,172.115638 L236.673559,172.119561 L236.058223,172.105738 L235.983657,172.111542 L235.832708,172.138035 L235.773248,172.161439 L235.704869,172.194921 L235.651613,172.233668 L235.59812,172.285044 L235.491403,172.43497 L235.461166,172.471657 L235.43245,172.502327 L235.39636,172.524978 L235.365403,172.539995 L235.266223,172.568638 L235.236248,172.570926 L235.171842,172.569782 L235.037038,172.539226 L234.908447,172.514629 L234.846019,172.513322 L234.812741,172.508662 L234.782349,172.518275 L234.751384,172.520646 L234.689627,172.552812 L234.630828,172.597084 L234.601041,172.626766 L234.543575,172.712777 L234.495967,172.813044 L234.479954,172.856131 L234.471943,172.902888 L234.464504,172.977774 L234.467856,173.019365 L234.492084,173.092044 L234.544793,173.190414 L234.592965,173.247553 L234.77173,173.423286 L234.83361,173.480433 L234.944054,173.60891 L234.982311,173.672989 L235.003891,173.712357 L235.014052,173.752338 L235.029665,173.791894 L235.038305,173.900392 L235.038305,173.96748 L235.00846,174.412926 L235.009278,174.556371 L235.007888,174.62354 L235.031308,174.757984 L235.054123,174.825406 L235.085185,174.883616 L235.164019,175.006501 L235.192531,175.120428 L235.195801,175.161218 L235.189589,175.24324 L235.164281,175.401324 L235.117114,175.616629 L235.11924,175.643817 L235.115725,175.671455 L235.123572,175.697932 L235.140354,175.736597 L235.154136,175.750011 L235.19867,175.773905 L235.270605,175.781997 L235.363907,175.767226 L235.488853,175.73658 L235.732302,175.697793 L235.819172,175.677357 L235.847488,175.641627 L235.995698,175.840657 L236.125866,175.884986 L236.186341,175.921322 L236.238779,175.956937 L236.294463,176.008134 L236.343027,176.057728 L236.427387,176.174826 L236.501014,176.304283 L236.53233,176.378294 L236.607567,176.603123 L236.649591,176.824101 L236.695294,176.922202 L236.717357,176.955087 L236.745281,176.986444 L236.777905,177.004828 L236.812425,177.021995 L236.850256,177.033798 L236.925975,177.042381 L237.18776,176.992779 L237.370834,176.965926 L237.413202,176.962657 L237.489763,176.969278 L237.529074,176.987139 L237.562114,176.998248 L237.596218,177.022689 L237.624223,177.055109 L237.65142,177.092956 L237.674218,177.131956 L237.697433,177.191842 L237.720935,177.327357 L237.727311,177.407597 L237.714608,177.482883 L237.699599,177.551106 L237.675101,177.622223 L237.610074,177.757371 L237.454719,178.019719 L237.389946,178.161022 L237.363379,178.231223 L237.349106,178.308774 L237.343956,178.390992 L237.344774,178.471411 L237.391638,179.060025 L237.421613,179.364545 L237.444616,179.506264 L237.476708,179.652635 L237.548569,179.919569 L237.583057,180.055147 L237.587406,180.053531 L237.622924,180.033063 L237.744052,179.976431 L238.074583,179.835373 L238.161959,179.821338 L238.24479,179.822155 L238.320444,179.829921 L238.404771,179.849646 L238.483646,179.885351 L238.561956,179.926469 L238.635877,179.975172 L238.790757,180.085706 L239.212548,180.455245 L239.231798,180.465283 L239.258725,180.484109 L239.318439,180.51406 L239.630651,180.618798 L239.793444,180.681504 L239.859591,180.717128 L239.918815,180.753292 L239.968131,180.796665 L239.98251,180.817542 L239.995981,180.842785 L240.004074,180.869515 L240.006281,180.897504 L239.998924,180.952526 L239.958158,181.016589 L239.930921,181.053308 L239.825741,181.163147 L239.768692,181.241891 L239.73082,181.326643 L239.705815,181.403965 L239.686932,181.486174 L239.674229,181.570845 L239.667771,181.733638 L239.667771,181.883556 L239.660496,181.952253 L239.637575,182.0557 L239.627169,182.08467 L239.593817,182.141719 L239.571027,182.171654 L239.486635,182.238839 L239.371531,182.296076 L239.218932,182.361332 L239.061297,182.435286 L238.981785,182.476076 L238.913578,182.514913 L238.854125,182.560305 L238.831499,182.582989 L238.797068,182.626436 L238.786605,182.654613 L238.776526,182.675245 L238.780777,182.728297 L238.809452,182.781586 L238.829946,182.807351 L238.863657,182.839338 L239.003757,182.923926 L239.083049,182.96497 L239.211158,183.071147 L239.262134,183.135308 L239.297921,183.19342 L239.334943,183.266981 L239.359572,183.332123 L239.39545,183.479008 L239.408267,183.552316 L239.462766,184.005144 L239.512948,184.219044 L239.479997,184.221578 L239.239474,184.600796 L239.132782,184.62894 L239.090831,184.653128 L239.05318,184.668668 L238.994978,184.720403 L238.960981,184.772401 L238.95091,184.805638 L238.944534,184.868907 L238.94715,184.902226 L238.963858,184.967989 L238.989984,185.048842 L239.071049,185.199717 L239.272564,185.517185 L239.36048,185.666458 L239.41197,185.765188 L239.469215,185.836109 L239.525063,185.898823 L239.579177,185.942891 L239.631044,185.971313 L239.682575,185.995469 L239.735512,186.012275 L239.793738,186.020368 L239.901109,186.025681 L240.009804,186.04458 L240.062659,186.060324 L240.121638,186.090332 L240.175065,186.125875 L240.236447,186.176629 L240.282787,186.220232 L240.34367,186.261627 L240.488471,186.333251 L240.565213,186.354643 L240.643172,186.369496 L240.725766,186.376771 L240.807599,186.37767 L240.882338,186.364608 L240.956815,186.345136 L240.994384,186.328534 L241.023281,186.31261 L241.114278,186.243831 L241.136888,186.208542 L241.159752,186.179409 L241.182281,186.143049 L241.199373,186.100951 L241.216204,186.005229 L241.223071,185.956411 L241.223071,185.888253 L241.213948,185.773624 L241.184692,185.700529 L241.162548,185.666572 L241.134534,185.643537 L241.069866,185.61397 L240.960681,185.601512 L240.872733,185.608379 L240.791054,185.621973 L240.616646,185.635542 L240.502507,185.632926 L240.43667,185.610692 L240.409752,185.591858 L240.38151,185.565896 L240.368202,185.533403 L240.351837,185.500068 L240.336452,185.454054 L240.33212,185.39994 L240.333019,185.338984 L240.340213,185.270286 L240.364229,185.193046 L240.397155,185.115112 L240.435125,185.044027 L240.486477,184.965733 L240.549796,184.893749 L240.613785,184.827071 L240.679008,184.766474 L240.750673,184.714763 L240.82936,184.672967 L240.939926,184.630837 L241.016234,184.624869 L241.092771,184.631245 L241.163561,184.653095 L241.197174,184.671406 L241.223619,184.696706 L241.259226,184.727466 L241.375204,184.841025 L241.428722,184.877638 L241.514054,184.919278 L241.551297,184.92361 L241.588948,184.920668 L241.620338,184.910989 L241.644526,184.895425 L241.691594,184.850989 L241.713959,184.815725 L241.844627,184.546975 L241.88648,184.50912 L241.910504,184.494643 L241.948163,184.4917 L241.960384,184.497995 L241.994332,184.507967 L242.067861,184.564207 L242.158973,184.666019 L242.27209,184.828084 L242.316706,184.912591 L242.332572,184.952131 L242.34149,184.99221 L242.347948,185.07352 L242.345496,185.114482 L242.316452,185.225646 L242.284433,185.302436 L242.245474,185.373594 L242.116948,185.58155 L242.077572,185.637995 L242.044548,185.702253 L242.034322,185.730414 L242.031134,185.765262 L242.021651,185.793365 L242.028109,185.874668 L242.055706,185.926975 L242.106264,185.998411 L242.148812,186.069406 L242.181632,186.149736 L242.213439,186.220493 L242.292698,186.433199 L242.323777,186.49167 L242.359629,186.550575 L242.395981,186.603275 L242.436714,186.638997 L242.490322,186.676673 L242.555414,186.698973 L242.586804,186.701916 L242.632564,186.713106 L242.714251,186.712125 L242.821098,186.69845 L242.944793,186.674074 L243.187417,186.615504 L243.304351,186.565632 L243.359169,186.534005 L243.471951,186.457101 L243.519411,186.405128 L243.572659,186.353777 L243.624591,186.295289 L243.670989,186.229984 L243.787629,186.044948 L243.822313,186.001477 L243.850057,185.97115 L243.917439,185.925153 L243.94246,185.923191 L243.949981,185.929812 L243.962193,185.936106 L243.968896,185.935289 L243.975599,185.947371 L243.98312,185.953992 L244.01088,185.999041 L244.029395,186.071899 L244.042809,186.15267 L244.05033,186.247305 L244.039703,186.445289 L244.011272,186.639283 L243.966575,186.785466 L243.948902,186.807757 L243.938831,186.82839 L243.89285,186.88642 L243.881962,186.921872 L243.865858,186.951292 L243.854087,187.046629 L243.859564,187.115409 L243.868335,187.141011 L243.876771,187.174959 L243.923292,187.267632 L243.964262,187.318902 L244.018866,187.369101 L244.072891,187.412106 L244.139046,187.44773 L244.280856,187.491153 L244.358725,187.492379 L244.440232,187.486003 L244.521322,187.464946 L244.562774,187.450183 L244.605714,187.438526 L244.686975,187.432232 L244.726531,187.437463 L244.759155,187.446455 L244.857362,187.49327 L244.884289,187.512095 L244.938886,187.562302 L244.988872,187.626545 L245.037452,187.698136 L245.210136,188.022946 L245.292616,188.188469 L245.341597,188.265128 L245.464376,188.439046 L245.486619,188.48667 L245.508755,188.517406 L245.525627,188.585294 L245.52391,188.620289 L245.51827,188.634136 L245.507643,188.64836 L245.471815,188.677436 L245.446294,188.68561 L245.389065,188.690025 L245.314253,188.690025 L245.155351,188.676128 L244.980992,188.640341 L244.828025,188.613341 L244.764019,188.604643 L244.712733,188.608649 L244.587371,188.624572 L244.501221,188.644681 L244.47051,188.659681 L244.441114,188.681834 L244.435147,188.694905 L244.435965,188.703169 L244.431223,188.716142 L244.434411,188.755591 L244.449272,188.782599 L244.506035,188.859995 L244.560158,188.916676 L244.813858,189.156856 L244.861286,189.21406 L244.898087,189.272351 L244.914093,189.32636 L244.912458,189.368597 L244.849474,189.542221 L244.793864,189.723578 L244.751144,189.897766 L244.738213,189.97951 L244.726932,190.144011 L244.739341,190.212251 L244.741956,190.245578 L244.749395,190.279599 L244.764109,190.304744 L244.772545,190.338684 L244.793774,190.357959 L244.807335,190.384264 L244.83624,190.402935 L244.856144,190.421237 L244.953289,190.454719 L245.050082,190.458725 L245.101033,190.475678 L245.152499,190.486428 L245.198267,190.510232 L245.277886,190.558485 L245.305319,190.583711 L245.335065,190.616 L245.362572,190.654632 L245.37794,190.688041 L245.399504,190.727131 L245.418591,190.807191 L245.424967,190.887431 L245.418346,190.963322 L245.409935,191.004749 L245.399046,191.040202 L245.367771,191.110763 L245.342929,191.14006 L245.298681,191.197951 L245.267381,191.221305 L245.200842,191.252768 L245.162766,191.262978 L245.125106,191.265921 L245.036733,191.258074 L244.991226,191.250063 L244.828883,191.336989 L244.755354,191.233804 L244.483433,191.071485 L244.325259,190.994744 L244.240687,190.95948 L244.163316,190.939477 L244.086076,190.924297 L244.00949,190.917349 L243.972346,190.926684 L243.941373,190.929054 L243.903215,190.938193 L243.843444,190.970204 L243.814049,190.992341 L243.783256,191.022095 L243.716398,191.137272 L243.694041,191.18515 L243.670114,191.276065 L243.667499,191.318114 L243.669134,191.495041 L243.734202,191.992918 L243.74115,192.080351 L243.74115,192.162185 L243.738452,192.203163 L243.72839,192.236409 L243.724548,192.272384 L243.697376,192.32251 L243.673924,192.34418 L243.625703,192.377172 L243.595155,192.384937 L243.557496,192.38788 L243.51942,192.38551 L243.473651,192.374311 L243.402861,192.35246 L243.330681,192.325624 L243.002937,192.173008 L242.866082,192.116597 L242.814706,192.106918 L242.794556,192.101196 L242.763591,192.103649 L242.752286,192.118207 L242.753839,192.137932 L242.762757,192.165406 L242.777553,192.191613 L242.827041,192.262068 L243.015158,192.486431 L243.077782,192.549684 L243.151229,192.604861 L243.310728,192.713965 L243.473136,192.818817 L243.546068,192.867594 L243.613809,192.923213 L243.696003,193.013114 L243.712033,193.045395 L243.733025,193.077292 L243.742613,193.110079 L243.750624,193.151294 L243.75324,193.184621 L243.74809,193.266569 L243.732984,193.308512 L243.709204,193.351134 L243.687673,193.400016 L243.654828,193.450853 L243.569063,193.560259 L243.515627,193.781417 L243.481785,194.139193 L243.148817,194.165098 L242.808845,194.516376 L242.834668,194.596444 L242.844428,194.719076 L242.827327,194.823144 L242.806711,194.89288 L242.779564,194.95588 L242.714782,195.084578 L242.642651,195.218131 L242.615578,195.281932 L242.590482,195.358183 L242.576635,195.428466 L242.571403,195.509613 L242.577861,195.590924 L242.597046,195.684651 L242.625068,195.792447 L242.647948,195.907616 L242.658052,195.974965 L242.662956,196.036281 L242.662956,196.097155 L242.654218,196.159534 L242.639112,196.214082 L242.601984,196.298785 L242.585815,196.327403 L242.5613,196.351305 L242.544959,196.37779 L242.490714,196.41661 L242.424493,196.455292 L242.351341,196.488341 L242.208722,196.519289 L242.135324,196.552362 L242.081668,196.610981 L242.059548,196.640065 L242.042962,196.675959 L242.023572,196.751768 L242.017523,196.835123 L242.027202,196.881578 L242.04136,196.974896 L242.075161,197.067488 L242.113744,197.160782 L242.166624,197.251894 L242.222136,197.335559 L242.293278,197.411834 L242.36052,197.473657 L242.427755,197.522883 L242.467319,197.540728 L242.539016,197.561433 L242.576251,197.565766 L242.671139,197.558409 L242.751223,197.524812 L242.782188,197.509804 L242.83403,197.450245 L242.851188,197.421545 L242.864807,197.385888 L242.882381,197.349913 L242.901174,197.26664 L242.931101,197.09452 L242.955567,196.922826 L242.981136,196.840101 L242.989956,196.803741 L243.00606,196.761717 L243.029905,196.732501 L243.046074,196.703883 L243.074815,196.673482 L243.105199,196.651272 L243.135093,196.635267 L243.178687,196.619262 L243.220728,196.608749 L243.272005,196.604744 L243.396452,196.602292 L243.549493,196.617741 L243.627624,196.631515 L243.711109,196.653185 L243.783886,196.67488 L243.855902,196.708984 L243.921804,196.744624 L243.980872,196.788308 L244.03242,196.847065 L244.053403,196.878962 L244.08373,196.943662 L244.102,197.025929 L244.095379,197.16164 L244.065763,197.265602 L243.972559,197.38176 L244.127888,197.65454 L243.782529,198.404564 L243.808327,198.484371 L243.887455,198.629613 L243.913057,198.656858 L243.884986,198.670583 L243.86236,198.693259 L243.832057,198.71654 L243.801763,198.752425 L243.780959,198.794817 L243.752226,198.837823 L243.742327,198.873193 L243.731774,198.900308 L243.721875,198.935678 L243.729967,199.037777 L243.747992,199.104504 L243.772204,199.176921 L243.805016,199.244646 L243.866095,199.388768 L243.896676,199.453444 L243.924616,199.560177 L243.930174,199.630289 L243.922899,199.697916 L243.913,199.733286 L243.896414,199.76918 L243.873313,199.798338 L243.852101,199.835662 L243.822142,199.86321 L243.738338,199.925253 L243.685956,200.147131 L243.694572,200.255368 L243.55967,200.627441 L243.251978,200.970839 L243.167063,200.931308 L243.088507,200.908992 L243.057796,200.905232 L242.986196,200.91079 L242.931166,200.92718 L242.8463,200.975899 L242.800221,201.020253 L242.753749,201.072153 L242.600365,201.224638 L242.541828,201.272106 L242.480986,201.315733 L242.414594,201.349068 L242.334411,201.368981 L242.246218,201.375847 L242.106886,201.372986 L241.972858,201.355248 L241.709153,201.308703 L241.195703,201.206221 L241.11239,201.199272 L241.07473,201.202215 L241.005926,201.220984 L240.945984,201.250861 L240.875553,201.31803 L240.852444,201.347188 L240.835351,201.376681 L240.809202,201.439608 L240.784114,201.515858 L240.763074,201.592869 L240.744845,201.670738 L240.725807,201.835567 L240.700638,202.142507 L240.616384,202.36794 L240.653161,202.42597 L240.694074,202.476431 L240.765109,202.573371 L240.785275,202.667025 L240.825657,202.92997 L240.790098,203.034398 L240.754033,203.132433 L240.694294,203.333956 L240.631033,203.347199 L240.568114,203.3647 L240.433842,203.415913 L240.306027,203.485673 L240.247401,203.532079 L240.193163,203.583512 L240.107888,203.699049 L240.075796,203.762433 L240.045763,203.87367 L240.042902,203.909572 L240.04609,203.950093 L240.043392,203.991071 L240.061997,204.077605 L240.088858,204.170744 L240.123248,204.270798 L240.141272,204.350131 L240.139556,204.391044 L240.13506,204.419556 L240.113439,204.467368 L240.095856,204.49073 L240.079597,204.505681 L240.053341,204.52033 L240.004213,204.538902 L239.972684,204.546749 L239.90406,204.552063 L239.759447,204.557948 L239.605916,204.548965 L239.461728,204.56018 L239.404989,204.570766 L239.373599,204.580452 L239.350147,204.589518 L239.257016,204.703518 L239.085796,204.610084 L238.825049,204.268787 L238.738335,204.294308 L238.658733,204.321422 L238.498041,204.369602 L238.586594,205.481785 L238.599248,205.556172 L238.624302,205.636035 L238.68803,205.800872 L238.763978,205.971995 L238.827706,206.136831 L238.853504,206.216638 L238.865161,206.291098 L238.862708,206.332068 L238.865324,206.365387 L238.836305,206.464207 L238.789417,206.523381 L238.760275,206.551935 L238.723368,206.576801 L238.681253,206.598856 L238.576139,206.63439 L238.459621,206.664381 L238.333597,206.681425 L238.208733,206.691136 L238.081793,206.687376 L237.825779,206.665444 L237.699338,206.642826 L237.531436,206.600368 L237.465362,206.565807 L237.431177,206.540302 L237.314226,206.427087 L237.26464,206.3553 L237.221104,206.284387 L237.084763,206.077992 L237.035202,206.019079 L237.009599,206.001226 L236.954496,205.957232 L236.855561,205.9263 L236.786937,205.931613 L236.707621,205.949858 L236.616951,205.997678 L236.50148,206.22554 L236.494613,206.211324 L236.48742,206.205684 L236.486439,206.193153 L236.478918,206.186531 L236.465594,206.154038 L236.400272,206.138196 L236.33518,206.115905 L236.204921,206.057907 L235.95812,205.919924 L235.834801,205.861387 L235.703553,205.803463 L235.566706,205.772262 L235.503853,205.76564 L235.427807,205.76564 L235.370823,205.770054 L235.272044,205.791153 L235.234311,205.805621 L235.174687,205.852101 L235.151324,205.874842 L235.133995,205.901401 L235.113117,205.958556 L235.106905,206.027172 L235.10388,206.314436 L235.099548,206.347232 L235.098567,206.381916 L235.077608,206.437992 L235.060597,206.468556 L235.013529,206.512984 L234.983054,206.534131 L234.946899,206.543384 L234.902455,206.561327 L234.78924,206.570139 L234.675379,206.558368 L234.641929,206.542199 L234.609877,206.531008 L234.583041,206.513253 L234.528436,206.463046 L234.4797,206.411311 L234.437962,206.353673 L234.352131,206.230526 L234.26621,206.1157 L234.184744,206.047469 L234.126019,206.017436 L234.093984,206.006515 L234.021967,205.99736 L233.940706,206.003654 L233.842768,206.032191 L233.76852,206.06721 L233.701474,206.104877 L233.641777,206.150294 L233.595698,206.194649 L233.549226,206.246548 L233.508698,206.288597 L233.434662,206.398158 L233.355747,206.505962 L233.31597,206.557338 L233.26842,206.608248 L233.215916,206.659542 L233.150431,206.70433 L233.083638,206.745202 L232.999,206.784243 L232.92006,206.832234 L232.889757,206.855507 L232.859872,206.884125 L232.833722,206.934439 L232.829112,206.928847 L232.819041,206.962084 L232.815853,206.996932 L232.82133,207.065711 L232.830501,207.105774 L232.878256,207.217125 L232.922381,207.29551 L232.979153,207.372905 L233.041866,207.449834 L233.172477,207.596858 L233.304076,207.721812 L233.418616,207.814493 L233.506351,207.889477 L233.575899,207.958371 L233.625469,208.029888 L233.656703,208.102828 L233.666128,208.136695 L233.671441,208.203341 L233.666946,208.231052 L233.65967,208.299749 L233.646215,208.362488 L233.540929,208.630599 L233.520967,208.699215 L233.507602,208.775621 L233.501063,208.850433 L233.506948,208.924272 L233.524,209.06645 L233.524,209.208913 L233.514755,209.496643 L233.507725,209.639621 L233.505845,209.78864 L233.523166,210.006169 L233.535493,210.073338 L233.545409,210.113343 L233.574992,210.178101 L233.618161,210.244011 L233.701188,210.319362 L234.041005,210.529779 L234.10206,210.573308 L234.156142,210.629924 L234.177698,210.656409 L234.22094,210.720177 L234.235163,210.754747 L234.25524,210.834725 L234.262106,210.921095 L234.252215,210.969079 L234.238973,211.093763 L234.23742,211.162011 L234.242815,211.229728 L234.265327,211.365308 L234.28327,211.430973 L234.380398,211.695946 L234.441403,211.90176 L234.464978,212.050673 L234.464978,212.124962 L234.458275,212.200853 L234.445245,212.268921 L234.40582,212.409324 L234.280556,212.670676 L234.253409,212.733676 L234.213984,212.874079 L234.201125,212.944281 L234.200063,213.018668 L234.205866,213.091444 L234.22506,213.172837 L234.258084,213.259248 L234.310826,213.383098 L234.365929,213.583272 L234.383161,213.799738 L234.376376,213.874559 L234.34851,214.012992 L234.323757,214.084125 L234.290496,214.154842 L234.252199,214.22488 L234.200104,214.290627 L234.111755,214.380112 L234.089553,214.408125 L234.055302,214.466319 L234.045322,214.500627 L234.039436,214.560905 L234.03494,214.589409 L234.037719,214.623798 L234.062602,214.717354 L234.094678,214.775752 L234.137643,214.839463 L234.184728,214.892401 L234.246779,214.94846 L234.305831,214.995104 L234.082916,215.191624 L233.779025,215.495033 L233.65627,215.640847 L233.547379,215.779142 L233.457057,215.933147 L233.441439,215.964349 L233.42733,216.018823 L233.411978,216.06079 L233.376057,216.119147 L233.361501,216.146597 L233.337403,216.163223 L233.320147,216.178248 L233.270921,216.19548 L233.245613,216.197376 L233.161703,216.183005 L233.104057,216.166567 L233.038,216.14461 L232.906834,216.087757 L232.765253,216.044049 L232.692747,216.028771 L232.623632,216.027954 L232.554044,216.033414 L232.517619,216.042414 L232.401935,216.104793 L232.330196,216.158654 L232.261433,216.246888 L232.245019,216.275523 L232.213172,216.338891 L232.191559,216.408708 L232.177499,216.539621 L232.167583,216.806482 L232.158771,216.868052 L232.144662,216.922526 L232.122959,216.978668 L232.095706,217.02773 L232.020501,217.122635 L231.944872,217.202817 L231.86379,217.283425 L231.774469,217.360657 L231.672248,217.435665 L231.552035,217.51315 L231.243044,217.668087 L231.18673,217.684003 L231.136981,217.695046 L231.123771,217.688834 L231.105011,217.68491 L231.077913,217.673335 L231.064041,217.646253 L231.047169,217.606526 L231.043981,217.566267 L231.046433,217.5127 L231.068692,217.388384 L231.106131,217.235531 L231.207011,216.899629 L231.305005,216.552422 L231.336256,216.39388 L231.356349,216.242376 L231.358147,216.180537 L231.353243,216.119229 L231.34233,216.0667 L231.320774,216.027602 L231.292278,215.989044 L231.25815,215.964341 L231.212978,215.948008 L231.156411,215.945147 L230.940787,215.942041 L230.870095,215.933858 L230.818719,215.92418 L230.77354,215.907815 L230.751469,215.874962 L230.750651,215.868831 L230.744496,215.863174 L230.742371,215.835978 L230.735831,215.829275 L230.720283,215.803125 L230.715134,215.788771 L230.706044,215.784112 L230.693226,215.770354 L230.65349,215.747155 L230.59403,215.723613 L230.516308,215.702302 L230.368866,215.672736 L230.316411,215.649455 L230.224131,215.601913 L230.128474,215.527542 L230.039676,215.439234 L229.956313,215.344052 L229.878828,215.241177 L229.579662,214.821332 L229.51085,214.739777 L229.407256,214.637858 L229.38042,214.620104 L229.347052,214.601777 L229.313929,214.589597 L229.282466,214.585853 L229.250512,214.588289 L229.166046,214.642068 L229.144327,214.672992 L229.121136,214.701087 L229.104469,214.73591 L229.085668,214.806578 L229.072817,214.889392 L229.066605,214.970613 L229.068403,215.065698 L229.089681,215.260926 L229.118578,215.464142 L229.141842,215.67182 L229.144703,215.864458 L229.106766,216.036128 L229.07854,216.072929 L229.066392,216.080041 L229.048057,216.081447 L229.002886,216.065114 L228.962071,216.040935 L228.915322,216.004869 L228.811711,215.902689 L228.57521,215.621736 L228.309027,215.287305 L228.048297,214.974439 L227.925452,214.849877 L227.762545,214.710463 L227.710278,214.689586 L227.652379,214.673147 L227.632065,214.674717 L227.596417,214.690371 L227.584417,214.699354 L227.550567,214.762608 L227.537798,214.824488 L227.525431,214.913433 L227.524613,214.987796 L227.527229,215.020052 L227.491213,214.971619 L227.431082,214.914602 L227.363185,214.866512 L227.297439,214.835948 L227.167335,214.79242 L227.097542,214.783101 L227.027193,214.782283 L226.747319,214.764357 L226.677526,214.75503 L226.612409,214.732469 L226.547864,214.704496 L226.479109,214.661294 L226.445913,214.635717 L226.380837,214.601082 L226.346807,214.590046 L226.251362,214.577866 L226.220136,214.586466 L226.157692,214.597493 L226.102621,214.616531 L225.987044,214.680243 L225.812823,214.780698 L225.749651,214.807608 L225.682106,214.826548 L225.588215,214.833823 L225.517531,214.825894 L225.48548,214.814711 L225.439736,214.791177 L225.394458,214.773512 L225.325482,214.71182 L225.282101,214.645984 L225.260619,214.607956 L225.23151,214.486567 L225.217858,214.399649 L225.210992,214.229319 L225.19815,214.06803 L225.18055,213.994027 L225.149717,213.93554 L225.128905,213.908997 L225.075387,213.872384 L225.036248,213.856657 L224.952338,213.842286 L224.771234,213.856371 L224.699463,213.847207 L224.635956,213.832297 L224.576741,213.808738 L224.523886,213.780398 L224.476965,213.742199 L224.429627,213.69867 L224.393357,213.647041 L224.363038,213.594954 L224.32855,213.46861 L224.323074,213.399831 L224.323074,213.32448 L224.329858,213.249659 L224.394395,213.033267 L224.398646,212.999401 L224.393905,212.939956 L224.376297,212.878289 L224.362,212.845877 L224.331673,212.793782 L224.311016,212.769104 L224.283681,212.741989 L224.229649,212.698984 L224.169199,212.662918 L224.097828,212.633866 L224.019616,212.606425 L223.941828,212.593698 L223.853962,212.592226 L223.7727,212.59852 L223.685586,212.618973 L223.592602,212.647134 L223.508537,212.693368 L223.385512,212.751218 L223.336213,212.767665 L223.293101,212.777188 L223.228433,212.769586 L223.216294,212.764354 L223.181602,212.73245 L223.151537,212.674166 L223.142104,212.6403 L223.131918,212.512338 L223.127913,212.20552 L223.113689,212.111409 L223.109929,212.064488 L223.092485,212.017559 L223.08364,211.97855 L223.040349,211.913785 L223.013161,211.888542 L222.980537,211.870158 L222.940973,211.852313 L222.889605,211.842635 L222.838319,211.84664 L222.74988,211.847458 L222.666804,211.834068 L222.590823,211.81906 L222.512602,211.79161 L222.373016,211.713422 L222.244572,211.615583 L221.946624,211.373744 L221.880379,211.337057 L221.821654,211.307025 L221.756643,211.285787 L221.692065,211.269896 L221.629556,211.267526 L221.558946,211.273003 L221.496591,211.285093 L221.470074,211.293324 L221.508935,211.196123 L221.551278,211.104847 L221.603529,211.025409 L221.660079,210.952877 L221.724812,210.88615 L221.790297,210.841362 L221.833237,210.817093 L221.913322,210.783504 L222.043392,210.754608 L222.117297,210.727935 L222.183698,210.694608 L222.305153,210.617033 L222.390501,210.514894 L222.430866,210.458376 L222.464136,210.400264 L222.490875,210.344809 L222.512324,210.282251 L222.567354,210.093692 L222.594322,209.969008 L222.608218,209.836763 L222.597608,209.703471 L222.580883,209.568512 L222.534297,209.299608 L222.518553,209.164575 L222.517736,209.095411 L222.519125,209.028243 L222.52542,208.959627 L222.540256,208.889262 L222.575905,208.785905 L222.559948,208.820123 L222.475687,208.729305 L222.425218,208.658932 L222.349188,208.508736 L222.325221,208.442466 L222.289916,208.302782 L222.235335,208.021093 L222.212905,207.886575 L222.193319,207.812719 L222.145376,207.674016 L222.114232,207.602139 L222.076221,207.528651 L222.033591,207.456594 L221.976428,207.386744 L221.921316,207.330136 L221.860196,207.273202 L221.798905,207.223518 L221.54482,207.053646 L221.484191,207.002834 L221.42339,206.959281 L221.32045,206.853022 L221.276324,206.787251 L221.240872,206.720809 L221.206662,206.635485 L221.188057,206.548951 L221.153243,206.415398 L221.115796,206.276956 L221.030725,206.003801 L220.937978,205.731251 L220.866542,205.457041 L220.801335,205.286155 L220.757717,205.214172 L220.709292,205.157049 L220.654605,205.105779 L220.594629,205.06324 L220.288605,204.87648 L220.234,204.826281 L220.178823,204.76888 L220.128403,204.711643 L220.085283,204.633455 L220.053052,204.547984 L220.027253,204.468177 L220.015082,204.387316 L220.009196,204.313469 L220.010341,204.174946 L220.024605,204.106779 L220.044158,204.036054 L220.058659,203.974035 L220.15891,203.714638 L220.239035,203.449828 L220.243613,203.347804 L220.239771,203.29982 L220.220684,203.219768 L220.204907,203.181292 L220.160782,203.11552 L220.106602,203.058046 L220.040373,203.009008 L219.905463,202.917578 L219.7857,202.831673 L219.730678,202.788741 L219.688441,202.737308 L219.682065,202.71688 L219.666861,202.685613 L219.662365,202.629357 L219.681338,202.560823 L219.698014,202.526 L219.724678,202.482079 L219.74245,202.46112 L219.767054,202.438281 L219.819967,202.395267 L219.886106,202.355523 L220.270883,202.175646 L220.390858,202.092014 L220.430578,202.039837 L220.440886,202.012747 L220.452853,201.990896 L220.457431,201.964248 L220.454733,201.929858 L220.445308,201.895992 L220.407975,201.83103 L220.302403,201.716662 L220.160259,201.653417 L220.148905,201.510798 L220.256553,201.140842 L220.293787,201.104417 L220.321114,201.06876 L220.377068,200.954433 L220.379275,200.919659 L220.388267,200.885433 L220.38279,200.816654 L220.37527,200.784782 L220.331471,200.69806 L220.309989,200.672376 L220.255384,200.622169 L220.123302,200.541243 L220.051033,200.513335 L219.972248,200.491305 L219.896022,200.476313 L219.814335,200.477294 L219.738779,200.48318 L219.571621,200.522204 L219.495003,200.514766 L219.436106,200.48582 L219.380431,200.434624 L219.35894,200.40894 L219.32952,200.343095 L219.310924,200.269166 L219.301302,200.148406 L219.313163,200.065673 L219.333698,199.98227 L219.34855,199.946507 L219.371905,199.911161 L219.387485,199.875079 L219.416635,199.837403 L219.44133,199.815635 L219.471125,199.785954 L219.500022,199.77003 L219.537673,199.75449 L219.617782,199.733777 L219.707128,199.741297 L219.796646,199.75418 L219.885338,199.753362 L219.972297,199.746578 L220.052553,199.727728 L220.125477,199.701128 L220.200362,199.661777 L220.266338,199.623112 L220.326518,199.571221 L220.384065,199.511221 L220.430529,199.446717 L220.467837,199.37676 L220.500436,199.297771 L220.525441,199.220458 L220.543417,199.13 L220.55012,199.041504 L220.549139,198.953605 L220.515657,198.608311 L220.449935,198.111553 L220.422935,197.847569 L220.317084,197.141229 L220.316243,196.984109 L220.329191,196.91497 L220.359779,196.82327 L220.393858,196.772335 L220.442005,196.728888 L220.464951,196.713422 L220.495826,196.697343 L220.534155,196.687117 L220.606924,196.661875 L220.674035,196.621787 L220.727283,196.583041 L220.774351,196.538605 L220.842861,196.431619 L220.883545,196.319548 L220.963997,195.824033 L220.979496,195.774545 L221.001755,195.725335 L221.046681,195.653973 L221.070297,195.631215 L221.10167,195.608924 L221.16252,195.577902 L221.25642,195.570627 L221.294079,195.580305 L221.366014,195.603946 L221.438022,195.638041 L221.512286,195.678398 L221.58579,195.734376 L221.652698,195.79194 L221.784869,195.924087 L221.839719,195.986875 L221.932327,196.110569 L222.220654,196.713659 L222.261967,196.77858 L222.304777,196.827823 L222.33261,196.845504 L222.352597,196.864869 L222.378951,196.876501 L222.405452,196.880589 L222.431463,196.878545 L222.455259,196.870534 L222.479447,196.85497 L222.532605,196.802556 L222.555223,196.767267 L222.611668,196.668455 L222.624501,196.597452 L222.622458,196.571327 L222.601049,196.449602 L222.529196,196.182668 L222.517523,196.123763 L222.514744,196.088302 L222.519567,196.061638 L222.517932,196.041112 L222.527324,196.011954 L222.531411,195.991779 L222.548177,195.970624 L222.584594,195.939627 L222.645469,195.92148 L222.722022,195.915512 L222.822526,195.928616 L222.906861,195.948341 L222.978297,195.990798 L223.014403,196.015346 L223.097847,196.111591 L223.18327,196.254619 L223.301357,196.463507 L223.344828,196.521014 L223.371501,196.539856 L223.391741,196.559204 L223.450801,196.580899 L223.477638,196.586049 L223.508357,196.583678 L223.582858,196.564469 L223.66188,196.517556 L223.763357,196.433213 L223.820471,196.367883 L223.865888,196.302651 L223.898234,196.233079 L223.918033,196.16233 L223.919995,196.140185 L223.94791,196.146316 L224.04445,196.159722 L224.590523,196.267992 L224.729757,196.269872 L224.853534,196.233954 L224.884409,196.217875 L224.890057,196.212147 L224.860719,196.22842 L224.798937,196.247711 L224.737916,196.263995 L224.59752,196.263177 L224.052354,196.153763 L223.955896,196.14142 L223.928234,196.135289 L223.933548,196.02061 L223.903858,195.879414 L223.871946,195.807324 L223.799308,195.677785 L223.749346,195.613812 L223.695142,195.556068 L223.638975,195.498741 L223.584436,195.449335 L223.523807,195.398531 L223.496226,195.380826 L223.468875,195.35667 L223.449305,195.33003 L223.407084,195.278858 L223.391054,195.246578 L223.367569,195.186439 L223.350869,195.120684 L223.338477,195.052714 L223.339294,194.902706 L223.351155,194.819973 L223.368984,194.737044 L223.39546,194.653174 L223.425657,194.569011 L223.463381,194.491779 L223.501499,194.407003 L223.59642,194.243507 L223.63909,194.143886 L223.642932,194.117302 L223.638518,194.062117 L223.623804,194.036981 L223.614967,194.010569 L223.601668,193.990681 L223.580267,193.96606 L223.553341,193.947234 L223.533346,193.927869 L223.472954,193.892597 L223.330253,193.834763 L223.252098,193.808123 L222.787286,193.693534 L221.993014,193.48924 L221.902646,193.456297 L221.823771,193.420591 L221.757044,193.387158 L221.729529,193.360869 L221.701858,193.342093 L221.688134,193.316875 L221.673845,193.297068 L221.657905,193.243853 L221.665098,193.187768 L221.681292,193.15942 L221.705471,193.131251 L221.779172,193.030027 L221.872441,192.845736 L221.900161,192.727428 L221.90433,192.694657 L221.896809,192.599752 L221.887384,192.565886 L221.86945,192.512826 L221.812523,192.408349 L221.73552,192.311613 L221.671899,192.245213 L221.671057,192.238147 L221.617687,192.175951 L221.588602,192.129929 L221.361926,192.460861 L221.293907,192.573986 L221.234398,192.681349 L221.222937,192.709599 L221.215433,192.74891 L221.208894,192.764163 L221.240708,193.163948 L221.1173,193.351657 L221.124763,193.369943 L221.138153,193.38151 L221.152531,193.402387 L221.176163,193.454997 L221.196371,193.486869 L221.024553,193.861812 L220.686281,193.821071 L220.581787,193.779839 L220.504147,193.759599 L220.473174,193.76197 L220.44073,193.758292 L220.421896,193.765894 L220.398608,193.767692 L220.363123,193.81042 L220.358079,193.831812 L220.363392,193.898458 L220.372817,193.932332 L220.395967,193.991417 L220.426654,194.057433 L220.513548,194.193905 L220.619308,194.335624 L220.758771,194.487324 L220.773575,194.513531 L220.79052,194.566926 L220.793218,194.601316 L220.772259,194.657401 L220.761698,194.693899 L220.716313,194.75 L220.663719,194.809616 L220.592381,194.868545 L220.520913,194.922659 L220.34482,195.012447 L220.246319,195.046403 L220.153989,195.073436 L220.059199,195.094485 L219.972264,195.101351 L219.888926,195.094158 L219.851014,195.084504 L219.81888,195.072251 L219.720599,195.046371 L219.644937,195.038768 L219.607057,195.041793 L219.538499,195.060537 L219.508703,195.077605 L219.478646,195.091477 L219.448842,195.108553 L219.394098,195.153578 L219.347545,195.204414 L219.300649,195.26358 L219.209757,195.371245 L219.163777,195.429267 L219.110529,195.480619 L219.057027,195.51939 L219.026725,195.542662 L218.996839,195.558668 L218.928223,195.576643 L218.852659,195.582529 L218.699594,195.739011 L218.39858,195.762431 L218.070722,195.86215 L217.7273,195.744292 L217.629142,195.772935 L217.549711,195.814787 L217.519572,195.836981 L217.488698,195.865673 L217.474327,195.894954 L217.449493,195.924243 L217.423343,195.987169 L217.409856,196.049907 L217.403071,196.124736 L217.404057,196.247147 L217.40961,196.355703 L217.40961,196.437529 L217.402907,196.51342 L217.389542,196.589834 L217.378572,196.624215 L217.330621,196.729608 L217.30752,196.758766 L217.278714,196.788365 L217.192229,196.973204 L217.206657,197.15448 L216.872692,197.180458 L216.819673,197.212747 L216.769965,197.236469 L216.715057,197.25442 L216.665251,197.264458 L216.558698,197.272665 L216.506921,197.27054 L216.397106,197.237327 L216.333057,197.212147 L216.279044,197.185534 L216.22394,197.14154 L216.165289,197.099965 L216.102673,197.049316 L215.979747,196.923692 L215.855749,196.809676 L215.824204,196.792281 L215.79785,196.780657 L215.772256,196.775425 L215.759643,196.776488 L215.747586,196.784662 L215.741864,196.78548 L215.711561,196.808752 L215.694877,196.830978 L215.647777,196.962586 L215.586518,197.232635 L215.554916,197.324147 L215.518777,197.408768 L215.495986,197.451316 L215.438447,197.523921 L215.409649,197.55352 L215.368213,197.584109 L215.282341,197.617076 L215.232371,197.628202 L215.094109,197.638877 L214.835692,197.633809 L214.706529,197.614616 L214.317371,197.570327 L214.190349,197.565177 L214.089738,197.573025 L214.045801,197.584763 L213.971578,197.616823 L213.912951,197.663229 L213.844768,197.749272 L213.804575,197.820529 L213.746815,197.962354 L213.680888,198.089262 L213.642583,198.146695 L213.624918,198.168995 L213.600477,198.190747 L213.546485,198.223379 L213.478834,198.240978 L213.44021,198.244003 L213.402812,198.240733 L213.350447,198.231128 L213.30615,198.213651 L213.20321,198.58324 L213.125553,198.500221 L213.092921,198.469232 L213.058883,198.445591 L213.024616,198.419025 L212.992474,198.406771 L212.935237,198.398678 L212.909823,198.407899 L212.877869,198.410433 L212.829738,198.441537 L212.806123,198.464294 L212.743883,198.549872 L212.705169,198.61458 L212.673387,198.691354 L212.648888,198.775068 L212.629351,198.858398 L212.603488,199.025106 L212.604632,199.099322 L212.610027,199.16703 L212.623351,199.274899 L212.672283,199.557561 L212.678169,199.631139 L212.678104,199.705444 L212.670174,199.775262 L212.639643,199.858379 L212.604305,199.90297 L212.580526,199.923594 L212.557065,199.932668 L212.526101,199.947684 L212.457232,199.952997 L212.373984,199.946866 L212.270251,199.91524 L212.204586,199.885747 L212.137924,199.843722 L211.997757,199.745728 L211.850471,199.633526 L211.708883,199.530275 L211.643128,199.487106 L211.570858,199.459199 L211.538324,199.454458 L211.505234,199.443349 L211.449289,199.447681 L211.387425,199.465902 L211.363237,199.481466 L211.333441,199.511139 L211.310586,199.540281 L211.288057,199.576632 L211.265185,199.618109 L211.244749,199.668251 L211.224272,199.730466 L211.209763,199.792485 L211.208619,199.922678 L211.214095,199.991458 L211.225875,200.064839 L211.255891,200.197698 L211.29252,200.338354 L211.328594,200.55979 L211.334561,200.6347 L211.332926,200.777237 L211.329411,200.804866 L211.330965,200.824599 L211.341542,200.885466 L211.359657,200.953264 L211.383869,201.025681 L211.44024,201.170163 L211.465531,201.243569 L211.483057,201.31651 L211.501907,201.384243 L211.50673,201.444757 L211.502807,201.47967 L211.488183,201.528014 L211.477114,201.548728 L211.46052,201.572008 L211.411319,201.602123 L211.343504,201.620809 L211.300196,201.624161 L210.962504,201.603259 L210.959316,201.562738 L210.926692,201.544354 L210.829196,201.51894 L210.689823,201.516079 L210.546689,201.540627 L210.266251,201.60321 L210.204362,201.608033 L210.140864,201.605744 L210.114256,201.600349 L210.083872,201.597569 L210.057035,201.59242 L210.029946,201.580845 L209.989752,201.543193 L209.963079,201.524351 L209.948357,201.499207 L209.878474,201.416662 L209.816757,201.352264 L209.754477,201.302654 L209.688804,201.260556 L209.623711,201.238256 L209.565076,201.221899 L209.501063,201.213202 L209.437695,201.211975 L209.193411,201.237153 L209.135692,201.235518 L209.073755,201.240341 L209.014703,201.231251 L208.956894,201.215883 L208.9253,201.21106 L208.894384,201.213431 L208.862995,201.223117 L208.78985,201.256166 L208.620109,201.425482 L208.551019,201.51267 L208.323191,201.816602 L208.304864,201.830629 L208.298896,201.831447 L208.291654,201.83815 L208.286717,201.83815 L208.285899,201.832019 L208.279196,201.832837 L208.278215,201.820305 L208.270368,201.806163 L208.278787,201.743278 L208.33976,201.479948 L208.367708,201.342586 L208.374166,201.288708 L208.367136,201.200204 L208.352087,201.145845 L208.331193,201.127624 L208.323264,201.115632 L208.310308,201.10942 L208.290174,201.103779 L208.233183,201.108193 L208.179076,201.126888 L208.11203,201.164556 L208.045728,201.211559 L207.981158,201.271035 L207.917349,201.336888 L207.866243,201.402553 L207.819272,201.47327 L207.794692,201.543316 L207.784875,201.579749 L207.776128,201.642128 L207.785888,201.667657 L207.764717,201.818172 L207.722766,202.073842 L207.633738,202.067057 L207.385392,202.067057 L207.32182,202.051084 L207.252109,202.042828 L207.112515,202.039967 L206.968417,202.064597 L206.900872,202.083529 L206.832665,202.10976 L206.713351,202.186101 L206.643223,202.260218 L206.620123,202.289376 L206.604444,202.324125 L206.586289,202.352899 L206.558986,202.473316 L206.555063,202.511441 L206.554245,202.656038 L206.547869,202.744518 L206.537978,202.779888 L206.511886,202.843608 L206.488106,202.86424 L206.44806,202.909199 L206.422866,202.924837 L206.299065,202.960485 L206.230458,202.965798 L206.085272,202.96449 L205.939425,202.95491 L205.863379,202.95491 L205.800452,202.959815 L205.737019,202.970924 L205.681098,202.988678 L205.645433,203.004063 L205.578877,203.05109 L205.532324,203.101918 L205.482886,203.188649 L205.462433,203.251125 L205.455158,203.319823 L205.453768,203.386992 L205.454586,203.468736 L205.504482,203.779223 L205.52245,203.932869 L205.534311,204.081888 L205.569845,204.672185 L205.561613,204.740956 L205.548673,204.810095 L205.519376,204.90867 L205.501139,204.936381 L205.456147,204.99433 L205.43245,205.016025 L205.366139,205.063027 L205.249548,205.113946 L205.19451,205.293112 L205.161665,205.343948 L205.133529,205.394417 C205.036343,205.373589 204.946335,205.341962 204.860921,205.321248 C204.655678,205.276322 204.34394,205.334106 204.223621,205.097229 C204.174324,204.99985 204.187807,204.842152 204.209352,204.703179 L204.282588,204.280842 L204.282588,204.280842 L204.335076,204.047199 L204.335076,204.047199 L204.371104,203.91545 C204.506373,203.447858 204.531567,203.153793 204.485643,202.627068 C204.442613,202.121041 204.770185,201.955272 204.860553,201.51236 C204.679368,201.268681 204.418441,201.379109 204.268384,201.131932 C204.160646,200.952823 204.09946,200.453572 204.077676,200.255163 C204.035529,199.869774 204.15682,199.805883 204.492665,199.731471 C204.646752,199.697589 204.812921,199.727482 204.966281,199.696771 C205.12712,199.663068 205.240082,199.55394 205.420523,199.556556 C205.20382,199.305185 205.232553,198.773719 205.045262,198.475264 C204.839921,198.147365 204.556106,198.007967 204.481989,197.603065 L204.436643,197.358964 C204.414615,197.251889 204.388844,197.158874 204.33812,197.042114 L204.233754,196.834834 C204.183731,196.733975 204.183161,196.678106 204.294093,196.489223 C204.391457,196.323281 204.548058,196.175709 204.70561,196.040536 L204.988973,195.799183 L204.988973,195.799183 L205.303025,195.513355 L205.303025,195.513355 L205.459736,195.39052 L205.413125,195.331109 L205.387278,195.313272 L205.366384,195.295044 L205.314828,195.270627 L205.281787,195.259518 L205.211087,195.251343 L205.134068,195.251343 L205.041158,195.258537 L205.003973,195.267594 L204.972518,195.263834 L204.895392,195.262608 L204.818986,195.242262 L204.747379,195.213234 L204.674619,195.179196 L204.601597,195.129349 L204.532801,195.073011 L204.46555,195.01118 L204.409785,194.946316 L204.351125,194.870139 L204.307736,194.791706 L204.269807,194.706676 L204.244916,194.625725 L204.232163,194.53767 L204.224643,194.443027 L204.227259,194.403929 L204.236079,194.354965 L204.262556,194.22415 L204.301981,194.083747 L204.388531,193.811997 L204.415253,193.681166 L204.428905,193.535531 L204.430294,193.468371 L204.407128,193.33391 L204.381918,193.261567 L204.417068,192.89833 L204.578349,192.857621 L204.745147,192.798504 L204.753951,192.761875 L204.770537,192.725981 L204.774787,192.706877 L204.802384,192.649215 L204.894093,192.526738 L204.971921,192.405341 L205.004357,192.33361 L205.03027,192.258373 L205.048989,192.186635 L205.062518,192.112354 L205.06358,192.037975 L205.057123,191.956665 L205.03761,191.88388 L205.006376,191.81094 L204.969935,191.744572 L204.92697,191.680853 L204.865343,191.617518 L204.791831,191.56154 L204.705191,191.512755 L204.574597,191.463104 L204.521079,191.42649 L204.500104,191.407199 L204.471493,191.354711 L204.456207,191.322365 L204.447354,191.2957 L204.435272,191.228507 L204.429305,191.153597 L204.430204,190.996338 L204.435845,190.832548 L204.435027,190.750796 L204.429057,190.673147 L204.417559,190.60355 L204.408387,190.563496 L204.393084,190.530888 L204.38464,190.49694 L204.319646,190.41321 L204.259163,190.36427 L204.22654,190.345886 L204.128406,190.312477 L204.065471,190.304793 L203.994861,190.31027 L203.919714,190.30888 L203.782049,190.326831 L203.706485,190.332717 L203.637289,190.330837 L203.567414,190.323643 L203.534054,190.317921 L203.501431,190.299537 L203.462529,190.289956 L203.368613,190.221888 L203.340689,190.190531 L203.254531,190.060166 L203.209155,189.969283 L203.194286,189.929662 L203.184371,189.889665 L203.179057,189.823019 L203.182899,189.787044 L203.192463,189.760011 L203.21451,189.717529 L203.232093,189.694166 L203.24903,189.675144 L203.296981,189.641907 L203.413916,189.592035 L203.741308,189.49924 L203.796804,189.472926 L203.869041,189.428417 L203.931861,189.347082 L203.971638,189.283101 L204.163613,188.920264 L204.209087,188.855834 L204.272063,188.776371 L204.302937,188.760283 L204.327297,188.737469 L204.350488,188.721986 L204.38097,188.713444 L204.476602,188.706005 L204.546567,188.72685 L204.586956,188.7457 L204.626774,188.769962 L204.657992,188.76751 L205.002469,188.569845 L205.179313,188.48045 L205.307308,188.438033 L205.806469,188.260796 L205.923142,188.198335 L205.994488,188.152019 L206.023891,188.129883 L206.046992,188.100725 L206.076722,188.070243 L206.092981,188.042695 L206.125728,187.978183 L206.152302,187.907989 L206.165243,187.83885 L206.166452,187.681567 L206.152891,187.608324 L206.140392,187.526409 L206.098057,187.373597 L205.998281,187.075305 L205.982332,187.044087 L205.961177,187.010057 L205.939523,186.985452 L205.91227,186.959409 L205.885433,186.941646 L205.859243,186.928935 L205.827281,186.918815 L205.793839,186.915218 L205.73133,186.912847 L205.655766,186.918733 L205.493823,186.951185 L205.332477,186.991093 L205.176714,187.016621 L205.100659,187.016621 L205.069123,187.011798 L205.029984,187.008692 L205.003883,186.997044 L204.970842,186.985935 L204.943916,186.967109 L204.89039,186.917891 L204.868409,186.886076 L204.853548,186.859068 L204.839251,186.826649 L204.830815,186.792708 L204.828117,186.758319 L204.836864,186.649804 L204.846755,186.614425 L204.880098,186.544779 L204.917741,186.479082 L204.970899,186.414054 L205.028529,186.355125 L205.09358,186.301779 L205.165752,186.256469 L205.23915,186.223395 L205.314057,186.203147 L205.301986,186.151207 L205.294384,186.056302 L205.301005,185.966744 L205.314452,185.891392 L205.344975,185.808283 L205.37724,185.73764 L205.422142,185.666016 L205.47449,185.600245 L205.532357,185.534858 L205.90618,185.151708 L205.964954,185.085177 L206.014809,185.013161 L206.106371,184.892041 L206.20618,184.774297 L206.407343,184.526899 L206.491392,184.405289 L206.569548,184.26294 L206.595044,184.191757 L206.614253,184.116766 L206.627856,184.040335 L206.633823,183.959131 L206.404065,183.615692 L206.362507,183.325477 L206.341768,183.224629 L206.346837,183.128736 L206.349943,183.108643 L206.34839,183.088918 L206.352232,183.062327 L206.358199,183.039872 L206.551409,182.924253 L206.591104,182.859202 L206.623965,182.79603 L206.654414,182.724455 L206.702193,182.591989 L206.713801,182.515444 L206.740188,182.370954 L206.749147,182.226757 L206.750946,182.076676 L206.743425,181.934834 L206.728351,181.792501 L206.707196,181.698921 L206.679894,181.612796 L206.642471,181.534166 L206.598828,181.461921 L206.495316,181.335856 L206.248417,181.096485 L206.185204,181.038365 L206.12952,180.974564 L206.08103,180.904035 L206.036504,180.833204 L205.999057,180.754305 L205.966809,180.668564 L205.806665,180.319714 L205.409725,179.95548 L205.460447,179.700202 L205.448627,179.639425 L205.443313,179.572779 L205.444866,179.504531 L205.466888,179.305665 L205.465499,179.237646 L205.47391,179.174221 L205.466471,179.080387 L205.435392,178.993747 L205.405899,178.942665 L205.384343,178.91618 L205.357564,178.899218 L205.330311,178.873174 L205.218477,178.814817 L205.076332,178.77652 L205.049406,178.757687 L205.015956,178.741518 L204.973907,178.689259 L204.960183,178.664041 L204.941569,178.602455 L204.935684,178.528616 L204.936501,178.448098 L204.948583,178.28354 L204.971995,178.111117 L204.979025,178.029839 L204.979008,177.954463 L204.973041,177.879292 L204.964441,177.846431 L204.948828,177.81948 L204.934597,177.787861 L204.920324,177.768316 L204.89182,177.742101 L204.866218,177.72424 L204.612714,177.574174 L204.553646,177.530482 L204.499531,177.486414 L204.450984,177.437082 L204.408837,177.386711 L204.343237,177.282913 L204.34103,177.254924 L204.332496,177.222864 L204.330289,177.194875 L204.338136,177.134441 L204.34797,177.09827 L204.365128,177.069569 L204.380807,177.03482 L204.42552,176.960801 L204.507436,176.875027 L204.512177,176.854804 L204.516019,176.82742 L204.490875,176.746493 L204.277948,176.3827 L204.235883,176.317845 L204.20209,176.225245 L204.198248,176.177262 L204.226564,176.141531 L204.23961,176.133275 L204.264044,176.123866 L204.295008,176.121414 L204.385858,176.135253 L204.507011,176.166594 L204.749022,176.256937 L204.956872,175.921305 L205.280218,175.786975 L205.645147,175.758586 L205.652831,175.770602 L205.653649,175.778041 L205.660924,175.784744 L205.667954,175.797872 L205.668771,175.805065 L205.675965,175.810951 L205.683894,175.822673 L205.907079,175.704725 L205.944869,175.543787 L205.986101,175.426052 L206.031926,175.353545 L206.054635,175.331932 L206.092286,175.316368 L206.130191,175.313425 L206.180561,175.33552 L206.209245,175.354477 L206.29076,175.435853 L206.54258,175.737071 L206.610902,175.799883 L206.678136,175.849109 L206.717365,175.865899 L206.789398,175.887659 L206.827057,175.884717 L206.902065,175.959619 L206.972619,176.05042 L207.038504,176.010692 L207.112409,175.984027 L207.186894,175.964548 L207.256172,175.96749 L207.332733,175.974112 L207.398308,175.989929 L207.535172,176.046341 L207.602005,176.090499 L207.722692,176.175529 L207.850229,176.274504 L207.966371,176.374379 L208.081932,176.467044 L208.149567,176.461812 L208.256095,176.440918 L208.394913,176.399809 L208.432736,176.289913 L208.472512,176.225932 L208.524861,176.160169 L208.636221,176.056011 L208.696433,176.016995 L208.763398,175.978256 L208.836796,175.945183 L208.9107,175.91851 L209.059589,175.894322 L209.135153,175.888436 L209.288193,175.903886 L209.357815,175.89849 L209.479229,175.74527 L209.59954,175.68146 L209.723251,175.644741 L209.979076,175.592384 L210.102599,175.55327 L210.222338,175.491651 L210.284504,175.45221 L210.343131,175.405804 L210.394965,175.349196 L210.492698,175.21794 L210.516068,175.195199 L210.54606,175.180526 L210.569651,175.157499 L210.656447,175.123657 L210.717877,175.112441 L210.844817,175.116202 L210.914684,175.123395 L211.197379,175.176774 L211.40948,175.201313 L211.478357,175.195918 L211.758877,175.159338 L211.895545,175.128856 L211.965158,175.110831 L212.086793,175.060599 L212.141774,175.027894 L212.195112,174.99021 L212.24209,174.944711 L212.289068,174.886608 L212.321823,174.831488 L212.355501,174.766101 L212.372913,174.690439 L212.536817,174.106624 L212.567831,173.960703 L212.581417,173.884003 L212.581417,173.741564 L212.575531,173.667717 L212.564839,173.592913 L212.546749,173.525384 L212.514346,173.447163 L212.493117,173.415283 L212.472616,173.389518 L212.450553,173.356632 L212.42339,173.331659 L212.363414,173.289112 L212.231986,173.216458 L212.080114,173.168719 L211.925839,173.125199 L211.775839,173.075981 L211.705221,173.046872 L211.645997,173.010708 L211.584379,172.969362 L211.530436,172.918035 L211.460463,172.834428 L211.438392,172.788937 L211.415341,172.756125 L211.400136,172.72485 L211.3917,172.69091 L211.386796,172.629594 L211.390311,172.601956 L211.400798,172.574049 L211.429025,172.524643 L211.516866,172.428757 L211.700561,172.278202 L211.816719,172.146586 L211.866828,172.06839 L211.916104,171.976575 L211.95718,171.844354 L211.972213,171.813946 L212.008768,171.772207 L212.032384,171.74945 L212.055501,171.732905 L212.086392,171.717087 L212.116768,171.707213 L212.253943,171.670518 L212.572204,171.632082 L212.646689,171.61261 L212.720594,171.585937 L212.781191,171.554932 L212.840896,171.509515 L212.863997,171.480365 L212.896777,171.416114 L212.944793,171.295967 L212.977654,171.232796 L213.023725,171.175828 L213.069207,171.124011 L213.131463,171.08564 L213.25094,171.020817 L213.318984,170.995673 L213.609485,170.912188 L213.74549,170.860837 L213.812202,170.828286 L213.871907,170.795474 L213.932177,170.757259 L213.985916,170.712038 L214.085488,170.616308 L214.277929,170.403381 L214.370471,170.294523 L214.469218,170.191616 L214.528319,170.138736 L214.647706,170.04764 L214.71467,170.008902 L214.744638,169.993959 L214.773951,169.97076 L214.797567,169.947995 L214.866657,169.860815 L214.898921,169.790172 L214.92458,169.721114 L214.950093,169.637589 L214.996188,169.458847 L215.082747,169.468984 L215.208689,169.472826 L215.341237,169.462518 L215.466665,169.447395 L215.597643,169.417354 L215.726455,169.37273 L215.853706,169.320986 L215.98376,169.263659 L216.044267,169.231591 L216.112,169.211842 L216.17442,169.200545 L216.308046,169.203815 L216.499744,169.238253 L216.764602,169.311798 L216.964891,169.357109 L217.028896,169.365807 L217.11073,169.366706 L217.185722,169.353635 L217.247324,169.335161 L217.302469,169.30458 L217.356714,169.26576 L217.402948,169.220319 L217.49012,169.11912 L217.570213,169.010425 L217.616259,168.953196 L217.669523,168.902114 L217.729123,168.855365 L217.793774,168.809564 L217.86794,168.776703 L217.954548,168.749842 L218.027463,168.723251 L218.161482,168.659441 L218.293499,168.567365 L218.352542,168.513684 L218.475534,168.396014 L218.6963,168.147357 L218.808575,168.029719 L218.924406,167.919046 L218.984504,167.866093 L219.051469,167.827354 L219.191349,167.762016 L219.559793,167.630621 L219.627354,167.599346 L219.688531,167.559986 L219.741698,167.520169 L219.787597,167.470469 L219.810395,167.440526 L219.844793,167.384204 L219.860643,167.348368 L219.879698,167.271512 L219.888019,167.203812 L219.877147,167.067316 L219.821349,166.854929 L219.735297,166.581856 L219.712049,166.449545 L219.70649,166.379703 L219.718425,166.285689 L219.739278,166.228281 L219.789804,166.142801 L219.82967,166.092496 L219.883425,166.047537 L219.938406,166.014831 L219.998202,165.98309 L220.134362,165.946207 L220.278804,165.934967 L220.431755,165.949354 L220.50946,165.970403 L220.58133,165.993243 L220.653183,166.028425 L220.719845,166.07045 L220.787169,166.120738 L220.814496,166.144632 L220.85697,166.202213 L220.889038,166.276166 L220.897548,166.307965 L220.910136,166.38155 L220.916594,166.462591 L220.897458,166.710324 L220.897458,166.873918 L220.902771,166.940564 L220.920796,167.007292 L220.951777,167.067651 L220.992338,167.110632 L221.058575,167.147319 L221.098793,167.164044 L221.232608,167.194673 L221.273161,167.212436 L221.339316,167.260673 L221.367559,167.286635 L221.415984,167.343757 L221.458458,167.401346 L221.494793,167.466381 L221.550174,167.598332 L221.58158,167.664022 L221.632139,167.748071 L221.652134,167.767436 L221.673624,167.793128 L221.719875,167.823054 L221.784044,167.846229 L221.816512,167.850153 L221.898763,167.843777 L221.99827,167.822351 L222.586703,167.5923 L222.73658,167.56803 L222.799,167.569338 L222.832466,167.57318 L222.865572,167.58509 L222.889368,167.589668 L222.943793,167.625136 L222.963779,167.644501 L222.985351,167.671256 L223.032452,167.783736 L223.058161,167.862471 L223.09618,167.948572 L223.140305,168.026948 L223.196087,168.104417 L223.465253,168.451232 L223.501523,168.515466 L223.531589,168.573749 L223.548264,168.626899 L223.552678,168.682084 L223.548183,168.709796 L223.538619,168.736828 L223.48009,168.809507 L223.349798,168.907624 L223.279777,168.983082 L223.25039,169.017823 L223.234793,169.053643 L223.212093,169.087861 L223.187807,169.186322 L223.180777,169.254995 L223.192343,169.315787 L223.197657,169.382433 L223.219589,169.498215 L223.22433,169.557398 L223.21609,169.613564 L223.194068,169.668921 L223.161714,169.725888 L223.131322,169.748106 L223.102589,169.778507 L223.025063,169.831747 L222.908112,170.02539 L222.642771,170.04603 L222.633624,170.406978 L222.617537,170.436659 L222.607891,170.462629 L222.587332,170.533158 L222.573747,170.609858 L222.574564,170.691349 L222.588003,170.860093 L222.607678,170.947616 L222.631834,171.019232 L222.669665,171.090586 L222.684134,171.125139 L222.727008,171.175183 L222.774436,171.219774 L222.800537,171.231422 L222.859335,171.246676 L222.922262,171.241771 L222.959324,171.231373 L222.988809,171.210308 L223.067749,171.162324 L223.132728,171.111128 L223.204981,171.063668 L223.272035,171.038597 L223.341305,171.025698 L223.404232,171.020793 L223.461215,171.028967 L223.513744,171.053049 L223.540687,171.072144 L223.561008,171.083163 L223.581485,171.108668 L223.602469,171.127959 L223.623215,171.1537 L223.631962,171.179041 L223.64742,171.213512 L223.665109,171.279193 L223.66846,171.320785 L223.662575,171.403052 L223.650215,171.491997 L223.619946,171.590916 L223.57918,171.701916 L223.545346,171.765439 L223.518845,171.836433 L223.441646,172.128643 L223.381253,172.32191 L223.353199,172.37345 L223.307708,172.43761 L223.290452,172.452635 L223.248003,172.483027 L223.191861,172.501076 L223.135866,172.505409 L223.07285,172.49658 L223.033139,172.486256 L222.958564,172.49206 L222.92115,172.501134 L222.884578,172.517662 L222.782349,172.580065 L222.716054,172.639673 L222.664965,172.705616 L222.61403,172.776635 L222.575406,172.855011 L222.557823,172.937924 L222.546935,172.973368 L222.544319,173.012466 L222.550368,173.088447 L222.580777,173.15421 L222.59558,173.180417 L222.622572,173.212657 L222.657444,173.237302 L222.689978,173.254616 L222.735158,173.270956 L222.780918,173.282147 L222.901997,173.300082 L223.027351,173.296485 L223.278975,173.263232 L223.404248,173.23364 L223.656354,173.159572 L223.921515,173.077248 L223.990139,173.059305 L224.058166,173.046504 L224.128777,173.041027 L224.204349,173.04773 L224.350106,173.05624 L224.498104,173.080403 L224.645455,173.096294 L224.720937,173.101935 L224.860172,173.091104 L224.928616,173.080411 L225.056946,173.029657 L225.122349,172.983798 L225.182529,172.931907 L225.284888,172.799213 L225.380234,172.650439 L225.47052,172.500717 L225.565695,172.349809 L225.617365,172.278725 L225.675902,172.218651 L225.740218,172.159191 L225.812553,172.112793 L225.892155,172.073074 L226.066049,172.031114 L226.15376,172.018117 L226.236501,172.018117 L226.388046,172.027191 L226.458747,172.035365 L226.593861,172.079311 L226.720245,172.151286 L226.786989,172.194373 L226.84721,172.243068 L226.909401,172.301 L227.090659,172.511139 L227.117104,172.536447 L227.145771,172.567747 L227.20524,172.603886 L227.231913,172.622736 L227.264954,172.633845 L227.335482,172.639894 L227.428638,172.632619 L227.465872,172.624362 L227.588406,172.560373 L227.646632,172.508907 L227.69979,172.456485 L227.745264,172.392063 L227.7773,172.327877 L227.804038,172.250417 L227.822414,172.17442 L227.829117,172.099599 L227.816169,171.936978 L227.82615,171.902678 L227.858921,171.838428 L227.881041,171.809351 L227.934706,171.750725 L228.197422,171.553248 L228.273297,171.479221 L228.307883,171.422074 L228.314913,171.367076 L228.312297,171.333749 L228.287995,171.26027 L228.265425,171.220984 L228.230243,171.182948 L228.140455,171.094714 L227.966635,170.965534 L227.939136,170.939507 L227.91212,170.916398 L227.881883,170.855981 L227.87312,170.830379 L227.868134,170.767992 L227.878777,170.741956 L227.8827,170.707044 L227.942112,170.586005 L228.078166,170.372368 L228.121899,170.298692 L228.165894,170.215608 L228.198493,170.136619 L228.214817,170.047371 L228.219232,170.005984 L228.22152,169.959937 L228.213918,169.86397 L228.139425,169.563978 L228.055351,169.290749 L228.025,169.156845 L228.013907,169.089578 L228.002635,168.948022 L228.016531,168.803172 L228.027992,168.727975 L228.034123,168.645684 L228.035431,168.577722 L228.029545,168.503613 L228.011512,168.436886 L227.988698,168.369455 L227.951431,168.305294 L227.913599,168.246545 L227.865264,168.190485 L227.817518,168.138676 L227.762668,168.088493 L227.641997,168.003733 L227.582095,167.959035 L227.515948,167.923411 L227.32564,167.843801 L227.206932,167.771221 L227.097485,167.670831 L227.041319,167.613512 L226.950755,167.490463 L226.912499,167.426376 L226.875649,167.354948 L226.844668,167.281984 L226.819605,167.20212 L226.781749,167.042785 L226.775292,166.961474 L226.774474,166.879722 L226.763627,166.743504 L226.745929,166.677823 L226.740452,166.646597 L226.863174,166.647496 L226.923951,166.603068 L226.953755,166.585992 L226.990327,166.569471 L227.051202,166.551324 L227.115117,166.546338 L227.242131,166.563553 L227.366275,166.594935 L227.494858,166.631875 L227.558954,166.641635 L227.622877,166.649237 L227.710826,166.642371 L227.772755,166.624951 L227.83354,166.593128 L227.887433,166.54682 L227.931436,166.488946 L227.949101,166.454041 L227.975095,166.376646 L227.993725,166.29446 L228.053798,165.874828 L228.108526,165.754428 L228.131128,165.731474 L228.179782,165.694428 L228.203463,165.685076 L228.241711,165.676984 L228.317283,165.683687 L228.361785,165.694706 L228.539692,165.762676 L228.609804,165.776 L228.680504,165.784183 L228.742441,165.77936 L228.811736,165.76673 L228.866136,165.742379 L228.929079,165.725147 L229.21385,165.572899 L229.275117,165.547207 L229.329371,165.530376 L229.392714,165.518213 L229.530959,165.507455 L229.561417,165.498651 L229.671322,165.448256 L229.743747,165.402921 L230.013984,165.212106 L230.08036,165.17851 L230.142223,165.160281 L230.20515,165.155376 Z" id="cologne" stroke="#000000" stroke-width="0.5" fill="#8f8f8f" fill-rule="nonzero"></path></svg>
