<svg>
  <path
     d="m 337.54491,103.5457 -0.005,0.0126 c 0.23405,-0.0296 0.44862,0.061 0.66356,0.14987 0.23456,0.0968 0.48878,0.0961 0.74157,0.12768 0.41174,0.0527 0.74255,0.12817 1.01345,0.40424 l 0.0988,0.11328 0.0607,0.0835 0.0586,0.0926 0.0615,0.1196 c 0.0368,0.0823 0.066,0.16938 0.0908,0.25903 l 0.05,0.20485 0.0666,0.31096 0.0244,0.10187 c 0.0171,0.0675 0.0361,0.13395 0.0584,0.19775 l 0.0363,0.0937 v 0 l 0.0424,0.0896 0.0495,0.0848 0.0576,0.0793 v 0 l 0.0593,0.0682 v 0 l 0.0622,0.0658 c 0.0842,0.0869 0.17326,0.17149 0.25666,0.26977 0.0417,0.0491 0.082,0.10185 0.11947,0.15996 0.0425,0.0658 0.0774,0.13045 0.10617,0.19525 0.0287,0.0648 0.0515,0.12958 0.0703,0.19642 0.0188,0.0668 0.0337,0.1356 0.0465,0.20754 l 0.0338,0.22747 c 0.005,0.04 0.0124,0.0779 0.0211,0.11441 0.0262,0.10958 0.0673,0.20508 0.12189,0.29395 0.0728,0.11844 0.17011,0.22507 0.28753,0.3375 0.044,0.0424 0.0951,0.0772 0.14908,0.10848 l 0.22072,0.11898 c 0.0359,0.0207 0.0704,0.0427 0.10234,0.0675 0.0479,0.0372 0.0902,0.0806 0.12195,0.13478 0.0197,0.033 0.0347,0.0674 0.0464,0.10277 0.0234,0.0707 0.0331,0.14504 0.0386,0.2204 l 0.0132,0.22609 0.006,0.0551 0.009,0.0541 0.0124,0.0528 0.0169,0.0513 0.0226,0.0494 0.0289,0.0473 0.0846,0.0931 c 0.0624,0.056 0.13322,0.10391 0.19007,0.16725 0.0285,0.0317 0.0533,0.0674 0.072,0.10964 l 0.0211,0.055 v 0 l 0.015,0.0558 0.0102,0.0563 0.0183,0.17153 0.0165,0.11522 0.0113,0.0472 0.0138,0.0464 0.0532,0.13593 0.15533,0.30926 0.0417,0.0906 0.0359,0.0932 0.0718,0.20598 v 0 c 0.0234,0.0611 0.0477,0.11523 0.0779,0.1652 l 0.0503,0.0722 v 0 c 0.0558,0.0694 0.12991,0.13154 0.23836,0.19503 l 0.25969,0.1406 c 0.0829,0.0463 0.16141,0.0969 0.23366,0.16678 l 0.0702,0.0768 0.0333,0.044 0.0321,0.0484 0.0505,0.10438 0.1071,0.3035 0.0194,0.047 0.0448,0.0876 v 0 c 0.0164,0.0272 0.0345,0.0521 0.0546,0.0739 0.0201,0.0218 0.0425,0.0405 0.0673,0.0552 0.0796,0.0471 0.14898,0.0682 0.21035,0.0691 0.0614,8.9e-4 0.11446,-0.0182 0.1622,-0.0513 0.0239,-0.0166 0.0466,-0.0369 0.0679,-0.0597 0.0213,-0.0228 0.0413,-0.0482 0.0606,-0.0756 0.11604,-0.16491 0.2016,-0.40061 0.3186,-0.54221 0.0195,-0.0236 0.0402,-0.0444 0.0617,-0.062 0.0215,-0.0176 0.0441,-0.0319 0.0682,-0.042 0.0241,-0.0101 0.0496,-0.0162 0.0769,-0.0173 0.0273,-0.001 0.0564,0.003 0.0875,0.0121 0.0352,0.0107 0.0666,0.0256 0.0948,0.0434 0.0283,0.0178 0.0534,0.0387 0.0757,0.0622 0.0223,0.0235 0.0416,0.0493 0.0589,0.0772 0.052,0.0838 0.084,0.1848 0.10957,0.28484 l 0.0589,0.24798 v 0 l 0.015,0.088 c 0.0174,0.11332 0.0261,0.14977 0.21623,0.1899 0.1248,0.027 0.3049,-0.0237 0.43175,-0.0336 l 0.11312,-0.009 v 0 c 0.10192,-0.007 0.17597,-8e-5 0.28041,0.0648 0.0425,0.0261 0.0736,0.0795 0.10889,0.13055 0.0353,0.0511 0.0747,0.0997 0.13399,0.11652 0.13995,0.0389 0.27637,-0.008 0.40684,-0.0736 l 0.25223,-0.13653 c 0.0405,-0.0202 0.0801,-0.0376 0.1187,-0.0495 0.0986,-0.0302 0.1889,-0.0269 0.2716,10e-4 0.0551,0.0186 0.10705,0.0481 0.15551,0.0858 0.0242,0.0189 0.0475,0.04 0.0702,0.0626 0.0452,0.0453 0.0871,0.0974 0.12609,0.1538 0.078,0.11286 0.14407,0.24261 0.19893,0.36775 0.0549,0.12515 0.0986,0.24568 0.1327,0.34026 0.16682,0.0163 0.41818,0.15174 0.5821,0.11914 l 0.0375,-0.009 v 0 l 0.0342,-0.0115 c 0.0218,-0.008 0.0415,-0.0185 0.0602,-0.0293 l 0.12926,-0.0902 c 0.0427,-0.0306 0.0886,-0.059 0.14799,-0.0776 0.0238,-0.007 0.0496,-0.0132 0.0784,-0.017 0.0543,-0.007 0.10832,-0.008 0.1622,-0.004 0.0539,0.004 0.10788,0.0121 0.1614,0.0233 0.32115,0.0675 0.63638,0.23954 0.95595,0.15331 0.19819,-0.053 0.29046,-0.2645 0.48642,-0.27358 0.0422,-0.002 0.0839,0.009 0.12365,0.0291 0.0199,0.01 0.0393,0.0217 0.0582,0.0354 0.0568,0.0409 0.10858,0.0966 0.15308,0.15412 0.0297,0.0383 0.0562,0.0775 0.0783,0.11319 l 0.0501,0.0944 v 0 l 0.0403,0.10082 0.0337,-0.0183 0.0315,-0.009 0.0629,-0.005 0.0258,0.004 0.0843,0.0329 0.0552,0.0441 0.0408,0.0512 0.0434,0.0643 0.0375,0.0712 0.0251,0.0807 0.0191,0.0799 0.007,0.0877 0.001,0.17801 0.007,0.0873 0.0197,0.0871 0.0263,0.0854 0.0324,0.0918 0.0382,0.0849 0.10109,0.16863 0.12586,0.14053 0.0677,0.0556 0.0665,0.0492 0.0723,0.0427 0.11153,0.032 0.0381,0.004 0.1887,-0.0147 0.0946,-10e-4 0.0895,0.014 0.0851,0.0288 0.14375,0.0698 0.12837,0.0976 0.23207,0.21486 0.0599,0.0425 0.0667,0.0432 0.0671,0.0343 0.22102,0.0856 0.13946,0.077 0.12628,0.0857 0.37687,0.27896 0.13276,0.0775 0.0661,0.0348 0.0657,0.0296 0.0793,0.0406 0.0672,0.0496 0.0606,0.0509 0.05,0.063 0.0355,0.0645 0.0501,0.14076 0.006,0.0737 3e-5,0.0814 -0.005,0.0818 -0.0312,0.15838 -0.0317,0.077 -0.0388,0.0772 -0.0392,0.072 -0.068,0.10039 -0.0161,0.0283 -0.009,0.0345 -0.0116,0.0287 -0.007,0.0759 v 0.0745 l 0.0333,0.41852 -0.0146,0.15104 -0.01,0.0354 -0.0148,0.0346 -0.0171,0.0295 -0.0417,0.0496 -0.0284,0.0244 -0.0676,0.0311 -0.16719,0.0404 -0.0679,0.0262 -0.0675,0.0315 -0.0594,0.0393 -0.093,0.10233 -0.0392,0.0575 -0.0338,0.0647 -0.0253,0.0628 -0.0272,0.14316 -0.0139,0.14535 0.005,0.0673 0.0134,0.0739 0.0172,0.0655 -0.32447,0.13405 0.0132,0.0199 0.008,0.0203 0.34782,0.39405 0.12909,0.35142 0.0225,0.0519 0.0176,0.0466 0.009,0.0468 0.003,0.0405 -0.002,0.0409 -0.0216,0.0621 -0.0161,0.0283 -0.0458,0.0592 -0.0586,0.0453 -0.26065,0.15527 -0.0609,0.0394 -0.0226,0.0219 -0.0409,0.0511 -0.0164,0.0295 -0.0108,0.0335 -0.003,0.0285 0.003,0.0345 0.009,0.038 0.0324,0.0861 0.0751,0.13883 0.0607,0.13671 0.0621,0.13138 0.0477,0.13814 0.0367,0.14061 0.0311,0.14627 0.0174,0.21747 -0.0148,0.21876 v 0.16318 l 0.0134,0.16862 0.0256,0.1612 0.0253,0.0734 0.0314,0.0657 0.0202,0.0323 0.0223,0.0261 0.0202,0.0319 0.0276,0.018 0.0275,0.0257 0.0324,0.0164 0.0326,0.0196 0.0788,0.0201 0.037,0.004 h 0.0966 l 0.0618,-0.005 h 0.0693 l 0.15217,0.0156 0.085,0.0143 0.15532,0.0411 0.13227,0.0715 0.0275,0.0253 0.0259,0.0189 0.0435,0.0575 0.0149,0.0271 0.0143,0.0331 0.009,0.0327 0.006,0.0741 -0.003,0.0422 -0.008,0.0401 -0.0172,0.0421 -0.0476,0.0988 -0.0161,0.0419 -0.0166,0.036 -0.01,0.0342 -0.002,0.0409 0.005,0.0666 0.0143,0.0344 0.009,0.0339 0.016,0.0314 0.0214,0.033 0.0496,0.063 0.11709,0.12025 0.12893,0.11892 0.12463,0.12127 0.0543,0.0562 0.043,0.0656 0.0314,0.0649 0.008,0.0336 0.0151,0.18903 -0.007,0.1577 -0.0141,0.14214 -0.0321,0.14759 -0.0395,0.13808 -0.0532,0.14034 -0.0648,0.12635 -0.0949,0.15851 -0.028,0.0296 -0.054,0.0513 -0.12637,0.0779 -0.28627,0.12502 -0.0675,0.0315 -0.0676,0.0399 -0.0521,0.046 -0.0306,0.0209 -0.0462,0.0596 -0.0168,0.0283 -0.0326,0.0702 -0.0103,0.0403 -0.007,0.13673 0.006,0.0729 -0.009,0.0551 -0.002,0.0549 -0.0306,0.0765 -0.0167,0.0344 -0.047,0.0444 -0.0547,0.0325 -0.0686,0.0178 -0.0696,0.005 -0.0754,-0.001 -0.15074,0.0117 -0.0742,0.013 -0.0389,0.009 -0.0296,0.01 -0.0372,0.0166 -0.0816,0.0809 -0.0377,0.0771 -0.0301,0.11115 0.1525,0.24122 -0.24714,0.23078 0.15993,0.34864 0.42033,0.58023 0.11124,0.14125 0.11759,0.12706 0.0618,0.056 0.13441,0.0983 0.17363,0.10174 0.0805,0.0558 0.0274,0.0241 0.0281,0.0325 0.0212,0.0265 0.0146,0.0323 0.0156,0.027 0.007,0.0268 0.003,0.0329 0.009,0.0343 -0.002,0.12148 -0.0219,0.13871 8.2e-4,0.15709 0.006,0.0805 0.0185,0.0864 0.0329,0.0934 0.0529,0.0995 0.0566,0.0762 0.0556,0.063 0.067,0.0564 0.0678,0.0431 0.25074,0.14371 0.0547,0.038 0.0606,0.0549 0.0307,0.052 0.008,0.0276 0.005,0.0605 -0.003,0.0345 -0.0351,0.13249 -0.0492,0.10659 -0.17867,0.19725 0.0414,0.0447 0.0357,0.0444 0.0683,0.0765 0.051,0.0903 0.11189,0.21093 0.25769,0.38616 0.0845,0.0216 0.0799,0.0349 0.0723,0.0423 0.0612,0.0496 0.0532,0.0567 0.0501,0.065 0.0424,0.0721 0.032,0.0729 0.0251,0.0714 0.0191,0.0803 0.0117,0.0809 0.006,0.0741 -0.001,0.0755 -0.0125,0.078 -0.0141,0.068 -0.0267,0.0645 -0.0306,0.0818 -0.019,0.0905 -0.006,0.0823 0.006,0.0745 0.0247,0.15525 0.0439,0.14691 0.0368,0.13334 0.0105,0.0665 0.008,0.0953 -0.007,0.0566 -0.0204,0.0637 -0.0172,0.0292 -0.0927,0.1148 -0.05,0.0728 -0.0437,0.0719 -0.0404,0.0709 -0.14184,0.28344 -0.0375,0.0702 -0.0409,0.0596 -0.046,0.0572 -0.0516,0.0532 -0.0606,0.0434 -0.0666,0.0334 -0.0814,0.0265 -0.0853,0.0203 -0.29363,0.0563 -0.32847,0.0936 -0.0703,0.14331 -0.0831,0.14146 -0.0964,0.13847 -0.053,0.0638 -0.10376,0.11728 -0.12657,0.0989 -0.0654,0.0446 -0.0733,0.0343 -0.074,0.0255 -0.0806,0.0135 -0.17643,0.0137 -0.11034,0.0299 -0.0307,0.0145 -0.0242,0.0156 -0.0473,0.0456 -0.0178,0.0215 -0.0331,0.0497 -0.034,0.0571 -0.0919,0.26628 -0.0328,0.0775 -0.0369,0.0726 -0.0466,0.0641 -0.0631,0.073 -0.34352,0.28583 -0.12446,0.11124 -0.11719,0.11792 -0.11777,0.12481 -0.10153,0.13121 -0.0984,0.13781 -0.0947,0.15649 -0.17978,0.19734 -0.24757,0.30537 -0.003,0.0478 -0.0166,0.0355 -0.0139,0.0422 -0.0177,0.0365 -0.0514,0.0648 -0.0586,0.059 -0.13753,0.0977 -0.21086,0.14093 -0.0586,0.0444 -0.0526,0.0585 -0.0333,0.0574 -0.0159,0.0359 -0.0108,0.0343 -0.004,0.0342 0.007,0.0885 0.0336,0.0933 0.0229,0.053 0.0534,0.1107 0.0285,0.12836 -0.007,0.0618 -0.0105,0.0278 -0.0276,0.0437 -0.0491,0.032 -0.0551,0.018 -0.0616,0.0112 -0.14634,-0.004 -0.15287,-0.0151 -0.19913,-0.0317 -0.044,-0.002 -0.3166,0.003 -0.1639,0.006 -0.0739,0.0122 -0.15006,0.0391 -0.0669,0.0249 -0.0657,0.0398 -0.0596,0.0465 -0.0532,0.0513 -0.0459,0.0636 -0.0436,0.0735 -0.0311,0.0842 -0.13581,-0.0313 -0.0159,0.0363 -0.01,0.0402 -0.0262,0.0705 -0.31851,0.20934 -0.0869,0.0189 -0.24433,0.0404 -0.19702,0.056 -0.11021,-0.10023 -0.35115,-0.19109 -0.0768,-0.0198 -0.0772,-0.0153 -0.0756,0.006 -0.0679,0.0129 -0.067,0.0242 -0.12867,0.0725 -0.1175,0.10465 -0.16222,0.18267 -0.21507,0.24804 -0.0231,0.0296 -0.0292,0.0232 -0.058,0.038 -0.0702,0.0264 -0.0745,0.0183 -0.15,0.0117 -0.16505,-0.008 -0.24052,-9e-4 -0.14885,0.0261 -0.068,0.025 -0.0298,0.016 -0.0305,0.0213 -0.0607,0.0466 -0.22279,0.22164 -0.11702,0.11066 -0.12482,0.0927 -0.12663,0.084 -0.0662,0.039 -0.14137,0.0589 -0.0673,0.0198 -0.0746,0.0175 -0.0744,0.006 -0.0701,0.0131 -0.0674,0.0189 -0.0679,0.0262 -0.06,0.0317 -0.0603,0.0381 -0.16608,0.12938 -0.11365,0.0967 -0.11916,0.0838 -0.0607,0.0329 -0.0685,0.0335 -0.067,0.0242 -0.22223,0.0592 -0.0735,0.0319 -0.0663,0.0326 -0.13954,0.0725 -0.13341,0.093 -0.13072,0.0984 -0.12444,0.0975 -0.26132,0.21738 -0.0291,0.0297 -0.0168,0.0291 -0.0224,0.0287 -0.0321,0.0718 -0.0266,0.0702 -0.0385,0.15252 -0.0511,0.24293 -0.0529,0.14032 -0.0387,0.0643 -0.0672,0.0875 -0.0315,0.0234 -0.11486,0.0485 -0.0438,0.01 -0.0816,0.25943 -0.0591,0.0526 -0.19004,0.14373 -0.3686,0.0694 -0.0871,0.007 -0.036,0.009 -0.0376,0.0166 -0.0664,0.0459 -0.0298,0.0297 -0.0797,0.10856 -0.0436,0.0779 -0.0825,0.1636 -0.0941,0.16326 -0.0231,0.03 -0.025,0.0149 -0.0171,0.0158 -0.0242,0.0156 -0.0253,0.002 -0.0517,-0.01 -0.0326,-0.0184 -0.0342,-0.0247 -0.0335,-0.0308 -0.0358,-0.0456 -0.0628,-0.0693 -0.0616,-0.0633 -0.1226,-0.10047 -0.13041,-0.0717 -0.0607,-0.0279 -0.0639,-0.022 -0.13508,-0.0314 -0.12787,-0.0163 -0.26943,-0.0209 -0.15689,0.15566 -0.0714,-0.10244 -0.0668,-0.0303 -0.0704,-0.0147 -0.0696,-0.009 h -0.0689 l -0.0684,0.0106 -0.0763,0.006 -0.2803,0.0637 -0.0679,0.0126 -0.0688,0.005 -0.0635,-0.002 -0.0586,-0.0164 -0.0303,-0.004 -0.0608,-0.0299 -0.1801,-0.12179 -0.0793,-0.041 -0.0727,-0.0427 -0.0787,-0.0338 -0.0772,-0.0282 -0.0788,-0.0213 -0.0701,-0.0147 -0.0722,-0.009 h -0.07 l -0.0689,0.005 -0.0625,0.0101 -0.0546,0.0252 -0.054,0.0316 -0.0244,0.0224 -0.0243,0.0148 -0.0171,0.0295 -0.0226,0.0219 -0.0787,0.12217 -0.0787,0.1355 -0.0642,0.13476 -0.0588,0.14078 -0.0465,0.14064 -0.0379,0.14519 -0.0268,0.15241 -0.0269,0.21248 -0.0122,0.0779 -0.0151,0.0697 -0.0239,0.076 -0.0193,0.0777 -0.0322,0.0702 -0.0331,0.0634 -0.0386,0.0651 -0.0459,0.058 -0.0465,0.0508 -0.0542,0.0389 -0.0607,0.0321 -0.0618,0.0185 -0.0696,0.005 -0.0766,-0.008 -0.20803,-0.0729 -0.12888,-0.0383 -0.25808,-0.0617 -0.2685,-0.0327 -0.26981,0.007 -0.19658,0.0898 -0.15651,-0.0559 -0.15099,-0.0761 -0.13495,-0.091 -0.1331,-0.1053 -0.4869,-0.45214 -0.11403,-0.10114 -0.12783,-0.0908 -0.12614,-0.0792 -0.0673,-0.0359 -0.0645,-0.0292 -0.13609,-0.0442 -0.0713,-0.0154 -0.0721,-0.008 -0.13833,-0.002 -0.0756,0.006 -0.16241,0.0251 -0.0428,0.003 -0.0391,-0.002 -0.0682,-0.0237 -0.0502,-0.16966 v 0 l -0.0521,-0.15967 -0.0544,-0.15172 v 0 l -0.0614,-0.14875 -1.4e-4,0.008 0.0571,0.14202 v 0 l 0.0546,0.15114 0.052,0.16005 v 0 l 0.0947,0.32205 v 0 l 0.039,0.15791 v 0 l 0.0353,0.16129 0.0316,0.16233 c 0.0199,0.10842 0.0372,0.21708 0.0513,0.32403 0.0141,0.10697 0.0248,0.21235 0.0322,0.31504 -0.0706,-0.0239 -0.14497,-0.0474 -0.22997,-0.0708 l -0.18619,-0.0471 c -0.0341,-0.008 -0.0698,-0.0159 -0.10746,-0.024 -0.0827,-0.0174 -0.1403,-0.043 -0.18575,-0.0706 l -0.11142,-0.0824 c -0.0329,-0.0252 -0.0658,-0.0461 -0.11084,-0.0563 -0.0225,-0.005 -0.0482,-0.007 -0.0784,-0.006 l -0.0487,0.004 v 0 l -0.0568,0.0102 c -0.10564,0.0226 -0.21538,0.0313 -0.32594,0.0353 l -0.16606,0.004 c -0.16589,0.002 -0.32997,0.004 -0.48167,0.0369 -0.0872,0.0186 -0.16871,0.0486 -0.2428,0.0878 -0.037,0.0196 -0.0723,0.0416 -0.10564,0.0654 -0.0333,0.0239 -0.0645,0.0495 -0.0939,0.077 -0.0586,0.0551 -0.109,0.11673 -0.14985,0.18293 -0.0204,0.0331 -0.0385,0.0675 -0.054,0.10253 -0.0466,0.10499 -0.0707,0.21706 -0.0682,0.32849 8.1e-4,0.0371 0.005,0.0745 0.0115,0.11113 0.0275,0.14671 0.10426,0.28729 0.23992,0.40285 0.0339,0.0289 0.0718,0.056 0.11321,0.0815 -0.0373,0.0127 -0.0732,0.0196 -0.10799,0.0217 -0.0464,0.003 -0.0909,-0.002 -0.1343,-0.0122 l -0.11191,-0.0342 v 0 l -0.0473,-0.0177 c -0.12578,-0.048 -0.25113,-0.0985 -0.39932,-0.0576 -0.007,0.0316 -0.0203,0.0611 -0.0382,0.0888 -0.018,0.0277 -0.0409,0.0537 -0.0673,0.077 -0.0791,0.0699 -0.19078,0.11854 -0.30421,0.13973 -0.11343,0.0212 -0.2286,0.0149 -0.31402,-0.0259 l -0.0473,-0.0262 v 0 l -0.0423,-0.0305 -0.0379,-0.035 v 0 l -0.0335,-0.038 c -0.0416,-0.0539 -0.0721,-0.11567 -0.0943,-0.18329 l -0.0151,-0.0516 v 0 l -0.0221,-0.10901 -0.007,-0.0559 c -0.009,-0.0762 -0.0119,-0.15374 -0.0127,-0.23033 -0.14252,0.031 -0.29037,0.0103 -0.41777,-0.0514 l -0.0914,-0.0545 v 0 l -10e-4,-0.0795 -0.009,-0.0753 -0.0157,-0.0711 v 0 l -0.022,-0.0655 v 0 l -0.038,-0.0757 c -0.0283,-0.0461 -0.0621,-0.0829 -0.0995,-0.10824 -0.028,-0.019 -0.058,-0.0315 -0.089,-0.0362 -0.0155,-0.002 -0.0314,-0.003 -0.0473,-0.001 -0.0794,0.008 -0.16231,0.0673 -0.23466,0.19476 l -0.007,0.016 v 0 l -0.0111,0.0765 v 0 l -0.002,0.0677 v 0 l 0.002,0.22411 c -5.5e-4,0.0457 -0.003,0.0851 -0.009,0.11073 l -0.023,0.0716 v 0 l -0.0306,0.0691 -0.10928,0.20559 -0.0331,0.0715 v 0 l -0.0269,0.0739 -0.0179,0.0791 v 0 l -0.0548,8.9e-4 -0.0473,-0.0108 v 0 l -0.0408,-0.0209 -0.0268,-0.022 v 0 l -0.0242,-0.0265 v 0 l -0.0421,-0.0628 v 0 l -0.0365,-0.0725 -0.0342,-0.078 c -0.0227,-0.0529 -0.0462,-0.10662 -0.0748,-0.15416 -0.27608,-0.0423 -0.61153,0.0928 -0.84823,0.0567 -0.16307,-0.0241 -0.25294,-0.0717 -0.32115,-0.15313 -0.017,-0.0204 -0.0329,-0.0429 -0.0481,-0.0676 -0.0455,-0.0741 -0.0862,-0.16857 -0.14384,-0.28742 -0.1226,-0.0103 -0.29773,0.1246 -0.46192,0.28498 l -0.12002,0.12322 v 0 l -0.1747,0.19607 v 0 l -0.1548,0.18338 v 0 l -0.0963,0.12953 v 0 l -0.21022,0.30995 v 0 l -0.087,0.11194 c -0.0909,0.10739 -0.19658,0.19975 -0.34314,0.26687 -0.24705,0.11257 -0.30534,0.0293 -0.50117,0.22477 l -0.0511,0.0577 v 0 l -0.083,0.12128 v 0 l -0.0378,0.0613 c -0.0251,0.0414 -0.0514,0.0815 -0.0823,0.11924 l -0.0503,0.0547 v 0 c -0.0184,0.0176 -0.0386,0.0344 -0.0608,0.0503 -0.0542,0.0382 -0.10162,0.0571 -0.1451,0.0685 l -0.12096,0.0235 v 0 c -0.0569,0.0121 -0.11034,0.0335 -0.16922,0.10424 l -0.03,0.0396 v 0 l -0.0311,0.0489 -0.0304,0.0676 v 0 l -0.0194,0.0733 c -0.0302,0.15287 -0.0157,0.3326 -0.0836,0.47921 l -0.6488,0.11287 c -0.13196,0.0268 -0.25358,0.0587 -0.36048,0.10346 -0.0382,0.016 -0.0746,0.0336 -0.10887,0.0532 -0.0342,0.0196 -0.0664,0.0412 -0.0963,0.0651 -0.1195,0.0958 -0.20245,0.22894 -0.23637,0.42257 -0.008,0.0484 -0.0139,0.10049 -0.016,0.1568 -0.004,0.11258 0.005,0.24191 0.0281,0.39031 0.004,0.0266 -0.004,0.0508 -0.0158,0.0755 l -0.0307,0.0681 -0.008,0.032 c -0.003,0.0224 -0.002,0.047 0.009,0.0747 0.0114,0.03 0.0302,0.052 0.052,0.0693 0.0544,0.0431 0.12931,0.0561 0.16693,0.0882 l 0.0179,0.022 0.0659,0.1323 c 0.0395,0.0786 0.0695,0.14507 0.0874,0.2374 l 0.0111,0.0745 v 0 l 0.006,0.0877 c 0.005,0.1268 -0.009,0.22834 -0.0384,0.30805 -0.0148,0.0399 -0.0337,0.0745 -0.0562,0.1039 -0.0224,0.0294 -0.0486,0.0538 -0.0781,0.0734 -0.0884,0.0585 -0.20709,0.0754 -0.34805,0.0593 -0.047,-0.005 -0.0966,-0.0145 -0.14819,-0.0267 -0.16751,0.0424 -0.3071,0.10277 -0.44907,0.18282 -0.14198,0.0801 -0.2863,0.18014 -0.46362,0.30123 -0.0182,0.12937 0.003,0.25324 0.0308,0.3747 l 0.0285,0.12077 c 0.0125,0.0534 0.0241,0.10641 0.0318,0.15953 -0.11172,0.0551 -0.21162,0.096 -0.30892,0.11349 -0.0649,0.0117 -0.12872,0.0132 -0.19388,0.001 -0.0326,-0.006 -0.0656,-0.0153 -0.0992,-0.0281 -0.0449,-0.0171 -0.091,-0.0405 -0.13921,-0.0713 l -0.10536,-0.0771 -0.18864,1.10674 c 0.0846,0.25765 0.10052,0.54221 0.15221,0.78766 -0.36551,0.17914 -0.59323,0.55512 -0.5391,0.98047 l 0.29776,0.0143 -0.0325,0.14916 c -0.12415,0.45942 -0.37853,0.5687 -0.31243,1.17688 0.009,0.082 0.0771,0.17327 0.14696,0.27951 0.0322,0.049 0.0642,0.10176 0.0907,0.1581 l 0.0437,0.10949 v 0 c 0.01,0.0331 0.0165,0.0676 0.0198,0.10323 0.0196,0.22059 -0.12125,0.59339 -0.17405,0.81023 -0.18282,0.0566 -0.26629,0.11447 -0.33206,0.10965 l -0.0476,-0.0189 -0.0236,-0.0173 v 0 l -0.0256,-0.0269 v 0 l -0.027,-0.036 -0.10392,-0.169 v 0 l -0.0541,0.0501 v 0 l -0.073,0.10395 c -0.13509,0.25569 -0.0509,0.59261 -0.3215,0.78306 -0.007,0.005 -0.0256,0.008 -0.0528,0.01 -0.1613,0.0106 -0.62349,-0.0256 -0.83408,-0.0282 l -0.0912,0.001 -0.14774,0.0213 -0.13356,0.0305 v 0 l -0.12161,0.0391 -0.0575,0.0227 -0.10623,0.0512 v 0 l -0.0507,0.0285 v 0 l -0.0942,0.0623 c -0.0605,0.0439 -0.11689,0.0923 -0.17096,0.14447 -0.0541,0.0523 -0.10602,0.10845 -0.15741,0.1678 l -0.11928,0.14262 v 0 l -0.25528,0.31286 -0.12878,0.14897 v 0 l -0.47898,0.50608 v 0 l -0.17025,0.18352 v 0 l -0.13223,0.15073 c -0.12965,0.15229 -0.25003,0.30894 -0.34756,0.46715 l -0.0894,0.15943 v 0 l -0.0431,0.0935 -0.0356,0.0945 v 0 l -0.0287,0.0956 -0.0315,0.14552 -0.0194,0.1474 v 0 c -0.0424,0.44327 0.0483,0.90711 0.012,1.35428 -0.008,0.0993 -0.0225,0.19796 -0.0461,0.29536 l -0.0424,0.14594 v 0 l -0.0857,0.0182 -0.086,0.0267 v 0 l -0.086,0.0348 c -0.0867,0.0387 -0.1723,0.0887 -0.25572,0.14761 l -0.0622,0.0459 v 0 l -0.0613,0.0491 c -0.28458,0.23592 -0.53462,0.56838 -0.68563,0.90037 -0.0431,0.0948 -0.0783,0.19002 -0.10371,0.2825 -0.0255,0.0926 -0.0413,0.18299 -0.046,0.26873 -0.005,0.0869 -0.002,0.16819 0.006,0.24458 l 0.019,0.12177 c 0.0117,0.0552 0.0272,0.10802 0.0455,0.15805 l 0.0297,0.0732 v 0 l 0.035,0.0706 v 0 l 0.0524,0.088 c 0.0373,0.0569 0.0793,0.1103 0.12508,0.16096 l 0.10949,0.10996 v 0 l 0.11975,0.1023 0.1298,0.0964 0.22261,0.14739 0.198,0.12564 c 0.12888,0.0803 0.25822,0.16212 0.38197,0.25124 l 0.18066,0.13982 0.13755,0.1119 v 0 l 0.56603,0.4358 v 0 l 0.25866,0.20659 v 0 l 0.25128,0.21619 v 0 c 0.0814,0.0737 0.1598,0.14892 0.23331,0.22565 0.11011,0.11495 0.20924,0.23333 0.29109,0.35414 l 0.0768,0.12306 v 0 l 0.0331,0.0625 0.0316,0.0678 c 0.14434,0.32901 0.23591,0.81256 0.22656,1.16631 -0.002,0.0596 -0.008,0.11759 -0.0168,0.17419 -0.0625,0.39704 -0.27074,0.72913 -0.18767,1.10948 l 0.0672,0.007 v 0 l 0.0638,0.0114 0.0617,0.0172 v 0 l 0.0584,0.022 v 0 l 0.0529,0.026 0.0498,0.0314 v 0 l 0.0448,0.0352 0.0508,0.0529 v 0 l 0.059,0.0801 v 0 c 0.0195,0.0337 0.0357,0.0702 0.0488,0.10944 0.0263,0.0786 0.0394,0.16851 0.0375,0.26829 0.11888,-0.0395 0.2201,-0.0564 0.30632,-0.0546 l 0.0821,0.008 v 0 l 0.0488,0.0118 0.0449,0.0168 c 0.0287,0.0128 0.0551,0.0287 0.079,0.0474 l 0.0341,0.0299 v 0 l 0.0419,0.0496 c 0.0339,0.0456 0.0625,0.0974 0.085,0.1558 0.10057,0.26003 0.1039,0.6354 0.13717,0.95607 0.0915,-0.0154 0.17568,-0.0139 0.25299,0.002 l 0.0759,0.022 v 0 c 0.0491,0.0172 0.0946,0.0406 0.13703,0.0692 0.55471,0.37352 0.62002,1.65414 0.47048,2.16968 0.0576,0.002 0.11178,0.008 0.16253,0.0188 l 0.0974,0.0285 v 0 l 0.0454,0.0156 0.0648,0.0315 v 0 l 0.0651,0.0407 v 0 c 0.0394,0.0285 0.0717,0.0547 0.10123,0.084 l 0.0909,0.10657 v 0 l 0.0762,0.1239 v 0 l 0.0325,0.0667 v 0 l 0.0293,0.0707 v 0 l 0.0496,0.14806 0.0283,0.11586 c 0.0474,0.21082 0.0688,0.44038 0.0765,0.66588 l 0.004,0.22413 v 0 l -0.006,0.32203 c -0.0197,0.65944 1.6e-4,1.23267 0.0432,1.88339 l 0.0634,0.83768 c 0.0367,0.42243 0.0783,0.83953 0.0933,1.25093 0.0113,0.30762 0.008,0.61196 -0.024,0.91296 l -0.0416,0.29987 0.0151,-0.003 0.0766,0.008 0.0833,0.0209 0.0906,0.0135 0.0766,0.007 0.0817,-0.0128 0.0745,-0.0191 0.0666,-0.0334 0.13703,-0.0852 0.0598,-0.0441 0.32703,-0.27166 0.0652,-0.0462 0.0722,-0.0391 0.0747,-0.0256 0.38465,-0.0843 0.30083,-0.0504 0.089,-0.007 0.47198,0.072 0.0519,0.0169 0.0602,0.0227 0.11157,0.0655 0.054,0.0429 0.11675,0.10697 0.0568,0.0778 0.11274,0.14597 0.0923,0.14353 0.16136,0.26752 0.14074,0.253 0.14573,0.25462 0.0869,0.1222 0.0913,0.12144 0.0985,0.1221 0.10911,0.11442 0.12287,0.0992 0.0666,0.042 0.13227,0.0715 0.0724,0.029 0.0777,0.0214 0.0765,0.015 0.15183,0.002 0.15838,-0.005 0.31935,-0.0249 0.0772,3e-5 0.14723,0.0147 0.0707,0.0219 0.0655,0.0275 0.0878,0.0633 0.028,0.0313 0.0489,0.0643 0.25635,0.35523 0.12925,0.19345 0.0506,0.0996 0.0484,0.10504 0.0326,0.10425 0.0308,0.15597 -0.005,0.15678 -0.0301,0.0966 -0.0222,0.0501 -0.0275,0.0501 -0.0338,0.0502 -0.0388,0.049 -0.19566,0.18609 -0.0403,0.0438 -0.0557,0.087 -0.0319,0.0839 -0.01,0.0354 0.003,0.0396 -0.003,0.0349 0.009,0.04 0.0252,0.0722 0.0639,0.097 0.0551,0.0574 0.0618,0.0568 0.0732,0.0487 0.0672,0.0492 0.32472,0.17904 0.0716,0.0339 0.41701,0.30807 0.066,0.0432 0.0716,0.0339 0.0673,0.0367 0.0717,0.0206 0.0701,0.0155 0.0309,-0.002 0.0381,0.004 0.0375,-0.009 0.0309,-0.002 0.0376,-0.0166 0.0314,-0.01 0.11002,-0.0481 0.0993,-0.0226 0.0871,-0.007 0.0827,0.008 0.0394,0.0106 0.0324,0.0112 0.0661,0.0348 0.0409,0.0383 0.0203,0.025 0.0148,0.0262 0.0178,0.0538 0.002,0.0264 -0.009,0.0551 -0.0105,0.0282 -0.016,0.0291 -0.0231,0.03 -0.0306,0.0201 -0.0291,0.0244 -0.0158,0.008 0.0551,0.10935 v 0 l 0.13794,0.33605 c 0.0789,0.18105 0.1808,0.35644 0.36648,0.46774 0.0581,0.0349 0.11487,0.0606 0.17004,0.0803 0.16551,0.0591 0.31757,0.0628 0.45653,0.0894 0.0463,0.009 0.091,0.0202 0.1344,0.0371 l 0.0324,0.0139 v 0 l 0.0631,0.0347 v 0 l 0.0307,0.0214 c 0.0203,0.0153 0.0401,0.0327 0.0596,0.0526 l 0.0574,0.0673 v 0 l 0.0554,0.0843 v 0 l 0.0531,0.10305 v 0 c 0.13945,0.3026 0.24933,0.74215 0.32458,1.1321 0.0251,0.12998 0.0461,0.25455 0.0633,0.36662 0.0211,0.13942 0.032,0.25072 0.0339,0.34029 0.003,0.13438 -0.0145,0.21948 -0.0478,0.27452 -0.0111,0.0183 -0.0238,0.0333 -0.0383,0.0457 -0.0145,0.0125 -0.0309,0.0223 -0.0485,0.0304 -0.0352,0.016 -0.0762,0.0246 -0.12188,0.0316 l -0.0718,0.0101 c -0.05,0.007 -0.10379,0.0152 -0.16048,0.0306 l -0.0868,0.0293 v 0 c -0.0591,0.0241 -0.12061,0.0584 -0.18274,0.10851 -0.031,0.0251 -0.062,0.0541 -0.0934,0.0879 -0.031,0.0332 -0.0574,0.0775 -0.0795,0.1307 -0.0661,0.15946 -0.094,0.39665 -0.0932,0.63992 2.6e-4,0.0811 0.004,0.16287 0.01,0.24263 0.006,0.0798 0.0152,0.15775 0.0266,0.23084 0.0114,0.0731 0.025,0.14123 0.0408,0.20235 0.0158,0.0611 0.0339,0.11523 0.0535,0.15904 0.0367,0.0815 0.0864,0.15339 0.14477,0.21884 l 0.0932,0.0935 v 0 c 0.10948,0.0994 0.2363,0.18505 0.35906,0.27061 l 0.17841,0.13004 0.13936,0.0384 0.0713,0.0154 0.14537,0.0148 0.0703,0.003 0.12625,-0.0183 0.33848,-0.0384 0.17143,-0.002 0.076,0.009 0.0701,0.0143 0.0585,0.0241 0.0208,0.0169 0.0216,0.0265 0.0279,0.0454 0.005,0.0685 -0.004,0.0402 -0.008,0.0425 -0.0217,0.0476 -0.0311,0.0842 -0.0177,0.0223 -0.0419,0.0379 -0.0474,0.0299 -0.0353,0.0124 c 0.0433,0.0239 0.0839,0.0508 0.12014,0.0837 l 0.0262,0.0259 v 0 l 0.0475,0.059 v 0 l 0.34769,0.57407 c 0.12895,0.21493 0.26934,0.45779 0.39523,0.70813 0.12589,0.25035 0.23736,0.5081 0.30824,0.75296 l 0.0246,0.0913 v 0 l 0.0205,0.0898 c 0.0122,0.0593 0.0217,0.11724 0.0277,0.17394 0.006,0.0567 0.008,0.11199 0.007,0.16546 -0.001,0.0535 -0.006,0.10505 -0.0146,0.15468 -0.0285,0.15623 -0.0928,0.31226 -0.17194,0.46511 -0.13192,0.25475 -0.30577,0.50106 -0.4259,0.72786 -0.0704,0.13075 -0.14608,0.19713 -0.19166,0.28329 -0.0228,0.0431 -0.0381,0.0913 -0.0412,0.15473 -0.003,0.0635 0.006,0.14248 0.0317,0.24738 0.008,0.0306 0.0173,0.0587 0.0288,0.0848 0.0231,0.0522 0.0532,0.0966 0.0852,0.13804 l 0.0489,0.0607 c 0.0328,0.0398 0.0653,0.0792 0.0926,0.12297 l 0.0193,0.0336 v 0 l 0.0169,0.0357 c 0.0105,0.0247 0.0191,0.0511 0.0251,0.0798 0.0227,0.11181 0.0266,0.21944 0.009,0.31684 -0.006,0.0325 -0.0141,0.0638 -0.0247,0.0938 -0.0107,0.0301 -0.0235,0.0589 -0.0392,0.0861 -0.0157,0.0272 -0.034,0.0528 -0.0549,0.0768 -0.0418,0.0479 -0.0942,0.089 -0.1581,0.12151 -0.0704,0.0356 -0.13007,0.0438 -0.1836,0.0364 -0.0357,-0.005 -0.0687,-0.0167 -0.10039,-0.0317 l -0.15762,-0.0871 c -0.0566,-0.0282 -0.11692,-0.047 -0.18907,-0.0354 -0.22386,0.0354 -0.33388,0.16235 -0.41757,0.30571 l -0.13011,0.24144 c -0.0226,0.0385 -0.047,0.0751 -0.075,0.10817 l -0.0548,0.0554 v 0 c -0.0198,0.017 -0.0413,0.032 -0.0649,0.0453 -0.0708,0.0402 -0.16058,0.0627 -0.28037,0.0581 -0.0301,-0.001 -0.0594,-0.006 -0.0883,-0.0133 -0.0289,-0.007 -0.0572,-0.0165 -0.0853,-0.0276 -0.16861,-0.067 -0.32686,-0.19281 -0.51737,-0.19992 -0.1222,-0.005 -0.23265,0.0336 -0.33734,0.081 l -0.15335,0.0732 v 0 c -0.0502,0.0237 -0.0998,0.0451 -0.14951,0.06 l -0.19388,0.0578 v 0 c -0.0562,0.0174 -0.1054,0.0344 -0.15146,0.0545 -0.0921,0.0402 -0.17213,0.0933 -0.27239,0.19125 -0.13217,0.12778 -0.15895,0.4126 -0.34779,0.48604 -0.0354,0.0138 -0.0997,0.0131 -0.18262,0.002 -0.083,-0.0114 -0.18447,-0.0332 -0.29437,-0.0613 l -0.16991,-0.0465 v 0 l -0.34624,-0.10857 v 0 l -0.16089,-0.0558 -0.0238,0.0446 -0.0503,0.0785 -0.0873,0.0886 -0.0292,0.0232 -0.0371,0.0234 -0.0676,0.0169 -0.0313,0.0109 -0.0645,-0.0151 -0.0332,-0.0119 -0.0323,-0.0249 -0.0295,-0.0324 -0.0285,-0.0377 -0.0576,-0.0983 -0.039,-0.0852 -0.0419,-0.0648 -0.0765,-0.0771 -0.0269,-0.0177 -0.0271,-0.0116 -0.0247,-0.0186 -0.11742,-0.0308 -0.0646,-0.002 -0.0607,0.005 -0.0634,0.0122 -0.1301,0.0311 -0.28381,0.0902 -0.0756,0.006 -0.0707,-0.009 -0.10299,-0.0331 -0.0669,-0.0355 -0.0365,-0.0254 c -0.0831,0.11122 -0.15082,0.25097 -0.21249,0.39332 l -0.11778,0.28038 v 0 l -0.0575,0.12857 c -0.0327,0.0685 -0.0582,0.13111 -0.0795,0.18946 l -0.10281,0.31434 v 0 c -0.0503,0.14679 -0.11668,0.28927 -0.27992,0.47754 -0.0594,-0.0247 -0.11071,-0.0492 -0.15567,-0.0737 -0.0899,-0.049 -0.1543,-0.0982 -0.20489,-0.15089 -0.0253,-0.0263 -0.0471,-0.0538 -0.0672,-0.0822 l -0.0563,-0.0893 v 0 l -0.0546,-0.0991 c -0.0378,-0.0699 -0.0808,-0.14779 -0.14095,-0.23686 -0.0302,-0.0447 -0.0638,-0.0841 -0.10046,-0.11873 -0.22446,-0.21199 -0.55874,-0.2465 -0.86671,-0.2476 l -0.12998,0.001 c -0.0958,0.002 -0.1805,-0.003 -0.25603,-0.0123 l -0.10672,-0.0187 v 0 c -0.0666,-0.015 -0.12443,-0.0349 -0.17549,-0.0593 -0.0255,-0.0122 -0.0495,-0.0253 -0.0717,-0.0396 -0.0889,-0.0571 -0.15305,-0.13026 -0.20501,-0.21376 -0.026,-0.0417 -0.049,-0.0861 -0.0705,-0.13233 l -0.12345,-0.29464 -0.11393,-0.0246 -0.14026,-0.003 -0.0685,0.005 -0.0683,0.0126 -0.14299,0.0385 -0.0664,0.0313 -0.065,0.0397 -0.0682,0.046 -0.0412,0.0229 -0.0412,0.0326 -0.0444,0.0159 -0.0744,0.0203 -0.0376,0.003 -0.0315,-0.006 -0.064,-0.0224 -0.0684,-0.0354 -0.0247,-0.0178 -0.0562,-0.0573 -0.0549,-0.0647 -0.1013,-0.14807 -0.10075,-0.15537 -0.15516,-0.21319 -0.0618,-0.056 -0.0553,-0.0638 -0.0429,-0.064 -0.046,-0.0798 -0.039,-0.0852 -0.12863,-0.36919 -0.0324,-0.0865 -0.0758,-0.15771 -0.0436,-0.0583 -0.0545,-0.0494 -0.0595,-0.0373 -0.0252,-0.0105 -0.0774,-0.007 -0.0371,0.009 -0.0882,0.007 -0.0894,9e-4 -0.0883,-0.008 -0.0771,-0.0138 -0.15429,-0.0424 -0.1334,-0.0714 -0.0533,-0.0442 -0.0545,-0.0502 -0.0479,-0.0507 -0.0744,-0.11592 -0.0229,-0.0663 -0.0242,-0.0598 -0.0121,-0.0672 -0.009,-0.10813 0.003,-0.0414 0.0282,-0.111 0.0172,-0.0287 0.0355,-0.0435 0.0481,-0.0312 0.0298,-0.016 0.0555,-0.018 0.068,-0.0113 0.0712,8.1e-4 0.0744,-0.006 0.14675,0.009 0.14462,-0.004 0.0696,-0.005 0.0549,-0.0115 0.0735,-0.0323 0.0723,-0.0463 0.0603,-0.0519 0.0575,-0.0589 0.0516,-0.0721 0.046,-0.0717 0.0376,-0.0775 0.0244,-0.0837 0.018,-0.084 0.0125,-0.0828 8.1e-4,-0.0746 -0.006,-0.0813 -0.0268,-0.10671 -0.0161,-0.0322 -0.0361,-0.058 -0.028,-0.0317 -0.0267,-0.0197 -0.0687,-0.0628 -0.0545,-0.0631 -0.0502,-0.0654 -0.043,-0.0648 -0.0311,-0.0705 -0.0248,-0.0674 -0.0168,-0.0656 -0.0163,-0.20425 0.0134,-0.13765 0.0508,-0.31706 0.005,-0.0883 -0.003,-0.0408 -0.0105,-0.0471 -0.0301,-0.0722 -0.0154,-0.0335 -0.022,-0.0317 -0.0548,-0.0626 -0.0283,-0.026 -0.0602,-0.036 -0.0729,-0.0354 -0.0309,-0.0113 -0.10919,-0.012 -0.0365,0.003 -0.0685,0.0186 -0.0297,0.0172 -0.0321,0.015 -0.0585,0.0457 -0.0299,0.0293 -0.0214,0.0375 -0.0235,0.0345 -0.0305,0.0914 -0.13771,0.0107 0.012,0.005 0.0137,0.0126 0.008,0.0131 0.0137,0.0126 0.0296,0.0513 -0.1039,0.36954 -0.006,0.15162 -0.0213,0.0758 -0.0137,0.0349 -0.0172,0.0283 -0.0404,0.0515 -0.0229,0.0227 -0.0239,0.0148 -0.0863,0.0401 -0.0682,0.0134 -0.1325,0.0103 -0.27902,-0.019 -0.0646,-0.002 -0.12581,0.01 -0.0674,0.0189 -0.0681,0.025 -0.0664,0.0318 -0.26154,0.14405 -0.0613,0.0245 -0.0596,0.0328 -0.11768,0.0366 -0.0313,0.002 -0.0263,-0.006 -0.0246,0.002 -0.0313,-0.003 -0.0789,-0.0362 -0.0276,-0.0176 -0.0871,-0.0686 -0.0794,-0.0422 -0.0385,-0.009 -0.0712,-0.0239 -0.0369,-0.002 -0.0696,0.005 -0.12485,0.0359 -0.29071,0.15399 -0.0546,0.024 -0.0565,0.01 -0.0569,0.004 -0.0638,-0.006 -0.0337,-0.0183 -0.0271,-0.02 -0.0263,-0.0242 -0.0147,-0.0251 -0.0309,-0.0681 -0.01,-0.0387 -0.003,-0.0417 -0.002,-0.17638 0.0231,-0.19844 0.004,-0.095 -0.001,-0.17801 -0.009,-0.0327 -0.009,-0.04 -0.0143,-0.0335 -0.0149,-0.027 -0.0281,-0.024 -0.0523,-0.0366 -0.0399,-0.0118 -0.044,-0.003 -0.11352,0.009 -0.0557,0.0104 -0.23526,0.0602 -0.1756,0.0334 -0.1209,-0.004 -0.0637,-0.0148 -0.0718,-0.0226 -0.0709,-0.0344 -0.0734,-0.0422 -0.0804,-0.055 -0.0822,-0.0827 -0.065,-0.0828 -0.0433,-0.0921 -0.0257,-0.0786 -0.0204,-0.0875 -0.006,-0.0813 10e-4,-0.15523 -0.005,-0.0677 -0.0105,-0.062 -0.01,-0.0254 -0.008,-0.0276 -0.0148,-0.0263 -0.0199,-0.0194 -0.0469,-0.0298 -0.0319,-0.01 -0.0385,-0.004 -0.0968,-0.007 -0.11769,0.0176 -0.0685,0.005 -0.14036,-0.004 -0.0638,-0.016 -0.13509,-0.0221 -0.13037,-0.0382 -0.12943,-0.0451 -0.19342,-0.0446 -0.0641,-0.01 h -0.0633 l -0.0629,0.005 -0.0822,-0.002 -0.0765,-0.007 -0.078,-0.0149 -0.12983,-0.0503 -0.17857,-0.10256 -0.1718,-0.0882 -0.0651,-0.0223 -0.12909,-0.0174 -0.0685,0.005 -0.13686,0.0308 -0.12468,0.01 -0.14733,-0.016 -0.1293,-0.0435 -0.0608,-0.0299 -0.0258,-0.0182 -0.0485,-0.0442 -0.0223,-0.0265 -0.0276,-0.0507 -0.0104,-0.0359 -0.005,-0.0665 0.0143,-0.0756 -0.01,0.0422 -0.005,0.0331 0.005,0.0677 0.0106,0.035 0.0273,0.0511 0.007,0.008 -0.0671,0.0177 -0.19986,0.0156 -0.075,0.0268 -0.0305,0.0221 -0.0298,0.016 -0.0226,0.0215 -0.0238,0.0304 -0.0498,0.0845 -0.0279,0.0638 -0.0115,0.0763 -0.007,0.0763 -8.1e-4,0.0746 0.0122,0.15378 0.0306,0.14027 0.0353,0.12783 0.009,0.04 0.022,0.0317 0.0227,0.0401 0.0204,0.0258 0.0555,0.0573 0.13885,0.0835 0.0732,0.035 0.16226,0.0623 0.15028,0.0625 0.0735,0.0434 0.061,0.0424 0.0277,0.0325 0.0264,0.0261 0.0223,0.0309 0.0369,0.0725 0.0171,0.0458 0.0179,0.0937 0.0146,0.0944 0.0204,0.0875 0.0385,0.0788 0.0428,0.0712 0.0491,0.0566 0.12209,0.113 0.0613,0.05 0.26277,0.19112 0.0605,0.0497 0.0479,0.0559 0.0502,0.0654 0.0435,0.072 0.009,0.0328 0.0165,0.0326 0.0182,0.0731 -0.001,0.0755 8.1e-4,0.0681 -0.0137,0.0776 -0.0257,0.0677 -0.0333,0.0707 -0.0375,0.065 -0.0481,0.0593 -0.11117,0.0901 -0.0321,0.0154 -0.10414,0.0278 -0.0811,0.006 -0.0765,-0.007 -0.085,-0.028 -0.0448,-0.0175 -0.0389,-0.009 -0.0382,-0.004 -0.038,0.003 -0.0559,0.0176 -0.025,0.0149 -0.0225,0.0235 -0.0475,0.0436 -0.0975,0.19094 -0.0335,0.0731 -0.0329,0.0618 -0.062,0.0866 -0.0237,0.022 -0.0917,0.0482 -0.0363,0.01 -0.12808,-0.009 -0.0975,-0.0339 -0.0443,-0.0111 -0.0452,-0.003 -0.0369,0.003 -0.0614,0.0184 -0.0252,0.0169 -0.0471,0.0436 -0.0327,0.0642 -0.0176,0.0288 -0.0384,0.15289 -0.0603,0.34399 -0.0265,0.071 -0.0107,0.0347 -0.0149,0.0346 -0.0408,0.0515 -0.0471,0.0431 -0.0711,0.0478 -0.0591,0.0525 -0.0539,0.0574 -0.0448,0.0583 -0.18964,0.31335 -0.041,0.0588 -0.093,0.10234 -0.0586,0.0445 -0.0672,0.0399 -0.0735,0.0267 -0.0864,0.0204 -0.2761,0.0412 -3.72003,3.581 -0.1388,-0.003 -0.12977,-0.0306 -0.0572,-0.023 -0.028,-0.0175 -0.0199,-0.0194 -0.028,-0.0176 -0.0418,-0.0503 -0.0457,-0.0992 -0.008,-0.0413 -0.0786,-0.74222 -0.0533,-0.19371 -0.0234,-0.059 -0.0375,-0.0575 -0.34722,-0.62621 -0.049,-0.0651 -0.0481,-0.0583 -0.0546,-0.0502 -0.027,-0.0188 -0.066,-0.0336 -0.0332,-0.0119 -0.0374,-0.005 -0.0393,-0.009 -0.0756,0.006 -0.1869,0.0419 -0.0365,0.003 -0.0778,-0.009 -0.0319,-0.01 -0.0318,-0.0185 -0.0553,-0.0364 -0.0682,-0.0753 -0.0376,-0.0676 -0.0987,-0.20913 -0.0367,-0.0705 -0.0794,-0.13204 -0.0225,-0.0237 -0.0551,-0.0521 -0.0254,-0.0178 -0.0335,-0.0167 -0.032,-0.0116 -0.0468,-0.11282 -0.11063,-0.1006 -0.0153,-0.046 -0.0232,-0.0466 -0.0148,-0.0396 -0.0567,-0.0625 -0.0268,-0.0314 -0.0684,-0.0503 -0.0723,-0.0427 -0.0731,-0.0342 -0.16171,-0.0555 -0.14384,-0.0569 -0.0998,-0.0539 -0.0214,-0.0245 -0.0267,-0.0241 -0.0206,-0.0278 -0.0313,-0.0636 -0.0186,-0.0739 -0.004,-0.0481 0.009,-0.0486 0.01,-0.12366 0.006,-0.16371 -0.003,-0.26529 -0.0242,-0.15406 -0.008,-0.028 -0.0153,-0.0322 -0.0436,-0.0583 -0.0204,-0.0121 h -0.005 l -0.0128,-0.005 -0.0264,0.002 -0.0479,0.0186 -0.0597,0.0453 -0.0709,0.0789 -0.0586,0.059 -0.0585,0.0464 -0.0663,0.0378 -0.0679,0.0262 -0.0749,0.0147 -0.0703,-0.003 -0.064,-0.009 -0.0644,-0.0139 -0.032,-0.012 -0.0812,-0.0557 -0.0262,-0.0238 -0.0424,-0.0523 -0.0212,-0.031 -0.0162,-0.0342 -0.0268,-0.10712 -0.003,-0.0392 0.003,-0.0486 0.0113,-0.0891 0.0232,-0.10335 0.0305,-0.0914 0.0759,-0.14815 0.0477,-0.0645 0.10441,-0.10444 0.0602,-0.0393 0.12826,-0.0636 0.12925,-0.0512 0.27751,-0.0893 0.13947,-0.0592 0.12721,-0.0768 0.0598,-0.053 0.0589,-0.0453 0.093,-0.11643 0.0664,-0.12122 0.0388,-0.12472 0.008,-0.0699 -0.0108,-0.13537 -0.0344,-0.11257 -0.009,-0.0464 -0.006,-0.0801 0.006,-0.0823 0.0509,-0.14098 0.0392,-0.0724 0.164,-0.2497 0.0331,-0.0642 0.0106,-0.027 0.008,-0.0365 0.008,-0.0675 -0.005,-0.0677 -0.009,-0.0327 -0.0171,-0.0406 -0.0442,-0.0796 -0.40722,-0.59897 -0.11184,-0.13476 -0.0623,-0.0629 -0.1224,-0.10734 -0.1388,-0.0783 -0.1497,-0.0553 -0.0729,-0.0217 -0.13622,-0.0648 -0.2511,-0.12916 -0.18972,-0.0735 -0.0634,-0.016 -0.0711,-0.009 -0.1325,0.0103 -0.10479,0.0291 -0.0368,0.0174 -0.0602,0.0381 -0.0592,0.0518 -0.051,0.0511 -0.10431,0.12458 -0.14991,0.19622 -0.0527,0.0573 -0.11152,0.0905 -0.0618,0.0322 -0.10588,0.0296 -0.12042,-0.0121 -0.14219,-0.0361 -0.0595,-0.0228 -0.0195,-0.0142 -0.15202,8.1e-4 -0.0938,0.007 -0.0425,0.0166 -0.0383,0.008 -0.0291,0.0244 -0.0302,0.0161 -0.0448,0.0579 -0.0345,0.0559 -0.0265,0.0714 -0.0193,0.0769 -0.0123,0.0755 -0.0191,0.15019 -0.0272,0.14678 -0.0106,0.027 -0.0172,0.0287 -0.008,0.0276 -0.0355,0.0435 -0.0481,0.0311 -0.0307,0.01 -0.0497,0.0103 -0.0882,0.007 -0.0322,-0.004 -0.0654,-0.0219 -0.0629,-0.0705 -0.0301,-0.0585 -0.008,-0.0352 -0.0243,-0.16011 -0.012,-0.36698 -0.008,-0.0949 -0.0365,-0.1531 3.5389,-3.6354 -0.0489,-0.0643 -0.0496,-0.0586 -0.0606,-0.0416 -0.0594,-0.0361 -0.0658,-0.0223 -0.0704,-0.0143 -0.0708,-0.009 h -0.076 l -0.14441,0.0112 -0.1496,0.0262 -0.28685,0.0425 -0.0696,0.005 -0.064,-0.009 -0.0926,-0.0347 -0.0733,-0.0552 -0.0406,-0.044 -0.0419,-0.0512 -0.0604,-0.12384 -0.0494,-0.14044 -0.0371,-0.22156 -0.006,-0.0749 8.2e-4,-0.0746 -0.006,-0.0749 -0.01,-0.0391 -0.0155,-0.0343 -0.0148,-0.04 -0.0153,-0.0323 -0.0435,-0.0571 -0.0553,-0.059 -0.0604,-0.0485 -0.0666,-0.042 -0.15064,-0.0576 -0.0767,-0.013 -0.0759,-0.009 -0.0761,-0.001 -0.0757,0.0131 -0.0727,0.0274 -0.0311,0.0141 -0.0297,0.0168 -0.0597,0.0457 -0.0592,0.0517 -0.0661,0.0398 -0.0612,0.0257 -0.0612,0.012 -0.0648,0.009 -0.0627,-0.006 -0.058,-0.009 -0.0634,-0.0152 -0.38376,-0.12086 -0.12797,-0.0174 -0.12579,0.01 -0.13074,0.0231 -0.2534,0.0677 -0.13141,0.0239 -0.0623,0.0121 -0.12056,-0.004 -0.057,-0.0101 -0.0596,-0.0143 -0.0578,-0.0302 -0.0545,-0.0353 -0.0617,-0.0508 -0.14133,-0.12399 -0.15041,-0.13942 -0.15645,-0.13048 -0.0739,-0.0487 -0.10477,-0.06 -0.0331,-0.0111 -0.0326,-0.005 -0.0562,0.004 -0.0296,0.01 -0.025,0.0157 -0.0406,0.0503 -0.016,0.0347 -0.0143,0.0503 -0.0386,0.1646 -0.0137,0.0494 -0.0393,0.0796 -0.0205,0.0338 -0.0492,0.0457 -0.0251,0.0145 -0.0218,0.0174 -0.0316,0.008 -0.0573,0.005 -0.0254,-0.003 -0.0247,-0.0138 -0.0324,-0.003 -0.053,-0.0309 -0.0547,-0.0421 -0.0544,-0.0441 -0.0479,-0.0507 -0.0425,-0.0588 -0.0677,-0.11642 -0.0156,-0.0605 -0.0874,-0.29382 -0.0492,-0.13801 -0.0561,-0.14514 -0.0609,-0.13872 -0.20293,-0.39928 -0.24066,-0.15818 -0.0815,-0.0682 -0.19758,-0.3461 0.023,-0.18635 0.0181,-0.1775 0.0311,-0.0842 0.0238,-0.0909 0.007,-0.082 -0.007,-0.0877 -0.0202,-0.0802 -0.0621,-0.15878 -0.0447,-0.0719 -0.0494,-0.0703 -0.0559,-0.0625 -0.0611,-0.0573 -0.0612,-0.0496 -0.0672,-0.0492 -0.0606,-0.0364 -0.0661,-0.0348 -0.13687,-0.0587 -0.0804,-0.0554 -0.0811,-0.0678 -0.0765,-0.0759 -0.29069,-0.32556 -0.068,-0.0688 -0.0625,-0.056 -0.0326,-0.0184 -0.0546,-0.0365 -0.0248,-0.006 -0.0249,-0.002 -0.026,0.002 -0.0482,0.0299 -0.0178,0.0215 -0.0226,0.0364 -0.0661,0.19455 -0.0381,0.0856 -0.0395,0.0639 -0.022,0.0291 -0.0226,0.0219 -0.0188,0.022 -0.0227,0.0155 -0.0507,0.0177 -0.0177,0.009 -0.0503,0.004 -0.0259,-0.005 -0.0441,-0.004 -0.0507,-0.0162 -0.048,-0.0245 -0.0512,-0.0222 -0.17958,-0.10128 -0.064,-0.0232 -0.0661,-0.0207 -0.12909,-0.0315 -0.26866,-0.0347 -0.13999,-0.0226 -0.0652,-0.0147 -0.0721,-0.0214 -0.0641,-0.0236 -0.13218,-0.0703 -0.0617,-0.0508 -0.0809,-0.0751 -0.0282,-0.0389 -0.0218,-0.0394 -0.0325,-0.0793 -0.009,-0.0376 -0.003,-0.0357 0.006,-0.0746 0.0141,-0.0769 0.0454,-0.13974 0.0199,-0.0696 0.0141,-0.068 0.003,-0.0361 0.005,-0.0254 -0.005,-0.0689 -0.0254,-0.0601 -0.0202,-0.0331 -0.028,-0.0228 -0.0337,-0.0332 -0.13945,-0.077 -0.0456,-0.0174 -0.0382,-0.004 -0.0383,-0.001 -0.0382,-0.004 -0.0676,0.0169 -0.0666,0.0334 -0.0607,0.0462 -0.0581,0.0509 -0.20902,0.24877 -0.0525,0.0512 -0.0529,0.046 -0.056,0.0305 -0.0237,0.008 -0.032,0.002 -0.0629,-0.009 -0.0338,-0.0111 -0.0317,-0.0173 -0.0546,-0.0368 -0.0475,-0.0507 -0.0423,-0.0511 -0.0421,-0.0636 -0.13595,-0.27755 -0.0379,-0.0716 -0.0852,-0.11507 -0.0772,-0.0754 -0.0314,-0.0177 -0.0264,-0.0112 -0.0334,-0.0196 -0.0374,-0.004 -0.0331,-0.0107 -0.0381,-0.004 -0.10757,0.008 -0.05,-0.003 -0.0524,-0.01 -0.0392,-0.0175 -0.0651,-0.0368 -0.0214,-0.0249 -0.0433,-0.0635 -0.0274,-0.11432 -0.0135,-0.16942 -0.002,-0.17631 -0.0124,-0.0804 -0.0175,-0.0744 -0.0315,-0.0665 -0.0203,-0.0246 -0.0546,-0.0365 -0.0396,-0.0171 -0.0375,-0.0104 -0.0512,-0.004 -0.11481,-0.012 -0.0457,-0.009 -0.0376,-0.0116 -0.0407,-0.017 -0.0265,-0.0177 -0.0535,-0.0514 -0.0159,-0.0249 -0.0291,-0.0598 -0.009,-0.0327 -0.024,-0.14159 -0.0113,-0.14177 -0.0114,-0.0733 -0.01,-0.0339 -0.0303,-0.0658 -0.0149,-0.027 -0.0202,-0.0238 -0.0558,-0.0513 -0.0326,-0.0184 -0.0854,-0.0328 -0.0834,-0.17687 -0.10625,-0.0598 -0.0904,-0.35483 -0.003,-0.0888 -0.007,-0.0873 -0.0107,-0.0874 -0.0197,-0.0875 -0.0274,-0.0857 -0.0753,-0.16501 -0.0446,-0.0707 -0.0424,-0.0712 -0.0566,-0.071 -0.0544,-0.0578 -0.0545,-0.0498 -0.12903,-0.0919 -0.0646,-0.0304 -0.0638,-0.0204 -0.12906,-0.017 -0.0575,-0.003 -0.0629,0.005 -0.13115,0.0179 -0.12424,0.0294 -0.37368,0.0762 -0.0633,0.005 -0.0563,-0.002 -0.0447,0.004 -0.0438,0.01 -0.0424,0.0178 -0.0353,0.0229 -0.0366,0.0299 -0.0298,0.0297 -0.0559,0.0789 -0.0493,0.0917 -0.0443,0.0925 -0.11134,0.26699 -0.0377,0.0718 -0.0188,0.0224 -0.0148,0.0213 -0.0194,0.0148 -0.0376,0.003 -0.0143,-0.005 -0.0535,-0.0502 -0.0511,-0.0915 -0.0956,-0.23152 -0.0366,-0.0786 -0.0925,-0.12216 -0.0486,-0.0506 -0.054,-0.043 -0.10626,-0.0598 -0.0519,-0.0169 -0.0566,-0.0153 -0.1098,-0.0197 -0.21571,-0.009 -0.13957,0.0109 -0.14136,0.0307 -0.29792,0.0776 -0.2088,0.0162 -0.0892,-0.02 -0.0524,-0.0233 -0.0527,-0.0366 -0.0429,-0.0502 -0.0154,-0.0335 -0.0433,-0.0784 -0.10735,-0.14881 -0.0617,-0.0693 -0.13658,-0.12557 -0.0744,-0.0551 -0.13379,-0.0859 -0.12287,-0.038 -0.0332,-0.003 -0.0236,-0.005 -0.0259,0.009 -0.026,0.002 -0.015,0.0137 -0.0203,0.008 -0.0283,0.0441 -0.0199,0.056 -0.029,0.11026 -0.0525,0.13506 -0.0228,0.034 -0.053,0.0537 -0.0238,0.0216 -0.0539,0.0239 -0.0626,0.0186 -0.0573,0.004 -0.0303,-0.004 -0.123,-0.0303 -0.0601,-0.03 -0.10598,-0.0611 -0.20483,-0.18797 -0.10003,-0.0805 -0.0618,-0.0423 -0.11751,-0.0602 -0.065,-0.0211 -0.0584,-0.009 -0.0945,0.007 -0.0308,0.008 -0.0548,0.0316 -0.0584,0.0517 -0.0513,0.0657 -0.0438,0.0852 -0.0428,0.11132 -0.009,0.0366 -0.0172,0.0199 -0.0161,0.0287 -0.0242,0.0164 -0.0182,0.0163 -0.0239,0.0143 -0.0563,0.0169 -0.0616,0.012 -0.0631,-0.002 -0.0699,-0.007 -0.0785,-0.0213 -0.60354,-0.1908 -0.27235,-0.0481 -0.11261,-0.0174 -0.0712,-0.0142 -0.0641,-0.0244 -0.0599,-0.028 -0.0584,-0.0374 -0.0491,-0.0433 -0.0204,-0.0254 -0.0449,-0.0844 -0.0101,-0.0415 -0.006,-0.0801 0.004,-0.041 0.0172,-0.10329 0.0389,-0.14649 0.0517,-0.14627 0.0332,-0.0719 0.0377,-0.063 0.0338,-0.0651 0.0912,-0.1151 0.0537,-0.0453 0.0535,-0.0376 0.0613,-0.0257 0.0304,-0.008 0.038,-0.003 0.0321,-0.0102 0.10805,0.0117 0.0832,0.0197 0.0596,0.0236 0.11572,0.0329 0.0246,0.003 -0.0189,-0.0912 -0.0171,-0.0551 -0.0135,-0.0191 -0.007,8.2e-4 -0.0136,-0.0114 -0.0309,0.002 -0.0251,0.0144 -0.018,0.009 -0.047,0.0444 -0.0239,0.0151 -0.007,8.2e-4 -0.006,-0.007 -0.006,8.1e-4 -0.007,-0.0192 -0.004,-0.0469 0.005,-0.0818 0.0348,-0.28238 0.006,-0.0887 -8.2e-4,-0.0818 -0.0124,-0.0808 -0.0248,-0.067 -0.0307,-0.0661 -0.0356,-0.0569 -0.0426,-0.0459 -0.054,-0.0433 -0.0524,-0.0374 -0.0599,-0.028 -0.058,-0.0229 -0.1284,-0.0182 -0.0636,0.005 -0.0623,0.0121 -0.0617,0.0197 -0.0423,0.009 -0.057,0.0181 -0.11693,0.0224 -0.0648,0.005 -0.0623,-0.002 -0.0573,-0.009 -0.0649,-0.0159 -0.0254,-0.004 -0.027,-0.0104 -0.0258,-0.0189 -0.0629,-0.0567 -0.0344,-0.0509 -0.0181,-0.0679 -0.01,-0.12175 0.0411,-0.19421 0.003,-0.0409 -0.006,-0.0737 -0.008,-0.0268 -0.0301,-0.0585 -0.0138,-0.0187 -0.0481,-0.0394 -0.0577,-0.029 -0.0651,-0.0223 -0.0774,-0.008 h -0.0742 l -0.0818,0.0124 -0.0812,0.02 -0.0806,0.0272 -0.0789,0.0344 -0.0668,0.0447 -0.0648,0.0522 -0.11178,0.11064 -0.0599,0.0337 -0.057,0.0173 -0.0301,0.002 -0.0973,-0.0126 -0.0706,-0.0163 -0.13614,-0.0495 -0.14391,-0.0577 -0.14059,-0.0302 -0.071,-0.007 -0.0376,0.003 -0.106,0.028 -0.0281,0.0231 -0.12833,0.0769 -0.0357,0.0177 -0.0382,0.009 -0.0618,0.005 -0.0269,-0.004 -0.0519,-0.0306 -0.0407,-0.0367 -0.0523,-0.0922 -0.0246,-0.065 -0.12513,-0.38639 -0.0506,-0.0851 -0.0207,-0.0246 -0.0217,-0.0193 -0.13327,-0.0839 -0.10063,-0.074 -0.0943,-0.0745 -0.0958,-0.0881 -0.083,-0.10234 -0.086,-0.11582 -0.0796,-0.13 -0.0753,-0.1505 -0.0546,-0.12632 -0.026,-0.10477 -0.006,-0.0813 0.006,-0.0633 0.022,-0.0488 0.0178,-0.0215 0.0182,-0.0159 0.0412,-0.0233 0.11403,-0.0214 0.18089,-0.0141 0.0567,-0.0117 0.0425,-0.0166 0.042,-0.023 0.0289,-0.0369 0.0277,-0.0566 0.0324,-0.0497 0.03,-0.037 0.036,-0.0375 0.0294,-0.0212 0.0362,-0.0246 0.0288,-0.0151 0.0385,-0.0103 0.0685,-0.005 0.0697,0.009 0.14414,0.0275 0.0651,0.0223 0.12797,0.0174 0.0315,-0.009 0.0298,-0.002 0.0495,-0.0321 0.0293,-0.022 0.0222,-0.036 0.0376,-0.0787 0.0361,-0.11161 0.0321,-0.13308 0.0412,-0.13217 0.0532,-0.12664 0.0606,-0.11876 0.0729,-0.11528 0.0852,-0.11544 0.099,-0.11126 0.11883,-0.0975 0.0292,-0.0285 0.0239,-0.0293 0.0526,-0.0597 0.0375,-0.0702 0.0324,-0.0783 0.0254,-0.0765 0.10014,-0.41766 0.0249,-0.0777 0.0321,-0.0766 0.0394,-0.0651 0.0221,-0.0287 0.083,-0.0814 0.0734,-0.0335 0.14025,-0.073 0.0541,-0.0312 0.0476,-0.0376 0.0341,-0.0373 0.031,-0.0286 0.0311,-0.0714 0.005,-0.0274 -0.005,-0.0621 -0.0289,-0.0526 -0.0271,-0.0249 -0.0538,-0.0357 -0.0334,-0.0192 -0.11826,-0.0319 h -0.0813 l -0.0822,0.006 -0.0427,0.009 -0.0425,0.017 -0.0734,0.0464 -0.0342,0.0313 -0.0568,0.0721 -0.0715,0.14222 -0.0594,0.0731 -0.0285,0.0232 -0.0243,0.0144 -0.0558,0.0189 -0.032,0.002 -0.0236,-0.005 -0.0546,-0.0231 -0.0402,-0.0444 -0.021,-0.0193 -0.0154,-0.0331 -0.0147,-0.0251 -0.0154,-0.0339 -0.0174,-0.0732 -0.003,-0.0413 0.006,-0.0758 0.0188,-0.0833 0.0162,-0.0408 0.0501,-0.0809 0.0293,-0.0365 0.0405,-0.037 0.18659,-0.13056 0.0288,-0.0285 0.0231,-0.03 0.0161,-0.0416 -10e-4,-0.014 -0.008,-0.0127 -10e-4,-0.0148 -0.008,-0.007 -0.007,-0.012 -0.0202,-0.0186 -0.0269,-0.0176 -0.0401,-0.0186 -0.12714,-0.0304 -0.10317,-0.0117 -0.10864,-0.005 -0.10646,0.008 -0.097,0.014 -0.17724,-0.0482 -0.15,-0.0637 -0.15323,-0.0759 -0.13979,-0.0907 -0.1338,-0.10485 -0.0634,-0.0571 -0.0601,-0.0634 -0.0561,-0.0645 -0.0573,-0.0701 -0.0491,-0.0707 -0.0653,-0.111 -0.0159,-0.0395 -0.009,-0.0408 -0.005,-0.0673 0.006,-0.0686 0.009,-0.0353 0.0511,-0.0922 0.0746,-0.0892 0.0608,-0.0454 0.0714,-0.0442 0.14642,-0.0658 0.0798,-0.0284 0.0801,-0.0187 0.0756,-0.006 0.14503,0.002 0.0391,0.0119 0.0376,-0.003 0.0337,0.005 0.10544,-0.0304 0.059,-0.0308 0.0602,-0.0381 0.0602,-0.053 0.0525,-0.0512 0.31836,-0.36649 0.0611,-0.0515 0.0594,-0.0393 0.0659,-0.0378 0.0806,-0.0272 0.0745,-0.0195 0.0309,-0.002 0.0839,0.0136 0.0525,0.0241 0.0461,0.029 0.0879,0.0746 0.082,0.0754 0.0464,0.0371 0.053,0.0305 0.0595,0.0228 0.0632,0.009 0.0388,0.003 0.038,-0.003 0.0872,-0.0193 0.0823,-0.006 0.0881,0.006 0.0973,0.0271 0.0919,0.04 0.19173,0.108 0.34063,0.23301 0.0677,0.0419 0.0855,0.0344 0.0484,-0.004 0.0298,-0.0297 -10e-4,-0.014 0.009,-0.0277 0.004,-0.035 -0.003,-0.0344 0.0112,-0.0331 0.0133,-0.0635 0.0655,-0.12759 0.0398,-0.0647 0.0453,-0.0656 0.0984,-0.12291 0.13657,-0.18028 0.0317,-0.0633 0.0283,-0.0631 0.0192,-0.0644 0.005,-0.0274 0.003,-0.0349 -0.005,-0.0657 -0.008,-0.0352 0.007,-0.0618 0.01,-0.035 0.0117,-0.0275 0.0172,-0.0283 0.0447,-0.0603 0.0476,-0.0509 0.30165,-0.26122 0.0691,-0.0868 0.0316,-0.0645 0.0215,-0.0633 0.002,-0.04 -0.006,-0.0749 -0.008,-0.0417 -0.0163,-0.0455 -0.0474,-0.11963 -0.0164,-0.0467 -0.003,-0.0409 0.003,-0.0273 -0.001,-0.0148 0.0118,-0.0122 0.0117,-0.008 0.005,-0.008 0.0387,-0.003 0.0581,0.0104 0.11161,0.0518 0.0806,0.0485 0.33924,0.22506 0.0215,0.0108 0.0104,-8.2e-4 -8.1e-4,-0.005 -0.0214,-0.039 -0.0764,-0.0896 -0.0352,-0.0517 -8.2e-4,-0.007 0.0126,0.0123 0.027,0.0188 0.35399,0.32547 0.25193,0.20566 0.24797,0.16527 0.11015,0.0523 0.0519,0.0169 0.0445,0.009 0.0392,0.003 0.017,-0.008 0.0194,-0.002 0.0426,-0.0291 0.0319,-0.0661 0.0417,-0.05 0.31045,-0.45171 0.10554,-0.17989 0.0432,-0.0928 0.045,-0.0845 0.055,-0.17516 0.0129,-0.0828 0.005,-0.0818 -0.003,-0.0349 0.005,-0.0274 0.0105,-0.0286 0.0344,-0.0434 0.0477,-0.0319 0.0312,-0.008 0.0635,-0.0114 0.0753,8.2e-4 0.15827,0.007 0.21238,0.0242 0.0576,0.003 0.0424,-0.003 0.0121,-0.009 0.007,-8.2e-4 0.006,-0.008 v -0.005 l 0.005,-0.008 -0.002,-0.0216 -0.006,-0.007 -0.009,-0.0243 -0.007,-0.008 -9.8e-4,-0.0124 0.0138,-0.001 0.0433,0.0176 0.19935,0.10497 0.10606,0.0526 0.0512,0.017 0.0525,0.0104 0.0562,-0.004 0.0115,-0.0154 0.007,-8.1e-4 0.005,-0.007 -10e-4,-0.0136 0.006,-0.0129 0.003,-0.0281 -0.002,-0.028 0.004,-0.0265 0.011,-0.0218 0.0289,-0.0369 0.0673,-0.025 0.0561,-0.0108 0.0575,0.002 0.14011,0.01 0.19266,0.0257 0.0938,-0.007 0.0113,-0.008 0.007,-8.1e-4 0.005,-0.007 0.007,-8.2e-4 0.005,-0.008 -8.1e-4,-0.007 0.006,-0.006 -0.003,-0.0396 -0.0313,-0.0737 -0.0375,-0.0805 -0.0935,-0.14908 -0.11934,-0.13983 -0.13161,-0.13846 -0.27593,-0.27189 -0.12971,-0.13337 -0.13925,-0.17334 -0.0468,-0.0987 -0.0176,-0.047 -0.059,-0.20497 -0.0164,-0.0467 -0.0457,-0.0855 -0.0411,-0.0504 -0.0204,-0.0121 -0.021,-0.0193 -0.0193,-0.0122 -0.0191,-0.005 -0.0268,-0.0116 -0.0511,-0.0158 -1.22615,-0.19797 -0.0761,-0.015 -0.15092,-0.0753 -0.0859,-0.0489 -0.16958,-0.13551 -0.17685,-0.15629 -0.66409,-0.65033 -0.0944,-0.0608 -0.11169,-0.053 -0.12246,-0.0376 -0.13576,-0.0305 -0.55702,-0.0864 -0.12957,-0.0234 -0.10944,-0.0386 -0.0532,-0.0241 -0.0858,-0.0481 -0.0341,-0.038 -0.022,-0.0322 -0.0231,-0.0462 -0.0152,-0.0456 -0.004,-0.0557 0.001,-0.0549 0.007,-0.0622 0.0209,-0.0766 0.031,-0.077 0.23852,-0.6593 0.0377,-0.0771 0.0786,-0.14153 0.0972,-0.12444 0.058,-0.0517 0.0607,-0.047 0.17133,-0.073 0.11534,-0.0707 0.022,-0.0291 0.0237,-0.0228 0.0172,-0.0283 0.0166,-0.0215 0.021,-0.056 0.0118,-0.0836 -0.0231,-0.29036 0.0129,-0.0965 0.0193,-0.0644 0.0172,-0.0283 0.0231,-0.0296 0.0835,-0.1375 0.01,-0.0342 0.004,-0.035 -0.008,-0.0953 -0.0159,-0.0258 -0.008,-0.034 -0.11496,-0.17403 -0.0857,-0.12188 -0.0462,-0.10121 -0.007,-0.0333 -0.009,-0.0327 -0.006,-0.0749 0.0107,-0.0831 0.0328,-0.0771 0.0283,-0.0498 0.0453,-0.0664 0.052,-0.0576 0.0529,-0.046 0.0603,-0.0369 0.11644,-0.0522 0.12518,-0.0222 0.13134,-0.0102 0.13187,-0.004 0.19577,-0.0152 0.0675,-0.0174 0.10426,0.0253 0.0309,-0.0161 0.0293,-0.022 0.0651,-0.0389 0.10377,0.0193 0.0811,-0.006 0.0365,-0.0165 0.037,-0.0101 0.0296,-0.0233 0.0306,-0.0149 0.0463,-0.0584 0.0392,-0.0575 0.0387,-0.0736 0.0322,-0.0759 0.062,-0.16198 0.0339,-0.0776 0.0383,-0.0699 0.0741,-0.0948 0.0647,-0.0534 0.0368,-0.0174 0.0858,-0.0329 0.0635,-0.0114 0.0672,-0.0262 0.0664,-0.0313 0.13259,-0.0796 0.0664,-0.0459 0.059,-0.059 0.10528,-0.117 0.0774,-0.14223 0.0189,-0.0688 0.0192,-0.15948 -0.01,-0.0408 -0.004,-0.0477 -0.0147,-0.0392 -0.0105,-0.0471 -0.0259,-0.0661 -0.0152,-0.0597 -0.0113,-0.0672 -0.0248,-0.31201 -0.0177,-0.12757 -0.035,-0.13428 -0.0624,-0.14467 -0.0946,-0.14858 -0.0893,-0.0958 -0.0756,-0.0695 -0.0385,-0.0232 -0.0354,-0.0263 -0.0378,-0.009 -0.0652,-0.0236 -0.0322,-0.005 -0.0622,0.005 -0.0623,0.0121 -0.0617,0.0197 -0.11669,0.049 -0.0558,0.0189 -0.12506,0.01 -0.0339,-0.0119 -0.0314,-0.004 -0.0654,-0.0356 -0.0342,-0.0247 -0.082,-0.0754 -0.0478,-0.0507 -0.0842,-0.10225 -0.0864,-0.11579 -0.0831,-0.10274 -0.0479,-0.0507 -0.0557,-0.0501 -0.0524,-0.037 -0.0661,-0.0356 -0.0659,-0.0283 -0.0778,-0.0226 -0.0887,-0.004 -0.0882,-0.008 -0.13981,0.003 -0.22998,-0.024 -0.15414,-0.0404 -0.0724,-0.0298 -0.0661,-0.0356 -0.0535,-0.0369 -0.0263,-0.0241 -0.0154,-0.0335 -0.0215,-0.0257 -0.0164,-0.0322 -0.017,-0.068 -0.003,-0.0401 0.002,-0.0424 0.0202,-0.0898 0.0415,-0.10478 0.0277,-0.0565 0.0381,-0.0574 0.047,-0.0585 0.0532,-0.0513 0.0529,-0.046 0.0604,-0.0369 0.0601,-0.0405 0.0667,-0.0326 0.067,-0.0238 0.0673,-0.0202 0.14336,-0.0244 0.0776,0.001 0.0711,0.008 0.07,0.0143 0.1357,0.0438 0.0324,0.0124 0.0254,0.004 0.0506,-0.004 0.0252,-0.008 0.0368,-0.0178 0.0287,-0.03 0.0215,-0.036 0.0116,-0.0279 0.0133,-0.0498 0.009,-0.0611 0.002,-0.21899 -0.0187,-0.36606 -0.0342,-0.60302 -0.007,-0.23886 0.0103,-0.11485 0.0345,-0.26784 0.07,-0.24441 0.031,-0.0858 0.0377,-0.0771 0.0903,-0.13598 0.0602,-0.053 0.0586,-0.0453 0.031,-0.0149 0.0744,-0.0207 0.0728,-0.006 0.0406,0.0118 0.0449,0.009 0.14079,0.0656 0.18026,0.10969 0.14879,0.0626 0.0655,0.0138 0.058,0.009 0.0938,-0.007 0.0369,-0.0166 0.0361,-0.0217 0.0303,-0.0233 0.0441,-0.0715 0.0221,-0.0424 0.03,-0.0983 0.0883,-0.32081 0.0427,-0.0984 0.0546,-0.10016 0.03,-0.037 0.0397,-0.0426 0.042,-0.0319 0.0497,-0.0248 0.0547,-0.0228 0.0617,-0.0197 0.0199,-0.009 0.31046,0.33895 0.077,0.10201 0.0786,0.11639 0.0369,0.064 0.0615,0.13263 0.0255,0.0798 0.0312,0.0721 0.0141,0.0267 0.0425,0.0583 0.0276,0.0176 0.0473,0.0435 0.0603,0.0372 0.19463,0.0739 0.30999,0.0786 0.0848,0.0256 0.0789,0.0358 0.0793,0.041 0.0803,0.0534 0.1124,0.0618 0.0584,0.0144 0.11427,0.0193 0.01,-0.002 -0.12026,-0.0194 -0.0577,-0.0145 -0.0598,-0.0312 -0.0518,-0.0302 -0.0803,-0.0534 -0.0793,-0.041 -0.0789,-0.0358 -0.0849,-0.026 -0.31034,-0.0786 -0.19464,-0.0739 -0.061,-0.0372 -0.0465,-0.0435 -0.0276,-0.0176 -0.0424,-0.0576 -0.0149,-0.0271 -0.0158,-0.0387 -0.0154,-0.0335 -0.0246,-0.0787 -0.0615,-0.13343 -0.0373,-0.0644 -0.0782,-0.11643 -0.0781,-0.10111 -0.36102,-0.39504 -0.0782,-0.11642 -0.0598,-0.12511 -0.0248,-0.0674 -0.0368,-0.13254 -0.0175,-0.074 -0.0185,-0.14727 -0.005,-0.14951 0.007,-0.14399 0.0282,-0.28105 0.006,-0.16371 v -0.0818 l -0.0134,-0.16861 -0.0192,-0.0815 -0.0489,-0.13845 -0.0221,-0.0329 -0.0136,-0.0251 -0.0226,-0.0256 -0.0456,-0.0363 -0.0592,-0.0236 -0.0594,-0.008 -0.0748,0.006 -0.0747,0.0259 -0.0234,0.0163 -0.0471,0.0435 -0.0281,0.0429 -0.0104,0.029 -0.0197,0.0821 v 0.0693 l -0.009,0.12966 -0.0134,0.13726 -0.0312,0.0979 -0.0337,0.057 -0.0232,0.0288 -0.0292,0.0236 -0.03,0.0281 -0.0365,0.0165 -0.0348,0.0237 -0.0995,0.0343 -0.10981,0.0215 -0.0435,0.003 -0.0904,-0.007 -0.0327,-0.005 -0.0378,-0.01 -0.0601,-0.03 -0.0264,-0.0254 -0.0551,-0.0429 -0.0408,-0.0512 -0.0425,-0.0588 -0.11659,-0.18032 -0.0472,-0.0519 -0.0764,-0.0747 -0.0333,-0.0184 -0.027,-0.0189 -0.0392,-0.0171 -0.0331,-0.0107 -0.0433,-0.003 -0.0984,-0.027 -0.045,-0.0102 -0.0741,-0.0422 -0.0596,-0.0478 -0.0289,-0.0336 -0.0199,-0.0331 -0.022,-0.0317 -0.0312,-0.0717 -0.0258,-0.079 -0.0122,-0.0825 -0.007,-0.0877 -10e-4,-0.0889 0.005,-0.18253 0.0305,-0.33684 0.009,-0.27193 0.009,-0.1172 0.0223,-0.18509 0.0418,-0.13301 0.0248,-0.07 0.071,-0.14818 0.10084,-0.17749 0.0956,-0.14485 0.19674,-0.21962 0.10029,-0.0948 0.0884,-0.0887 0.0819,-0.0954 0.0777,-0.10115 0.0348,-0.0523 0.25261,-0.48671 0.0647,-0.14244 0.0261,-0.0766 0.0195,-0.0696 0.0135,-0.0752 0.006,-0.077 v -0.0745 l -0.006,-0.0737 -0.012,-0.0809 -0.0619,-0.13783 -0.0727,-0.11806 -0.0967,-0.10854 -0.10922,-0.0922 -0.0665,-0.0355 -0.0599,-0.0425 -0.14468,-0.058 -0.0782,-0.0274 -0.0778,-0.0222 -0.16,-0.0283 -0.12642,-0.0102 -0.0338,-0.0103 -0.0265,-0.0125 -0.025,-0.0178 -0.0365,-0.0443 -0.0163,-0.0543 -0.01,-0.0254 -0.009,-0.0352 -0.0117,-0.22194 9.8e-4,-0.0819 -0.0135,-0.0747 -0.0191,-0.0799 -0.0299,-0.0658 -0.0428,-0.0712 -0.0661,-0.0493 -0.0866,-0.0477 -0.1116,-0.0329 -0.10263,-0.0143 -0.0739,-0.006 -0.072,0.0124 -0.0678,0.019 -0.12032,0.0646 -0.0481,0.0448 -0.0531,0.0428 -0.18544,0.20624 -0.1062,0.0961 -0.12711,0.078 -0.0916,0.0345 -0.0873,0.0278 -0.0793,0.005 -0.0906,-0.0131 -0.0524,-0.0233 -0.0743,-0.0486 -0.1734,-0.18356 -0.0534,-0.0502 -0.053,-0.0442 -0.0619,-0.0431 -0.072,-0.0343 -0.0844,-0.0208 -0.18753,-0.06 -0.039,-0.024 -0.0283,-0.026 -0.0211,-0.0245 -0.0129,-0.0264 -0.007,-0.007 -0.001,-0.0136 0.006,-0.0142 -0.001,-0.0136 0.0199,-0.0559 0.0166,-0.0359 0.11119,-0.1227 0.12102,-0.14038 0.0563,-0.0785 0.0385,-0.0763 0.0149,-0.0435 0.0101,-0.0475 -0.007,-0.0885 -0.0334,-0.0856 -0.034,-0.051 -0.0767,-0.0831 -0.0666,-0.0504 -0.0607,-0.0287 -0.0319,-0.01 -0.0315,-0.005 -0.032,0.002 -0.0619,-0.002 -0.0598,0.0115 -0.11768,0.0366 -0.0616,0.012 -0.0998,0.006 -0.0633,-0.009 -0.0319,-0.01 -0.0669,-0.0355 -0.0682,-0.0568 -0.0682,-0.0761 -0.0715,-0.10364 -0.06,-0.11863 -0.056,-0.13871 -0.009,-0.0376 -0.006,-0.0773 0.007,-0.0674 0.0192,-0.0559 0.0273,-0.0569 0.035,-0.0499 0.0804,-0.0953 0.0401,-0.0567 0.0671,-0.12128 0.0288,-0.11869 0.002,-0.0401 -0.002,-0.0962 -0.0136,-0.10049 -0.0189,-0.0868 -0.0317,-0.0789 -0.0375,-0.0716 -0.0435,-0.0667 -0.049,-0.0558 -0.0533,-0.0434 -0.1196,-0.0721 -0.0668,-0.0295 -0.19607,-0.0454 -0.12577,-0.004 -0.1191,0.009 -0.0631,0.0122 -0.13066,0.0384 -0.26508,0.0666 -0.13179,0.024 -0.13247,-0.003 -0.0693,-0.009 -0.0651,-0.0227 -0.0581,-0.0289 -0.0675,-0.0431 -0.3413,-0.11449 -0.2858,0.13104 v -0.002 l -0.004,0.002 -0.044,-0.46725 -0.0544,-0.0574 -0.13391,-0.10605 -0.075,-0.0486 -0.16416,-0.0815 -0.0984,-0.0361 -0.0775,-0.0181 -0.0794,-0.0143 -0.077,-0.008 -0.0752,0.006 -0.0364,0.009 -0.0905,0.0481 -0.0248,0.0229 -0.0217,0.0287 -0.0237,0.0365 -0.0317,0.077 -0.009,0.0478 -0.0185,0.0832 -0.0504,0.15262 -0.0331,0.0727 -0.0387,0.0639 -0.091,0.1171 -0.0997,0.10206 -0.0547,0.0369 -0.0525,0.046 -0.1774,0.0956 -0.19035,0.0692 -0.0667,0.0322 -0.0601,0.0405 -0.067,0.0374 -0.15797,0.15615 -0.0909,0.12876 -0.0784,0.13062 -0.0577,0.14593 -0.0215,0.0686 -0.0175,0.0767 -0.0311,0.17328 -0.0311,0.0846 -0.0232,0.0288 -0.0161,0.0286 -0.0238,0.0301 -0.0227,0.0203 -0.0321,0.0162 -0.0244,0.008 -0.0331,0.0168 -0.0629,0.005 -0.0962,-0.0146 -0.0656,-0.0199 -0.0662,-0.0368 -0.0666,-0.042 -0.12294,-0.11415 -0.0562,-0.071 -0.0877,-0.14711 -0.016,-0.0411 -0.0546,-0.0501 -0.0269,-0.0181 -0.0316,-0.005 -0.0332,-0.0123 -0.0722,0.006 -0.0805,0.0139 -0.33836,0.11537 -0.0801,0.0199 -0.0755,0.006 -0.0755,-0.008 -0.0524,-0.0366 -0.0287,-0.026 -0.015,-0.0335 -0.0217,-0.037 -0.022,-0.10709 -0.005,-0.0689 0.008,-0.0751 0.0199,-0.0704 0.0315,-0.0706 0.039,-0.0703 0.0973,-0.13733 0.1027,-0.13049 0.0516,-0.0713 0.0448,-0.0724 0.0447,-0.078 0.0263,-0.0702 0.0177,-0.0832 0.006,-0.0823 -0.004,-0.0481 -0.0251,-0.0847 -0.0165,-0.0471 -0.0621,-0.13138 -0.0418,-0.0588 -0.0961,-0.10657 -0.0546,-0.0514 -0.0613,-0.0359 -0.0578,-0.0302 -0.0994,-0.0348 -0.0252,-0.002 -0.0953,0.007 -0.0315,0.008 -0.0984,0.0488 -0.0363,0.0238 -0.0637,0.0658 -0.0856,0.10942 -0.0482,0.0437 -0.0243,0.0152 -0.0614,0.0197 -0.064,0.005 -0.0624,-0.002 -0.21148,-0.0308 -0.0724,-0.0153 -0.0755,-0.007 -0.0695,-0.003 -0.13761,0.0317 -0.0304,0.0233 -0.0287,0.0159 -0.059,0.059 -0.0222,0.0364 -0.0689,0.0992 -0.0476,0.0508 -0.0529,0.046 -0.0532,0.0368 -0.0608,0.0265 -0.0705,0.0184 -0.061,0.0193 -0.0756,0.006 -0.13968,-0.004 -0.13977,-0.029 -0.0673,-0.0222 -0.13016,-0.0592 -0.0593,-0.0349 -0.0694,-0.0575 -0.0261,-0.0314 -0.0287,-0.0252 -0.0231,-0.0318 -0.0443,-0.0998 -0.003,-0.0344 -0.009,-0.0339 0.004,-0.0326 -0.003,-0.0356 0.0135,-0.0695 0.0206,-0.0612 0.0643,-0.14242 0.0457,-0.0652 0.1045,-0.11734 0.0587,-0.0578 0.0603,-0.0534 0.0879,-0.0673 0.0475,-0.0585 0.0325,-0.0581 0.01,-0.0342 0.0135,-0.0756 0.007,-0.0759 -0.0408,-0.51303 -8.1e-4,-0.0818 0.0121,-0.0828 0.0194,-0.0761 0.0154,-0.0367 0.0168,-0.034 0.0458,-0.0592 0.0521,-0.0512 0.11595,-0.0771 0.20132,-0.0773 0.1439,-0.0374 0.1413,-0.0457 0.0674,-0.0326 0.068,-0.025 0.0591,-0.0392 0.0549,-0.0438 0.0523,-0.0536 0.0381,-0.0574 0.0233,-0.0417 0.0226,-0.036 0.0183,-0.0703 0.004,-0.0337 -0.004,-0.0553 -0.009,-0.0255 -0.0275,-0.0446 -0.0199,-0.0194 -0.0733,-0.0551 -0.0612,-0.0299 -0.1368,-0.0437 -0.14719,-0.0284 -0.26923,-0.0419 -0.091,-0.0269 -0.0676,-0.0432 -0.0207,-0.0246 -0.0298,-0.0599 -0.009,-0.10934 0.0135,-0.0756 0.0373,-0.16611 0.0172,-0.0892 0.0129,-0.0828 -0.009,-0.11575 -0.009,-0.0328 -0.0161,-0.0322 -0.027,-0.0327 -0.061,-0.0557 -0.0908,-0.0404 -0.0586,-0.016 -0.0707,-0.008 -0.15663,-0.0284 -0.1069,-0.0255 -0.13511,-0.0366 -0.19926,-0.0882 -0.0591,-0.0369 -0.12184,-0.0867 -0.053,-0.0491 -0.0558,-0.0565 -0.0981,-0.12976 -0.0759,-0.144 -0.0242,-0.0735 -0.0371,-0.14581 -0.006,-0.0753 -0.018,-0.14086 -0.005,-0.1495 -0.0175,-0.13484 -0.006,-0.0749 -0.0371,-0.13211 -0.0276,-0.0599 -0.0461,-0.0855 -0.05,-0.0779 -0.0502,-0.0708 -0.0616,-0.0633 -0.13622,-0.11158 -0.15336,-0.0965 -0.64003,-0.33867 -0.0868,-0.0605 -0.13011,-0.11964 -0.0431,-0.0661 -0.0366,-0.0644 -0.0303,-0.065 -0.0236,-0.061 -0.0544,-0.19887 -0.0481,-0.13368 -0.0752,-0.13052 -0.0556,-0.0686 -0.0692,-0.0651 -0.0659,-0.0558 -0.069,-0.0478 -0.14415,-0.0843 -0.28415,-0.13505 -0.13152,-0.0716 -0.0593,-0.0486 -0.0553,-0.0501 -0.0497,-0.0594 -0.0429,-0.0636 -0.0647,-0.17309 -0.0395,-0.15326 -0.0244,-0.16093 -0.0134,-0.16861 0.0197,-0.2417 0.0171,-0.0767 0.0267,-0.069 0.0333,-0.0707 0.0392,-0.0575 0.053,-0.0585 0.0597,-0.0449 0.13909,-0.0733 0.0657,-0.0454 0.11719,-0.11793 0.20085,-0.26184 0.0525,-0.0645 0.11338,-0.0906 0.0608,-0.0313 0.067,-0.0198 0.0328,-0.003 0.0768,0.009 0.0832,0.0197 0.0457,0.0235 0.0463,0.0173 0.0773,0.0214 0.0374,0.004 0.0688,-0.005 0.0618,-0.0185 0.0626,-0.0323 0.0524,-0.0375 0.21335,-0.18021 0.0606,-0.0382 0.0548,-0.0317 0.0611,-0.0185 0.0696,-0.005 0.0707,0.008 0.0391,0.0107 0.038,0.0168 0.0397,0.01 0.032,0.012 0.07,-0.005 0.0673,-0.0198 0.0663,-0.0378 0.11933,-0.0911 0.11318,-0.0979 0.0531,-0.0388 0.0493,-0.0296 0.0503,-0.004 0.0513,0.009 0.027,0.0189 0.0271,0.0249 0.0507,0.0718 0.0462,0.1052 0.0651,0.192 0.0231,0.0461 0.0226,0.0394 0.0483,0.0571 0.0597,0.03 0.0323,0.01 0.064,0.01 0.032,-0.002 0.0673,-0.0198 0.031,-0.0149 0.0672,-0.0399 0.0648,-0.0522 0.0586,-0.0594 0.0509,-0.0664 0.0447,-0.078 0.0317,-0.077 0.0284,-0.12311 -0.003,-0.0422 0.004,-0.039 -0.01,-0.0412 -0.004,-0.0549 -0.008,-0.0409 0.005,-0.0899 0.003,-0.0338 0.01,-0.0346 0.0486,-0.10009 0.0708,-0.0797 0.0537,-0.0453 0.19942,-0.11062 0.14629,-0.0722 0.13263,-0.07 0.0671,-0.0411 0.0538,-0.0441 0.0342,-0.0309 0.0614,-0.0393 0.0315,-0.009 0.0253,-0.002 0.0446,0.0102 0.0404,0.0315 0.0427,0.0716 0.0495,0.13235 0.0426,0.15385 0.0513,0.15962 0.0304,0.0718 0.0381,0.0651 0.0204,0.0258 0.0275,0.0253 0.0203,0.0246 0.027,0.0188 0.0793,0.041 0.12738,0.0852 0.0958,0.0881 0.042,0.0523 0.057,0.0911 0.0462,0.10521 0.0109,0.0523 0.018,0.0607 0.0155,0.11525 0.0108,0.13537 0.0175,0.13484 0.025,0.15079 0.035,0.12905 0.043,0.14013 0.048,0.1377 0.18345,0.39451 0.0213,0.0322 0.0564,0.0637 0.0608,0.0436 0.0328,0.0172 0.0717,0.0214 0.0772,0.0154 0.0833,0.007 0.32817,0.002 0.0826,0.007 0.0696,0.009 0.0706,0.0215 0.089,0.0548 0.0488,0.0584 0.0149,0.0323 0.0527,0.0838 0.054,0.0711 0.0622,0.0572 0.0679,0.0483 0.0727,0.0338 0.0655,0.0372 0.13663,0.051 0.0663,0.0283 0.0577,0.029 0.0754,0.0623 0.0461,0.0578 0.0114,0.0205 0.015,0.0326 0.0114,0.0475 0.008,0.0263 0.004,0.0469 -0.006,0.1032 8.1e-4,0.089 0.008,0.0852 0.008,0.0268 0.0459,0.0933 0.0253,0.0319 0.0368,0.0387 0.0798,0.0482 0.0597,0.03 0.13652,0.0437 0.28306,0.0602 0.13734,0.0365 0.0311,0.0101 0.0265,0.0125 0.0276,0.0176 0.046,0.0371 0.0639,0.0781 0.0606,0.13066 0.0494,0.14576 0.0773,0.32201 0.0501,0.1734 0.018,0.0522 0.0307,0.0657 0.0675,0.11814 0.0555,0.0767 0.0279,0.0305 0.0282,0.0248 0.0525,0.0241 0.0447,-0.004 0.0237,-0.008 0.0371,-0.0315 0.0493,-0.0772 0.0344,-0.0716 0.0239,-0.0764 0.0373,-0.16652 0.03,-0.1732 0.0206,-0.14506 0.01,-0.0467 0.0314,-0.0718 0.017,-0.0211 0.0244,-0.0228 0.0232,-0.0143 0.0636,-0.0198 0.061,-0.005 0.0779,0.009 0.20977,0.0429 0.11122,0.0187 0.076,0.009 0.0763,-0.006 0.061,-0.0197 0.0299,-0.0148 0.0311,-0.0234 0.0452,-0.0579 0.0623,-0.16725 0.0236,-0.0373 0.0206,-0.0419 0.0537,-0.0658 0.0636,-0.0666 0.0719,-0.0515 0.0727,-0.0415 0.0793,-0.0336 0.0796,-0.0259 0.11315,-0.009 0.0315,0.005 0.0403,0.003 0.0309,0.0119 0.0805,0.0553 0.0432,0.0576 0.0158,0.0343 0.009,0.0392 0.008,0.0949 -0.001,0.0912 0.001,0.0648 0.004,0.0481 0.0183,0.0792 0.0312,0.0729 0.0209,0.0318 0.0436,0.0587 0.0548,0.0438 0.0535,0.0506 0.1752,0.12137 0.0541,0.0442 0.0546,0.0502 0.0578,0.091 0.015,0.0383 0.0182,0.0731 0.008,0.0949 -0.002,0.13753 -0.013,0.14328 -0.0692,0.41521 -0.027,0.287 0.005,0.0677 -7.4e-4,0.0762 0.026,0.17608 0.0522,0.17084 0.0685,0.16472 0.0381,0.0736 0.10072,0.14087 0.0549,0.0638 0.0559,0.0573 0.061,0.0561 0.0616,0.0488 0.0657,0.0441 0.0672,0.0347 0.14432,0.0629 0.0718,0.0367 0.0672,0.0492 0.0546,0.0502 0.0551,0.0574 0.0427,0.0563 0.0371,0.0664 0.0302,0.0593 0.018,0.0659 0.0113,0.0672 0.005,0.0625 -0.008,0.0687 -0.0143,0.0608 -0.01,0.029 -0.0505,0.0857 -0.0459,0.058 -0.0454,0.0507 -0.0677,0.11447 -0.0221,0.0633 -0.0186,0.0695 -0.0148,0.1301 -8.1e-4,0.0746 0.005,0.0685 0.037,0.22038 0.0736,0.29409 0.0249,0.0734 0.0306,0.0649 0.0297,0.0529 0.0363,0.0508 0.0425,0.0451 0.0936,0.0745 0.0462,0.0299 0.0591,0.0224 0.0529,0.0245 0.11546,0.039 0.28703,0.0857 0.0309,0.0121 0.055,0.0356 0.0954,0.0869 0.0848,0.10987 0.0781,0.11522 0.0921,0.11655 0.0545,0.0494 0.0553,0.0449 0.0659,0.042 0.0712,0.0283 0.0845,0.0216 0.0894,0.0128 0.0698,0.007 0.0701,0.0155 0.0662,0.0222 0.0667,0.0283 0.26998,0.13909 0.20355,0.091 0.0706,0.0215 0.0711,0.008 0.0702,0.002 0.0688,-0.005 0.0674,-0.019 0.25346,-0.0951 0.15828,-0.0534 0.0846,-0.0196 0.0783,-0.0137 0.0685,-0.005 0.0304,0.006 0.0333,-0.003 0.0531,0.0176 0.0307,0.0182 0.0347,0.0319 0.008,0.0264 0.005,0.0605 -0.002,0.0421 -0.009,0.0414 -0.0727,0.21038 -0.0119,0.0952 0.004,0.0477 0.0199,0.0803 0.031,0.0645 0.0203,0.0343 0.0556,0.0489 0.027,0.0188 0.0252,0.0109 0.062,0.0214 0.0621,0.008 0.0307,-0.01 0.0253,-0.002 0.0553,-0.0244 0.0482,-0.0432 0.032,-0.0641 0.019,-0.0772 -0.004,-0.0469 0.003,-0.0494 -0.0109,-0.0515 -0.0548,-0.21374 -0.0111,-0.0547 -0.004,-0.0457 0.007,-0.071 0.0162,-0.0271 0.0133,-0.007 0.0253,-0.002 0.0453,0.0115 0.0268,0.0124 0.13299,0.1041 0.30301,0.29679 0.1293,0.1189 0.048,0.0382 0.0219,0.0124 h 0.004 l 0.006,0.006 0.34989,0.18474 0.19611,0.3841 0.23579,0.0828 0.1057,-0.008 0.0507,0.005 0.0376,0.0108 0.10639,0.0521 0.0323,0.0249 0.0279,0.026 0.0703,0.0836 0.0375,0.0716 0.0613,0.14393 0.11299,0.30432 0.0375,0.0664 0.0418,0.0636 0.043,0.0515 0.0546,0.051 0.0546,0.0369 0.06,0.057 0.26261,0.26447 0.0676,0.0641 0.0687,0.0543 0.074,0.0499 0.065,0.0356 0.0386,0.01 0.0587,0.009 0.0369,-0.003 0.0314,-0.01 0.0669,-0.0399 0.0292,-0.0232 0.0294,-0.0357 0.0288,-0.043 0.0537,-0.10692 0.0261,-0.0766 0.0188,-0.0696 0.008,-0.0676 -0.0103,-0.12936 -0.0114,-0.0684 -0.0356,-0.12699 -0.0923,-0.27046 -0.0372,-0.16153 -0.0129,-0.0868 -0.0102,-0.12816 -0.0188,-0.0666 -0.0302,-0.0597 -0.0687,-0.0825 -0.0546,-0.0506 -0.33597,-0.24506 -0.0615,-0.0573 -0.0564,-0.0637 -0.0708,-0.10329 -0.0159,-0.0395 -0.01,-0.0411 -0.0158,-0.0387 -0.008,-0.0945 0.005,-0.25949 0.0139,-0.13123 0.009,-0.0611 0.0204,-0.0636 0.0417,-0.11204 0.0333,-0.057 0.0399,-0.0494 0.10096,-0.0913 0.0596,-0.0373 0.10983,-0.0504 0.0293,-0.0224 0.0328,-0.0163 0.0756,-0.08 0.0375,-0.065 0.0322,-0.0702 0.0522,-0.15316 0.0112,-0.0899 0.013,-0.0816 0.004,-0.0967 0.005,-0.17649 -0.008,-0.18395 -0.0196,-0.16168 -0.006,-0.0813 8.6e-4,-0.14997 0.006,-0.075 0.029,-0.13847 0.0377,-0.14759 0.1105,-0.27256 0.13599,-0.27694 0.0454,-0.0789 0.0515,-0.0636 0.11678,-0.1324 0.24035,-0.2222 0.11217,-0.11028 0.0527,-0.0585 0.0907,-0.13077 0.0334,-0.0699 0.0233,-0.0836 0.0196,-0.0829 0.0189,-0.14412 0.008,-0.14408 10e-4,-0.14396 -0.0155,-0.43441 -0.003,-0.28506 0.17444,-0.095 0.0844,-0.0549 0.0912,-0.0543 0.23113,-0.018 0.2504,-0.20405 0.0827,0.008 0.0756,-0.006 0.0685,-0.0198 0.0669,-0.0249 0.12153,-0.0776 0.1108,-0.10413 0.31457,-0.33878 0.1151,-0.0831 0.0592,-0.0372 0.0618,-0.0322 0.12063,-0.0513 0.13106,-0.0424 0.12415,-0.0306 0.1302,-0.0251 0.13176,-0.0102 0.1319,-0.004 0.12806,0.005 0.089,-0.007 0.0807,-0.0123 0.12735,-0.0655 0.0585,-0.0457 0.0533,-0.0501 0.091,-0.11709 0.0989,-0.1169 0.0465,-0.0508 0.061,-0.0527 0.0589,-0.0457 0.0658,-0.0386 0.0733,-0.0339 0.0807,-0.0115 0.13731,-0.0252 0.13202,-0.0304 0.12184,-0.0502 0.1215,-0.0639 0.0613,-0.0394 0.0586,-0.0445 0.0529,-0.046 0.10563,-0.11742 0.0459,-0.058 0.12949,-0.20794 0.0707,-0.0663 0.0224,-0.0154 0.0616,-0.031 0.0562,-0.0189 0.0675,-0.0177 0.13734,-0.0107 0.14726,0.001 0.14681,0.01 0.13882,0.003 0.13242,-0.0103 0.13081,-0.0174 0.39646,-0.0111 0.13251,-0.0103 0.0635,-0.0114 0.12373,-0.0358 0.12069,-0.0646 0.0544,-0.0369 0.0596,-0.0465 0.12035,-0.0642 0.0635,-0.0255 0.13523,-0.0371 0.1362,-0.0251 0.26868,-0.0543 0.1368,-0.0316 0.12367,-0.0507 0.24191,-0.14133 0.34689,-0.23854 0.12048,-0.0767 0.12075,-0.0638 0.12871,-0.058 0.35281,-0.16889 0.0426,-0.0243 0.2056,-0.0519 0.0366,-0.0153 0.0431,-0.009 0.13411,0.0234 0.0779,0.01 0.0578,0.0209 0.15519,-0.19584 0.0536,-0.0461 0.17556,-0.0951 0.12261,-0.0498 0.13036,-0.0371 0.13004,-0.0319 0.13097,-0.0295 0.26931,-0.0419 0.0802,-0.0187 0.0749,-0.028 0.0723,-0.0326 0.073,-0.0379 0.13124,-0.092 0.0647,-0.0534 0.0645,-0.0594 0.11845,-0.12567 0.10816,-0.13737 0.0969,-0.13729 0.0835,-0.1415 0.0564,-0.0862 0.0585,-0.0602 0.0648,-0.0522 0.063,-0.0323 0.0668,-0.0262 0.0675,-0.0177 0.13124,-0.0166 0.13251,-0.0103 0.0623,-0.0121 0.11562,-0.0437 0.055,-0.0377 0.0482,-0.0444 0.0231,-0.0304 0.0216,-0.0339 0.16549,-0.30625 0.22975,-0.45389 0.0903,-0.14968 0.0892,-0.13548 0.20719,-0.26234 0.0892,-0.1359 0.0835,-0.15036 0.0655,-0.14613 0.0498,-0.15499 0.0454,-0.15344 0.0253,-0.15793 0.013,-0.15695 0.0118,-0.0964 0.0186,-0.0905 0.0237,-0.0828 0.0315,-0.079 0.0388,-0.0772 0.0453,-0.0656 0.10223,-0.13651 0.21851,-0.2612 0.0989,-0.13141 0.0825,-0.14907 0.13771,-0.0107 0.17551,-0.26511 0.0761,8.1e-4 0.0763,-0.006 0.0684,-0.0118 0.12816,-0.0507 0.0606,-0.0333 0.11492,-0.0758 0.12093,-0.0711 0.0602,-0.0393 0.13418,-0.0503 0.0744,-0.0203 0.0811,-0.0115 0.0834,-0.001 0.30442,0.0183 0.11985,-0.009 0.0612,-0.012 0.0562,-0.0181 0.0616,-0.031 0.054,-0.0316 0.0533,-0.0461 0.0526,-0.0585 0.0455,-0.0632 0.0497,-0.0857 0.0592,-0.12227 0.0349,-0.0507 0.0246,-0.0208 0.0225,-0.0239 0.0251,-0.0144 0.11622,-0.0361 0.13325,-0.0104 0.0693,8.2e-4 0.29861,0.0251 0.0754,0.001 0.0755,-0.006 0.13248,-0.0248 0.2037,-0.37652 0.33825,-0.35191 0.14647,-0.0936 0.0706,-0.0542 0.0719,-0.0519 0.158,-0.15576 0.0502,-0.004 0.0811,-0.0212 0.0367,-0.0141 0.0352,-0.0237 0.0895,-0.0751 0.0579,-0.0674 0.13463,-0.21398 0.0962,-0.13644 0.0526,-0.0585 0.0596,-0.0465 0.0298,-0.016 0.0694,-0.0179 0.0443,-0.003 0.0825,0.006 0.0489,0.0124 0.0524,0.0229 0.0855,0.0248 0.0465,0.0109 0.0688,-0.005 0.0312,-0.008 0.0606,-0.0245 0.054,-0.0465 0.0412,-0.0512 0.0319,-0.0645 0.0267,-0.069 0.10766,-0.30819 0.0327,-0.0779 0.0319,-0.0645 0.0228,-0.0288 0.0238,-0.0208 0.0231,-0.03 0.0242,-0.0156 0.32441,-0.13524 0.064,-0.005 0.15816,-0.15375 0.0761,0.001 0.0685,-0.005 0.13809,-0.0389 0.0594,-0.0256 0.0609,-0.0297 0.12083,-0.0723 0.18893,-0.0965 0.13455,-0.0504 0.0679,-0.0125 0.0767,-0.006 0.48832,0.009 0.13772,-0.0107 0.13635,-0.0231 0.0617,-0.0197 0.0709,-0.018 0.0667,-0.0273 0.12057,-0.0614 0.0602,-0.0393 0.16378,-0.0127 0.0153,-0.21274 0.23491,-0.13997 0.12784,-0.0595 0.12379,-0.0491 0.2584,-0.0894 0.2595,-0.0661 0.27489,-0.0423 0.0939,-0.0202 0.22395,-0.12703 1.73769,-0.82308 0.13735,-0.0107 0.0618,-0.0181 0.17412,-0.0701 0.0553,-0.0605 c 0.0399,-0.0382 0.0864,-0.0712 0.14654,-0.10175 l 0.10119,-0.0442 0.0812,-0.0281 v 0 l 0.27097,-0.079 c 0.19974,-0.0558 0.45321,-0.11233 0.62688,-0.0489 l 0.0796,0.0423 0.0336,0.0296 c 0.0209,0.0217 0.0386,0.0476 0.0526,0.0782 0.021,0.046 0.0338,0.10298 0.0358,0.17211 l 0.48524,-0.0116 v 0 l 0.48059,-0.0168 c 0.15918,-0.005 0.31733,-0.009 0.47371,-0.01 0.15637,-7.3e-4 0.31089,0.002 0.46363,0.009 0.26242,0.0131 0.50022,0.0992 0.73239,0.2098 l 0.17329,0.0867 v 0 l 0.17307,0.0914 c 0.11577,0.0615 0.23288,0.12322 0.35317,0.17885 0.25522,0.11843 0.49433,0.21567 0.7293,0.32166 0.11748,0.053 0.23373,0.10817 0.35053,0.16938 l 0.17585,0.0966 v 0 l 0.17753,0.10841 c 0.0623,0.0402 0.1263,0.076 0.19074,0.10969 0.12887,0.0673 0.25854,0.12724 0.37561,0.20208 0.0585,0.0374 0.11419,0.0786 0.16472,0.12622 l 0.10005,0.10424 v 0 l 0.0394,0.0489 v 0 l 0.0616,0.0938 0.0237,0.0459 0.0372,0.093 0.0288,0.0975 v 0 l 0.0697,0.26882 c 0.009,0.0296 0.0182,0.0605 0.0289,0.0929 -0.0405,0.0125 -0.082,0.0203 -0.12431,0.0238 -0.12701,0.0105 -0.26162,-0.0173 -0.39965,-0.0713 -0.55214,-0.21584 -1.15961,-0.84812 -1.5623,-1.09907 l -0.20251,-0.11642 v 0 c -0.28375,-0.1532 -0.71756,-0.35434 -1.12796,-0.46513 -0.0586,-0.0158 -0.11692,-0.0299 -0.17409,-0.0417 -0.22866,-0.0469 -0.44168,-0.0577 -0.60649,-0.007 -0.0412,0.0127 -0.0793,0.0295 -0.11395,0.0504 -0.0347,0.0209 -0.0657,0.0459 -0.0928,0.0757 -0.009,0.01 -0.0173,0.023 -0.0249,0.0394 -0.0307,0.0657 -0.0525,0.18178 -0.0663,0.32082 l -0.009,0.10815 -0.006,0.11394 -0.003,0.23559 v 0 l 0.002,0.11646 c 0.005,0.15269 0.0167,0.29329 0.0348,0.39423 0.009,0.0505 0.0198,0.0909 0.0318,0.11801 0.0289,0.0661 0.0616,0.11921 0.0979,0.16163 0.0362,0.0424 0.0757,0.0743 0.1176,0.0989 0.1674,0.0981 0.37271,0.0764 0.56014,0.12084 0.0937,0.0222 0.18312,0.0612 0.26092,0.13968 0.032,0.0324 0.0582,0.0627 0.0795,0.0913 0.0285,0.0382 0.048,0.0732 0.0598,0.10566 l 0.0122,0.0467 0.002,0.043 c -0.002,0.0275 -0.0105,0.0529 -0.024,0.0764 -0.0707,0.12419 -0.27933,0.20027 -0.43465,0.29333 -0.0888,0.0532 -0.16034,0.11218 -0.17859,0.18879 -0.005,0.0201 -0.006,0.0388 -0.006,0.0568 l 0.0105,0.0513 v 0 l 0.0246,0.0463 0.0629,0.0643 c 0.15148,0.12002 0.44364,0.19365 0.62673,0.32287 l 0.0544,0.0433 v 0 l 0.0453,0.0473 0.0435,0.0613 0.0385,0.0661 c 0.0242,0.0457 0.0453,0.0943 0.0643,0.1449 0.0381,0.1012 0.0674,0.21062 0.0945,0.32148 l 0.0806,0.33062 v 0 l 0.0465,0.15678 v 0 l 0.0271,0.0736 0.0303,0.0698 0.66094,1.35915 v 0 l 0.0481,0.09 0.0468,0.0781 c 0.12505,0.19035 0.26197,0.26147 0.61854,0.34814 0.21594,0.0524 0.40932,0.0877 0.60552,0.1169 l 0.62215,0.0814 v 0 c 0.46178,0.0585 1.08042,0.086 1.64777,0.009 0.11347,-0.0154 0.225,-0.0349 0.3327,-0.0593 0.2154,-0.0489 0.41584,-0.11702 0.58819,-0.20897 0.16416,-0.0874 0.32652,-0.18429 0.4885,-0.28502 l 0.58465,-0.37002 c 0.19632,-0.12259 0.395,-0.24125 0.59881,-0.34642 l 0.30988,-0.14645 c 0.47867,-0.20288 0.89646,-0.47579 1.29519,-0.7834 l 0.35424,-0.28473 v 0 l 0.92322,-0.78743 v 0 c 0.11664,-0.0973 0.22335,-0.19554 0.32406,-0.2948 l 0.19459,-0.19985 v 0 l 0.50946,-0.5612 v 0 l 0.45331,-0.48601 c 0.0807,-0.0842 0.16769,-0.17099 0.25734,-0.25085 0.14008,-0.12478 0.2866,-0.23254 0.4254,-0.28737 l 0.0413,-0.015 v 0 l 0.0408,-0.0116 c 0.027,-0.007 0.0535,-0.0104 0.0796,-0.0118 0.0261,-0.001 0.0519,1.6e-4 0.0768,0.004 0.0167,0.0207 0.0308,0.0429 0.0431,0.066 l 0.0305,0.0722 v 0 c 0.0161,0.0499 0.0237,0.10288 0.0245,0.15727 l -0.004,0.0825 v 0 c -0.006,0.0551 -0.0196,0.11026 -0.0387,0.16364 l -0.033,0.0785 -0.0411,0.0741 -0.0486,0.0683 c -0.0696,0.0868 -0.15729,0.15408 -0.25598,0.18554 -0.0247,0.008 -0.0503,0.0138 -0.0762,0.0168 -0.0259,0.003 -0.0523,0.004 -0.0793,0.002 l -0.0237,0.0617 v 0 l -0.0277,0.06 -0.0666,0.11552 c -0.0491,0.075 -0.1072,0.1462 -0.17185,0.21412 -0.38816,0.40794 -1.01463,0.7024 -1.37277,1.04614 l -0.28861,0.27219 v 0 l -0.29022,0.26124 c -0.0792,0.07 -0.15694,0.14099 -0.24082,0.21136 -0.11126,0.0946 -0.2796,0.21891 -0.43827,0.34681 l -0.18155,0.15344 c -0.0842,0.0759 -0.15531,0.14921 -0.19888,0.21425 l -0.0446,0.0748 -0.03,0.0696 -0.0163,0.0654 -0.004,0.0615 0.008,0.0587 v 0 l 0.0182,0.055 v 0 c 0.0153,0.036 0.0367,0.0707 0.063,0.1043 l 0.0429,0.0498 v 0 l 0.10256,0.098 v 0 l 0.18004,0.15042 v 0 l 0.39601,0.35262 c 0.0435,0.0394 0.0873,0.0798 0.13305,0.12413 l 0.0302,0.0351 v 0 l 0.0787,0.12501 c 0.0127,0.0229 0.0266,0.0438 0.0427,0.0625 0.0161,0.0187 0.0343,0.0351 0.0562,0.0476 l 0.0419,0.0165 v 0 l 0.0465,0.008 0.0286,1.6e-4 -0.0592,-0.006 -0.0571,-0.0201 c -0.029,-0.0164 -0.0516,-0.0398 -0.0713,-0.0666 l -0.028,-0.0421 0.0953,-0.1154 0.21008,-0.2259 0.23057,-0.20855 0.12416,-0.0915 0.13408,-0.0846 0.13332,-0.066 0.14674,-0.0525 0.13632,-0.0376 0.14232,-0.0469 0.14696,-0.0638 0.0663,-0.0334 0.067,-0.0387 0.0656,-0.0458 0.0585,-0.0457 0.0543,-0.0522 0.0519,-0.058 0.0387,-0.0643 0.0393,-0.0708 0.0261,-0.0762 0.0367,-0.17413 0.0623,-0.16725 0.0374,-0.071 0.0451,-0.0777 0.0516,-0.0669 0.11025,-0.12987 0.23886,-0.25029 0.11725,-0.11712 0.14977,-0.18856 0.0643,-0.14244 0.0267,-0.069 0.0942,-0.30918 0.0655,-0.14091 0.0844,-0.11496 0.0532,-0.0517 0.0608,-0.0454 0.0723,-0.033 0.0873,-0.0277 0.0794,-0.0195 0.0751,-0.026 0.0742,-0.0328 0.0656,-0.0462 0.0723,-0.0463 0.0648,-0.0522 0.0586,-0.059 0.10263,-0.13169 0.0449,-0.0704 0.0763,-0.15546 0.0261,-0.0766 0.024,-0.15864 v -0.0818 l 0.009,-0.12887 0.0185,-0.1719 0.0356,-0.18733 0.0246,-0.0962 0.0565,-0.15511 0.0387,-0.0635 0.017,-0.0211 0.0354,-0.0298 0.0255,-0.008 0.004,-0.008 0.0138,-10e-4 0.0132,0.006 0.006,-8.2e-4 0.0263,0.0104 0.0474,0.0443 0.023,0.0305 0.11766,0.21692 0.0363,0.0516 0.0683,0.0765 0.0347,0.0308 0.0331,0.0248 0.0392,0.0167 0.071,0.0219 0.10161,-0.008 0.0371,-0.009 0.0298,-0.0156 0.0377,-0.0154 0.0584,-0.0469 0.0592,-0.0514 0.10563,-0.11742 0.0708,-0.13527 0.0265,-0.0625 0.029,-0.11065 0.0216,-0.0484 0.0149,-0.0427 0.0229,-0.0417 0.0282,-0.0364 0.0543,-0.0518 0.0656,-0.0466 0.0298,-0.016 0.0739,-0.0267 0.0745,-0.0187 0.22509,-0.0372 0.0674,-0.0189 0.0669,-0.0249 0.0606,-0.0333 0.0305,-0.0221 0.0236,-0.0228 0.0221,-0.0287 0.0234,-0.0349 0.0166,-0.0356 0.0162,-0.0407 0.0241,-0.0784 0.0645,-0.14002 0.0397,-0.0651 0.0847,-0.12184 0.0532,-0.0513 0.0464,-0.052 0.11215,-0.0966 0.11872,-0.0846 0.12881,-0.0709 0.18921,-0.0836 0.21714,-0.13254 0.0761,-0.0603 0.14822,-0.13283 0.0642,-0.0731 0.0582,-0.0738 0.038,-0.0775 0.0196,-0.0696 0.004,-0.035 -0.003,-0.0333 -0.0188,-0.0674 -0.0209,-0.0322 -0.0621,-0.0556 -0.0409,-0.0242 -0.0517,-0.0242 -0.0584,-0.0229 -0.0592,-0.0151 -0.0632,-0.008 -0.0635,-0.002 -0.12469,0.01 -0.0701,0.0127 -0.1302,0.0299 -0.26015,0.0674 -0.13132,0.0251 -0.0622,0.005 -0.0624,-0.002 -0.2887,-0.0324 -0.15882,-0.0146 -0.15229,-0.003 -0.0756,0.006 -0.13581,0.0392 -0.0609,0.0305 -0.0242,0.0156 -0.0463,0.0443 -0.0179,0.0296 -0.0214,0.0275 -0.0107,0.0351 -0.016,0.0339 -0.0382,0.1545 -0.0428,0.0976 -0.0221,0.042 -0.0586,0.0727 -0.0586,0.059 -0.0341,0.0236 -0.0692,0.0388 -0.0734,0.0194 -0.0739,0.013 -0.0756,0.006 -0.0718,-0.008 -0.0706,-0.0215 -0.0638,-0.0297 -0.0887,-0.06 -0.0204,-0.0254 -0.0221,-0.0329 -0.0215,-0.0253 -0.0143,-0.0332 -0.0153,-0.0319 -0.0862,-0.50427 -0.0211,-0.058 -0.0157,-0.0278 -0.0357,-0.044 -0.0198,-0.0182 -0.0197,-0.0122 -0.0532,-0.0241 -0.0698,-0.007 -0.0365,0.003 -0.088,0.0193 -0.10532,0.0364 -0.15131,0.0799 -0.11263,0.0906 -0.0398,0.0502 -0.0339,0.0498 -0.0209,0.0572 -0.0223,0.0485 -0.015,0.0556 -0.005,0.17123 0.0298,0.21448 0.006,0.0741 -8.2e-4,0.0754 -0.0105,0.0891 -0.0183,0.0905 -0.0251,0.0898 -0.0306,0.0902 -0.0757,0.16426 -0.0449,0.0716 -0.0526,0.0585 -0.0282,0.0219 -0.0559,0.0317 -0.0236,0.009 -0.064,0.005 -0.0248,-0.005 -0.0331,-0.0111 -0.0325,-0.018 -0.0348,-0.0319 -0.0621,-0.0697 -0.022,-0.0317 -0.0315,-0.0665 -0.0172,-0.0655 -0.003,-0.0333 0.006,-0.0694 0.0147,-0.0692 0.02,-0.0688 0.0322,-0.0706 0.0374,-0.071 0.17505,-0.28481 0.10894,-0.20755 0.0267,-0.069 0.0402,-0.1341 0.0129,-0.0679 0.007,-0.0687 0.008,-0.14408 -0.005,-0.1423 -0.0113,-0.14138 -0.0614,-0.28053 -0.0406,-0.13425 -0.3232,-0.94079 -0.0316,-0.0866 -0.0237,-0.053 -0.0222,-0.039 -0.01,-0.0464 -0.0134,-0.16821 -0.0187,-0.0937 -0.1485,-0.43051 -0.0199,-0.0803 -0.0138,-0.088 -0.006,-0.0813 v -0.0818 l 0.0247,-0.16432 0.0505,-0.16029 0.0316,-0.0778 0.0774,-0.14223 0.0448,-0.0716 0.10346,-0.13055 0.052,-0.0576 0.0601,-0.0538 0.0586,-0.0445 0.0658,-0.0394 0.13043,-0.0504 0.0683,-0.0126 0.13139,-0.0102 0.21121,0.0235 0.40571,0.0909 0.10337,0.0141 0.0428,8.2e-4 0.0756,-0.006 0.0373,-0.007 0.0677,-0.0335 0.054,-0.0316 0.0537,-0.0449 0.1,-0.10329 0.0917,-0.10868 0.0536,-0.0461 0.0586,-0.0444 0.0666,-0.0334 0.0747,-0.026 0.0869,-0.014 h 0.0955 l 0.14138,0.0164 0.38499,0.0801 0.25613,0.0325 0.1331,0.0114 0.13295,-0.005 0.13846,-0.0108 0.26916,-0.0483 0.1288,-0.0427 0.0669,-0.0249 0.0599,-0.0329 0.0674,-0.0335 0.0614,-0.0374 0.12604,-0.0916 0.12202,-0.1183 0.11737,-0.12518 0.1089,-0.13743 0.18695,-0.26681 0.27118,-0.40876 0.29746,-0.39791 0.18586,-0.28566 0.45382,-0.72923 0.46459,-0.91342 0.0842,-0.14156 0.17244,-0.29429 0.16681,-0.29908 0.29841,-0.60754 0.33593,-0.55 0.0715,-0.14097 0.063,-0.14876 0.0194,-0.0761 0.0135,-0.0752 0.0129,-0.0824 -0.002,-0.0817 0.002,-0.0675 0.007,-0.0695 0.0288,-0.10379 0.0313,-0.0492 0.008,-0.13933 0.0202,-0.14419 0.0353,-0.17536 c 0.0398,-0.17489 0.0904,-0.34577 0.12762,-0.48876 l 0.0319,-0.13281 c 0.0541,-0.25677 0.12258,-0.51979 0.1764,-0.78542 0.0538,-0.26564 0.0929,-0.53391 0.0876,-0.80068 -0.003,-0.15176 -0.0102,-0.30403 -0.0214,-0.45652 -0.0112,-0.15249 -0.0262,-0.30517 -0.0432,-0.45724 -0.034,-0.30411 -0.0768,-0.60619 -0.11635,-0.90167 l -0.033,-0.21062 v 0 l -0.0407,-0.20677 -0.0926,-0.40714 -0.0872,-0.40699 -0.034,-0.20649 -0.0218,-0.17825 0.0102,0.12192 c -6.9e-4,-0.014 -0.004,-0.0301 -0.009,-0.0479 l -0.0203,-0.0582 -0.0291,-0.0665 v 0 l -0.11314,-0.22826 -0.0372,-0.0787 -0.0325,-0.0767 -0.0251,-0.0727 -0.0149,-0.0665 -0.003,-0.0301 9.6e-4,-0.0278 0.005,-0.0253 0.009,-0.0225 c 0.0226,-0.0421 0.0729,-0.0658 0.16288,-0.0614 0.03,10e-4 0.0644,0.006 0.10374,0.0141 0.0447,0.0933 0.0786,0.18873 0.10864,0.28488 l 0.0749,0.25273 0.0337,0.10758 0.0382,0.10657 0.10685,0.258 c 0.0543,0.15465 0.086,0.31405 0.10812,0.4765 0.0294,0.21663 0.0414,0.43841 0.0658,0.6614 0.008,0.0743 0.0178,0.14894 0.0298,0.22335 0.012,0.0744 0.0267,0.14882 0.0447,0.223 0.0181,0.0743 0.0405,0.1404 0.0649,0.20329 l 0.0987,0.24386 c 0.0154,0.0411 0.0298,0.0833 0.0421,0.12801 l 0.0241,0.10531 v 0 c 0.007,0.0368 0.0113,0.0753 0.0145,0.11654 0.0243,0.31787 0.0322,0.63169 0.0394,0.93184 l 7.4e-4,0.11533 v 0 l -0.007,0.22457 -0.007,0.10971 -0.0448,0.42878 c -0.0233,0.18806 -0.0485,0.37425 -0.0663,0.56448 l -0.0197,0.28911 -0.006,0.10772 -0.009,0.10537 c -0.0209,0.20891 -0.0595,0.40609 -0.10708,0.60715 -0.0135,0.0583 -0.0262,0.10524 -0.0395,0.14487 l -0.0206,0.0544 0.009,0.0392 0.003,0.0405 -0.002,0.0397 -0.031,0.085 -0.0221,0.0424 -0.0769,0.0729 -0.12109,0.15368 -0.0416,0.0975 -0.0437,0.0913 0.019,0.0791 0.0125,0.0816 8.5e-4,0.0814 -0.006,0.0819 -0.0122,0.0767 -0.0202,0.0757 -0.0249,0.0773 -0.10311,0.21958 -0.23964,0.4051 -0.511,0.95209 -0.19306,0.29387 -0.19209,0.28736 -0.17881,0.29881 -0.0819,0.15709 -0.13475,0.30143 -0.0509,0.15468 -0.0443,0.15336 -0.0632,0.16087 -0.0696,0.15492 -0.0387,0.0784 -0.0449,0.0712 -0.0514,0.064 -0.0454,0.0652 -0.0585,0.0598 -0.0593,0.0505 -0.0596,0.0457 -0.0717,0.0402 -0.0675,0.0322 -0.0811,0.0212 -0.0443,0.008 -0.0859,0.0353 -0.0409,0.0221 -0.10241,0.0825 -0.0225,0.0368 -0.0508,0.0725 -0.0306,0.0765 -0.0266,0.0835 -0.0177,0.084 -0.007,0.0884 0.006,0.0809 0.012,0.0805 0.0197,0.0738 0.0307,0.0641 0.035,0.0577 0.0492,0.0441 0.0277,0.0192 0.0571,0.0214 0.0266,0.004 0.0309,-0.002 0.0623,-0.0173 0.0364,-0.0177 0.0603,-0.0369 0.0716,-0.0551 0.19487,-0.17717 0.0718,-0.0531 0.0583,-0.0533 0.0974,-0.0467 0.0315,-0.009 0.0569,-0.004 0.0247,0.004 0.0264,0.0116 0.0268,0.0169 0.0275,0.0261 0.094,0.15508 0.0506,0.071 0.0552,0.0582 0.0604,0.0489 0.0673,0.0367 0.0638,0.02 0.0657,0.0158 0.0623,0.002 0.064,-0.005 0.0618,-0.0185 0.0539,-0.0243 0.0547,-0.0373 0.048,-0.0461 0.0449,-0.0567 0.0393,-0.0711 0.025,-0.0765 0.0691,-0.16253 0.0227,-0.0352 0.0305,-0.031 0.0231,-0.0151 0.0309,-0.0161 0.0248,-0.008 0.0639,0.008 0.0265,0.0125 0.0321,0.0124 0.0665,0.04 0.069,0.0571 0.26258,0.27817 0.1295,0.12049 0.0598,0.0413 0.0525,0.0241 0.0656,0.0146 0.12698,0.005 0.0629,-0.005 0.25638,-0.0349 0.0691,0.002 0.0629,-0.005 0.0639,0.008 0.0645,0.0159 0.0657,0.0296 0.0602,0.036 0.0592,0.0426 0.0623,0.0632 0.0563,0.0492 0.0518,0.0391 0.0607,0.0287 0.0705,0.0203 0.0705,0.0159 0.0708,0.009 0.075,8.1e-4 0.075,-0.0123 0.0744,-0.0203 0.0672,-0.0266 0.0729,-0.0391 0.0604,-0.0454 0.0592,-0.0517 0.0513,-0.0657 0.038,-0.0775 0.0311,-0.085 0.023,-0.0405 0.016,-0.0428 0.0441,-0.0707 0.0523,-0.0524 0.0627,-0.0307 0.0588,-0.0332 0.0674,-0.0185 0.14418,-0.0237 0.14356,-0.0313 0.0678,-0.019 0.068,-0.0258 0.0878,-0.0689 0.031,-0.0298 0.0227,-0.0352 0.0271,-0.0356 0.0227,-0.0445 0.0412,-0.11725 0.0127,-0.0763 -7e-5,-0.15514 -0.0179,-0.15456 -0.05,-0.30801 -0.005,-0.0689 v -0.0753 l 0.008,-0.0615 0.014,-0.0692 0.021,-0.056 0.0333,-0.0566 0.0454,-0.064 0.0778,-0.13663 0.0317,-0.0766 0.0334,-0.0695 0.0183,-0.076 0.0131,-0.0711 0.007,-0.0675 -0.008,-0.0945 -0.009,-0.0263 -0.0146,-0.0319 -0.0291,-0.0453 -0.0408,-0.0371 -0.0277,-0.0188 -0.0639,-0.0224 -0.0397,-0.01 -0.0363,-0.004 -0.0964,0.002 -0.12583,-0.005 -0.0654,-0.0223 -0.0871,-0.0549 -0.0264,-0.0254 -0.0215,-0.0257 -0.0369,-0.0588 -0.0296,-0.0658 -0.0505,-0.14477 -0.0132,-0.0808 -0.057,-0.48558 -0.024,-0.14079 -0.0296,-0.14195 -0.0838,-0.27114 -0.18329,-0.53822 -0.017,-0.0583 -0.012,-0.15098 0.019,-0.076 0.0339,-0.0546 0.0224,-0.0239 0.0925,-0.0467 0.0731,-0.0266 0.31895,-0.0534 0.10431,-0.0351 0.031,-0.0149 0.0293,-0.0224 0.025,-0.0152 0.0451,-0.0591 0.0451,-0.15301 0.0321,-0.077 0.0367,-0.0657 -0.0613,-0.11818 v 0 l -0.0523,-0.1192 -0.0413,-0.11889 -0.0163,-0.0593 -0.013,-0.0589 c -0.03,-0.1568 -0.0229,-0.3083 0.0387,-0.44467 0.10747,-0.003 0.19234,-0.0368 0.25552,-0.088 0.0211,-0.0171 0.0399,-0.0362 0.0562,-0.0568 0.0325,-0.0411 0.0554,-0.0881 0.0688,-0.13753 l 0.0131,-0.0755 v 0 l -8.6e-4,-0.0762 -0.006,-0.0373 -0.009,-0.0365 -0.0125,-0.0353 -0.0159,-0.0338 -0.042,-0.0616 -0.0261,-0.0271 -0.0294,-0.0242 c -0.0827,-0.0606 -0.20085,-0.0863 -0.35282,-0.0475 -0.094,0.0238 -0.1655,0.0917 -0.2257,0.18036 -0.0401,0.0591 -0.0752,0.12741 -0.10849,0.19801 l -0.0489,0.10679 c -0.0965,0.2137 -0.19101,0.41726 -0.37113,0.42339 -0.0287,-0.20621 -0.0462,-0.40106 -0.0306,-0.57751 0.008,-0.0882 0.0239,-0.17182 0.0509,-0.25017 0.027,-0.0784 0.0651,-0.1513 0.1167,-0.21822 l 0.14216,-0.16102 c 0.0117,-0.0138 0.022,-0.0274 0.0308,-0.0418 0.0353,-0.0579 0.0472,-0.13017 0.032,-0.2898 -0.005,-0.0502 -0.0131,-0.0961 -0.0238,-0.1392 -0.0214,-0.0861 -0.0517,-0.16153 -0.0791,-0.24086 l -0.0372,-0.12365 v 0 c -0.0722,-0.29425 -0.0875,-0.59199 -0.11717,-0.8742 -0.0148,-0.1411 -0.0335,-0.2783 -0.0644,-0.40925 l -0.0165,-0.0649 v 0 l -0.0403,-0.12627 -0.0243,-0.0613 c -0.0172,-0.0405 -0.0365,-0.0801 -0.0581,-0.11878 l -0.0342,-0.0572 v 0 l -0.038,-0.0557 -0.0422,-0.054 -0.0465,-0.0524 -0.051,-0.0507 -0.0558,-0.049 -0.0609,-0.0472 v 0 l -0.0663,-0.0453 c -0.0503,-0.0322 -0.0918,-0.0623 -0.12598,-0.0919 l -0.0459,-0.0442 -0.0359,-0.0445 c -0.0208,-0.03 -0.0357,-0.061 -0.0464,-0.0946 l -0.0103,-0.0389 v 0 l -0.007,-0.0415 -0.006,-0.0926 3.3e-4,-0.0708 0.0116,-0.39347 -0.003,-0.23443 c -0.005,-0.158 -0.0176,-0.31776 -0.0409,-0.47152 -0.008,-0.0515 -0.0165,-0.0952 -0.0267,-0.13252 -0.0102,-0.0373 -0.0216,-0.0683 -0.0345,-0.0944 -0.0645,-0.13065 -0.16458,-0.13997 -0.31677,-0.21553 l -0.098,-0.0548 v 0 c -0.0754,-0.048 -0.13703,-0.11401 -0.18961,-0.18987 l -0.0498,-0.0788 -0.0447,-0.0833 -0.0407,-0.0861 -0.0742,-0.17356 c -0.0138,-0.0333 -0.0246,-0.0664 -0.0326,-0.0994 -0.0161,-0.066 -0.0222,-0.13147 -0.0248,-0.1959 l -0.004,-0.18953 -0.006,-0.0914 c -0.007,-0.0601 -0.0202,-0.11826 -0.0461,-0.17412 l -0.019,-0.0356 v 0 l -0.0516,-0.0689 -0.0314,-0.0334 c -0.0733,-0.074 -0.16792,-0.14371 -0.25377,-0.21219 l -0.11842,-0.10219 -0.0554,-0.061 c -0.17089,-0.22089 -0.30724,-0.45146 -0.4025,-0.69969 -0.0238,-0.0621 -0.0452,-0.12523 -0.0638,-0.18967 l -0.0258,-0.0975 v 0 l -0.0217,-0.0995 -0.0176,-0.10148 -0.0134,-0.10364 -0.009,-0.1059 -0.004,-0.10826 0.051,-0.0121 z"
     id="danzig"
     fill="#8f8f8f"
     fill-rule="nonzero"
     style="stroke:#000000;stroke-width:0.5">
</path></svg>
