<svg>
  <path d="m337.5 103.5.7.2.7.1c.5 0 .8.2 1 .4l.2.2v.1l.1.1.1.3v.2l.1.3v.1l.1.2v.1l.1.1.1.2.1.1.3.3a1.5 1.5 0 0 1 .3.7v.3a1 1 0 0 0 .2.4l.3.3.1.1.3.1v.1a.5.5 0 0 1 .2.2v.5h.1V109.5h.2l.2.3v.2l.1.2V110.5l.2.4.1.1.1.2v.2h.1c0 .2.2.2.3.3l.2.1.3.2v.1l.1.2.2.3v.1l.1.1.2.1h.2v-.1h.1c.2-.3.2-.5.4-.6v-.1h.2a.4.4 0 0 1 .2 0v.1l.2.3v.3c0 .2 0 .2.3.3h.8l.1.1.1.1h.5l.2-.2H349v.1l.1.2.2.3.2.4H350.2a.5.5 0 0 1 .3-.1H350.8c.3 0 .6.2 1 .1l.4-.2h.2l.2.2v.2h.4v.1l.1.1v.6l.1.1v.2h.1l.1.3h.1l.1.1v.1h.7v.1h.2l.1.2.3.2.2.1h.2l.1.2h.1l.4.3.1.1h.1l.2.1v.1h.1v.1l.1.2v.5l-.1.1v.1h-.1V119.3h-.1v.1h-.3v.1h-.2v.2h-.1v.6l-.4.2.4.4.1.4V121.6l-.3.2-.1.1v.4l.1.2v.1l.1.1v1.1l.1.2v.1h.1v.1h.2v.1h.7l.1.1.1.1V125.3l.2.2h.1l.1.2.1.1v1l-.1.2-.1.1-.1.1h-.1l-.3.2h-.2v.2h-.1v.5h-.1v.1h-.5v.1h-.1l-.1.1-.1.2.2.2-.3.3.2.3.4.6.1.1.1.2.2.1.2.1.1.1v.7l.1.1v.2h.1v.1h.2v.1l.3.2.1.1V132.3l-.2.3.1.1v.1l.2.2.2.4h.2v.1h.1v.1l.1.1.1.1v1.4l.1.2v.1l-.1.1v.1h-.1v.1l-.2.3v.1h-.1v.1l-.2.1h-.1l-.4.2h-.3v.2l-.2.1v.2h-.1l-.1.1-.1.1h-.1v.1h-.4l-.1.1h-.1v.1l-.1.1-.1.3v.1h-.1v.2l-.4.3h-.1l-.2.2v.1l-.2.1v.2l-.2.1-.2.2-.2.3v.2h-.1v.1l-.2.1-.2.2h-.1v.8H352l-.2.1h-.1l-.1.1v.1l-.1.1h-.2v.2l-.4.2h-.3l-.2.1h-.1l-.4-.3H349.6l-.2.1v.1l-.2.2-.3.2v.1h-.2l-.2.1h-.6l-.1.1-.2.2-.1.2h-.2v.1h-.2l-.1.1h-.2l-.2.1-.1.1-.2.1-.1.1-.1.1h-.1l-.1.1h-.3l-.1.1-.1.1h-.2l-.1.2h-.1l-.3.3v.2h-.1v.2l-.1.2v.2h-.1v.1h-.2v.1l-.1.3h-.1l-.2.2h-.5v.1h-.1v.1l-.1.1-.1.2-.1.1v.1h-.2l-.1-.1-.1-.1-.2-.1v-.1h-.4v-.1h-.3l-.2.1-.1-.1H340.3l-.2-.1h-.2v-.1h-.7l-.1.2v.1l-.2.2v.2l-.1.2v.5h-.1v.2l-.1.2h-.1v.1H337.8l-.3-.1h-1.1l-.1-.2h-.1l-.5-.5-.1-.1-.2-.1-.1-.1h-.1l-.2-.1h-.6v-.2l-.1-.2-.1-.1v-.2V146.4l.1.2.1.3V147.2l.1.2a6.5 6.5 0 0 1 0 .6H334.4l-.1-.1h-.2l-.1-.2h-1.3a1 1 0 0 0-.6.5.8.8 0 0 0-.1.5l.2.4.1.1a.4.4 0 0 1-.2 0h-.6l-.4.2h-.3l-.1-.1-.1-.2v-.5h-.6v-.4l-.2-.2h-.1c-.1 0-.2 0-.3.2v.6l-.1.2v.1h-.1v.2h-.1l-.1-.1v-.1l-.1-.1-.1-.2c-.3 0-.6.1-.8 0h-.4v-.1l-.2-.3s-.3 0-.4.3h-.1l-.2.3-.2.2-.3.4v.1l-.4.3c-.3 0-.3 0-.5.2l-.1.2-.2.2-.2.1h-.1c-.1 0-.2 0-.2.2l-.1.1-.1.6h-.7a2 2 0 0 0-.4.2l-.1.1-.3.4v.8l.2.2.1.1.1.3v.5l-.2.1h-.5l-.4.2-.5.3v.5l.1.2-.3.1a.5.5 0 0 1-.3 0h-.1l-.1-.2-.2 1.1.1.8a1 1 0 0 0-.5 1h.3v.2c-.2.4-.4.5-.3 1.1l.1.3v.2h.1v.2l-.1.8-.3.1h-.1l-.2-.3v.1l-.1.1c-.1.3 0 .6-.3.8h-1.4l-.2.1-.1.1a1.6 1.6 0 0 0-.3.3l-.2.2-.2.3-.1.1-.5.5-.2.2-.1.2-.4.4v.2l-.1.1v.1l-.1.2v1.8l-.1.2h-.2l-.3.2-.1.1a2.6 2.6 0 0 0-.8 1.2 1.3 1.3 0 0 0 0 .5v.4l.1.1.1.2h.2v.2h.2l.2.2.2.2.4.2.2.1.1.2.6.4.2.2.3.2a4.6 4.6 0 0 1 .5.6l.1.1v.1a3 3 0 0 1 .3 1.4c0 .4-.3.7-.2 1.1h.2l.1.1.1.1.1.2v.3l.4-.1h.2v.1h.1l.1.2.1 1h.5c.6.4.6 1.7.5 2.2h.2v.1h.2l.1.2h.1v.2h.1V179.8h.1v.8l.1.2V182.9l.1.8v2.5h.5l.2-.1.4-.3.2-.1.4-.1h1.1v.1l.2.1v.1l.1.2.1.1.2.3.1.2.2.3v.1l.2.1v.2h.2v.2h.2l.2.1h1.1v.1h.1v.1l.3.4.2.2V188.9l.1.2V189.3h-.1v.1l-.2.2-.1.1v.4l.1.1h.1v.1l.4.2.5.4h.2l.1.1h.4v-.1H328.9l.1.1v.4l.1.4.4.4.2.1.4.1h.2v.1h.1v.1l.1.1.1.1a5.4 5.4 0 0 1 .4 1.9v.2a.2.2 0 0 1-.1.1h-.4v.1a.7.7 0 0 0-.3.2l-.1.1-.1.7a3.4 3.4 0 0 0 0 .7l.1.1.2.2v.1l.4.3.2.1h.2l.2.1H332.1v.4h-.1v.1l.1.1.4.6a11 11 0 0 1 .7 1.5v.1a1.8 1.8 0 0 1 0 .4v.1l-.1.5-.5.7-.1.3v.2a.9.9 0 0 0 0 .3v.1l.1.1.1.1v.1a.8.8 0 0 1 0 .5.5.5 0 0 1 0 .1l-.2.2h-.2l-.2-.1h-.2c-.3 0-.4.1-.5.3v.2l-.2.1v.1a.5.5 0 0 1-.4 0h-.1l-.5-.2-.4.1h-.1l-.2.1-.2.1h-.1l-.3.2c-.1.2-.2.5-.4.5H328l-.3-.2h-.2l-.2.2H326.9v-.2h-.1v-.1l-.1-.1h-1.1c-.2 0-.2.2-.3.4l-.1.2v.2l-.2.2v.3l-.3.4h-.2a.8.8 0 0 1-.3-.3v-.2a2.7 2.7 0 0 0-.3-.3c-.2-.2-.6-.3-.9-.3h-.4a.8.8 0 0 1-.3 0l-.2-.3-.1-.1-.1-.3H321.3l-.2.1-.2.1h-.2v-.1h-.1l-.1-.2-.1-.2-.2-.2v-.1h-.1v-.2h-.1l-.1-.4v-.1l-.1-.2h-.1v-.1h-.7l-.2-.1v-.1h-.1v-.2h-.1v-.5h.1v-.1h.8v-.1l.1-.1h.1v-.2l.1-.1v-.5h-.1v-.2h-.1l-.1-.1V200.9l-.1-.2v-.7l-.1-.1h-.1v-.1h-.4v.1l-.1.2h-.1v.6h-.1v.2h-.2l-.2.1h-.6l-.3.2h-.1l-.2.1h-.2v-.1h-.2v-.1H316.1l-.3.2H315.6V200.3l-.1-.1h-1.1l-.1-.1-.1-.1-.1-.2v-.5l-.1-.1h-.8l-.1-.1h-.1l-.2-.1H312.1l-.2-.2h-.1v-.1h-.9v-.1l-.1-.1v-.1.1h-.2l-.1.1h-.1v.1l-.1.2v.6l.1.1v.1h.2l.1.1h.2l.1.1.1.1h.1V200.5l.1.1v.1l.1.2.2.1.3.3h.1v.1l.1.1v.5l-.1.1-.1.1h-.6l-.1.1-.1.2v.1l-.1.1h-.2v.1h-.5V203l-.1.3v.1l-.1.1-.1.1-.1.1-.3.4-.1.1-.1.1h-.2l-.3.1-3.7 3.6H305v-.1h-.1v-.2h-.1v-.7l-.1-.2v-.1l-.4-.7-.1-.1h-.1v-.1h-.6l-.2-.1V205.4h-.1l-.1-.2-.1-.1-.1-.1-.1-.1v-.1l-.1-.1-.1-.1h-.1v-.1h-.2l-.2-.1h-.1v-.2h-.1V203.1H301.5v.1l-.1.1h-.1l-.1.1h-.4V203.1h-.1v-.4l.1-.2.2-.1.2-.1h.1l.3-.2h.1l.2-.1v-.1l.2-.1V201l.1-.1.2-.3v-.4l-.4-.6-.1-.1h-.1l-.1-.2h-.2l-.1-.1h-.2l-.3-.2-.2-.1h-.4l-.1.1-.2.2-.1.2-.2.1-.1.1H298.9V200h-.1v.4h-.1l-.1.1H298.3v-.8l-.1-.1 3.5-3.7v-.1h-.2v-.1H300.2v-.1l-.1-.2v-.4l-.1-.2v-.1h-.1v-.1h-.1v-.1h-.7l-.2.1H298.2l-.1-.1h-.2l-.3.1h-.5l-.2-.1v-.1l-.2-.2-.2-.1-.2-.1h-.2V194.3l-.1.1v.1h-.4l-.1-.1-.1-.2-.1-.4v-.1l-.1-.1-.1-.2-.2-.4-.2-.1-.1-.1-.2-.4V191.4l-.1-.1v-.1h-.1v-.1h-.1l-.1-.1h-.2v-.1l-.2-.1-.3-.4h-.1v-.1h-.1v-.1h-.2v.3h-.1v.1h-.1v.1H292.5l-.3-.1h-.1l-.1-.1h-.5l-.1-.1h-.2v-.1l-.1-.1v-.2h-.1v-.4l.1-.1v-.2h-.1l-.1-.1h-.4l-.3.3v.1h-.4v-.1h-.1l-.1-.3v-.1l-.2-.1v-.1h-.4l-.2-.1V188h-.1v-.1h-.2l-.1-.1h-.1l-.1-.1-.1-.1v-.4l-.1-.1-.1-.1-.2-.2-.2-.4v-.4l-.1-.2v-.1h-.1v-.1l-.1-.1-.2-.1h-.1l-.2-.1H286.3l-.4.1h-.2l-.1.1-.1.1v.1l-.1.1-.1.3-.1.1h-.1v-.1l-.2-.3v-.2h-.1l-.2-.1H283.2v-.1l-.1-.1-.1-.1v-.1l-.2-.1-.1-.1h-.1l-.2-.1h-.1v.2l-.1.1-.1.1-.1.1H281.8l-.1-.1-.2-.2h-.1v-.1h-.2v-.1H280.8l-.1.1v.1l-.1.1v.1h-.1l-.1.1h-.2l-.6-.2h-.4l-.1-.1h-.1l-.1-.1-.1-.1v-.5l.1-.1v-.1l.1-.1v-.1h.1l.1-.1h.5v-.1h-.1V183h-.1v-.1l-.1-.1h-.1l-.1-.1H278.4v-.1l-.1-.2v-.4h-.1l-.2-.1h-.4v.1l-.2.2h-.6l-.1-.1H276.4l-.1.1h-.2l-.1-.1-.2-.5v-.1h-.2l-.1-.2-.2-.1v-.1l-.2-.1v-.2l-.1-.1v-.2l-.1-.1v-.1l.1-.1h.4v-.1h.1v-.1l.1-.1H276.4v-.1h.1V179.5l.1-.2.1-.2.1-.1v-.1l.2-.2h.1v-.1h.1v-.2h.1l.1-.5v-.2h.1l.1-.1.2-.1.1-.1.1-.2v-.1h-.1l-.1-.1h-.4v.1l-.1.2-.1.1h-.2v-.1h-.1v-.4l.1-.1.2-.1v-.2h-.2l-.2-.1h-.5l-.1-.2h-.2l-.1-.2h-.1l-.1-.1v-.1h-.1v-.2h-.1V175.3l.1-.1h.1v-.1h.2v-.1h.6l.1-.1.1-.1.4-.4.1-.1h.5v.1h.1v.1h.6l.1.1.2.1.4.2.1.1h.1v-.2l.1-.2.2-.2.1-.2v-.1l.1-.1v-.4h.1l.3-.3h.1v-.6h.2l.4.3v-.2l.3.3.3.3.2.1h.2v.1h.1v-.1h.1l.3-.5.1-.2.1-.2v-.4H283.4v-.1h.3v.1h.2v-.1H284.6v-.2l-.1-.2-.1-.2-.2-.1-.2-.3-.2-.1-.1-.2v-.1l-.1-.3-.1-.1h-.1v-.1l-1.3-.2-.2-.1h-.1l-.2-.2-.2-.1-.6-.7h-.1l-.1-.1h-.2l-.7-.2H279.2v-.1l-.1-.1V168.1l.3-.7V167.2h.2v-.1h.1l.2-.2h.1v-.1l.1-.2v-.4l.1-.2v-.2l-.1-.2v-.1l-.1-.1v-.5h.2l.1-.1h.4l.2-.1h.5l.1-.1.1-.1v-.1h.1v-.2l.1-.1.1-.2h.2v-.1h.2l.1-.1.2-.1v-.2l.1-.1V162l-.2-.1v-.2h-.1l-.1-.1h-.1v-.1h-.4l-.2.1h-.1l-.2-.2v-.1l-.2-.1v-.1h-.1v-.1h-.1v-.1h-.8l-.1-.1h-.1l-.1-.1v-.1h-.1v-.4l.1-.1.1-.1h.1v-.1h.2v-.1H281.2v-2l.1-.2v-.2l.2-.1v-.1h.5l.2.1h.1l.1.1h.2v-.1h.1v-.2l.1-.3v-.1l.1-.1.1-.1h.2l.3.3h.1v.2h.1v.2h.1v.2h.1l.1.1h.2l.3.2H284.7v.1h.2l.1.1h-.2l-.1-.1h-.1v-.1h-.2l-.3-.1-.2-.1-.1-.1v-.1h-.1V157h-.1l-.1-.1v-.1l-.4-.4-.1-.2-.1-.2V154.7l-.1-.2v-.1h-.4l-.1.1v.5h-.1v.1h-.1l-.2.1h-.4v-.1h-.1l-.1-.3h-.1v-.1H280.8l-.1-.1-.1-.1v-.2h-.1V152.9h.1v-.2l.2-.2v-.2l.3-.2.2-.2.1-.2.3-.5v-.2h.1v-.6l-.1-.1-.1-.1-.1-.1-.2-.1h-.1l-.2-.1H280.8v-.2h-.1v-.5l-.1-.1-.2-.1h-.6l-.2.3h-.1l-.1.2h-.5l-.2-.2v-.1h-.2v-.1H278.2v-.1h-.1v-.2l.1-.1.2-.2v-.5h-.1v-.1h-.8v-.2h-.2v-.8h.1v-.1l.1-.2v-.4h-.1v-.1h-.1l-.1-.2h-1l-.1.1H275.8l-.1-.1-.4-.1-.3.1v-.5l-.2-.1-.2-.1h-.1l-.1-.1h-.4v.2l-.1.1v.2l-.1.1-.1.1-.1.1-.1.1-.2.1h-.2v.1h-.1v.1l-.2.2h-.1l-.1.2v.2l-.1.1v.2l-.1.1-.1.1h-.4l-.1-.2-.2-.2v-.1H271l-.1.1h-.2v-.1l-.1-.1V146.5h.1v-.2l.2-.2v-.1h.1v-.6l-.2-.2-.1-.1h-.4v.1l-.2.1h-.1v.1h-.8v.1l-.1.1-.1.1h-.1l-.1.1h-.4l-.2-.1-.1-.1h-.1v-.7h.2v-.1h.1v-.2h.1v-.1l.1-.2V143.5h.1l.1-.2h.4l.1-.1h.2v-.1l.1-.1v-.1h.1V142.5h-.1l-.2-.1h-.1l-.3-.1h-.1l-.1-.1V141.4h-.2v-.1H268.2l-.2-.1-.2-.1-.2-.1v-.1l-.2-.2v-.1l-.1-.2v-.6l-.1-.1v-.2h-.1v-.1h-.1l-.2-.2h-.1l-.7-.4-.2-.2v-.1l-.1-.1v-.3l-.1-.1-.1-.1v-.1h-.1v-.1h-.2l-.1-.2h-.3l-.1-.2h-.1v-.1h-.1v-.3l-.1-.1v-.8l.1-.1.2-.1.2-.2.2-.3.2-.1h.7l.3-.2v-.1H267l.1-.1.2-.1v-.1h.2v.1l.1.1v.2h.1v.1h.1v.1H268v-.1h.1l.1-.1v-.2l.1-.1v-.5h.1v-.1l.3-.1.1-.1h.2v-.1h.1v-.1h.2l.1.2v.2l.1.1v.2h.2l.2.2.1.1v.1l.1.1v.5l.1.2v.2l.1.2.2.4.2.1h.7v.1h.2v.2l.1.1.2.1h.1l.1.1h.1l.1.2h.1v.5l.1.1.1.1h.2l.3.1h.2v.1l.1.1.1.2v.1l.1.3v.2l.1.1v.1l.1.1H274.2v-.1l.1-.2v-.4h.1v-.1H275.2l.1-.1v-.2h.1v-.1h.1l.1-.1.2-.1H276v.1h.1v.5l.1.1h.1l.2.2.1.1v.1l.1.1v.8l-.1.3v.5l.2.1V141.3h.2v.1h.1v.1h.2l.1.1.1.1h.1v.1h.1V142.2l.1.1v.2l-.1.1-.1.2v.1l-.1.1v.4l.1.3v.1h.1v.1l.2.1v.1h.2l.3.1.1.1h.1l.1.2v.1l.2.1v.1h.2l.1.1H279.6v.1l.3.1.2.1H280.6l.2-.1h.4v.7l.1.1h.2l.1-.1v-.6h.2l.3.4h.2v.1l.4.2.2.4H283.2l.1.1h.1v.1h.2V146.8l.2.3v.1l.1.1h.1v.1l.3.3.2.1.1.1h.2l.1-.1v-.1l.1-.1v-.4l-.1-.4V146.4h-.1v-.2h-.1l-.4-.3-.1-.2-.1-.1v-.8l.1-.1.1-.1h.2v-.1l.1-.1.1-.1v-1.4l.1-.2.1-.2.2-.3v-.1l.2-.2.2-.2.1-.1h.1v-.2h.1V140l.2-.1h.1l.1-.1h.3l.2-.2H287l.1-.2h.1l.3-.4h.2v-.1l.2-.1H288.2v-.1h.8v-.1l.2-.2v-.1h.1v-.1h.1l.1-.1H289.9l.1-.1h.2v-.1h.1l.1-.1.2-.2.1-.2.1-.1h.2l.1-.1h1.5v-.1h.1v-.1h.2v-.1H293.2l.3-.1h.2v-.1l.3-.2.4-.2.2-.1.1-.1.4-.2h.5l.2-.2h.1l.2-.1v-.1h.4v-.1h.5v-.1h.2v-.1l.2-.1.1-.2.1-.1.1-.2.1-.1.1-.1.1-.1H298.3l.2-.1h.1l.1-.1v-.1l.3-.3.2-.5v-.1l.2-.2.2-.2v-.1l.1-.2.1-.1v-.2l.1-.2v-.5h.1v-.2h.1l.1-.2.2-.3h.1l.1-.2h.2l.1-.3h.4v-.1h.2v-.2h.9l.1-.1h.1l.1-.1.1-.1v-.1l.1-.1v-.1h.2l.2-.1h.6l.2-.4.4-.3.1-.1.2-.1.1-.2h.2l.1-.1.2-.3.1-.1v-.1h.7l.1-.1v-.1l.2-.4v-.1h.1v-.1l.4-.2.2-.1H307.5l.1-.1h.1l.2-.2h1.1v-.1h.2v-.1H309.5v-.3l.2-.1h.2l.1-.1.3-.1h.2l.3-.1.3-.2 1.7-.8h.4v-.1l.2-.1h.1l.1-.1.3-.1h.7v.1l.1.2h1a19 19 0 0 1 1 0c.2 0 .4 0 .6.2h.2l.2.1.3.2.8.3.3.2.2.1.2.1.2.1.3.2.2.1.1.2h.1v.2l.1.1v.3h.1l-.1.1h-.4c-.6-.3-1.2-.9-1.6-1.2h-.2a5.7 5.7 0 0 0-1.3-.6h-.7l-.1.1-.1.4v.5a3 3 0 0 0 0 .6l.1.1.2.1.5.2.3.1v.1l.1.1v.2l-.4.3c-.1 0-.2 0-.2.2v.1h.1c.1.2.4.3.6.4h.1v.1l.1.1v.2l.2.3v.5h.1v.1l.7 1.4.1.1c.1.2.3.3.6.4l.6.1h.6a6.7 6.7 0 0 0 2 0c.2 0 .4 0 .6-.2.2 0 .3-.2.5-.3l.6-.3.6-.4.3-.1 1.3-.8.3-.3 1-.8.3-.3.2-.2.5-.5.5-.5.2-.3.4-.3h.1a.4.4 0 0 1 .2 0v.7l-.3.3a.4.4 0 0 1-.2 0l-.1.2-.2.2-1.4 1-.3.3-.2.3-.3.2-.4.4-.2.1-.2.2v.1l-.1.1V130.7h.1l.1.2.2.1.4.4h.1v.1l.2.2h.1-.1v-.2l.3-.2.2-.2h.1l.1-.2H328.2l.2-.1h.1l.2-.1v-.1h.2v-.1l.1-.1.1-.1V130l.1-.2.1-.1.2-.2.2-.3h.1l.2-.3v-.1l.2-.4v-.1l.1-.1.1-.1.2-.1h.2v-.1h.1l.1-.1.2-.2v-.2l.1-.1V126.7l.1-.1V126.3h.1v-.1h.2l.2.3v.1h.1l.1.1H332.4v-.1l.2-.2V126.1h.1v-.1h.1l.1-.1h.1v-.1h.4l.1-.1.1-.1v-.1l.1-.2.1-.2h.1v-.1l.2-.1.2-.2h.2l.2-.2.2-.2h.1v-.1l.1-.2v-.1l-.1-.1h-2v.1h-.1v.1l-.1.2v.1l-.1.1v.1h-.2l-.1.1H332l-.1-.1v-.1h-.1v-.6h-.1v-.1H331.1l-.1.2h-.1v1l-.1.1v.2h-.1v.1h-.4v-.1l-.1-.1V124.8h.1l.2-.4v-.2h.1V123l-.4-1v-.4l-.2-.4v-.7l.1-.2.2-.2v-.1h.1v-.1H332l.2-.2.1-.1.1-.1h1.1l.1.1H334.1v-.1h.2v-.1h.1l.2-.1v-.1l.2-.2.1-.1.2-.3.3-.4.3-.4.2-.3.4-.7.5-1 .2-.3.2-.3.3-.7.3-.5.1-.1v-.2l.1-.1v-.6l.1-.2v-.2l.2-.4v-.2l.2-.8a3.7 3.7 0 0 0 0-1.2v-.5l-.1-.9v-.4l-.2-.4v-.4l-.1-.2v-.2.1-.1l-.2-.3v-.4h.2l.1.3v.2l.1.1v.1l.1.3.2.5v.6a4.3 4.3 0 0 0 .2.7v.2l.1.1V112.5a4.6 4.6 0 0 1-.2.8V113.7h-.2v.2l-.1.1v.5l-.1.2-.1.2-.2.4-.6 1-.1.2-.2.3-.2.3-.1.2-.1.3v.1l-.1.2v.1l-.2.2v.2h-.1l-.1.1-.1.1-.2.1h-.2v.1h-.1v.1l-.1.2v.6h.5l.1-.2h.1v-.1h.2v-.1h.1l.2.2v.1h.1l.1.1h.4l.1-.1v-.1l.2-.2v-.1H338l.3.4h.1v.1H339.3l.1.1h.1v.1h.1v.1H340.3l.1-.1.1-.2v-.1h.1v-.1h.1l.1-.1h.4v-.1h.1l.1-.1v-.1l.1-.2V117.7l.2-.1v-.6h-.4v-.1h-.2v-.2l-.1-.2-.1-.6v-.2l-.1-.3-.2-.5v-.4h.1l.4-.1h.1v-.1h.1v-.2l.1-.1V113.6l-.1-.1v-.6h.3a.4.4 0 0 0 0-.3h.1V112.3h-.1c-.1-.2-.2-.2-.4-.1l-.2.1-.1.2v.1l-.4.5V112l.2-.1c.1-.1.1-.2 0-.4v-.5l-.2-.8v-.6l-.1-.1v-.1h-.1v-.1l-.1-.1v-.1h-.2v-.1l-.2-.1v-.1l-.1-.1V107.8a4 4 0 0 0-.1-.6l-.3-.3h-.1l-.2-.2v-.1l-.1-.1-.1-.3-.1-.3v-.4l-.1-.1-.3-.3h-.1v-.1a2.8 2.8 0 0 1-.6-1v-.5z" id="danzig"
     fill="#8f8f8f"
     fill-rule="nonzero"
     style="stroke:#000000;stroke-width:0.5"/>
</svg>
