<svg>
        <path d="M258.792583,127.831248 C259.007332,127.780886 259.110158,128.183335 259.260943,128.182518 C259.462,128.181905 259.313365,127.591297 259.768327,128.026395 L259.876623,128.205601 C259.96196,128.33749 260.059592,128.394613 260.353777,128.14342 C261.203316,128.440158 260.035989,128.745357 261.993027,128.924016 C262.733627,129.695678 262.038649,129.977866 261.641757,130.446177 C261.371357,130.923627 261.172842,131.341362 260.861161,131.851248 C260.785286,132.442191 261.074946,134.060654 260.666014,133.763703 C260.030398,133.159853 259.96573,132.370583 259.885417,132.163485 C259.915392,132.089736 259.974346,132.035033 260.00245,131.968338 C260.132136,131.660335 260.018684,131.547986 260.00245,131.304831 C259.986207,131.061676 259.962763,130.70255 259.76827,130.524234 C259.573744,130.34591 259.338943,130.289433 259.338943,130.094907 C259.338943,129.900381 259.54318,129.876316 259.299975,129.66558 C259.08383,129.47826 258.920266,129.571702 258.852467,129.367109 L258.822679,129.243391 L258.822679,129.243391 L258.792649,129.158253 L258.753681,129.119286 C258.674561,128.395183 258.206602,128.323657 258.558534,128.065485 C258.643561,127.947283 258.696617,127.879044 258.751081,127.847904 L258.792583,127.831248 Z M253.718905,127.94846 C254.049918,127.913025 254.449515,127.984264 254.889796,128.18264 C255.061327,128.259946 255.207559,128.288425 255.358155,128.338755 C255.524017,128.727105 255.668849,128.976897 255.859096,129.135085 L255.943605,129.197409 C256.267817,129.408144 256.296117,129.750381 256.685169,129.782858 C257.074213,129.815327 257.426733,129.938981 257.426733,129.938981 L257.34079,129.871117 C257.208909,129.762448 256.984811,129.556792 257.114496,129.509654 C257.292804,129.444831 258.102828,129.50542 257.97315,129.197409 L257.73897,128.611967 L257.777937,128.611967 L257.92096,128.752365 C258.009006,128.836675 258.124447,128.937245 258.246297,129.002262 C258.367866,129.066831 258.50227,129.099054 258.597559,129.119286 L258.714591,129.236319 L258.714591,129.236319 C258.691069,129.311564 258.67059,129.40867 258.739723,129.496917 L258.792649,129.548556 C259.003384,129.71067 258.923586,130.043351 259.182943,130.17303 C259.442316,130.302725 259.758837,130.599995 259.807425,130.875569 C259.856005,131.151144 259.751602,131.343921 259.573245,131.343921 L259.479639,131.349316 C259.362517,131.36478 259.288358,131.417639 259.403763,131.559614 L259.456213,131.617134 C259.654989,131.815902 259.739414,131.980575 259.729425,132.28064 C259.383142,132.734507 258.992153,132.630594 257.895027,132.358698 C256.531155,132.459651 256.880627,133.139351 256.177719,133.022204 C255.240501,132.905049 255.35854,132.202837 254.538469,131.734223 C253.952725,131.382766 252.938512,131.383215 252.469891,130.914594 C251.882974,130.116725 252.254477,128.247282 253.563631,127.972781 L253.718905,127.94846 Z M251.689294,125.099229 C251.810692,125.068837 251.85794,125.435278 251.728262,126.27012 C251.468905,127.939779 251.32649,127.728185 250.79155,129.041229 L250.722946,129.16273 C250.630291,129.338908 250.530935,129.602984 250.401256,130.32921 C250.239142,131.236992 249.591183,131.901741 249.542594,131.383019 C249.493965,130.864272 249.37264,130.354403 249.113267,130.09503 L248.911738,129.887473 C248.809769,129.773986 248.787376,129.717511 248.933411,129.761502 L248.996243,129.782793 C249.304245,129.896278 249.318698,129.862608 249.464602,129.392499 C249.61049,128.92239 249.319956,128.990114 249.854896,128.260632 C250.358385,127.574084 250.652978,127.588259 251.064306,126.45706 L251.142877,126.231087 C251.369823,125.550275 251.567774,125.129572 251.689294,125.099229 Z M245.483504,127.948272 C245.608695,127.943466 246.395038,128.599812 246.654395,128.924016 C246.884949,129.212278 247.053415,129.032711 247.327101,129.251102 L247.434992,129.353343 C247.775406,129.726545 247.592357,128.941542 247.981409,129.314376 C248.370779,129.687185 248.299082,129.79897 247.942441,129.782736 C247.585817,129.76651 247.551518,130.020594 247.356992,130.133997 C247.181919,130.236134 246.982406,130.067262 246.282481,129.228884 L246.029986,128.924082 C245.78914,128.653139 245.416482,128.048345 245.464716,127.959336 L245.483504,127.948272 Z M262.500534,126.348177 C262.519687,126.316583 262.610071,126.335687 262.734714,126.348177 C262.983959,126.372496 263.364926,126.498316 263.632401,126.660414 C264.167341,126.984708 264.733711,126.220371 265.349708,126.933627 C265.965689,127.646875 265.653477,128.081074 265.037471,127.870338 L264.721356,127.757306 C264.300939,127.609852 264.004089,127.564987 263.398221,128.065485 C263.203695,128.227591 262.955054,128.736226 262.695689,128.963172 C262.436332,129.190117 262.125828,128.802815 261.915093,128.494812 C261.704357,128.186826 261.876689,128.051638 262.071207,127.792281 L262.219093,127.591449 C262.326976,127.450901 262.422021,127.362706 262.530975,127.437626 L262.578599,127.480044 C262.756907,127.674561 263.161049,127.612093 263.242106,127.206831 L263.27865,127.013331 C263.304761,126.812352 263.214423,126.802701 262.695689,126.543324 C262.560437,126.475831 262.501814,126.407254 262.497086,126.367981 L262.500534,126.348177 Z M262.812591,110.346046 C263.60948,110.264147 264.277221,110.662518 264.998251,111.009545 C265.115406,111.243839 265.661757,111.516807 265.661757,111.751117 C265.154872,112.568654 265.232431,113.389992 265.232431,114.092899 C265.562954,115.591877 266.24155,116.696711 266.013027,117.293335 C266.108594,117.40418 266.216921,117.560155 266.286232,117.761695 C266.510895,118.414293 266.201812,118.411016 265.917294,118.61271 L265.856905,118.659381 C265.558883,118.911553 265.541627,118.805654 265.037283,118.347144 C264.993935,118.292997 264.900771,118.081665 264.803104,117.839752 C263.336839,118.116488 263.074858,118.865466 262.539379,119.400946 C261.519017,120.534683 263.130966,120.753142 264.191611,121.296925 L264.295719,121.352433 L264.725046,123.030708 C263.787828,123.850771 261.836847,123.693643 261.836847,124.748025 C260.864422,124.716071 261.028221,125.313169 261.79788,125.216376 C262.080602,125.180816 262.65371,125.651684 262.303907,125.911811 L262.227207,125.95794 C261.950373,126.09433 261.924469,126.524196 262.18824,126.855627 C262.530698,127.285943 261.495493,127.73645 261.212496,127.831371 C260.158114,127.831371 258.558967,126.504619 257.621757,126.036005 C258.663469,126.247362 259.143853,126.777757 259.261008,126.4263 C257.179891,124.826777 260.567471,125.796717 258.285264,124.474812 C258.05097,124.24051 257.934117,124.552869 257.699815,124.552869 C256.996907,124.552869 256.880504,124.240698 256.294744,124.123542 C255.708975,124.006395 255.124114,124.474877 254.655493,124.357722 C254.421313,124.357722 254.421313,124.006518 254.421313,123.889362 C254.780349,122.588057 253.1723,122.406422 253.289455,122.054965 C253.406619,121.586351 254.030954,121.899087 254.148109,121.43049 C253.034888,119.041755 255.201787,119.504695 252.547891,117.566548 C251.33733,117.490771 251.412943,117.227768 252.391768,117.215278 C252.85952,117.209508 252.527694,116.843492 251.98789,116.6291 L251.709882,116.526739 C251.078043,116.277008 251.250237,116.114426 252.586916,116.356624 C253.194346,116.040766 253.545738,115.871834 254.109076,116.122444 C254.541044,116.314624 255.565572,115.87946 255.319,115.1467 L255.267877,114.979928 C255.187578,114.667819 255.23926,114.391685 256.099597,114.483193 C256.583218,114.534643 256.443305,113.70639 256.411834,113.50745 C256.360924,113.122975 254.892534,113.151512 254.304223,112.453649 C254.273717,111.967183 255.006575,112.765886 255.358033,112.765886 C257.296376,112.885559 257.128466,113.433038 257.621757,113.117155 C257.970926,112.893553 258.359308,112.720485 258.753616,112.648796 C258.788839,112.777877 258.805826,112.878978 258.753616,112.961033 C258.613246,113.18169 258.439162,113.283692 258.45925,113.490041 L258.480411,113.585515 C258.56292,113.833143 258.387027,113.936149 258.250749,113.853987 L258.207199,113.819687 C258.069657,113.682144 257.411071,113.586087 257.777872,113.975809 L257.984602,114.202299 C258.315754,114.57847 258.645236,115.030898 258.324289,115.068643 C257.934559,115.114477 257.735439,115.256981 257.894962,115.38088 C258.054501,115.504787 258.365757,115.411191 258.480411,115.73215 C258.5836,116.020998 258.463407,116.15826 258.187684,116.249655 L257.96072,116.316635 C257.700748,116.401257 257.594208,116.493628 258.051142,116.473714 L258.29624,116.455127 C258.635615,116.420591 258.845674,116.372377 258.898177,116.530199 L258.926995,116.70043 C258.985523,116.966126 259.161823,117.26514 259.222041,116.863951 C259.286731,116.436001 259.49833,115.885111 259.3399,115.944036 L259.300098,115.966264 C259.070856,116.126744 258.89124,115.899406 258.753681,115.69306 C258.616131,115.48673 258.784932,115.300322 259.222041,115.10761 C259.659134,114.914899 260.335343,114.882153 260.197785,114.561193 C260.083159,114.293741 259.999971,114.003111 259.882561,113.807534 L259.807482,113.70254 C259.556396,113.407787 259.655263,112.729368 260.225749,113.228369 L260.314875,113.312245 C260.864247,113.78762 260.423885,113.940457 260.583212,114.19313 L260.627112,114.248956 C260.961354,114.604305 261.052629,115.072975 261.173529,115.771117 C261.062882,116.32432 260.081779,116.389432 260.367879,116.691035 L260.431956,116.746861 C262.316193,118.395823 261.255469,115.28255 260.744202,113.429327 C260.683253,113.063621 260.530654,112.873608 260.236809,112.843886 L259.417188,113.039033 L259.417188,113.039033 C259.199243,113.092215 259.060474,112.883204 259.261065,112.648738 C259.800142,111.981537 260.454313,111.592559 261.212553,111.126578 C261.748065,110.663259 262.228555,110.441491 262.667847,110.365896 L262.812591,110.346046 Z M248.254744,117.800662 C248.332126,117.789054 248.430173,117.889079 248.590511,118.154855 L248.723095,118.386112 C250.808921,122.07885 248.254294,118.97067 249.074365,120.610804 C249.301678,120.927243 249.435649,121.36852 249.737872,121.74267 C251.484632,123.905114 249.185995,122.247128 250.089142,123.225798 C250.927033,124.133777 250.423392,126.677229 247.591237,126.855561 C246.654011,126.738398 245.934501,126.50385 245.249447,125.879817 C244.913972,125.879817 245.237242,126.584502 244.503056,126.043807 L244.390793,125.957883 C243.453559,125.254967 245.177913,125.732997 243.922441,124.357657 C242.369128,124.508213 244.371575,125.451553 243.180877,125.411466 C242.577828,125.391177 243.516779,124.570281 242.439305,123.811248 C241.973259,123.380907 242.244281,123.14824 242.009978,122.211022 C241.528507,122.026354 241.03309,122.098044 241.463561,121.547515 C241.89158,121.00015 240.435052,120.391248 240.448601,119.791183 C240.453452,119.587101 240.99521,119.557003 240.99521,119.557003 C241.270311,119.376112 241.441204,118.973376 241.853864,118.815439 C241.971011,118.815439 242.361248,119.557003 242.361248,119.557003 C242.829853,119.557003 243.024567,119.223733 243.376025,118.971553 C244.985659,118.551324 244.566673,117.916877 245.717807,117.995809 C246.507967,118.145638 246.89939,118.980324 247.552204,119.244766 L247.586347,119.521984 C247.589298,119.549706 247.591172,119.57489 247.591172,119.596027 C247.591172,120.120406 246.762084,120.320621 246.927665,120.844984 C247.209569,121.12688 247.404728,120.772728 247.806813,120.543939 L247.903409,120.493714 C248.372578,120.27294 248.732504,119.915777 248.566916,119.557003 C248.454452,119.313308 248.273847,119.026583 248.059531,118.698349 L248.107982,118.152131 C248.1277,117.989851 248.15733,117.862855 248.215907,117.81762 L248.254744,117.800662 Z M285.270215,120.54652 C285.3207,120.55915 285.504395,120.858757 285.504395,120.858757 L285.56186,120.994599 C285.617533,121.120379 285.699154,121.288084 285.738575,121.288084 C285.770124,121.288084 285.887214,121.346629 285.996417,121.405174 L286.206935,121.522264 L286.363049,121.756444 L286.714319,121.951591 L286.870441,121.795477 L286.988121,122.005407 C287.050114,122.111161 287.118416,122.218493 287.143646,122.224804 C287.165282,122.230209 287.232892,122.266825 287.303096,122.306906 L287.494916,122.419951 L287.807153,122.693155 L288.23648,122.771221 L288.351429,122.862336 C288.434406,122.932072 288.534302,123.025789 288.548717,123.083458 C288.560213,123.12935 288.537079,123.318992 288.508422,123.512221 L288.431692,123.981136 L288.392725,124.293373 L288.284975,124.498283 C288.258843,124.549372 288.233515,124.600323 288.21633,124.638224 L288.156439,124.782702 C288.098003,124.914098 288.002422,125.113003 288.002422,125.113003 L287.97033,125.148367 C287.920107,125.199767 287.819341,125.287142 287.729218,125.269117 C287.624095,125.248089 287.619188,125.072382 287.547443,125.014398 L287.495038,124.995913 L286.831531,124.995913 L286.480262,124.800766 L285.77773,124.332406 L285.348403,124.176292 L285.114223,124.176292 L284.684896,123.746965 L284.489749,123.629932 L284.528717,123.16158 L284.684831,122.927401 L284.684831,122.341951 L284.567807,122.029714 L284.762954,121.561354 L284.919076,121.132027 L284.933913,120.993776 C284.946934,120.895463 284.968304,120.780766 284.997134,120.780766 C285.041294,120.780766 285.246323,120.591815 285.27154,120.553027 L285.270215,120.54652 Z M243.024501,96.2952071 C243.327738,96.27097 243.621362,96.6296866 244.117335,96.9977466 C244.652766,97.3950708 245.561439,97.7002779 245.561439,97.7002779 C245.776231,98.3446097 245.334817,98.7911762 245.349995,99.4927865 L245.366292,99.6907984 C245.366292,100.276567 245.839629,100.801877 245.834643,101.525196 C245.776074,101.642286 245.689646,101.701109 245.600471,101.720343 C245.908033,101.709439 246.151065,101.824518 246.107856,102.461907 C246.107856,102.696226 245.912708,103.086324 245.912708,103.203471 C246.381322,103.320627 246.05791,104.305534 247.239714,104.491452 C247.942629,104.667185 248.769673,104.099474 249.503447,104.140191 C250.25545,104.181913 250.325054,104.75676 250.596272,104.920779 C250.844911,105.071138 250.979577,104.987319 251.07774,105.385227 L251.103665,105.506229 C251.197883,105.860204 250.787668,105.76561 250.791428,106.833243 C250.793798,107.610561 249.845978,108.895125 249.503447,108.706665 C249.563381,111.12021 248.495087,109.921926 248.83994,109.175025 C248.90021,109.0447 248.611695,108.942161 248.332548,108.979877 C248.289861,109.2813 247.988341,109.564714 247.864196,109.916589 C247.698608,110.385757 248.243063,110.501229 248.215458,110.970398 C248.187861,111.439575 247.473894,110.964496 247.473894,110.384948 L247.471261,110.115243 C247.462785,109.849718 247.427215,109.736213 247.278747,109.565327 C246.809341,109.798902 246.369894,109.853768 246.107856,109.370172 C246.787033,109.08885 246.969591,108.901134 247.122632,108.394428 C247.326591,107.719076 246.300665,107.456965 245.951733,108.78473 C244.897368,108.433272 245.797131,113.40464 244.780842,114.795308 C244.724512,114.941752 244.648139,115.052294 244.585695,115.18561 L244.429089,115.162315 C244.375703,115.15251 244.32248,115.137459 244.273458,115.107545 C243.776684,114.803965 244.239975,114.455466 243.688008,114.483071 L243.42638,114.50062 C242.812157,114.551179 241.892938,114.68924 242.32197,114.951431 C242.818736,115.255003 243.605202,115.198992 243.688008,115.419782 C243.762951,115.619466 243.092038,116.335093 243.726975,116.473591 C243.190392,117.008082 242.615144,117.137098 241.658398,117.137098 C240.838335,117.137098 239.043272,116.082864 239.277583,116.902918 C241.469798,117.046281 240.959022,117.845564 242.009668,117.800597 C242.179098,117.793322 241.515256,118.700245 240.838777,119.088586 C240.162281,119.47691 238.926322,119.830084 238.926322,119.94724 C238.692003,120.415853 239.940951,119.673766 240.17527,120.142387 C240.819689,120.585537 239.70691,120.72764 239.70691,121.079098 C239.835569,121.425082 239.912447,121.724144 239.97364,122.002006 L240.05818,122.406112 L237.443185,121.508425 L236.545507,121.898728 L235.29655,121.469401 L235.101403,120.766861 L233.6573,120.727894 L233.032826,121.50849 L232.954768,123.264831 L231.471632,123.499003 L231.440353,123.239489 C231.435787,123.195414 231.432665,123.151523 231.432665,123.108708 C231.315518,122.405801 231.667106,121.352629 231.198493,120.884016 C230.786324,120.834243 230.457215,120.687774 230.183717,120.532747 C230.121706,120.637779 230.041,120.706722 229.87148,120.688861 C229.34724,120.633659 229.395665,120.858373 229.754455,121.079163 C230.113229,121.299954 229.949602,121.914153 229.949602,122.328112 C229.949602,122.742095 229.311722,122.212649 229.090948,121.274311 L228.998035,121.039632 C228.903856,120.78295 228.92456,120.726326 229.012883,120.571771 C229.066131,120.478616 229.382978,120.30612 229.67639,120.181477 C229.096343,119.648384 228.866937,119.014894 228.388409,118.971553 C227.622779,118.90261 229.830861,122.24054 226.710134,118.971553 C226.785469,117.430926 227.802967,115.889033 227.802967,114.366046 L227.693924,113.835673 C227.362032,112.107308 227.611626,112.059483 227.998114,113.741572 C228.044553,113.943635 228.313907,113.572959 228.427441,113.663507 C228.539725,113.753123 228.485668,114.12652 228.349384,114.483136 C230.009561,113.374787 229.247177,112.53191 229.012883,112.063289 C228.895719,111.828986 228.783256,111.072635 228.271319,110.619185 L228.136415,110.591148 C227.704185,110.51843 227.672545,110.739459 227.451698,112.102322 C227.10024,112.219469 227.13946,111.360937 227.13946,111.009488 C227.256608,110.189433 227.412665,109.44867 227.412665,108.745763 C227.471243,108.394305 227.410131,108.059253 227.412665,107.770019 L227.425656,106.805371 C227.451473,105.616831 227.510509,105.129851 227.607812,106.989422 L227.900353,107.18741 C230.18331,108.684501 227.378061,105.545319 227.490787,105.545319 L227.552938,104.858661 C227.708888,103.291074 228.00243,101.330264 228.418036,101.426789 L228.466531,101.447196 C229.169447,101.681515 227.847649,102.14591 229.012948,103.476741 C230.333381,103.277613 230.630995,104.276973 230.964436,103.749954 C231.239104,103.315828 231.385687,103.461708 231.627943,104.64764 C231.690533,104.954063 231.890611,104.999506 232.137544,104.989014 L232.486597,104.959877 C233.26855,104.902812 232.27246,103.297395 232.29145,102.735177 C233.246332,102.367272 233.106649,102.071662 233.345251,101.642343 C233.679779,101.040414 234.359962,100.471452 234.477117,100.471452 C235.436046,100.135248 235.695215,100.44339 235.999278,100.978837 L236.209551,101.063419 C236.753684,101.306317 236.534246,101.468069 235.999278,101.993613 C235.369114,102.612708 235.344387,103.351738 235.257706,103.828011 C235.492016,104.120907 235.779673,102.732684 236.389572,102.813243 C238.443624,103.084362 235.664529,104.175717 237.599496,104.218313 C238.098787,103.759755 237.271082,104.250005 237.248226,103.788986 C237.357763,102.859338 237.677741,102.462234 237.326283,101.993613 C237.091981,101.642155 236.389638,102.540218 236.272482,102.18876 C236.08403,101.926493 236.975022,101.330368 236.975022,100.861755 C236.98712,100.778433 236.443989,100.803422 236.311515,100.432428 C236.245278,100.246918 236.312038,99.9439101 236.623752,99.6518311 C236.860875,99.4296431 236.426913,99.1420191 236.389572,98.9883243 C236.240275,98.3735368 236.844052,97.9491798 237.521439,97.4271308 C237.990052,96.9585422 239.394673,96.7634441 239.746131,97.1148937 C239.981071,97.3492125 239.394787,98.4030054 239.629106,98.1686948 C240.097711,97.7000817 240.097139,96.8809019 240.682907,96.5294523 C241.151529,96.2951335 242.014589,96.2221444 242.712452,96.4513869 C242.807713,96.3581662 242.885726,96.3189985 242.96485,96.3032097 L243.024501,96.2952071 Z M248.410981,113.42927 C248.459283,113.405114 248.534757,113.470256 248.645161,113.66345 C248.865706,114.04982 248.877305,114.585962 248.684128,114.834341 C248.490918,115.082728 248.721199,115.784441 248.528014,116.005232 C248.33482,116.226259 247.834956,116.242248 247.66936,115.966264 C247.503518,115.745474 247.708327,115.590177 247.708327,115.34179 L247.70957,115.16219 C247.716107,114.972078 247.750674,114.760946 247.922631,114.623398 L248.020564,114.561193 C248.351725,114.395597 248.183365,114.00612 248.293768,113.70254 L248.364552,113.492189 C248.37111,113.476255 248.377839,113.46295 248.385345,113.452424 L248.410981,113.42927 Z M231.402525,101.752189 L231.432853,101.759433 C231.491345,101.797644 231.522431,101.945543 231.544398,102.125476 L231.588975,102.579063 C231.634826,103.014635 231.512815,103.130163 231.237706,103.164504 C230.962564,103.198894 231.209847,103.460695 231.003526,103.437717 C230.797204,103.414787 230.798798,103.253172 230.535174,102.65712 C230.432005,102.40494 230.032719,102.266531 230.261962,102.07167 C230.491213,101.876809 230.613518,102.044401 230.808379,102.227793 C231.00324,102.411185 231.024559,102.112599 231.276738,101.837499 C231.324044,101.78551 231.368466,101.754667 231.402525,101.752189 L231.402525,101.752189 Z M234.00888,97.8172452 C234.055343,97.826376 234.091564,97.8759455 234.125913,97.9733597 C234.264019,98.3630817 234.086946,98.9150082 234.086946,99.1442589 L234.042532,99.1011455 C233.952528,98.9982196 233.789553,98.7788815 233.657619,99.0272262 C233.462193,99.3940354 233.55682,99.7622589 233.774643,100.00297 C233.952835,100.199909 233.794673,100.514378 233.618256,100.754059 L233.501431,100.900657 C233.295109,101.141368 233.13624,101.431264 233.033079,101.603188 C232.92991,101.775136 232.706627,102.037199 232.408597,102.071548 C232.110575,102.105896 231.949237,101.972523 231.823155,101.720278 L231.689071,101.426988 C231.612079,101.268106 231.519571,101.131633 231.354796,101.095804 C231.091155,101.038599 230.627447,101.322651 230.925469,100.978779 C231.223466,100.634907 230.930177,100.457466 231.159649,100.354305 C231.388907,100.251136 231.602905,100.226033 231.706065,100.237272 L231.965567,100.148108 C232.173021,100.070898 232.218129,100.023416 232.045101,99.9503966 L231.97927,99.9250354 C231.658319,99.8103815 231.853376,99.7317847 231.97927,99.4566839 C232.105351,99.1815831 231.872038,98.8895286 232.33054,98.8322016 L232.740157,98.7856742 C233.051261,98.7440177 233.332933,98.6676463 233.501431,98.4028747 L233.682054,98.1189337 C233.781367,97.9693152 233.877159,97.8470228 233.960433,97.820967 L234.00888,97.8172452 Z M248.098556,85.9133597 C249.855837,85.9133597 246.771608,86.8104823 246.65446,87.8648474 C246.420142,89.5049809 246.966395,88.3712834 247.552139,90.1285722 C247.640635,90.4507411 247.216302,91.1515967 247.435114,91.96297 C247.753158,93.1422513 247.64344,93.7367222 247.305881,94.1184837 L247.239967,94.1876621 C245.97794,95.4198692 246.189771,97.6915395 245.639749,97.4661635 L245.264799,97.3071616 C244.793687,97.100844 244.099116,96.7715838 243.766319,96.4904196 C243.231428,96.0385232 243.26679,95.818248 242.556395,96.2172071 C241.903196,96.0119074 241.303687,95.4689237 241.307447,95.7488556 C241.312106,96.0774659 240.244613,96.2976676 239.707229,96.5294523 C238.88715,96.7637629 237.710341,96.8651335 236.936112,97.3490736 C236.584662,97.3490736 236.46794,96.6075095 236.11649,96.6075095 C235.225123,97.2468447 234.516722,97.3186649 233.696643,97.2319837 C233.643223,97.6930354 233.09527,97.9499319 232.720899,97.8174332 C231.396477,100.025817 231.374668,99.4424278 230.847469,100.276305 C230.328967,101.09542 231.080774,101.363008 230.964501,101.681376 C230.84827,101.999793 230.650916,101.519875 229.715545,101.95458 C229.026526,101.210793 229.086166,100.233937 228.817866,100.510485 C228.548414,100.788398 229.004422,101.951262 228.544654,101.252049 C228.48418,99.3467384 230.206948,96.5361226 231.745098,95.2804959 C232.243,95.0461853 232.749542,95.533346 233.306283,95.4756431 C233.863033,95.417891 234.493262,94.8087684 235.062624,94.8902016 C236.211861,95.0544905 237.34533,95.0270245 238.341125,94.6169891 C239.688379,93.9726594 240.162403,92.7788474 240.643875,91.5726676 C241.319447,89.8802507 241.720883,89.7331526 242.79051,88.4112643 C243.610589,88.0598065 244.624466,88.1772725 245.444537,87.8258147 C246.216368,87.3847825 247.056098,86.0798507 247.933591,85.9278554 L248.098556,85.9133597 Z M252.626071,92.1581172 C252.929529,92.1581172 253.239861,92.5322425 252.743104,92.5874441 L252.526714,92.604026 C252.189012,92.6205835 251.973372,92.6004831 251.989598,92.8247794 L252.001531,92.8996812 C252.084338,93.258455 251.887221,94.0962071 251.611237,93.8754251 C251.362852,93.6767139 251.381786,93.5195445 251.066157,93.4900977 L250.791301,93.4798707 C250.402871,93.4529824 250.065398,93.3186536 250.479371,92.9777384 C250.727749,92.6189155 250.901193,92.6197902 251.259967,92.5093869 L251.769817,92.3497223 C252.026161,92.2717064 252.298885,92.1958887 252.494869,92.1686822 L252.626071,92.1581172 Z M123.983954,0.672382779 C124.198123,0.624784959 124.364512,0.740450899 124.452313,1.17976943 C124.452313,1.41413564 123.866864,1.4138855 123.866864,1.53103755 C124.101166,1.99964409 125.037755,1.88205553 125.037755,2.35066207 C125.037755,3.17073619 124.804016,4.57535744 123.983954,4.57535744 C123.281046,4.45820621 124.101109,3.05357188 123.983954,2.35066207 C123.877711,1.99650921 123.492305,1.62710703 123.086275,1.29685853 C123.215635,1.23975635 123.630575,0.750941907 123.983954,0.672382779 Z M122.578883,0.0869994005 C122.807243,0.0712620708 123.090918,0.0967408174 123.515602,0.125966703 L123.308926,0.56678019 C123.118186,0.986266971 123.051078,1.18183497 123.047243,1.2578291 L122.548806,0.858752948 C122.070671,0.464741016 121.81635,0.169868703 122.468311,0.0966392375 L122.578883,0.0869994005 Z" id="denmark" stroke="#000000" stroke-width="0.5" fill="#DCCFBE"></path></svg>