<svg>
        <path d="M258.8 127.8c.2 0 .3.4.5.4s0-.6.5-.2v.2c.2.1.3.2.6 0 .8.2-.4.5 1.6.7.7.8 0 1-.4 1.5l-.7 1.5c-.1.5.2 2.2-.2 1.9-.7-.6-.7-1.4-.8-1.6l.1-.2v-.7c0-.2 0-.6-.2-.8-.2-.2-.5-.2-.5-.4s.2-.2 0-.4-.4-.1-.4-.3v-.2h-.1c-.1-.8-.6-.9-.2-1.1 0-.2.1-.2.2-.3Zm-5 .1c.2 0 .6 0 1 .3l.6.1c.1.4.3.7.5.8v.1c.4.2.4.6.8.6l.7.1c-.2-.1-.4-.3-.3-.4.2 0 1 0 .9-.3l-.3-.6.2.2.3.2.4.1.1.1v.3c.3.2.2.5.5.7.2.1.6.4.6.7 0 .3 0 .4-.2.4h-.1c-.1 0-.2.1-.1.3.3.2.3.4.3.7-.3.4-.7.3-1.8 0-1.4.2-1 .8-1.7.7-1 0-.8-.8-1.7-1.3-.5-.3-1.6-.3-2-.8-.6-.8-.2-2.7 1-3h.2Zm-2.1-2.8c.1 0 .2.3 0 1.2-.2 1.6-.4 1.4-1 2.7v.2l-.3 1.1c-.2 1-.8 1.6-.9 1 0-.4-.1-1-.4-1.2l-.2-.2c0-.1-.1-.2 0-.1h.1c.3.1.3 0 .5-.4.1-.5-.2-.4.4-1.1.5-.7.8-.7 1.2-1.8v-.3l.6-1.1Zm-6.2 2.8 1.2 1c.2.3.4.1.6.4h.1c.4.4.2-.4.6 0 .4.4.3.5 0 .5-.4 0-.4.2-.6.3-.2.1-.4 0-1.1-.9l-.3-.3c-.2-.2-.6-.9-.5-1Zm17-1.6h.2c.3 0 .7.2 1 .4.5.3 1-.5 1.6.2.7.7.4 1.2-.3 1l-.3-.1c-.4-.2-.7-.2-1.3.3l-.7.9c-.3.2-.6-.2-.8-.5-.2-.3 0-.4.2-.7l.1-.2.3-.2c.3.3.7.2.7-.2v-.2c.1-.2 0-.2-.5-.5l-.2-.1Zm.3-16c.8 0 1.5.4 2.2.7.1.2.7.5.7.8-.5.8-.5 1.6-.5 2.3.4 1.5 1 2.6.8 3.2l.3.5c.2.6-.1.6-.4.8-.3.3-.4.2-.9-.3l-.2-.5c-1.5.3-1.7 1-2.3 1.6-1 1.1.6 1.4 1.7 1.9h.1l.4 1.7c-1 .9-2.9.7-2.9 1.7-1 0-.8.6 0 .5.3 0 .9.5.5.7-.3.2-.4.6-.1 1 .3.4-.7.8-1 1-1 0-2.6-1.4-3.6-1.9 1 .2 1.5.8 1.7.4-2.1-1.6 1.3-.6-1-2-.2-.2-.4.2-.6.2-.7 0-.8-.4-1.4-.5-.6 0-1.2.4-1.6.3-.3 0-.3-.4-.3-.5.4-1.3-1.2-1.5-1.1-1.8.1-.5.7-.2.8-.7-1-2.4 1.1-1.9-1.6-3.8-1.2-.1-1-.4-.1-.4.5 0 .1-.4-.4-.6h-.3c-.6-.3-.4-.5.9-.2.6-.4 1-.5 1.5-.3.4.2 1.5-.2 1.2-1v-.1c-.1-.3 0-.6.8-.5.5 0 .3-.8.3-1 0-.4-1.5-.3-2.1-1 0-.5.7.3 1 .3 2 0 1.8.6 2.3.3l1.2-.5v.4c-.2.2-.4.3-.3.5 0 .3-.1.4-.2.4-.2-.2-.9-.3-.5 0l.2.3c.3.4.6.8.3.9-.4 0-.6.2-.4.3.2.1.5 0 .6.3 0 .3 0 .5-.3.5l-.2.1c-.3.1-.4.2 0 .2H259v.2c0 .3.3.6.3.2 0-.5.3-1 .1-1-.2.2-.4 0-.5-.2-.2-.2 0-.4.4-.6.5-.2 1.1-.2 1-.5l-.3-.8v-.1c-.3-.3-.2-1 .3-.5l.1.1c.6.5.1.6.3.9.4.4.5.9.6 1.6-.1.5-1.1.6-.8.9 2 1.7.9-1.4.3-3.3 0-.3-.2-.5-.5-.6l-.8.2c-.2 0-.3-.1-.1-.4.5-.6 1.2-1 2-1.5a3 3 0 0 1 1.4-.7h.1Zm-14.5 7.5.3.4.1.2c2.1 3.7-.4.6.4 2.2.2.3.3.8.6 1.1 1.8 2.2-.5.5.4 1.5.8 1 .3 3.5-2.5 3.7-1-.2-1.7-.4-2.4-1-.3 0 0 .7-.7.1h-.1c-1-.7.8-.3-.5-1.6-1.5.1.5 1-.7 1-.6 0 .3-.8-.8-1.6-.4-.4-.2-.7-.4-1.6-.5-.2-1-.1-.5-.7.4-.5-1-1.1-1-1.7 0-.2.5-.2.5-.2.3-.2.4-.6.9-.8l.5.8c.4 0 .6-.4 1-.6 1.6-.4 1.2-1 2.3-1 .8.1 1.2 1 1.9 1.2v.4c0 .5-.8.7-.7 1.2.3.3.5 0 1-.3.5-.2.8-.6.7-1l-.5-.8v-.5l.1-.4Zm37 2.7.2.4.2.4.3.1.2.1.2.3.3.2.2-.2v.2l.2.2.2.1.2.1.3.3h.4l.2.2.1.2v.9l-.1.3-.1.2v.1l-.1.2-.2.3-.3.2s0-.2-.2-.3h-.7l-.3-.2-.7-.5-.5-.1h-.2l-.4-.5h-.2v-.5l.2-.3v-.6l-.1-.3.2-.4.1-.5v-.1l.1-.2.3-.2ZM243 96.3c.3 0 .6.3 1.1.7.6.4 1.5.7 1.5.7.2.6-.3 1-.3 1.8v.2c0 .6.5 1.1.5 1.8l-.2.2c.3 0 .6.1.5.8l-.2.7c.5.1.2 1.1 1.3 1.3.7.2 1.6-.4 2.3-.4.8 0 .8.7 1.1.8.2.2.4 0 .5.5v.1c.1.4-.3.3-.3 1.3 0 .8-1 2.1-1.3 2 0 2.3-1 1.1-.7.4.1-.2-.2-.3-.5-.2 0 .3-.3.6-.4 1-.2.4.3.5.3 1 0 .4-.7 0-.7-.6v-.3c0-.3 0-.4-.2-.5-.5.2-1 .3-1.2-.2.7-.3.9-.5 1-1 .2-.7-.8-1-1.1.4-1.1-.4-.2 4.6-1.2 6l-.2.4H244.3c-.5-.4 0-.7-.6-.7h-.3c-.6 0-1.5.2-1 .5.4.3 1.2.2 1.3.4 0 .2-.6 1 0 1-.5.6-1 .7-2 .7-.9 0-2.7-1-2.4-.2 2.2.1 1.7 1 2.7.9.2 0-.5.9-1.2 1.3-.6.4-1.9.7-1.9.8-.2.5 1-.2 1.3.2.6.5-.5.6-.5 1l.3.9v.4l-2.6-.9-.9.4-1.2-.4-.2-.7h-1.4l-.7.7v1.8l-1.5.2v-.3c-.2-.8.2-1.8-.3-2.3-.4 0-.7-.2-1-.4l-.3.2c-.6 0-.5.2-.1.4.3.2.1.8.1 1.2 0 .4-.6 0-.8-1l-.1-.3c-.1-.2 0-.3 0-.4l.7-.4c-.6-.6-.8-1.2-1.3-1.2-.8-.1 1.4 3.2-1.7 0 0-1.6 1.1-3.1 1.1-4.6l-.1-.6c-.3-1.7 0-1.7.3 0 0 .1.3-.2.4-.1.1 0 0 .4 0 .8 1.6-1.1.8-2 .6-2.4-.1-.3-.2-1-.7-1.5h-.2c-.4 0-.4.1-.6 1.5-.4.1-.4-.7-.4-1l.3-2.4v-1.9c0-1.2.1-1.7.2.2l.3.2c2.3 1.5-.5-1.7-.4-1.7v-.6c.2-1.6.5-3.6 1-3.5.7.3-.7.7.5 2 1.3-.1 1.6.9 2 .3.2-.4.4-.2.6 1 0 .3.3.3.5.3h.4c.8-.1-.2-1.7-.2-2.3 1-.3.8-.6 1-1 .4-.7 1-1.2 1.2-1.2 1-.4 1.2 0 1.5.5h.2c.6.3.3.5-.2 1-.6.6-.7 1.4-.7 1.8.2.3.5-1 1-1 2.1.3-.6 1.4 1.3 1.4.5-.4-.3 0-.4-.4.2-1 .5-1.3.1-1.8-.2-.4-1 .5-1 .2-.2-.3.7-.9.7-1.3 0-.1-.6-.1-.7-.5 0-.2 0-.5.3-.7.3-.3-.2-.6-.2-.7-.2-.6.4-1 1.1-1.6.5-.4 1.9-.6 2.2-.3.3.2-.3 1.3 0 1 .4-.4.4-1.2 1-1.6a3 3 0 0 1 2 0l.3-.2Zm5.4 17.1.2.3c.3.3.3.9 0 1.1v1.2c-.3.2-.8.2-1 0-.1-.3.1-.4.1-.7v-.1c0-.2 0-.4.2-.6h.1c.4-.2.2-.6.3-.9v-.2h.1Zm-17-11.6.1.3v.5c.1.4 0 .5-.3.6-.2 0 0 .3-.2.2-.2 0-.2-.1-.5-.7 0-.3-.5-.4-.2-.6.2-.2.3 0 .5.1.2.2.2 0 .5-.4h.1Zm2.6-4 .1.2c.2.4 0 1 0 1.1-.1-.1-.3-.3-.4 0-.2.3-.1.7 0 .9.3.2 0 .5 0 .8l-.2.1-.5.7c0 .2-.3.4-.6.5-.3 0-.5-.1-.6-.4l-.1-.3-.3-.3c-.3 0-.8.2-.5-.1.3-.4 0-.5.3-.6l.5-.2h.3c.2-.1.2-.2 0-.2-.3-.2-.1-.3 0-.5.1-.3-.1-.6.3-.7h.4c.4 0 .6-.1.8-.4l.2-.3.3-.3ZM248.1 86c1.8 0-1.3 1-1.4 2-.3 1.6.3.5.9 2.2 0 .4-.4 1-.2 1.9.4 1.1.2 1.7 0 2.1h-.2c-1.2 1.3-1 3.6-1.6 3.4l-.3-.2c-.5-.2-1.2-.5-1.5-.8-.6-.5-.5-.7-1.2-.3-.7-.2-1.3-.7-1.3-.5 0 .4-1 .6-1.6.8-.8.3-2 .4-2.8.8-.3 0-.4-.7-.8-.7-.9.6-1.6.7-2.4.6 0 .5-.6.7-1 .6-1.3 2.2-1.3 1.6-1.9 2.5-.5.8.3 1 .2 1.4-.2.3-.3-.2-1.3.3-.7-.8-.6-1.8-.9-1.5-.3.3.2 1.5-.3.8 0-2 1.7-4.8 3.2-6 .5-.3 1 .2 1.6.2.6 0 1.2-.7 1.8-.6 1.1.2 2.2.1 3.2-.3 1.4-.6 1.9-1.8 2.3-3 .7-1.7 1.1-1.9 2.2-3.2.8-.3 1.8-.2 2.6-.6.8-.4 1.7-1.7 2.5-1.9h.2Zm4.5 6.3c.3 0 .6.3.1.4h-.2c-.3 0-.5 0-.5.2v.1c0 .4-.1 1.2-.4 1-.2-.2-.2-.4-.5-.4h-.3c-.4 0-.7-.2-.3-.5.2-.4.4-.4.8-.5l.5-.2.7-.1h.1ZM124 .7c.2 0 .4 0 .5.5 0 .2-.6.2-.6.3.2.5 1.1.4 1.1.9 0 .8-.2 2.2-1 2.2-.7-.1.1-1.5 0-2.2-.1-.4-.5-.8-1-1.1.2 0 .6-.5 1-.6Zm-1.4-.6h1l-.3.5a3 3 0 0 0-.3.7l-.5-.4c-.4-.4-.7-.7 0-.8Z" id="denmark" stroke="#000000" stroke-width="0.5" fill="#DCCFBE"/></svg>