<svg>
  <path
     d="m 191.92633,198.10605 0.78015,0.0851 0.19191,0.17651 -0.10203,0.97216 -0.62809,0.47242 0.33045,0.36565 -0.26355,0.51143 -0.21847,0.57365 0.77432,0.62962 -0.0505,0.48266 -0.23001,0.19246 -0.0292,1.24625 1.64073,0.38978 0.44189,0.36893 0.18528,0.72406 1.43825,0.3138 0.38186,0.37175 0.0954,1.09458 0.3697,0.0998 -0.002,0.005 0.29512,0.0731 0.37249,0.47381 0.0999,1.04529 0.24846,0.0261 -0.1013,0.64078 0.25312,0.55674 -0.14089,0.30711 -0.1395,0.35831 0.0286,0.21193 0.004,-0.002 -0.0281,-0.21059 0.13951,-0.35832 0.14089,-0.3071 -0.25313,-0.55674 0.1033,-0.64057 0.0645,0.007 0.3424,-0.29281 0.88648,0.0406 0.68614,-0.52729 1.20542,0.12597 0.82512,1.17338 0.82998,0.0872 0.27397,0.3583 0.88168,0.0927 0.18505,-0.24919 0.68141,-0.47592 0.7871,0.0301 0.65535,0.72158 0.52209,0.0549 0.17014,-0.0943 0.51845,0.0543 1.03375,0.65478 0.4672,0.58683 -0.0859,1.29497 0.6997,0.40304 -0.0787,0.74889 0.29656,0.14334 0.41539,1.07984 0.8902,-0.0207 0.11732,-0.63826 0.76822,-0.24032 v 0 l 0.15914,0.11276 c 0.13496,0.0917 0.32826,0.21209 0.48371,0.26301 l 0.0505,0.0144 v 0 l 0.0489,0.008 0.0329,0.003 0.0413,0.0209 c 0.0118,0.006 0.0251,0.0148 0.0324,0.0209 0.14046,0.10115 0.27971,0.35474 0.36551,0.53293 l 0.0821,0.18224 0.48332,0.43358 1.76816,0.13327 0.80765,-0.61759 1.26096,0.018 0.30299,0.63126 0.97237,0.75419 0.30053,0.57072 0.11248,-0.0244 -0.46984,0.67203 0.47259,-0.67104 1.01811,-0.17832 0.56608,0.0595 0.36568,0.52568 0.8308,-0.39852 1.08596,0.71355 1.28243,0.29113 0.66157,0.66895 -0.74101,0.0869 -0.6018,1.24297 0.004,0.9202 -0.5166,0.43225 -0.41365,-0.0435 -0.59909,0.64862 -0.0677,0.64418 -1.45493,0.87205 -0.35222,1.81381 -0.84273,2.03006 -0.006,1.57399 -1.64259,2.5994 -0.12301,1.72446 0.43648,0.80326 -0.53905,0.64582 -0.11275,1.07271 -0.32444,0.6193 -0.14161,1.34868 -0.47784,0.54148 0.26709,0.8953 0.59607,0.88033 -0.59642,0.64259 -0.1735,1.18059 -1.07866,0.70267 -1.92798,-0.15006 -0.33083,-0.36776 0.16874,-0.57187 -0.62648,0.0372 7.4e-4,0.003 -0.70212,0.0398 -0.22479,0.22047 -0.005,-0.003 -1.29117,1.2454 0.0273,0.2181 1.27557,-0.13444 0.32545,0.41779 -0.76389,0.78904 -0.60279,0.20585 0.1917,0.67229 -1.87458,1.80944 -0.76435,0.30245 -0.16673,1.01796 -0.79631,0.61948 -0.82061,0.29514 -1.20023,0.46415 -0.1724,2.58986 -3.54633,2.78069 -0.0148,0.0503 -0.0846,0.32061 0.50274,0.26807 -0.002,0.002 0.002,9e-4 -0.88434,0.88225 -0.21738,1.11219 0.0865,0.0617 -0.002,0.003 0.84023,0.58397 0.0747,0.32976 -0.89047,0.94049 0.2951,0.24765 -0.11587,0.53681 -0.94209,0.004 -0.66422,0.31227 -0.10735,1.02139 1.71582,0.17937 0.74256,-0.57325 1.11331,-0.59317 -0.51564,-0.54073 -0.006,-0.48791 0.6484,-1.13069 0.57893,0.008 0.25697,0.51355 1.25827,-0.85487 1.21325,-0.0905 1.77142,0.18619 -0.0227,0.70078 0.83245,1.12298 -0.0794,0.75166 -0.64184,0.58383 0.005,0.4289 0.93679,0.59552 -0.13563,1.29044 0.3899,-0.17635 1.00972,1.34842 -0.0161,1.20138 -0.26347,0.51072 -1.85115,0.57242 -0.12429,0.93343 -0.34661,-0.0806 -0.44852,0.42398 -0.54408,0.29966 -0.005,0.0106 0.54528,-0.29813 0.4471,-0.42343 0.34661,0.0806 -0.11779,0.88148 0.68425,1.00224 0.529,0.009 c 0.1506,2.9e-4 0.30057,-0.002 0.40005,-0.01 l 0.0643,-0.007 0.0249,0.003 -8.9e-4,0.008 0.007,8.2e-4 0.0227,0.0362 v 0 c 0.0147,0.0446 0.0218,0.11751 0.0234,0.2088 l -0.004,0.22733 v 0 l -0.0136,0.20729 -0.02,0.22122 v 0 l -0.056,0.48657 v 0 l -0.0839,0.59574 1.31628,1.0092 0.1285,0.77978 0.64748,0.33796 -0.86996,1.21045 0.22065,0.45856 -0.25551,0.89366 -1.41254,0.3978 -0.28996,0.29132 -0.71451,0.30628 -0.11725,0.63757 -0.5769,-0.0598 -0.53314,-0.43742 -1.62425,0.48058 0.014,0.0352 -0.99306,-0.15695 -0.48795,0.16605 -0.19219,0.79527 -0.94364,0.0123 -0.0784,-0.7724 -0.27417,-0.34991 -0.95216,0.003 -0.25652,-0.45322 -10e-4,6e-5 0.25579,0.45384 -0.002,10e-4 0.001,0.002 -0.39948,0.28682 -0.32578,1.1036 0.12943,0.28001 1.07805,0.22688 0.13492,0.71876 0.39441,0.25878 -0.12435,1.17951 -0.98298,-0.1559 -0.46751,0.4367 -1.17007,-0.33961 -0.73763,0.51979 -0.45021,-0.26395 -0.73015,0.46799 0.20649,0.50908 -0.46144,0.38546 -1.29735,-0.13635 -0.0674,0.6414 0.39515,0.25816 -8e-5,0.003 -0.084,0.15312 -0.92717,-0.20892 -0.30246,-0.32624 -0.50957,-0.10615 -0.46705,-0.46552 -0.62948,-0.4833 -0.73865,-0.0776 -0.25263,-0.32454 0.40886,-4.37448 -0.17526,-0.0184 -0.002,0.003 0.17333,0.0179 -0.40982,4.37718 0.24994,0.32252 0.73866,0.0776 0.63015,0.48337 0.46705,0.46552 0.50958,0.10615 0.30178,0.32617 0.9271,0.21107 -0.11452,0.20459 -0.92,0.27838 -1.10151,-0.004 -0.42527,0.99079 -0.1177,0.63542 0.52483,0.5424 -2.5e-4,0.002 -0.64872,0.6364 -0.68334,-0.45532 -0.82868,-0.13827 -0.15714,0.46792 0.48279,0.43212 -3.3e-4,0.003 -0.67774,0.36344 0.12015,0.93032 1.71356,0.67857 0.24453,0.72888 0.505,0.15614 -0.41777,1.97449 -0.2679,-0.40953 -0.37661,-0.42167 -0.34993,0.77787 -0.51323,0.38072 -0.6661,-0.12189 -0.71977,-0.6773 -0.13514,-0.71667 -1.44348,-0.26389 -1.07885,-0.21925 -0.0404,-0.65554 0.4514,-0.76791 -0.73791,0.52256 -1.02783,-0.2202 -0.16755,-0.4018 0.82968,-0.93706 -0.64931,-0.77913 -0.73835,-0.0159 -0.66162,0.84956 0.0487,0.9775 0.87114,0.20597 -0.1962,0.41334 -0.6857,-0.0195 -0.85833,0.72513 -0.17965,-0.28669 0.26316,-1.05784 -0.2685,-0.4103 -0.7023,0.0285 0.17744,-1.1262 -0.003,-0.005 -0.1775,1.12702 -0.72681,0.0358 -0.33574,0.5459 -1.58592,-1.1566 -0.22802,0.81942 h -0.75018 l -0.12839,-0.85828 -0.75546,0.0692 -0.25243,1.05171 -0.56813,-0.28545 -1.16104,-0.97454 -0.62424,0.24847 0.15997,-1.52204 -1.03434,-0.80418 0.26958,-1.11804 -0.77708,-1.0814 -0.15781,-2.01254 -0.1071,-0.176 0.87995,-1.15052 -0.006,0.003 -0.87855,1.14996 -1.03186,-1.7062 -0.99077,0.13762 -0.12974,-0.76799 -0.5231,-0.055 -0.16709,0.63385 -1.39282,0.28757 -0.67925,-2.57421 -0.13016,0.0305 8.1e-4,-0.004 -1.38296,0.35522 -0.51748,0.91869 -0.86576,-0.74159 -0.98009,2.28414 -0.93671,1.7033 -0.39705,-0.63426 0.0105,-1.53423 -0.50893,-0.0543 -0.0631,-1.54409 -1.0491,0.0468 -0.0363,-1.00508 -0.12704,-0.24483 -1.60943,1.14044 -0.13555,1.28975 -0.3653,-0.0384 -0.27767,1.19628 -0.38162,0.11693 -0.3648,0.64801 -1.62369,-0.17066 -0.11755,-0.2381 -0.73999,-0.0778 -0.52084,0.71152 -0.57388,-0.14023 0.38906,-0.87892 -0.63443,-0.37165 0.83509,-1.531 -0.80989,-0.76937 -0.0877,-1.8264 0.72692,-0.41785 -0.15153,-0.55435 -0.28255,-0.36142 0.47215,-0.4874 0.41633,0.0438 0.35711,-0.8332 0.25201,-0.40817 -0.0546,-0.98595 0.77482,-0.89306 1.0016,-0.49274 0.20851,-1.49953 0.43879,0.31462 0.46169,0.65214 0.51571,0.0542 0.35547,-0.34694 -0.19358,-0.6779 0.22191,-0.57481 0.005,0.002 0.13674,-0.35814 -0.0623,-0.92495 -0.27843,-0.41415 0.0795,-0.75582 0.56005,-0.74876 -0.0275,-0.76566 -1.06996,-1.36317 -0.0488,-0.49381 1.05412,-0.48862 0.60759,-0.25794 0.23053,-0.73994 0.67306,-0.4158 -0.1,-1.04459 -0.35909,-0.57546 0.0564,-1.26664 -0.002,-0.002 0.0178,-0.40908 -0.42786,-1.45203 -0.55161,-0.2746 -0.33668,-0.80166 -0.41848,0.44186 -0.30674,-0.51809 0.0677,-0.64417 -0.52754,-0.97525 -0.0404,0.003 0.30706,-0.52508 0.75868,-0.72662 1.32783,-0.14086 0.65832,0.28652 0.78443,-0.50645 -0.004,-0.43576 -0.23594,-0.24213 0.0904,-0.85983 1.54941,-1.30589 0.46348,0.64812 0.51695,-0.44202 0.42793,-0.002 0.82451,-0.88782 1.18988,0.23061 -0.008,0.25362 0.52409,-1.2398 -0.2078,-0.51004 0.12332,-0.6902 0.30479,-1.38202 -0.51255,-0.6471 0.24487,-1.27697 -0.40641,-1.1912 0.0301,-0.7512 -0.86261,-0.85553 -0.082,-0.65992 0.53859,-0.64797 0.10728,-1.0207 -0.54423,-0.81646 0.007,-0.5447 0.7589,-0.14556 0.31701,-0.0641 -0.0962,-0.60965 -0.0701,-0.87682 -0.57243,-1.03267 -0.0955,-0.60958 1.03882,0.10917 0.79035,-0.46586 0.18312,-0.78629 -0.40829,-0.59348 1.4781,-1.03437 0.10203,-0.97077 -0.60241,-0.81837 -0.16622,-0.8861 -0.84406,-1.01916 0.53626,-0.53534 0.70387,-0.68949 -0.36576,-0.52498 0.45028,-0.77013 0.98255,-0.38257 2.02327,0.31572 0.50501,-0.322 0.0366,0.0396 0.20989,-0.88035 0.32039,-1.05228 0.41756,-0.45248 0.11666,-0.63845 0.75867,-0.24206 0.0171,-0.16294 0.002,-8.2e-4 0.0279,-0.26558 -0.77971,-0.0294 -0.12054,-0.39686 0.31171,-0.45311 -0.12259,-0.82963 -0.38827,-0.31072 0.18548,-0.73766 0.44504,-0.22945 -0.0256,-0.32448 0.29366,-0.30075 0.32662,-0.55597 0.82276,-0.29631 0.53477,-1.08303 0.49893,-0.27707 -0.22485,-0.40571 -0.67501,-0.0709 -0.0597,-0.38154 0.48713,-0.16473 0.24242,-0.30402 -0.43339,-0.36734 0.20269,-0.47505 1.20666,0.0238 -0.15692,-0.50303 -0.6725,-0.56494 0.15174,-1.44368 1.06199,-0.65395 1.09657,0.11525 -0.0508,-0.54376 0.65262,-0.20834 0.82085,0.6843 0.37392,-0.0631 0.0339,-0.49069 h 0.002 v -0.003 l 1.26341,0.16855 1.03158,0.83052 0.17324,0.34771 0.56439,0.22408 0.78147,0.74254 0.67579,0.12082 -0.67007,-0.12301 -0.77878,-0.74226 -0.56707,-0.22435 -0.17399,-0.3471 -1.03217,-0.83128 -1.26095,-0.16619 0.10478,-1.34768 0.22818,-0.62731 0.28517,-0.72368 -0.64177,-0.45025 0.20299,-0.41545 1.01635,-0.10981 0.0731,-0.69549 0.82548,-0.3479 0.27497,-0.6203 -0.21273,-0.4591 0.13452,-0.80191 0.51188,-0.38086 -0.37108,-0.95881 0.24325,-0.93841 0.98846,0.10389 0.66962,0.6698 0.65255,-0.20132 1.17859,-0.25822 0.66901,-0.36435 0.11822,-1.12471 0.51762,-0.44208 0.60706,-0.74383 z"
     id="dijon"
     fill="#54bff9"
     fill-rule="nonzero"
     style="stroke:#000000;stroke-width:0.5" />
  
  </svg>