  <svg
    xmlns="http://www.w3.org/2000/svg"
    viewBox="0 0 45.888681 57.000741"
    height="9.086876px"
    width="7.950806px"
  >
    <path
      d="m 2.1806588,20.407492 c -1.10452,1.1e-4 -1.99989004,0.89548 -2.00000004,2 v 33.95508 c 1.1e-4,1.10452 0.89548004,1.99989 2.00000004,2 H 44.069336 c 1.10452,-1.1e-4 1.99989,-0.89548 2,-2 v -23.18945 l -11.99024,4.73437 v -4.73437 l -11.99023,4.73437 v -4.86914 l -11.990237,4.73438 v -15.36524 c -1.1e-4,-1.10452 -0.8954702,-1.99989 -2.0000002,-2 z m 4.79883,25.34571 h 2.72852 c 0.9065402,0 1.6347602,0.73017 1.6347602,1.63671 v 2.72657 c 0,0.90654 -0.72822,1.63672 -1.6347602,1.63672 h -2.72852 c -0.90654,0 -1.63672,-0.73018 -1.63672,-1.63672 v -2.72657 c 0,-0.90654 0.73018,-1.63671 1.63672,-1.63671 z m 10.0000002,0 h 2.72852 c 0.906537,0 1.634757,0.73017 1.634757,1.63671 v 2.72657 c 0,0.90654 -0.72822,1.63672 -1.634757,1.63672 h -2.72852 c -0.90654,0 -1.63672,-0.73018 -1.63672,-1.63672 v -2.72657 c 0,-0.90654 0.73018,-1.63671 1.63672,-1.63671 z m 9.999997,0 h 2.72852 c 0.90654,0 1.63476,0.73017 1.63476,1.63671 v 2.72657 c 0,0.90654 -0.72822,1.63672 -1.63476,1.63672 h -2.72852 c -0.90654,0 -1.63672,-0.73018 -1.63672,-1.63672 v -2.72657 c 0,-0.90654 0.73018,-1.63671 1.63672,-1.63671 z m 10,0 h 2.72852 c 0.90654,0 1.63476,0.73017 1.63476,1.63671 v 2.72657 c 0,0.90654 -0.72822,1.63672 -1.63476,1.63672 h -2.72852 c -0.90654,0 -1.63672,-0.73018 -1.63672,-1.63672 v -2.72657 c 0,-0.90654 0.73018,-1.63671 1.63672,-1.63671 z M 25.828966,1.3618322 c -2.34081,10e-4 -4.51668,1.20553 -5.76101,3.18821 -1.385777,-1.21052 -3.162627,-1.87895 -5.002667,-1.88196 -3.28881,0.004 -6.2042702,2.11678 -7.2320302,5.24089 -0.50955,-0.15245 -1.03841,-0.23068 -1.57028,-0.23226 -3.05724,6.3e-4 -5.53516004,2.4794398 -5.53469004,5.5366698 -4.7e-4,3.05726 2.47745004,5.53607 5.53469004,5.53669 1.74519,-0.002 3.38731,-0.82662 4.4309402,-2.22539 1.2799,0.90101 2.80614,1.38618 4.37137,1.38962 1.36092,-0.003 2.69619,-0.37053 3.86714,-1.06405 0.71541,0.4576 1.546887,0.70077 2.396117,0.70076 1.73651,-0.003 3.3126,-1.01591 4.03588,-2.59463 0.1546,0.0113 0.30953,0.0172 0.46454,0.0179 3.7597,4.8e-4 6.80767,-3.04749 6.8072,-6.8071998 -6.3e-4,-3.75893 -3.04827,-6.80568 -6.8072,-6.80522 z"
    />
  </svg>
