<svg>
  <path
     d="m 242.74038,253.09773 c 0.51433,-1.07928 1.6559,-1.72665 1.61356,-0.91492 -0.0239,0.46094 0.81704,0.93839 1.62556,0.95087 l 0.14216,-0.003 c 0.35985,-0.0197 0.54864,0.0589 0.70279,0.31 l 0.0564,0.10239 c 0.12833,0.25687 0.30906,0.39661 0.53915,0.41722 l 0.10162,0.002 c 0.60244,-0.0333 1.18813,0.4818 1.26323,1.11064 0.0471,0.39404 -8e-5,0.53163 -0.23546,0.59984 l -0.19197,0.0475 c -0.51558,0.15384 5.19128,0.63187 5.52075,0.97299 0.51997,0.53783 -4.39638,12.45632 -4.23164,13.13471 0.1077,0.44357 0.16396,1.07882 0.12509,1.41191 -0.0548,0.46757 -0.019,0.59717 0.23047,0.66761 l 0.0734,0.018 c 0.29472,0.0629 0.37101,0.19461 0.41023,0.81304 l 0.008,0.15154 c 0.0306,0.61443 0.0974,0.84516 0.2621,0.86849 l 0.0433,0.002 c 0.11969,-0.007 0.22452,0.051 0.25936,0.13478 l 0.0121,0.0531 c 0.006,0.11689 0.16371,0.15127 0.37389,0.0816 0.2332,-0.0774 0.44019,-3.5e-4 0.71457,0.27493 l 0.10623,0.11261 c 0.22339,0.24848 0.49823,0.45189 0.65135,0.48881 l 0.0514,0.006 c 0.11266,-0.006 0.21111,0.0466 0.24373,0.12341 l 0.0113,0.0487 c 0.004,0.0876 0.15017,0.20902 0.3407,0.29148 l 0.0985,0.0376 c 0.28317,0.0945 0.38731,0.21163 0.36782,0.43288 l -0.013,0.088 c -0.0428,0.2152 -0.004,0.33909 0.11112,0.3609 l 0.0541,0.003 c 0.11335,-0.006 0.2724,0.12005 0.38212,0.29418 l 0.0503,0.0907 c 0.18379,0.38076 0.67439,0.46417 1.23001,0.22203 l 0.12927,-0.0617 c 0.21888,-0.11342 0.28985,-0.0732 0.31519,0.22161 l 0.006,0.0962 c 0.0113,0.22729 0.0697,0.41576 0.13672,0.45643 l 0.0291,0.008 c 0.0706,-0.004 0.38478,0.20511 0.72772,0.48039 l 0.81536,0.67628 -0.64478,0.32269 c -0.79771,0.39912 -0.85979,0.40254 -1.39946,0.0759 -0.47446,-0.28735 -1.13067,-0.17727 -1.91214,0.31888 l -0.16936,0.11222 c -0.30983,0.21377 -0.60337,0.31082 -0.66426,0.21957 -0.0523,-0.0787 -0.30245,-0.17336 -0.58458,-0.22635 l -0.12239,-0.02 c -0.38983,-0.0541 -0.6357,-0.20584 -0.70589,-0.43582 -0.18587,-0.60818 2.11141,3.51962 1.50753,4.32787 l -0.17432,0.23085 c -0.36123,0.46682 -0.44411,0.44705 -1.09284,0.28343 -0.46075,-0.11638 -0.73441,-0.28077 -0.88244,-0.53497 l -0.0497,-0.0996 c -0.10937,-0.25824 -0.25065,-0.38392 -0.41729,-0.37214 l -0.073,0.0135 c -0.3251,0.0957 -1.29325,-0.26972 -1.49822,-0.56562 -0.063,-0.0911 -0.49303,-0.15095 -0.98992,-0.14327 l -0.46347,0.0161 c -0.59956,0.0164 -0.72143,-0.0382 -0.93131,-0.41788 l -0.10517,-0.19926 c -0.38603,-0.74916 -0.57614,-0.89809 -0.95938,-0.68681 l -0.0793,0.047 c -0.24688,0.15532 -0.32875,0.16082 -0.35074,-0.002 l -0.005,-0.0606 c -0.024,-0.48284 -0.55915,-0.22577 -0.7321,0.35184 -0.0948,0.31708 -0.61812,0.45303 -0.84509,0.25121 l -0.0502,-0.0576 c -0.15444,-0.23164 -0.61562,0.009 -0.60049,0.31315 0.01,0.19922 -0.076,0.21239 -0.43339,0.0663 -0.24515,-0.10024 -0.45316,-0.33505 -0.46245,-0.52186 -0.0118,-0.23738 -0.0507,-0.29158 -0.23315,-0.19732 l -0.14413,0.0845 c -0.23346,0.14696 -0.36035,0.17116 -0.45363,0.077 l -0.0381,-0.0476 c -0.0918,-0.13781 -0.41726,-0.0465 -1.0806,0.30309 -0.75456,0.39776 -0.94393,0.55801 -1.22733,1.24746 l -0.53979,1.38079 c -0.0654,0.16081 -0.11796,0.28538 -0.14829,0.35016 -0.2441,0.52082 -0.14342,1.02702 0.24184,1.2151 0.42368,0.20667 0.46481,0.49235 0.12941,0.98159 l -0.0776,0.108 c -0.22215,0.2964 -0.2834,0.52763 -0.22037,0.89344 l 0.0724,0.35285 c 0.0704,0.40586 -0.006,0.50416 -0.20308,0.24624 l -0.0476,-0.0659 c -0.0161,-0.0234 -0.0358,-0.0458 -0.058,-0.0666 0.0516,0.24586 0.0886,0.66947 0.088,1.08042 0.13563,0.0192 0.28935,0.0576 0.46074,0.1142 l -2.91612,-3.86353 c 0.19575,0.0735 0.64463,0.16686 0.99749,0.20713 0.83112,0.0951 1.12847,0.65977 0.64287,1.22055 -0.13742,0.15869 -0.28369,0.52856 -0.32509,0.82196 -0.0814,0.57548 0.259,0.83326 0.73567,0.59027 l 0.0971,-0.0553 c 0.74275,-0.46734 1.42573,-0.22196 1.97897,0.71106 0.17128,0.28875 0.68742,0.7904 1.14704,1.11456 0.63902,0.45056 0.81443,0.65727 0.85672,1.07023 l 0.008,0.1078 c 0.0178,0.35807 0.0924,0.54139 0.23428,0.57078 l 0.0564,0.004 c 0.11969,-0.007 0.22419,0.0444 0.25858,0.11919 l 0.0118,0.0475 c 0.004,0.0871 0.15789,0.15212 0.35666,0.15817 l 0.0876,-0.001 c 0.28392,-0.0157 0.41097,0.0537 0.44499,0.25608 l 0.0181,0.16574 c 0.0294,0.15575 0.12027,0.24336 0.26798,0.25845 l 0.0786,0.001 c 0.4467,-0.0247 0.58376,0.20948 0.33917,0.57979 -0.17743,0.26893 -0.38334,0.23931 -2.00995,-0.28971 -1.71348,-0.55719 -3.72568,-1.7031 -5.54455,-3.15769 -0.30535,-0.24419 -0.79087,-0.5225 -1.07851,-0.61808 l -0.22762,-0.068 c -1.23223,-0.34237 -5.12013,-1.14197 -5.50284,-1.12084 -0.57545,0.0318 -2.31567,1.18868 -3.13991,2.0878 -0.54265,0.59197 -0.69984,0.87203 -0.7011,1.30791 l 0.003,0.11249 c 0.0358,0.72007 -0.20354,1.07382 -0.74684,1.1038 -0.20957,0.0116 -0.53584,0.17265 -0.72481,0.35794 -0.36538,0.35787 -1.35318,2.54913 -1.4336,3.14359 l -0.005,0.0801 c 0.0247,0.52846 -1.90112,1.85324 -3.17822,2.2147 l -0.14998,0.0386 c -0.3538,0.0817 -0.72046,0.24759 -0.87353,0.38946 l -0.0469,0.0519 c -0.14179,0.19766 -0.51159,0.27956 -1.32365,0.29374 l -0.33794,0.003 c -0.65204,-0.002 -0.80722,-0.0659 -0.93672,-0.33608 l -0.11333,-0.26294 c -0.15421,-0.38129 -0.0687,-0.4559 0.81597,-1.58127 0.50544,-0.64308 1.02237,-1.48138 1.1489,-1.86299 0.11246,-0.33921 0.26185,-0.62655 0.35364,-0.68955 l 0.0315,-0.0128 c 0.0732,-0.004 0.1288,-0.13361 0.13662,-0.30274 l -0.002,-0.18412 c -0.16396,-0.21032 -0.68249,-0.14192 -1.43493,0.20278 l -0.16478,0.0781 c -1.44437,0.70621 -1.88715,0.67261 -3.77887,-0.28765 l -1.20299,-0.61807 c -1.10929,-0.58529 -1.30147,-0.76936 -1.75834,-1.32928 -0.30821,-0.37744 -0.54176,-0.89823 -0.72341,-1.61652 l -0.0657,-0.27872 -0.27943,-1.27124 0.56541,-1.21159 c 0.28279,-0.60602 0.65949,-1.32867 0.88221,-1.6958 l 0.0619,-0.099 c 0.28229,-0.43464 0.36683,-0.81968 0.33237,-1.51263 -0.04,-0.80354 -0.11041,-0.96857 -0.51869,-1.2159 -0.2295,-0.13901 -0.60511,-0.22565 -0.9234,-0.22046 l -0.15343,0.0104 c -0.87932,0.11041 -1.66987,-0.50782 -2.41668,-1.89309 l -0.11756,-0.2251 c -0.35822,-0.70745 -0.65579,-1.37706 -0.66172,-1.48842 -0.0162,-0.33318 1.04527,-0.7749 1.74858,-0.75296 l 0.1201,0.009 c 0.52951,0.0631 0.88852,-0.0692 2.04667,-0.75344 l 0.33376,-0.19989 c 1.18591,-0.72365 1.32523,-1.00354 1.40617,-2.43961 l 0.0103,-0.194 c 0.0411,-0.81529 -0.0175,-1.16044 -0.25456,-1.49689 -0.43656,-0.61981 -0.39678,-0.75685 0.20322,-0.6986 0.2481,0.0241 0.64884,-0.0632 0.95832,-0.20118 l 0.146,-0.0729 c 0.2269,-0.12757 0.51639,-0.24365 0.74369,-0.30401 l 0.0585,-0.0128 c -0.0878,-0.13221 -0.18761,-0.267 -0.33607,-0.32782 -0.10487,0.78012 -0.9677,0.75861 -1.31475,0.23134 -0.35344,-1.51135 -1.80293,-2.33782 -2.38452,-3.72224 -0.47315,-0.75569 0.16671,-1.5031 0.88512,-1.62665 0.66786,0.0526 0.99121,-0.50058 1.47707,-0.80798 1.06399,0.4965 2.24809,0.0561 3.22322,-0.4901 1.12164,0.24835 1.89296,-0.86677 2.85595,-1.17925 0.49163,-0.0773 0.89226,0.22964 1.32512,0.45153 0.0984,-0.5364 0.3195,-0.87468 0.6323,-0.89195 0.70659,-0.039 1.14615,-0.4737 1.80604,-1.78511 0.43428,-0.86323 0.66466,-1.56008 0.64519,-1.95164 -0.0288,-0.57873 1.2585,-3.74062 1.58927,-3.90367 0.0514,-0.0254 0.14584,-0.10441 0.24297,-0.20036 l 0.14268,-0.15208 c 0.47132,-0.54408 0.85172,-0.27224 0.95825,0.68487 0.0485,0.43601 0.0253,0.87443 -0.0501,1.03898 l -0.027,0.0443 c -0.0963,0.11124 -0.15937,0.49145 -0.13994,0.84508 0.0293,0.53695 0.22564,0.83389 1.19174,1.80255 0.74123,0.74337 1.25297,1.12884 1.63253,1.2271 l 0.0322,0.005 c 0.0401,-0.13274 0.13918,-0.12526 0.34843,-0.0718 0.62229,0.15851 0.75602,0.35147 0.56822,0.81939 l -0.11204,0.28801 c -0.25705,0.6935 -0.17403,0.82184 0.40154,1.13379 0.38706,0.20961 0.67143,0.52085 0.74384,0.81391 0.2356,0.95267 0.56963,1.35501 1.14706,1.38174 0.46446,0.0215 0.59315,-0.0647 0.79779,-0.53453 0.32808,-0.75321 0.29052,-1.08577 -0.22134,-1.53203 l -0.10873,-0.0909 -0.54259,-0.43718 0.58275,-1.39239 c 0.35505,-0.84878 0.69993,-1.42262 1.03031,-1.71477 l 0.0897,-0.0727 c 0.36729,-0.26964 0.68721,-0.79178 1.00965,-1.64845 0.47733,-1.26671 0.55233,-2.28405 0.21567,-2.8602 l -0.0679,-0.10281 c -0.38914,-0.52168 -0.12908,-1.1698 0.48016,-1.19615 0.68457,-0.0297 1.06137,0.28167 1.13936,0.94262 l 0.0121,0.14699 c 0.0392,0.78788 0.78116,1.92002 1.43333,2.18662 0.24609,0.10076 0.75656,0.16586 1.13455,0.14499 0.49191,-0.0272 0.73294,-0.13447 1.02748,-0.48425 l 0.0903,-0.11237 c 0.50174,-0.65092 1.86849,-1.29596 2.20063,-1.03888 0.11896,0.0921 0.2347,0.40476 0.257,0.69426 0.0223,0.28951 0.23691,0.80838 0.47688,1.15272 0.34468,0.49445 0.54948,0.62008 0.97532,0.59849 0.89505,-0.0456 1.15068,-0.56053 0.93544,-1.8853 -0.1517,-0.93584 -0.27456,-1.19892 -0.74811,-1.60333 -0.27713,-0.23649 -0.55748,-0.43224 -0.6686,-0.46995 l -0.0334,-0.007 c -0.27239,0.015 -0.17276,-0.9592 0.17179,-1.68246 z"
     id="genoa"
     fill="#6e8d4e"
     fill-rule="nonzero"
     style="stroke:#000000;stroke-width:0.5" />
</svg>
