<svg>
        <path d="M407.535084,322.58976 C407.535084,322.58976 404.241738,322.677937 402.422193,323.019087 C400.602632,323.360253 400.681311,323.270098 399.885256,323.838708 C399.089202,324.407319 398.875842,325.182561 397.738621,325.751172 C396.601401,326.31979 394.999057,326.562063 390.791324,327.585569 L390.752357,327.468537 C390.736245,327.481027 390.730875,327.495888 390.71339,327.507504 C390.479095,327.741823 390.245169,326.921997 390.01085,327.039153 C389.659401,327.273455 389.893948,327.780578 389.542499,328.014896 C389.366766,328.132044 388.748692,328.07609 388.059371,328.327134 C387.486869,328.535629 386.808787,328.47106 386.107883,328.210109 C385.360916,327.93164 384.520932,328.420992 383.922215,328.756526 C383.417586,329.039335 383.373477,328.396011 382.712292,329.02973 C381.540763,329.439774 381.627223,329.971191 381.580425,330.551891 C381.557071,330.842237 380.927079,331.476905 380.799837,331.800839 C380.672578,332.124782 381.043981,332.112896 380.721771,332.464346 C380.604624,332.552278 380.34342,332.434371 379.55088,332.581379 C379.154602,332.65494 379.286888,333.008351 378.848349,333.401 C377.94664,334.208245 378.12588,332.938035 376.389469,333.518025 C375.361548,333.861529 375.561894,334.548063 374.477014,334.415711 C373.535144,334.300804 371.871902,335.420744 371.666872,335.391455 C371.590809,335.456654 371.516463,335.5773 371.432692,335.664659 C371.400469,335.813065 371.361755,335.937872 371.432692,335.937872 C371.432692,337.460842 373.306311,337.381199 372.954853,338.787046 C371.783324,343.238834 371.081864,339.370787 370.261801,342.533899 C370.261801,342.533899 370.327499,343.029455 370.261801,343.47061 C370.195858,343.911757 369.646793,343.904033 369.793441,344.485387 C369.955687,345.128482 369.729747,345.611703 369.559262,346.046572 C369.391131,346.475327 369.559262,347.305272 369.559262,347.334561 C368.807357,348.31064 367.313651,347.495711 366.86621,348.388362 C366.521504,349.076074 366.604695,349.388147 365.773376,349.715376 L367.10039,352.057158 C367.451847,353.11154 365.812409,352.057158 365.812409,352.759689 C365.929564,355.805662 364.642589,354.16458 362.650997,354.51603 C362.680728,354.560621 362.724191,354.676984 362.650997,354.75021 C362.650997,354.75021 364.072335,354.951856 364.836665,355.140504 C365.318888,355.862441 364.241275,356.877153 365.695319,356.85782 C366.192305,356.851608 365.421853,358.184703 365.890466,358.419005 C366.788529,359.473125 367.875477,360.204218 369.09091,360.292436 C369.316507,361.285812 371.334779,362.165417 371.979109,362.985488 C372.213428,363.336946 372.056921,363.804921 372.408436,364.156379 C372.759894,364.390673 372.993747,364.663706 373.228065,364.780853 C373.292757,365.07697 373.359101,365.314681 373.423213,365.56145 C372.941651,365.973193 372.445327,366.52888 371.901052,367.122643 C371.042398,368.059354 371.666872,369.620548 371.744929,370.245022 C371.822995,370.869496 372.759706,370.166965 374.320891,369.152188 C373.696417,369.152188 373.774466,368.996065 373.540302,368.137411 C373.306123,367.278757 373.462237,366.966512 373.696417,367.278757 C373.930589,367.590995 373.774474,367.43488 374.477014,367.2007 C374.58767,367.163858 374.684226,367.086169 374.750218,366.96652 C375.018183,367.42991 374.940223,368.187937 375.413725,368.566738 C375.53088,368.801057 376.194207,368.33188 376.428501,368.449714 C377.482695,369.07445 376.857567,370.752112 377.872605,370.323144 C379.31715,372.002123 378.652499,372.079158 378.770283,372.742984 C378.848471,373.016196 378.692104,373.835883 378.926406,373.718728 C380.05864,373.523392 380.760542,373.172687 381.229163,372.469779 C381.46345,372.23546 381.424098,371.37688 381.77558,371.494035 C382.478488,371.845493 382.087114,373.367654 383.375798,373.016196 C383.93227,372.869752 384.51046,372.45527 385.054074,372.274632 C385.971158,372.106199 386.596319,372.166599 387.473921,371.572093 C387.82721,371.352431 388.468973,370.859883 388.644812,370.635381 C389.171929,370.654861 391.861572,371.640512 392.313608,370.830529 C392.546128,370.413888 393.269619,371.20091 393.679654,370.791561 C394.148267,370.440104 393.757589,369.737997 393.991891,369.269401 C396.139351,369.736297 395.278736,370.986635 396.52882,371.259921 C397.543973,370.908651 396.333346,370.596365 396.919123,369.97194 C397.134027,369.425556 397.456965,370.311627 398.050981,370.440292 C398.885398,370.621044 399.182635,370.732886 398.714488,371.494101 C400.237474,372.197008 400.938673,370.55676 401.875899,371.728272 C402.461659,372.431188 402.5783,371.025741 402.81261,371.025741 C403.046913,371.025741 402.812627,371.611125 403.04679,371.728272 C403.515411,371.962591 404.451926,371.376823 404.334771,371.728272 C403.28021,374.462433 402.851005,372.234202 400.002469,374.304243 C400.236771,374.890011 401.524515,374.304243 401.758809,374.772594 C401.875956,375.358346 401.095564,375.670346 400.626943,375.553191 C399.455431,375.436044 398.754166,374.031169 397.582629,373.79685 C395.591022,373.211106 393.212308,373.719169 391.337864,373.016262 C390.049188,372.54764 389.07503,370.986136 387.434888,372.040518 C385.091847,373.563488 387.084322,373.366828 385.795638,374.655504 C384.858411,375.592722 383.844779,374.616537 382.673259,374.616537 C382.132049,375.292698 382.175504,375.680139 382.087817,376.724147 C381.81427,377.66206 380.995997,378.557842 380.097297,379.300109 C379.287264,380.889365 379.533011,381.09294 382.009752,381.251597 C382.595512,381.837365 382.321728,382.929561 382.790349,383.515322 C383.024651,383.866779 383.336578,383.007872 383.688035,383.125027 C385.211022,383.593649 388.527787,385.739016 388.410632,387.613444 C388.17633,390.307951 387.434782,388.861452 387.669068,390.618741 C387.903371,391.907409 387.551414,391.477444 388.449665,392.609253 C388.800992,392.999556 389.464441,393.311654 389.464441,393.545973 C389.425474,393.995041 389.859918,395.630392 390.557267,395.458428 C391.781946,395.156433 391.200346,396.41506 392.11846,395.926787 C394.110035,394.989569 390.16394,391.437676 394.343153,391.360305 C395.046068,391.477452 394.499087,392.335747 394.850545,392.92149 C395.341883,393.547403 395.668678,392.110101 397.738744,395.653575 C398.792798,397.371234 398.319305,398.243678 398.636431,398.893044 C398.953564,399.542409 399.396714,399.029556 400.353738,399.985877 C400.588106,399.751771 400.352839,398.659052 400.236714,398.307602 C399.299872,396.472436 400.237613,396.200131 400.275681,394.053357 C402.150689,392.528981 402.304147,392.803591 403.554174,394.716864 C404.256886,395.497583 404.998163,395.965673 405.232458,396.199992 C405.74003,396.941678 406.637341,397.019482 406.988798,397.253793 C407.53546,398.229602 408.354698,398.034578 408.862221,397.722153 C407.418248,396.628804 408.589065,396.551376 406.481406,395.380371 C406.364259,395.146052 406.325292,394.599896 406.325292,394.365594 C406.208136,394.131292 405.700817,393.936455 405.700817,393.584997 C405.700817,393.233548 406.989035,393.858782 406.520439,392.804401 C406.051817,391.750027 404.335033,389.175087 403.866411,388.355008 C403.632109,388.003559 402.929839,388.355008 402.69552,388.003747 C402.578373,387.652289 402.930387,387.184379 402.812553,386.715766 C402.343932,385.895711 399.572578,382.735428 400.509796,381.446744 C401.095564,380.743837 401.016665,382.227341 401.953891,382.227341 C402.071046,382.227341 402.695398,381.680866 402.812553,381.798014 C403.046856,382.149471 405.115114,382.695635 405.466572,382.81279 C405.261804,383.292627 405.294428,383.602559 405.115302,383.632411 C404.881123,383.671379 404.764728,384.256886 405.232335,384.256886 C405.700687,384.256886 405.271302,384.686213 406.169046,384.803302 C407.066733,384.920335 405.778752,384.295918 406.637406,384.022714 C407.49606,383.749501 407.652174,383.71046 407.14479,383.593379 C406.637406,383.476354 406.754488,383.320174 407.417995,383.007937 C407.500932,382.96897 407.535649,382.930379 407.535027,382.890913 C408.81185,382.743431 410.461744,382.356921 409.915842,381.720014 C409.740787,381.509956 409.545787,381.369332 409.330392,381.251662 C409.666025,381.00585 409.992624,380.813768 409.681662,380.627188 C409.29136,380.393008 409.330327,380.393008 409.213302,380.822335 C409.15985,381.018496 409.044371,381.090782 408.940098,381.09554 C408.861787,381.068564 408.787008,381.038343 408.705918,381.017482 C408.570804,380.982757 408.45646,380.922439 408.315616,380.900458 C408.314798,380.896698 408.277401,380.904218 408.276649,380.900458 C408.219452,380.638289 408.28927,380.178398 408.354714,379.807624 C408.471738,379.144117 408.276649,379.027027 407.49606,379.300232 C406.715463,379.573444 407.222847,379.885681 407.652174,380.158894 C407.834357,380.27479 407.957831,380.572183 408.042477,380.861425 C407.052853,380.742022 405.980578,380.790112 405.232335,380.041804 C404.880877,379.690346 405.310515,379.105346 405.076213,378.636733 C404.959057,378.402414 404.256591,378.558921 404.256591,378.207406 C404.256591,377.855948 405.349605,377.309777 404.998155,377.192629 C404.178076,376.841172 402.773643,377.271185 402.422193,376.451065 C403.04648,375.514027 405.621869,374.538872 407.0277,374.070251 C407.847771,373.835948 407.222022,372.821033 408.549861,372.54809 C409.72139,372.899548 411.008308,375.240839 411.828362,375.826591 C412.062673,375.943738 412.179493,375.358166 412.413804,375.475322 C412.530959,375.475322 413.935899,376.41191 414.053054,376.646213 C414.17021,376.880515 413.93603,377.231523 414.170079,377.465834 C414.521537,377.582989 414.989578,377.817292 415.223888,377.465834 C416.512564,375.474234 415.61451,375.007526 415.028733,373.953161 C414.794431,373.484556 414.521226,372.78258 414.287169,372.19682 C414.170022,371.728199 413.467548,371.37751 413.467548,370.791749 C413.467548,369.971678 415.458747,370.558346 414.170079,369.152499 C412.529946,367.278063 412.063736,368.020698 409.720687,367.90355 C408.19752,367.435125 408.628123,366.459569 408.159501,366.225267 C407.339422,365.639499 405.818218,366.654921 404.881,366.069153 C403.436529,365.015163 405.388826,364.742327 403.983313,364.039599 C403.280406,363.68815 402.578692,364.937409 401.758621,364.703106 C401.055714,364.585959 401.368695,363.415264 400.665787,363.180946 C399.845741,363.024643 398.714798,363.063921 397.777589,363.063921 C397.54327,363.181076 397.504507,363.337191 397.270196,363.220044 C396.918747,362.985741 396.724049,362.36139 396.255428,362.36139 C395.786807,362.36139 395.553076,362.946774 395.201627,363.063921 C394.850169,363.181076 393.796368,362.829807 394.147817,362.712651 C395.885251,360.917033 395.745371,362.168597 397.192139,361.65885 C398.613861,361.157907 397.386837,361.034752 399.651011,360.253779 C400.646807,359.375131 400.50597,358.371422 400.002281,358.653561 C399.270395,359.06354 399.202401,358.556139 399.182659,357.990054 C398.831202,357.755752 398.285161,357.599817 397.660499,356.975278 C397.426196,356.858131 397.075114,356.506853 396.957959,355.804387 C397.464902,355.297068 397.777466,355.726828 398.011768,355.101856 C398.011768,354.750398 397.660311,354.048046 398.011768,354.048046 C398.707204,354.351741 399.660436,354.635621 400.47064,354.789619 C400.949038,355.312452 400.999409,355.528828 401.290262,355.804387 C401.661052,356.155657 401.934248,356.09712 401.680564,356.428861 C401.426864,356.760635 401.583019,357.033823 401.095114,357.287515 C400.607234,357.541207 400.294997,357.716809 400.509673,357.36558 C400.724324,357.014311 400.684768,356.858188 400.39264,356.975278 C400.099924,357.092311 400.236526,356.799651 400.080403,357.404605 C399.924289,358.009575 399.729134,358.399869 400.97809,357.872965 C402.227038,357.346084 402.71491,356.76061 403.319872,356.272747 C402.525093,353.696294 399.388899,351.71582 397.309294,350.769553 L395.787134,347.686199 C393.152365,345.971041 394.444311,345.816831 393.562433,345.383441 C392.571992,344.896706 391.630556,344.115586 391.454831,343.002627 L392.274452,339.489643 C392.157305,338.903891 391.136619,338.824608 391.103561,338.201662 C391.083828,337.83106 391.920142,338.009768 391.884158,337.733302 C391.825458,337.281954 392.092597,337.381975 392.625722,337.186886 C393.086112,337.018428 392.410965,336.449515 392.898935,336.250174 C393.245292,336.108676 393.962553,334.991262 394.186916,335.157341 C397.651319,337.721621 391.277864,335.31245 394.889447,338.670014 C396.197651,339.002286 397.81618,340.01591 400.002346,340.387322 C400.494984,341.35333 399.955262,341.361054 400.470706,342.104638 C401.043935,342.931567 401.143875,343.460883 401.407417,344.056125 C402.949597,343.607384 403.71006,344.427095 405.622629,344.056125 C406.208398,343.001744 398.361632,342.184264 401.056147,339.255463 C401.407605,338.786842 402.070613,339.528668 402.656365,339.528668 C403.124986,339.645823 403.631864,339.255398 404.100469,339.372553 C405.974905,340.309763 406.089975,342.416499 407.964411,343.119406 C408.78449,343.470864 408.901499,341.129262 408.198591,340.426354 C407.261381,339.489128 404.100281,339.334272 404.451738,337.92845 C404.627463,337.14724 406.209984,336.527229 407.14479,337.264943 C408.208245,338.104174 408.881259,337.225232 410.032989,337.772335 C410.032989,337.772335 411.076891,338.874373 411.867387,339.68479 C412.06748,339.889926 413.194654,339.510046 412.999253,339.021283 C412.589308,338.19142 412.151373,338.426629 411.360003,337.69427 C410.315488,336.727649 409.496676,336.513717 408.549861,336.445322 C408.081256,336.328166 407.925649,335.274357 407.457027,335.39152 C407.105569,335.39152 407.730232,335.859733 407.730232,336.094052 C407.613084,336.328371 407.496117,336.445322 407.37897,336.445322 C406.910349,336.562469 406.013038,336.250305 405.778752,336.015995 C404.744202,334.41554 406.285997,334.786477 406.169046,334.259654 C406.052144,333.732856 404.783774,334.318354 404.334649,333.16682 C403.983191,332.932501 402.577875,332.816114 403.397937,331.761749 C405.506692,329.067234 405.699493,331.918428 407.925387,330.981153 C410.502747,329.809624 409.602967,328.015346 410.891643,327.195267 C411.017929,327.127698 411.095946,327.128327 411.20388,327.078243 L409.447548,324.502215 L408.315681,324.502215 L407.535084,322.58976 Z M425.449744,338.435834 C425.412526,338.428313 425.361943,338.435899 425.293621,338.474801 C424.747204,338.787046 424.200787,339.177341 424.12273,339.879872 C424.044673,340.582411 423.576313,339.177341 422.873782,339.489578 C422.171243,339.801831 421.546768,339.333463 421.312589,340.894649 C421.078425,342.455842 421.702899,342.143605 422.48348,342.533899 C423.26406,342.924193 423.654371,342.846136 423.264076,341.363008 C422.873782,339.879872 423.810493,341.909425 424.669147,342.455842 C425.527801,343.002259 424.903327,341.987482 425.215564,339.957937 C425.283877,339.548131 425.710147,338.487005 425.449744,338.435777 L425.449744,338.435834 Z M437.314785,346.20276 C436.300008,346.358875 435.51942,347.217529 433.411809,348.466485 C431.304207,349.715433 432.084812,350.49603 434.270463,350.96439 C436.456123,351.432741 435.441354,350.886324 436.690311,349.325139 C437.939259,347.763946 437.861202,349.481253 436.846425,350.652153 C435.831657,351.823044 436.300008,351.823044 439.188215,352.213338 C442.076414,352.60364 441.608054,351.198569 441.139703,351.198569 C440.671343,351.198569 439.812689,349.949613 440.281049,349.793499 C440.749401,349.637376 441.217752,350.652153 442.076414,350.808267 C442.935068,350.96439 441.9203,349.949613 439.188215,347.685888 C438.641798,347.139471 438.329561,346.046638 437.314785,346.20276 Z M421.780948,346.593054 C421.6257,346.623153 421.507736,346.789967 421.507736,347.100439 C421.507736,347.928398 421.368926,348.097902 421.976095,347.490741 C422.321079,346.869782 422.039668,346.542937 421.780948,346.593054 L421.780948,346.593054 Z M360.85551,352.993935 C360.751221,353.00667 360.62133,353.023158 360.50424,353.071992 C359.56752,353.462294 357.616041,353.618409 358.16245,354.477063 C358.708866,355.335717 359.099169,354.945422 359.645586,355.335717 C361.675131,358.614218 362.37767,358.848381 363.704676,359.160635 C365.031689,359.472872 365.187812,359.316754 364.56333,358.692275 C363.938847,358.067793 362.455728,358.223924 362.221548,357.36527 C361.987384,356.506608 361.987368,356.662722 361.831253,355.882134 C361.675131,355.101537 361.050657,355.647954 360.972599,355.101537 C360.894534,354.555128 361.675131,354.633185 361.831253,354.086768 C361.967847,353.608665 361.585482,352.90427 360.85551,352.993935 L360.85551,352.993935 Z M410.267169,353.306172 C410.094673,353.2717 409.83588,353.578567 409.642695,354.047736 C409.256316,354.986074 408.627444,356.415635 410.228136,354.594153 C410.50412,353.711016 410.439853,353.340668 410.267104,353.306172 L410.267169,353.306172 Z M406.247104,355.101537 C406.019422,355.115401 406.215134,355.498886 407.457027,356.740787 C408.560954,356.685586 408.31291,357.029025 408.588894,356.31146 C408.864869,355.593913 408.795142,356.183736 407.691207,355.686986 C407.139248,355.438608 406.474793,355.087738 406.247104,355.101537 Z M404.490763,355.335717 C404.341564,355.360698 404.197065,355.470946 404.100469,355.608929 C403.71409,356.160888 404.04364,357.077523 405.03718,356.194371 C405.451147,355.65621 404.938392,355.260684 404.490763,355.335717 Z M417.409613,356.54564 C416.776466,356.506428 416.789063,357.41945 417.175433,357.950711 C417.617005,358.557864 418.195294,358.907523 419.244011,359.238692 C420.292736,359.569877 420.393657,358.831076 419.400134,358.223924 C418.406586,357.616755 418.604995,357.120455 417.72185,356.623698 C417.604572,356.575362 417.500063,356.551264 417.409613,356.54564 L417.409613,356.54564 Z M403.163757,358.184891 C402.564992,358.207125 402.098087,358.884766 401.32936,359.004512 C400.860738,359.35597 400.744172,359.862929 400.27555,360.331526 C399.924101,360.682984 399.417084,360.72164 399.065635,361.07309 C398.362973,361.658678 398.011826,362.478161 398.011826,362.478161 C398.011826,362.478161 399.22179,362.165916 399.690109,361.853687 C400.158411,361.541458 399.885068,361.22927 400.236526,361.112123 C401.368736,362.400038 401.226542,359.924123 404.685918,363.024578 C406.707371,364.8363 408.491218,364.605005 408.666951,365.132188 C408.901253,365.483638 408.822935,366.693185 409.057245,367.044643 C411.673065,367.240616 411.827594,366.536981 413.467605,366.420169 C413.585259,367.122888 413.584384,367.434569 414.794619,367.395913 C414.833839,367.864403 415.028798,368.293469 415.028798,368.722926 C415.653338,368.722926 415.926371,369.230311 416.160665,369.230311 C416.238967,369.815891 416.472837,370.166834 416.589992,370.518292 C417.25349,370.479324 418.931708,371.845174 419.048864,372.079485 C419.088207,371.143215 419.594651,371.260853 420.727139,372.079485 C421.762,369.658689 420.805327,369.864226 420.961319,368.683894 C419.673272,369.181828 417.858812,369.425213 417.097376,368.566869 C416.511289,367.434553 414.9117,365.561629 415.536183,363.961354 C415.184733,363.375594 414.832,363.300921 414.248202,362.907553 C413.818777,362.618196 414.073139,362.439259 414.365234,362.205014 C413.590147,361.578807 412.692101,362.010422 411.63315,362.361136 C410.930234,362.126834 410.150341,362.419837 409.52554,362.205014 C409.291237,362.087866 408.901188,361.307335 408.666886,361.307335 C408.198264,361.307335 407.613272,361.581177 407.261815,361.346302 C405.797659,361.014275 405.153469,360.493232 405.11518,359.043545 C403.922659,359.292545 404.383719,358.419144 403.436905,358.223924 C403.344101,358.197071 403.249237,358.181703 403.163692,358.184956 L403.163757,358.184891 Z M436.300008,358.848398 C434.973003,359.004512 434.5827,359.785109 434.5827,360.253469 C434.5827,360.721828 436.846425,362.04885 436.612253,362.829431 C436.378074,363.610011 435.597477,363.766142 436.065837,364.468681 C436.534188,365.171213 437.705087,365.171213 438.173439,364.858975 C438.641798,364.546738 439.110158,363.06361 438.485676,360.643763 C438.173431,359.082578 437.627022,358.692275 436.300008,358.848398 L436.300008,358.848398 Z M431.148084,359.550929 C429.988973,359.826913 431.351905,360.855087 431.655469,360.799886 C431.959057,360.744684 432.555591,359.412937 431.148084,359.550929 Z M365.304894,361.229213 C365.024169,361.199482 365.219095,361.623643 365.695196,361.892719 C366.329962,362.251493 366.479561,362.031529 365.734163,361.42436 C365.527172,361.286376 365.398409,361.239144 365.304837,361.229213 L365.304894,361.229213 Z M450.897142,368.371657 C450.750771,368.430234 450.467815,368.566804 449.648185,368.605837 C448.008951,368.683894 447.85282,368.840016 446.603864,369.386425 C445.354916,369.932842 446.135512,371.025676 447.150281,370.557324 C448.477294,370.557324 448.477278,371.415978 449.101768,371.103741 C449.726259,370.791496 449.882365,369.542548 450.428782,369.542548 C450.975199,369.542548 451.755796,368.918074 451.287436,368.527771 C451.053272,368.332624 451.043504,368.31312 450.897142,368.371657 L450.897142,368.371657 Z M423.732436,370.947619 C422.873782,371.103741 422.405422,371.572093 423.810493,372.742984 C426.464512,375.006717 427.635411,376.021485 429.040482,376.489845 C430.445553,376.958204 430.679725,376.333722 430.601668,375.787305 C430.52361,375.240888 428.025689,374.850594 427.245109,374.694471 C426.464529,374.538357 427.245101,373.601646 426.464512,372.821049 C425.683924,372.04046 424.59109,370.791496 423.732436,370.947619 Z M442.974101,371.728215 C442.871684,371.766054 442.661864,371.88433 442.388651,372.11851 C442.115447,372.352689 441.894681,372.51003 441.725144,372.586869 C442.873106,371.999286 443.200793,371.64455 442.974101,371.728215 L442.974101,371.728215 Z M441.725144,372.586869 C441.216534,372.817387 441.042134,372.528292 440.281049,373.055229 C439.266272,373.75776 439.34433,375.162831 440.281049,374.616414 C441.21776,374.069997 440.749401,374.694471 442.778954,372.977163 L440.202984,373.289401 C440.848237,373.028237 441.316728,372.795921 441.725144,372.586869 Z M373.032787,371.88433 C372.832703,371.911935 372.791292,372.186292 373.149812,372.821049 C374.198545,374.697725 374.678684,374.800951 374.789063,374.304177 C374.899474,373.807403 374.254891,373.148294 373.813319,372.430747 C373.592545,372.071973 373.232807,371.856733 373.032722,371.88433 L373.032787,371.88433 Z M371.978986,372.11851 C371.876324,372.253886 371.798602,372.373787 371.705774,372.508812 C372.074954,373.399861 372.135542,373.835098 371.900929,374.22612 C371.549659,374.811561 371.783896,375.357978 370.84712,374.4603 C370.799161,374.414335 370.769937,374.35776 370.730095,374.304177 C369.709997,376.739948 370.196095,378.468594 370.925243,376.919172 C371.159545,376.45055 370.573793,375.631305 370.925243,375.397011 C371.628158,374.811243 371.276063,377.50449 372.096134,377.738793 C372.564747,377.855948 373.032591,377.270441 373.501204,377.270441 C374.321267,377.387589 374.671597,378.558872 375.608815,377.738793 C376.897499,376.68442 373.852801,375.397076 373.267033,375.279921 C372.681272,375.162766 373.032853,374.109087 373.032853,373.99194 C372.79855,373.289016 372.330501,372.704253 371.979044,372.11851 L371.978986,372.11851 Z M408.471804,373.75776 C407.809441,373.868172 407.315447,374.265144 408.198591,374.265144 C409.081736,374.265144 408.624248,374.317608 408.237559,374.538357 C407.851188,374.759147 407.1297,375.199093 407.847264,375.475068 C408.564812,375.751052 408.190213,375.580354 409.018155,374.421267 C408.907744,373.979703 409.13406,373.647357 408.471738,373.75776 L408.471804,373.75776 Z M419.204978,376.138575 C418.947223,376.112351 418.715929,376.369166 418.736627,377.114319 C418.791828,379.101406 418.608436,379.375747 419.712371,378.05103 C420.126346,377.050599 419.634559,376.182243 419.204978,376.138575 Z M432.787335,376.724025 C431.616444,376.880139 430.99197,378.441316 432.397041,378.207153 C433.645989,377.348499 433.958243,376.567902 432.787335,376.724025 Z M409.174335,376.919172 C409.062681,376.920398 408.917504,376.948894 408.745008,376.997229 C407.365106,377.218011 408.63185,378.671589 409.018221,378.28521 C409.356297,377.947134 409.956142,376.908602 409.174335,376.919172 L409.174335,376.919172 Z M426.932872,377.894916 C426.308561,377.870311 426.562098,380.061063 427.245109,379.92446 C428.025689,379.768346 427.791526,379.143864 427.245109,378.05103 C427.118251,377.943749 427.022063,377.898422 426.932872,377.894916 L426.932872,377.894916 Z M420.961319,379.495134 C420.601687,379.59867 420.310801,380.276899 420.766172,380.939237 C420.655768,382.15355 420.955777,382.582877 421.507736,381.368564 C422.059703,380.154234 421.754169,380.053804 421.312589,379.612223 C421.202177,379.501812 421.081196,379.460392 420.961319,379.495199 L420.961319,379.495134 Z M375.179422,380.39282 C375.10461,380.397807 375.023308,380.431787 374.945243,380.470877 C374.32076,380.783131 373.852409,381.095351 374.086589,381.641768 C375.179414,383.202962 375.803896,384.920253 376.818673,384.139673 C377.83345,383.359076 377.208967,382.344308 378.145687,382.734602 C379.082398,383.124905 378.379866,382.110128 377.208967,381.563711 C376.184447,381.085599 375.703433,380.355463 375.179422,380.39282 L375.179422,380.39282 Z M435.129117,380.900204 C434.605106,381.025101 433.958226,382.393093 433.411809,382.734602 C432.787319,383.124905 433.489866,383.749379 434.036283,384.295796 C435.207183,385.466695 435.675526,385.700866 435.987771,384.45191 C436.300008,383.202962 435.909714,381.251474 435.363297,380.939237 C435.294984,380.90027 435.203978,380.882409 435.129117,380.90027 L435.129117,380.900204 Z M432.006738,382.149161 C431.413973,382.064981 430.308943,383.885989 429.430777,384.998327 C428.259886,386.481463 429.899136,385.310564 431.304207,385.232507 C432.709278,385.15445 432.162861,384.139689 432.397041,382.968782 C432.338463,382.422365 432.204338,382.177207 432.006738,382.149161 Z M422.2493,383.476166 C422.174741,383.490659 422.123144,383.545232 422.054153,383.593199 C421.502193,384.310755 422.5493,385.40358 422.990864,384.686025 C423.377243,384.058166 422.771504,383.374975 422.2493,383.476109 L422.2493,383.476166 Z M441.647087,383.905493 C441.488398,383.933098 441.40148,384.013158 441.373883,384.178706 C441.318673,384.509875 440.656793,385.006174 439.773657,385.778924 C438.890512,386.551673 439.02655,386.780311 439.57851,386.55952 C440.130477,386.33873 440.327921,386.28124 441.10067,385.232507 C441.597444,384.459757 442.862553,384.054929 442.310594,383.944526 C442.03461,383.889324 441.805777,383.877831 441.647087,383.905559 L441.647087,383.905493 Z M425.098474,385.466687 C424.786237,385.476676 424.669335,385.700866 425.137441,386.247283 C426.230275,388.042649 427.088913,386.481463 426.308332,385.935046 C425.918038,385.661834 425.410646,385.456935 425.098409,385.466687 L425.098474,385.466687 Z M433.489866,387.652354 C433.061226,387.72854 433.018139,388.496384 433.645989,388.97936 C434.694722,389.641722 435.469768,389.823259 434.973003,388.940392 C434.476245,388.057248 434.292174,387.818 433.685022,387.652411 C433.609082,387.631681 433.551109,387.641172 433.489866,387.652411 L433.489866,387.652354 Z M446.213569,388.120706 C445.944485,388.086234 445.792711,388.289417 446.096545,388.97936 C446.869294,389.586529 447.364425,389.258114 447.033256,388.706155 C446.867668,388.430172 446.482719,388.155202 446.213635,388.120706 L446.213569,388.120706 Z M424.395935,388.511008 C423.947676,388.573575 423.762469,389.275044 424.317877,389.564809 C424.952635,389.895995 425.363839,388.842193 424.59109,388.511008 C424.518649,388.49027 424.459973,388.502262 424.395935,388.511008 L424.395935,388.511008 Z M432.162861,389.018392 C432.068684,389.01218 431.860376,389.154995 431.538379,389.447719 C430.679725,390.2283 430.679725,390.774717 431.616444,390.228316 C432.153101,389.447736 432.319891,389.02906 432.162861,389.018392 L432.162861,389.018392 Z M425.488768,389.330629 C425.231324,389.399196 425.198986,389.75049 425.488768,389.916079 C425.875163,390.136853 426.143619,389.590452 425.840038,389.369662 C425.708946,389.321327 425.574583,389.307717 425.488768,389.330695 L425.488768,389.330629 Z M423.303109,389.916079 C422.903054,389.945302 422.639602,390.150259 423.029896,390.462496 C423.810477,391.086986 423.186019,391.477264 422.717659,390.930847 C422.2493,390.384431 420.531992,392.570098 423.264076,391.711444 C424.903327,391.008913 424.59109,391.32115 424.35691,390.462496 C424.239886,390.033169 423.703155,389.886798 423.303109,389.916079 Z M428.53309,390.61861 C428.465774,390.635474 428.404572,390.67382 428.376975,390.735643 C428.266564,390.984022 428.816913,391.001343 429.313687,391.360117 C429.81046,391.718891 430.27685,391.399959 429.586899,390.93079 C429.090125,390.682395 428.734924,390.568093 428.53309,390.618553 L428.53309,390.61861 Z M435.63651,392.101743 C435.409343,392.102973 435.753534,392.570098 436.143894,392.960401 C436.768384,393.584883 435.597477,393.975169 436.690311,394.131292 C437.783144,394.287406 437.392858,393.819054 436.768368,392.726221 C436.124398,392.257861 435.772801,392.100831 435.63651,392.101743 L435.63651,392.101743 Z M440.320074,392.453008 C439.655251,392.457995 439.933973,393.19458 440.827466,393.19458 C441.84861,393.19458 441.885665,392.657654 440.671343,392.492041 C440.536809,392.457569 440.415044,392.452199 440.320074,392.453074 L440.320074,392.453008 Z M406.325161,399.361281 C404.451738,399.361281 406.559357,402.561717 407.652174,402.873954 C408.745,403.186207 407.808297,401.625005 408.354714,401.390826 C408.901131,401.156654 408.276649,400.454106 406.325161,399.361281 Z M450.272659,407.323346 C450.272659,407.323346 449.672169,408.890016 448.906621,409.274834 C448.141098,409.659659 447.83397,408.356965 446.174537,410.094455 C445.705924,410.445913 445.472324,411.655787 444.886556,411.421469 C441.723632,411.46006 444.145131,408.923613 443.637608,408.182 C442.583226,407.947681 440.90585,409.626038 440.320074,409.743193 C439.968624,409.860341 439.188403,409.469981 438.680823,409.118711 C437.275008,409.001564 436.300711,410.250766 435.012027,409.899308 C434.30912,409.782161 435.012845,408.767311 434.192406,409.001621 C432.903738,409.235932 432.007441,409.040466 430.718757,409.391924 C429.664384,409.743381 428.845981,410.679717 427.674436,411.031174 C427.088692,411.26546 426.308725,411.772796 425.722948,411.655649 C425.020041,411.538493 424.825589,410.719068 424.395935,410.055431 C423.810183,410.133365 422.639676,410.563125 422.522512,409.977365 C422.288218,409.391597 424.474294,410.289872 423.459223,408.611327 C421.468441,407.947559 422.288635,409.508883 421.702883,409.743193 C420.882812,410.094643 419.673787,410.28979 418.853717,409.938341 C415.965289,405.293695 418.243736,410.431313 417.37058,410.601847 C416.660766,410.740477 416.53179,407.771204 416.199689,409.391924 C415.84824,410.211995 416.394837,411.264847 416.394837,412.202065 C416.277689,412.904973 415.574275,415.129297 417.331556,415.129297 C418.151627,415.012142 419.711921,414.77815 420.531992,414.543847 C421.352071,414.4267 421.585425,414.075177 422.288332,414.192578 C422.63979,414.192578 422.288332,414.69997 422.639602,414.69997 C425.530907,414.621913 424.236158,414.192128 427.206084,413.958406 C429.958368,415.507117 430.761869,414.065441 431.928681,414.738995 C432.387134,415.003649 431.492234,415.996926 432.240918,416.885638 C432.943826,417.47139 439.500076,414.622035 440.202984,414.387733 C440.671597,414.212 443.740131,413.602223 446.486774,412.748482 C448.896992,411.999332 449.043191,413.21694 450.741019,411.382436 C450.780738,407.828768 450.272659,407.323346 450.272659,407.323346 L450.272659,407.323346 Z" id="greece" stroke="#000000" stroke-width="0.5" fill="#DCCFBE" fill-rule="nonzero"></path>
        </svg>