<svg>
        <path d="M407.5 322.6s-3.3 0-5 .4c-1.9.4-1.8.3-2.6.8-.8.6-1 1.4-2.2 2-1.1.5-2.7.8-7 1.8v-.1c-.2.2-.5-.6-.7-.5-.3.3-.1.8-.5 1-.1.1-.8 0-1.4.3-.6.2-1.3.2-2 0-.7-.4-1.6.1-2.2.5-.5.2-.5-.4-1.2.2-1.2.4-1 1-1.1 1.6 0 .2-.7.9-.8 1.2-.1.3.2.3 0 .7h-1.2c-.4.2-.3.5-.8.9-.9.8-.7-.5-2.4.1-1 .4-.8 1-2 1-.9-.2-2.5 1-2.7.9l-.3.3v.2c0 1.6 2 1.5 1.6 2.9-1.2 4.4-2 .6-2.7 3.7v1c-.1.4-.7.4-.5 1 .2.6 0 1.1-.2 1.5-.2.5 0 1.3 0 1.3-.8 1-2.3.2-2.7 1-.4.8-.3 1-1.1 1.4l1.3 2.4c.4 1-1.3 0-1.3.7.1 3-1.2 1.4-3.1 1.7v.3l2.1.3c.5.8-.6 1.8.9 1.8.5 0-.3 1.3.2 1.5.9 1 2 1.8 3.2 1.9.2 1 2.2 1.9 2.9 2.7.2.3 0 .8.4 1.2l.8.6.2.8-1.5 1.5c-.9 1-.2 2.5-.2 3.1.1.7 1 0 2.6-1-.6 0-.5-.2-.8-1-.2-1 0-1.2.2-1 .2.4 0 .2.8 0l.3-.2c.2.4.1 1.2.6 1.6.1.2.8-.3 1-.2 1 .7.5 2.4 1.5 2 1.4 1.6.8 1.7.9 2.3 0 .3-.1 1.1.1 1 1.2-.2 1.9-.5 2.3-1.2.3-.3.2-1.1.6-1 .7.3.3 1.9 1.6 1.5l1.7-.7c.9-.2 1.5-.1 2.4-.7.3-.2 1-.7 1.1-1 .6 0 3.3 1 3.7.2.2-.4 1 .4 1.4 0 .4-.4 0-1 .3-1.5 2.1.4 1.3 1.7 2.5 2 1-.4-.2-.7.4-1.3.2-.6.6.3 1.2.4.8.2 1 .3.6 1 1.5.8 2.2-.8 3.2.3.6.7.7-.7 1-.7l.1.7c.5.3 1.5-.3 1.3 0-1 2.8-1.4.5-4.3 2.6.2.6 1.5 0 1.8.5 0 .6-.7.9-1.2.8-1.1-.2-1.8-1.6-3-1.8-2-.6-4.4 0-6.3-.8-1.3-.5-2.2-2-3.9-1-2.3 1.6-.3 1.4-1.6 2.7-1 .9-2 0-3.1 0-.6.6-.5 1-.6 2-.3 1-1.1 1.9-2 2.6-.8 1.6-.6 1.8 2 2 .5.5.2 1.6.7 2.2.2.4.5-.5.9-.4 1.5.5 4.8 2.6 4.7 4.5-.2 2.7-1 1.3-.7 3 .2 1.3-.1.9.7 2 .4.4 1 .7 1 1 0 .4.5 2 1.2 1.9 1.2-.3.6 1 1.5.4 2-1-2-4.5 2.2-4.5.7 0 .2 1 .6 1.5.4.6.8-.8 2.8 2.8 1 1.7.6 2.5 1 3.2.3.6.7.1 1.7 1 .2-.1 0-1.2-.2-1.6-.9-1.8 0-2.1 0-4.2 2-1.6 2.1-1.3 3.4.6.7.8 1.4 1.3 1.6 1.5.5.7 1.4.8 1.8 1 .5 1 1.4.8 1.9.5-1.5-1-.3-1.1-2.4-2.3a3 3 0 0 1-.2-1c0-.3-.6-.5-.6-.8 0-.4 1.3.3.8-.8-.4-1-2.2-3.6-2.6-4.4-.3-.4-1 0-1.2-.4-.1-.3.2-.8.1-1.3-.5-.8-3.2-4-2.3-5.3.6-.7.5.8 1.5.8 0 0 .7-.5.8-.4.2.3 2.3.9 2.7 1-.2.5-.2.8-.4.8s-.3.7.1.7c.5 0 0 .4 1 .5.9.1-.4-.5.4-.8.9-.3 1-.3.5-.4-.5-.1-.3-.3.3-.6l.1-.1c1.3-.2 3-.5 2.4-1.2a2 2 0 0 0-.6-.4c.4-.3.7-.5.4-.7-.4-.2-.4-.2-.5.2 0 .2-.2.3-.3.3h-.2l-.4-.2v-1c.2-.8 0-.9-.8-.6-.8.3-.3.6.2.9.1 0 .3.4.3.7-1-.2-2-.1-2.8-.9-.3-.3.1-.9-.1-1.4-.1-.2-.8 0-.8-.4 0-.3 1-.9.7-1-.8-.4-2.2 0-2.6-.7.6-1 3.2-2 4.6-2.4.8-.3.2-1.3 1.5-1.6 1.2.4 2.5 2.7 3.3 3.3.3.1.4-.4.6-.3l1.7 1.1c0 .3-.2.6 0 .9.4 0 .9.3 1.1 0 1.3-2 .4-2.5-.2-3.5l-.7-1.8c-.1-.5-.8-.8-.8-1.4 0-.8 2-.2.7-1.6-1.7-2-2.1-1.2-4.5-1.3-1.5-.5-1-1.4-1.5-1.7-.9-.6-2.4.5-3.3-.1-1.5-1 .5-1.4-1-2-.6-.4-1.3.8-2.1.6-.7-.1-.4-1.3-1.1-1.5-.9-.2-2-.1-3-.1-.2 0-.2.2-.4.1-.4-.2-.6-.8-1-.8-.5 0-.7.5-1.1.7-.3 0-1.4-.3-1-.4 1.7-1.8 1.5-.5 3-1 1.4-.5.2-.7 2.5-1.4 1-1 .8-2 .3-1.6-.7.4-.8-.1-.8-.7-.4-.2-1-.4-1.5-1-.3-.1-.6-.5-.7-1.2.5-.5.8 0 1-.7 0-.3-.3-1 0-1 .7.3 1.7.5 2.5.7l.8 1c.4.4.6.3.4.6-.3.4-.1.6-.6.9-.5.2-.8.4-.6 0 .2-.3.2-.4-.1-.3-.3 0-.2-.2-.3.4-.2.6-.4 1 .9.5 1.2-.6 1.7-1.1 2.3-1.6-.8-2.6-4-4.6-6-5.5l-1.5-3.1c-2.6-1.7-1.4-1.9-2.2-2.3-1-.5-2-1.3-2.1-2.4l.8-3.5c-.1-.6-1.2-.7-1.2-1.3 0-.4.8-.2.8-.5 0-.4.2-.3.7-.5.5-.2-.2-.8.3-1 .3 0 1-1.2 1.3-1 3.5 2.5-3 .1.7 3.5 1.3.3 3 1.3 5.1 1.7.5 1 0 1 .5 1.7l1 2c1.4-.5 2.2.3 4.1 0 .6-1.1-7.2-2-4.5-4.8.3-.5 1 .2 1.6.2.4.1 1-.2 1.4-.1 1.9 1 2 3 3.9 3.7.8.4.9-2 .2-2.7-1-1-4.1-1-3.7-2.5.1-.8 1.7-1.4 2.6-.6 1.1.8 1.8 0 3 .5l1.8 1.9c.2.2 1.3-.2 1.1-.7-.4-.8-.8-.6-1.6-1.3-1-1-1.9-1.2-2.9-1.3-.4 0-.6-1.1-1-1-.4 0 .2.5.2.7 0 .2-.2.3-.3.3-.5.2-1.4-.1-1.6-.4-1-1.6.5-1.2.4-1.7-.1-.6-1.4 0-1.9-1.1-.3-.3-1.7-.4-.9-1.4 2.1-2.7 2.3.1 4.5-.8 2.6-1.2 1.7-3 3-3.8l.3-.1-1.8-2.6h-1l-.9-2Zm18 15.8h-.2c-.6.4-1.1.8-1.2 1.5 0 .7-.5-.7-1.2-.4-.7.3-1.4-.2-1.6 1.4-.2 1.6.4 1.2 1.2 1.6.8.4 1.2.3.8-1.1-.4-1.5.5.5 1.4 1 .8.6.2-.4.5-2.4 0-.5.5-1.5.2-1.6Zm11.8 7.8c-1 .2-1.8 1-3.9 2.3-2.1 1.2-1.3 2 .9 2.5 2.2.4 1.1-.1 2.4-1.7 1.2-1.5 1.2.2.1 1.4-1 1.1-.5 1.1 2.4 1.5 2.9.4 2.4-1 2-1-.5 0-1.4-1.3-1-1.4.5-.2 1 .9 1.9 1 .8.2-.2-.9-3-3.1-.5-.6-.8-1.7-1.8-1.5Zm-15.5.4c-.2 0-.3.2-.3.5 0 .8-.1 1 .5.4.3-.6 0-1-.2-1Zm-61 6.4h-.3c-1 .5-2.9.6-2.3 1.5.5.8.9.4 1.4.8 2 3.3 2.8 3.5 4.1 3.9 1.3.3 1.5.1.9-.5-.7-.6-2.1-.5-2.4-1.3l-.4-1.5c-.1-.8-.7-.3-.8-.8-.1-.5.7-.5.8-1 .2-.5-.2-1.2-1-1.1Zm49.5.3c-.2 0-.5.3-.7.7-.3 1-1 2.4.6.6.3-.9.2-1.3 0-1.3Zm-4 1.8c-.3 0 0 .4 1.2 1.6 1 0 .8.3 1-.4.4-.7.3-.1-.8-.6-.6-.3-1.2-.6-1.5-.6Zm-1.8.2c-.2 0-.3.2-.4.3-.4.6 0 1.5 1 .6.4-.5-.2-1-.6-.9Zm13 1.2c-.7 0-.7 1-.3 1.5.4.6 1 1 2 1.2 1 .4 1.2-.4.2-1s-.8-1-1.7-1.6a1 1 0 0 0-.3 0Zm-14.3 1.7c-.6 0-1.1.7-1.9.8l-1 1.3c-.4.4-.9.4-1.2.8-.7.6-1 1.4-1 1.4s1.1-.3 1.6-.6c.5-.4.2-.7.5-.8 1.2 1.3 1-1.2 4.5 2 2 1.7 3.8 1.5 4 2 .2.4.1 1.6.4 2 2.6.1 2.7-.6 4.4-.7 0 .7 0 1 1.3 1l.2 1.3c.7 0 1 .5 1.2.5 0 .6.3 1 .4 1.3.7 0 2.3 1.3 2.4 1.6 0-1 .6-.8 1.7 0 1-2.4.1-2.2.3-3.4-1.3.5-3.1.7-3.9-.1-.6-1.2-2.2-3-1.6-4.6-.3-.6-.7-.7-1.3-1-.4-.4-.1-.6.2-.8-.8-.6-1.7-.2-2.8.2-.7-.3-1.4 0-2-.2-.3-.1-.7-.9-1-.9-.4 0-1 .3-1.3 0-1.5-.3-2.1-.8-2.2-2.3-1.2.3-.7-.6-1.7-.8h-.2Zm33.1.6c-1.3.2-1.7 1-1.7 1.5 0 .4 2.2 1.7 2 2.5-.2.8-1 1-.5 1.7.4.7 1.6.7 2 .4.5-.4 1-1.8.4-4.3-.3-1.5-.9-2-2.2-1.8Zm-5.2.8c-1.1.2.3 1.3.6 1.2.3 0 .9-1.4-.6-1.2Zm-65.8 1.6c-.3 0 0 .4.4.7.6.4.8.1 0-.5a1 1 0 0 0-.4-.2Zm85.6 7.2c-.1 0-.4.2-1.3.2-1.6 0-1.7.2-3 .8-1.2.5-.5 1.6.6 1.2 1.3 0 1.3.8 1.9.5.6-.3.8-1.6 1.3-1.6.6 0 1.4-.6.9-1-.2-.2-.3-.2-.4-.1Zm-27.2 2.5c-.8.2-1.3.7.1 1.8 2.7 2.3 3.8 3.3 5.2 3.8 1.4.5 1.7-.2 1.6-.7 0-.6-2.6-1-3.4-1.1-.7-.2 0-1.1-.7-1.9-.8-.8-2-2-2.8-1.9Zm19.3.8-.6.4-.7.5c1.2-.6 1.5-1 1.3-.9Zm-1.3.9c-.5.2-.7 0-1.4.5-1 .7-1 2 0 1.5s.4 0 2.5-1.6l-2.6.3 1.5-.7Zm-68.7-.7c-.2 0-.2.3.1 1 1.1 1.8 1.6 1.9 1.7 1.4.1-.5-.5-1.2-1-1.9-.2-.3-.6-.5-.8-.5Zm-1 .2-.3.4c.4.9.4 1.3.2 1.7-.4.6-.1 1.2-1 .3l-.2-.2c-1 2.4-.5 4.2.2 2.6.3-.4-.3-1.3 0-1.5.7-.6.4 2.1 1.2 2.3.5.2 1-.4 1.4-.4.8 0 1.2 1.3 2.1.4 1.3-1-1.7-2.3-2.3-2.4-.6-.1-.3-1.2-.3-1.3-.2-.7-.7-1.3-1-1.9Zm36.5 1.7c-.7 0-1.2.5-.3.5.9 0 .4 0 0 .2-.3.3-1 .7-.4 1 .8.3.4 0 1.2-1 0-.5.1-.9-.5-.7Zm10.7 2.3c-.3 0-.5.3-.5 1 0 2 0 2.3 1 1 .4-1 0-2-.5-2Zm13.6.6c-1.2.2-1.8 1.7-.4 1.5 1.2-.9 1.6-1.6.4-1.5Zm-23.6.2-.5.1c-1.3.2 0 1.7.3 1.3.4-.4 1-1.4.2-1.4Zm17.7 1c-.6 0-.3 2.2.3 2 .8-.1.6-.8 0-1.8 0-.2-.2-.2-.3-.2Zm-6 1.6c-.3.1-.6.8-.1 1.4-.1 1.3.2 1.7.7.5.6-1.2.3-1.3-.2-1.8l-.3-.1Zm-45.7.9h-.3c-.6.4-1 .7-.8 1.2 1 1.6 1.7 3.3 2.7 2.5 1-.7.4-1.8 1.3-1.4 1 .4.3-.6-.9-1.1-1-.5-1.5-1.2-2-1.2Zm60 .5c-.6.1-1.2 1.5-1.8 1.8-.6.4 0 1 .6 1.6 1.2 1.2 1.7 1.4 2 .2.3-1.3 0-3.2-.6-3.6h-.3Zm-3.2 1.2c-.6 0-1.7 1.8-2.6 2.9-1.1 1.5.5.3 1.9.2 1.4 0 .9-1 1.1-2.2 0-.6-.2-.8-.4-.9Zm-9.8 1.4h-.1c-.6.8.4 1.9.9 1.2.4-.6-.2-1.3-.8-1.2Zm19.4.4c-.1 0-.2.1-.2.3 0 .3-.7.8-1.6 1.6-1 .8-.8 1-.2.8.5-.3.7-.3 1.5-1.4.5-.7 1.8-1.1 1.2-1.3a2 2 0 0 0-.7 0Zm-16.5 1.6c-.3 0-.4.2 0 .7 1.1 1.8 2 .3 1.2-.3l-1.2-.4Zm8.4 2.2c-.4 0-.5.8.1 1.3 1 .6 1.9.8 1.4 0-.5-1-.7-1.2-1.3-1.3h-.2Zm12.7.4c-.3 0-.4.2-.1.9.8.6 1.3.3 1-.3-.2-.3-.6-.5-.9-.6Zm-21.8.4c-.5 0-.6.8 0 1 .6.4 1-.7.2-1h-.2Zm7.8.5-.7.4c-.8.8-.8 1.4.1.8.6-.8.7-1.2.6-1.2Zm-6.7.3c-.3.1-.3.5 0 .6.4.2.6-.3.3-.5h-.3Zm-2.2.6c-.4 0-.7.3-.3.6.8.6.2 1-.3.4-.5-.5-2.2 1.7.6.8 1.6-.7 1.3-.4 1-1.2 0-.5-.6-.6-1-.6Zm5.2.7-.1.1c-.1.3.4.3 1 .7.4.3.9 0 .2-.5l-1-.3Zm7.1 1.5c-.2 0 .2.5.5.9.7.6-.5 1 .6 1.1 1 .2.7-.3 0-1.4l-1-.6Zm4.7.4c-.6 0-.4.7.5.7 1 0 1-.5-.1-.7h-.4Zm-34 6.9c-1.8 0 .3 3.2 1.4 3.5 1 .3.1-1.3.7-1.5.5-.2-.1-1-2-2Zm44 8s-.6 1.5-1.4 1.9c-.8.4-1-1-2.7.8-.5.3-.7 1.6-1.3 1.3-3.2 0-.8-2.5-1.3-3.2-1-.3-2.7 1.4-3.3 1.5-.3.2-1.1-.2-1.6-.6-1.4-.1-2.4 1.2-3.7.8-.7-.1 0-1.1-.8-.9-1.3.2-2.2 0-3.5.4-1 .3-1.9 1.3-3 1.6-.6.3-1.4.8-2 .7-.7-.2-.9-1-1.3-1.6-.6 0-1.8.5-1.9-.1-.2-.6 2 .3 1-1.4-2-.7-1.2 1-1.8 1.1-.8.4-2 .6-2.8.2-3-4.6-.7.5-1.5.7-.7.1-.9-2.8-1.2-1.2-.4.8.2 1.9.2 2.8-.1.7-.8 3 1 3 .8-.2 2.3-.4 3.1-.7.9 0 1-.4 1.8-.3.3 0 0 .5.3.5 3 0 1.6-.5 4.6-.7 2.8 1.5 3.6 0 4.7.7.5.3-.4 1.3.3 2.2.7.6 7.3-2.3 8-2.5.5-.2 3.5-.8 6.3-1.7 2.4-.7 2.5.5 4.2-1.3 0-3.6-.4-4-.4-4Z" id="greece" stroke="#000000" stroke-width="0.5" fill="#DCCFBE" fill-rule="nonzero"/>
        </svg>