<svg>
        <path d="M234.641692,116.604251 L234.743855,116.655962 L234.819409,116.717007 C234.849216,116.747486 234.87155,116.780414 234.888754,116.815092 C234.907553,116.853804 234.920217,116.894265 234.929807,116.935912 L234.965578,117.141001 C234.978129,117.209714 234.995605,117.277527 235.030896,117.340695 L235.082022,117.413319 C235.128242,117.466208 235.182349,117.510626 235.242534,117.547803 C235.301906,117.584767 235.366969,117.61435 235.436193,117.6381 L235.546535,117.669998 L235.546535,117.669998 L235.702782,117.700777 L235.702782,117.700777 C236.036079,117.749317 236.40779,117.715292 236.677809,117.693676 C237.085504,117.66148 237.652639,117.551922 238.171218,117.556856 L238.370284,117.565509 L238.370284,117.565509 L238.439291,117.571635 C238.723673,117.600564 238.979685,117.67879 239.168337,117.842102 C239.333285,117.984843 239.446521,118.19172 239.482621,118.487188 C239.495199,118.588856 239.524332,118.679933 239.549401,118.777924 L239.580779,118.93158 C239.529045,118.935821 239.479414,118.932075 239.431064,118.923912 C239.237985,118.891655 239.065584,118.789068 238.861294,118.842651 C238.624049,118.906174 238.529831,119.20373 238.323624,119.278248 C238.164047,119.336387 237.99319,119.282879 237.817071,119.261986 L237.684524,119.254228 C237.637077,119.255853 237.589805,119.261792 237.542381,119.275142 C237.292678,119.345 237.101569,119.609057 236.848237,119.717817 C236.954876,119.82361 237.115863,119.864124 237.30772,119.861189 L237.456463,119.85075 C238.125397,119.775042 239.058416,119.298059 239.449638,119.16921 C239.663244,119.098531 239.682198,118.937833 239.854337,118.980034 C239.879273,118.986599 239.908042,118.997173 239.941294,119.013144 C240.121441,119.099719 240.250204,119.395755 240.224161,119.594662 C240.162281,120.054136 239.531717,119.936621 239.487379,120.491286 C239.443659,120.505196 239.393056,120.508728 239.338223,120.50561 L239.233548,120.492712 L239.233548,120.492712 L239.100041,120.465832 L239.100041,120.465832 L238.860274,120.409136 L238.860274,120.409136 L238.734259,120.389454 L238.734259,120.389454 L238.701278,120.386549 L238.701278,120.386549 L238.645845,120.387603 C238.485892,120.399547 238.402869,120.511108 238.507311,120.877608 C238.259205,120.942874 238.084515,121.138478 238.116929,121.398352 C238.121585,121.439834 238.132201,121.483421 238.148766,121.528403 C238.238819,121.52816 238.333617,121.527714 238.428399,121.531314 L238.526248,121.537218 L238.526248,121.537218 L238.619801,121.545554 L238.704022,121.557811 L238.704022,121.557811 L238.807185,121.580745 L238.807185,121.580745 C238.983851,121.627256 239.132269,121.716027 239.211467,121.8836 C239.26096,121.987342 239.283607,122.121438 239.26976,122.294654 C238.790904,122.589567 237.349139,122.459029 237.495641,123.288606 C237.823461,123.285154 238.155735,123.246139 238.486176,123.220412 L238.980248,123.198324 L239.011996,123.28212 L239.028529,123.355724 L239.028529,123.355724 L239.041676,123.432205 C239.051143,123.487963 239.060164,123.541983 239.074383,123.585487 L239.101728,123.644346 L239.350817,124.01094 L239.350817,124.01094 C239.42447,124.150438 239.49986,124.316278 239.567442,124.486059 L239.628082,124.646287 C239.650112,124.705978 239.67057,124.765631 239.689262,124.823916 C239.268861,125.232684 238.561842,124.937646 238.238136,125.496341 C238.068165,125.789895 238.089936,126.151914 238.1326,126.519935 L238.361422,126.281319 L238.473444,126.169869 L238.532578,126.117259 L238.597466,126.065 L238.7427,125.991741 L238.780351,125.976202 L238.843278,125.971297 L238.870286,125.981809 L238.88979,125.995044 L238.90994,126.013322 L238.939866,126.066193 L238.957809,126.138619 L238.970946,126.219144 L238.991586,126.408995 L239.006807,126.503033 L239.026,126.59703 L239.051782,126.683335 L239.082951,126.755474 L239.104,126.788172 L239.165316,126.838125 L239.19794,126.85651 L239.237414,126.873283 L239.326441,126.880068 L239.382681,126.875654 L239.457403,126.86233 L239.527866,126.864373 L239.668253,126.893147 L239.741365,126.915896 L239.806523,126.944858 L239.984728,127.033346 L240.069763,127.079989 L240.206798,127.138526 L240.272774,127.15942 L240.33736,127.175311 L240.407659,127.184294 L240.621698,127.186346 L240.69951,127.208728 L240.7613,127.24579 L240.781777,127.271286 L240.80854,127.294395 L240.829123,127.321223 L240.890104,127.439065 L240.913744,127.504281 L240.958621,127.645125 L240.982262,127.710349 L241.03291,127.801869 L241.054891,127.833692 L241.102801,127.884414 L241.202594,127.93861 L241.241815,127.955409 L241.29212,127.964106 L241.331341,127.968275 L241.412847,127.961899 L241.474531,127.944496 L241.504172,127.922335 L241.534826,127.906542 L241.559406,127.883441 L241.628022,127.796556 L241.706275,127.667883 L241.778316,127.533259 L241.822654,127.467046 L241.869207,127.416218 L241.893902,127.394441 L241.918,127.377815 L241.978605,127.346817 L242.014523,127.344038 L242.046902,127.334278 L242.09182,127.338038 L242.129905,127.349834 L242.18012,127.357436 L242.219937,127.369093 L242.260401,127.385793 L242.329728,127.438346 L242.347629,127.454376 L242.369684,127.480853 L242.413907,127.572905 L242.416523,127.606223 L242.426193,127.640074 L242.425948,127.796204 L242.285578,128.41897 L242.27151,128.558474 L242.250248,128.695313 L242.223191,128.83449 L242.189954,128.965019 L242.137899,129.106403 L242.079215,129.239728 L242.001959,129.380924 L241.905305,129.525782 L241.580995,130.061188 L241.535267,130.125635 L241.489368,130.184728 L241.442708,130.234232 L241.390049,130.280441 L241.335477,130.318215 L241.275191,130.343826 L241.20624,130.370114 L241.132155,130.382041 L241.056845,130.387926 L240.987575,130.400826 L240.852469,130.451033 L240.792191,130.476651 L240.670736,130.554226 L240.617807,130.600191 L240.564477,130.650471 L240.518087,130.703441 L240.473014,130.760327 L240.431823,130.819052 L240.354223,130.946597 L240.321959,131.01724 L240.23755,131.228204 L240.173259,131.375638 L240.096665,131.525098 L240.052752,131.596649 L240.005381,131.662297 L239.94767,131.720163 L239.895738,131.778651 L239.836123,131.825139 L239.769158,131.863877 L239.69576,131.896943 L239.620687,131.908951 L239.539425,131.915245 L239.449997,131.916063 L239.121706,131.853627 L238.924883,131.826823 L238.829022,131.821918 L238.740477,131.821101 L238.653272,131.827886 L238.578305,131.841226 L238.542125,131.85021 L238.510172,131.8653 L238.457005,131.905117 L238.42233,131.961185 L238.411924,131.990163 L238.402188,132.024447 L238.408646,132.105757 L238.419649,132.159357 L238.436504,132.21142 L238.480638,132.289796 L238.50221,132.31655 L238.522114,132.334853 L238.542853,132.347989 L238.568365,132.352158 L238.618082,132.348022 L238.673161,132.316649 L238.726417,132.277902 L238.851591,132.171864 L238.916054,132.114275 L239.018937,132.050752 L239.054856,132.035351 L239.098875,132.024684 L239.174766,132.019003 L239.258169,132.039602 L239.344499,132.093774 L239.433796,132.175886 L239.475853,132.240741 L239.497319,132.266163 L239.551768,132.301894 L239.636341,132.337158 L239.667877,132.341981 L239.768905,132.334101 L239.836605,132.314082 L239.903071,132.281556 L239.975978,132.242351 L240.101561,132.144602 L240.153575,132.077785 L240.199384,132.014409 L240.231649,131.943766 L240.256654,131.866444 L240.266063,131.824943 L240.271213,131.742733 L240.268597,131.709406 L240.266063,131.593191 L240.270722,131.504842 L240.290774,131.427913 L240.305708,131.393221 L240.340049,131.336098 L240.363411,131.313357 L240.380341,131.291123 L240.404234,131.268332 L240.481728,131.225346 L240.781302,131.082888 L240.853703,131.037292 L240.919556,130.990322 L240.979621,130.931204 L241.060351,130.830504 L241.076038,130.80836 L241.10039,130.785545 L241.17288,130.741011 L241.234065,130.714256 L241.356215,130.670417 L241.554223,130.615044 L241.61648,130.589278 L241.737125,130.526515 L241.784087,130.480755 L241.853193,130.393828 L241.870768,130.357861 L241.88603,130.317782 L241.916063,130.21915 L242.041098,129.964256 L242.097215,129.864398 L242.159046,129.77054 L242.221785,129.691354 L242.291471,129.611629 L242.362392,129.550591 L242.39276,129.528112 L242.465275,129.496452 L242.528733,129.491499 L242.562681,129.501463 L242.595223,129.518785 L242.657185,129.576995 L242.707335,129.668319 L242.733044,129.73445 L242.77027,129.895174 L242.78218,129.960234 L242.781362,130.035668 L242.775232,130.105346 L242.736289,130.25188 L242.651381,130.469049 L242.593204,130.608766 L242.55418,130.754237 L242.540823,130.830651 L242.540823,130.906264 L242.546708,130.980112 L242.55888,131.060973 L242.577395,131.133839 L242.587981,131.207311 L242.588798,131.276458 L242.576431,131.35279 L242.562166,131.420965 L242.541052,131.484569 L242.44242,131.676512 L242.305392,131.849728 L242.108586,132.070501 L242.048978,132.129594 L241.99018,132.173866 L241.922741,132.219079 L241.862128,132.253027 L241.733708,132.302719 L241.598381,132.340608 L241.343202,132.401229 L241.2807,132.420847 L241.220332,132.445395 L241.164763,132.470638 L241.105474,132.508779 L241.01442,132.576749 L240.97851,132.614147 L240.934,132.678234 L240.91824,132.711913 L240.910638,132.775542 L240.928074,132.834807 L240.943286,132.869302 L240.986406,132.919322 L241.01209,132.938245 L241.077673,132.979281 L241.150875,133.015698 L241.228842,133.043163 L241.305951,133.064262 L241.389346,133.072272 L241.465425,133.07309 L241.502087,133.070229 L241.570621,133.051223 L241.594351,133.034327 L241.626305,133.019229 L241.643643,133.005275 L241.741564,132.901362 L241.849294,132.811166 L241.967602,132.719082 L242.141728,132.636346 L242.225643,132.609954 L242.363144,132.599253 L242.513218,132.636937 L242.585578,132.665907 L242.690144,132.73315 L242.723104,132.743188 L242.750447,132.754747 L242.813381,132.762431 L242.839728,132.767346 L242.86994,132.765292 L242.955869,132.737956 L243.016932,132.714153 L243.397728,132.500346 L243.441493,132.482899 L243.509962,132.463093 L243.571474,132.45294 L243.64251,132.45294 L243.712531,132.461981 L243.770684,132.484812 L243.830651,132.514755 L243.885076,132.550215 L243.925482,132.594283 L243.967777,132.646518 L243.997621,132.705087 L244.021319,132.771104 L244.039262,132.836768 L244.052422,132.904943 L244.058471,132.980924 L244.050869,133.055008 L244.03842,133.130278 L244.019627,133.21355 L243.950202,133.368627 L243.93982,133.397866 L243.922572,133.425496 L243.908643,133.494708 L243.901368,133.563136 L243.902185,133.631237 L243.908153,133.706409 L243.968471,134.082071 L243.980823,134.237221 L243.966845,134.381809 L243.941267,134.451929 L243.909003,134.522572 L243.886875,134.563992 L243.859997,134.702351 L243.852232,134.777253 L243.854602,134.866125 L243.868033,135.034869 L243.885485,135.109959 L243.919131,135.200687 L243.933003,135.227768 L243.966624,135.258684 L243.993804,135.271322 L244.035796,135.267741 L244.061569,135.259567 L244.085422,135.242956 L244.144948,135.182801 L244.179379,135.139354 L244.24591,135.032515 L244.278264,134.962943 L244.305338,134.899142 L244.318531,134.829986 L244.325398,134.760243 L244.332183,134.610847 L244.334144,134.318319 L244.34142,134.249629 L244.366728,134.10415 L244.388594,134.034324 L244.419951,133.964826 L244.458673,133.900117 L244.510262,133.82797 L244.56418,133.769327 L244.662673,133.672608 L244.715431,133.627738 L244.777188,133.595572 L244.831016,133.564027 L245.291202,133.385793 L245.451403,133.318877 L245.511174,133.286866 L245.580714,133.268041 L245.719777,133.257226 L245.856387,133.272888 L245.927243,133.29554 L245.999512,133.323447 L246.132918,133.408559 L246.1947,133.464373 L246.250229,133.52309 L246.337899,133.672379 L246.370131,133.757858 L246.395995,133.858305 L246.422365,133.938071 L246.453542,134.01021 L246.474526,134.042106 L246.516493,134.093294 L246.543902,134.118251 L246.597534,134.156196 L246.657166,134.185084 L246.717444,134.206411 L246.781123,134.223455 L247.332804,134.255106 L247.546728,134.3943 L247.615213,134.452011 L247.718619,134.476428 L247.781872,134.478717 L247.833411,134.487316 L247.923109,134.522172 L247.991929,134.571545 L248.047523,134.634275 L248.068678,134.668305 L248.117112,134.784978 L248.162087,134.958512 L248.201202,135.133575 L248.232943,135.212916 L248.29797,135.30952 L248.325387,135.334477 L248.359507,135.35918 L248.438046,135.393847 L248.540144,135.414332 L248.59761,135.416049 L249.154221,135.41967 L249.291722,135.40897 L249.4227,135.3843 L249.486698,135.367787 L249.605602,135.303014 L249.660183,135.265232 L249.766417,135.168725 L249.86558,135.058542 L250.076341,134.843924 L250.188052,134.741082 L250.312556,134.642343 L250.452346,134.563338 L250.525744,134.530264 L250.691733,134.476583 L250.773984,134.470207 L250.850708,134.471719 L250.920338,134.478913 L250.979218,134.495262 L251.037354,134.517831 L251.261112,134.635608 L251.314646,134.659877 L251.379722,134.681907 L251.436877,134.692215 L251.506809,134.698052 L251.575368,134.688692 L251.656033,134.67491 L251.78988,134.608967 L251.929597,134.516556 L252.196768,134.312302 L252.263733,134.266313 L252.397343,134.201474 L252.459101,134.181921 L252.522027,134.177016 L252.548619,134.182166 L252.63964,134.21618 L252.694245,134.266387 L252.75812,134.335984 L252.779022,134.376202 L252.795869,134.43509 L252.78794,134.492041 L252.776308,134.518158 L252.760139,134.546777 L252.743545,134.570057 L252.629774,134.659649 L252.557439,134.706046 L252.322368,134.846924 L252.192738,134.96591 L252.125856,135.081087 L252.110578,135.120896 L252.101847,135.170932 L252.098905,135.218368 L252.107733,135.476531 L252.122341,135.747651 L252.144395,136.024632 L252.153575,136.296439 L252.164267,136.430801 L252.209728,136.647346 L252.263741,136.887373 L252.28873,137.041542 L252.295106,137.121782 L252.294289,137.197215 L252.286932,137.264842 L252.248496,137.405172 L252.20921,137.475283 L252.047913,137.747482 L251.963234,137.883095 L251.866973,138.020409 L251.815376,138.079943 L251.755768,138.139035 L251.631689,138.243104 L251.486038,138.323638 L251.313027,138.376796 L251.232853,138.396717 L251.196272,138.413237 L251.165888,138.435455 L251.101082,138.488777 L251.042381,138.546725 L250.989943,138.611425 L250.938951,138.691027 L250.844349,138.849136 L250.749027,138.99818 L250.697496,139.071128 L250.639474,139.137602 L250.581272,139.189338 L250.508937,139.235736 L250.471368,139.252338 L250.348074,139.28179 L250.227747,139.298392 L250.166324,139.309608 L250.0493,139.345804 L249.938586,139.395455 L249.885477,139.426681 L249.782357,139.502834 L249.689725,139.598025 L249.597845,139.715147 L249.558975,139.777984 L249.415433,140.041559 L249.378305,140.126262 L249.314692,140.294834 L249.292,140.397986 L249.253474,140.687188 L249.243902,140.748561 L249.223629,140.825777 L249.198624,140.903098 L249.160572,140.973112 L249.121768,141.036757 L249.075477,141.103387 L249.028834,141.153153 L248.983163,141.205796 L248.929924,141.257147 L248.882365,141.295444 L248.745052,141.380433 L248.687913,141.398531 L248.644556,141.401883 L248.645537,141.414406 L248.634975,141.428907 L248.574191,141.46073 L248.512433,141.480292 L248.362556,141.517166 L248.18988,141.552594 L248.015136,141.593278 L247.867253,141.633218 L247.7813,141.665114 L247.762548,141.67382 L247.750997,141.688395 L247.744049,141.689213 L247.732719,141.703501 L247.738114,141.771218 L247.730185,141.894414 L247.711744,142.066714 L247.703733,142.454932 L247.730888,142.636289 L247.758346,142.749496 L247.773722,142.782905 L247.795188,142.808327 L247.809959,142.834322 L247.836632,142.853172 L247.857796,142.871638 L247.871728,142.977346 L247.876433,143.03349 L247.877251,143.115243 L247.862766,143.265234 L247.850398,143.341575 L247.810891,143.480907 L247.784798,143.544627 L247.751717,143.608093 L247.724635,143.671894 L247.686183,143.736847 L247.606041,143.857354 L247.514071,143.973406 L247.486409,144.017401 L247.481749,144.030373 L247.484447,144.064763 L247.490741,144.071548 L247.491559,144.076861 L247.510458,144.082665 L247.524264,144.096341 L247.575787,144.105725 L247.639801,144.114422 L247.797624,144.114422 L248.179891,144.084684 L248.370747,144.076297 L248.52212,144.077956 L248.547142,144.075995 L248.571918,144.067902 L248.597937,144.065858 L248.622125,144.050302 L248.670845,144.026662 L248.718975,143.995559 L248.921504,143.837368 L248.974016,143.798678 L249.023136,143.767501 L249.071684,143.741728 L249.096959,143.739766 L249.120828,143.732817 L249.146847,143.730774 L249.173357,143.734044 L249.218602,143.752297 L249.238932,143.763324 L249.264861,143.782232 L249.285845,143.801523 L249.329643,143.865422 L249.346499,143.90488 L249.37833,143.997896 L249.398676,144.106289 L249.415638,144.234798 L249.449193,144.815858 L249.472899,145.113635 L249.489632,145.248594 L249.519166,145.375322 L249.555272,145.48758 L249.577253,145.541392 L249.600403,145.58788 L249.628646,145.626455 L249.656569,145.657812 L249.730016,145.712981 L249.742401,145.70667 L249.755856,145.705624 L249.761005,145.71061 L249.772744,145.70945 L249.800741,145.721204 L249.860782,145.764545 L249.956365,145.853678 L250.018311,145.908406 L250.046153,145.941913 L250.079602,145.95809 L250.105556,145.977259 L250.125371,145.981918 L250.150817,145.993354 L250.183523,145.99082 L250.386477,145.615599 L250.384597,145.580335 L250.516237,145.570101 L250.532005,145.536414 L250.549899,145.513837 L250.567,145.484335 L250.595888,145.455807 L250.648646,145.410929 L250.720989,145.364531 L250.793815,145.324264 L250.954074,145.270755 L251.112812,145.258673 L251.150954,145.261861 L251.184084,145.274041 L251.21554,145.277719 L251.269082,145.314594 L251.288986,145.332896 L251.31964,145.386038 L251.336913,145.458995 L251.33446,145.500218 L251.317621,145.595678 L251.244281,145.798542 L251.212033,145.944553 L251.185728,146.090106 L251.184354,146.232643 L251.189749,146.300351 L251.201741,146.375866 L251.226371,146.441008 L251.250608,146.513695 L251.288447,146.585049 L251.330586,146.650975 L251.449948,146.791362 L251.483995,146.815003 L251.527123,146.880856 L251.557785,146.946594 L251.567128,146.979398 L251.572523,147.047114 L251.56533,147.115804 L251.544689,147.185278 L251.518204,147.256542 L251.485523,147.325068 L251.403232,147.474978 L251.306905,147.61149 L251.217191,147.755801 L251.106428,147.955134 L251.081733,147.97691 L251.034575,148.00767 L250.953142,148.034965 L250.820504,148.031613 L250.677796,148.00194 L250.522523,147.958493 L250.45233,147.944106 L250.305975,147.928158 L250.198327,147.936684 L250.167935,147.946297 L250.10715,147.978112 L250.052839,148.016139 L250.03591,148.038373 L250.013455,148.05997 L249.979114,148.117093 L249.952965,148.180019 L249.926373,148.249951 L249.888959,148.47818 L249.857349,148.813787 L249.838817,148.972411 L249.820433,149.048409 L249.778188,149.15336 L249.754163,149.195997 L249.731308,149.225139 L249.708755,149.261221 L249.656578,149.313561 L249.596815,149.358177 L249.529425,149.391586 L249.455946,149.423589 L249.309035,149.47579 L249.155602,149.527428 L249.082376,149.562627 L249.015411,149.601365 L248.949763,149.647248 L248.882978,149.700725 L248.832771,149.765253 L248.781444,149.843809 L248.650057,150.112877 L248.592542,150.260858 L248.541134,150.407294 L248.496166,150.553223 L248.463518,150.706779 L248.413883,150.975651 L248.391575,151.134569 L248.376649,151.181866 L248.330341,151.260839 L248.307477,151.289981 L248.283779,151.311676 L248.224074,151.34448 L248.161384,151.362087 L248.123005,151.358801 L248.085559,151.361515 L247.969025,151.328736 L247.890322,151.295163 L247.811439,151.246845 L247.736504,151.197954 L247.587166,151.07251 L247.524877,151.010294 L247.420687,150.888308 L247.371698,150.823984 L247.261409,150.709984 L247.20185,150.660169 L247.13424,150.618422 L247.061545,150.575793 L246.916065,150.505362 L246.765493,150.448943 L246.611553,150.400305 L246.30646,150.322379 L246.182986,150.277534 L246.058956,150.225422 L245.932728,150.164346 L245.926253,150.14649 L245.911531,150.121346 L245.902703,150.094943 L245.866433,150.043313 L245.818916,149.985046 L245.763747,149.927646 L245.62,149.809804 L245.459839,149.692444 L245.287204,149.590534 L245.122335,149.501695 L244.977796,149.436496 L244.91867,149.414 L244.866534,149.397937 L244.418177,149.317747 L244.268839,149.289398 L244.153302,149.256545 L244.101354,149.239665 L244.055757,149.217995 L244.008583,149.185992 L243.955311,149.155534 L243.853965,149.06927 L243.641651,148.860471 L243.57176,148.777926 L243.477158,148.629169 L243.447248,148.557202 L243.422365,148.488856 L243.410602,148.42888 L243.400907,148.307057 L243.425332,148.135362 L243.478286,147.920678 L243.473954,147.866556 L243.457605,147.820624 L243.427278,147.768529 L243.385973,147.716221 L243.331368,147.666014 L243.133621,147.505436 L242.992188,147.379109 L242.923384,147.310158 L242.866368,147.232779 L242.808542,147.14206 L242.770016,147.049567 L242.73655,146.945409 L242.735234,146.947616 L242.768954,147.051749 L242.808199,147.143924 L242.865305,147.23497 L242.923057,147.312283 L242.99088,147.381308 L243.133294,147.507569 L243.330142,147.669292 L243.384657,147.718428 L243.426959,147.770662 L243.456289,147.822831 L243.472703,147.868771 L243.477035,147.923155 L243.424082,148.137839 L243.399542,148.309256 L243.409245,148.431087 L243.421082,148.492125 L243.476038,148.63136 L243.570649,148.780109 L243.640286,148.86267 L243.852845,149.071452 L243.954935,149.157659 L244.007226,149.188199 L244.055381,149.22012 L244.100986,149.24179 L244.267564,149.292668 L244.866411,149.400046 L244.918278,149.415864 L244.97751,149.439692 L245.121959,149.50382 L245.285839,149.592733 L245.458474,149.694643 L245.619624,149.811937 L245.763371,149.929771 L245.817804,149.987229 L245.865068,150.045512 L245.902327,150.097068 L245.911409,150.123455 L245.925877,150.148616 L245.941932,150.202894 L246.003011,150.334403 L246.025556,150.37342 L246.040989,150.428016 L246.046875,150.501856 L246.042379,150.523935 L245.99146,150.616951 L245.953065,150.673313 L245.895109,150.740589 L245.624569,150.999561 L245.57048,151.043466 L245.522349,151.074569 L245.479916,151.092627 L245.450995,151.108289 L245.386335,151.113357 L245.334738,151.103956 L245.249651,151.062292 L245.2167,151.052237 L245.199354,151.053545 L245.186218,151.060738 L245.173826,151.061719 L245.137515,151.084632 L245.079379,151.137169 L245.043894,151.179896 L245.01615,151.222828 L244.900858,151.437267 L244.832341,151.531649 L244.750188,151.611267 L244.725093,151.627975 L244.608256,151.663395 L244.577283,151.665766 L244.507899,151.664703 L244.320763,151.637417 L244.166569,151.594959 L244.101559,151.57373 L244.034905,151.544319 L243.975926,151.514302 L243.92249,151.47876 L243.814351,151.391678 L243.712343,151.29715 L243.491684,151.055474 L243.428643,150.999488 L243.294174,150.901044 L243.266986,150.875801 L243.239063,150.844444 L243.210812,150.805869 L243.178499,150.719335 L243.168493,150.665662 L243.163589,150.604076 L243.163589,150.528725 L243.177452,150.446106 L243.200537,150.357136 L243.203725,150.322281 L243.209283,150.294757 L243.204951,150.240643 L243.195109,150.214052 L243.18033,150.188106 L243.172809,150.168578 L243.159755,150.148665 L243.077807,150.074302 L242.970689,150.012627 L242.858847,149.95427 L242.746335,149.887387 L242.69142,149.845787 L242.644989,149.801114 L242.623417,149.77436 L242.608965,149.749469 L242.587229,149.723801 L242.577722,149.688864 L242.539785,149.591229 L242.520101,149.503706 L242.506956,149.423188 L242.507995,149.34585 L242.547728,149.188346 L242.572678,149.13133 L242.61758,149.059706 L242.634411,149.023787 L242.644638,148.995635 L242.641253,148.95782 L242.626638,148.930796 L242.598207,148.905643 L242.579872,148.89446 L242.539564,148.876681 L242.487371,148.859817 L242.365711,148.834681 L242.02645,148.794014 L241.143689,148.74939 L240.977145,148.935381 C240.801058,149.129657 240.603729,149.329719 240.451633,149.363969 L240.379662,149.366482 L239.800564,149.626117 C239.666128,149.637651 239.413752,149.598815 239.322689,149.713722 C239.291883,149.752655 239.280226,149.796633 239.278959,149.843299 C239.276553,149.97047 239.349608,150.117044 239.322943,150.235698 L239.314738,150.265826 L239.314738,150.265826 C239.232845,150.529308 238.874743,150.674155 238.704322,150.874477 C238.659208,150.927556 238.610755,150.992107 238.562997,151.064321 L238.492384,151.177913 C238.410057,151.319001 238.336395,151.478495 238.294446,151.634651 C238.213243,151.938203 238.252305,152.228614 238.580325,152.346615 L238.677076,152.374403 C238.690062,152.437847 238.691742,152.505204 238.688478,152.573899 L238.662509,152.875664 C238.656817,152.971949 238.660537,153.062079 238.693155,153.13682 C238.850057,153.106745 239.113746,153.185477 239.108857,153.389892 L239.095639,153.463033 L239.095639,153.463033 C239.035273,153.481345 238.992295,153.514857 238.943583,153.543127 L238.863322,153.579046 L238.866878,153.672181 C238.897188,153.982848 239.105753,154.507043 239.330095,154.605471 C239.515613,154.687599 239.674204,154.537926 239.857196,154.719774 C239.966308,154.8278 240.038924,155.042535 240.084181,155.206144 L240.112152,155.316861 L240.112152,155.316861 C239.750592,155.341369 239.293261,155.63097 239.206872,156.046354 L239.193529,156.150888 L239.197,156.26197 C239.211575,156.394959 239.275507,156.465357 239.292076,156.610787 C239.298069,156.664007 239.293445,156.707696 239.283728,156.746591 C239.26937,156.805722 239.242934,156.85375 239.223871,156.907199 L239.203507,156.991869 C239.171241,157.279014 239.347829,157.394421 239.422204,157.621076 L239.449433,157.744984 C239.454339,157.791279 239.455624,157.83394 239.453793,157.875178 L239.440007,157.993551 C239.430209,158.045962 239.416178,158.096838 239.399806,158.147578 L239.289763,158.459106 C239.20006,158.732634 239.128616,158.772592 238.91975,158.790981 L238.734902,158.804041 C238.429842,158.8267 238.314052,158.850185 238.087515,159.051283 C237.934739,159.186344 237.758672,159.201156 237.605938,159.293432 L237.496744,159.378349 C237.47454,159.401087 237.459593,159.429401 237.446842,159.460007 L237.428729,159.507226 C237.410725,159.557047 237.392243,159.6067 237.355924,159.646812 C237.277997,159.732537 237.157589,159.760681 237.069011,159.84724 C236.940209,159.971928 236.841116,160.119202 236.715881,160.242823 L236.579864,160.356847 L236.563531,160.332929 L236.544117,160.320766 L236.459381,160.28658 L236.394052,160.270747 L236.240856,160.268785 L236.160583,160.274997 L235.99815,160.301311 L235.855204,160.340597 L235.800616,160.365766 L235.677583,160.407798 L235.608886,160.427891 L235.466349,160.459902 L235.391038,160.465787 L235.314812,160.463417 L235.244202,160.456305 L235.181602,160.440251 L235.115512,160.418033 L235.081989,160.400793 L235.054973,160.380896 L234.973188,160.305447 L234.951044,160.274719 L234.929398,160.234559 L234.897992,160.156264 L234.866823,160.009011 L234.862572,159.382747 L234.849984,159.309161 L234.831951,159.242433 L234.785202,159.143605 L234.7647,159.117839 L234.738191,159.091738 L234.683259,159.049869 L234.618076,159.013902 L234.573322,159.002899 L234.482872,158.990891 L234.406646,158.975899 L234.32894,158.95485 L234.261861,158.920109 L234.135411,158.834719 L233.854866,158.576777 L233.794809,158.533166 L233.735676,158.498065 L233.66894,158.467583 L233.561406,158.450719 L233.51549,158.447041 L233.434801,158.460561 L233.32233,158.469308 L233.289469,158.457381 L233.257,158.453458 L233.210659,158.42246 L233.188687,158.403243 L233.145894,158.332272 L233.120529,158.245191 L233.108537,158.179068 L233.096668,158.030049 L233.097975,157.873837 L233.091845,157.724376 L233.080262,157.650978 L233.06845,157.590202 L233.036954,157.510845 L232.998518,157.432019 L232.956215,157.36718 L232.899959,157.296185 L232.837188,157.240444 L232.778676,157.178744 L232.722215,157.214785 L232.690834,157.224471 L232.665559,157.226433 L232.596436,157.237984 L232.534008,157.236676 L232.385602,157.207452 L232.315719,157.184458 L232.241725,157.150518 L232.169847,157.115065 L232.110714,157.079965 L231.995635,156.993431 L231.935692,156.963757 L231.878439,156.939782 L231.741256,156.904313 L231.671234,156.895281 L231.595409,156.894463 L231.52654,156.899858 L231.458422,156.911597 L231.323063,156.949223 L231.253123,156.975586 L231.193842,157.013728 L231.140586,157.052466 L231.094204,157.096044 L230.960292,157.258281 L230.883763,157.324052 L230.853951,157.353463 L230.823068,157.369542 L230.792921,157.378616 L230.768635,157.380496 L230.747512,157.375395 L230.707768,157.352204 L230.664894,157.280163 L230.640689,157.220351 L230.560646,156.913289 L230.541967,156.847681 L230.517649,156.786537 L230.50345,156.767793 L230.483545,156.74949 L230.468259,156.729757 L230.384259,156.70167 L230.308695,156.694967 L230.238411,156.679518 L229.997986,156.67758 L229.916243,156.690373 L229.76858,156.729202 L229.701951,156.759602 L229.63515,156.800474 L229.611452,156.822161 L229.583046,156.844223 L229.558204,156.873512 L229.541112,156.903014 L229.51891,156.931027 L229.503322,156.966839 L229.482452,157.036591 L229.472234,157.214425 L229.453662,157.297411 L229.432793,157.367172 L229.401518,157.437733 L229.368174,157.494782 L229.32839,157.546158 L229.280267,157.589866 L229.232692,157.627902 L228.805409,157.900142 L228.497659,158.242747 L228.500357,158.277136 L228.423959,158.576253 L228.384264,158.641305 L228.358605,158.710362 L228.337899,158.779027 L228.331033,158.924147 L228.342215,159.064632 L228.434728,159.438346 L228.464153,159.571796 L228.477093,159.647204 L228.48306,159.722114 L228.476929,159.804406 L228.466948,159.838706 L228.458774,159.880117 L228.432125,159.949248 L228.393428,160.014218 L228.347022,160.079523 L228.295605,160.144411 L228.177624,160.262499 L228.021264,160.452766 L227.983956,160.52273 L227.951692,160.593365 L227.92273,160.710995 L227.925918,160.750714 L227.923139,160.800022 L227.945807,160.912526 L228.005169,161.119542 L228.116161,161.389608 L228.215104,161.67612 L228.233136,161.742847 L228.243738,161.816589 L228.25609,161.971747 L227.918913,162.323613 L227.554229,162.351978 L227.541771,162.367706 L227.482572,162.40691 L227.42742,162.43749 L227.208027,162.54361 L226.812093,162.730526 L226.772381,162.795308 L226.74615,162.857163 L226.72609,162.921488 L226.712161,162.990708 L226.71118,163.12597 L226.715594,163.269128 L226.750368,163.546191 L226.748406,163.681534 L226.735082,163.818823 L226.716371,163.903166 L226.712856,163.943139 L226.719313,164.02445 L226.74709,164.130128 L226.819237,164.253537 L226.861777,164.311918 L227.118796,164.590738 L227.160436,164.650264 L227.197924,164.716272 L227.227589,164.782101 L227.253387,164.861899 L227.261398,164.962935 L227.256738,165.051283 L227.23694,165.122025 L227.197311,165.184657 L227.175281,165.214804 L227.149932,165.2377 L227.092147,165.282161 L227.024602,165.329262 L226.958038,165.360455 L226.819237,165.439387 L226.752444,165.480259 L226.692681,165.524875 L226.670545,165.553689 L226.640749,165.583362 L226.617869,165.612234 L226.584281,165.681905 L226.568292,165.725262 L226.560771,165.765545 L226.55773,165.812997 L226.548926,165.874575 L226.554322,165.942283 L226.578877,166.078518 L226.607014,166.211507 L226.693311,166.476259 L226.734068,166.609346 L226.746248,166.67761 L226.76518,166.743193 L226.776027,166.87942 L226.776027,166.961245 L226.782485,167.042548 L226.820349,167.201891 L226.846147,167.281689 L226.876384,167.354711 L226.914223,167.426065 L226.95248,167.490153 L227.042054,167.613275 L227.098221,167.670602 L227.207422,167.771008 L227.326376,167.843564 L227.517755,167.924172 L227.582839,167.958807 L227.764392,168.088183 L227.818253,168.138447 L227.915332,168.246234 L227.990431,168.369144 L228.013327,168.437638 L228.031474,168.504357 L228.03736,168.578196 L228.035807,168.646452 L228.029921,168.728719 L228.018215,168.803932 L228.003501,168.948578 L228.014766,169.090134 L228.026847,169.157327 L228.056823,169.290463 L228.140896,169.563684 L228.179005,169.710398 L228.215545,169.86473 L228.223147,169.960436 L228.217752,170.048834 L228.200349,170.137093 L228.167774,170.216343 L228.123845,170.300237 L227.944981,170.586676 L227.885569,170.707706 L227.880338,170.742447 L227.87003,170.769537 L227.875016,170.831916 L227.885728,170.861346 L227.899384,170.882605 L227.913771,170.916087 L227.968368,170.966286 L228.008766,170.997749 L228.142163,171.095204 L228.231886,171.182638 L228.267158,171.221736 L228.289817,171.260744 L228.305847,171.302409 L228.314112,171.334223 L228.316809,171.368613 L228.309452,171.422834 L228.275193,171.481027 L228.199245,171.553992 L227.936602,171.752531 L227.883681,171.811101 L227.860801,171.839973 L227.827801,171.904501 L227.816905,171.937812 L227.83,172.101218 L227.824278,172.176226 L227.805877,172.251962 L227.778886,172.329439 L227.747128,172.393869 L227.701629,172.45803 L227.648218,172.510469 L227.590016,172.562204 L227.467728,172.626169 L227.430232,172.63418 L227.337322,172.641373 L227.26667,172.63454 L227.233777,172.624477 L227.207071,172.605365 L227.146621,172.5693 L227.092523,172.512888 L226.911264,172.302741 L226.788747,172.19479 L226.661708,172.117763 L226.595471,172.081068 L226.459613,172.037188 L226.312351,172.022384 L226.154357,172.019932 L226.067913,172.033093 L225.892997,172.074864 L225.813403,172.114583 L225.742057,172.160907 L225.676768,172.220703 L225.619229,172.280703 L225.566561,172.351861 L225.471387,172.502768 L225.382074,172.652155 L225.286809,172.801992 L225.184368,172.933624 L225.123191,172.985589 L225.057796,173.031447 L224.930226,173.082414 L224.861014,173.092894 L224.721779,173.103725 L224.498978,173.082455 L224.351962,173.058218 L224.130632,173.043005 L224.06003,173.048482 L223.991888,173.059951 L223.923019,173.077918 L223.658193,173.161289 L223.404779,173.234646 L223.280831,173.26521 L223.029215,173.298463 L222.903837,173.301815 L222.782774,173.284117 L222.737014,173.272926 L222.690853,173.256668 L222.659283,173.239003 L222.624101,173.21358 L222.596341,173.181136 L222.582616,173.155918 L222.551978,173.090433 L222.545929,173.014191 L222.548561,172.972975 L222.55945,172.937523 L222.577025,172.85461 L222.615722,172.777035 L222.717673,172.639272 L222.783068,172.580809 L222.886278,172.518332 L222.922858,172.501804 L222.960191,172.491659 L223.034512,172.485856 L223.074559,172.497226 L223.137575,172.506054 L223.193561,172.501722 L223.249711,172.483673 L223.267891,172.467774 L223.291916,172.453297 L223.309417,172.438256 L223.354891,172.373834 L223.382962,172.322564 L223.443354,172.129297 L223.521542,171.837005 L223.547038,171.765823 L223.580888,171.702569 L223.622561,171.590417 L223.652659,171.492586 L223.670161,171.321431 L223.666965,171.281155 L223.649022,171.215499 L223.625651,171.154297 L223.604234,171.12885 L223.584305,171.110286 L223.562757,171.083801 L223.542518,171.073837 L223.51551,171.053948 L223.463046,171.030668 L223.405834,171.022738 L223.342907,171.027643 L223.273866,171.040256 L223.206804,171.065319 L223.134559,171.112787 L223.06958,171.163975 L223.02664,171.188237 L222.96118,171.233302 L222.923847,171.243447 L222.861166,171.248351 L222.835327,171.24312 L222.802368,171.233082 L222.776259,171.221433 L222.728839,171.176834 L222.685965,171.126798 L222.671496,171.092245 L222.633657,171.020891 L222.608545,170.94961 L222.589695,170.860738 L222.576174,170.690932 L222.57454,170.610586 L222.588869,170.533828 L222.608684,170.463357 L222.619245,170.436243 L222.635414,170.407632 L222.643589,170.046757 L222.909918,170.026035 L223.025872,169.832474 L223.104387,169.779153 L223.133128,169.748752 L223.162531,169.726616 L223.195858,169.669305 L223.216817,169.613221 L223.225147,169.558125 L223.220324,169.497872 L223.198605,169.384436 L223.193292,169.31779 L223.18233,169.255665 L223.188624,169.187049 L223.193365,169.159313 L223.21291,169.088589 L223.236608,169.054289 L223.251207,169.01855 L223.280512,168.982747 L223.350624,168.908351 L223.481823,168.80909 L223.540433,168.737474 L223.549907,168.709379 L223.553422,168.681741 L223.549008,168.626564 L223.532324,168.575768 L223.503395,168.516054 L223.466128,168.451894 L223.417956,168.385362 L223.197951,168.105014 L223.142177,168.027537 L223.097079,167.949504 L223.060049,167.86333 L223.034087,167.78461 L223.00152,167.704264 L222.986234,167.671918 L222.965757,167.646422 L222.944774,167.627131 L222.891232,167.590256 L222.866463,167.586005 L222.833422,167.574896 L222.800978,167.571218 L222.738444,167.568602 L222.588649,167.593935 L222.000158,167.823185 L221.899728,167.845485 L221.817477,167.851861 L221.784943,167.84712 L221.720839,167.824747 L221.67458,167.79482 L221.653033,167.768335 L221.633128,167.750033 L221.582561,167.665984 L221.551074,167.599232 L221.495594,167.467101 L221.460322,167.401894 L221.416695,167.343414 L221.368458,167.287534 L221.340935,167.261237 L221.27379,167.213082 L221.233482,167.195302 L221.099692,167.164935 L221.059474,167.148218 L220.99421,167.11118 L220.973063,167.092975 L220.952651,167.068272 L220.92167,167.007921 L220.91415,166.976049 L220.903646,166.941193 L220.898332,166.874548 L220.898728,166.693346 L220.912278,166.545529 L220.917346,166.462248 L220.911003,166.38218 L220.898439,166.308856 L220.890918,166.276984 L220.857722,166.201869 L220.836943,166.172008 L220.815223,166.14661 L220.789025,166.121286 L220.721708,166.070997 L220.654139,166.030117 L220.582286,165.994935 L220.510106,165.971319 L220.4337,165.950973 L220.280414,165.93554 L220.136226,165.946755 L219.999068,165.983711 L219.885289,166.048084 L219.830545,166.093117 L219.79067,166.143431 L219.741158,166.22909 L219.719292,166.286319 L219.708223,166.379278 L219.713782,166.44912 L219.73703,166.581431 L219.822101,166.854578 L219.878728,167.076346 L219.888902,167.204703 L219.880662,167.273474 L219.861608,167.35033 L219.845676,167.385095 L219.811335,167.442218 L219.743635,167.521787 L219.68939,167.560608 L219.628213,167.599975 L219.560757,167.632575 L219.192232,167.762907 L219.118809,167.795711 L219.052433,167.829308 L218.985469,167.868046 L218.809441,168.030341 L218.69724,168.149049 L218.477496,168.397894 L218.295371,168.568174 L218.16333,168.659997 L218.028428,168.725204 L217.955422,168.750733 L217.86888,168.778395 L217.795646,168.810373 L217.729997,168.856256 L217.670381,168.902736 L217.618131,168.954014 L217.491003,169.120011 L217.403651,169.222035 L217.357678,169.267722 L217.303351,169.30548 L217.249172,169.335708 L217.186417,169.355343 L217.111678,169.368398 L217.029845,169.367499 L216.965749,169.35773 L216.765567,169.31376 L216.500602,169.238883 L216.372011,169.214286 L216.308921,169.204706 L216.174395,169.202499 L216.11294,169.213452 L216.04515,169.232401 L215.98439,169.264493 L215.854572,169.321534 L215.726349,169.373621 L215.598583,169.418965 L215.466559,169.448278 L215.341188,169.464202 L215.209638,169.474436 L215.082698,169.470594 L214.997153,169.460621 L214.96148,169.454 L214.882433,169.425553 L214.857068,169.413847 L214.82997,169.389668 L214.802054,169.370916 L214.760995,169.318583 L214.7457,169.286245 L214.737019,169.252322 L214.72206,169.22103 L214.719362,169.18664 L214.708131,169.14567 L214.71006,169.069975 L214.715946,168.9877 L214.735163,168.897153 L214.758771,168.814853 L214.790946,168.730534 L214.834016,168.645373 L214.928545,168.489414 L214.980787,168.422319 L215.045104,168.362866 L215.108839,168.283608 L215.124436,168.247787 L215.141929,168.220142 L215.15209,168.191188 L215.165357,168.123095 L215.166583,168.053793 L215.160698,167.979954 L215.140728,167.822346 L215.110719,167.671518 L215.092335,167.525147 L215.086286,167.449174 L215.089728,167.355346 L215.100223,167.303621 L215.104229,167.269779 L215.120488,167.242223 L215.155785,167.121995 L215.164768,167.075155 L215.167629,167.026918 L215.164613,166.988433 L215.154616,166.947365 L215.123954,166.881619 L215.10288,166.848651 L215.08148,166.82403 L215.019853,166.7733 L214.960213,166.731807 L214.768245,166.622008 L214.70764,166.580858 L214.665583,166.528608 L214.636074,166.477256 L214.627384,166.443332 L214.624613,166.409041 L214.627311,166.368054 L214.635706,166.326365 L214.720131,166.103065 L214.72667,166.025842 L214.720785,165.951995 L214.702997,165.887564 L214.688619,165.854082 L214.625161,165.77721 L214.596673,165.751256 L214.54421,165.715371 L214.484659,165.678161 L214.418823,165.655926 L214.282891,165.626801 L214.213695,165.624921 L214.145063,165.630234 L214.084278,165.649452 L214.027629,165.673706 L213.708935,165.875801 L213.344995,165.904117 L213.274294,165.895943 L213.234313,165.885373 L213.221929,165.886354 L213.203766,165.88055 L213.125676,165.708341 L213.061646,165.611662 L213.025687,165.575744 L212.999578,165.542098 L212.932425,165.493943 L212.865444,165.457313 L212.82745,165.446589 L212.794409,165.43548 L212.724869,165.429349 L212.579692,165.440638 L212.274975,165.489561 L212.121771,165.487518 L212.044401,165.467523 L211.966098,165.439011 L211.886226,165.390774 L211.824935,165.34109 L211.771728,165.283264 L211.728011,165.225774 L211.69,165.161678 L211.666956,165.094534 L211.648025,165.028951 L211.637267,164.953338 L211.631954,164.886692 L211.632444,164.661341 L211.649177,164.320452 L211.656959,164.271079 L211.696163,164.199896 L211.726123,164.162965 L211.755518,164.140828 L211.828916,164.107755 L211.865014,164.097708 L211.90918,164.088905 L211.991431,164.082529 L212.237717,164.082529 L212.319223,164.076234 L212.337044,164.068387 L212.343747,164.067569 L212.360504,164.046398 L212.356728,164.023346 L212.337567,163.987567 L212.315504,163.954681 L212.246014,163.879346 L212.074785,163.708395 L212.018529,163.637401 L211.973488,163.560161 L211.935469,163.474068 L211.909188,163.388131 L211.890493,163.300534 L211.877332,163.219747 L211.877332,163.130719 L211.882482,163.048501 L211.895929,162.973158 L211.928144,162.903324 L211.96273,162.846185 L211.984531,162.816324 L212.038425,162.770016 L212.141569,162.722294 L212.222831,162.716 L212.368,162.692098 L212.435708,162.672079 L212.502763,162.647008 L212.766346,162.532354 L212.887311,162.473589 L213.016719,162.436428 L213.143561,162.426561 L213.2067,162.435341 L213.331,162.481191 L213.397662,162.523215 L213.457458,162.56658 L213.805744,162.892747 L213.867763,162.93594 L213.927771,162.970959 L213.992447,163.000526 L214.05754,163.022826 L214.096016,163.027076 L214.202439,163.019057 L214.239125,163.002259 L214.282899,162.991616 L214.613888,162.965866 L214.844038,162.907183 L215.001894,162.751403 L215.072815,162.699749 L215.10252,162.669005 L215.17161,162.581817 L215.188302,162.547256 L215.198529,162.519104 L215.21733,162.448436 L215.23036,162.38036 L215.232975,162.313101 L215.227008,162.238191 L215.195373,161.941035 L215.189406,161.865856 L215.19145,161.723245 L215.21133,161.653567 L215.238207,161.515215 L215.239842,161.371608 L215.229142,161.237253 L215.211837,161.095093 L215.170466,160.819616 L215.153717,160.609281 L215.160992,160.540591 L215.155351,160.384918 L215.166787,160.221741 L215.287891,160.067744 L215.352763,159.927512 L215.423153,159.784698 L215.578817,159.513741 L215.650376,159.372986 L215.7083,159.233286 L215.760387,159.092172 L215.799387,158.946439 L215.818597,158.855891 L215.880485,158.693891 L215.91821,158.616651 L216.010082,158.486924 L216.119643,158.369499 L216.342542,158.14776 L216.453837,158.030196 L216.559433,157.913082 L216.724474,157.540812 L216.701749,157.255297 L216.852305,156.992253 L216.823139,156.701074 L216.805948,156.410033 L216.777379,156.126324 L216.72973,155.844087 L216.657877,155.577153 L216.63051,155.490234 L216.602684,155.13939 L216.647504,154.810003 L216.646687,154.728251 L216.653471,154.653422 L216.679654,154.495281 L216.710807,154.348011 L216.762469,154.201559 L216.816591,154.06109 L216.880401,153.920131 L217.024515,153.663749 L217.056452,153.601452 L217.096866,153.460975 L217.109063,153.391894 L217.117074,153.323139 L217.117891,153.254163 L217.112823,153.105692 L217.08342,152.82097 L217.072213,152.680215 L217.068125,152.544267 L217.056199,152.394447 L217.030703,152.233886 L216.998357,152.059362 L216.985433,151.897019 L216.984534,151.822787 L216.993093,151.761234 L217.012409,151.696967 L217.046324,151.64712 L217.064079,151.625883 L217.088185,151.609256 L217.11906,151.593177 L217.149452,151.583572 L217.22576,151.577605 L217.466798,151.594493 L217.574332,151.598744 L217.612826,151.59549 L217.661529,151.579322 L217.673341,151.571147 L217.680289,151.57033 L217.679471,151.562891 L217.684556,151.557104 L217.681858,151.522714 L217.62718,151.471444 L217.573253,151.429771 L217.422223,151.352531 L217.337234,151.324542 L217.247455,151.299063 L217.157283,151.277916 L217.034251,151.266243 L216.999371,151.27655 L216.96642,151.279084 L216.937531,151.295016 L216.893995,151.311815 L216.856932,151.322204 L216.781147,151.327755 L216.710447,151.31958 L216.678411,151.308659 L216.579616,151.254381 L216.518815,151.210837 L216.211082,150.915659 L216.143422,150.861104 L216.070891,150.817395 L215.992188,150.783815 L215.952452,150.773229 L215.864169,150.766362 L215.751935,150.775101 L215.614956,150.826796 L215.541452,150.858529 L215.342373,150.963071 L215.275425,150.989474 L215.206621,151.008234 L215.142747,151.013155 L215.086417,151.003837 L215.027414,150.980327 L215.000569,150.962564 L214.951074,150.904452 L214.92861,150.866499 L214.901349,150.82785 L214.844316,150.662499 L214.877431,150.298272 L215.019109,149.926747 L215.013714,149.783662 L215.026466,149.639973 L214.949218,149.537074 L214.994635,149.47185 L215.027471,149.408409 L215.067313,149.270114 L215.07418,149.200379 L215.074997,148.976065 L215.070338,148.832924 L215.071973,148.690387 L215.099439,148.559499 L215.126414,148.494365 L215.205828,148.380357 L215.258839,148.335463 L215.312431,148.297763 L215.367158,148.265074 L215.428515,148.240452 L215.496967,148.220368 L215.558332,148.208351 L215.627741,148.197921 L215.837414,148.201436 L215.901011,148.217409 L215.970967,148.225649 L216.045728,148.249346 L216.101079,148.262507 L216.160139,148.293586 L216.271401,148.332144 L216.400368,148.362038 L216.432902,148.366779 L216.462681,148.364523 L216.518913,148.347537 L216.543338,148.338128 L216.58009,148.308177 L216.614504,148.26446 L216.72664,147.935196 L216.758332,147.85736 L216.79654,147.773646 L216.847638,147.695368 L216.910785,147.621251 L216.944406,147.564169 L216.942281,147.536973 L216.928646,147.525431 L216.908749,147.519708 L216.881545,147.50842 L216.857995,147.503842 L216.780869,147.502616 L216.691629,147.494834 L216.483599,147.499493 L216.260537,147.475003 L216.157793,147.455638 L216.066362,147.421975 L216.026455,147.396651 L215.993431,147.373199 L215.959809,147.342283 L215.930815,147.309937 L215.898738,147.223379 L215.894978,147.176466 L215.898575,147.074523 L215.908728,147.032965 L215.939651,146.954916 L215.979599,146.883676 L216.023847,146.813172 L216.141738,146.69403 L216.415025,146.482052 L216.550842,146.362583 L216.610204,146.303515 L216.667826,146.231973 L216.718678,146.159883 L216.757057,146.081523 L216.960918,145.705158 L217.294883,145.67918 L217.297989,145.718629 L217.515052,145.594125 L217.771752,145.629471 L217.903556,145.631842 L218.0303,145.622204 L218.161507,145.604482 L218.292068,145.581717 L218.417259,145.551054 L218.546668,145.513902 L218.606946,145.488283 L218.732651,145.465681 L218.795332,145.460777 L218.927766,145.456894 L219.060256,145.460041 L219.324044,145.507649 L219.58842,145.575063 L219.846183,145.644063 L219.988997,145.665684 L220.059362,145.682204 L220.26136,145.686292 L220.329624,145.674757 L220.38664,145.6567 L220.446837,145.630019 L220.523929,145.57145 L220.546728,145.542346 L220.565341,145.526327 L220.588074,145.497259 L220.638436,145.419038 L220.743035,145.301997 L220.803134,145.249044 L220.861932,145.204763 L220.922864,145.165428 L220.984613,145.133262 L221.050924,145.108256 L221.179744,145.063632 L221.317736,145.02473 L221.717381,144.967297 L221.849627,144.964338 L222.111281,144.985019 L222.373907,145.030575 L222.631417,145.086986 L223.014469,145.139 L223.141384,145.142515 L223.387294,145.123632 L223.511586,145.106719 L223.710101,145.057747 L223.785665,145.051861 L223.856136,145.058736 L223.926665,145.074177 L223.992984,145.102542 L224.050973,145.132632 L224.159095,145.219444 L224.207929,145.269292 L224.244771,145.328123 L224.281278,145.393681 L224.310763,145.460327 L224.335638,145.525444 L224.360308,145.666232 L224.35949,145.742728 L224.324226,146.023093 L224.311646,146.181251 L224.310828,146.255621 L224.316575,146.329469 L224.329147,146.402793 L224.357169,146.510589 L224.37248,146.543196 L224.413123,146.602796 L224.462022,146.653444 L224.495161,146.678229 L224.567496,146.719542 L224.608049,146.737305 L224.705431,146.764338 L224.742853,146.767853 L224.814134,146.795834 L224.847657,146.813082 L224.881981,146.838856 L224.908736,146.855556 L224.950793,146.907807 L224.992736,146.972654 L225.024469,147.03939 L225.049016,147.103469 L225.074022,147.184428 L225.136098,147.499044 L225.193556,147.732226 L225.256425,147.884809 L225.266341,147.924807 L225.272308,147.999717 L225.264297,148.067409 L225.255387,148.102698 L225.228199,148.16649 L225.188905,148.223997 L225.142343,148.274834 L225.08894,148.327264 L224.969381,148.425619 L224.718387,148.613866 L224.666136,148.665144 L224.585471,148.766638 L224.553117,148.823613 L224.533319,148.894354 L224.512123,148.956888 L224.50009,149.024883 L224.492406,149.100856 L224.492488,149.250512 L224.503425,149.325308 L224.509801,149.405278 L224.547771,149.553341 L224.590515,149.698886 L224.645872,149.830575 L224.667452,149.869935 L224.722629,149.927335 L224.748477,149.945172 L224.782262,149.956223 L224.883093,149.948376 L224.912978,149.932371 L224.949657,149.917174 L225.022401,149.875845 L225.230954,149.730594 L225.299414,149.698183 L225.362332,149.680681 L225.385376,149.678883 L225.412213,149.683232 L225.457801,149.705736 L225.479864,149.738629 L225.494986,149.772054 L225.51476,149.873245 L225.533962,150.014188 L225.54091,150.101621 L225.559768,150.181967 L225.583237,150.254441 L225.614643,150.320131 L225.657428,150.378496 L225.705093,150.429243 L225.759117,150.472248 L225.819681,150.508518 L225.878496,150.539613 L225.938292,150.567422 L226.066973,150.605687 L226.319193,150.667608 L226.350755,150.672676 L226.445537,150.665139 L226.507319,150.645847 L226.531262,150.630308 L226.562136,150.614229 L226.584763,150.591545 L226.608787,150.577068 L226.649561,150.52561 L226.689845,150.46803 L226.722624,150.403787 L226.773861,150.26461 L226.794223,150.188458 L226.806591,150.112117 L226.81918,149.953959 L226.81967,149.804221 L226.813866,149.731174 L226.83942,149.585678 L226.865659,149.514439 L226.924826,149.37464 L226.99573,149.238234 L227.054733,149.099523 L227.101605,148.964981 L227.113556,148.895916 L227.120913,148.828289 L227.115518,148.76058 L227.098,148.700245 L227.082714,148.667907 L227.062213,148.642142 L227.042226,148.622777 L227.015381,148.605014 L226.949218,148.581725 L226.873319,148.567779 L226.797272,148.567779 L226.532921,148.588346 L226.36833,148.586621 L226.330098,148.582371 L226.297221,148.573387 L226.244684,148.549575 L226.217757,148.530741 L226.203714,148.510918 L226.187728,148.478346 L226.170728,148.406346 L226.173837,148.37054 L226.182755,148.322907 L226.234638,148.107234 L226.26118,147.949052 L226.28549,147.791049 L226.318139,147.637493 L226.338845,147.568828 L226.356248,147.493174 L226.384302,147.42903 L226.416992,147.363717 L226.45685,147.300798 L226.495728,147.250567 L226.549899,147.198341 L226.662174,147.115035 L226.796112,147.062768 L226.941207,147.037804 L227.016763,147.031918 L227.092907,147.032728 L227.168398,147.041613 L227.238837,147.055984 L227.310706,147.078823 L227.376289,147.107245 L227.443433,147.142796 L227.497458,147.185801 L227.551074,147.236082 L227.593605,147.294471 L227.615349,147.320139 L227.630872,147.358624 L227.745845,147.616035 L227.850787,147.819512 L227.935213,147.928019 L227.984112,147.978659 L228.029888,148.015068 L228.09109,148.051076 L228.117526,148.063771 L228.149578,148.074962 L228.181204,148.080847 L228.213567,148.083463 L228.282125,148.078134 L228.357264,148.066918 L228.388564,148.056169 L228.424744,148.047185 L228.457278,148.051125 L228.495837,148.047839 L228.560422,148.062962 L228.584798,148.074749 L228.618747,148.084714 L228.672264,148.122128 L228.726289,148.165134 L228.774371,148.217989 L228.816763,148.274507 L228.847817,148.332717 L228.877834,148.406025 L228.903044,148.47836 L228.922629,148.552207 L228.93355,148.625924 L228.933223,148.769458 L228.918787,148.844875 L228.899406,148.908349 L228.841057,149.042711 L228.645526,149.363981 L228.611757,149.428297 L228.552591,149.568095 L228.534035,149.638738 L228.521578,149.714008 L228.513812,149.78918 L228.52027,149.870221 L228.540877,149.956869 L228.552542,150.03133 L228.558428,150.105177 L228.558428,150.179728 L228.550253,150.2493 L228.511253,150.395033 L228.453559,150.528275 L228.323251,150.810937 L228.27109,150.950989 L228.246501,151.021035 L228.232172,151.097793 L228.192052,151.461153 L228.18315,151.509054 L228.179798,151.551161 L228.183559,151.598082 L228.180861,151.63933 L228.191537,151.773422 L228.188676,151.821921 L228.262956,151.959651 L228.325114,152.104755 L228.350913,152.184561 L228.369011,152.264695 L228.38854,152.337749 L228.401676,152.418267 L228.414624,152.58088 L228.414624,152.661381 L228.401308,152.826038 L228.389365,152.9077 L228.351575,153.068629 L228.326504,153.14515 L228.299341,153.207888 L228.278561,153.278711 L228.252673,153.416981 L228.245888,153.491809 L228.245071,153.641809 L228.257308,153.707916 L228.268973,153.782384 L228.293267,153.855872 L228.324926,153.921537 L228.361286,153.986842 L228.410937,154.050038 L228.465387,154.107757 L228.532711,154.158046 L228.613237,154.205163 L228.885738,154.374676 L229.055962,154.470905 L229.227943,154.551946 L229.304496,154.574155 L229.344305,154.582591 L229.38055,154.587005 L229.443477,154.582101 L229.475856,154.572341 L229.52415,154.543371 L229.546286,154.514556 L229.56427,154.483657 L229.573343,154.450493 L229.581272,154.402665 L229.584215,154.35549 L229.580128,154.232155 L229.569935,154.204076 L229.502602,154.128578 L229.372646,153.989817 L228.974161,153.606128 L228.849158,153.466984 L228.793809,153.394845 L228.742826,153.318071 L228.722856,153.067215 L228.995896,152.677591 L229.034349,152.612638 L229.067937,152.542967 L229.09354,152.473109 L229.118602,152.396589 L229.157962,152.242779 L229.175586,152.0853 L229.189597,151.934899 L229.178071,151.629749 L229.139488,151.060608 L229.111253,150.79055 L229.087834,150.656106 L229.057728,150.522185 L228.983815,150.229395 L228.945591,150.068744 L228.932668,149.906392 L228.932733,149.832087 L228.940499,149.756916 L228.969665,149.657719 L228.985253,149.621899 L229.055357,149.534907 L229.08561,149.513074 L229.114548,149.48309 L229.150638,149.460431 L229.309703,149.393973 L229.376341,149.348025 L229.42909,149.302877 L229.468515,149.244986 L229.501866,149.187946 L229.549678,149.054768 L229.561123,148.979311 L229.575322,148.826817 L229.575322,148.678232 L229.55952,148.393894 L229.547651,148.244875 L229.52836,148.090256 L229.491411,147.94239 L229.443289,147.804504 L229.380567,147.664804 L229.308019,147.536335 L229.271095,147.476441 L229.186163,147.361534 L229.137256,147.310886 L229.08776,147.252774 L229.046782,147.201512 L228.967638,147.077842 L228.900869,146.946774 L228.844916,146.807621 L228.796384,146.661455 L228.752643,146.515992 L228.679155,146.228531 L228.648624,146.089272 L228.62406,145.940441 L228.606248,145.79188 L228.600935,145.649866 L228.602308,145.50733 L228.643302,145.312787 L228.697123,145.193523 L228.895065,144.877436 L228.966117,144.742886 L229.031635,144.615847 L229.089722,144.475068 L229.149248,144.341041 L229.200403,144.200801 L229.344134,143.76742 L229.445365,143.473338 L229.504221,143.332771 L229.570981,143.191313 L229.648237,143.062714 L229.726401,142.942371 L229.779411,142.87548 L229.8083,142.846943 L229.838095,142.829875 L229.904578,142.79761 L229.936033,142.788725 L230.004902,142.783411 L230.037371,142.787335 L230.108643,142.802711 L230.179499,142.825362 L230.251531,142.859728 L230.318014,142.902569 L230.384193,142.951068 L230.453986,143.007332 L230.514117,143.064349 L230.632589,143.184153 L230.723553,143.299657 L230.866621,143.430962 L230.887008,143.213025 L230.953106,143.233518 L231.016703,143.24949 L231.143733,143.266967 L231.271294,143.271144 L231.403866,143.268766 L231.662757,143.254796 L231.795305,143.257084 L231.929929,143.272861 L232.20024,143.327204 L232.334537,143.35136 L232.461477,143.367766 L232.596673,143.378172 L232.735,143.381114 L232.867286,143.36439 L233.004444,143.340038 L233.250812,143.341019 L233.340093,143.347722 L233.402815,143.268275 L233.540267,143.33215 L233.583338,143.234384 L233.669275,143.117719 L233.728466,143.065902 L233.764801,143.043226 L233.837872,143.009114 L233.911441,142.990779 L233.99321,142.978248 L234.07546,142.971872 L234.423215,142.984518 L234.512627,142.985278 L234.593888,142.978984 L234.675665,142.965177 L234.824651,142.926496 L234.893275,142.921183 L234.962782,142.928327 L235.100569,142.966755 L235.291629,143.08091 L235.419076,143.166218 L235.545199,143.24439 L235.683044,143.302003 L235.747123,143.324106 L235.900262,143.339376 L235.977501,143.354556 L236.055714,143.381997 L236.12706,143.410787 L236.200826,143.445014 L236.27352,143.487643 L236.39536,143.58706 L236.450537,143.644469 L236.505142,143.707272 L236.591488,143.83682 L236.65421,143.97652 L236.672243,144.055853 L236.684896,144.13024 L236.702373,144.277755 L236.734139,144.432471 L236.77224,144.579177 L236.802338,144.650335 L236.827629,144.723741 L236.901338,144.85427 L236.986441,144.983907 L237.042526,145.040163 L237.164782,145.154311 L237.299431,145.245496 L237.408305,145.338684 L237.46251,145.396436 L237.511736,145.454294 L237.554954,145.517989 L237.640965,145.655883 L237.714828,145.791496 L237.921444,146.232488 L237.951183,146.289725 L237.976311,146.358046 L238.104616,146.782869 L238.153629,146.922561 L238.178259,146.987703 L238.207842,147.05246 L238.281297,147.170401 L238.323027,147.228046 L238.426114,147.336169 L238.475365,147.394305 L238.754798,147.807373 L238.805406,147.871477 L238.914943,147.985534 L238.974755,148.029169 L239.041899,148.064711 L239.112436,148.092757 L239.190395,148.10761 L239.272172,148.107692 L239.316763,148.104177 L239.353049,148.107774 L239.432823,148.129738 L239.505174,148.158708 L239.570766,148.199744 L239.631812,148.243272 L239.686891,148.300689 L239.796575,148.407234 L239.851875,148.46488 L239.97046,148.54982 L240.032324,148.578537 L240.103204,148.60145 L240.140357,148.604719 L240.219011,148.598817 L240.222444,148.592114 L240.233267,148.584022 L240.244703,148.568392 L240.659234,148.203997 L240.677283,148.194097 L240.68912,148.184397 L240.707128,148.173827 L240.723313,148.170651 L241.065787,147.972095 L240.65939,147.943084 L240.519975,147.926572 L240.454899,147.904542 L240.390322,147.888643 L240.323659,147.859232 L240.205049,147.787722 L240.143251,147.744243 L240.112728,147.715346 L240.082621,147.693439 L240.01712,147.666079 L239.953041,147.643967 L239.874322,147.62273 L239.795728,147.613346 L239.722123,147.607395 L239.569343,147.605728 L239.333708,147.583052 L239.263515,147.568665 L239.191155,147.539695 L239.125997,147.503989 L239.097567,147.478845 L239.063463,147.454403 L239.00836,147.397804 L238.964316,147.333095 L238.880602,147.148894 L238.863501,147.081292 L238.828834,146.880668 L238.810785,146.738564 L238.787766,146.596583 L238.749992,146.450916 L238.687752,146.304741 L238.631463,146.16133 L238.485248,145.743259 L238.429302,145.604106 L238.320223,145.408199 L238.27618,145.34349 L238.165899,145.22949 L237.927322,145.010131 L237.81118,144.910256 L237.706678,144.796877 L237.609444,144.674621 L237.533659,144.530572 L237.502907,144.45115 L237.477616,144.365139 L237.448572,144.169444 L237.431954,143.863608 L237.393403,143.636196 L237.376368,143.569387 L237.352155,143.49697 L237.27794,143.372654 L237.235638,143.307815 L237.119741,143.207924 L237.04582,143.159221 L236.961084,143.125044 L236.888725,143.083469 L236.820411,143.033253 L236.752662,142.977635 L236.690373,142.915428 L236.373657,142.571351 L236.24321,142.458807 L236.170621,142.417518 L236.092401,142.390068 L236.015005,142.369804 L235.970414,142.373237 L235.926967,142.368112 L235.884272,142.379752 L235.834237,142.390084 L235.68436,142.414346 L235.529728,142.412346 L235.392428,142.404847 L235.251264,142.379482 L234.967572,142.313572 L234.804728,142.280346 L233.633349,142.090387 L233.570349,142.081877 L233.505837,142.079425 L233.373624,142.083937 L233.104662,142.11854 L232.972286,142.128431 L232.844357,142.12467 L232.718169,142.107807 L232.653158,142.086569 L232.593109,142.062406 L232.518698,142.007572 L232.464248,141.949845 L232.421202,141.885063 L232.405907,141.852725 L232.378474,141.739787 L232.372425,141.663545 L232.383787,141.330586 L232.382725,141.241616 L232.376267,141.160313 L232.348229,141.039913 L232.333441,141.001362 L232.288589,140.929477 L232.26579,140.899869 L232.232079,140.867891 L232.175635,140.798376 L232.125657,140.7273 L232.093916,140.647951 L232.068714,140.575616 L232.057286,140.494689 L232.050828,140.413387 L232.055896,140.330368 L232.069253,140.253962 L232.119411,140.101191 L232.152428,140.024319 L232.230591,139.894583 L232.275649,139.837428 L232.328995,139.784196 L232.37612,139.740561 L232.423703,139.702526 L232.472905,139.672411 L232.508733,139.65594 L232.546891,139.646801 L232.576875,139.644512 L232.610728,139.651346 L232.62973,139.660232 L232.650305,139.678052 L232.664676,139.698929 L232.679962,139.731267 L232.694414,139.756166 L232.709872,139.790638 L232.769728,140.048346 L232.792981,140.123752 L232.825441,140.202774 L232.866926,140.266232 L232.922439,140.318883 L232.95548,140.329992 L232.993654,140.346071 L233.032875,140.35024 L233.082657,140.345728 L233.186954,140.325005 L233.501929,140.04809 L233.498659,139.775817 L233.504218,139.686332 L233.529215,139.596406 L233.558921,139.506112 L233.550215,139.396812 L233.569605,139.321003 L233.577845,139.252232 L233.579153,139.184 L233.573185,139.10909 L233.561185,139.042967 L233.541657,138.969913 L233.499845,138.836098 L233.335458,138.433935 L233.298501,138.301616 L233.27155,138.194809 L233.255005,138.146744 L233.211469,138.075831 L233.169575,138.019657 L233.114234,137.981736 L233.05685,137.959493 L232.992837,137.950747 L232.89324,137.958512 L232.761943,138.009504 L232.696229,138.041973 L232.630335,138.0817 L232.570548,138.126054 L232.516548,138.171022 L232.423515,138.261144 L232.386861,138.289207 L232.357131,138.319689 L232.321131,138.343411 L232.228883,138.371507 L232.17051,138.361534 L232.1183,138.337869 L232.090629,138.319101 L232.063278,138.294937 L232.022308,138.243676 L231.978698,138.178501 L231.90373,138.028657 L231.835728,137.828346 L231.76658,137.589766 L231.751842,137.489253 L231.745384,137.408213 L231.748817,137.366899 L231.758798,137.332599 L231.76264,137.296624 L231.805065,137.206411 L231.839153,137.155477 L231.885649,137.103847 L231.926504,137.05346 L232.066597,136.906297 L232.10433,136.84167 L232.138163,136.778147 L232.163161,136.700834 L232.174621,136.613033 L232.180589,136.516003 L232.181978,136.461439 L232.185657,136.420379 L232.195041,136.378616 L232.226913,136.31551 L232.27497,136.271 L232.299158,136.255444 L232.330523,136.245488 L232.361177,136.229695 L232.42945,136.216869 L232.586872,136.212128 L232.751373,136.199327 L232.831049,136.185619 L232.94939,136.156567 L232.979864,136.13542 L233.015692,136.118948 L233.074139,136.057804 L233.124256,135.979608 L233.141406,135.938302 L233.419302,135.392826 L233.449163,135.288839 L233.446956,135.26085 L233.449899,135.226019 L233.434531,135.180005 L233.421232,135.160117 L233.399259,135.140907 L233.341948,135.119736 L233.258619,135.112542 L233.209065,135.116384 L233.01154,135.165283 L232.948286,135.191131 L232.82155,135.249267 L232.586144,135.38909 L232.470542,135.45254 L232.408703,135.483635 L232.347428,135.509327 L232.285646,135.528619 L232.217529,135.540349 L232.072351,135.551646 L231.946409,135.547804 L231.821545,135.557515 L231.695512,135.574567 L231.570657,135.596883 L231.322687,135.66339 L231.199147,135.714839 L231.084959,135.770932 L230.956229,135.829232 L230.80421,135.901681 L230.637575,135.962924 L230.471439,136.002136 L230.387728,136.015346 L230.313624,136.014422 L230.217395,136.00136 L230.183447,135.991395 L230.158016,135.979354 L230.132169,135.961518 L230.073583,135.882725 L230.065147,135.848777 L230.054651,135.817142 L230.045619,135.77573 L230.032956,135.688738 L230.006847,135.595542 L229.94155,135.423586 L229.828253,135.18724 L229.802455,135.107433 L229.78452,135.041768 L229.779044,134.972989 L229.783866,134.945531 L229.804556,134.889202 L229.820087,134.861973 L229.83767,134.83861 L229.897441,134.793995 L230.039308,134.741114 L230.163681,134.725264 L230.213463,134.714956 L230.431213,134.650804 L230.596875,134.589905 L230.677049,134.557379 L230.748877,134.517193 L230.808984,134.476837 L230.839703,134.461845 L230.856624,134.439602 L230.873896,134.424847 L230.896801,134.383134 L230.894676,134.356215 L230.854311,134.317902 L230.827474,134.300147 L230.787738,134.289553 L230.748518,134.272755 L230.625501,134.253496 L230.549643,134.232708 L230.46579,134.206501 L230.386343,134.163594 L230.313125,134.121684 L230.238125,134.072 L230.177406,134.016905 L230.129488,133.966183 L230.085943,133.907605 L230.058346,133.855305 L230.056711,133.83451 L230.04794,133.808907 L230.056278,133.766409 L230.067011,133.744657 L230.078643,133.731144 L230.127787,133.700229 L230.158327,133.692463 L230.201929,133.68903 L230.296253,133.687068 L230.953621,133.749929 L231.220548,133.764839 L231.492665,133.757319 L231.634728,133.746346 L231.762886,133.751033 L232.029943,133.755202 L232.155403,133.752995 L232.21873,133.740553 L232.335918,133.70649 L232.383959,133.674324 L232.438719,133.641896 L232.485452,133.605807 L232.54546,133.551782 L232.604259,133.50751 L232.666008,133.475343 L232.795335,133.43712 L232.858744,133.425749 L232.983207,133.41097 L233.116155,133.405738 L233.234921,133.391409 L233.35936,133.366975 L233.468668,133.318501 L233.529027,133.271965 L233.622411,133.170545 L233.655084,133.10497 L233.681259,133.042313 L233.720847,132.904044 L233.733215,132.827703 L233.77967,132.211984 L233.773703,132.137074 L233.601657,132.042627 L233.644245,131.929338 L233.652093,131.880447 L233.657651,131.790962 L233.631649,131.679463 L233.594782,131.620371 L233.539613,131.56297 L233.410466,131.463365 L233.118264,131.283529 L233.056523,131.225883 L232.994153,131.162605 L232.941728,131.082346 L232.913414,131.018948 L232.769471,130.390616 L232.743158,130.311447 L232.711163,130.238294 L232.63739,130.106965 L232.589471,130.043638 L232.534474,129.993946 L232.468229,129.944646 L232.359728,129.884346 L232.328807,129.868583 L232.207948,129.78142 L232.146411,129.73176 L232.091807,129.681553 L231.977728,129.544346 L231.945559,129.501741 L231.908602,129.428973 L231.864673,129.358567 L231.83352,129.286689 L231.782234,129.125507 L231.763237,129.04651 L231.750485,128.958447 L231.740447,128.832357 L231.72185,128.758428 L231.690109,128.691692 L231.670204,128.660785 L231.619711,128.602755 L231.566104,128.552474 L231.499441,128.51045 L231.347728,128.407346 L231.233921,128.333899 L231.164766,128.285629 L231.110496,128.227084 L231.044627,128.130071 L231.014365,128.056779 L231.003877,128.00958 L230.997011,127.922948 L230.996112,127.826719 L230.976256,127.746455 L230.94561,127.668365 L230.913616,127.595213 L230.871248,127.529572 L230.822332,127.466319 L230.599695,127.224798 L230.50054,127.10349 L230.459144,127.037507 L230.420316,126.966226 L230.390406,126.894251 L230.372856,126.821049 L230.354561,126.67897 L230.349657,126.529673 L230.349657,126.385877 L230.356768,126.243962 L230.37252,126.140752 L230.27078,125.953104 L230.27078,125.953104 L230.181175,125.762639 C230.03669,125.421482 229.995398,125.092615 230.312766,124.933583 C230.35404,124.754151 230.38298,124.546142 230.359503,124.345403 L230.327381,124.180526 L230.327381,124.180526 C230.049383,124.184593 229.868335,124.088235 229.774999,123.905703 C229.706514,123.772952 229.684906,123.593819 229.706504,123.374294 C230.25215,123.392603 230.07901,123.116652 229.841218,122.856288 L229.564724,122.569043 C229.544916,122.547735 229.527435,122.528071 229.5131,122.510436 L229.478047,122.459515 L229.478047,122.459515 C229.190995,121.727474 230.024717,121.841793 230.194531,121.382245 L230.08235,121.272711 C230.002676,121.182757 229.939098,121.081509 229.888265,120.971688 C229.67448,120.511165 229.685471,119.899347 229.673292,119.337815 C230.13353,119.266606 230.460304,119.176356 230.839168,119.165339 L231.034372,119.167332 L231.136554,119.173904 L231.136554,119.173904 L231.511263,119.211984 L231.511263,119.211984 L231.596888,119.217052 L231.596888,119.217052 L231.68026,119.217686 C232.065361,119.213824 232.350001,119.070795 232.247569,118.441747 C232.236947,118.376708 232.207832,118.320234 232.172641,118.263808 C232.1334,118.2007 232.086774,118.137933 232.049788,118.063485 C232.006938,117.977826 231.97726,117.877459 231.985638,117.744332 C231.999117,117.534864 232.114294,117.218777 232.295463,117.098997 C232.485207,116.974264 232.937798,117.082559 233.161989,117.036684 C233.410221,116.985986 233.620858,116.819932 233.859649,116.747703 L234.13119,116.654681 C234.306984,116.597556 234.506646,116.549876 234.641692,116.604251 Z" id="hamburg" stroke="#000000" stroke-width="0.5" fill="#8f8f8f" fill-rule="nonzero"></path>
</svg>
