<svg>
        <path d="M234.6 116.6h.1l.1.1v.1l.1.1v.2l.1.2v.1l.2.1.2.1h.1l.2.1h1l1.5-.1h.2c.3 0 .6 0 .8.2l.3.7v.4h-.6c-.3 0-.4.3-.6.4h-.8l-.7.4.5.2h.2c.6-.1 1.6-.6 2-.7.2-.1.2-.3.4-.2.2.1.4.4.3.6 0 .5-.7.3-.7.9H238.9l-.2-.1c-.2 0-.3.1-.2.5-.2 0-.4.2-.4.5v.1h.7l.4.4v.4c-.4.3-1.9.2-1.7 1h1l.5-.1v.4h.1l.3.4.2.5V124.8c-.3.4-1 .1-1.4.7v1l.2-.2v-.1h.1l.1-.1.1-.1h.2v.4l.1.1V126.8h.7v.1h.1l.2.1.2.1h.4l.1.1h.1v.2l.1.1v.2l.1.1h.1l.1.1H241.6l.1-.1.1-.1v-.2h.1v-.1h.5l.1.2v.2l-.1.6v.4l-.1.2v.1l-.1.1-.1.2v.1l-.4.6h-.1v.1h-.1v.1H241l-.1.1h-.2l-.1.2h-.1v.1h-.1v.1l-.1.1v.1l-.2.2v.2l-.1.1v.1l-.2.1v.1h-.1l-.1.1H238.4l-.1.1v.2l.1.1h.2l.2-.1.1-.1h.4v.1h.1v.1h.4l.2-.2h.1v-.6l.1-.1v-.1h.1l.4-.2.1-.1.2-.2h.1l.2-.1h.2v-.1h.1v-.1l.2-.1v-.2l.1-.2.1-.1v-.1l.1-.1.2-.1v-.1h.2l.1.2v.8l-.1.1v.8l-.2.3v.1l-.3.3h-.1v.1h-.1l-.2.1h-.1l-.3.1h-.1v.1h-.2v.4l.2.1h.4l.1-.1h.1l.2-.2h.2l.2-.1h.1l.2.1H243l.4-.2h.5v.1l.1.1v.7l-.1.2V135.2h.2l.1-.2.1-.1v-.8l.1-.1v-.1h.1v-.1l.2-.1v-.1h.1l.5-.2h.2v-.1h.5l.1.1.2.1v.2l.1.2v.1h.1v.1h.1l.1.1h.6l.2.2H247.8l.1.1.1.1.1.2v.2l.1.1v.1l.1.1h.1l.1.1H249.4l.2-.1.2-.1v-.1l.3-.3.2-.2h.2l.2-.1H251l.3.1h.1l.1.1h.2l.2-.2.3-.2.2-.1h.2l.2.1v.2l-.2.2-.3.1-.1.2v.1h-.1V136.5l.1.2v.4l.1.1V137.4l-.3.3v.2l-.1.1-.1.1-.2.1-.1.1h-.2v.1h-.2v.1l-.1.1-.2.2v.2h-.1v.1h-.1v.1H250.2v.1H250v.1h-.1l-.1.1-.1.1-.1.1-.2.3V140.3l-.1.1v.4l-.1.1v.1l-.1.1-.1.1-.1.1h-.2v.1h-.1l-.2.1h-.4l-.1.1h-.1v.5l-.1.4v.2l.1.1V143.7l-.1.1v.2h-.2v.2H248.7l.1-.1.2-.2h.4v.2l.1.1v1.1l.1.2v.1h.1v.1l.1.1h.1l.2.2h.1l.3-.3h.1v-.1h.1l.1-.1.3-.1H251.3v.6l-.1.2v.4l.1.2h.1v.1h.1v.5l-.1.2v.1l-.2.2v.2H250l-.1.1v.1l-.1.3v.5l-.1.2-.1.1h-.1l-.1.1h-.2l-.1.1h-.1v.1h-.2v.1l-.1.1-.1.3-.1.2v.1l-.1.2v.4l-.1.1v.2h-.5l-.2-.1-.1-.1-.2-.2-.1-.2h-.1l-.1-.1h-.2l-.1-.2h-.5l-.1-.1h-.1l-.2-.1v-.2h-.1l-.2-.2-.1-.1-.2-.1-.2-.1h-.1l-.1-.1h-.5l-.1-.1h-.2v-.1h-.1l-.1-.1-.3-.2v-.1l-.1-.2v-.1l-.1-.2v-.6l-.3-.2-.1-.1-.1-.2-.1-.2v.2l.1.1.2.2.2.2h.1V148.7l.2.2.3.3h.1v.1H244.4l.6.2.2.1h.2l.2.2.1.1.2.1v.1l.1.1v.1l.1.1V150.7l-.1.1-.3.3h-.1v.1h-.4v.1l-.2.2v.1l-.1.1H244v-.1l-.2-.1v-.1l-.3-.2v-.1l-.2-.1-.1-.2v-.5l-.1-.1h-.1l-.1-.1-.2-.1v-.1h-.1V148.8h-.2l-.4-.1h-.9l-.1.1-.5.5h-.1l-.6.2-.5.1v.5c0 .3-.4.5-.6.7l-.1.2h-.1l-.2.5c0 .3 0 .6.3.7v.8c.3 0 .5 0 .5.3l-.2.1v.2c0 .3.2.8.4 1 .2 0 .4-.2.6 0l.2.5v.1c-.3 0-.8.3-.9.7V156.6c.1 0 0 .1 0 .1v.2c0 .4.1.5.2.7v.5l-.1.4c-.1.2-.2.3-.4.3h-.2c-.3 0-.4 0-.6.3l-.5.2h-.1v.2l-.1.1-.3.2-.4.4-.1.2-.1-.1h-.7l-.1.1h-.7v-.1l-.1-.1v-1h-.1v-.1h-.1l-.1-.1H234.3l-.2-.2-.2-.2h-.1v-.1h-.5l-.1-.1v-.2l-.1-.2v-.4l-.1-.2-.1-.1-.1-.1H232.1v-.1l-.2-.1h-.1l-.2-.1h-.4l-.1.1-.1.1-.1.2H230.7l-.1-.4v-.1h-.1l-.1-.1H229.6v.1h-.1v.1h-.1v.4l-.1.1v.1h-.1v.1l-.5.3-.3.3v.4h-.1V160l-.1.1-.1.2-.2.2V161.2l.1.3.1.3V162l-.3.3h-.3l-.1.1-.3.1-.4.2V164.3l.3.3.1.1v.5h-.1v.1h-.1l-.2.1-.1.1v.1h-.1V166.6l.1.1v.4l.1.2v.2h.1l.1.2h.1l.1.2h.1l.2.1.3.2.1.1v.2h.1V169.3l.1.3v.1l.1.2v.4l-.3.3V170.9l.1.1.1.1h.1v.1l.1.1v.1l-.1.2-.3.2v.5h-.1l-.1.2h-.1l-.1.1h-.4l-.2-.3-.1-.1h-.1l-.1-.1H225.7v.1l-.1.2-.1.1-.1.2-.1.1-.1.1-.1.1h-.2l-.2.1h-1l-.3.1h-.1l-.3.1H222.7l-.1-.1v-.4l.1-.2h.2v-.1h.4v-.1l.1-.3.1-.3v-.1l.1-.1v-.5h-.5l-.1.1H222.6V170.8h-.1v-.9h.3l.1-.2h.1l.1-.1v-.7h.2v-.2h.1v-.4l-.3-.3-.1-.2v-.1l-.1-.1-.1-.1H222.5l-.6.2H221.7l-.1-.1v-.1l-.1-.1v-.1l-.1-.1h-.1v-.1H221v-.2h-.1V166.1h-.1v-.1h-.1l-.1-.1h-.7l-.1.1V167.5h-.1v.1h-.1l-.4.2h-.2l-.2.2-.1.1-.2.3-.2.2h-.1l-.2.1h-.1l-.1.1-.1.1-.2.2-.1.1-.1.1h-.9v-.1h-.4l-.1.1h-.2l-.1.1H214.8v-.7l.1-.2.1-.1.1-.1V166.7h-.1l-.2-.2h-.1V165.7h-.1l-.1-.1h-.4l-.4.2h-.5v-.2h-.1v-.1h-.1v-.1H212l-.1-.1-.1-.1-.1-.1v-1h.1v-.1h.5v-.2l-.2-.2-.1-.1v-.2l-.1-.1v-.4l.1-.1h.2l.2-.1h.1l.3-.2h.6l.4.4h.1v.1H214.9l.2-.2v-.1h.1v-.1h.1V160l.2-.2v-.1l.2-.3v-.1l.1-.2v-.1l.1-.2v-.2h.1l.1-.2.1-.1.2-.3h.2v-.2l.2-.4v-.2l.2-.3v-.6l-.1-.3v-.3l-.1-.2v-.1l-.1-.4V154.5l.1-.2v-.1l.1-.1v-.2l.2-.2v-.1l.1-.1v-1.3l-.1-.1v-.4l.1-.1h.5v-.1l-.2-.1-.2-.1h-.6l-.4-.4h-.1l-.1-.1h-.4l-.3.2H215v-.1h-.1V150.2l.1-.4V148.7l.1-.1v-.1l.1-.1.1-.1h.2l.1-.1h.5l.2.1H216.6l.1-.4.1-.1v-.1h.1v-.2h-.8v-.1h-.1l-.1-.2V146.9h.1l.1-.2.3-.2.2-.1v-.1l.1-.1v-.1l.3-.4h.3l.2-.1H218.5l.1-.1h1l.2.1h.7v-.1h.1l.1-.2h.1v-.1H221.2v-.1h.2l.4-.1H222.6l.4.1H224.1v.1h.1v.1l.1.2V146.5l.1.1h.1v.1h.2l.1.1h.1v.1l.1.1v.1l.1.4v.2l.2.2v.2l-.1.1-.1.1-.1.1-.3.2-.1.2v.2h-.1V149.7l.1.1.1.1H225l.2-.2h.2l.1.2v.4h.1l.1.1.1.1h.1l.2.1h.5v-.1l.1-.1v-.2h.1V149.5l.1-.2.1-.2v-.1l.1-.1V148.7l-.2-.1h-.7V147.7l.1-.2v-.1l.1-.1v-.1h.1v-.1h.2l.1-.1h.7v.1l.1.1.1.3.2.2v.1l.1.1h.6v.1h.1v.1h.1v.2h.1v.6l-.3.4v1l-.1.1-.2.3V151.1l-.1.4v.5l.1.1v.2l.1.1v.7l-.1.1v.7l.1.2h.1l.1.1.3.2h.2l.1.2H229.5v-.4l-.1-.2-.4-.4-.2-.1v-.4l.2-.4v-.2l.1-.1V150.5l-.1-.3v-.7h.1l.2-.1.1-.1.1-.1V147.8l-.1-.1v-.2h-.1l-.1-.1-.1-.1v-.1l-.1-.1-.1-.2-.1-.2v-.2l-.1-.3v-.4l-.1-.2v-.3l.1-.1.2-.3v-.2h.1v-.2l.1-.2.1-.1.1-.4.1-.3.1-.2v-.1l.1-.1.1-.2h.1l.1-.1h.4v.1l.2.1.1.2.1.1.2.1v-.2h1l.3.1h1.3l.2-.2h.1l.1-.1H235.4l.1.2h.1l.2.1h.4v.1h.1l.2.2.1.1v.1l.2.2V144.7h.1v.1l.1.2.1.1.2.2h.1l.1.1v.1h.1v.1l.1.2h.1l.2.5v.2l.2.4v.1l.1.2.1.1.1.1.4.5.1.2h.2v.1h.4v.1h.1v.1l.2.1.2.1.1.1h.1l.5-.4.4-.2H240.5v-.1h-.1l-.2-.1-.1-.1h-.5l-.3-.1h-.1v-.1h-.1v-.1h-.1l-.1-.3v-.4l-.1-.1v-.1l-.1-.2v-.1l-.2-.5v-.1l-.2-.2-.1-.2-.3-.2-.2-.2v-.1l-.2-.2V143.9l-.1-.3v-.1l-.1-.1-.2-.2h-.1l-.1-.1-.1-.1h-.1l-.3-.4-.2-.1-.1-.1H235l-.2-.1-1.2-.2h-1l-.1-.2-.1-.2v-.7h-.1v-.1l-.1-.1-.1-.2v-.5l.1-.2.1-.1.1-.1H232.8v.4l.1.1.1.1H233.3l.3-.3v-1.2l-.2-.4V138.1h-.1v-.1h-.5l-.1.1-.2.2H232l-.1-.1-.1-.2v-.2l-.1-.2v-.5h.1l.2-.2v-.4l.1-.1v-.1h.4l.2-.1h.2v-.1l.1-.1.3-.6v-.2H232.7l-.2.2h-.1l-.2.1H231.6l-.1.1h-.3l-.1.1h-.1l-.1.1-.2.1h-.2l-.1.1H230.2l-.1-.1V135.5l-.2-.2v-.2h-.1V134.8l.1-.1H230.2l.2-.1.2-.1h.1l.1-.1.1-.1v-.1h-.4l-.1-.1-.2-.1v-.1h-.1V133.6H232.5l.1-.1h.1v-.1h.5l.1-.1h.2l.1-.1.1-.1v-.1l.1-.2v-.7l-.1-.2v-.4l-.2-.1-.3-.2-.1-.1v-.1l-.2-.7v-.2h-.2v-.2h-.1l-.1-.1-.2-.1-.1-.1-.1-.2-.1-.1v-.1l-.1-.2V128.7l-.1-.1v-.1h-.2l-.2-.2-.1-.1-.2-.2v-.5h-.1v-.1l-.3-.3-.1-.1v-.1l-.1-.1v-.7l-.1-.2-.1-.2c-.2-.4-.2-.7.1-.9v-.7c-.3 0-.4-.1-.5-.3v-.5c.5 0 .3-.3 0-.5l-.2-.3-.1-.1c-.3-.8.5-.7.7-1.1l-.1-.1-.2-.3c-.2-.5-.2-1.1-.2-1.7l1.1-.1h.8c.5 0 .8-.1.6-.8v-.1l-.2-.2v-.4c0-.2.1-.5.3-.6h.9l.7-.4h.2c.2-.1.4-.2.5-.1Z" id="hamburg" stroke="#000000" stroke-width="0.5" fill="#8f8f8f" fill-rule="nonzero"/>
</svg>
