<svg>
  <path
     d="m 212.30228,150.70126 c 0.4233,-0.0241 0.75607,-0.005 0.97574,0.039 0.24895,0.0586 0.46199,0.19024 0.66351,0.35127 0.20151,0.16103 0.3772,0.35855 0.54641,0.58545 0.3322,0.44543 0.64271,0.99283 0.93672,1.48313 0.15525,0.25892 0.29936,0.4901 0.46835,0.70253 0.12225,0.15368 0.239,0.29227 0.37038,0.40444 l 0.13701,0.10295 h 0.039 l 0.17948,0.11348 c 0.0308,0.0172 0.0621,0.0321 0.0937,0.0426 0.21093,0.0704 0.44075,0.0651 0.70253,0 0.13089,-0.0325 0.28289,-0.0829 0.42933,-0.15612 0.0586,0.49789 -0.0378,1.11233 -0.19515,1.75634 -0.0787,0.322 -0.16393,0.64463 -0.27321,0.97574 -0.10931,0.33111 -0.22687,0.6538 -0.35127,0.97574 -0.10102,0.26249 -0.20473,0.51502 -0.30688,0.75596 l -0.43468,1.00038 c -0.2159,0.49757 -0.37075,0.88782 -0.42933,1.09284 -0.21965,0.58575 0.0194,1.55458 0,2.18566 -0.004,0.12622 -0.0478,0.2561 -0.0781,0.35127 -0.0604,0.19028 -0.15599,0.27321 -0.3903,0.27321 -0.21778,0 -0.41896,-0.003 -0.62447,-0.039 -0.56837,-0.10063 -1.11503,-0.31224 -1.71731,-0.31224 l -0.16838,0.003 c -0.17541,0.008 -0.35653,0.0385 -0.4047,0.16188 l -0.0124,0.0697 c -0.0462,0.13855 0.0164,0.28316 0.10242,0.42366 l 0.0537,0.0837 v 0.039 l 0.11273,0.15606 c 0.0173,0.026 0.0325,0.052 0.0434,0.0781 0.0452,0.0973 0.0714,0.17591 0.039,0.2732 0,0.041 -0.0478,0.0656 -0.0781,0.0781 -0.0567,0.005 -0.15375,0.007 -0.23418,0 l -0.13854,-0.0122 c -0.0656,-0.002 -0.12469,0.007 -0.1737,0.0512 l -0.0581,0.0603 -0.0198,0.0567 v 0 c -0.066,0.10983 -0.13002,0.22044 -0.15612,0.31223 -0.0816,0.28626 0.023,0.46689 0.23418,0.62448 0.0955,0.0713 0.20304,0.15053 0.33196,0.2148 l 0.13639,0.0584 h 0.039 c 0.63537,0.2217 1.52815,0.34932 2.13056,0.65647 l 0.21123,0.12412 h 0.039 c 0.2068,0.14734 0.35891,0.33972 0.41152,0.57899 l 0.0178,0.12355 c 0.11722,0.7322 0.0549,1.31967 -0.11703,1.79537 -0.0859,0.23785 -0.17185,0.4315 -0.31223,0.62447 -0.14657,0.20946 -0.3116,0.37419 -0.50739,0.54642 -0.18293,0.16093 -0.37185,0.28761 -0.58545,0.42933 -0.1511,0.10174 -0.30246,0.19428 -0.46025,0.28757 l -0.94338,0.55177 c -0.23459,0.14056 -0.46967,0.28755 -0.70397,0.44864 -0.13177,0.0879 -0.20308,0.16211 -0.23418,0.23418 -0.0942,0.15858 0.0342,0.27127 0.23418,0.39029 0.0933,0.0556 0.19508,0.1013 0.31223,0.15612 0.23423,0.10972 0.48785,0.25309 0.66351,0.3903 0.17567,0.13721 0.28295,0.26334 0.19515,0.46836 -0.0439,0.10251 -0.15156,0.2052 -0.27321,0.31224 -0.0541,0.0476 -0.12675,0.1041 -0.20124,0.15763 l -0.22802,0.1546 v 0 l -0.039,0.039 v 0 c -0.35187,0.20373 -0.79819,0.41643 -1.24895,0.58545 -0.70248,0.26342 -1.45469,3.21042 -1.95149,3.26799 -0.1656,0.0192 -0.28776,0.0146 -0.3903,0 -0.0599,0 -0.12485,-0.009 -0.18582,-0.0209 l -0.0874,-0.018 h -0.039 c -0.38856,-0.0959 -0.69278,-0.3722 -1.01047,-0.62064 l -0.16043,-0.12093 h -0.039 c -0.1555,-0.10978 -0.29263,-0.21463 -0.46836,-0.27321 -0.0292,-0.0146 -0.0681,-0.009 -0.0781,0 v 0.039 0 c 0,0 0.0415,0.1244 0.0781,0.23418 0.029,0.0878 0.0315,0.19265 0.039,0.27321 l 0.002,0.0405 v 0 l -0.002,0.0375 c -0.006,0.0456 1.2e-4,0.0586 -0.039,0.0781 -0.35146,0.11715 -0.71726,0.0928 -1.0538,0.0781 -0.1234,-0.005 -0.2305,-2.75961 -0.33971,-2.74581 l -0.16768,0.0242 c -0.15915,0.0201 -0.28289,0.0292 -0.42933,0.11703 -0.0698,0.035 -0.11203,0.0889 -0.11702,0.15612 -0.033,0.15914 0.11702,0.37068 0.11702,0.54642 l -0.13154,0.2501 v 0 l -0.0636,0.14019 c -0.0391,0.0888 -0.0693,0.14963 -0.0781,0.23418 -0.007,0.0695 0.01,0.13657 0.039,0.19515 0.17573,0.32217 0.45671,0.6959 0.7806,1.09283 l 0.33772,0.40985 c 0.0572,0.0705 0.11408,0.142 0.16966,0.21463 0.11116,0.14525 0.21559,0.28605 0.31731,0.43422 l 0.15105,0.22929 v 0.039 c 0.30005,0.47554 0.55934,0.96414 0.66351,1.52216 0.10422,0.55802 2.54732,2.72853 2.28377,3.37286 -0.0879,0.20502 -0.21956,0.40251 -0.35127,0.58545 l -0.13733,0.17383 v 0 l -0.292,0.33356 v 0.039 c -0.13938,0.16729 -0.2648,0.3331 -0.3903,0.50739 -0.14449,0.19616 -0.25647,0.36426 -0.35126,0.58545 -0.0497,0.0995 -0.0693,0.20713 -0.0781,0.2732 -0.0104,0.0739 0.01,0.11491 0.039,0.15612 0.0536,0.0763 0.13804,0.10064 0.25625,0.11114 l 0.095,0.006 h 0.039 c 0.0942,0.003 0.18816,0.007 0.27242,0.0175 l 0.11788,0.0215 h 0.039 c 0.0819,0.0289 0.15402,0.0807 0.16054,0.17347 l -0.004,0.0607 -0.74667,0.65974 c 4.50506,-0.56339 -0.45178,0.39695 -0.46827,0.35125 -0.0296,-0.0823 4.93574,0.43795 0.27314,-0.70256 -0.0285,-0.0465 -0.0507,-0.0741 -0.15612,-0.039 -0.14325,0.35181 4.11104,1.8672 -0.11702,0.74156 v 0.039 0 l 0.0353,0.0616 v 0 l 0.0427,0.0554 c 0.0675,0.10081 0.15106,0.17422 0.2732,0.23417 0.22214,0.1091 -3.46334,-0.0801 -3.21537,0.0655 0.12398,0.0728 0.25822,0.18884 0.35127,0.31224 0.093,0.12342 0.15818,0.26668 0.19515,0.46836 0.037,0.20168 0.044,0.43397 0,0.74156 -0.0146,0.0586 -0.0442,0.11041 -0.0781,0.15612 -0.0337,0.0457 -0.0695,0.0804 -0.11703,0.11703 l -0.039,0.039 v 0 c -0.0873,0.0603 -0.21057,0.10528 -0.31224,0.15612 -0.16626,0.0831 -0.32591,0.18718 -0.42932,0.31223 -0.0422,0.0511 -0.0611,0.0882 -0.0781,0.15612 0,0.0586 0.0195,0.16591 0.0781,0.31224 0.0434,0.11596 0.1025,0.23407 0.18399,0.36786 l 0.0892,0.13953 h -0.11702 c -0.84349,-0.0526 -1.70599,0.10001 -2.33592,0.003 l -0.20102,-0.0421 h -0.039 c -0.14581,-0.0437 -0.28639,-0.144 -0.3903,-0.23418 -0.0558,-0.0485 -0.1144,-0.0909 -0.15612,-0.15612 -0.12514,-0.19553 -0.18509,-0.47155 -0.15612,-0.85865 0.0194,-0.25807 0.0926,-0.57061 0.19515,-0.93672 0.0317,-0.12692 0.0743,-0.22531 0.15612,-0.31223 0.0732,-0.0824 0.14638,-0.12933 0.23418,-0.19515 l 0.12257,-0.0969 v 0 l 0.11161,-0.0983 c 0.083,-0.073 0.16305,-0.13801 0.19514,-0.23418 0.0294,-0.0586 -4.9e-4,-0.0914 -0.039,-0.11703 -0.0768,-0.0512 -0.24511,-0.0658 -0.35127,-0.11702 -0.0531,-0.0256 -0.0781,-0.0585 -0.0781,-0.11703 0.049,-0.29383 0.16637,-0.55165 0.31376,-0.81529 l 0.11557,-0.19948 c 0.0951,-0.16096 0.18353,-0.30371 0.27321,-0.46836 0.0897,-0.16465 0.1756,-0.33166 0.23417,-0.50739 0.0322,-0.0644 0.0774,-0.1307 0.15612,-0.19515 l 0.11703,-0.0781 v 0 l 0.13574,-0.10657 c 0.12999,-0.10755 0.22924,-0.21731 0.1765,-0.32275 -0.14278,-0.18672 -0.30082,-0.33885 -0.4623,-0.48258 l -0.16218,-0.1419 c -0.16695,-0.14679 -0.31928,-0.2792 -0.48807,-0.39593 l -0.17543,-0.11146 h -0.039 c -1.42142,-0.82339 -3.12162,-0.82924 -4.52745,-1.09283 -0.1025,-0.0146 -0.21707,-0.0914 -0.31224,-0.19515 -0.0952,-0.10382 -0.18541,-0.22381 -0.27321,-0.39029 -0.10848,-0.20566 -0.20148,-0.44301 -0.29088,-0.69423 l -0.37599,-1.09106 c -0.12592,-0.35924 -0.2389,-0.65873 -0.33834,-0.83197 l -0.0992,-0.15654 c -0.0216,-0.0306 -0.04,-0.0451 -0.0664,-0.0363 -0.38722,0.0861 -0.59587,0.24494 -0.74156,0.3903 -0.0294,0.0311 -0.0766,0.051 -0.11307,0.0753 l -0.043,0.0417 v 0.039 l -0.039,0.0781 v 0 l -0.0193,0.0647 v 0 l -0.0197,0.13046 c -0.0135,0.0788 -0.0246,0.15011 -0.0317,0.21637 l -0.007,0.0959 c -0.004,0.0806 -0.008,0.11353 -0.039,0.15612 -0.0313,0.0426 -0.0991,0.0909 -0.19515,0.0781 -0.19208,-0.0257 -0.5363,-0.19496 -1.20992,-0.54642 -0.0408,-0.0271 -0.0706,-0.0482 -0.0782,-0.0804 l 1.9e-4,-0.0756 v 0 c 0.0261,-0.12423 0.18911,-0.2571 0.35127,-0.42933 0.0963,-0.10226 0.18948,-0.19851 0.25579,-0.29436 l 0.0564,-0.0959 v -0.039 c 0.0496,-0.10526 0.0791,-0.19415 0,-0.27321 -0.14936,-0.11612 -0.2642,-0.12452 -0.39029,-0.11703 -0.22074,0.0139 -0.43287,0.13955 -0.62448,0.35127 l -0.38092,0.42608 c -0.0652,0.0694 -0.13274,0.13633 -0.20453,0.1984 -0.10768,0.0931 -0.18871,0.15218 -0.31223,0.19515 -0.12349,0.0427 -0.28317,0.0758 -0.42933,0.039 -0.14617,-0.0369 -0.29263,-0.12677 -0.46836,-0.27321 -0.0294,-0.0293 -0.0237,-0.0848 0,-0.15611 l 0.12416,-0.33163 c 0.0128,-0.0356 0.0239,-0.0688 0.032,-0.0977 0.008,-0.0299 0.0117,-0.0445 0.009,-0.0577 l -0.009,-0.0204 c -0.006,-0.0108 -0.009,-0.0245 -0.018,-0.0325 l -0.0209,-0.006 c -1.05437,-0.30752 -1.41943,-0.11916 -1.48313,0.23418 -0.0637,0.35334 0.15999,0.8894 0.23418,1.24895 0.0247,0.11985 0.0231,0.20115 0,0.27321 -0.008,0.0252 -0.0225,0.0607 -0.039,0.0781 -0.0293,0.0195 -0.0658,0.039 -0.11702,0.039 -0.0504,0.0167 -0.10936,0.0282 -0.16195,0.0342 l -0.0722,0.005 h -0.039 c -0.038,-0.005 -0.0744,-0.0242 -0.10795,-0.0455 l -0.0482,-0.0325 c -0.0555,-0.0383 -0.11727,-0.0824 -0.15612,-0.15612 -0.0388,-0.0737 -0.0559,-0.16305 -0.0781,-0.27321 -0.0958,-0.063 -0.21046,-0.095 -0.33301,-0.11746 l -0.25243,-0.0387 h -0.039 c -0.15981,-0.0248 -0.31807,-0.0642 -0.43145,-0.13548 l -0.0759,-0.0597 c -0.36837,-0.29991 -0.61689,-0.396 -0.79504,-0.42242 l -0.0636,-0.007 h -0.039 l -0.18497,0.0116 c -0.0595,0.003 -0.11868,0.002 -0.18281,-0.0141 l -0.10058,-0.0365 c -0.2343,-0.0586 -0.46841,-0.29271 -0.70253,-0.46836 -0.17559,-0.1317 -0.33172,-0.22812 -0.50739,-0.19515 -0.0698,0.006 -0.12533,0.0257 -0.19515,0.0781 -0.0584,0.0586 -0.095,0.15362 -0.11702,0.23418 -0.0219,0.0805 -0.029,0.15612 -0.039,0.23418 l -0.0197,0.0739 v 0 l -0.0837,0.1795 c -0.005,0.007 -0.0106,0.0115 -0.0189,0.0148 l -0.23303,0.0351 c -0.0376,0.004 -0.0759,0.008 -0.11303,0.009 -0.25621,0.003 -0.60258,-0.0353 -0.85865,-0.19515 -0.12803,-0.0799 -0.22456,-0.20315 -0.31224,-0.35126 -0.0339,-0.0572 -0.13639,-0.0982 -0.27321,-0.15612 -0.41048,-0.17378 -1.15494,-0.36335 -1.48313,-0.50739 -0.32224,-0.14144 -0.81619,-0.60589 -0.93671,-1.01477 -0.0463,-0.13353 -0.0477,-0.24598 0,-0.35127 0.0586,-0.12914 0.11812,-0.22271 0.19287,-0.30748 l 0.0803,-0.0828 c 0.0994,-0.1029 0.18834,-0.1741 0.31223,-0.23418 0.2478,-0.12002 0.54478,-0.16236 0.85866,-0.15612 0.29727,0.006 0.572,0.0652 0.88704,0.11836 l 0.24482,0.0378 h 0.039 c 0.41519,0.0546 0.91242,0.0792 1.48313,-0.039 0.044,0.007 0.09,0.0656 0.15612,0.11702 l 0.15169,0.11819 c 0.0273,0.0232 0.0551,0.0486 0.0825,0.077 0.49197,0.51041 1.2132,1.51719 1.48313,1.91246 0.0403,0.0591 0.0919,0.11578 0.15612,0.15612 0.1541,0.0967 0.34678,0.137 0.54927,0.15053 l 0.19223,0.006 c 0.32464,-0.003 0.63447,-0.0676 0.62447,-0.11703 -0.0351,-0.18227 -0.11334,-0.30755 -0.19514,-0.42933 -0.0457,-0.0722 -0.0915,-0.13501 -0.14562,-0.19187 l -0.0886,-0.0813 h -0.039 l -0.20016,-0.16306 v 0 l -0.11208,-0.0711 h -0.039 l -0.39029,-0.19515 v 0 c -0.43957,-0.20444 -0.89026,-0.44459 -1.01478,-0.70254 -0.0207,-0.043 -0.0377,-0.0742 -0.039,-0.11703 -0.008,-0.053 0.0132,-0.10403 0.039,-0.15611 0.0342,-0.0692 0.10054,-0.11154 0.15612,-0.15612 0.0506,-0.0362 0.0944,-0.0571 0.15612,-0.0781 0.18048,-0.0615 0.41725,-0.10029 0.62448,-0.0781 0.37081,0.0397 0.70253,0.15612 0.70253,0.15612 l -0.0971,-0.059 c -0.0755,-0.0495 -0.17951,-0.12614 -0.25414,-0.21419 -0.0979,-0.11557 -0.13801,-0.25835 -0.039,-0.35127 0.033,-0.031 0.084,-0.0566 0.15612,-0.0781 0.2107,-0.063 0.36203,0.014 0.49547,0.12115 l 0.129,0.11303 c 0.0925,0.0842 0.17692,0.14482 0.27321,0.19515 0.0788,0.0415 0.17542,0.0662 0.27321,0.039 0.33718,-0.0939 0.59625,-0.13114 0.85865,-0.23418 l 0.0791,-0.0371 v 0 l 0.0771,-0.041 c 0.13491,-0.069 0.28369,-0.16231 0.41381,-0.28894 l 0.0936,-0.10136 c 0.0938,-0.11353 0.18104,-0.14738 0.27321,-0.15612 0.27639,-0.0259 0.60628,0.28158 1.36604,0.19515 0.36076,-0.041 0.50964,-0.0926 0.59511,-0.16642 l 0.0883,-0.081 c 0.008,-0.009 0.0153,-0.0175 0.0191,-0.0258 0.005,-0.014 -8.6e-4,-0.0256 0,-0.039 0.018,-0.056 0.0191,-0.0787 0,-0.11703 l -0.039,-0.0781 v 0 l -0.15938,0.0443 c -0.14788,0.0378 -0.38081,0.0896 -0.62122,0.11185 -0.13356,0.0125 -0.26343,0.0125 -0.39029,0 -0.16284,-0.0156 -0.34891,-0.0655 -0.52753,-0.12854 l -0.17501,-0.0666 h -0.039 c -0.15212,-0.0639 -0.29889,-0.13975 -0.44477,-0.22252 l -0.21873,-0.12875 h -0.039 c -0.38082,-0.23302 -0.71064,-0.50537 -0.9786,-0.70759 l -0.15326,-0.11203 c -0.19801,-0.13848 -0.38073,-0.28095 -0.5448,-0.41527 l -0.15774,-0.13115 h -0.039 c -0.20667,-0.17552 -0.35949,-0.34771 -0.50738,-0.50739 -0.44366,-0.47903 -0.64671,-0.8771 -0.70254,-1.20992 -0.0241,-0.14311 -0.013,-0.27746 0.0112,-0.39532 l 0.0277,-0.11207 v -0.0779 c 0.0282,-0.0774 0.0771,-0.13483 0.11703,-0.19515 l 0.0183,-0.0838 c 0.004,-0.0108 0.0103,-0.0213 0.0207,-0.0332 0.0242,-0.0385 0.0809,-0.0558 0.11703,-0.0781 0.14985,-0.0624 0.3527,-0.0591 0.55334,-0.0679 l 0.1492,-0.0101 c 0.11708,-0.007 0.22443,-0.0195 0.31223,-0.0781 0.30101,-0.1806 0.51681,-0.43916 0.74157,-0.74157 l 0.43613,-0.59982 c 0.0739,-0.10047 0.14928,-0.20024 0.22737,-0.29786 0.65111,-0.71031 1.30778,-1.55599 1.91246,-2.45888 0.29998,-0.4463 0.56902,-0.87148 0.81963,-1.32701 0.2506,-0.45553 0.48778,-0.92672 0.6635,-1.36604 0.17573,-0.4979 0.27259,-1.09591 0.35127,-1.75634 0.0897,-0.75386 0.15907,-1.5891 0.26452,-2.40171 l 0.0868,-0.60358 v -0.15599 c 0.0592,-0.34596 0.14363,-0.65286 0.23418,-0.97575 0.18113,-0.64578 0.43888,-1.2487 0.81962,-1.71731 0.0292,-0.0294 0.0341,-0.015 0.0781,0 h 0.039 v 0 l 0.0366,0.0214 v 0 l 0.0804,0.0567 h 0.039 c 0.1125,0.0675 0.26677,0.14738 0.42933,0.15612 -0.0566,0.15195 -0.0984,0.27677 -0.11703,0.3903 -0.068,0.35928 0.0643,0.52764 0.46836,0.6635 l 0.14711,0.0483 c 0.0414,0.0124 0.0793,0.0217 0.1261,0.0297 0.19221,0.12285 0.2298,0.32096 0.11702,0.54642 -0.13337,0.26663 -0.0963,0.26549 0.11703,0.58545 0.2133,0.31995 -0.0487,0.69675 0.35127,0.93671 0.37494,0.22491 0.29348,0.39044 0.91894,0.10268 l 0.13486,-0.0637 c 0.22942,-0.1108 0.36565,-0.14911 0.46218,-0.15544 l 0.0452,-6.8e-4 v 0.039 c 0.0801,0.10438 0.11803,0.24073 0.23418,0.35126 0.10351,0.0984 0.27182,0.1791 0.54641,0.15612 0.11074,-0.009 0.19803,0.0154 0.27321,0.039 0.22548,0.0708 0.31536,0.23942 0.3903,0.31224 0.009,0.0417 -0.002,0.0993 -0.0163,0.15483 l -0.0226,0.0793 c -0.0105,0.0365 -0.0211,0.0787 -0.039,0.11702 l -0.039,0.0781 v 0.039 c -0.0725,0.11311 -0.16965,0.2165 -0.27831,0.32229 l -0.11199,0.10704 -0.11703,0.11702 c -0.30334,0.27012 -0.6258,0.45956 -0.81962,0.50739 -0.053,0.0131 -0.11703,0.0132 -0.15612,0 -0.1174,-0.0398 -0.18428,-0.16105 -0.27321,-0.27321 -0.0523,-0.0659 -0.11297,-0.13289 -0.19515,-0.15612 h -0.039 v 0 c -0.10012,-0.0156 -0.20659,2.5e-4 -0.3903,0.11703 -0.0732,0.10252 -0.13214,0.20433 -0.15612,0.31224 -0.0588,0.22511 -0.009,0.43177 0.0781,0.6635 l 0.0461,0.10616 v 0 l 0.11007,0.20608 v 0.039 c 0.23325,0.4322 0.56215,0.81186 0.62447,1.09283 0.0196,0.088 -2.5e-4,0.18129 -0.039,0.27321 -0.0387,0.0919 -0.11597,0.18091 -0.19515,0.27321 -0.38613,0.45013 -1.13268,0.91808 -1.24895,1.13186 -0.001,0.0183 3.3e-4,0.04 0.0123,0.057 l 0.0267,0.0211 1.52216,0.66351 c 0.1189,0.14157 0.0434,0.28288 0.23418,0.31224 l 0.23915,0.0185 c 0.21918,0.0176 0.52263,0.0568 0.699,0.18361 l 0.0766,0.071 c 0.0462,0.0569 0.11448,0.0982 0.20893,0.1453 l 0.1033,0.0498 h 0.039 c 0.11402,0.0562 0.24804,0.13536 0.35496,0.25432 l 0.0744,0.0969 c 0.0226,0.0351 0.0467,0.0613 0.0738,0.0843 l 0.0432,0.0327 c 0.0511,0.0403 0.0886,0.0618 0.15612,0.0781 0.11653,0.028 0.26091,0.0221 0.42933,0 l 0.30554,-0.0395 c 0.17972,-0.0252 0.31603,-0.0533 0.43603,-0.11658 0.088,-0.039 0.13532,-0.0859 0.19514,-0.15612 0.0399,-0.0468 0.0798,-0.10108 0.11279,-0.16645 l 0.0433,-0.10676 c 0.0456,-0.14528 0.11853,-0.2795 0.23418,-0.42933 0.11468,-0.14496 0.28284,-0.32261 0.50739,-0.50738 0.26742,-0.22004 0.8026,-0.45513 1.48313,-0.93672 l 0.252,-0.21464 c 0.17973,-0.15976 0.28951,-0.27878 0.37248,-0.40983 0.11927,-0.18845 0.18222,-0.33881 0.23417,-0.50739 0.0521,-0.15774 0.0668,-0.2987 0.0781,-0.42933 0.01,-0.11386 0.0144,-0.19838 0.009,-0.27563 l -0.009,-0.0756 c -0.0122,-0.093 -0.0205,-0.15043 -0.039,-0.19515 -0.0241,-0.0586 -0.10279,-0.099 -0.15612,-0.15611 0.31382,-0.2158 0.54309,-0.48566 0.97574,-0.58545 0.68991,-0.15921 0.89288,-0.43841 0.70883,-0.49808 l -0.0453,-0.009 c -0.23619,-0.0262 -0.59596,-0.23353 -0.47102,-0.4218 l 0.0417,-0.0466 c 0.22745,-0.19901 0.15662,-0.77623 -0.15612,-1.28799 -0.28431,-0.46517 -0.53233,-0.36571 -0.7246,-0.55738 l -0.056,-0.0671 c -0.19901,-0.28431 -0.65627,-0.2833 -0.74157,-0.62448 -0.0853,-0.34115 -0.48132,-0.40085 -1.24895,-0.42932 -0.10929,0.0326 -0.18104,0.0722 -0.27321,0.11702 l -0.11703,0.039 v 0 c -0.11222,0.0239 -0.20657,0.0204 -0.31223,0.039 h -0.0781 v 0 c -0.11327,0.0157 -0.22444,0.0182 -0.31224,0 l -0.36816,-0.0696 c -0.50854,-0.0879 -0.82185,-0.11611 -0.95885,-0.28167 -0.0433,-0.0648 -0.0781,-0.15693 -0.0781,-0.27321 0.082,-0.57376 0.2551,-0.60317 0.3901,-0.85404 l 0.0392,-0.0827 c 0.0463,-0.10259 0.0942,-0.2235 0.11703,-0.42933 0.0138,-0.12318 -0.0574,-0.33657 -0.11703,-0.58545 -0.0567,-0.23441 -0.0968,-0.46864 -0.0781,-0.62447 l -0.0733,-0.18414 c -0.10354,-0.23992 -0.12288,-0.18686 -0.19505,-0.46911 l -0.0829,-0.36153 0.0781,-0.0781 0.0781,-0.039 c 0.11068,0.0169 0.23321,0.0189 0.2381,-0.15881 l -0.004,-0.0754 c -0.005,-0.0425 0.001,-0.0793 0,-0.11703 l 0.0781,-0.15612 v 0 c 0.0647,-0.11665 0.12321,-0.23187 0.19515,-0.35127 0.12767,-0.2049 0.29509,-0.41654 0.46836,-0.62447 0.38187,-0.59401 1.83496,-1.23514 3.62977,-1.79537 0.7826,-0.24428 1.61267,-0.46099 2.45887,-0.66351 0.832,-0.19912 1.64572,-0.36921 2.41984,-0.50738 0.8847,-0.1579 1.72862,-0.28234 2.38004,-0.33497 z"
     id="holland"
     fill="#dccfbe"
     fill-rule="nonzero"
     style="stroke:#000000;stroke-width:0.5" />
        </svg>
