<svg>
  <path d="M212.3 150.7h1l.6.4.6.6 1 1.5a6.4 6.4 0 0 0 .8 1l.1.2h.2l.1.1h.7l.4-.1c.1.5 0 1-.2 1.7a12.7 12.7 0 0 1-.9 2.7l-.4 1-.4 1.1c-.3.6 0 1.6 0 2.2l-.1.4c0 .2-.2.2-.4.2h-.6l-1.8-.3h-.1c-.2 0-.4 0-.4.2v.4l.1.1.1.2v.1l.1.3H212.1v.2c-.2.1-.2.2-.2.3-.1.3 0 .5.2.6l.3.3h.2l2.1.7.2.1c.3.1.4.3.5.6v.1c.1.7 0 1.3-.1 1.8l-.3.6a3 3 0 0 1-.5.6 5.2 5.2 0 0 1-1 .7l-1 .5a13.3 13.3 0 0 0-1 .7c0 .2 0 .3.3.4l.3.2c.2 0 .5.2.6.4.2 0 .3.2.2.4l-.2.3-.2.2-.3.1c-.3.3-.8.5-1.2.7-.7.2-1.5 3.2-2 3.2H208.4c-.4 0-.7-.4-1-.6l-.2-.1c-.2-.1-.3-.3-.5-.3v.6c-.3.2-.7.2-1 .2-.2 0-.3-2.8-.4-2.8h-.1c-.2 0-.3 0-.5.2v.7l-.1.2v.2l-.1.2v.2l.8 1 .3.5a9.6 9.6 0 0 1 .5.6l.2.3.6 1.5c.1.6 2.6 2.8 2.3 3.4 0 .2-.2.4-.4.6v.2l-.4.3a9 9 0 0 0-.7 1.1l-.1.3v.2h.7l.1.1c.1 0 .2 0 .2.2l-.7.7c4.5-.6-.5.4-.5.4 0-.1 5 .4.3-.7 0 0 0-.1-.2 0-.1.3 4.1 1.8-.1.7v.1l.4.2c.2.2-3.5 0-3.3.1.2 0 .3.2.4.3l.2.5v.7l-.1.2-.1.1-.4.2-.4.3v.5l.2.4c-.9 0-1.7.2-2.4 0h-.2c-.2 0-.3 0-.4-.2l-.2-.1-.1-.9c0-.3 0-.6.2-1l.1-.2.3-.2v-.1l.2-.1.2-.3-.4-.2v-.1l.2-.8.2-.2.2-.5.3-.5.1-.2h.1l.2-.2.2-.3-.5-.5-.2-.1-.5-.4-.1-.1c-1.5-.9-3.2-.9-4.6-1.1l-.3-.2-.3-.4-.3-.7-.4-1.1c0-.4-.2-.7-.3-.8v-.2h-.2c-.3 0-.6.2-.7.4h-.1v.1l-.1.2v.4l-.1.2h-.2a5.4 5.4 0 0 1-1.3-.6c0-.2.2-.3.4-.5l.2-.3v-.4a.5.5 0 0 0-.3-.1c-.2 0-.5.1-.6.3l-.4.5s-.2 0-.2.2l-.3.1h-.5c-.1 0-.3 0-.4-.2v-.5a1.5 1.5 0 0 0 .1-.1c-1-.4-1.4-.2-1.5.1l.2 1.3v.3h-.1l-.2.1h-.2l-.2-.2v-.3a.9.9 0 0 0-.4-.1h-.3l-.4-.2h-.1l-.8-.5h-.5c-.3 0-.6-.3-.8-.5l-.5-.2-.2.1-.1.2v.3l-.2.2H184.3c-.3.1-.6 0-.9-.1a1 1 0 0 1-.3-.4l-.3-.1-1.4-.5a2 2 0 0 1-1-1v-.4l.2-.3.4-.3.9-.2.8.2h2l.1.2h.1a18.5 18.5 0 0 1 1.6 2.1l.6.2h.2l.6-.1-.2-.5-.1-.1-.1-.1-.3-.2h-.1l-.4-.3c-.4-.2-.9-.4-1-.7v-.2l.1-.2h.2c.2-.1.4-.2.6-.1l.7.1-.3-.3c-.1 0-.2-.2 0-.3.3-.2.5 0 .6 0l.1.1.3.2h.3c.3 0 .6 0 .8-.2h.1l.5-.3v-.1l.4-.2c.2 0 .6.3 1.3.2.4 0 .5 0 .6-.2h.1v-.2h-.8a2 2 0 0 1-1 0v-.1h-.1l-.5-.3h-.2l-1-.8-.2-.1a9 9 0 0 1-.5-.4l-.2-.2-.5-.5c-.5-.4-.7-.8-.7-1.2V172.2l.1-.1v-.1l.2-.1.6-.1h.1l.3-.1.8-.7.4-.6.2-.3a20.9 20.9 0 0 0 3.4-5.2l.4-1.7.2-2.4.1-.7v-.1c0-.4.2-.7.3-1 .1-.6.4-1.2.8-1.7h.2l.5.2-.1.4c-.1.4 0 .6.4.7H195.6c.2.2.2.4.1.6-.1.3 0 .3.1.6.2.3 0 .7.4 1 .4.2.3.3.9 0h.1l.5-.2.3.4.5.2h.3c.2 0 .3.2.4.3v.4h-.1l-.3.4-.1.1-.1.1c-.3.3-.7.5-.9.5h-.1l-.3-.2-.2-.2-.4.1-.2.3.1.7v.1l.2.2.6 1.1v.3l-.2.3-1.3 1.1v.1l1.6.7c0 .1 0 .2.2.3h.2c.3 0 .6 0 .7.2h.1l.2.2h.1l.4.3.1.1.1.1h.2c0 .1.2.1.4 0h.7l.2-.2.2-.2v-.1l.2-.4.5-.5 1.5-1 .3-.2a2 2 0 0 0 .6-.9v-1l-.1-.1c.3-.2.5-.5 1-.6.6-.2.8-.5.6-.5-.2 0-.6-.3-.5-.4.3-.3.2-.9 0-1.4-.4-.4-.6-.3-.8-.5v-.1c-.3-.3-.7-.3-.8-.6 0-.4-.5-.4-1.3-.5l-.2.2h-.5a1 1 0 0 1-.3 0h-.4l-1-.3v-.3c0-.6.2-.6.3-.8v-.1c.1-.1.2-.2.2-.5l-.1-.5a2 2 0 0 1-.1-.7v-.1l-.3-.5v-.4l.1-.1c.1 0 .2 0 .2-.2v-.1l.1-.2.2-.4.5-.6c.4-.6 1.8-1.2 3.6-1.8a38 38 0 0 1 7.3-1.5z" id="holland"
     fill="#dccfbe"
     fill-rule="nonzero"
     style="stroke:#000000;stroke-width:0.5"/>
        </svg>
