<svg>
  <path
     d="m 391.37822,147.69305 h 6 v 1.5 h 14.5 l 2,1.5 0.5,-5.5 4,-1.5 h 3.5 l 6.5,-3 h 3.5 l 2,3 h 1.5 l 2,1.5 h 3 l 2,2.5 6.5,-2.5 h 6.5 l 2,-1.5 2.5,4 2,1.5 h 2 l 6.5,1.5 8,-1.5 4.5,-1.5 h 2 l 3,1.5 h 2 l 2,-1.5 4.5,-2 5,3.5 5,-1.5 h 9.5 l 2,-2 4.5,-2 5,-1.5 3,-1.5 1.5,-1.5 h 6.5 v 40.5 h -6.5 l -1.5,2 -4.5,3 h -2 l -3,2 -5,1 v 4 l -1.5,0.5 -3.5,3 h -4.5 l -3.5,3.5 -6.5,1.5 -6.5,-1.5 h -32.5 v 6 l -1.5,2.5 -9,4.5 h -4.5 l -2,3 v 6 h -5 l -3.5,1 -2,1.5 3.8e-4,3.38443 -0.35382,-0.17183 c -0.34257,-0.16206 -0.64423,-0.29312 -0.84026,-0.37759 -0.72733,-0.31342 -1.23016,-2.23206 -1.87343,-2.2247 -0.55137,0.006 -1.08876,-0.56361 -1.53888,-1.07761 l -0.5171,-0.59513 c -0.33761,-0.38189 -0.69865,-0.71923 -1.76893,-1.33255 -1.37609,-0.78856 -2.49792,-3.05255 -3.31753,-4.41036 -0.81963,-1.35781 -3.67664,-3.33895 -4.41036,-4.21521 -0.36687,-0.43815 -0.92153,-0.59433 -1.4441,-0.62448 -0.52258,-0.0301 -1.00701,0.0737 -1.28799,0.11703 -0.56194,0.0868 -0.99911,0.7973 -1.71731,1.28798 -0.35013,0.04 -0.99962,0.54061 -2.4979,0.54641 -0.26823,0.006 -0.63324,-0.0482 -1.01693,-0.11935 l -0.13038,-0.14519 c -0.1147,-0.12411 -0.22711,-0.23373 -0.38444,-0.34113 l -0.27404,-0.16713 c -0.1013,-0.064 -0.1998,-0.13564 -0.25723,-0.21275 l -0.0423,-0.0789 -0.1069,-0.0123 -0.11727,-0.24287 c -0.13084,-0.25779 -0.2781,-0.44929 -0.5879,-0.31439 -0.32397,0.1407 -0.60894,0.45347 -0.91712,0.0899 -0.23173,-0.27477 -0.3248,-0.73079 -0.50073,-1.04688 l -0.16726,-0.28456 c -0.10923,-0.18769 -0.20415,-0.37743 -0.22634,-0.60584 l -0.0415,-0.003 -0.039,-0.007 0.0755,0.009 c 0.0854,10e-4 0.18586,-0.0208 0.30624,-0.0718 0.0251,-0.20245 -0.13137,-0.2666 -0.1897,-0.40653 -0.0686,-0.16347 -0.0208,-0.16934 -0.005,-0.34029 0.0189,-0.18502 -0.24124,-0.71356 0.15149,-0.66762 l 0.069,0.19835 c 0.0662,0.17563 0.13778,0.29175 0.33721,0.42625 0.18903,0.12606 0.264,0.18402 0.34408,0.34922 l 0.0871,0.19572 c 0.21583,0.4479 0.44979,0.41872 0.89401,0.13963 0.24638,-0.15484 0.45693,-0.0363 0.73901,-0.0534 0.19461,-0.0114 0.2704,-0.0385 0.32938,-0.10634 l 0.0286,-0.0374 0.11882,-0.19435 c 0.30408,-0.47257 1.32863,0.20407 1.51658,-0.43086 -0.13733,-0.098 -0.22881,-0.29473 -0.394,-0.36275 -0.16024,-0.0659 -0.32397,0.0276 -0.49683,0.0157 -0.21532,-0.017 -0.60899,-0.18362 -0.6851,-0.42658 -0.1533,-0.008 -0.46659,0.11811 -0.5916,0.0147 -0.10081,-0.0849 -0.10872,-0.36286 -0.17168,-0.4876 -0.22648,-0.4473 -0.53938,0.006 -0.78013,-0.38225 -0.0826,-0.13516 -0.11856,-0.38102 -0.10865,-0.55008 0.009,-0.16666 0.20734,-0.31695 0.20653,-0.45428 -8.5e-4,-0.12729 -0.16916,-0.23566 -0.2968,-0.29974 l -0.10637,-0.0484 -0.0784,-0.0319 c -0.12522,-0.049 -0.31984,-0.11619 -0.42009,-0.11325 -0.18241,-0.40179 0.30066,-0.3363 0.47581,-0.48261 0.24911,-0.20837 0.0962,-0.33828 -0.0736,-0.4185 l -0.10085,-0.0424 -0.0622,-0.021 -0.079,-0.0192 c -0.0478,-0.0123 -0.063,-0.0302 -0.13668,-0.16588 -0.0795,-0.14635 -0.10167,-0.32723 -0.18372,-0.46539 -0.1041,-0.17375 -0.48806,-0.36517 -0.66601,-0.37666 -0.0242,-0.15359 -0.12456,-0.34604 -0.21008,-0.47589 l -0.17069,0.0143 c -0.0864,0.005 -0.17288,1.5e-4 -0.25351,-0.0377 0.0393,-0.27988 0.29447,-0.47612 0.39823,-0.74117 0.10569,-0.26934 0.0166,-0.77677 -0.0692,-1.05684 -0.20025,0.0106 -0.29233,-0.3642 -0.33105,-0.64236 l -0.011,-0.0885 -0.012,-0.13964 -0.004,-0.28216 c -0.002,-0.0438 -0.007,-0.0859 -0.0179,-0.12653 -0.0388,-0.15101 -0.0975,-0.26956 -0.13373,-0.41356 l -0.0443,-0.24302 c -0.0581,-0.22618 -0.22577,-0.5778 -0.12804,-0.74986 0.18658,-0.3214 0.5339,-0.0437 0.42329,-0.56425 -0.067,-0.31482 -0.21307,-0.59335 -0.30948,-0.90141 -0.0851,-0.27047 -0.1129,-0.59573 -0.28631,-0.80918 -0.19863,-0.24572 -0.49956,-0.24008 -0.59921,-0.58558 -0.0473,-0.16113 -0.0195,-0.27424 -0.1308,-0.41873 -0.11122,-0.14427 -0.26297,-0.21574 -0.39635,-0.35278 -0.44209,-0.44786 -0.18791,-0.65871 0.18438,-0.80097 l 0.15384,-0.0537 0.2364,-0.072 c 0.015,-0.0791 -0.0247,-0.19386 -0.0801,-0.30979 l -0.0438,-0.0866 -0.15404,-0.27344 c -0.10473,-0.1953 -0.36573,-0.40587 -0.39004,-0.6187 -0.0179,-0.15056 0.0408,-0.23698 0.12976,-0.30595 l 0.0566,-0.0396 0.12601,-0.0757 c 0.19797,-0.1198 0.24208,-0.20394 0.23474,-0.37885 l -0.0165,-0.17509 -0.26548,-0.44048 c -0.27305,-0.21586 -0.51515,0.0396 -0.80079,0.0805 -0.29113,0.0418 -0.54481,-0.10004 -0.81562,-0.0659 -0.22968,0.0302 -0.61222,0.11842 -0.8603,0.19011 0.0117,0.58653 -1.2602,0.19054 -1.67307,0.17804 l -0.0605,0.002 -0.0519,-0.15673 c -0.0918,-0.0261 -0.1726,-0.0153 -0.25515,0.0322 -0.007,0.23676 -0.28591,0.5751 -0.50295,0.65176 -0.007,0.054 -0.012,0.1087 -0.0149,0.16291 -0.19407,0.10753 -0.30811,0.0122 -0.38796,-0.12508 l -0.0284,-0.0531 -0.18561,-0.43213 c -0.0772,-0.18157 -0.15631,-0.32089 -0.40703,-0.39756 -0.31784,-0.0975 -0.53028,0.0897 -0.81646,-0.0764 -0.20328,-0.11944 -0.37846,-0.34732 -0.59271,-0.46136 l -0.32021,-0.16402 c -0.30372,-0.15793 -0.44788,-0.27597 -0.57242,-0.76513 -0.09,-0.35209 -0.46782,-0.82407 -0.82546,-0.99619 -0.23035,-0.11026 -0.43918,-0.0288 -0.65254,-0.16836 -0.20007,-0.13155 -0.23044,-0.43217 -0.29904,-0.63573 -0.20488,-0.60495 -0.59865,-0.44959 -1.03236,-0.84599 -0.36812,-0.33597 -0.20573,-1.08626 -0.30379,-1.52274 -0.0585,-0.26383 0.0702,-0.61529 -0.0971,-0.80607 -0.0686,-0.0786 -0.2156,-0.11579 -0.36028,-0.13759 l -0.28751,-0.034 c -0.60426,-0.0849 -1.20809,-0.27564 -1.59848,-0.71476 l -0.17751,-0.20758 c -0.24956,-0.28347 -0.62196,-0.62768 -0.84649,-0.15261 0.25109,0.16268 0.61027,0.67028 0.56188,0.99634 -0.40004,0.0313 -0.71236,0.28166 -1.06499,-0.1069 -0.18852,-0.20709 0.0932,-0.31264 -0.30018,-0.395 -0.0152,-0.003 -0.0687,0.0129 -0.13476,0.0359 l -0.21055,0.0772 -0.11965,0.0402 c -0.25575,0.0596 -0.43908,0.0382 -0.62236,-0.0193 l -0.11054,-0.0385 -0.23494,-0.0944 c -0.36339,-0.14777 -0.68493,-0.43606 -1.05606,-0.17265 -0.004,0.2176 0.0506,0.43758 0.0446,0.65549 -0.45842,-0.15277 -0.86289,-0.37097 -1.28815,-0.60373 -0.20184,-0.10948 -0.66296,-0.18758 -0.52548,-0.52435 0.0943,-0.23258 0.54765,-0.15961 0.77274,-0.22351 0.13756,-0.38905 0.0416,-0.67553 -0.33427,-0.86817 -0.41679,-0.21286 -0.55404,-0.0457 -0.81262,-0.52853 -0.51193,-0.004 -0.87028,0.21554 -1.27938,0.11538 l 0.038,0.008 -0.0588,-0.69274 v -2 l 2,-3.5 v -4 l -1,-2 v -3.5 l -1,-2.5 v -6 l 1,-3 2,-4.5 3.5,-2.5 2.5,-2 2.5,-1 z"
     id="kiev"
     fill="#9c6bae"
     style="fill-rule:evenodd;stroke:#000000;stroke-width:0.5" />
  
            </svg>