<svg>
  <path d="M379 181.6c.4.1.3.4.6.6.5.4 1 0 1.6 0 .2.5.4.4.8.6.4.2.5.5.3.9-.2 0-.7 0-.7.2-.2.3.3.4.5.5.4.2.8.5 1.3.6v-.6c.3-.3.6 0 1 .1l.2.1c.2.1.4.2.7 0h.5c.4 0 .1.1.3.3.4.4.7.2 1 .1.1-.3-.2-.8-.5-1 .3-.6.8.2 1 .4.4.4 1 .6 1.6.7h.2c.2 0 .4 0 .5.2.2.2 0 .5 0 .8.2.4 0 1.2.4 1.5.4.4.8.2 1 .9 0 .2.1.5.3.6.2.1.4 0 .7.2.3.1.7.6.8 1 .2.6.4.6.9.9l.6.4c.3.2.5 0 .8.1l.4.4.2.5c0 .1.2.2.4.1v-.1c.2-.1.5-.4.5-.7h.3v.1c.4 0 1.8.5 1.8-.1l.8-.2h.8c.3 0 .6-.3.8 0l.3.4c0 .3 0 .4-.2.5l-.1.1c-.2.1-.2.2-.2.4s.3.4.4.6l.1.3c.1.1.2.3.1.4h-.2c-.4.2-.8.4-.3.9l.4.3.1.5c.1.3.4.3.6.5l.3.9.3.9c.1.5-.2.2-.4.5-.1.2 0 .5.1.8l.2.6V201c0 .3.1.7.3.7.1.3.2.8.1 1 0 .3-.3.5-.4.8h.4l.3.5c.1 0 .5.2.6.4l.2.4.2.2c.3.1.6.3.3.5-.2.2-.7 0-.5.5l.4.1c.2 0 .5.2.5.4l-.2.4v.6c.3.4.6 0 .9.4l.1.5h.6c.1.2.5.4.7.4h.5c.2 0 .3.2.4.3-.2.7-1.2 0-1.5.4l-.1.2-.4.2h-.7c-.5.3-.7.3-1-.1v-.1c0-.2-.1-.3-.4-.4l-.4-.7c-.4 0 0 .5-.1.7v.3l.2.4-.3.1h-.1l.5 1c.2.2.2.7.5 1 .3.3.6 0 .9-.1.4-.2.5.2.7.5h.1c0 .2.4.4.6.5l.4.3.3.4c.3.3.4.6.4 1l-.4.1-.3.2c-.2 0-.5-.2-.7-.1 0 .2-.4.4-.6.5-.2.2-.5.4-.6.7-.2.7.4 1.1.7 1.7l.2.3c0 .2.2.3.3.4l.4.3v.2l.2.3c.2.3.2.7-.2.8-.3.1-.4-.5-.8-.3 0 .6.5.9 1 1.2.4.4.5 1 .9 1.4.3.4.8.5 1.2 1l.1.1c.2.3.5.8 0 1-.5.2-1.1-.3-1.7 0 0 .4-.3 1-.7.4 0-.2 0-.5-.2-.6-.2 0-.5 0-.6.2-.5.2-.2.5-.1.9 0 .5.2 1 .3 1.4-.4.3-.8-.3-1.3-.1v-.1l-.7-.2h-.7c-.5 0-1 .3-.7.8.2 0 .4.4.6.6.2.3.1.6 0 .9l-.2.1c-.3.3-1 .8-1.1.3-.4-.2-.8-.7-1.2-1-.2 0-.2-.3-.4-.5-.1-.1-.3 0-.4 0l-.2.2-.9 1-1 1.4c-.2 0-.2.3-.3.4l-.5.5-.2.2-.3.3c-.3-.3-.6-.8-.7-1.2 0-.5 0-.9.2-1.3l.2-.3c.1-.2.2-.3 0-.6v-.2l-.3-1.3c-.2-.5-.6-.4-1-.5-.4-.1-.7-.4-1-.6l-.1-.1-.8-.8c.4-.4.4-1 .3-1.6a3 3 0 0 0-.3-1l-.3-.4c-.1-.4-.5-1-.3-1.4l.5-.4c.2-.3.1-.4.2-.7v-.2c.2-.4.3-.7.8-.7v-.4h.1v-.2c.2-.1.5-.1.7-.3.2-.2 0-.4 0-.7 0-.3.3-.1.6-.3.3 0 .1-.3.1-.6l.6-.2v-.7c.1 0 .4 0 .5-.2v-.6.6l-.6.2v.7l-.5.2c0 .3.2.5-.1.6-.3.2-.6 0-.6.3s.2.5 0 .7c-.2.2-.5.2-.7.3v.1h-.1v.5c-.6 0-.7.4-.8 1l-.2.6-.5.4c-.2.4.1 1 .3 1.4l.3.4.3 1c0 .5 0 1.2-.3 1.6h-.1c0-.2-.2-.2-.3-.4l-.4-.5-.4-.4-.2-.5h-.1c-.3.1-.6.2-.6-.1-.2-.1-.4 0-.7-.2-.2-.1-.3-.2-.4-.5-.2-.4-.1-1-.2-1.5l-.7-1-.2-.4c-.1-.2-.2-.4-.1-.5 0-.2.3-.3.5-.4l-.1-1.2c-.1-.4-.4-.5-.7-.5h-.3c-.3 0-.5 0-.7-.2v-.1c-.3-.3-.6-.4-1-.3v.9c-.1.4-.5.2-.7 0-.3-.2-.3-.4-.4-.7-.2-.4-.6-.2-.7-.5l-.2-.5-.2-.5h-.1c-.1-.2-.1-.3-.4-.3-.2 0-.1.1-.2.4 0 .4-.3 0-.5.4-.2.2 0 .6-.5.5-.4-.2-.7-1.1-1-1.5h-.4v.1c-.3.2-.7 0-.8-.2-.1-.2 0-.5-.2-.6-.2-.2-.5.1-.5-.3l-.7-.1c-.2-.1-.2-.5-.5-.5h-.5a6 6 0 0 0-.5-.1h-1l-.8-.2h-.7c-.4 0-.5 0-.7-.2l-.5-.6c-.2-.2-.8-.2-1 0-.2.1 0 .6-.4.4-.2-.5-.7-.7-1-.9h-.7c-.3-.2-.3-.4-.3-.6 0-.5.4-1.1-.3-1.3h-4.5l-1-.2-1-.5-.3-.1-.2-.1-.4-.1-.6-.6h-.2l-1-.8-1-1c-.6-.1-.5.4-.7.6-.2.3-.4.1-.6-.1l-.1-.2c-.4-.6-1-1.2-1.7-.7l-.3.3a2 2 0 0 1-.7.3l-1.2.3c-.3 0-.6.3-1 .5H352.3c-.3 0-.6 0-.4.3 0 .3.6.4.4.8-.2.4-.8.3-1 .5-.3.2-.3.7-.6.7-.4.1-.7-.3-1-.5l-1-.5c-.8-.4-1 .2-1.7.5l-1.4.1-1.1.2c-.7-.1-1.5-1-2-.2-.5.6-.2 1.3 0 2l.1.1c.2.4.8 1.7.2 2-.3.2-.8-.2-1-.3-.4 0-.7 0-1 .2l-.5.2c-.6.2-1.4.4-1.2-.5l.2-1.2v-1.2a5 5 0 0 0-.8-2c-.2-.3-.5-.5-.8-.6l-.3-.2c-.2-.2-.4-.3-.7-.2-.2.1-.3.4-.7.3-.4 0-.6-.4-1-.3-.5.1-.7.4-.8.7-.2.4-.4.5-.7.7v.1c-1 .2-.6 1.2-1 1.9 0 .4-.5.4-.9.4-.2 0-.8 0-.9-.4-.4-.5-.7-1-1.2-1.2 0-.5.3-1 .5-1.4-.5-.6-1.2-1.8-.5-2.7.1 0 .8 0 .7-.4-.4-.6 0-1-.3-1.3-.5-.2.3-.2.2-.4 1-.1.4-1.5 1-2.1l.2-.2c.2-.2.4-.5.3-.8 0-.5-.4-.7-.4-1.2.1-1.2 1.9-.2 2.5 0h2.6l.3-.1 3.2-.2c.2.7 1.3.2 1.6 0v-.2l.4-.3h.2c.3-.1.5-.3.6-.6l.6-.2c.3 0 .6-.2.8-.3.3.1.4-.1.5-.2l.3-.3v-.3c0-.2 0-.3.3-.5.1-.1.5-.1.4-.4l.5-.1v-.6c.2-.2.5-.2 1-.3-.2-.6.7-.4 1-.5v-.3c.2 0 .6-.1.8 0 .1-.3.2-.8.7-.7l.6.6c0-.3-.4-.5-.4-.8 0-.4.7-.2.9-.4.2-.2-.2-.6.2-.8.2-.2.8 0 1.1-.2 0-.3-.4-.6 0-1 .2-.2.8-.1 1.1-.2l-.1-.5.5-.3c0-.3-.3-1 0-1.1l.5-.2.5-.3.3-.1c.2-.1.4-.3.4-.5V185.3c.8.4 1.5.5 2.2.7h.4c.7.2 1.7.3 2.4.3 1 0 1.7 0 2 1.2.1.9-.7 1.3-1.4 1.8v.7c.4.3.7-.2 1-.4.5-.2 1 .3 1.1.7v.4c.5.8 1.2-.8 1.7-.9.2.3 0 .7-.2 1 .5 0 .6-.2 1-.4l.7-.1c.3 0 .5-.2.8-.3.7-.2 1.4-.4 1.8-1 .3-.6.7-1.5 1.4-1.7l1.4-.1 1.4-.2c.4 0 1.2 0 1.5-.2.5-.5-.2-.7-.5-.9.5-.2.9-.6 1.5-.8.4 0 1.5.3 1.7-.4 0-.3 0-.4.2-.7l.6-.5.1-.8c0-.3.2-.5.3-.8.2 0 .5-.4.9-.3z" id="lemberg"
     fill="#ebe084"
     fill-rule="nonzero"
     style="stroke:#000000;stroke-width:0.5"/>
</svg>
