<svg>
  <path
     d="m 379.07119,181.62071 c 0.28845,0.1207 0.21358,0.41148 0.49009,0.60079 0.56888,0.38745 0.97058,0.0358 1.6176,0.0406 0.25858,0.48278 0.39583,0.31567 0.81262,0.52853 0.37583,0.19264 0.47183,0.47912 0.33427,0.86817 -0.22509,0.0639 -0.67843,-0.009 -0.77274,0.22351 -0.13748,0.33677 0.32364,0.41487 0.52548,0.52435 0.42526,0.23276 0.82973,0.45096 1.28815,0.60373 0.006,-0.21791 -0.0481,-0.43789 -0.0446,-0.65549 0.37113,-0.26341 0.69267,0.0249 1.05606,0.17265 l 0.23494,0.0944 c 0.22338,0.0842 0.426,0.12921 0.7329,0.0577 l 0.11965,-0.0402 c 0.13145,-0.0482 0.31492,-0.11985 0.34531,-0.11312 0.3934,0.0824 0.11166,0.18791 0.30018,0.395 0.35263,0.38856 0.66495,0.13822 1.06499,0.1069 0.0484,-0.32606 -0.31079,-0.83366 -0.56188,-0.99634 0.28868,-0.6108 0.82179,0.13271 1.024,0.36019 0.39039,0.43912 0.99422,0.6299 1.59848,0.71476 l 0.1807,0.0202 c 0.17308,0.0197 0.38136,0.0532 0.46709,0.15145 0.16728,0.19078 0.0385,0.54224 0.0971,0.80607 0.0981,0.43648 -0.0643,1.18677 0.30379,1.52274 0.43371,0.3964 0.82748,0.24104 1.03236,0.84599 0.0686,0.20356 0.099,0.50418 0.29904,0.63573 0.21336,0.13961 0.42219,0.0581 0.65254,0.16836 0.35764,0.17212 0.7355,0.6441 0.82546,0.99619 0.1619,0.6359 0.35696,0.64462 0.89263,0.92915 0.21425,0.11404 0.38943,0.34192 0.59271,0.46136 0.28618,0.16603 0.49862,-0.0211 0.81646,0.0764 0.25072,0.0767 0.32978,0.21599 0.40703,0.39756 l 0.18561,0.43213 c 0.081,0.16342 0.19806,0.29918 0.41639,0.17821 0.003,-0.0542 0.008,-0.10891 0.0149,-0.16291 0.21704,-0.0767 0.49574,-0.415 0.50295,-0.65176 0.0825,-0.0475 0.16335,-0.0583 0.25515,-0.0322 l 0.0519,0.15673 c 0.32806,-0.0362 1.74594,0.43937 1.73355,-0.17974 0.24808,-0.0717 0.63062,-0.15988 0.8603,-0.19011 0.27081,-0.0342 0.52449,0.10771 0.81562,0.0659 0.28564,-0.0409 0.52774,-0.29638 0.80079,-0.0805 l 0.26548,0.44048 c 0.0365,0.30483 0.0363,0.39991 -0.21824,0.55394 l -0.12601,0.0757 c -0.11896,0.0766 -0.20786,0.16492 -0.18636,0.3456 0.0243,0.21283 0.28531,0.4234 0.39004,0.6187 l 0.15404,0.27344 c 0.0759,0.14294 0.14272,0.29756 0.1239,0.39642 l -0.2364,0.072 c -0.44597,0.1439 -0.83925,0.34705 -0.33822,0.85462 0.13338,0.13704 0.28513,0.20851 0.39635,0.35278 0.11125,0.14449 0.0835,0.2576 0.1308,0.41873 0.0996,0.3455 0.40058,0.33986 0.59921,0.58558 0.17341,0.21345 0.20122,0.53871 0.28631,0.80918 0.0964,0.30806 0.24245,0.58659 0.30948,0.90141 0.11061,0.52055 -0.23671,0.24285 -0.42329,0.56425 -0.0977,0.17206 0.07,0.52368 0.12804,0.74986 l 0.0171,0.0884 c 0.0222,0.22323 0.10921,0.36686 0.16098,0.56821 0.0315,0.12184 0.0141,0.25756 0.0217,0.40869 l 0.012,0.13964 c 0.0306,0.27861 0.11956,0.74258 0.34206,0.73084 0.0858,0.28007 0.1749,0.7875 0.0692,1.05684 -0.10376,0.26505 -0.35894,0.46129 -0.39823,0.74117 0.13437,0.063 0.28514,0.0335 0.4242,0.0234 0.0855,0.12985 0.18587,0.3223 0.21008,0.47589 0.17795,0.0115 0.56191,0.20291 0.66601,0.37666 0.0821,0.13816 0.10424,0.31904 0.18372,0.46539 0.10319,0.18998 0.0916,0.14912 0.21566,0.18504 l 0.0622,0.021 c 0.19343,0.0738 0.47338,0.21086 0.17445,0.4609 -0.17515,0.14631 -0.65822,0.0808 -0.47581,0.48261 0.10025,-0.003 0.29487,0.0643 0.42009,0.11325 l 0.0784,0.0319 c 0.10319,0.0423 0.40204,0.17839 0.40317,0.34811 8.1e-4,0.13733 -0.19766,0.28762 -0.20653,0.45428 -0.01,0.16906 0.026,0.41492 0.10865,0.55008 0.24075,0.38856 0.55365,-0.0651 0.78013,0.38225 0.063,0.12474 0.0709,0.40266 0.17168,0.4876 0.12501,0.10337 0.4383,-0.0223 0.5916,-0.0147 0.0761,0.24296 0.46978,0.40954 0.6851,0.42658 0.17286,0.0119 0.33659,-0.0816 0.49683,-0.0157 0.16519,0.068 0.25667,0.26472 0.394,0.36275 -0.18795,0.63493 -1.2125,-0.0417 -1.51658,0.43086 l -0.11882,0.19435 c -0.0656,0.0958 -0.13089,0.13045 -0.35794,0.14376 -0.28208,0.0171 -0.49263,-0.10149 -0.73901,0.0534 -0.44422,0.27909 -0.67818,0.30827 -0.89401,-0.13963 l -0.046,-0.10337 c -0.0993,-0.24012 -0.16456,-0.2945 -0.38509,-0.44157 -0.2659,-0.17934 -0.30447,-0.32599 -0.40621,-0.6246 -0.39273,-0.0459 -0.13257,0.4826 -0.15149,0.66762 -0.0162,0.17095 -0.064,0.17682 0.005,0.34029 0.0583,0.13993 0.21477,0.20408 0.1897,0.40653 -0.12038,0.051 -0.22081,0.0733 -0.30624,0.0718 l -0.0755,-0.009 c 0.0252,0.006 0.052,0.009 0.0805,0.01 0.0333,0.34261 0.23022,0.59822 0.3936,0.8904 0.17593,0.31609 0.269,0.77211 0.50073,1.04688 0.30818,0.36361 0.59315,0.0508 0.91712,-0.0899 0.40274,-0.17538 0.53078,0.20088 0.70517,0.55726 l 0.1069,0.0123 v 0 c 0.0602,0.18793 0.41344,0.34978 0.57359,0.45875 0.15733,0.1074 0.26974,0.21702 0.38444,0.34113 l 0.31312,0.34952 c 0.27283,0.31588 0.44508,0.58846 0.43742,1.10512 -0.12188,0.0316 -0.31455,-0.0141 -0.39604,0.006 -0.11845,0.0285 -0.18802,0.12716 -0.32298,0.16333 -0.20489,0.0535 -0.47556,-0.19211 -0.68401,-0.1075 0.0819,0.29046 -0.38391,0.48575 -0.57719,0.58833 -0.27221,0.14314 -0.53149,0.3205 -0.63126,0.62539 -0.23369,0.71804 0.38601,1.14049 0.69823,1.68832 l 0.1839,0.33511 c 0.0935,0.1658 0.19702,0.32499 0.345,0.45983 0.12383,0.11208 0.24372,0.14084 0.3489,0.28696 l 0.0964,0.15787 v 0 l 0.17191,0.3334 c 0.13956,0.24397 0.131,0.63385 -0.21487,0.75291 -0.35555,0.12228 -0.43124,-0.44379 -0.78746,-0.27412 0.008,0.58403 0.48033,0.86961 0.88861,1.20831 0.45729,0.37886 0.58435,0.90213 0.94894,1.34441 0.33665,0.40967 0.84905,0.5263 1.18288,0.96042 l 0.13871,0.18617 c 0.22357,0.31522 0.49191,0.79419 0.0801,0.95678 -0.54749,0.21748 -1.19241,-0.23724 -1.74851,0.0687 -0.0664,0.40374 -0.37219,0.92428 -0.69475,0.35406 -0.10073,-0.17912 -0.0538,-0.43898 -0.24111,-0.54463 -0.1754,-0.0983 -0.48124,0.0424 -0.64215,0.11331 -0.4743,0.20753 -0.16971,0.54705 -0.0868,0.95186 l 0.014,0.0877 c 0.0463,0.4264 0.17971,0.87048 0.34174,1.26848 -0.47164,0.31224 -0.87136,-0.22485 -1.35626,-0.0937 -0.01,-0.0348 -0.0223,-0.0687 -0.0359,-0.10261 -0.23786,-0.0366 -0.42589,-0.16667 -0.67512,-0.19194 l -0.33081,-0.0421 c -0.10972,-0.0123 -0.22162,-0.0188 -0.34387,-0.008 -0.47179,0.041 -1.06952,0.40886 -0.68633,0.92433 0.21871,0.0409 0.44195,0.3688 0.57002,0.54276 0.19216,0.26229 0.15867,0.60949 -0.0594,0.8656 l -0.14501,0.15946 c -0.31184,0.32368 -0.87397,0.78978 -1.07811,0.24686 -0.40212,-0.1991 -0.7992,-0.62343 -1.16421,-0.8976 -0.19544,-0.14677 -0.20091,-0.3975 -0.38318,-0.54093 -0.18275,-0.14267 -0.30412,-0.0773 -0.42647,0.0295 l -0.16275,0.14695 c -0.36016,0.2945 -0.62443,0.65563 -0.9036,1.0339 -0.33882,0.45927 -0.75633,0.86445 -1.04556,1.35952 -0.20572,0.0723 -0.23456,0.31153 -0.33774,0.4499 -0.12325,0.16449 -0.27973,0.26976 -0.41509,0.41389 l -0.22949,0.26756 c -0.0928,0.10491 -0.19731,0.21152 -0.29973,0.27771 -0.31425,-0.32006 -0.59742,-0.79532 -0.69613,-1.22609 -0.10786,-0.47268 -0.0209,-0.82894 0.20781,-1.24472 l 0.17496,-0.30837 c 0.11096,-0.20625 0.15542,-0.36145 0.0782,-0.65694 l -0.0407,-0.13579 c -0.13939,-0.41947 -0.25944,-0.85461 -0.37179,-1.28168 -0.14552,-0.55524 -0.56626,-0.42631 -1.03766,-0.55 -0.37053,-0.0984 -0.62844,-0.3562 -0.90903,-0.59446 l -0.14281,-0.11668 c -0.31412,-0.24415 -0.56512,-0.48817 -0.80422,-0.7956 0.39542,-0.38827 0.39182,-1.04158 0.32638,-1.55686 -0.0492,-0.38788 -0.1819,-0.69561 -0.34691,-1.01644 l -0.21023,-0.39725 c -0.19565,-0.37292 -0.50604,-0.99351 -0.30127,-1.4201 0.0824,-0.17321 0.28351,-0.29005 0.4146,-0.42892 0.21015,-0.22225 0.15883,-0.33962 0.23527,-0.62677 l 0.0619,-0.22107 c 0.11919,-0.38913 0.28693,-0.68026 0.78241,-0.72356 0,-0.14464 -0.0343,-0.29045 -0.0322,-0.43376 l 0.10231,-0.036 v 0 l 0.0122,-0.1067 c 0.18603,-0.13976 0.5221,-0.12899 0.671,-0.29055 0.20353,-0.22143 -0.0519,-0.46851 -0.007,-0.7049 0.0672,-0.36037 0.34462,-0.17298 0.60059,-0.28077 0.27197,-0.11585 0.12607,-0.34034 0.12938,-0.598 0.15872,-0.10691 0.35213,-0.14642 0.53544,-0.22074 0.0784,-0.2367 -0.008,-0.44953 8.2e-4,-0.69731 0.16059,-0.0206 0.43262,-0.0959 0.51312,-0.26417 0.0736,-0.15341 -0.036,-0.41293 -0.0281,-0.58383 l -0.005,-0.002 c -0.009,0.17093 0.10146,0.43134 0.0281,0.58452 -0.0799,0.16796 -0.35253,0.24356 -0.51309,0.2644 -0.009,0.24751 0.078,0.46058 -8.2e-4,0.69708 -0.18262,0.0745 -0.37713,0.11412 -0.53589,0.2208 -0.003,0.25767 0.14304,0.4821 -0.12893,0.59794 -0.25594,0.10802 -0.53386,-0.08 -0.60059,0.28078 -0.044,0.23586 0.21145,0.48338 0.007,0.7049 -0.14889,0.16156 -0.48452,0.15073 -0.67143,0.2906 l -0.0118,0.10664 v 0 l -0.10232,0.036 v 0 c -0.002,0.14376 0.0324,0.28956 0.0326,0.43393 -0.5858,0.051 -0.71376,0.44899 -0.84472,0.94468 -0.0758,0.28707 -0.0247,0.40448 -0.23549,0.6268 -0.13112,0.13865 -0.33224,0.25571 -0.4146,0.42892 -0.20389,0.42648 0.10565,1.04741 0.30169,1.41982 l 0.21024,0.39736 c 0.16502,0.32086 0.29773,0.62853 0.34692,1.01656 0.0694,0.51637 0.073,1.16969 -0.32243,1.55795 -0.0321,0.0324 -0.0674,0.0625 -0.10575,0.0908 -0.0366,-0.26539 -0.17945,-0.30101 -0.31683,-0.47427 -0.13802,-0.17476 -0.21611,-0.38279 -0.38931,-0.54895 -0.11951,-0.11509 -0.27668,-0.15054 -0.37714,-0.30919 -0.0797,-0.1265 -0.19058,-0.3607 -0.20794,-0.52234 l -0.10968,0.0359 c -0.22475,0.07 -0.55389,0.13778 -0.56079,-0.21174 -0.24727,-0.0805 -0.44002,-0.0174 -0.67492,-0.1647 -0.18468,-0.11564 -0.34886,-0.22097 -0.42856,-0.44029 -0.16671,-0.46523 -0.12585,-1.00054 -0.24393,-1.50351 -0.0897,-0.38289 -0.40004,-0.71984 -0.62786,-1.05371 l -0.2511,-0.39762 c -0.10517,-0.17125 -0.20073,-0.36737 -0.1307,-0.52856 0.0705,-0.16185 0.35227,-0.28767 0.51111,-0.35539 -0.0455,-0.39315 0.043,-0.80051 -0.0697,-1.19622 -0.11083,-0.38615 -0.3528,-0.47712 -0.70018,-0.49745 l -0.33899,-0.008 c -0.24679,-0.007 -0.42089,-0.0353 -0.62083,-0.2315 l -0.0876,-0.0948 c -0.21979,-0.25957 -0.56017,-0.42413 -0.91578,-0.29688 -0.10903,0.28957 0.0301,0.62663 -0.0434,0.9107 -0.11087,0.43151 -0.49158,0.2282 -0.72771,0.0452 -0.30278,-0.23384 -0.23436,-0.46413 -0.40174,-0.77429 -0.17444,-0.32033 -0.52516,-0.16237 -0.70212,-0.49411 -0.0889,-0.16457 -0.0611,-0.30833 -0.12055,-0.48486 -0.0438,-0.12978 -0.16594,-0.32896 -0.26446,-0.47256 l -0.0679,-0.0953 c -0.1027,-0.13855 -0.14783,-0.22199 -0.36101,-0.19221 -0.24697,0.0351 -0.18191,0.0802 -0.20486,0.32544 -0.0434,0.44507 -0.31869,0.13826 -0.54921,0.44252 -0.17533,0.23059 -0.0277,0.62585 -0.47645,0.47369 -0.44182,-0.14872 -0.76017,-1.10243 -0.94294,-1.50892 -0.15647,-0.004 -0.33803,0.0188 -0.49003,0.0602 l -0.0102,0.10848 v 0 c -0.29597,0.20305 -0.63927,0.0256 -0.80385,-0.27638 -0.0677,-0.12528 -0.0454,-0.41569 -0.13973,-0.519 -0.18146,-0.19692 -0.47382,0.0701 -0.55616,-0.30568 -0.22206,-0.0718 -0.4683,0.006 -0.67849,-0.13363 -0.19905,-0.13055 -0.23599,-0.44456 -0.48424,-0.52378 -0.11793,-0.0385 -0.35938,-0.0149 -0.50187,-0.0328 -0.15753,-0.0201 -0.31181,-0.0374 -0.45858,-0.0446 -0.31239,-0.0166 -0.66431,0.0385 -0.96562,9.8e-4 -0.27892,-0.0356 -0.5667,-0.16719 -0.84848,-0.20423 -0.11973,-0.0157 -0.25813,-0.0162 -0.39475,-0.0127 l -0.38413,0.011 c -0.35517,0.001 -0.43107,0.0921 -0.65639,-0.20709 -0.1407,-0.1857 -0.27205,-0.45027 -0.46925,-0.59501 -0.19952,-0.14536 -0.7984,-0.19551 -0.99743,-0.0231 -0.18606,0.16139 -0.0593,0.59639 -0.45072,0.41173 -0.13531,-0.45557 -0.66794,-0.65329 -1.02475,-0.84422 -0.21546,-0.11479 -0.43965,-0.0472 -0.63772,-0.11498 -0.26513,-0.0911 -0.30761,-0.32065 -0.33828,-0.55613 -0.0595,-0.4464 0.41375,-1.07063 -0.29493,-1.27535 -0.20342,-0.0586 -0.56595,-0.0425 -0.78857,-0.0259 l -3.64446,0.10664 c -0.36401,-0.10736 -0.70018,-0.18278 -1.04884,-0.29992 -0.36438,-0.12309 -0.68518,-0.26663 -0.99053,-0.41927 l -0.33967,-0.15979 c -0.0562,-0.0278 -0.1126,-0.0578 -0.1699,-0.0926 -0.11535,-0.0703 -0.20533,-0.12707 -0.35457,-0.10875 -0.19551,-0.22506 -0.41936,-0.39748 -0.66108,-0.55798 l -0.18449,-0.11878 c -0.34749,-0.21708 -0.68501,-0.43673 -0.99398,-0.71013 -0.33586,-0.29735 -0.67701,-0.76008 -1.09823,-0.93432 -0.48653,-0.20135 -0.40865,0.29866 -0.60495,0.58273 -0.20638,0.29783 -0.43446,0.0568 -0.6054,-0.1774 l -0.11625,-0.16584 c -0.41017,-0.58583 -0.97591,-1.1575 -1.713,-0.6579 l -0.31051,0.2167 c -0.19931,0.13741 -0.39522,0.25578 -0.65966,0.3255 -0.38364,0.10117 -0.77858,0.14853 -1.15707,0.2716 -0.37902,0.12426 -0.68909,0.36733 -1.05472,0.51135 -0.41545,0.16478 -0.82901,0.022 -1.25636,0.004 l -0.12838,-0.003 c -0.27302,-0.001 -0.61197,0.0411 -0.44917,0.35665 0.14093,0.27331 0.63504,0.41787 0.42522,0.8088 -0.18313,0.33855 -0.73193,0.28632 -1.01228,0.49443 -0.23735,0.17738 -0.29546,0.64498 -0.59515,0.72097 -0.32168,0.081 -0.68125,-0.366 -0.90851,-0.5332 -0.29518,-0.21922 -0.63375,-0.39639 -0.96746,-0.54487 -0.85317,-0.38116 -1.0996,0.21657 -1.83734,0.48467 -0.42391,0.15409 -0.8828,0.11064 -1.32398,0.1549 -0.37857,0.0386 -0.77329,0.21187 -1.15586,0.15747 -0.69155,-0.0978 -1.44878,-1.02667 -2.05512,-0.21263 -0.46898,0.62992 -0.0981,1.36324 0.14148,2.01198 l 0.0459,0.12857 c 0.14552,0.4239 0.83257,1.73468 0.1827,2.02781 -0.30449,0.13718 -0.76475,-0.25686 -1.06532,-0.31209 -0.32775,-0.0607 -0.64746,0.019 -0.95046,0.13896 l -0.51859,0.22481 c -0.57737,0.24042 -1.32908,0.45076 -1.20055,-0.4728 0.057,-0.41452 0.26248,-0.78803 0.29272,-1.20918 0.0287,-0.38649 -0.0261,-0.79292 -0.069,-1.17558 -0.0806,-0.70289 -0.37389,-1.41388 -0.75118,-2.01253 -0.20405,-0.32458 -0.49513,-0.46658 -0.81787,-0.64976 l -0.29974,-0.18817 c -0.21118,-0.12991 -0.44159,-0.24014 -0.67032,-0.15904 -0.28215,0.10043 -0.35793,0.41295 -0.69572,0.33886 -0.40502,-0.0877 -0.64147,-0.40829 -1.10266,-0.30638 -0.39481,0.0868 -0.5993,0.37704 -0.78294,0.70777 -0.17126,0.30757 -0.36429,0.48334 -0.6699,0.65873 l -0.01,0.10818 c -0.99484,0.16225 -0.61909,1.14608 -0.90057,1.83935 -0.16369,0.40397 -0.5542,0.45282 -0.9491,0.4896 -0.2701,0.0253 -0.84797,-0.0432 -0.90493,-0.39824 -0.0364,-0.001 -0.071,-0.006 -0.10669,-0.0106 -0.28001,-0.48781 -0.62273,-0.96522 -1.10566,-1.26118 0.0246,-0.50396 0.28435,-1.03805 0.50119,-1.37462 l 0.031,-0.0473 -0.0478,-0.0443 c -0.4919,-0.47508 -1.17846,-1.70696 -0.45829,-2.56231 0.0894,-0.10621 0.79489,-0.0586 0.67304,-0.40076 l -0.0393,-0.0795 c -0.36905,-0.59759 0.006,-1.05792 -0.28773,-1.23028 -0.45851,-0.2688 0.29656,-0.25527 0.2475,-0.39072 0.96881,-0.18654 0.38916,-1.57403 0.96369,-2.17308 l 0.17024,-0.17379 c 0.22043,-0.22736 0.39898,-0.45059 0.34822,-0.82949 -0.0564,-0.42291 -0.41526,-0.70572 -0.37706,-1.16412 0.0994,-1.17081 1.81721,-0.15622 2.45788,-0.0463 0.81489,0.14063 1.71594,0.009 2.55595,-0.052 l 0.35583,-0.0208 c 1.07164,-0.0451 2.16656,-0.20497 3.23662,-0.14982 0.12364,0.69061 1.25882,0.20408 1.51202,-0.10321 l 0.11934,-0.15191 c 0.10856,-0.14537 0.1326,-0.19056 0.3121,-0.25469 l 0.19752,-0.0624 c 0.26534,-0.0788 0.56032,-0.21681 0.58178,-0.54722 l 0.65888,-0.19857 c 0.27174,-0.0859 0.52776,-0.1828 0.81757,-0.34788 0.27423,0.1506 0.31283,-0.0729 0.48529,-0.18462 0.26343,-0.1714 0.29039,-0.13838 0.29664,-0.30057 l 0.007,-0.24205 c 0.014,-0.27453 -0.004,-0.34627 0.22863,-0.52031 0.18573,-0.13859 0.50456,-0.11871 0.45006,-0.4353 0.14589,-0.0256 0.30136,-0.0478 0.44594,-0.084 0.004,-0.18493 -0.0443,-0.36874 -0.0364,-0.55354 0.3259,-0.21078 0.61989,-0.25476 0.99796,-0.35029 -0.14343,-0.63119 0.77122,-0.42563 1.10544,-0.5284 -0.0221,-0.0721 0.0175,-0.19273 -0.003,-0.26476 0.22236,-0.0606 0.54026,-0.13414 0.7384,-0.022 0.14342,-0.25911 0.26942,-0.78618 0.69994,-0.64553 0.18433,0.0598 0.44022,0.48233 0.66226,0.58145 0.053,-0.33046 -0.3994,-0.49073 -0.37645,-0.77063 0.0341,-0.41351 0.64132,-0.21504 0.8251,-0.42053 0.23475,-0.26244 -0.13859,-0.62096 0.21013,-0.84445 0.24953,-0.16018 0.83148,-0.0767 1.12497,-0.1521 0.0841,-0.36852 -0.39272,-0.65149 -0.034,-0.99425 0.2355,-0.22536 0.83702,-0.13724 1.15207,-0.22301 0.0503,-0.20262 -0.0826,-0.3886 -0.13425,-0.53815 0.19073,-0.0795 0.32572,-0.21953 0.51791,-0.2963 0.004,-0.31272 -0.25907,-0.93914 -0.10027,-1.12759 0.0542,-0.0634 0.4533,-0.14802 0.54818,-0.18445 0.1805,-0.0681 0.3384,-0.16906 0.50482,-0.25527 l 0.30682,-0.14762 c 0.20348,-0.1038 0.38585,-0.23487 0.4332,-0.49224 0.0393,-0.21411 -0.10141,-0.45275 -0.0753,-0.6702 0.0267,-0.21639 0.19917,-0.26798 0.1397,-0.55399 0.71066,0.34128 1.42703,0.43986 2.17364,0.60108 l 0.32191,0.0738 c 0.7386,0.18235 1.72927,0.30537 2.48716,0.25263 1.01525,-0.0706 1.65531,0.0599 1.88405,1.18047 0.1871,0.91982 -0.67319,1.3708 -1.30953,1.83258 l -0.0391,0.25583 c -0.0236,0.16383 -0.0326,0.31932 0.031,0.49714 0.4346,0.2395 0.64848,-0.25331 1.00371,-0.40371 0.49063,-0.20847 0.89354,0.27979 1.07917,0.63118 l 0.0273,0.41386 c 0.43212,0.77574 1.20338,-0.82088 1.72664,-0.88737 0.12031,0.26028 -0.12999,0.7463 -0.24292,0.98026 0.51991,0.0175 0.64012,-0.2248 1.06314,-0.39343 0.19572,-0.079 0.42774,-0.0537 0.63427,-0.10649 0.27053,-0.0675 0.50181,-0.21593 0.77302,-0.27784 0.67315,-0.15249 1.38402,-0.43892 1.78702,-1.05002 0.37742,-0.57146 0.76762,-1.47654 1.47364,-1.66754 0.45575,-0.12264 0.89587,-0.0571 1.36561,-0.10753 0.46982,-0.0498 0.93754,-0.11309 1.40617,-0.17265 0.36257,-0.0468 1.16533,0.0128 1.44483,-0.22787 0.51811,-0.4441 -0.17823,-0.72333 -0.47532,-0.87428 0.56388,-0.19877 0.90888,-0.64956 1.48529,-0.76448 0.47471,-0.0957 1.48561,0.22511 1.71626,-0.42655 0.1046,-0.29466 -0.0576,-0.45137 0.20223,-0.72094 0.1777,-0.18402 0.50589,-0.25382 0.63573,-0.4795 0.11391,-0.20051 0.0958,-0.58712 0.11823,-0.80389 0.0272,-0.27074 0.18965,-0.48781 0.21332,-0.75451 0.29768,-0.067 0.55406,-0.48141 0.92025,-0.32903 z"
     id="lemberg"
     fill="#ebe084"
     fill-rule="nonzero"
     style="stroke:#000000;stroke-width:0.5" />
</svg>
