<svg>
  <path
     d="m 155.73184,151.36291 3.32733,0.54447 v 0 c 0.85667,0.0965 1.6359,0.50693 2.4503,0.77125 0.36006,0.1595 0.80576,0.19867 1.05643,0.54914 l 2.31635,2.82608 c 0.12211,0.15065 0.23312,0.31335 0.22445,0.51996 l 0.008,1.1568 v 0 l 0.003,1.31501 c 0.004,0.1847 0.0124,0.45308 0.0109,0.83488 -0.003,0.50905 -0.23808,0.96607 -0.41854,1.42561 -0.33603,0.92253 -0.68832,1.8384 -1.03625,2.75609 l -0.51605,1.37897 c -0.0668,0.16562 -0.12492,0.35047 -0.27043,0.46108 -0.64654,0.51933 -1.33404,0.97989 -1.9734,1.50921 -0.14684,0.14102 -0.34461,0.27587 -0.53214,0.41989 l -0.18185,0.14763 c -0.23187,0.20244 -0.52497,0.34451 -0.69795,0.61062 -0.0761,0.28963 0.27381,0.3484 0.4424,0.47576 -0.42997,0.33567 -0.85978,0.68509 -1.3366,0.94331 -0.67884,0.0522 -1.35273,-0.18282 -2.03455,-0.16414 -0.10907,0.0285 -0.16633,0.10224 -0.17177,0.22118 0.0714,0.26816 0.32692,0.48389 0.317,0.76856 l -0.017,0.11023 c -0.0746,0.42946 -0.10001,0.87297 -0.22494,1.29095 -0.23752,0.30177 -0.52054,0.55981 -0.79373,0.82747 l -0.38891,0.39279 c -0.12401,0.12194 -0.26039,0.23551 -0.44026,0.21127 l -0.97392,-0.0582 v 0 l -0.97339,-0.0652 c -0.18972,-0.005 -0.38655,-0.0747 -0.57124,-0.007 -0.10404,0.11506 -0.0668,0.29711 -0.0102,0.48894 0.0389,-0.038 0.0891,-0.0415 0.14149,-0.0329 0.066,0.0113 0.13663,0.0424 0.19405,0.0541 0.45209,0.17676 0.88922,0.39377 1.33999,0.57584 0.55703,0.22155 1.04598,0.5825 1.5676,0.87768 0.50731,0.26527 0.72021,0.86319 1.14405,1.22971 0.5219,0.12751 1.06647,-0.008 1.59777,-0.003 0.68724,-10e-5 1.37199,-0.10047 2.05951,-0.0745 -0.15194,0.39655 -0.51259,0.72749 -0.48445,1.1815 0.0235,0.57682 0.0667,1.15156 0.0931,1.72865 l -5.4e-4,0.12126 c -0.002,0.10609 -0.0166,0.21672 -0.0993,0.27121 l -0.0582,0.0255 c -0.59312,0.26826 -1.18542,0.53591 -1.78346,0.79203 -0.43038,0.19214 -0.91039,0.11582 -1.35954,0.21001 -0.18228,0.0327 -0.29127,0.20404 -0.39574,0.34652 -0.18087,0.26856 -0.37034,0.53274 -0.54481,0.8063 -0.18564,0.26165 -0.14178,0.60258 -0.18646,0.9077 -0.33734,-0.0791 -0.68063,-0.2186 -0.9259,-0.47792 l -0.0988,-0.11865 -0.22794,0.1683 c -0.75615,1.5e-4 -1.24783,0.78496 -1.98476,0.87391 -0.6461,0.0899 -1.2908,0.18347 -1.9371,0.27029 l -0.23839,0.042 c -0.1192,0.025 -0.23509,0.0623 -0.33275,0.14047 -0.38789,0.32231 -0.70727,0.72902 -1.11729,1.02281 -0.58842,-0.19145 -1.08506,-0.54623 -1.64496,-0.81492 -0.57984,-0.33027 -1.18002,-0.62383 -1.76129,-0.95127 l -0.57353,-0.34134 -0.32925,0.0136 c -1.51852,0.0546 -3.03665,0.062 -4.55476,0.12581 -0.0594,0.0808 -0.11593,0.16387 -0.17103,0.24803 l -0.32402,0.50996 c -0.39608,-0.2629 -0.71881,-0.62641 -1.09204,-0.92073 l -0.29133,-0.20511 -0.29431,0.0222 c -0.55012,-0.0599 -1.10744,-0.11245 -1.6472,-0.22886 -0.64212,-0.59556 -1.17425,-1.31787 -1.79957,-1.935 -0.0771,0.06 -0.14909,0.1264 -0.21711,0.19834 0.0259,0.35638 0.20329,0.67677 0.26744,1.02683 l -0.14413,0.14857 c -0.0978,0.0998 -0.20269,0.19196 -0.33814,0.22205 -0.49486,0.0691 -1.00318,0.0128 -1.49083,0.1359 -0.21675,0.11177 -0.32816,0.36174 -0.48393,0.54592 l -0.36615,-0.15152 c -0.12109,-0.053 -0.23978,-0.11119 -0.35172,-0.18262 -0.0742,-0.0468 -0.13765,-0.10534 -0.19526,-0.17013 -0.1622,0.0891 -0.25931,0.15795 -0.2449,0.18842 -0.71997,0.19351 -1.47405,-0.048 -2.19805,0.0861 -0.28401,0.39207 -0.26654,0.93043 -0.4412,1.37833 -1.28078,-0.35004 -2.53942,-0.7892 -3.81595,-1.15711 -0.14414,-0.0358 -0.30238,-0.086 -0.44349,-0.0105 -0.14376,0.21223 -0.23622,0.45673 -0.35126,0.68681 -0.87444,-0.76382 -1.68102,-1.60847 -2.53456,-2.39708 -0.37188,-0.30418 -0.87405,-0.30427 -1.28705,-0.51867 l -0.12434,-0.0316 c -0.0932,-0.0203 -0.21387,-0.0385 -0.26962,-0.0131 -0.60563,0.14681 -1.20299,0.35607 -1.82873,0.38098 -0.38804,0.0362 -0.7801,0.0411 -1.16658,0.0944 -0.41688,0.0426 -0.63979,0.4755 -0.98789,0.66675 -0.29563,0.0404 -0.59491,-0.0767 -0.88907,-0.007 -0.16957,0.0767 -0.25251,0.26502 -0.35243,0.41621 -0.20367,0.35275 -0.44513,0.68066 -0.6453,1.03596 -0.11961,0.18371 -0.0421,0.40995 -0.0338,0.61397 -0.21078,0.15462 -0.52783,0.21605 -0.64086,0.47566 0.0489,0.28138 0.26639,0.4921 0.40069,0.73397 l -0.17527,0.35327 c -0.0607,0.11681 -0.12699,0.23012 -0.20855,0.33223 -0.31998,0.14496 -0.68627,0.0911 -1.01437,0.20831 -0.10376,0.0343 -0.16145,0.15615 -0.16567,0.26535 l -0.0316,0.62454 c -0.007,0.10406 -0.0162,0.20802 -0.0301,0.31177 -0.50475,-0.16643 -0.99468,-0.37411 -1.48614,-0.57772 -0.50037,-0.16863 -0.38355,-0.94813 -0.87832,-1.12742 -0.47428,-0.1824 -0.96202,-0.32948 -1.43657,-0.51102 -0.0286,-0.14918 -0.0393,-0.30296 -0.0943,-0.44335 -0.0911,-0.0822 -0.19396,-0.14527 -0.29305,-0.21375 -0.0991,-0.0685 -0.30041,-0.32599 -0.28492,-0.16598 0.0155,0.16002 0.0494,0.32738 -9e-4,0.48622 -0.0999,0.0945 -0.21506,0.16986 -0.3285,0.24659 -0.24166,-0.30532 -0.44347,-0.64157 -0.68437,-0.94615 -0.13885,-0.18338 -0.37818,-0.18373 -0.5785,-0.22442 l -0.61557,-0.10209 c -0.10275,-0.0153 -0.20585,-0.0277 -0.30972,-0.0341 -0.41839,0.037 -0.73721,0.52803 -1.17911,0.37896 -0.54867,-0.10201 -1.08221,-0.41015 -1.64371,-0.36552 -0.41542,0.43743 -0.62838,1.0442 -1.01424,1.51 -0.41259,0.14733 -0.86291,0.007 -1.28613,0.095 -0.383534,0.16771 -0.49124,0.6731 -0.848199,0.87539 -0.433047,0.13323 -0.900286,0.11318 -1.326581,0.27194 l -0.150286,0.17706 v 0 c 0.210957,0.31953 0.505766,0.57033 0.689755,0.91071 l -0.604987,0.37857 c -0.202587,0.12475 -0.407889,0.24438 -0.621277,0.34782 -0.234352,-0.57269 -0.418414,-1.16618 -0.635804,-1.74539 -0.142439,-0.40541 -0.563559,-0.55562 -0.876973,-0.78211 -0.245689,-0.1428 -0.467141,-0.35613 -0.750597,-0.41017 -0.356027,0.19601 -0.548517,0.6082 -0.893926,0.82147 -0.311665,0.0824 -0.643578,0.12798 -0.964136,0.0935 l -0.103542,-0.13291 c -0.10386,-0.1415 -0.190996,-0.30664 -0.102314,-0.47614 0.117417,-0.27836 0.249344,-0.55268 0.395796,-0.8147 0.09929,-0.1773 0.308125,-0.20985 0.479534,-0.26409 l 0.949282,-0.25597 c 0.15855,-0.0411 0.317762,-0.079 0.478375,-0.11033 l 0.21004,0.21368 c 0.105122,0.10781 0.214895,0.20992 0.349562,0.27401 0.103586,-0.0182 0.201278,-0.0632 0.288335,-0.12204 0.859937,-0.64126 1.746376,-1.24251 2.600452,-1.89254 0.511014,-0.38808 1.083295,-0.69393 1.546431,-1.14588 0.157152,-0.42666 0.138368,-0.9047 0.266199,-1.34257 l 0.456561,-0.012 c 0.3046,-0.009 0.60828,-0.0286 0.90285,-0.12133 0.40017,-0.12513 0.8206,-0.18685 1.20648,-0.35628 0.30625,-0.2283 0.17529,-0.73445 0.40264,-1.01134 0.66853,-0.39459 1.37522,-0.71739 2.04706,-1.10582 0.12784,-0.0702 0.19676,-0.20427 0.22933,-0.34508 l 0.0154,-0.0848 c 0.0972,-0.61042 0.19356,-1.22183 0.32059,-1.82603 10e-4,-0.0226 0.1037,-0.22777 0.13543,-0.29453 0.10467,-0.28211 0.22412,-0.55628 0.36039,-0.82254 0.54826,0.16801 1.03623,0.51351 1.59548,0.64413 0.28835,-0.0704 0.49667,-0.31854 0.74002,-0.48153 0.25029,-0.211 0.5692,-0.3653 0.73002,-0.66884 0.002,-0.3837 -0.24053,-0.71919 -0.23694,-1.10052 l 0.0586,-0.15578 c 0.076,-0.18938 0.18567,-0.3843 0.39987,-0.36203 0.69309,-0.0145 1.38658,-0.0145 2.07999,-0.0183 l 1.04,-0.0108 c 0.23416,0.002 0.4781,-0.0153 0.71263,0.0144 0.14072,0.0179 0.27706,0.0534 0.40759,0.11959 l 0.13042,0.0654 c 0.0585,0.0278 0.11636,0.0513 0.21667,0.0846 0.29006,0.0968 0.57065,0.27176 0.88533,0.24668 l 0.16518,-0.007 c 0.0834,-0.002 0.16522,0.006 0.23231,0.0667 0.35826,0.24707 0.68659,0.53979 1.04103,0.79298 0.20588,0.14718 0.46702,0.14077 0.70636,0.15668 1.02272,0.0237 2.04578,0.0395 3.06839,0.0694 l 0.12895,-0.003 c 0.13435,-0.006 0.27485,-0.0307 0.33115,-0.17146 0.11067,-0.47597 0.0217,-0.97308 0.0887,-1.45454 0.005,-0.13157 0.11846,-0.20317 0.2025,-0.27945 l 2.78131,-2.32087 0.3053,-0.20803 0.21523,-0.19866 c 0.32399,-0.28807 0.64213,-0.58299 0.93193,-0.90797 l 0.21168,-0.24974 c 0.23761,-0.31324 0.6013,-0.52969 0.73714,-0.91791 l -0.18493,-0.18989 v 0 c -0.39896,0.16573 -0.65912,0.55018 -1.04658,0.73579 l 0.0145,-0.41736 c 0.0702,-1.52068 0.33234,-2.15418 1.59654,-2.70678 l 0.17064,-0.0717 c 0.14226,-0.0661 0.29781,-0.11646 0.41279,-0.2307 0.12187,-0.51577 0.10647,-1.05343 0.1786,-1.57697 l 0.45144,0.0682 c 0.2259,0.0362 0.44942,0.0843 0.6586,0.18323 0.18487,0.18026 0.31381,0.41355 0.47441,0.61694 0.47115,-0.074 0.9232,-0.25143 1.3961,-0.31094 0.98042,0.0427 1.94966,0.26443 2.92849,0.30466 l 0.0763,-0.15899 v 0 c -0.12373,-0.29797 -0.30087,-0.56619 -0.43999,-0.85546 0.29571,-0.12603 0.60308,-0.21819 0.91015,-0.30823 0.23124,0.32851 0.44968,0.66702 0.66972,1.00428 l 0.56523,0.6765 c 0.12952,0.15731 0.2656,0.32576 0.39156,0.48864 0.17629,-0.0743 0.33935,-0.17035 0.42195,-0.36286 0.26478,-0.49157 0.48775,-1.0078 0.76842,-1.48993 0.24404,0.12207 0.49193,0.24172 0.75619,0.31018 l 0.43757,-0.69682 v 0 c 0.13931,0.21642 0.26658,0.44235 0.37654,0.6775 -0.19054,0.0789 -0.4436,0.0685 -0.57442,0.25455 0.0623,0.64192 0.18801,1.32289 0.29056,1.91447 0.4847,-0.0597 0.95986,-0.16697 1.15658,-0.21368 l 0.17436,-0.0451 c 0.16299,-0.0509 0.19659,-0.1092 0.22819,-0.31387 l 0.0419,-0.35231 v 0 c 0.44938,-0.0945 0.90617,-0.15073 1.36111,-0.20773 0.10715,0.27662 0.18162,0.56575 0.30623,0.83545 0.16883,0.11841 0.31249,-0.0785 0.43725,-0.17621 0.19197,-0.19783 0.42632,-0.36361 0.56488,-0.60927 0.005,-0.25704 -0.16336,-0.47805 -0.24597,-0.71252 0.60478,-0.33473 1.22518,-0.63685 1.84317,-0.94364 l 0.0319,0.0976 v 0 c 0.13134,-0.1084 0.21534,-0.23752 0.189,-0.41152 0.0331,-0.2656 0.18847,-0.49617 0.27663,-0.74459 0.26592,0.0965 0.55406,0.18712 0.82751,0.26039 l 0.0948,-0.17504 c 0.0874,-0.1567 0.18949,-0.32568 0.26122,-0.39584 l 0.039,-0.0293 c 0.10442,-0.10383 0.27866,-0.11652 0.27866,-0.11652 0.10677,-0.0469 0.10338,-0.16668 0.0938,-0.38445 l -0.037,-0.40401 c -0.005,-0.0708 -0.008,-0.14151 -0.009,-0.20974 0.40142,-0.23284 0.84122,-0.39224 1.22695,-0.65259 0.20255,-0.36632 0.25861,-0.80609 0.35233,-1.21458 l -0.51121,-0.5297 v 0 c 0.0163,-0.24267 0.0426,-0.48415 0.0644,-0.7255 l -0.58026,-0.16633 v 0 c 0.002,-0.20465 0.007,-0.37379 0.0262,-0.57669 0.61006,-0.12998 1.25281,-0.43883 1.88456,-0.29872 0.61937,0.11098 1.21738,0.17694 1.83663,0.28976 0.29433,0.0508 0.73223,0.24733 0.79963,0.36572 0.18537,-0.36249 0.31587,-0.75162 0.49887,-1.11499 0.26087,-0.011 0.56415,-0.0171 0.81086,-0.0147 0.45635,-0.0223 0.56266,-0.19555 0.62372,-0.23899 0.3407,-0.28914 0.28302,-0.30474 0.61956,-0.59907 0.24247,0.157 0.44856,0.37382 0.70581,0.5061 0.18994,0.0507 0.27032,-0.17915 0.37008,-0.3023 l 0.70125,-1.17578 v 0 l 0.69545,-1.17951 c 0.0756,-0.12434 0.17767,-0.29196 0.34433,-0.23149 z"
     id="london"
     fill="#ef7f72"
     fill-rule="nonzero"
     style="stroke:#000000;stroke-width:0.5" />
  
</svg>