<svg>
  <path
     id="marseille"
     style="fill:#54bff9;fill-rule:nonzero;stroke:#000000;stroke-width:0.5"
     d="m 156.87444,276.77634 0.093,2.00923 0.80981,0.77227 -0.83412,1.5283 0.63458,0.37026 -0.38834,0.8805 0.57465,0.14079 0.52159,-0.71216 0.73999,0.0778 0.11755,0.2381 1.62369,0.17066 0.36473,-0.64732 0.38162,-0.11692 0.27781,-1.19628 0.36462,0.0383 0.13288,-1.29475 1.60934,-1.13974 0.12629,0.24533 0.0363,1.00425 1.0491,-0.0468 0.0644,1.54492 0.50899,0.0535 -0.0108,1.53421 0.40034,0.63519 0.93462,-1.69651 0.98032,-2.28622 0.86576,0.74159 0.51503,-0.91482 1.51394,-0.38702 0.6785,2.57484 1.39282,-0.28756 0.16693,-0.63235 0.52385,0.0542 0.12892,0.76931 0.99077,-0.13761 1.14165,1.88261 0.15774,2.01323 0.77708,1.08141 -0.2695,1.11722 0.23991,0.19276 0.008,-0.0104 0.79576,0.61295 -0.15997,1.52204 0.62358,-0.24853 1.16037,0.97446 0.56872,0.28621 0.25198,-1.05247 0.75605,-0.0685 0.12847,0.85759 0.45805,-13.53535 0.22873,-0.81938 1.58921,1.15764 0.33254,-0.54133 1.42932,-0.0664 0.26835,0.41308 -0.26293,1.05481 0.17958,0.28739 0.85825,-0.72456 0.68637,0.0196 0.19561,-0.41411 -0.87062,-0.20438 -0.0486,-0.9782 0.66542,-0.85336 0.73909,0.0153 0.64916,0.78052 -0.82861,0.9401 0.16658,0.3982 1.0285,0.22027 0.73791,-0.52257 -0.45173,0.77056 0.0406,0.65347 1.07892,0.21856 1.44349,0.26388 0.13499,0.71807 0.7185,0.67634 0.47238,0.0854 8.1e-4,0.0141 0.19044,0.0354 0.51383,-0.37995 0.3494,-0.77945 0.37662,0.42166 0.26858,0.41043 0.0683,-0.31391 0.007,0.008 0.87975,-0.68993 0.95085,0.0999 0.34724,0.28117 0.53798,-0.14467 -0.007,-0.01 -0.52963,0.14274 -0.3465,-0.2818 -0.95085,-0.0999 -0.8805,0.69056 -0.007,-0.008 0.35164,-1.65964 -0.50426,-0.15676 -0.24519,-0.72894 -1.71431,-0.67807 -0.12068,-0.93179 0.6779,-0.36494 -0.48264,-0.43351 0.15794,-0.46924 0.82876,0.13758 0.68394,0.45608 0.64872,-0.63641 -0.52482,-0.5424 0.11733,-0.63839 0.42579,-0.99071 1.10084,0.004 0.92068,-0.27831 0.19797,-0.35917 -0.39516,-0.25816 0.0676,-0.64557 1.29734,0.13636 0.46152,-0.38628 -0.20802,-0.50777 0.7317,-0.46993 0.4509,0.26403 0.73695,-0.51986 1.17074,0.33968 0.46751,-0.4367 0.98306,0.15519 0.12353,-1.17533 -0.39374,-0.25884 -0.13432,-0.71799 -1.07811,-0.22618 -0.13004,-0.28078 0.32614,-1.10719 0.40023,-0.28745 0.95216,-0.003 0.27409,0.35072 0.0784,0.77241 0.94371,-0.013 0.19762,-0.81002 0.48787,-0.16536 3.59191,-1.17998 13.41069,10.48222 -15.45973,5.20228 0.20853,0.56735 0.74686,0.34841 0.0386,1.62844 1.28172,0.84701 0.73494,-0.0356 0.55364,0.27482 -0.005,1.57202 0.68349,0.45392 -0.051,0.48483 -0.56061,-0.11151 -0.54821,0.50044 -0.67114,-0.10629 -0.65813,0.81628 -0.85002,0.40702 -0.34347,0.5549 -0.71369,-0.0308 -8.2e-4,0.008 0.71288,0.0322 0.34347,-0.5549 0.84981,-0.39862 0.65813,-0.81641 0.67105,0.10689 -0.15028,0.13143 0.0711,0.77163 -1.03903,0.92628 -0.25859,0.45797 0.18557,0.72127 0.50642,0.22009 0.37518,0.42239 -0.74272,0.0257 -0.11309,1.07059 1.01652,0.81351 -0.10174,0.96801 0.78163,0.0822 1.31813,0.51992 1.2292,1.26913 0.78096,0.0821 2.54138,-0.6541 0.78193,0.0212 0.13344,0.72782 0.21474,0.50854 0.0657,0.82237 -0.43146,1.14578 -1.18851,0.25576 0.0737,0.82449 -0.85346,0.61417 0.39241,1.29208 -0.99946,0.48526 -0.11288,0.58965 -0.93405,-0.0982 -1.14212,0.86076 -1.20762,-0.0211 -0.22446,1.65897 -0.51211,-0.166 -0.4169,0.45254 -1.01831,-0.32365 -0.17749,1.22376 -0.0489,0.0483 -0.94335,0.88165 -1.52803,0.056 -0.19781,0.84853 -0.47893,0.55189 -0.88641,0.44315 1.09464,0.0625 -0.14782,1.40417 -0.8724,0.28408 -0.70061,-0.29097 -0.36826,0.45485 -1.08985,-0.11455 -0.45518,0.32583 -0.17343,0.69407 -0.39537,0.22835 -0.22405,-0.35516 -0.3049,-0.1351 -0.75282,-0.34973 -0.72671,0.40945 0.0367,0.70423 0.27261,0.35816 -4e-4,0.004 -1.2428,-0.19022 0.55357,-0.21553 0.0953,-0.42254 -1.59649,-0.33255 -0.9945,0.49629 -0.56409,0.3221 -0.56113,-0.17116 -0.14699,-1.1014 -0.88685,-0.52788 -0.12004,-0.21452 8e-5,-0.003 -0.10556,-0.18425 -1.20455,-0.56058 -2.54567,-0.26755 0.35617,-0.34586 0.26338,-0.51635 -1.14288,-0.172 0.9114,-0.66183 -0.10582,-0.50467 -0.80804,0.24668 -2.96706,-0.36666 -0.35814,-1.06892 -0.94596,-0.53409 -0.67905,0.46635 0.84241,1.0175 -1.80555,0.13201 -2.18082,-0.71588 0.61357,-0.85754 0.78095,0.0821 -0.37054,-0.47292 -2.17198,-0.39303 -1.6403,-0.25163 -6.2e-4,-0.002 -0.63577,-0.10046 -1.19521,-0.0681 0.11283,-1.07354 -0.79237,-0.14285 -0.008,0.007 -0.71102,-0.1273 -1.90079,1.1028 -3.05808,2.01736 -0.52766,0.54396 -1.45927,-0.1008 -0.26002,0.45852 -1.9355,0.39949 -0.0646,0.28768 -0.12643,0.55639 -0.58108,0.47736 -0.84859,0.5614 -0.79131,-0.9525 -0.49016,0.65879 0.43825,0.8558 0.62847,0.015 -0.24292,1.76233 -0.11884,1.53757 0.003,0.002 -0.37663,4.70737 0.69896,0.40368 0.35334,0.63654 -0.0905,0.86123 -0.82647,-0.14647 -0.6022,-0.82044 -1.09119,-0.11469 -0.80901,0.18488 -0.59046,0.64404 -1.60551,0.21193 -0.13002,0.75273 -0.32321,0.12308 -0.33866,-0.30481 -0.36529,-0.0384 -0.47311,0.4964 -1.31959,-1.44257 -1.6527,-0.77311 -1.11237,0.0997 -1.00944,1.03244 -0.63489,0.0462 -0.75167,-0.8454 0.0507,-0.96705 -1.51002,-0.59338 -0.70197,-0.84005 -0.0307,-0.57389 -0.07,-1.00632 -2.25356,-0.56635 -0.81722,0.2436 -0.72914,-1.5441 -2.24971,-0.12499 -0.7584,-1.27854 -0.68292,-0.0718 -1.57144,-0.48695 -0.26521,-0.19563 0.48347,-0.37544 -0.48584,0.37159 -1.00535,-0.75697 -0.71296,-0.1864 -0.38461,2.62714 -2.09926,-0.36787 0.23708,-2.89656 0.52511,0.0552 0.44059,0.29098 0.3676,-0.29998 0.006,-0.53714 0.69968,-0.32677 -0.002,-0.009 -0.69946,0.32469 -0.005,0.53783 -0.36767,0.30067 -0.44058,-0.29097 -0.52512,-0.0552 -0.2364,2.8965 -0.99929,-0.17514 -0.4435,-0.26324 -0.43294,0.60521 -0.96168,-0.378 -0.6341,-0.93668 -1.79341,0.57848 -0.6836,-0.0719 -0.75754,-0.78279 -0.0329,-0.65546 -0.95519,-0.91784 -0.8243,-0.63208 -0.14127,0.0651 0.19853,-1.10085 0.45066,-0.28284 0.40288,-1.74679 0.75623,0.24634 0.3382,-0.18179 -0.28639,-0.79567 1.53682,-1.08918 1.0366,-1.84634 0.58793,-0.63928 -0.87122,-1.71666 0.63091,-0.47982 -0.72376,-1.59529 -0.0803,-0.0239 -0.01,0.004 -1.30467,-0.23457 -0.33689,-0.79983 0.47556,-0.98493 0.58896,-0.64349 -0.0642,-0.92668 0.46129,-0.38407 -0.50369,-1.1375 0.58536,-0.58919 0.58587,-0.0513 0.49252,0.2684 0.80159,-0.56635 0.17175,0.8334 0.2186,0.40717 0.59155,-0.10539 0.0227,-0.70009 0.45013,-0.76874 0.56101,0.6051 0.92303,-0.77231 0.30873,0.57018 0.89927,-0.0682 0.9517,-0.005 0.49652,-0.71268 1.57295,0.007 0.69932,0.88465 0.2933,-0.23909 0.12882,-0.0306 0.21021,0.24784 0.7588,0.0798 0.39266,-0.15083 0.31202,0.22252 -0.31168,-0.22555 -0.39339,0.15145 -0.7588,-0.0798 -0.21036,-0.24859 0.40402,-0.0781 -0.12878,-0.7707 0.80414,-0.1321 1.01433,-0.11002 -0.15046,-0.66782 0.3566,-0.3439 0.36603,-0.99561 -0.50698,-0.71323 0.49684,-1.18866 0.73113,0.56269 1.17011,-0.0937 -0.064,-0.19236 -0.33636,-1.0435 -0.24614,-1.65025 8.2e-4,-0.003 1.04362,0.0571 0.3325,-0.67677 0.526,-0.43126 0.13513,-0.80126 1.15047,0.0158 0.84461,-0.99509 -0.3032,-0.14487 0.0111,-0.58996 0.89335,-0.0183 0.11439,-0.52639 0.44512,-0.23015 0.55639,-0.81084 -0.41005,-0.58165 0.0625,-0.59494 0.39136,-0.28066 -0.0281,-0.0555 0.15742,-0.0122 1.16463,-0.41602 1.26,0.75007 0.86441,1.61989 0.59961,-0.0141 0.97798,-0.81701 0.23464,0.56448 0.65567,-0.54102 z" />
</svg>
