<svg>
        <path d="M221.828226,192.151755 L221.857793,192.195104 L221.912872,192.261332 L221.976583,192.3277 L222.053569,192.424477 L222.083831,192.475313 L222.111297,192.528782 L222.129379,192.581777 L222.137692,192.61579 L222.145213,192.710302 L222.142351,192.744381 L222.114689,192.862591 L222.02106,193.045975 L221.94745,193.146807 L221.922379,193.17536 L221.907125,193.204763 L221.898869,193.26061 L221.915798,193.314079 L221.929278,193.332774 L221.94364,193.357861 L221.970706,193.377913 L221.998891,193.402722 L222.064948,193.43748 L222.143823,193.473251 L222.235163,193.505638 L223.028079,193.709106 L223.325177,193.781098 L223.492973,193.823662 L223.571169,193.851022 L223.713902,193.908022 L223.774376,193.943204 L223.795482,193.963722 L223.822351,193.981371 L223.856978,194.025823 L223.865856,194.052537 L223.879572,194.078875 L223.883905,194.13294 L223.881207,194.160545 L223.838578,194.260174 L223.743387,194.42394 L223.705564,194.508684 L223.667512,194.585793 L223.636392,194.670022 L223.610856,194.753809 L223.593125,194.836992 L223.580251,194.919798 L223.580251,195.068875 L223.591678,195.137302 L223.60936,195.20403 L223.647837,195.29654 L223.710493,195.37346 L223.737967,195.398728 L223.76549,195.415117 L223.881019,195.516144 L223.991267,195.63088 L224.041262,195.694289 L224.113817,195.82485 L224.145747,195.896515 L224.17712,196.036322 L224.169599,196.172286 L224.149098,196.244 L224.116441,196.313834 L224.072193,196.378935 L224.014008,196.443095 L223.912409,196.52636 L223.833371,196.573199 L223.75927,196.59267 L223.728003,196.595123 L223.703292,196.590627 L223.643431,196.567869 L223.623142,196.548496 L223.596297,196.531248 L223.553798,196.47249 L223.349569,196.12288 L223.266248,196.026602 L223.192245,195.976755 L223.159482,195.960365 L223.075834,195.939888 L222.973589,195.925681 L222.896169,195.93173 L222.835531,195.950932 L222.798624,195.98121 L222.78306,196.002161 L222.779054,196.022213 L222.768624,196.05124 L222.770259,196.07206 L222.766335,196.09776 L222.769114,196.133008 L222.77988,196.193016 L222.851717,196.460245 L222.874041,196.581014 L222.876084,196.607057 L222.871343,196.636845 L222.86227,196.678256 L222.806831,196.776864 L222.783052,196.812161 L222.755512,196.842512 L222.731054,196.864583 L222.706826,196.880172 L222.683161,196.888853 L222.657861,196.890815 L222.630518,196.886074 L222.605226,196.874335 L222.585003,196.85573 L222.557292,196.836937 L222.515463,196.786591 L222.47285,196.721801 L222.185439,196.117526 L222.092815,195.993766 L222.037278,195.931191 L221.905768,195.798766 L221.837986,195.742387 L221.763575,195.687324 L221.690243,195.64588 L221.618161,195.610787 L221.547354,195.586886 L221.509515,195.577354 L221.414602,195.584711 L221.353866,195.616828 L221.323515,195.640134 L221.300144,195.661698 L221.256125,195.734433 L221.232959,195.782172 L221.218188,195.831684 L221.137801,196.32715 L221.096193,196.439589 L221.027651,196.547678 L220.981744,196.591959 L220.928283,196.630771 L220.862136,196.670172 L220.788076,196.694866 L220.751063,196.705019 L220.696376,196.737888 L220.648785,196.779872 L220.61509,196.831649 L220.593379,196.888142 L220.584477,196.922286 L220.571627,196.991384 L220.571381,197.14776 L220.677044,197.854019 L220.704738,198.11703 L220.769929,198.616084 L220.804188,198.961591 L220.804188,199.048215 L220.798629,199.137708 L220.779616,199.228248 L220.755804,199.305455 L220.722689,199.38339 L220.684899,199.454433 L220.639,199.517646 L220.581616,199.577719 L220.52133,199.629561 L220.455215,199.669362 L220.381564,199.708534 L220.308722,199.734373 L220.226431,199.754482 L220.140452,199.761185 L220.051728,199.762003 L219.962332,199.74921 L219.872193,199.741281 L219.792943,199.761954 L219.755259,199.777787 L219.726199,199.79376 L219.671864,199.845128 L219.643777,199.882779 L219.627101,199.917921 L219.604441,199.953136 L219.588845,199.987796 L219.569365,200.072319 L219.55712,200.153875 L219.566913,200.276826 L219.585526,200.35073 L219.616131,200.415243 L219.636534,200.441057 L219.692234,200.491534 L219.75118,200.521599 L219.827414,200.529038 L219.920529,200.508496 L219.995651,200.487733 L220.070463,200.481929 L220.152174,200.482828 L220.229022,200.497796 L220.306646,200.517937 L220.378245,200.547022 L220.446771,200.589243 L220.506027,200.632591 L220.560673,200.683951 L220.580978,200.708548 L220.596861,200.733921 L220.611845,200.767011 L220.627474,200.794003 L220.63524,200.826038 L220.640717,200.894924 L220.631455,200.929093 L220.627531,200.964063 L220.595234,201.033463 L220.572501,201.077147 L220.544251,201.112787 L220.508283,201.150243 L220.400324,201.520518 L220.411515,201.661093 L220.554076,201.72536 L220.65942,201.839662 L220.696441,201.904886 L220.705098,201.938466 L220.707796,201.972112 L220.703954,201.998589 L220.682014,202.047455 L220.642016,202.100123 L220.521338,202.183657 L220.211684,202.330256 L220.138196,202.362153 L220.071436,202.403213 L219.994646,202.468853 L219.977014,202.491978 L219.949343,202.534828 L219.932725,202.570779 L219.912714,202.639232 L219.91721,202.6957 L219.939935,202.745916 L219.962635,202.77236 L219.981918,202.798256 L220.037005,202.841123 L220.157038,202.928098 L220.358112,203.068812 L220.413174,203.125379 L220.457365,203.191248 L220.472136,203.230804 L220.492262,203.309425 L220.496104,203.35749 L220.490463,203.460684 L220.470477,203.529537 L220.44924,203.592038 L220.410469,203.726025 L220.311166,203.984 L220.277177,204.116801 L220.262741,204.18482 L220.260289,204.322436 L220.266256,204.39733 L220.280447,204.476817 L220.305158,204.556698 L220.337447,204.642439 L220.380305,204.719703 L220.43106,204.778616 L220.486123,204.835183 L220.541823,204.885659 L220.846981,205.073074 L220.906916,205.115564 L220.961561,205.166924 L221.010673,205.223948 L221.054594,205.295891 L221.118812,205.467398 L221.19109,205.740234 L221.282921,206.013962 L221.366864,206.287501 L221.439362,206.558302 L221.457935,206.645924 L221.492153,206.732311 L221.527695,206.797657 L221.571698,206.861123 L221.675447,206.969515 L221.735381,207.011997 L221.795986,207.062899 L222.04918,207.232599 L222.111272,207.283379 L222.172662,207.339455 L222.227782,207.396823 L222.284676,207.466943 L222.327297,207.536572 L222.365357,207.610174 L222.39552,207.68318 L222.444395,207.82203 L222.463948,207.89345 L222.54091,208.309787 L222.577302,208.451621 L222.601213,208.516657 L222.676482,208.667155 L222.727891,208.738918 L222.812929,208.828616 L222.784319,208.911439 L222.771469,208.980537 L222.763376,209.048065 L222.763376,209.184668 L222.778302,209.320526 L222.825959,209.589635 L222.842586,209.723335 L222.85336,209.858703 L222.838311,209.990033 L222.811253,210.115853 L222.756894,210.303439 L222.735657,210.36594 L222.708967,210.421207 L222.675411,210.479433 L222.635422,210.53694 L222.549125,210.63836 L222.488864,210.676493 L222.428774,210.716629 L222.361335,210.749278 L222.287063,210.776 L222.158292,210.804929 L222.078207,210.838575 L222.035104,210.861668 L221.968719,210.907534 L221.904845,210.975373 L221.848074,211.047888 L221.796992,211.126011 L221.753054,211.218488 L221.715297,211.313703 L221.73942,211.306183 L221.801815,211.294894 L221.871166,211.289499 L221.934583,211.29097 L221.998302,211.305757 L222.063272,211.32688 L222.122962,211.356888 L222.189272,211.39485 L222.486706,211.635659 L222.614324,211.733327 L222.754245,211.811507 L222.831428,211.840158 L222.992398,211.867518 L223.08064,211.868335 L223.132008,211.86433 L223.182223,211.874131 L223.222556,211.891534 L223.255474,211.909926 L223.282515,211.934425 L223.325888,211.999158 L223.335052,212.039147 L223.35154,212.086223 L223.3553,212.133079 L223.369147,212.227109 L223.37446,212.533763 L223.384662,212.661913 L223.393997,212.694635 L223.40903,212.728125 L223.423858,212.754373 L223.458608,212.786327 L223.471008,212.791395 L223.50306,212.794174 L223.5357,212.799733 L223.627965,212.773191 L223.749845,212.714147 L223.834932,212.668027 L223.927809,212.639858 L224.014196,212.619431 L224.096447,212.613054 L224.184215,212.614689 L224.261978,212.62718 L224.340281,212.655741 L224.411602,212.68606 L224.470858,212.720139 L224.525406,212.765458 L224.552545,212.79115 L224.573995,212.81609 L224.60361,212.868193 L224.626719,212.928046 L224.636177,212.96197 L224.640918,213.021243 L224.636831,213.055003 L224.591512,213.195946 L224.57133,213.271665 L224.565689,213.346256 L224.565649,213.420807 L224.571207,213.490493 L224.605621,213.616771 L224.635139,213.667665 L224.672292,213.72039 L224.718828,213.76391 L224.765594,213.800981 L224.819635,213.830621 L224.877599,213.853109 L224.942161,213.869041 L225.013965,213.877134 L225.194847,213.863065 L225.240599,213.87321 L225.278766,213.877542 L225.318322,213.894635 L225.371864,213.931967 L225.39221,213.956997 L225.422341,214.01551 L225.440962,214.089414 L225.453877,214.251619 L225.461398,214.42109 L225.474297,214.507943 L225.502319,214.629471 L225.52479,214.667213 L225.568891,214.731888 L225.636166,214.795967 L225.681272,214.812202 L225.728104,214.835956 L225.760082,214.847172 L225.830022,214.855428 L225.924935,214.848071 L225.992332,214.829123 L226.054695,214.803324 L226.344452,214.637302 L226.399629,214.620112 L226.461959,214.608022 L226.494232,214.599471 L226.589586,214.611733 L226.622651,214.622458 L226.688807,214.658433 L226.721864,214.683267 L226.788567,214.726027 L226.8533,214.753632 L226.919177,214.776717 L226.989125,214.784981 L227.270005,214.803823 L227.339332,214.80464 L227.409003,214.814139 L227.538951,214.856401 L227.604689,214.887153 L227.672267,214.936297 L227.732978,214.993232 L227.769035,215.041608 L227.768104,214.935692 L227.779752,214.846534 L227.792365,214.783902 L227.826264,214.72042 L227.838346,214.712237 L227.873733,214.695774 L227.894193,214.694221 L227.952052,214.710692 L228.004368,214.732804 L228.050422,214.770324 L228.166973,214.87006 L228.290153,214.996689 L228.551014,215.309654 L228.816967,215.644387 L229.053559,215.925398 L229.157112,216.026548 L229.203779,216.062409 L229.244757,216.087831 L229.289872,216.104065 L229.308109,216.102676 L229.320191,216.094493 L229.349463,216.057553 L229.38633,215.885842 L229.383796,215.694218 L229.36121,215.485624 L229.332379,215.283553 L229.310005,215.087033 L229.309188,214.992798 L229.315401,214.910907 L229.328177,214.826899 L229.346349,214.758594 L229.36376,214.723387 L229.408907,214.664654 L229.463545,214.626529 L229.493349,214.610499 L229.52536,214.608046 L229.556766,214.612052 L229.589488,214.623218 L229.62315,214.641545 L229.682463,214.690518 L229.75251,214.761234 L229.821559,214.842905 L230.120455,215.26212 L230.198022,215.366098 L230.281711,215.462351 L230.370371,215.550553 L230.465798,215.62494 L230.558962,215.670864 L230.611752,215.694161 L230.757992,215.7247 L230.836736,215.744752 L230.895174,215.768417 L230.934935,215.792728 L230.955787,215.810025 L230.977311,215.850259 L230.984831,215.855736 L230.98712,215.884166 L230.993169,215.889725 L230.993986,215.896101 L231.001098,215.910054 L231.00821,215.914714 L231.01524,215.927875 L231.042477,215.940676 L231.112891,215.954965 L231.18364,215.963973 L231.398038,215.966262 L231.455561,215.969041 L231.500766,215.986469 L231.521202,215.998583 L231.534199,216.011278 L231.563112,216.049722 L231.584937,216.08873 L231.595891,216.141471 L231.600714,216.201946 L231.598997,216.264946 L231.578856,216.416425 L231.54758,216.573995 L231.449839,216.922117 L231.348877,217.257995 L231.311512,217.409605 L231.289196,217.533847 L231.286907,217.589638 L231.290054,217.6297 L231.305937,217.669166 L231.321501,217.695365 L231.347962,217.707815 L231.365496,217.711657 L231.37994,217.719014 L231.429518,217.706711 L231.484728,217.689913 L231.795673,217.535965 L231.91497,217.458578 L232.017207,217.383332 L232.105548,217.307548 L232.188608,217.226531 L232.264221,217.146104 L232.339425,217.051191 L232.365542,217.00324 L232.387572,216.945913 L232.401501,216.890433 L232.409349,216.82897 L232.419166,216.561839 L232.434967,216.430845 L232.454978,216.362392 L232.504155,216.269515 L232.572853,216.182376 L232.644616,216.128842 L232.760292,216.067068 L232.797583,216.055722 L232.866444,216.050327 L232.935599,216.053433 L233.007812,216.066749 L233.148812,216.111406 L233.279839,216.167302 L233.345782,216.191188 L233.404327,216.206777 L233.487493,216.221319 L233.512809,216.219357 L233.560801,216.201087 L233.602221,216.171259 L233.653719,216.084202 L233.683,215.98642 L233.716899,215.922937 L233.78997,215.801188 L233.898869,215.663768 L234.019785,215.517349 L234.324608,215.215984 L234.546665,215.018172 L234.487531,214.971594 L234.426518,214.915493 L234.378567,214.86361 L234.33521,214.798886 L234.304343,214.740431 L234.279346,214.647275 L234.276599,214.61242 L234.287063,214.523752 L234.297044,214.489125 L234.331384,214.431243 L234.354591,214.402828 L234.440733,214.313515 L234.493981,214.24852 L234.532139,214.177452 L234.565458,214.106752 L234.590218,214.036722 L234.61824,213.899548 L234.626005,213.823183 L234.608692,213.605711 L234.55242,213.406992 L234.499752,213.281728 L234.466752,213.196452 L234.447452,213.114136 L234.441649,213.041237 L234.441649,212.967087 L234.474371,212.827935 L234.49609,212.757332 L234.522166,212.694455 L234.646311,212.433341 L234.686054,212.292831 L234.699738,212.224869 L234.706523,212.149796 L234.706507,212.074444 L234.681886,211.925237 L234.621689,211.719569 L234.523899,211.455569 L234.507763,211.389128 L234.483485,211.253597 L234.478172,211.187114 L234.47948,211.118507 L234.485692,211.051125 L234.502785,210.945831 L234.495837,210.85852 L234.476798,210.779409 L234.4613,210.744749 L234.418041,210.681218 L234.39767,210.655804 L234.342518,210.598035 L234.282518,210.554752 L233.942463,210.343044 L233.860433,210.267619 L233.817559,210.204063 L233.786872,210.138349 L233.776932,210.098016 L233.765537,210.029989 L233.748281,209.813327 L233.749098,209.663351 L233.756128,209.521362 L233.765496,209.234515 L233.766804,209.090956 L233.750684,208.949556 L233.744717,208.874662 L233.74954,208.798935 L233.762986,208.723338 L233.782629,208.654918 L233.888177,208.385973 L233.901657,208.324886 L233.914163,208.227602 L233.90885,208.16112 L233.899425,208.127196 L233.883371,208.094997 L233.867365,208.053929 L233.817951,207.983629 L233.749155,207.914433 L233.662286,207.839384 L233.54594,207.746883 L233.414946,207.620866 L233.284523,207.47385 L233.22194,207.398123 L233.163264,207.319673 L233.12115,207.24236 L233.07261,207.131286 L233.064158,207.090839 L233.058681,207.021954 L233.061134,206.987106 L233.07158,206.953649 L233.103869,206.888678 L233.133771,206.859741 L233.198978,206.813172 L233.242041,206.789654 L233.328354,206.749493 L233.394469,206.709692 L233.459635,206.662714 L233.56058,206.561768 L233.599278,206.51161 L233.679297,206.40182 L233.753488,206.294098 L233.8407,206.199463 L233.887695,206.1547 L233.946166,206.108245 L234.012469,206.070847 L234.086504,206.036482 L234.185717,206.007815 L234.266856,206.00152 L234.337629,206.010921 L234.370728,206.022054 L234.428455,206.051425 L234.456738,206.077428 L234.509978,206.120433 L234.595973,206.236248 L234.723395,206.416142 L234.772458,206.467935 L234.827659,206.516834 L234.854717,206.536886 L234.885861,206.546965 L234.919433,206.56409 L234.99579,206.573082 L235.034169,206.575371 L235.147319,206.566567 L235.189883,206.550782 L235.226864,206.540262 L235.256569,206.518207 L235.304251,206.472602 L235.321425,206.443861 L235.34254,206.389035 L235.34867,206.320452 L235.351319,206.034136 L235.359493,205.966608 L235.380305,205.908169 L235.396564,205.881929 L235.420123,205.857946 L235.450662,205.837027 L235.478684,205.812692 L235.516409,205.797259 L235.616937,205.77576 L235.672016,205.77151 L235.748153,205.772817 L235.811202,205.779193 L235.947796,205.810861 L236.202272,205.926063 L236.448877,206.064847 L236.579357,206.123204 L236.644401,206.145144 L236.710016,206.16021 L236.723177,206.193815 L236.730371,206.199292 L236.731433,206.21291 L236.746801,206.232635 L236.860932,206.005747 L236.951888,205.957984 L237.03194,205.938071 L237.101913,205.932594 L237.198869,205.964956 L237.226638,205.98455 L237.254022,206.008599 L237.279485,206.027564 L237.32903,206.085365 L237.465322,206.291973 L237.509896,206.362649 L237.559343,206.433357 L237.614561,206.491918 L237.676638,206.547136 L237.70976,206.572771 L237.775817,206.60752 L237.94358,206.649651 L238.071223,206.672368 L238.19952,206.68454 L238.326142,206.694431 L238.453777,206.698191 L238.578837,206.688463 L238.704869,206.672221 L238.821297,206.643422 L238.927654,206.60573 L238.969793,206.584722 L239.005638,206.559782 L239.03446,206.53136 L239.080335,206.472586 L239.091943,206.444286 L239.110826,206.375515 L239.108046,206.341076 L239.11148,206.300106 L239.098736,206.224534 L239.073011,206.145937 L239.010084,205.981183 L238.933147,205.809856 L238.870499,205.643866 L238.844708,205.564469 L238.831098,205.492191 L238.742708,204.382011 L238.90448,204.334771 L238.985079,204.30755 L239.071417,204.281899 L239.331436,204.621929 L239.50452,204.716866 L239.596441,204.601313 L239.620441,204.592174 L239.707196,204.571706 L239.851237,204.560499 L240.00624,204.569392 L240.149676,204.564651 L240.219272,204.559256 L240.27364,204.541322 L240.299308,204.534537 L240.323537,204.51894 L240.340589,204.502698 L240.369379,204.459774 L240.379866,204.431548 L240.384362,204.402995 L240.386815,204.362916 L240.368177,204.283763 L240.333616,204.1837 L240.307826,204.090193 L240.289351,204.003782 L240.291477,203.960499 L240.288452,203.922054 L240.291559,203.886341 L240.320512,203.774883 L240.35258,203.71194 L240.392627,203.655226 L240.438469,203.596052 L240.49206,203.544733 L240.551643,203.498188 L240.617921,203.460398 L240.678681,203.428665 L240.813918,203.377444 L240.876485,203.358872 L240.937662,203.346463 L240.997564,203.143943 L241.070185,202.941243 L241.030507,202.678362 L241.010782,202.585599 L240.939747,202.488365 L240.898597,202.437161 L240.860717,202.380071 L240.945289,202.15346 L240.970286,201.846463 L240.988728,201.683033 L241.027662,201.527678 L241.05306,201.45155 L241.079136,201.388673 L241.096319,201.35994 L241.119493,201.331134 L241.189768,201.263613 L241.250594,201.232706 L241.31921,201.214894 L241.357172,201.211951 L241.44042,201.218 L241.95194,201.320858 L242.216757,201.36836 L242.351488,201.38609 L242.489847,201.388215 L242.578809,201.381267 L242.659294,201.362131 L242.725924,201.328738 L242.845253,201.237643 L242.996341,201.084447 L243.043817,201.031591 L243.090902,200.988038 L243.175049,200.939572 L243.200161,200.930376 L243.230921,200.921548 L243.301262,200.916071 L243.331924,200.920158 L243.409711,200.942319 L243.495698,200.982774 L243.803529,200.63927 L243.938316,200.267311 L243.929774,200.159981 L243.981003,199.937981 L244.065935,199.875766 L244.094847,199.848537 L244.116223,199.811417 L244.138989,199.782243 L244.155698,199.747493 L244.166725,199.711984 L244.173019,199.644602 L244.167542,199.575708 L244.140371,199.469025 L244.108989,199.404169 L244.048,199.259008 L244.01612,199.192575 L243.992079,199.121106 L243.973196,199.053267 L243.965104,198.951937 L243.975796,198.916853 L243.987403,198.888545 L243.996199,198.853207 L244.025087,198.811469 L244.046676,198.767474 L244.075016,198.733027 L244.105368,198.709722 L244.128289,198.686989 L244.159597,198.670706 L244.220676,198.652281 L244.252687,198.649828 L244.346954,198.662662 L244.420507,198.692801 L244.48654,198.727158 L244.777793,198.895109 L244.857755,198.935229 L244.92942,198.965114 L245.037665,198.984112 L245.076207,198.988362 L245.161621,199.021583 L245.181003,199.03458 L245.200123,199.039567 L245.214608,199.052147 L245.311613,199.009943 L245.392785,198.989924 L245.48052,198.977065 L245.561659,198.970771 L245.65058,198.977556 L245.734466,198.991575 L245.902817,199.045779 L245.977049,199.089169 L246.121883,199.186706 L246.185136,199.242627 L246.283147,199.377659 L246.321052,199.449259 L246.346842,199.528657 L246.385589,199.6953 L246.409041,199.768828 L246.482986,199.893234 L246.583597,199.980913 L246.704234,200.052128 L246.960248,200.163177 L247.019005,200.190847 L247.138997,200.263313 L247.185861,200.301578 L247.249948,200.377583 L247.258123,200.405155 L247.273368,200.43661 L247.280316,200.463063 L247.305101,200.604602 L247.306,201.007101 L247.31885,201.168504 L247.337471,201.242409 L247.361578,201.314687 L247.375842,201.348226 L247.420319,201.412869 L247.447425,201.438161 L247.501401,201.481109 L247.561433,201.524801 L247.626984,201.55315 L247.693204,201.58991 L247.982431,201.708847 L248.047523,201.745698 L248.106346,201.78827 L248.162275,201.832272 L248.216561,201.888496 L248.238174,201.915431 L248.253052,201.946918 L248.276153,201.987831 L248.283591,202.019899 L248.299474,202.059365 L248.302744,202.100213 L248.314,202.147289 L248.310158,202.193531 L248.672561,202.526 L248.915905,202.487327 L249.002725,202.467668 L249.241515,202.517597 L249.350619,202.617913 L249.415899,202.652327 L249.482627,202.695496 L249.605063,202.793965 L249.664613,202.845749 L249.720796,202.902234 L249.776733,202.965177 L249.827537,203.02933 L249.906526,203.165433 L249.963264,203.31818 L249.974708,203.401125 L249.981084,203.480826 L249.98321,203.568913 L249.969559,203.651376 L249.964736,203.727504 L249.963346,203.809011 L249.969313,203.883905 L250.006433,204.03012 L250.036752,204.095866 L250.074158,204.161057 L250.116395,204.22588 L250.167191,204.290025 L250.276629,204.404016 L250.338256,204.453627 L250.404379,204.503286 L250.543924,204.58149 L250.615433,204.609373 L250.732401,204.648635 L250.776935,204.657643 L250.822826,204.660095 L250.854093,204.657643 L250.93488,204.632834 L250.950248,204.60948 L250.969213,204.589068 L250.979071,204.567349 L250.983649,204.539997 L250.999033,204.483995 L251.021054,204.285226 L251.033292,204.222619 L251.051586,204.193796 L251.077065,204.137409 L251.126316,204.092875 L251.155016,204.076935 L251.23609,204.055738 L251.336954,204.047891 L251.387643,204.058861 L251.445673,204.068057 L251.562485,204.119417 L251.701384,204.17067 L251.765243,204.191883 L251.829804,204.207807 L251.893213,204.209278 L251.925861,204.214837 L251.950531,204.204839 L251.981422,204.202469 L252.053905,204.157763 L252.077177,204.135005 L252.111003,204.070722 L252.141272,203.985349 L252.149725,203.931496 L252.159379,203.808243 L252.156354,203.685569 L252.152022,203.631504 L252.131292,203.545264 L252.100965,203.479518 L252.060297,203.43433 L252.032586,203.415537 L251.980172,203.392215 L251.94839,203.383395 L251.915708,203.37751 L251.852332,203.376365 L251.580485,203.391079 L251.511428,203.389199 L251.455319,203.380657 L251.421052,203.368812 L251.37454,203.344215 L251.348839,203.327278 L251.252839,203.245689 L251.14018,203.166602 L250.975793,203.021025 L250.933008,202.963501 L250.896215,202.905913 L250.868202,202.840796 L250.858335,202.806104 L250.849695,202.697564 L250.86024,202.608496 L250.892095,202.519379 L250.934627,202.418548 L251.002213,202.31255 L251.123357,202.159665 L251.181959,202.100703 L251.234905,202.055482 L251.336512,201.972218 L251.431163,201.905213 L251.521801,201.830057 L251.607436,201.734343 L251.647793,201.676796 L251.729717,201.520101 L251.7657,201.421787 L251.805681,201.345341 L251.827531,201.314221 L251.874657,201.271068 L251.904362,201.253837 L251.928828,201.245907 L251.961951,201.243292 L252.056283,201.256861 L252.095815,201.273529 L252.162714,201.309422 L252.23527,201.350531 L252.371847,201.476106 L252.440741,201.546512 L252.510117,201.622918 L252.622719,201.776556 L252.672706,201.854065 L252.710619,201.925673 L252.739989,201.965294 L252.760965,201.998319 L252.787817,202.029676 L252.848619,202.059602 L252.912943,202.06794 L252.948305,202.065161 L253.017967,202.046441 L253.085774,202.01376 L253.231123,201.934354 L253.369065,201.84182 L253.435319,201.808452 L253.50252,201.782278 L253.560583,201.777782 L253.617959,201.788245 L253.644052,201.800728 L253.6703,201.824866 L253.691717,201.849381 L253.763896,201.961035 L253.814455,202.031646 L253.862136,202.089594 L253.918114,202.138837 L254.03746,202.212569 L254.094313,202.235147 L254.154248,202.24942 L254.274223,202.255796 L254.393202,202.230823 L254.447896,202.207624 L254.502714,202.176365 L254.549946,202.144076 L254.633512,202.069477 L254.663357,202.053847 L254.699259,202.0297 L254.767131,202.011921 L254.800253,202.009305 L254.836188,202.013801 L254.876431,202.015926 L254.907174,202.021158 L254.939905,202.032316 L255.006117,202.06906 L255.071913,202.109883 L255.127687,202.161569 L255.176684,202.226662 L255.213984,202.290659 L255.244065,202.362864 L255.262826,202.44321 L255.268711,202.517302 L255.265278,202.559474 L255.248054,202.634965 L255.230332,202.670997 L255.135534,202.82103 L255.119128,202.864215 L255.101381,202.932488 L255.108902,203.027409 L255.131954,203.08646 L255.193875,203.163439 L255.281005,203.218305 L255.345436,203.246744 L255.493916,203.277087 L255.638324,203.265856 L255.70627,203.239624 L255.767684,203.206624 L255.797349,203.184144 L255.820728,203.162589 L255.877629,203.096507 L255.924248,203.032828 L255.962341,202.960959 L255.995717,202.891068 L256.033515,202.744665 L256.047272,202.668243 L256.061251,202.443905 L256.053894,202.286106 L256.030302,201.989736 L256.008779,201.40427 L255.986234,201.121125 L255.968937,200.979005 L255.93924,200.84591 L255.927567,200.765016 L255.930019,200.730569 L255.927403,200.698134 L255.931245,200.661962 L255.960812,200.558114 L255.988515,200.501556 L256.021057,200.444621 L256.066997,200.386649 L256.107354,200.329109 L256.291605,200.117311 L256.339033,200.059223 L256.377812,200.000597 L256.430365,199.87521 L256.473354,199.756616 L256.544569,199.620913 L256.573327,199.591673 L256.59646,199.562474 L256.626305,199.532744 L256.655545,199.50952 L256.686567,199.494635 L256.7787,199.466523 L256.809591,199.464153 L256.873098,199.46685 L256.937798,199.475123 L257.008155,199.488586 L257.26058,199.578153 L257.320196,199.602537 L257.416572,199.627681 L257.457992,199.644602 L257.544109,199.70076 L257.570381,199.724899 L257.613493,199.777158 L257.649174,199.834828 L257.698441,199.973646 L257.70991,200.047305 L257.722924,200.210703 L257.717038,200.36712 L257.697722,200.674886 L257.700256,200.790749 L257.707858,200.886463 L257.717128,200.918384 L257.746719,200.984188 L257.775771,201.029057 L257.796264,201.041973 L257.816905,201.061322 L257.888864,201.094804 L258.044856,201.144332 L258.117649,201.193068 L258.138657,201.212384 L258.180575,201.26394 L258.201886,201.296531 L258.217229,201.329196 L258.249035,201.41336 L258.270967,201.528921 L258.300616,201.656777 L258.316777,201.709109 L258.354886,201.787951 L258.382335,201.812817 L258.409204,201.830466 L258.46618,201.854654 L258.499785,201.858087 L258.531796,201.855635 L258.635471,201.826624 L259.057311,201.616902 L259.135237,201.584253 L259.223136,201.564112 L259.259986,201.561251 L259.298054,201.564357 L259.376831,201.584817 L259.421357,201.603104 L259.505782,201.623948 L259.576123,201.618471 L259.637136,201.599213 L259.662166,201.58436 L259.707305,201.53976 L259.75318,201.480978 L259.793774,201.416973 L259.824722,201.340011 L259.953706,201.050311 L259.986485,200.98691 L260.010877,200.964071 L260.027439,200.936572 L260.050466,200.920272 L260.099757,200.890256 L260.123054,200.882008 L260.193027,200.876531 L260.25794,200.896853 L260.317629,200.926869 L260.371441,200.977084 L260.421272,201.043322 L260.476752,201.105095 L260.577975,201.261635 L260.684422,201.408504 L260.746752,201.471757 L260.807864,201.52906 L260.840807,201.5523 L260.874125,201.57106 L260.913747,201.588929 L260.94691,201.600864 L261.02903,201.606913 L261.072583,201.603561 L261.116766,201.594095 L261.13251,201.415559 L261.158308,201.236237 L261.243493,201.120807 L261.328515,201.059793 L261.411272,201.012651 L261.497823,200.984973 L261.579477,200.97097 L261.667172,200.971787 L261.757278,200.979308 L261.937057,201.012463 L262.124627,201.05873 L262.214226,201.078757 L262.303629,201.091542 L262.493422,201.09048 L262.586643,201.075986 L262.722044,201.026801 L262.758313,201.016714 L262.82903,201.011237 L262.898594,201.019575 L262.96354,201.04033 L263.017106,201.078071 L263.071016,201.120218 L263.120659,201.179221 L263.163501,201.237545 L263.201038,201.309177 L263.262804,201.459512 L263.281523,201.534627 L263.307289,201.688575 L263.312602,201.755458 L263.311294,201.912692 L263.324962,201.99948 L263.343354,202.079858 L263.375504,202.159158 L263.455711,202.296381 L263.505191,202.353381 L263.559143,202.41003 L263.621332,202.46685 L263.689752,202.517139 L263.815948,202.601613 L264.08473,202.736662 L264.621142,202.940343 L264.69382,202.983046 L264.759403,203.025896 L264.848136,203.100782 L264.890602,203.159139 L264.921935,203.223594 L264.930559,203.256774 L264.936526,203.331668 L264.917708,203.414932 L264.901613,203.457292 L264.81454,203.633719 L264.788937,203.702605 L264.762992,203.781185 L264.724106,203.92767 L264.717975,204.001493 L264.717076,204.069668 L264.723044,204.144561 L264.748744,204.236858 L264.779774,204.297308 L264.801052,204.329098 L264.821398,204.354128 L264.876011,204.405079 L264.976343,204.465807 L265.099989,204.504144 L265.197755,204.556166 L265.225327,204.582635 L265.287608,204.65918 L265.326027,204.723087 L265.350493,204.790493 L265.368403,204.864864 L265.380959,204.938033 L265.387417,205.019335 L265.380877,205.257594 L265.347084,205.552787 L265.342752,205.648632 L265.34921,205.729526 L265.367602,205.809905 L265.392918,205.883286 L265.429196,205.948575 L265.473232,206.012441 L265.568905,206.127504 L265.783629,206.355005 L265.869861,206.478455 L265.907365,206.549687 L265.932673,206.623076 L265.942548,206.662207 L265.95888,206.655668 L266.068842,206.592717 L266.143311,206.573213 L266.179785,206.570351 L266.212302,206.574275 L266.246512,206.585327 L266.271395,206.596665 L266.297332,206.616807 L266.346215,206.666605 L266.390381,206.732082 L266.5523,207.025346 L266.595787,207.096512 L266.65085,207.153079 L266.713213,207.202616 L266.744929,207.219888 L266.81558,207.241812 L266.854956,207.247207 L266.898501,207.243856 L266.99782,207.221245 L267.08603,207.214379 L267.162763,207.223289 L267.189068,207.233719 L267.22161,207.252136 L267.24252,207.270251 L267.269488,207.289101 L267.319556,207.372259 L267.381223,207.497621 L267.43555,207.629605 L267.472948,207.694796 L267.535589,207.771324 L267.594673,207.807823 L267.628335,207.82615 L267.706033,207.847093 L267.750183,207.851343 L267.843975,207.844068 L267.889629,207.853019 L267.928098,207.856452 L267.967319,207.873954 L268.034046,207.917123 L268.062207,207.94154 L268.13209,208.038463 L268.169995,208.110063 L268.23373,208.275561 L268.289986,208.44124 L268.366441,208.592458 L268.386755,208.617079 L268.407796,208.650905 L268.435875,208.669673 L268.461689,208.69306 L268.527845,208.714918 L268.604586,208.72391 L268.711,208.729387 L268.807948,208.747624 L268.886823,208.783379 L268.954646,208.830905 L269.009692,208.896741 L269.031689,208.928482 L269.04767,208.969142 L269.068482,209.000172 L269.097992,209.121586 L269.100608,209.154831 L269.096766,209.195826 L269.099954,209.236281 L269.089883,209.269706 L269.08179,209.313447 L269.062131,209.381875 L269.022346,209.446624 L268.999572,209.475798 L268.975924,209.498589 L268.945417,209.519899 L268.91567,209.536722 L268.878787,209.5533 L268.804319,209.572804 L268.667823,209.603564 L268.638084,209.620387 L268.601014,209.634569 L268.577733,209.657327 L268.545787,209.674722 L268.530845,209.703708 L268.495474,209.753213 L268.485354,209.781406 L268.476183,209.816768 L268.456057,209.879188 L268.448782,209.947452 L268.447474,210.090619 L268.452134,210.233719 L268.452158,210.309071 L268.444065,210.376591 L268.431395,210.438431 L268.410951,210.501676 L268.437322,210.832886 L268.437322,210.914711 L268.430619,210.990586 L268.417172,211.066183 L268.377714,211.205466 L268.352308,211.276755 L268.326232,211.339632 L268.260845,211.473267 L268.019569,211.867207 L267.96548,211.973368 L267.927501,212.070218 L267.903657,212.161134 L267.891902,212.24385 L267.891084,212.324899 L267.897624,212.407003 L267.94636,212.53942 L267.982646,212.6047 L268.026232,212.662959 L268.122984,212.763431 L268.230354,212.851387 L268.465752,213.009177 L268.518534,213.060684 L268.574144,213.109959 L268.615973,213.160297 L268.658512,213.219447 L268.700872,213.271763 L268.760749,213.388804 L268.784774,213.455041 L268.808839,213.512809 L268.826986,213.580706 L268.839084,213.647875 L268.849834,213.782834 L268.848444,213.85024 L268.85433,213.924332 L268.873,213.999463 L268.886815,214.031834 L268.944959,214.122414 L268.994161,214.180649 L269.21545,214.401185 L269.262698,214.458357 L269.306888,214.524234 L269.327193,214.548864 L269.342504,214.58112 L269.361125,214.655025 L269.367093,214.729918 L269.36039,214.805793 L269.345144,214.854128 L269.308695,214.951665 L269.294741,215.020853 L269.28812,215.083027 L269.286485,215.226586 L269.297725,215.29261 L269.317188,215.367659 L269.340003,215.433185 L269.370877,215.491632 L269.406583,215.549703 L269.42742,215.576286 L269.455033,215.593886 L269.482515,215.619144 L269.535322,215.656935 L269.631959,215.690106 L269.715142,215.695338 L269.898264,215.68109 L269.935687,215.685422 L270.013474,215.707583 L270.074414,215.743959 L270.093845,215.762196 L270.115327,215.78752 L270.160662,215.87224 L270.169956,215.913831 L270.178474,216.020768 L270.179292,216.101327 L270.172425,216.184477 L270.141084,216.350523 L270.06946,216.641 L270.037221,216.795831 L270.03436,216.835542 L270.037139,216.869989 L270.054068,216.923057 L270.082229,216.961567 L270.122373,216.985861 L270.174452,216.995515 L270.262662,216.988649 L270.756428,216.840226 L270.918706,216.827605 L270.965578,216.837659 L271.003196,216.849251 L271.029526,216.860098 L271.064856,216.885161 L271.104248,216.928436 L271.119649,216.961894 L271.128706,216.995842 L271.145226,217.02921 L271.156973,217.101643 L271.185068,217.454482 L271.204311,217.541237 L271.229896,217.627093 L271.244733,217.66785 L271.268079,217.707136 L271.330425,217.775229 L271.364153,217.808466 L271.458403,217.868016 L271.499578,217.919629 L271.536534,217.979221 L271.567401,218.037668 L271.596902,218.10267 L271.614297,218.175463 L271.702,218.482158 L271.727251,218.554747 L271.75927,218.627613 L271.795376,218.700161 L271.839575,218.76603 L271.894605,218.822196 L271.955046,218.871095 L272.096161,218.968918 L272.247755,219.052632 L272.399218,219.129905 L272.477422,219.157272 L272.555316,219.171381 L272.625223,219.179229 L272.694313,219.181518 L272.725204,219.179147 L272.75661,219.16906 L272.848294,219.121232 L272.872106,219.100444 L272.917482,219.035253 L272.962253,218.96246 L273.027689,218.754267 L273.070891,218.661847 L273.09355,218.62664 L273.145687,218.561744 L273.20527,218.515215 L273.229499,218.499627 L273.291215,218.47991 L273.320995,218.477621 L273.404995,218.493234 L273.43815,218.505161 L273.517351,218.55903 L273.560463,218.611289 L273.602717,218.676104 L273.634638,218.747768 L273.660967,218.833975 L273.673965,218.922022 L273.676008,219.023409 L273.673065,219.070787 L273.676417,219.112436 L273.694858,219.184346 L273.710422,219.219807 L273.7737,219.309177 L273.799948,219.333341 L273.893619,219.394959 L273.960452,219.43006 L274.039294,219.465431 L274.365967,219.589117 L274.443256,219.623809 L274.584747,219.721599 L274.639899,219.779368 L274.694455,219.829534 L274.754896,219.878425 L274.821624,219.921594 L274.889373,219.963471 L275.253076,220.166482 L275.320286,220.215659 L275.374932,220.267019 L275.429823,220.330853 L275.473924,220.39552 L275.495308,220.433752 L275.51146,220.467153 L275.539629,220.599954 L275.549888,220.728815 L275.576014,220.883139 L275.625371,221.027997 L275.654594,221.103504 L275.724967,221.239469 L275.805109,221.375891 L275.890392,221.506272 L276.069281,221.758722 L276.192223,222.03285 L276.345183,222.274828 L276.677929,222.24894 L276.824014,222.263409 L276.88797,222.285831 L276.961196,222.307134 L277.026403,222.335916 L277.09188,222.372725 L277.212583,222.458842 L277.273744,222.507283 L277.327548,222.557499 L277.38382,222.615177 L277.432147,222.671866 L277.524706,222.794826 L277.60448,222.931272 L277.671935,223.068275 L277.863771,223.48333 L277.974583,223.685065 L278.072087,223.813689 L278.190534,223.942305 L278.259272,223.996599 L278.300177,224.035322 L278.334804,224.079782 L278.362711,224.124757 L278.386907,224.170019 L278.40964,224.225074 L278.459921,224.390817 L278.500948,224.50167 L278.525954,224.561785 L278.561488,224.627123 L278.604232,224.684237 L278.653441,224.742471 L278.720578,224.804948 L278.795463,224.86118 L278.948153,224.958512 L279.08818,225.042717 L279.231959,225.098834 L279.367678,225.128965 L279.430074,225.131744 L279.494095,225.126757 L279.555649,225.114324 L279.610695,225.095531 L279.672845,225.07176 L279.725283,225.034232 L279.786624,224.981507 L279.83849,224.922668 L279.859384,224.893632 L279.891084,224.877888 L279.914807,224.855875 L279.937899,224.840376 L279.970016,224.829798 L280.002019,224.827346 L280.025717,224.819065 L280.11521,224.833084 L280.180654,224.855392 L280.240245,224.884207 L280.349243,224.978482 L280.403095,225.033937 L280.452191,225.10024 L280.528613,225.236948 L280.552131,225.315708 L280.571267,225.396022 L280.583316,225.476891 L280.603213,225.726807 L280.614608,225.794826 L280.651441,225.928166 L280.675605,225.987136 L280.705826,226.046842 L280.762507,226.123837 L280.782436,226.143635 L280.809207,226.16009 L280.862757,226.197823 L280.928202,226.220131 L281.048496,226.230512 L281.143409,226.223155 L281.412477,226.187711 L281.55709,226.183706 L281.627267,226.185504 L281.697951,226.193711 L281.761401,226.209725 L281.827548,226.231583 L281.907935,226.286196 L281.92945,226.311929 L281.954986,226.33615 L281.977883,226.369828 L281.993226,226.402485 L282.024632,226.48185 L282.072395,226.771093 L282.097065,226.836471 L282.127973,226.909428 L282.202188,227.032608 L282.242831,227.091504 L282.29191,227.148136 L282.396444,227.261695 L282.504902,227.36327 L282.725708,227.577807 L282.801248,227.660989 L282.829777,227.699474 L282.845823,227.731665 L282.862719,227.78394 L282.857161,227.798883 L282.858305,227.813703 L282.852747,227.819343 L282.853728,227.831768 L282.83536,227.854951 L282.800676,227.885049 L282.776455,227.900646 L282.592907,227.989469 L282.508662,228.036708 L282.478311,228.060022 L282.46224,228.088673 L282.438869,228.110237 L282.417354,228.17439 L282.411142,228.256272 L282.421458,228.296572 L282.43842,228.349657 L282.491896,228.461556 L282.528109,228.526035 L282.558714,228.590548 L282.607082,228.722989 L282.650954,228.869482 L282.681518,229.018223 L282.787384,229.628155 L282.799262,229.716292 L282.805719,229.797594 L282.805719,229.947071 L282.786951,230.092395 L282.76488,230.229104 L282.737692,230.367431 L282.710798,230.580275 L282.70949,230.73751 L282.715948,230.818812 L282.716766,230.90058 L282.710553,230.982463 L282.698316,231.05918 L282.67085,231.128204 L282.594534,231.270349 L282.504346,231.407531 L282.189272,231.806008 L282.143365,231.878482 L282.105142,231.948757 L281.969905,231.999978 L281.954864,232.054747 L281.95658,232.07676 L281.949632,232.145401 L281.605131,232.028343 L281.520771,231.994199 L281.439796,231.946101 L281.292019,231.835093 L280.95073,231.499763 L280.875134,231.443989 L280.72864,231.353842 L280.605804,231.31624 L280.517692,231.310191 L280.428738,231.317139 L280.335959,231.337232 L280.296134,231.340338 L280.183253,231.329057 L280.144204,231.31839 L280.078082,231.282839 L279.950684,231.197237 L279.828926,231.09791 L279.770005,231.054136 L279.70873,231.018202 L279.683537,231.007665 L279.649866,230.98933 L279.553458,230.977886 L279.448507,231.004959 L279.376172,231.051283 L279.293725,231.125801 L279.021877,231.112297 L278.837856,231.270471 L278.509351,231.363733 L278.555144,231.938842 L278.571837,232.223654 L278.570937,232.372428 L278.563662,232.516452 L278.416948,232.738624 L278.545302,233.090106 L278.573807,233.448153 L278.567267,233.511929 L278.564488,233.721692 L278.569065,233.863591 L278.562608,233.933401 L278.561054,234.007673 L278.534447,234.139101 L278.507316,234.202869 L278.474757,234.259787 L278.399005,234.333782 L278.368082,234.349894 L278.301223,234.389752 L278.215041,234.417406 L278.177488,234.42558 L278.140515,234.440956 L278.074866,234.481926 L278.015602,234.532477 L277.910038,234.650703 L277.790185,234.871591 L277.706561,235.020749 L277.608894,235.158112 L277.557673,235.215692 L277.498507,235.267436 L277.431044,235.313793 L277.353215,235.347651 L277.154537,235.396959 L277.151839,235.363313 L277.097749,235.394131 L277.035861,235.425946 L276.912297,235.463768 L276.788749,235.487891 L276.402068,235.490507 L276.15642,235.509619 L276.08303,235.528632 L276.022204,235.559548 L275.95609,235.599341 L275.850493,235.703065 L275.792381,235.768035 L275.694403,235.892114 L275.590466,236.016659 L275.532044,236.068354 L275.470016,236.107837 L275.403714,236.145234 L275.336038,236.165409 L275.254899,236.171703 L275.171463,236.163202 L275.055428,236.356796 L274.953812,236.364725 L274.637749,236.600065 L274.269019,237.05833 L274.216548,237.109559 L274.103749,237.20739 L273.970335,237.272172 L273.895629,237.298158 L273.838401,237.313093 L273.858738,237.383777 L273.869422,237.517943 L273.85479,237.65448 L273.814294,237.780937 L273.781556,237.844738 L273.747959,237.902564 L273.709025,237.959188 L273.661548,238.012044 L273.548921,238.102608 L273.414935,238.160163 L273.340196,238.185717 L273.217678,238.222649 L273.082441,238.273877 L273.015755,238.30646 L272.893417,238.383275 L272.835052,238.435771 L272.729937,238.545496 L272.652395,238.681698 L272.627373,238.757793 L272.60854,238.841057 L272.603226,238.929725 L272.603218,239.033294 L272.605834,239.06573 L272.59627,239.161575 L272.576447,239.232431 L272.549594,239.294965 L272.476114,239.416338 L272.40355,239.544488 L272.372733,239.608943 L272.318144,239.741744 L272.30652,239.816793 L272.299327,239.886668 L272.308924,240.007199 L272.356817,240.133632 L272.385828,240.178117 L272.409003,240.22467 L272.477733,240.302343 L272.547248,240.371082 L272.627619,240.425678 L272.803376,240.507104 L273.150493,240.642905 L273.229842,240.684684 L273.297142,240.735063 L273.330591,240.764695 L273.385213,240.829763 L273.431504,240.907967 L273.447894,240.953834 L273.468313,241.055008 L273.480158,241.128635 L273.516101,241.27454 L273.541417,241.347929 L273.596488,241.479847 L273.657371,241.604875 L273.783812,241.847703 L273.838213,241.971218 L273.887054,242.104828 L273.940809,242.229602 L274.017812,242.33121 L274.079022,242.389714 L274.139692,242.432139 L274.213368,242.47315 L274.35718,242.543768 L274.502659,242.607005 L274.641599,242.6917 L274.703316,242.742512 L274.763692,242.804711 L274.815068,242.876065 L274.884215,243.034297 L274.942343,243.275188 L274.948801,243.35609 L274.948801,243.525766 L274.942589,243.608057 L274.906417,243.77448 L274.842109,243.921733 L274.796136,243.993406 L274.74512,244.058229 L274.686559,244.117591 L274.620755,244.170659 L274.561556,244.311471 L274.480172,244.535817 L274.486139,244.610711 L274.483687,244.679 L274.47633,244.746864 L274.417082,244.943294 L274.370014,245.062624 L274.30815,245.264098 L274.296428,245.333515 L274.296183,245.490692 L274.308232,245.571553 L274.336221,245.66448 L274.370022,245.797256 L274.395657,245.945163 L274.42582,246.093529 L274.463079,246.232076 L274.485379,246.291193 L274.515264,246.351332 L274.579049,246.428172 L274.598937,246.447578 L274.652684,246.482875 L274.749828,246.517632 L274.789793,246.520984 L274.870695,246.520984 L274.978262,246.512621 L275.105144,246.516463 L275.167891,246.523657 L275.304109,246.555357 L275.422646,246.614237 L275.496027,246.670174 L275.539409,246.721207 L275.569678,246.786144 L275.595452,246.893752 L275.59864,246.933807 L275.586158,247.078232 L275.578311,247.139294 L275.578311,247.207411 L275.584196,247.281496 L275.595174,247.349155 L275.664134,247.650864 L275.692531,247.790907 L275.703918,247.933886 L275.703918,248.001202 L275.685477,248.098943 L275.676779,248.125796 L275.660136,248.161346 L275.599213,248.261597 L275.559943,248.332755 L275.508559,248.472954 L275.467777,248.605084 L275.447381,248.744082 L275.437973,248.879809 L275.437155,249.016076 L275.42661,249.288104 L275.419662,249.351905 L275.406183,249.427101 L275.356172,249.59421 L275.325027,249.678038 L275.287948,249.762725 L275.244174,249.847935 L275.199256,249.918725 L275.146883,249.985264 L275.088591,250.043392 L275.058984,250.06664 L274.998248,250.098782 L274.967218,250.108837 L274.897989,250.114232 L274.865749,250.109082 L274.827877,250.099125 L274.754455,250.056488 L274.681319,249.994068 L274.549106,249.862109 L274.412422,249.735324 L274.270294,249.624684 L274.129891,249.512294 L273.988744,249.414063 L273.696477,249.247403 L273.546567,249.184918 L273.474796,249.149 L273.400278,249.106837 L273.333649,249.064869 L273.267469,249.014409 L273.212635,248.965485 L273.157482,248.907717 L273.109147,248.851027 L273.072232,248.791845 L273.041594,248.726932 L273.02388,248.659395 L273.014643,248.632714 L273.00933,248.566232 L273.015787,248.496422 L273.031114,248.434379 L273.047095,248.399687 L273.085678,248.333826 L273.138411,248.276531 L273.190916,248.21161 L273.230324,248.146886 L273.249477,248.076888 L273.256343,248.008256 L273.257978,247.940016 L273.232875,247.79851 L273.20952,247.726183 L273.079507,247.367973 L273.06024,247.295327 L273.050063,247.167569 L273.048019,247.057305 L273.033845,246.964117 L273.025049,246.924095 L272.979044,246.826125 L272.93706,246.773777 L272.916117,246.755237 L272.835681,246.699847 L272.778011,246.671687 L272.522807,246.57549 L272.456929,246.552406 L272.397534,246.516725 L272.344008,246.479384 L272.289624,246.43606 L272.249349,246.39124 L272.17551,246.343379 L272.141847,246.325044 L272.077793,246.31552 L272.052485,246.317482 L271.997798,246.336218 L271.920689,246.39782 L271.867613,246.455548 L271.821665,246.51352 L271.724946,246.643951 L271.672302,246.702455 L271.612621,246.747798 L271.581763,246.764711 L271.545191,246.780455 L271.478537,246.799322 L271.401894,246.791638 L271.356207,246.782286 L271.310193,246.764114 L271.264106,246.740294 L271.219278,246.722834 L271.148921,246.709371 L271.079324,246.714766 L271.048401,246.730877 L271.023869,246.737989 L270.975984,246.776368 L270.93552,246.827875 L270.85582,246.94167 L270.783926,247.078232 L270.692823,247.19452 L270.610572,247.262163 L270.579616,247.277875 L270.505515,247.297346 L270.417305,247.304213 L270.321371,247.284668 L270.275496,247.272921 L270.197839,247.23827 L270.129583,247.19 L270.094834,247.158046 L270.045992,247.094948 L269.996847,247.023422 L269.832469,246.722687 L269.789422,246.657128 L269.740548,246.593638 L269.713172,246.569589 L269.654193,246.525014 L269.580444,246.49248 L269.497817,246.470687 L269.446458,246.474692 L268.740828,246.502183 L268.535512,246.477447 L268.464992,246.461981 L268.288621,246.401131 L268.245109,246.390807 L268.20024,246.387046 L268.112774,246.393831 L268.068313,246.404564 L267.983014,246.438602 L267.891264,246.485638 L267.812896,246.540896 L267.578471,246.686875 L267.511842,246.720267 L267.44218,246.738962 L267.417975,246.740842 L267.393232,246.735937 L267.366158,246.725139 L267.339093,246.705087 L267.29679,246.648733 L267.265564,246.562109 L267.234828,246.434744 L267.219109,245.748079 L267.206529,245.67491 L267.203749,245.640471 L267.194962,245.614943 L267.181695,245.59382 L267.173193,245.576351 L267.158578,245.562169 L267.154899,245.562169 L267.147624,245.555466 L267.121204,245.55751 L267.109114,245.565692 L267.090272,245.573621 L267.068872,245.59624 L267.014471,245.660916 L266.90442,245.840335 L266.851948,245.905673 L266.806646,245.971657 L266.747414,246.022608 L266.634812,246.127681 L266.522455,246.217019 L266.282807,246.386777 L266.176237,246.482916 L266.12424,246.535322 L266.072275,246.592959 L266.031926,246.650916 L265.993629,246.71555 L265.972025,246.778084 L265.946324,246.916289 L265.944608,246.98452 L265.955946,247.126886 L265.988267,247.274278 L266.048676,247.567379 L266.065695,247.710725 L266.069128,247.824095 L266.066349,247.873877 L266.046894,247.94954 L266.014335,248.006458 L265.98991,248.028905 L265.966752,248.044011 L265.911158,248.07012 L265.880774,248.078924 L265.81094,248.090793 L265.741711,248.096188 L265.59046,248.101501 L265.514905,248.107387 L265.373684,248.144548 L265.306826,248.184406 L265.276981,248.214128 L265.253373,248.242174 L265.209444,248.320943 L264.914676,248.41924 L264.761332,248.402956 L264.611193,248.408188 L264.541662,248.42851 L264.472163,248.439946 L264.403678,248.445259 L264.333673,248.436193 L264.264305,248.435131 L264.064123,248.390262 L263.798798,248.308142 L263.663185,248.284035 L263.599262,248.276106 L263.529183,248.275289 L263.485057,248.271447 L263.404973,248.290975 L263.368401,248.306728 L263.308817,248.353272 L263.255226,248.404567 L263.209891,248.470158 L263.094264,248.68306 L263.054414,248.747008 L262.993531,248.83355 L262.96985,248.85594 L262.938354,248.878935 L262.908542,248.894956 L262.847807,248.912965 L262.772251,248.91885 L262.681131,248.89852 L262.570376,248.852736 L262.168613,248.651474 L262.102981,248.631578 L262.032379,248.614918 L261.955834,248.608379 L261.886768,248.606499 L261.811785,248.619602 L261.737226,248.637905 L261.663894,248.671812 L261.585371,248.725068 L261.508638,248.786654 L261.433499,248.87309 L261.391311,248.917076 L261.339477,248.962215 L261.238417,249.03818 L261.008553,249.185016 L260.901632,249.262649 L260.848384,249.313526 L260.76933,249.421232 L260.736044,249.492324 L260.70942,249.562501 L260.692286,249.652894 L260.688281,249.687455 L260.671613,249.722605 L260.661599,249.756831 L260.647196,249.792602 L260.630022,249.821351 L260.581744,249.878286 L260.553722,249.902621 L260.494687,249.946706 L260.427828,249.986564 L260.359425,250.011627 L260.2793,250.030763 L260.197621,250.044381 L260.116482,250.050676 L259.95064,250.037376 L259.867237,250.015248 L259.789065,249.988289 L259.716215,249.952853 L259.642785,249.910207 L259.594997,249.874436 L259.570817,249.862608 L259.550896,249.856886 L259.523962,249.852553 L259.506264,249.846668 L259.436668,249.852063 L259.328128,249.909267 L259.191485,250.027493 L259.090899,250.123575 L258.972722,250.229074 L258.835392,250.334057 L258.739507,250.404381 L258.669272,250.477142 L258.624649,250.542267 L258.602455,250.578651 L258.593455,250.611594 L258.576281,250.640327 L258.57203,250.676123 L258.558616,250.738019 L258.562948,250.792084 L258.560578,250.846673 L258.575357,250.94748 L258.572496,250.99606 L258.574621,251.022896 L258.563463,251.042695 L258.548651,251.086959 L258.537559,251.107559 L258.47245,251.159785 L258.405591,251.199643 L258.342992,251.217815 L258.274368,251.230796 L258.130327,251.242003 L257.832771,251.24421 L257.689441,251.269044 L257.627431,251.285155 L257.542875,251.333253 L257.513643,251.356477 L257.488907,251.379749 L257.466763,251.407248 L257.449049,251.443289 L257.427886,251.478381 L257.411929,251.513466 L257.396471,251.563837 L257.330267,251.832937 L257.290253,251.979504 L257.265256,252.056008 L257.233057,252.12661 L257.2,252.191245 L257.160755,252.248695 L257.119719,252.292992 L257.066708,252.337411 L257.041736,252.353057 L256.942556,252.382101 L256.91106,252.376869 L256.873466,252.379812 L256.790398,252.36652 L256.770698,252.509499 L256.60197,252.455327 L256.248215,252.23139 L255.92039,252.323785 L255.891019,252.354684 L255.83124,252.398817 L255.739678,252.448256 L255.602921,252.470997 L255.533962,252.47018 L255.398169,252.453357 L255.25761,252.423594 L255.053774,252.398744 L254.984169,252.404139 L254.920752,252.416719 L254.891455,252.425033 L254.860507,252.440744 L254.737237,252.477749 L254.585014,252.489586 L254.502248,252.489594 L254.426659,252.480962 L254.349534,252.467221 L254.214559,252.422916 L254.185736,252.404204 L254.146041,252.366602 L254.117054,252.32251 L254.108815,252.294136 L254.106689,252.266899 L254.110613,252.241191 L254.120529,252.205763 L254.137678,252.176629 L254.153234,252.141561 L254.182597,252.105831 L254.33961,251.937668 L254.368875,251.900736 L254.391166,251.865553 L254.406559,251.82849 L254.423357,251.794943 L254.428262,251.767158 L254.430305,251.731542 L254.428262,251.705499 L254.411422,251.644747 L254.331649,251.508283 L254.246905,251.39882 L254.209973,251.334798 L254.178158,251.269166 L254.169272,251.227951 L254.158785,251.194918 L254.151837,251.107608 L254.164956,251.018335 L254.180275,250.961531 L254.201512,250.913139 L254.23703,250.808826 L254.249864,250.72561 L254.244959,250.664335 L254.215155,250.619082 L254.194785,250.607768 L254.176147,250.594706 L254.150185,250.583826 L254.123185,250.578676 L254.060929,250.57745 L253.74642,250.601916 L253.663278,250.601948 L253.548411,250.589114 L253.510916,250.579134 L253.477752,250.567199 L253.424365,250.531444 L253.396916,250.506578 L253.354597,250.440553 L253.322635,250.368488 L253.304676,250.302995 L253.299199,250.234272 L253.300834,250.091106 L253.321678,249.948447 L253.327646,249.87746 L253.329444,249.810431 L253.31867,249.675063 L253.308861,249.641172 L253.294629,249.608025 L253.279123,249.582619 L253.264466,249.549104 L253.236272,249.524302 L253.215395,249.492471 L253.148839,249.442044 L253.074902,249.392989 L252.976956,249.362319 L252.912877,249.352428 L252.887937,249.35439 L252.776717,249.377956 L252.721237,249.400804 L252.435747,249.559223 L252.375616,249.58485 L252.308324,249.609823 L252.233275,249.622101 L252.155856,249.62815 L252.112916,249.625044 L252.028523,249.604624 L251.989,249.587956 L251.922845,249.552005 L251.862714,249.502289 L251.80833,249.444864 L251.764711,249.386196 L251.631608,249.219643 L251.590286,249.175714 L251.563384,249.157632 L251.536924,249.145183 L251.51039,249.127076 L251.453202,249.118984 L251.382485,249.12446 L251.346142,249.133722 L251.302907,249.15039 L251.158907,249.237349 L251.073109,249.28391 L251.030643,249.300921 L250.993253,249.311098 L250.930351,249.316003 L250.897768,249.311262 L250.86579,249.300038 L250.80691,249.270766 L250.70433,249.177193 L250.654793,249.119392 L250.555801,248.990891 L250.507875,248.934578 L250.44673,248.876866 L250.385684,248.834474 L250.353134,248.816057 L250.312826,248.799022 L250.275951,248.787373 L250.236215,248.777564 L250.192098,248.773722 L250.10388,248.780589 L250.059052,248.791346 L250.022807,248.801809 L249.986136,248.816335 L249.925474,248.84927 L249.871809,248.894948 L249.819272,248.945376 L249.779659,249.002866 L249.69288,249.112379 L249.654011,249.169796 L249.606477,249.221858 L249.55461,249.266589 L249.499368,249.297095 L249.462886,249.314041 L249.394335,249.332654 L249.35079,249.336005 L249.262065,249.336823 L249.152847,249.324373 L249.049131,249.291749 L249.010213,249.268599 L248.969847,249.250787 L248.915798,249.192937 L248.888349,249.168071 L248.872777,249.14188 L248.819079,249.017507 L248.785335,248.82912 L248.776548,248.803599 L248.761744,248.777752 L248.754387,248.756163 L248.725924,248.71848 L248.706207,248.706308 L248.653809,248.683403 L248.621798,248.685856 L248.582954,248.682422 L248.491531,248.695967 L248.372708,248.732213 L248.279864,248.765613 L248.238068,248.791019 L248.208371,248.813074 L248.179646,248.842714 L248.149196,248.864826 L248.125687,248.894057 L248.109248,248.922733 L248.082861,248.986444 L248.071662,249.090071 L248.080311,249.19861 L248.098262,249.264112 L248.124689,249.337411 L248.154698,249.408414 L248.191041,249.474496 L248.27088,249.597643 L248.384022,249.75809 L248.415354,249.817714 L248.437351,249.877657 L248.45652,249.94427 L248.468046,250.004221 L248.478853,250.139989 L248.478035,250.215406 L248.433281,250.782251 L248.432463,250.845561 L248.391771,251.044575 L248.305793,251.309973 L248.27133,251.441605 L248.251098,251.512093 L248.231725,251.725559 L248.23761,251.799651 L248.260294,251.938935 L248.272343,252.090316 L248.272343,252.164441 L248.265559,252.239523 L248.252112,252.31512 L248.238052,252.383106 L248.213872,252.460346 L248.185989,252.524163 L248.148477,252.589142 L248.101351,252.646411 L248.049689,252.698384 L247.995902,252.74246 L247.921768,252.775632 L247.847929,252.803131 L247.760292,252.817215 L247.716747,252.820567 L247.643332,252.83918 L247.611191,252.85418 L247.528229,252.922289 L247.467052,253.010065 L247.43312,253.073147 L247.348793,253.284014 L247.282866,253.410847 L247.213319,253.492011 L247.183482,253.50764 L247.154185,253.530087 L247.122747,253.539798 L247.085872,253.556376 L246.947782,253.567117 L246.884275,253.56442 L246.822722,253.576853 L246.69794,253.613564 L246.434569,253.715866 L246.372853,253.735575 L246.304948,253.752962 L246.242046,253.757866 L246.139989,253.746095 L246.041766,253.711853 L245.913918,253.606559 L245.850902,253.530063 L245.828733,253.491488 L245.812793,253.451221 L245.796338,253.418646 L245.778828,253.344651 L245.772861,253.269757 L245.774986,253.235744 L245.786112,253.201428 L245.790199,253.167668 L245.848785,253.033346 L245.941752,252.91691 L245.993283,252.858496 L246.050529,252.80609 L246.164986,252.714978 L246.273354,252.646101 L246.327926,252.607199 L246.409629,252.532738 L246.43909,252.49821 L246.460711,252.454624 L246.483281,252.418207 L246.501796,252.335768 L246.504493,252.294856 L246.498035,252.213553 L246.488267,252.165962 L246.473619,252.127608 L246.406891,252.009087 L246.355752,251.931259 L246.218185,251.793259 L246.149896,251.730471 L246.008921,251.624973 L245.942798,251.589422 L245.753193,251.503428 L245.615341,251.451283 L245.472649,251.408793 L245.331371,251.37948 L245.043011,251.332608 L244.896264,251.323853 L244.756654,251.320174 L244.635305,251.310676 L244.591793,251.30036 L244.545469,251.283014 L244.472619,251.247561 L244.446869,251.229823 L244.403766,251.177564 L244.380395,251.118929 L244.371035,251.086215 L244.358839,251.017845 L244.360229,250.950447 L244.355569,250.807346 L244.350174,250.739662 L244.338649,250.679711 L244.322267,250.619335 L244.30752,250.593888 L244.28594,250.567354 L244.232439,250.530398 L244.199986,250.513183 L244.116199,250.486256 L244.069302,250.461692 L244.030114,250.444567 L243.99597,250.420223 L243.934858,250.362921 L243.879281,250.299946 L243.791995,250.158447 L243.722651,249.997812 L243.653569,249.854482 L243.61654,249.789259 L243.546093,249.699243 L243.514172,249.674719 L243.452005,249.632409 L243.374218,249.610272 L243.329962,249.600005 L243.285436,249.595837 L243.22215,249.595837 L243.152553,249.601232 L243.008896,249.617237 L242.716008,249.668638 L242.576431,249.679493 L242.438005,249.67655 L242.379493,249.661362 L242.314425,249.639022 L242.208068,249.573161 L242.115649,249.456635 L242.022068,249.306749 L241.83091,248.975466 L241.782518,248.903875 L241.733349,248.846041 L241.684965,248.802651 L241.638673,248.771597 L241.612793,248.766365 L241.56924,248.769717 L241.52048,248.801719 L241.496193,248.830608 L241.453065,248.909728 L241.404395,249.008613 L241.347902,249.094011 L241.295365,249.158548 L241.243932,249.218155 L241.129744,249.289101 L241.067283,249.313698 L241.012441,249.330439 L240.893308,249.353409 L240.768248,249.363144 L240.58658,249.390954 L240.526548,249.417782 L240.401766,249.454477 L240.283646,249.476131 L240.221864,249.480954 L240.093951,249.47842 L240.02997,249.469689 L239.895779,249.444668 L239.751959,249.402259 L239.602531,249.345782 L239.434204,249.277493 L239.40145,249.280027 L239.319796,249.280027 L239.165332,249.263801 L239.018038,249.234169 L238.946913,249.206253 L238.80364,249.156553 L238.670921,249.084267 L238.538071,249.00554 L238.410763,248.921147 L238.297401,248.828417 L238.222891,248.772161 L238.141335,248.716845 L237.981984,248.620444 L237.651943,248.449869 L237.500144,248.358913 L237.369861,248.246548 L237.30776,248.17682 L237.259368,248.105237 L237.220981,248.027621 L237.187507,247.941169 L237.122807,247.688302 L236.863237,247.598482 L236.721689,247.556294 L236.579774,247.518978 L236.436975,247.489387 L236.296997,247.471665 L236.228136,247.472482 L236.089678,247.483256 L236.019338,247.493556 L235.723343,247.585894 L235.379995,247.469147 L235.237131,247.424646 L235.100651,247.375624 L234.838237,247.259433 L234.700858,247.208458 L234.565368,247.171845 L234.495322,247.157556 L234.424163,247.148172 L234.210526,247.164798 L234.178172,247.153608 L234.139262,247.149357 L234.074463,247.120951 L234.002381,247.08585 L233.867357,246.989163 L233.739542,246.889101 L233.678807,246.845866 L233.612169,246.803907 L233.547272,246.7743 L233.514174,246.763166 L233.450193,246.754501 L233.419294,246.756872 L233.356368,246.775477 L233.320973,246.791932 L233.290564,246.814469 L233.255913,246.844975 L233.019943,247.136147 L232.884812,247.282869 L232.819932,247.347553 L232.748717,247.407896 L232.677559,247.45494 L232.603057,247.488153 L232.573785,247.496866 L232.503068,247.502343 L232.472414,247.498256 L232.439259,247.486322 L232.406766,247.468681 L232.372687,247.445155 L232.344943,247.411845 L232.31648,247.374169 L232.294515,247.328728 L232.246008,247.208785 L232.223128,247.142466 L232.211504,247.081305 L232.194877,246.947605 L232.172815,246.67046 L232.154749,246.528406 L232.142643,246.461245 L232.125796,246.395262 L232.076831,246.269311 L232.040553,246.20403 L231.996689,246.146989 L231.907891,246.057185 L231.829155,246.008916 L231.757041,245.98754 L231.694139,245.992444 L231.657125,246.002597 L231.627379,246.01942 L231.596872,246.04073 L231.514989,246.12245 L231.462583,246.188589 L231.309305,246.403608 L231.257471,246.462856 L231.19833,246.515 L231.174109,246.530597 L231.14352,246.546275 L231.113954,246.555847 L231.055883,246.560343 L231.024967,246.548237 L230.99079,246.537619 L230.958232,246.519202 L230.938409,246.500597 L230.911597,246.483749 L230.868501,246.43149 L230.840014,246.379305 L230.804888,246.253084 L230.791629,246.185204 L230.785744,246.111112 L230.780594,245.947902 L230.78648,245.791493 L230.780839,245.635984 L230.76888,245.485796 L230.742076,245.39358 L230.710049,245.306196 L230.66612,245.234262 L230.617213,245.170362 L230.56215,245.113796 L230.501005,245.070202 L230.434981,245.035845 L230.36433,245.013937 L230.292975,244.997335 L230.223191,244.991123 L230.148011,244.997008 L230.079223,245.008019 L230.011286,245.034251 L229.949807,245.066441 L229.890771,245.110526 L229.838864,245.164125 L229.746599,245.204752 L229.617232,245.329665 L229.49361,245.442038 L229.300589,245.096793 L228.915052,244.840673 L228.869071,244.836995 L228.832221,244.839856 L228.76479,244.858403 L228.697589,244.884586 L228.636215,244.922801 L228.529572,245.013308 L228.430482,245.123376 L228.331278,245.227403 L228.279117,245.277798 L228.224602,245.317501 L228.133907,245.36367 L228.094654,245.373995 L227.989327,245.382185 L227.951161,245.377853 L227.843717,245.373684 L227.754763,245.380632 L227.723978,245.38906 L227.664362,245.421112 L227.62291,245.465033 L227.611809,245.485632 L227.59179,245.550087 L227.578368,245.611984 L227.577305,245.687425 L227.595305,245.99833 L227.596123,246.074858 L227.594896,246.149098 L227.587131,246.183153 L227.55539,246.273888 L227.515662,246.32533 L227.461335,246.376706 L227.324537,246.483659 L227.176458,246.603986 L227.034256,246.723046 L226.976406,246.781943 L226.928537,246.83927 L226.912139,246.868747 L226.903335,246.904093 L226.892104,246.932368 L226.888262,246.959662 L226.905689,247.019155 L226.921262,247.045346 L226.942123,247.071929 L226.975736,247.094311 L227.015422,247.12709 L227.120496,247.172114 L227.244174,247.210845 L227.373199,247.241507 L227.635638,247.282747 L227.904371,247.323095 L228.038839,247.346891 L228.174362,247.383896 L228.240003,247.399338 L228.302872,247.40815 L228.442106,247.411828 L228.517025,247.397932 L228.727817,247.340826 L228.868098,247.282362 L229.002248,247.217523 L229.257297,247.081215 L229.318638,247.056708 L229.386035,247.037752 L229.454324,247.025204 L229.530452,247.026512 L229.607831,247.034196 L229.672302,247.048926 L229.738319,247.078444 L229.818689,247.133057 L229.860526,247.183395 L229.869534,247.211711 L229.883063,247.236063 L229.891817,247.270845 L229.888466,247.303747 L229.891245,247.338185 L229.873025,247.414959 L229.828507,247.500226 L229.760643,247.593357 L229.673292,247.695659 L229.543441,247.814564 L229.484275,247.866316 L229.357826,247.952719 L229.291417,247.984093 L229.230076,248.008608 L229.169005,248.027065 L229.112635,248.038714 L229.047657,248.031684 L228.990272,248.021221 L228.957183,248.010087 L228.871817,247.963526 L228.818292,247.912084 L228.762559,247.847106 L228.711518,247.77048 L228.676834,247.725226 L228.620144,247.662332 L228.553989,247.62639 L228.496638,247.616417 L228.465747,247.618787 L228.403997,247.638104 L228.366003,247.654763 L228.278643,247.728847 L228.212807,247.795632 L228.086341,247.942886 L227.966349,248.100921 L227.850673,248.247332 L227.799796,248.30448 L227.751591,248.348131 L227.642839,248.412202 L227.525161,248.448766 L227.398989,248.458583 L227.267839,248.462343 L226.999687,248.434035 L226.871545,248.423834 L226.695248,248.42506 L226.644493,248.422608 L226.598684,248.411662 L226.52755,248.383747 L226.47185,248.333286 L226.436079,248.274414 L226.395698,248.162302 L226.321703,247.853736 L226.296967,247.787556 L226.28061,247.756191 L226.239738,247.70376 L226.212771,247.684902 L226.179297,247.668978 L226.147319,247.657755 L226.065101,247.650398 L226.013733,247.654403 L225.958041,247.665169 L225.851594,247.67345 L225.818332,247.669608 L225.760466,247.653161 L225.701292,247.629561 L225.484409,247.511433 L225.423804,247.488741 L225.400155,247.483346 L225.342191,247.475008 L225.278177,247.479995 L225.241834,247.489256 L225.174403,247.521921 L225.095365,247.568768 L225.013564,247.642027 L224.927422,247.745441 L224.80618,247.897125 L224.516488,248.308534 L224.425114,248.430896 L224.320098,248.541823 L224.266744,248.586676 L224.200294,248.631741 L224.067322,248.711401 L224.031837,248.726629 L223.999286,248.736431 L223.867899,248.746657 L223.732924,248.71646 L223.666531,248.686967 L223.534392,248.621891 L223.278599,248.485436 L223.212444,248.463586 L223.154079,248.440722 L223.063556,248.42797 L223.007357,248.432302 L222.952302,248.45112 L222.921281,248.466038 L222.868368,248.497559 L222.807665,248.544185 L222.582076,248.730586 L222.52188,248.76952 L222.461153,248.801646 L222.40045,248.820071 L222.331589,248.825466 L222.298327,248.821624 L222.193572,248.780605 L222.120371,248.726646 L222.008725,248.599125 L221.972921,248.539853 L221.905196,248.408916 L221.832771,248.284787 L221.796011,248.227608 L221.754117,248.176469 L221.700076,248.132719 L221.672463,248.119951 L221.614564,248.098256 L221.543913,248.090409 L221.507537,248.099278 L221.463248,248.102711 L221.322665,248.162008 L221.214019,248.23212 L221.088469,248.329738 L220.93582,248.463308 L220.82536,248.581109 L220.681033,248.762801 L220.645065,248.800256 L220.562218,248.860305 L220.451872,248.904349 L220.383526,248.916104 L220.295725,248.928169 L220.201932,248.935444 L220.119264,248.93667 L220.042932,248.928104 L219.965202,248.906744 L219.820278,248.836215 L219.75364,248.794256 L219.693134,248.744556 L219.64291,248.687613 L219.586458,248.604144 L219.555722,248.53803 L219.54682,248.510916 L219.541997,248.450041 L219.550907,248.387695 L219.570796,248.331733 L219.639877,248.244553 L219.676654,248.221951 L219.735076,248.170256 L219.787997,248.110534 L219.832221,248.045033 L219.860046,247.975975 L219.878856,247.906403 L219.892817,247.837215 L219.893635,247.762608 L219.884128,247.727883 L219.882084,247.701839 L219.873485,247.66906 L219.857439,247.636861 L219.849223,247.608888 L219.812431,247.551316 L219.786583,247.532376 L219.76506,247.506651 L219.711689,247.471305 L219.64658,247.448556 L219.531436,247.436989 L219.444076,247.449823 L219.401104,247.460433 L219.364597,247.476986 L219.291722,247.516501 L219.22591,247.569578 L219.160523,247.627861 L218.93415,247.884431 L218.822463,247.98218 L218.766738,248.006687 L218.704924,248.025202 L218.642054,248.01639 L218.608965,248.005256 L218.576471,247.98764 L218.54227,247.962496 L218.508698,247.931253 L218.437629,247.847728 L218.395899,247.789313 L218.333349,247.652736 L218.297856,247.493907 C218.039537,247.749798 217.694112,247.861452 217.293608,247.67479 L217.242,247.794701 C217.232492,247.816788 217.222967,247.837199 217.214079,247.851839 C217.015973,247.87154 216.895834,248.004488 216.685,248.008248 C216.69606,248.538545 216.897011,249.091771 216.542831,249.402332 C216.217131,249.688681 215.616853,249.363381 215.697951,250.150297 C215.506932,250.124384 215.171619,249.961109 214.970136,250.044921 C214.691872,250.159926 214.799046,250.417575 214.629951,250.532392 C214.056199,250.921738 213.881071,250.335095 213.313499,250.423248 C213.271196,250.123681 213.345174,249.475411 213.188766,249.223616 C213.064646,249.023499 212.753929,249.079861 212.694861,248.989223 C212.580869,248.813817 212.649559,248.678401 212.580052,248.487986 L212.382674,247.95785 C212.218801,247.548044 212.10529,247.440557 211.590787,247.107373 C212.705447,245.856439 211.38691,244.428054 210.066845,244.307564 L210.158817,243.982554 C210.289271,243.543569 210.474879,243.11572 211.00197,243.103256 C211.185477,242.349136 211.12497,241.908512 211.577896,241.225714 C211.952815,240.66218 212.628714,240.110605 212.806123,239.380027 C212.903937,238.980488 212.787191,238.519166 212.865837,238.08867 C212.968646,237.532632 213.108027,237.62967 213.474869,237.346559 C214.027213,236.919986 214.621777,236.30354 214.292202,235.551782 C214.082864,235.602668 213.933093,235.482275 213.744975,235.480313 C213.558322,235.130008 213.457621,234.708185 213.551292,234.284834 C213.593749,234.094828 213.764529,233.842837 213.829785,233.65749 C213.921616,233.392559 213.727196,233.336589 214.024858,233.186548 C213.610401,232.54279 213.235654,232.900256 213.128234,231.967583 L213.082339,231.586356 C213.006408,231.032777 212.90074,230.870305 212.277255,230.830599 L212.14551,230.824215 C211.425787,230.798662 211.206886,230.595373 210.685948,230.070153 C210.317171,229.699006 210.052431,229.627909 209.635773,229.471579 L209.370289,229.36897 L209.370289,229.36897 C209.367624,229.272872 209.320646,229.149439 209.318847,229.052204 C208.942123,229.117183 208.552548,228.625861 208.24667,228.403403 C207.757736,228.048447 207.838499,227.986616 207.568605,227.445888 C207.202515,227.434665 206.861929,227.377166 206.52758,227.23552 C206.549643,226.74236 205.439022,226.151907 206.147005,225.870422 C206.268583,224.867621 205.548583,224.912025 204.943711,224.82603 C204.226924,224.724594 204.049057,224.265954 203.34651,223.989578 C203.457125,223.825926 203.508134,223.571507 203.603872,223.402567 C203.289665,223.016049 203.075635,222.336054 202.568717,222.315676 C202.492629,221.738948 202.89373,221.68597 202.936621,220.991074 C202.967586,220.509569 202.492907,219.576136 203.39173,219.722155 C203.547902,218.931537 202.597278,219.271657 202.722403,218.545142 C202.790586,218.152215 203.184199,217.644766 203.274084,217.233251 C203.158719,217.215128 203.083793,217.151842 202.968747,217.137725 C203.034837,216.915831 202.812338,216.997771 202.985463,216.849104 C202.750826,216.532035 202.654286,216.554245 202.629787,216.111921 C203.295183,215.93112 203.761384,216.565354 204.444845,216.51433 L204.604109,216.495629 C205.039794,216.434514 205.991769,216.246018 206.042373,216.056785 L206.256018,216.01552 C206.332683,216.002138 206.412016,215.991532 206.485678,215.990919 L206.590875,215.998395 L206.864619,215.89006 L206.855365,215.698559 L206.855365,215.698559 L206.902744,215.696188 L206.893302,215.577635 L206.806548,215.038354 L206.794687,214.889368 L206.808747,214.745621 L206.82718,214.676082 L206.854311,214.612322 L206.893556,214.554864 L206.997518,214.430719 L207.048771,214.359439 L207.094368,214.287782 L207.208401,214.054861 L207.27091,213.899278 L207.335414,213.745158 L207.405673,213.597447 L207.45118,213.524597 L207.501992,213.45254 L207.553817,213.38846 L207.619106,213.328975 L207.67864,213.126488 L207.715744,213.028093 L207.750142,212.923869 L207.82152,212.550398 L207.831207,212.427537 L207.848431,212.324245 L207.879828,212.252891 L207.920725,212.202161 L207.944005,212.179403 L207.975542,212.17091 L207.999861,212.156548 L208.030278,212.148144 L208.09251,212.134853 L208.163243,212.129376 L208.306801,212.112177 L208.375082,212.099589 L208.448676,212.073725 L208.484749,212.056403 L208.514725,212.033123 L208.551191,212.011346 L208.614698,211.94354 L208.643553,211.901401 L208.671828,211.85206 L208.69842,211.795583 L208.756155,211.641185 L208.798875,211.481507 L208.884338,211.18149 L208.96148,210.889779 L209.013665,210.750316 L209.072905,210.614744 L209.118395,210.489905 L209.140621,210.43982 L209.149613,210.392777 L209.152474,210.344597 L209.147079,210.276512 L209.130967,210.243512 L209.103109,210.19933 L209.076616,210.18648 L209.050049,210.167997 L209.022542,210.156431 L208.914493,210.144659 L208.305853,210.204905 L208.183899,210.187787 L208.074134,210.140311 L207.973899,210.080809 L207.873027,210.013305 L207.771738,209.940586 L207.659324,209.873973 L207.599267,209.843989 L207.534902,209.81636 L207.399109,209.771311 L207.289646,209.746379 L207.197946,209.718856 L207.125872,209.683763 L207.06682,209.647657 L207.017815,209.610766 L206.97812,209.573155 L206.918455,209.482289 L206.841215,209.283586 L206.817657,209.232226 L206.786921,209.180221 L206.751632,209.127349 L206.709223,209.069801 L206.2253,208.617431 L206.169534,208.552052 L206.12079,208.490155 L206.076657,208.425087 L206.014997,208.285616 L205.99533,208.212594 L205.988954,208.132093 L205.988136,207.948398 L205.980534,207.853477 L205.955455,207.773621 L205.924311,207.7023 L205.887248,207.636684 L205.843213,207.572809 L205.745962,207.456659 L205.642981,207.348619 L205.545485,207.234095 L205.508177,207.170106 L205.471973,207.096357 L205.445913,207.023025 L205.434117,206.93609 L205.397381,206.803951 L205.37312,206.743779 L205.196316,206.423466 L205.135351,206.292815 L205.09927,206.159417 L205.093875,206.091725 L205.104256,205.986954 L205.146052,205.87691 L205.318899,205.503202 L205.375327,205.416986 L205.403545,205.366837 L205.436193,205.315943 L205.491215,205.136768 L205.608019,205.084559 L205.643308,205.062071 L205.674436,205.039101 L205.69703,205.017169 L205.74297,204.95918 L205.760218,204.931232 L205.789441,204.83264 L205.803346,204.762659 L205.81179,204.694706 L205.776019,204.104302 L205.764158,203.955316 L205.74633,203.801956 L205.69649,203.491109 L205.696981,203.342376 L205.704256,203.273703 L205.724749,203.211275 L205.774008,203.124431 L205.820529,203.073684 L205.85088,203.050371 L205.887191,203.026599 L205.923052,203.011338 L205.978907,202.993281 L206.042079,202.982335 L206.104237,202.977512 L206.180267,202.977512 L206.327087,202.987035 L206.471406,202.98867 L206.541003,202.983275 L206.66473,202.947439 L206.689703,202.931793 L206.729929,202.886736 L206.753774,202.866349 L206.779785,202.80267 L206.7897,202.767243 L206.793215,202.726272 L206.796567,202.534215 L206.800654,202.496016 L206.817837,202.410864 L206.827752,202.375436 L206.844935,202.346695 L206.861643,202.311946 L206.884785,202.282747 L206.953834,202.209275 L207.074349,202.133008 L207.142286,202.106768 L207.21006,202.087787 L207.353046,202.063362 L207.493678,202.065733 L207.563251,202.07403 L207.62706,202.090011 L207.785798,202.089193 L207.875422,202.090665 L207.964343,202.09745 L208.006139,201.841534 L208.026379,201.691256 L208.017575,201.665335 L208.026403,201.60258 L208.045883,201.532158 L208.060638,201.496354 L208.10782,201.425793 L208.158771,201.360169 L208.222785,201.293932 L208.287338,201.234512 L208.353616,201.187444 L208.42067,201.149989 L208.474605,201.131262 L208.531548,201.126847 L208.564711,201.138864 L208.572804,201.150708 L208.592602,201.168905 L208.608534,201.223281 L208.615564,201.311793 L208.608289,201.365956 L208.581379,201.503041 L208.519253,201.766992 L208.511815,201.829223 L208.518599,201.84361 L208.51958,201.856011 L208.526283,201.855193 L208.527101,201.861569 L208.533068,201.860752 L208.540343,201.853722 L208.546311,201.852905 L208.564678,201.839 L208.791779,201.535223 L208.861605,201.447986 L208.931774,201.374425 L209.030128,201.278531 L209.10351,201.245409 L209.135692,201.235665 L209.166583,201.233294 L209.198422,201.238035 L209.256223,201.253689 L209.315373,201.262796 L209.377155,201.257973 L209.434956,201.259526 L209.678267,201.234561 L209.742387,201.235624 L209.806376,201.244354 L209.930422,201.283052 L209.99594,201.325109 L210.058302,201.374654 L210.118842,201.438856 L210.189845,201.52158 L210.204575,201.546619 L210.231166,201.565501 L210.271237,201.603071 L210.298376,201.61467 L210.381477,201.628322 L210.444861,201.629466 L210.507763,201.624561 L210.787106,201.562943 L210.93046,201.538485 L211.070749,201.541264 L211.167191,201.567177 L211.199741,201.585594 L211.202929,201.626049 L211.540556,201.647335 L211.584477,201.643902 L211.651875,201.624978 L211.701166,201.59497 L211.718766,201.571444 L211.739234,201.522708 L211.744384,201.502567 L211.748308,201.467597 L211.743485,201.407123 L211.706079,201.266572 L211.681875,201.193101 L211.625414,201.04839 L211.600196,200.976202 L211.583169,200.908215 L211.570785,200.827779 L211.574545,200.800084 L211.574545,200.656608 L211.568659,200.582515 L211.533436,200.361202 L211.496774,200.220594 L211.467076,200.087507 L211.454504,200.014338 L211.449027,199.945452 L211.450907,199.815136 L211.464706,199.753207 L211.485943,199.690706 L211.506313,199.640768 L211.528123,199.599578 L211.551804,199.563079 L211.573458,199.533995 L211.603302,199.504264 L211.628643,199.488586 L211.689371,199.470561 L211.746322,199.466147 L211.779411,199.477281 L211.810883,199.482104 L211.883128,199.509929 L211.949823,199.552698 L212.090635,199.656185 L212.238886,199.768371 L212.37888,199.866283 L212.444798,199.908708 L212.511191,199.938193 L212.615177,199.969599 L212.698425,199.975649 L212.767278,199.970253 L212.821548,199.946294 L212.84536,199.925507 L212.880787,199.881243 L212.911221,199.797872 L212.918087,199.728431 L212.918144,199.65388 L212.912259,199.580188 L212.864275,199.297403 L212.850019,199.188905 L212.844706,199.122022 L212.844706,199.047888 L212.870741,198.881049 L212.889207,198.797809 L212.914744,198.714022 L212.945725,198.63746 L212.984357,198.572392 L213.046842,198.486937 L213.071234,198.46409 L213.119316,198.432962 L213.151319,198.43051 L213.176054,198.421313 L213.234027,198.429651 L213.266063,198.441668 L213.333362,198.49203 L213.444706,198.606275 L213.546706,198.236466 L213.591918,198.253902 L213.681722,198.267063 L213.719316,198.26412 L213.786779,198.245956 L213.818757,198.228954 L213.841866,198.213447 L213.865237,198.191891 L213.883302,198.169534 L213.922147,198.1117 L213.988074,197.984875 L214.046054,197.842951 L214.086076,197.771736 L214.153392,197.685905 L214.212975,197.639368 L214.287207,197.607414 L214.331202,197.595545 L214.430578,197.587779 L214.558678,197.592766 L214.946823,197.637112 L215.076076,197.656469 L215.334493,197.661373 L215.473695,197.650542 L215.523738,197.639384 L215.608768,197.606589 L215.650891,197.57591 L215.679984,197.546245 L215.736379,197.473755 L215.76033,197.431191 L215.796289,197.346586 L215.827948,197.255065 L215.888079,196.984828 L215.923589,196.880523 L215.935286,196.853433 L215.952984,196.831109 L215.970044,196.814866 L215.988926,196.807101 L215.999896,196.799008 L216.011807,196.798109 L216.037319,196.803341 L216.096166,196.832213 L216.220221,196.94627 L216.342967,197.072123 L216.404651,197.122534 L216.464153,197.164248 L216.518594,197.208365 L216.578185,197.23718 L216.637302,197.259986 L216.688834,197.276924 L216.747436,197.293313 L216.798166,197.295439 L216.904613,197.287158 L216.954379,197.277251 L217.010243,197.259193 L217.059272,197.235234 L217.112896,197.203256 L217.446019,197.177343 L217.431575,196.995921 L217.51797,196.811082 L217.547749,196.780559 L217.570981,196.752545 L217.619071,196.646809 L217.628708,196.612616 L217.642106,196.536218 L217.648809,196.460736 L217.648809,196.378518 L217.642433,196.223065 L217.643251,196.147649 L217.6493,196.072632 L217.659313,196.038398 L217.663401,196.009877 L217.689845,195.946959 L217.71373,195.917695 L217.728992,195.8883 L217.758926,195.859763 L217.789376,195.837651 L217.868798,195.79561 L217.966515,195.767065 L218.311082,195.884924 L218.638703,195.785294 L218.939815,195.761866 L219.092872,195.605294 L219.168436,195.599409 L219.237044,195.581564 L219.266112,195.565599 L219.296463,195.542286 L219.3507,195.503809 L219.403172,195.45258 L219.540886,195.286722 L219.586736,195.22754 L219.633248,195.176777 L219.688155,195.13261 L219.717902,195.115787 L219.748245,195.10176 L219.777951,195.084529 L219.847621,195.065809 L219.885215,195.062866 L219.959962,195.070387 L220.058267,195.096185 L220.090335,195.10861 L220.128166,195.118134 L220.211512,195.125327 L220.299722,195.11846 L220.393548,195.09746 L220.486523,195.070485 L220.584199,195.036708 L220.760144,194.946447 L220.831875,194.892512 L220.903196,194.833371 L221.002245,194.718095 L221.011695,194.68149 L221.03267,194.625054 L221.029891,194.590616 L221.013689,194.537474 L220.998125,194.511283 L220.859439,194.359256 L220.753785,194.217569 L220.665755,194.080951 L220.63546,194.015613 L220.612,193.956185 L220.60255,193.922262 L220.597237,193.855779 L220.602223,193.833243 L220.63815,193.790572 L220.661226,193.788774 L220.680812,193.780763 L220.712218,193.784768 L220.743485,193.782316 L220.821117,193.802482 L220.925431,193.842725 L221.264684,193.884439 L221.435578,193.509676 L221.378561,193.404913 L221.364174,193.393559 L221.356654,193.374398 L221.481019,193.186608 L221.449262,192.787714 L221.455556,192.772313 L221.46324,192.732234 L221.474847,192.703926 L221.534079,192.596556 L221.602204,192.483259 L221.828226,192.151755 Z" id="munich" stroke="#000000" stroke-width="0.5" fill="#8f8f8f" fill-rule="nonzero"></path>
 </svg>
