<svg>
  <path
     d="m 221.70645,192.3448 0.0296,0.0434 0.0551,0.0662 0.0637,0.0664 0.077,0.0968 0.0303,0.0508 0.0275,0.0535 0.0181,0.053 0.008,0.034 0.008,0.0945 -0.003,0.0341 -0.0277,0.11821 -0.0936,0.18338 -0.0736,0.10084 -0.0251,0.0285 -0.0153,0.0294 -0.008,0.0558 0.0169,0.0535 0.0135,0.0187 0.0144,0.0251 0.0271,0.02 0.0282,0.0248 0.0661,0.0348 0.0789,0.0358 0.0913,0.0324 0.79292,0.20347 0.2971,0.072 0.16779,0.0426 0.0782,0.0274 0.14273,0.057 0.0605,0.0352 0.0211,0.0205 0.0269,0.0177 0.0346,0.0444 0.009,0.0267 0.0137,0.0263 0.004,0.0541 -0.003,0.0276 -0.0426,0.0996 -0.0952,0.16377 -0.0378,0.0847 -0.038,0.0771 -0.0311,0.0842 -0.0255,0.0838 -0.0177,0.0832 -0.0129,0.0828 v 0.14907 l 0.0114,0.0684 0.0177,0.0667 0.0385,0.0925 0.0626,0.0769 0.0275,0.0253 0.0275,0.0164 0.11553,0.10102 0.11025,0.11474 0.05,0.0634 0.0726,0.13056 0.0319,0.0717 0.0314,0.1398 -0.008,0.13597 -0.0205,0.0717 -0.0327,0.0698 -0.0443,0.0651 -0.0582,0.0642 -0.1016,0.0833 -0.079,0.0468 -0.0741,0.0195 -0.0313,0.002 -0.0247,-0.004 -0.0599,-0.0228 -0.0203,-0.0194 -0.0268,-0.0172 -0.0425,-0.0588 -0.20423,-0.34961 -0.0833,-0.0963 -0.074,-0.0498 -0.0328,-0.0164 -0.0837,-0.0205 -0.10224,-0.0142 -0.0774,0.006 -0.0606,0.0192 -0.0369,0.0303 -0.0156,0.021 -0.004,0.02 -0.0104,0.029 0.002,0.0208 -0.004,0.0257 0.003,0.0353 0.0108,0.06 0.0718,0.26722 0.0223,0.12077 0.002,0.026 -0.005,0.0298 -0.009,0.0414 -0.0554,0.0986 -0.0238,0.0353 -0.0275,0.0303 -0.0245,0.0221 -0.0242,0.0156 -0.0237,0.009 -0.0253,0.002 -0.0273,-0.005 -0.0253,-0.0117 -0.0202,-0.0186 -0.0277,-0.0188 -0.0418,-0.0504 -0.0426,-0.0648 -0.28741,-0.60427 -0.0926,-0.12376 -0.0555,-0.0626 -0.13151,-0.13242 -0.0678,-0.0564 -0.0744,-0.0551 -0.0733,-0.0414 -0.0721,-0.0351 -0.0708,-0.0239 -0.0378,-0.01 -0.0949,0.007 -0.0607,0.0321 -0.0304,0.0233 -0.0234,0.0216 -0.044,0.0727 -0.0232,0.0477 -0.0148,0.0495 -0.0804,0.49547 -0.0416,0.11244 -0.0685,0.10809 -0.0459,0.0443 -0.0535,0.0388 -0.0661,0.0394 -0.0741,0.0247 -0.037,0.0102 -0.0547,0.0329 -0.0476,0.042 -0.0337,0.0518 -0.0217,0.0565 -0.009,0.0341 -0.0129,0.0691 -2.5e-4,0.15638 0.10566,0.70626 0.0277,0.26301 0.0652,0.49905 0.0343,0.34551 v 0.0866 l -0.006,0.0895 -0.019,0.0905 -0.0238,0.0772 -0.0331,0.0779 -0.0378,0.071 -0.0459,0.0632 -0.0574,0.0601 -0.0603,0.0518 -0.0661,0.0398 -0.0736,0.0392 -0.0728,0.0258 -0.0823,0.0201 -0.086,0.007 -0.0887,8.2e-4 -0.0894,-0.0128 -0.0901,-0.008 -0.0793,0.0207 -0.0377,0.0158 -0.0291,0.016 -0.0543,0.0514 -0.0281,0.0377 -0.0167,0.0351 -0.0227,0.0352 -0.0156,0.0347 -0.0195,0.0845 -0.0122,0.0816 0.01,0.12295 0.0186,0.0739 0.0306,0.0645 0.0204,0.0258 0.0557,0.0505 0.059,0.0301 0.0762,0.007 0.0931,-0.0205 0.0751,-0.0208 0.0748,-0.006 0.0817,9e-4 0.0768,0.015 0.0776,0.0201 0.0716,0.0291 0.0685,0.0422 0.0593,0.0433 0.0546,0.0514 0.0203,0.0246 0.0159,0.0254 0.015,0.0331 0.0156,0.027 0.008,0.032 0.005,0.0689 -0.009,0.0342 -0.004,0.035 -0.0323,0.0694 -0.0227,0.0437 -0.0282,0.0356 -0.036,0.0374 -0.10796,0.37028 0.0112,0.14057 0.14257,0.0643 0.10534,0.1143 0.037,0.0652 0.009,0.0336 0.003,0.0336 -0.004,0.0265 -0.0219,0.0489 -0.04,0.0527 -0.12068,0.0835 -0.30966,0.1466 -0.0735,0.0319 -0.0668,0.0411 -0.0768,0.0656 -0.0176,0.0231 -0.0277,0.0428 -0.0166,0.036 -0.02,0.0684 0.005,0.0565 0.0227,0.0502 0.0227,0.0264 0.0193,0.0259 0.0551,0.0429 0.12004,0.087 0.20107,0.14071 0.0551,0.0566 0.0442,0.0659 0.0148,0.0395 0.0201,0.0786 0.004,0.0481 -0.006,0.10319 -0.02,0.0689 -0.0212,0.0625 -0.0388,0.13398 -0.0993,0.25798 -0.034,0.1328 -0.0144,0.068 -0.002,0.13762 0.006,0.0749 0.0142,0.0795 0.0247,0.0799 0.0323,0.0857 0.0429,0.0773 0.0508,0.0589 0.0551,0.0566 0.0557,0.0505 0.30516,0.18741 0.0599,0.0425 0.0546,0.0514 0.0491,0.057 0.0439,0.0719 0.0642,0.17151 0.0723,0.27283 0.0918,0.27373 0.0839,0.27354 0.0725,0.2708 0.0186,0.0876 0.0342,0.0864 0.0355,0.0654 0.044,0.0635 0.10375,0.10839 0.0599,0.0425 0.0606,0.0509 0.25319,0.1697 0.0621,0.0508 0.0614,0.0561 0.0551,0.0574 0.0569,0.0701 0.0426,0.0696 0.0381,0.0736 0.0302,0.073 0.0489,0.13885 0.0196,0.0714 0.077,0.41634 0.0364,0.14183 0.0239,0.065 0.0753,0.15049 0.0514,0.0718 0.085,0.0897 -0.0286,0.0828 -0.0129,0.0691 -0.008,0.0675 v 0.13661 l 0.0149,0.13586 0.0477,0.2691 0.0166,0.13371 0.0108,0.13536 -0.0151,0.13133 -0.0271,0.12582 -0.0544,0.18759 -0.0212,0.0625 -0.0267,0.0553 -0.0336,0.0582 -0.04,0.0575 -0.0863,0.10142 -0.0603,0.0381 -0.0601,0.0401 -0.0674,0.0326 -0.0743,0.0267 -0.12877,0.0289 -0.0801,0.0336 -0.0431,0.0231 -0.0664,0.0459 -0.0639,0.0678 -0.0568,0.0725 -0.0511,0.0781 -0.0439,0.0925 -0.0377,0.0952 0.0241,-0.008 0.0624,-0.0113 0.0694,-0.005 0.0634,0.001 0.0637,0.0148 0.065,0.0211 0.0597,0.03 0.0663,0.038 0.29744,0.24081 0.12761,0.0977 0.13992,0.0782 0.0772,0.0287 0.16097,0.0274 0.0882,8.1e-4 0.0514,-0.004 0.0502,0.01 0.0403,0.0174 0.0329,0.0184 0.027,0.0245 0.0434,0.0647 0.009,0.04 0.0165,0.0471 0.004,0.0469 0.0138,0.094 0.005,0.30665 0.0102,0.12815 0.009,0.0327 0.015,0.0335 0.0148,0.0263 0.0348,0.032 0.0124,0.005 0.032,0.003 0.0326,0.006 0.0923,-0.0265 0.12188,-0.059 0.0851,-0.0461 0.0929,-0.0282 0.0864,-0.0204 0.0823,-0.006 0.0878,0.002 0.0778,0.0125 0.0783,0.0286 0.0713,0.0303 0.0593,0.0341 0.0546,0.0453 0.0271,0.0257 0.0215,0.0249 0.0296,0.0521 0.0231,0.0599 0.009,0.0339 0.005,0.0593 -0.004,0.0338 -0.0453,0.14095 -0.0202,0.0757 -0.006,0.0746 -4e-5,0.0746 0.006,0.0697 0.0344,0.12628 0.0295,0.0509 0.0371,0.0527 0.0465,0.0435 0.0468,0.0371 0.054,0.0296 0.058,0.0225 0.0646,0.0159 0.0718,0.008 0.18088,-0.0141 0.0457,0.0101 0.0382,0.004 0.0395,0.0171 0.0535,0.0373 0.0204,0.025 0.0301,0.0585 0.0186,0.0739 0.0129,0.16221 0.008,0.16947 0.0129,0.0869 0.028,0.12153 0.0225,0.0377 0.0441,0.0647 0.0673,0.0641 0.0451,0.0162 0.0468,0.0238 0.032,0.0112 0.0699,0.008 0.0949,-0.007 0.0674,-0.019 0.0624,-0.0258 0.28976,-0.16602 0.0552,-0.0172 0.0623,-0.0121 0.0323,-0.009 0.0954,0.0123 0.0331,0.0107 0.0662,0.036 0.0331,0.0248 0.0667,0.0428 0.0647,0.0276 0.0659,0.0231 0.0699,0.008 0.28088,0.0188 0.0693,8.2e-4 0.0697,0.01 0.12995,0.0423 0.0657,0.0308 0.0676,0.0491 0.0607,0.0569 0.036,0.0484 -9.3e-4,-0.10592 0.0117,-0.0892 0.0126,-0.0626 0.0339,-0.0635 0.0121,-0.008 0.0354,-0.0165 0.0205,-0.002 0.0579,0.0165 0.0523,0.0221 0.0461,0.0375 0.11655,0.0997 0.12318,0.12663 0.26086,0.31296 0.26596,0.33474 0.23659,0.28101 0.10355,0.10115 0.0467,0.0359 0.041,0.0254 0.0451,0.0162 0.0182,-0.001 0.0121,-0.008 0.0293,-0.0369 0.0369,-0.17171 -0.003,-0.19162 -0.0226,-0.2086 -0.0288,-0.20207 -0.0224,-0.19652 -8.1e-4,-0.0942 0.006,-0.0819 0.0128,-0.084 0.0182,-0.0683 0.0174,-0.0352 0.0451,-0.0587 0.0546,-0.0381 0.0298,-0.016 0.032,-0.002 0.0314,0.004 0.0327,0.0112 0.0337,0.0183 0.0593,0.049 0.0701,0.0707 0.0691,0.0817 0.29889,0.41922 0.0776,0.10398 0.0837,0.0962 0.0887,0.0882 0.0954,0.0744 0.0932,0.0459 0.0528,0.0233 0.14624,0.0305 0.0787,0.0201 0.0584,0.0237 0.0398,0.0243 0.0209,0.0173 0.0215,0.0402 0.008,0.005 0.002,0.0284 0.006,0.006 8.2e-4,0.006 0.007,0.014 0.007,0.005 0.007,0.0132 0.0272,0.0128 0.0704,0.0143 0.0708,0.009 0.2144,0.002 0.0575,0.003 0.0452,0.0174 0.0204,0.0121 0.013,0.0127 0.0289,0.0384 0.0218,0.039 0.011,0.0527 0.005,0.0605 -0.002,0.063 -0.0201,0.15147 -0.0313,0.15758 -0.0977,0.34812 -0.10096,0.33587 -0.0374,0.15161 -0.0223,0.12425 -0.002,0.0558 0.003,0.0401 0.0159,0.0395 0.0156,0.0262 0.0265,0.0125 0.0175,0.004 0.0144,0.007 0.0496,-0.0123 0.0552,-0.0168 0.31094,-0.15395 0.1193,-0.0774 0.10224,-0.0752 0.0883,-0.0758 0.0831,-0.081 0.0756,-0.0804 0.0752,-0.0949 0.0261,-0.048 0.022,-0.0573 0.0139,-0.0555 0.008,-0.0615 0.01,-0.26713 0.0158,-0.131 0.02,-0.0684 0.0492,-0.0929 0.0687,-0.0871 0.0718,-0.0535 0.11567,-0.0618 0.0373,-0.0113 0.0689,-0.005 0.0692,0.003 0.0722,0.0133 0.141,0.0447 0.13103,0.0559 0.0659,0.0239 0.0585,0.0156 0.0832,0.0145 0.0253,-0.002 0.048,-0.0183 0.0414,-0.0298 0.0515,-0.0871 0.0293,-0.0978 0.0339,-0.0635 0.0731,-0.12175 0.1089,-0.13742 0.12092,-0.14642 0.30482,-0.30137 0.22205,-0.19781 -0.0591,-0.0466 -0.061,-0.0561 -0.048,-0.0519 -0.0434,-0.0647 -0.0309,-0.0585 -0.025,-0.0932 -0.003,-0.0349 0.0105,-0.0887 0.01,-0.0346 0.0343,-0.0579 0.0232,-0.0284 0.0861,-0.0893 0.0532,-0.065 0.0382,-0.0711 0.0333,-0.0707 0.0248,-0.07 0.028,-0.13717 0.008,-0.0764 -0.0173,-0.21747 -0.0563,-0.19872 -0.0527,-0.12526 -0.033,-0.0853 -0.0193,-0.0823 -0.006,-0.0729 v -0.0742 l 0.0327,-0.13915 0.0217,-0.0706 0.0261,-0.0629 0.12414,-0.26111 0.0397,-0.14051 0.0137,-0.068 0.007,-0.0751 -1e-5,-0.0754 -0.0246,-0.1492 -0.0602,-0.20567 -0.0978,-0.264 -0.0161,-0.0664 -0.0243,-0.13553 -0.005,-0.0665 0.001,-0.0686 0.006,-0.0674 0.0171,-0.1053 -0.007,-0.0873 -0.019,-0.0791 -0.0155,-0.0347 -0.0433,-0.0635 -0.0204,-0.0254 -0.0551,-0.0578 -0.06,-0.0433 -0.34006,-0.21171 -0.082,-0.0754 -0.0429,-0.0636 -0.0307,-0.0657 -0.01,-0.0403 -0.0114,-0.068 -0.0173,-0.21666 8.2e-4,-0.14998 0.007,-0.14199 0.009,-0.28685 0.001,-0.14355 -0.0161,-0.1414 -0.006,-0.0749 0.005,-0.0757 0.0135,-0.0756 0.0196,-0.0684 0.10555,-0.26895 0.0135,-0.0611 0.0125,-0.0973 -0.005,-0.0665 -0.009,-0.0339 -0.016,-0.0322 -0.016,-0.0411 -0.0494,-0.0703 -0.0688,-0.0692 -0.0869,-0.075 -0.11635,-0.0925 -0.13099,-0.12601 -0.13043,-0.14702 -0.0626,-0.0757 -0.0587,-0.0785 -0.0421,-0.0773 -0.0485,-0.11107 -0.008,-0.0404 -0.005,-0.0689 0.002,-0.0348 0.0105,-0.0335 0.0323,-0.065 0.0299,-0.0289 0.0652,-0.0466 0.0431,-0.0235 0.0863,-0.0402 0.0661,-0.0398 0.0652,-0.047 0.10095,-0.10094 0.0387,-0.0502 0.08,-0.10979 0.0742,-0.10772 0.0872,-0.0946 0.047,-0.0448 0.0585,-0.0465 0.0663,-0.0374 0.074,-0.0344 0.0992,-0.0287 0.0811,-0.006 0.0708,0.009 0.0331,0.0111 0.0577,0.0294 0.0283,0.026 0.0532,0.043 0.086,0.11582 0.12742,0.17989 0.0491,0.0518 0.0552,0.0489 0.0271,0.0201 0.0311,0.0101 0.0336,0.0171 0.0764,0.009 0.0384,0.002 0.11315,-0.009 0.0426,-0.0158 0.037,-0.0105 0.0297,-0.022 0.0477,-0.0456 0.0172,-0.0287 0.0211,-0.0548 0.006,-0.0686 0.003,-0.28631 0.008,-0.0675 0.0208,-0.0584 0.0163,-0.0262 0.0236,-0.024 0.0305,-0.0209 0.028,-0.0243 0.0377,-0.0154 0.10053,-0.0215 0.0551,-0.004 0.0761,10e-4 0.0631,0.006 0.1366,0.0317 0.25447,0.1152 0.24661,0.13879 0.13048,0.0584 0.065,0.0219 0.0656,0.0151 0.0132,0.0336 0.007,0.005 0.001,0.0136 0.0154,0.0197 0.11413,-0.22689 0.091,-0.0478 0.08,-0.0199 0.07,-0.005 0.097,0.0324 0.0278,0.0196 0.0274,0.024 0.0255,0.019 0.0495,0.0578 0.13629,0.2066 0.0446,0.0707 0.0494,0.0707 0.0552,0.0586 0.0621,0.0552 0.0331,0.0256 0.0661,0.0348 0.16776,0.0421 0.12764,0.0227 0.1283,0.0122 0.12662,0.01 0.12764,0.004 0.12506,-0.01 0.12603,-0.0162 0.11643,-0.0288 0.10635,-0.0377 0.0421,-0.021 0.0359,-0.0249 0.0288,-0.0284 0.0459,-0.0588 0.0116,-0.0283 0.0189,-0.0688 -0.003,-0.0344 0.003,-0.041 -0.0127,-0.0756 -0.0257,-0.0786 -0.0629,-0.16476 -0.0769,-0.17132 -0.0627,-0.16599 -0.0258,-0.0794 -0.0136,-0.0723 -0.0884,-1.11018 0.16177,-0.0472 0.0806,-0.0272 0.0863,-0.0256 0.26002,0.34003 0.17308,0.0949 0.0919,-0.11556 0.024,-0.009 0.0868,-0.0205 0.14404,-0.0112 0.155,0.009 0.14344,-0.005 0.0696,-0.005 0.0544,-0.0179 0.0257,-0.007 0.0242,-0.0156 0.017,-0.0162 0.0288,-0.0429 0.0105,-0.0282 0.004,-0.0286 0.002,-0.0401 -0.0186,-0.0792 -0.0346,-0.10006 -0.0258,-0.0935 -0.0185,-0.0864 0.002,-0.0433 -0.003,-0.0385 0.003,-0.0357 0.029,-0.11146 0.0321,-0.0629 0.0401,-0.0567 0.0458,-0.0592 0.0536,-0.0513 0.0596,-0.0465 0.0663,-0.0378 0.0608,-0.0317 0.13524,-0.0512 0.0626,-0.0186 0.0612,-0.0124 0.0599,-0.20252 0.0726,-0.2027 -0.0397,-0.26288 -0.0197,-0.0928 -0.071,-0.0972 -0.0412,-0.0512 -0.0379,-0.0571 0.0846,-0.22661 0.025,-0.307 0.0184,-0.16343 0.0389,-0.15535 0.0254,-0.0761 0.0261,-0.0629 0.0172,-0.0287 0.0232,-0.0288 0.0703,-0.0675 0.0608,-0.0309 0.0686,-0.0178 0.038,-0.003 0.0832,0.006 0.51152,0.10286 0.26482,0.0475 0.13473,0.0177 0.13836,0.002 0.089,-0.007 0.0805,-0.0191 0.0666,-0.0334 0.11933,-0.0911 0.15109,-0.15319 0.0475,-0.0529 0.0471,-0.0435 0.0841,-0.0485 0.0251,-0.009 0.0308,-0.009 0.0703,-0.005 0.0307,0.004 0.0778,0.0222 0.086,0.0405 0.30783,-0.3435 0.13479,-0.37196 -0.009,-0.10733 0.0512,-0.222 0.0849,-0.0622 0.0289,-0.0272 0.0214,-0.0371 0.0228,-0.0292 0.0167,-0.0347 0.011,-0.0355 0.006,-0.0674 -0.005,-0.0689 -0.0272,-0.10669 -0.0314,-0.0648 -0.061,-0.14516 -0.0319,-0.0664 -0.024,-0.0715 -0.0189,-0.0678 -0.008,-0.10133 0.0107,-0.0351 0.0116,-0.0283 0.009,-0.0353 0.0289,-0.0417 0.0216,-0.044 0.0283,-0.0344 0.0303,-0.0233 0.0229,-0.0227 0.0313,-0.0163 0.0611,-0.0184 0.032,-0.002 0.0943,0.0128 0.0736,0.0301 0.066,0.0344 0.29125,0.16795 0.08,0.0401 0.0717,0.0299 0.10824,0.019 0.0386,0.004 0.0854,0.0332 0.0194,0.013 0.0191,0.005 0.0145,0.0126 0.097,-0.0422 0.0812,-0.02 0.0877,-0.0129 0.0811,-0.006 0.0889,0.007 0.0839,0.014 0.16835,0.0542 0.0742,0.0434 0.14483,0.0975 0.0633,0.0559 0.098,0.13503 0.0379,0.0716 0.0258,0.0794 0.0388,0.16664 0.0234,0.0735 0.0739,0.1244 0.10061,0.0877 0.12063,0.0712 0.25602,0.11105 0.0588,0.0277 0.12,0.0725 0.0469,0.0383 0.0641,0.076 0.008,0.0276 0.0153,0.0315 0.007,0.0265 0.0248,0.14154 9e-4,0.4025 0.0128,0.1614 0.0186,0.0739 0.0241,0.0723 0.0143,0.0335 0.0445,0.0646 0.0271,0.0253 0.054,0.043 0.06,0.0437 0.0656,0.0283 0.0662,0.0368 0.28923,0.11894 0.0651,0.0369 0.0588,0.0426 0.0559,0.044 0.0543,0.0562 0.0216,0.0269 0.0149,0.0315 0.0231,0.0409 0.007,0.0321 0.0159,0.0395 0.003,0.0408 0.0113,0.0471 -0.004,0.0462 0.3624,0.33247 0.24334,-0.0387 0.0868,-0.0197 0.23879,0.0499 0.10911,0.10031 0.0653,0.0344 0.0667,0.0432 0.12243,0.0985 0.0596,0.0518 0.0562,0.0565 0.0559,0.063 0.0508,0.0642 0.079,0.1361 0.0567,0.15275 0.0114,0.0829 0.006,0.0797 0.002,0.0881 -0.0137,0.0825 -0.005,0.0761 -0.001,0.0815 0.006,0.0749 0.0371,0.14621 0.0303,0.0657 0.0374,0.0652 0.0422,0.0648 0.0508,0.0641 0.10944,0.11399 0.0616,0.0496 0.0661,0.0497 0.13954,0.0782 0.0715,0.0279 0.11697,0.0393 0.0445,0.009 0.0459,0.002 0.0313,-0.002 0.0808,-0.0248 0.0154,-0.0233 0.019,-0.0204 0.01,-0.0217 0.005,-0.0273 0.0154,-0.056 0.022,-0.19876 0.0122,-0.0626 0.0183,-0.0288 0.0255,-0.0564 0.0493,-0.0445 0.0287,-0.0159 0.0811,-0.0212 0.10086,-0.008 0.0507,0.011 0.058,0.009 0.11681,0.0514 0.1389,0.0512 0.0639,0.0212 0.0646,0.0159 0.0634,0.001 0.0326,0.006 0.0247,-0.01 0.0309,-0.002 0.0725,-0.0447 0.0233,-0.0228 0.0338,-0.0643 0.0303,-0.0854 0.008,-0.0538 0.01,-0.12326 -0.003,-0.12267 -0.004,-0.0541 -0.0207,-0.0862 -0.0303,-0.0657 -0.0407,-0.0452 -0.0277,-0.0188 -0.0524,-0.0233 -0.0318,-0.009 -0.0327,-0.006 -0.0634,-10e-4 -0.27185,0.0147 -0.0691,-0.002 -0.0561,-0.009 -0.0343,-0.0118 -0.0465,-0.0246 -0.0257,-0.0169 -0.096,-0.0816 -0.11266,-0.0791 -0.16439,-0.14558 -0.0428,-0.0575 -0.0368,-0.0576 -0.028,-0.0651 -0.01,-0.0347 -0.009,-0.10854 0.0105,-0.0891 0.0318,-0.0891 0.0425,-0.10083 0.0676,-0.106 0.12115,-0.15288 0.0586,-0.059 0.0529,-0.0452 0.10161,-0.0833 0.0947,-0.067 0.0906,-0.0752 0.0856,-0.0957 0.0403,-0.0575 0.0819,-0.1567 0.036,-0.0983 0.04,-0.0764 0.0219,-0.0311 0.0471,-0.0431 0.0297,-0.0172 0.0245,-0.008 0.0331,-0.003 0.0943,0.0136 0.0395,0.0167 0.0669,0.0359 0.0726,0.0411 0.13658,0.12558 0.0689,0.0704 0.0694,0.0764 0.1126,0.15364 0.05,0.0775 0.0379,0.0716 0.0294,0.0396 0.021,0.033 0.0269,0.0314 0.0608,0.0299 0.0643,0.008 0.0354,-0.003 0.0697,-0.0187 0.0678,-0.0327 0.14535,-0.0794 0.13794,-0.0925 0.0663,-0.0334 0.0672,-0.0262 0.0581,-0.005 0.0574,0.0105 0.0261,0.0125 0.0263,0.0241 0.0214,0.0245 0.0722,0.11165 0.0505,0.0706 0.0477,0.0579 0.056,0.0493 0.11935,0.0737 0.0568,0.0226 0.0599,0.0143 0.11997,0.006 0.11898,-0.025 0.0547,-0.0232 0.0548,-0.0313 0.0472,-0.0323 0.0836,-0.0746 0.0299,-0.0156 0.0359,-0.0242 0.0679,-0.0178 0.0331,-0.003 0.0359,0.005 0.0402,0.002 0.0307,0.005 0.0327,0.0112 0.0662,0.0367 0.0658,0.0408 0.0558,0.0517 0.049,0.0651 0.0373,0.064 0.0301,0.0722 0.0188,0.0804 0.006,0.0741 -0.003,0.0422 -0.0172,0.0755 -0.0177,0.036 -0.0948,0.15003 -0.0164,0.0432 -0.0178,0.0683 0.008,0.0949 0.023,0.0591 0.0619,0.077 0.0871,0.0549 0.0644,0.0284 0.14848,0.0303 0.1444,-0.0112 0.0679,-0.0262 0.0614,-0.033 0.0297,-0.0225 0.0234,-0.0215 0.0569,-0.0661 0.0466,-0.0637 0.0381,-0.0719 0.0334,-0.0699 0.0378,-0.14641 0.0138,-0.0764 0.014,-0.22434 -0.007,-0.15779 -0.0236,-0.29637 -0.0215,-0.58547 -0.0225,-0.28315 -0.0173,-0.14212 -0.0297,-0.13309 -0.0117,-0.0809 0.002,-0.0344 -0.003,-0.0324 0.004,-0.0362 0.0296,-0.10385 0.0277,-0.0566 0.0325,-0.0569 0.0459,-0.058 0.0403,-0.0575 0.18425,-0.2118 0.0474,-0.0581 0.0388,-0.0586 0.0525,-0.12539 0.043,-0.11859 0.0712,-0.13571 0.0288,-0.0292 0.0231,-0.0292 0.0298,-0.0297 0.0292,-0.0232 0.031,-0.0149 0.0921,-0.0281 0.0309,-0.002 0.0635,0.003 0.0647,0.008 0.0704,0.0135 0.25243,0.0896 0.0596,0.0244 0.0964,0.0251 0.0414,0.0169 0.0861,0.0562 0.0263,0.0241 0.0431,0.0523 0.0357,0.0577 0.0493,0.13882 0.0115,0.0736 0.013,0.1634 -0.006,0.15642 -0.0193,0.30777 0.003,0.11586 0.008,0.0957 0.009,0.0319 0.0296,0.0658 0.0291,0.0449 0.0205,0.0129 0.0206,0.0194 0.072,0.0335 0.156,0.0495 0.0728,0.0487 0.021,0.0193 0.0419,0.0516 0.0213,0.0326 0.0153,0.0327 0.0318,0.0842 0.0219,0.11556 0.0297,0.12786 0.0162,0.0523 0.0381,0.0788 0.0274,0.0249 0.0269,0.0177 0.057,0.0242 0.0336,0.003 0.032,-0.002 0.10367,-0.029 0.42184,-0.20972 0.0779,-0.0326 0.0879,-0.0201 0.0369,-0.003 0.0381,0.003 0.0788,0.0205 0.0445,0.0183 0.0844,0.0208 0.0703,-0.005 0.061,-0.0193 0.025,-0.0149 0.0451,-0.0446 0.0459,-0.0588 0.0406,-0.064 0.031,-0.077 0.12899,-0.2897 0.0328,-0.0634 0.0244,-0.0228 0.0166,-0.0275 0.023,-0.0163 0.0493,-0.03 0.0233,-0.008 0.07,-0.005 0.0649,0.0203 0.0597,0.03 0.0538,0.0502 0.0498,0.0662 0.0555,0.0618 0.10122,0.15654 0.10645,0.14687 0.0623,0.0633 0.0611,0.0573 0.0329,0.0232 0.0333,0.0188 0.0396,0.0179 0.0332,0.0119 0.0821,0.006 0.0436,-0.003 0.0442,-0.009 0.0157,-0.17853 0.0258,-0.17932 0.0852,-0.11543 0.085,-0.061 0.0828,-0.0471 0.0865,-0.0277 0.0817,-0.014 0.0877,8.2e-4 0.0901,0.008 0.17978,0.0331 0.18757,0.0463 0.0896,0.02 0.0894,0.0128 0.18979,-0.001 0.0932,-0.0145 0.1354,-0.0492 0.0363,-0.0101 0.0707,-0.005 0.0696,0.008 0.065,0.0208 0.0536,0.0377 0.0539,0.0421 0.0496,0.059 0.0428,0.0583 0.0375,0.0716 0.0618,0.15033 0.0187,0.0751 0.0258,0.15395 0.005,0.0669 -10e-4,0.15723 0.0137,0.0868 0.0184,0.0804 0.0322,0.0793 0.0802,0.13722 0.0495,0.057 0.0539,0.0566 0.0622,0.0568 0.0684,0.0503 0.1262,0.0845 0.26878,0.13505 0.53641,0.20368 0.0727,0.0427 0.0656,0.0428 0.0887,0.0749 0.0425,0.0584 0.0313,0.0645 0.009,0.0332 0.006,0.0749 -0.0188,0.0833 -0.0161,0.0424 -0.0871,0.17643 -0.0256,0.0689 -0.026,0.0786 -0.0389,0.14649 -0.006,0.0738 -9e-4,0.0682 0.006,0.0749 0.0257,0.0923 0.031,0.0605 0.0213,0.0318 0.0204,0.025 0.0546,0.051 0.10033,0.0607 0.12365,0.0383 0.0978,0.052 0.0276,0.0265 0.0623,0.0765 0.0384,0.0639 0.0245,0.0674 0.0179,0.0744 0.0126,0.0732 0.006,0.0813 -0.007,0.23826 -0.0338,0.2952 -0.004,0.0958 0.006,0.0809 0.0184,0.0804 0.0253,0.0734 0.0363,0.0653 0.044,0.0639 0.0957,0.11506 0.21473,0.2275 0.0862,0.12345 0.0375,0.0712 0.0253,0.0734 0.01,0.0391 0.0163,-0.007 0.10996,-0.063 0.0745,-0.0195 0.0365,-0.003 0.0325,0.004 0.0342,0.0111 0.0249,0.0113 0.0259,0.0202 0.0489,0.0498 0.0442,0.0655 0.16192,0.29327 0.0435,0.0712 0.0551,0.0566 0.0624,0.0495 0.0317,0.0173 0.0707,0.0219 0.0394,0.005 0.0435,-0.003 0.0993,-0.0226 0.0882,-0.007 0.0767,0.009 0.0263,0.0104 0.0325,0.0184 0.0209,0.0181 0.027,0.0189 0.0501,0.0832 0.0617,0.12536 0.0543,0.13199 0.0374,0.0652 0.0626,0.0765 0.0591,0.0365 0.0337,0.0183 0.0777,0.0209 0.0442,0.004 0.0938,-0.007 0.0457,0.009 0.0385,0.003 0.0392,0.0175 0.0667,0.0432 0.0282,0.0244 0.0699,0.0969 0.0379,0.0716 0.0637,0.1655 0.0563,0.16568 0.0765,0.15122 0.0203,0.0246 0.0211,0.0338 0.0281,0.0188 0.0258,0.0234 0.0662,0.0219 0.0767,0.009 0.10641,0.005 0.0969,0.0182 0.0789,0.0358 0.0678,0.0475 0.055,0.0658 0.022,0.0317 0.016,0.0407 0.0208,0.031 0.0295,0.12142 0.003,0.0332 -0.004,0.041 0.003,0.0405 -0.0101,0.0334 -0.008,0.0437 -0.0197,0.0684 -0.0398,0.0648 -0.0228,0.0292 -0.0237,0.0228 -0.0305,0.0213 -0.0298,0.0168 -0.0369,0.0166 -0.0745,0.0195 -0.1365,0.0308 -0.0297,0.0168 -0.0371,0.0142 -0.0233,0.0228 -0.0319,0.0174 -0.0149,0.029 -0.0354,0.0495 -0.0101,0.0282 -0.009,0.0354 -0.0201,0.0624 -0.007,0.0683 -10e-4,0.14317 0.005,0.1431 3e-5,0.0754 -0.008,0.0675 -0.0127,0.0618 -0.0204,0.0633 0.0264,0.33121 v 0.0818 l -0.007,0.0759 -0.0134,0.0756 -0.0395,0.13929 -0.0254,0.0713 -0.0261,0.0629 -0.0654,0.13364 -0.24128,0.39394 -0.0541,0.10616 -0.038,0.0969 -0.0238,0.0909 -0.0118,0.0827 -8.2e-4,0.0811 0.007,0.0821 0.0487,0.13242 0.0363,0.0653 0.0436,0.0583 0.0967,0.10047 0.10737,0.088 0.2354,0.15779 0.0528,0.0515 0.0556,0.0493 0.0418,0.0503 0.0425,0.0591 0.0424,0.0523 0.0599,0.11704 0.024,0.0662 0.0241,0.0578 0.0182,0.0679 0.0121,0.0672 0.0107,0.13496 -10e-4,0.0674 0.006,0.0741 0.0187,0.0751 0.0138,0.0324 0.0581,0.0906 0.0492,0.0582 0.22129,0.22053 0.0473,0.0572 0.0442,0.0659 0.0203,0.0246 0.0153,0.0323 0.0186,0.0739 0.006,0.0749 -0.007,0.0759 -0.0152,0.0483 -0.0365,0.0975 -0.014,0.0692 -0.007,0.0622 -0.002,0.14356 0.0112,0.066 0.0195,0.075 0.0228,0.0655 0.0309,0.0584 0.0357,0.0581 0.0208,0.0266 0.0276,0.0176 0.0275,0.0253 0.0528,0.0378 0.0966,0.0332 0.0832,0.005 0.18312,-0.0143 0.0374,0.004 0.0778,0.0222 0.0609,0.0364 0.0194,0.0182 0.0215,0.0253 0.0453,0.0847 0.009,0.0416 0.009,0.10694 8.2e-4,0.0806 -0.007,0.0831 -0.0313,0.16604 -0.0716,0.29048 -0.0322,0.15483 -0.003,0.0397 0.003,0.0344 0.0169,0.0531 0.0282,0.0385 0.0401,0.0243 0.0521,0.01 0.0882,-0.007 0.49377,-0.14842 0.16228,-0.0126 0.0469,0.0101 0.0376,0.0116 0.0263,0.0109 0.0353,0.0251 0.0394,0.0433 0.0154,0.0334 0.009,0.034 0.0165,0.0334 0.0117,0.0724 0.0281,0.35284 0.0192,0.0868 0.0256,0.0858 0.0148,0.0408 0.0233,0.0393 0.0623,0.0681 0.0337,0.0332 0.0942,0.0596 0.0412,0.0516 0.037,0.0596 0.0309,0.0584 0.0295,0.065 0.0174,0.0728 0.0877,0.3067 0.0253,0.0726 0.032,0.0729 0.0361,0.0725 0.0442,0.0659 0.055,0.0562 0.0604,0.0489 0.14111,0.0978 0.15159,0.0837 0.15147,0.0773 0.0782,0.0274 0.0779,0.0141 0.0699,0.008 0.0691,0.002 0.0309,-0.002 0.0314,-0.0101 0.0917,-0.0478 0.0238,-0.0208 0.0454,-0.0652 0.0448,-0.0728 0.0654,-0.20819 0.0432,-0.0924 0.0227,-0.0352 0.0521,-0.0649 0.0596,-0.0465 0.0242,-0.0156 0.0617,-0.0197 0.0298,-0.002 0.084,0.0156 0.0332,0.0119 0.0792,0.0539 0.0431,0.0523 0.0423,0.0648 0.0319,0.0717 0.0263,0.0862 0.013,0.088 0.002,0.10139 -0.003,0.0474 0.003,0.0417 0.0184,0.0719 0.0156,0.0355 0.0633,0.0894 0.0263,0.0242 0.0937,0.0616 0.0668,0.0351 0.0788,0.0354 0.32668,0.12369 0.0773,0.0347 0.14149,0.0978 0.0552,0.0578 0.0546,0.0502 0.0605,0.0489 0.0667,0.0432 0.0677,0.0419 0.36371,0.20301 0.0672,0.0492 0.0546,0.0514 0.0549,0.0638 0.0441,0.0647 0.0214,0.0382 0.0161,0.0334 0.0282,0.1328 0.0103,0.12886 0.0261,0.15433 0.0494,0.14486 0.0292,0.0755 0.0704,0.13597 0.0801,0.13642 0.0853,0.13038 0.17889,0.25245 3.33531,-2.70029 0.15296,0.24198 0.33275,-0.0259 0.14608,0.0145 0.064,0.0224 0.0732,0.0213 0.0652,0.0288 0.0655,0.0368 0.1207,0.0861 0.0612,0.0484 0.0538,0.0502 0.0563,0.0577 0.0483,0.0567 0.0926,0.12296 0.0798,0.13644 0.0675,0.13701 0.19183,0.41505 0.11081,0.20173 0.0975,0.12863 0.11844,0.12861 0.0687,0.0543 0.0409,0.0387 0.0346,0.0445 0.0279,0.045 0.0242,0.0453 0.0227,0.055 0.0503,0.16575 0.041,0.11085 0.025,0.0601 0.0355,0.0653 0.0427,0.0571 0.0492,0.0582 0.0671,0.0625 0.0749,0.0562 0.15269,0.0973 0.14003,0.0842 0.14378,0.0561 0.13572,0.0301 0.0624,0.003 0.064,-0.005 0.0616,-0.0124 0.055,-0.0188 0.0621,-0.0238 0.0524,-0.0375 0.0613,-0.0527 0.0519,-0.0588 0.0209,-0.029 0.0317,-0.0157 0.0237,-0.022 0.0231,-0.0155 0.0321,-0.0106 0.032,-0.002 0.0237,-0.008 0.0895,0.014 0.0654,0.0223 0.0596,0.0288 0.10899,0.0943 0.0539,0.0555 0.0491,0.0663 0.0764,0.13671 0.0235,0.0788 0.0191,0.0803 0.012,0.0809 0.0199,0.24992 0.0114,0.068 0.0368,0.13334 0.0242,0.059 0.0302,0.0597 0.0567,0.077 0.0199,0.0198 0.0268,0.0165 0.0535,0.0377 0.0654,0.0223 0.1203,0.0104 0.0949,-0.007 0.26907,-0.0355 0.14461,-0.004 0.0702,0.002 0.0707,0.008 0.0634,0.016 0.0661,0.0219 0.0804,0.0546 0.0215,0.0257 0.0255,0.0242 0.0229,0.0337 0.0153,0.0327 0.0314,0.0794 0.0478,0.28924 0.0247,0.0654 0.0309,0.073 0.0742,0.12318 0.0406,0.0589 0.0491,0.0566 0.10453,0.11355 0.10846,0.10158 0.22081,0.21454 0.0755,0.0832 0.0285,0.0385 0.016,0.0322 0.0169,0.0523 -0.006,0.0149 0.001,0.0148 -0.006,0.006 9.8e-4,0.0124 -0.0184,0.0232 -0.0347,0.0301 -0.0242,0.0156 -0.18354,0.0888 -0.0842,0.0472 -0.0303,0.0233 -0.0161,0.0286 -0.0234,0.0216 -0.0215,0.0642 -0.006,0.0819 0.0103,0.0403 0.017,0.0531 0.0535,0.1119 -3.17617,3.03892 0.0306,0.0645 0.0484,0.13244 0.0439,0.14649 0.0306,0.14874 0.10586,0.60993 0.0119,0.0881 0.006,0.0813 v 0.14948 l -0.0188,0.14532 -0.0221,0.13671 -0.0272,0.13833 -0.0269,0.21284 -10e-4,0.15724 0.006,0.0813 8.2e-4,0.0818 -0.006,0.0819 -0.0122,0.0767 -0.0275,0.069 -0.0763,0.14215 -0.0902,0.13718 -0.31508,0.39848 -0.0459,0.0725 -0.0382,0.0703 -0.13524,0.0512 -0.015,0.0548 0.002,0.022 -0.007,0.0686 -0.3445,-0.11706 -0.0844,-0.0341 -0.081,-0.0481 -0.14778,-0.11101 -0.34129,-0.33533 -0.0756,-0.0558 -0.14649,-0.0901 -0.12284,-0.0376 -0.0881,-0.006 -0.089,0.007 -0.0928,0.0201 -0.0398,0.003 -0.11288,-0.0113 -0.039,-0.0107 -0.0661,-0.0356 -0.1274,-0.0856 -0.12175,-0.0993 -0.0589,-0.0438 -0.0613,-0.0359 -0.0252,-0.0105 -0.0337,-0.0183 -0.0964,-0.0114 -0.10495,0.0271 -0.0723,0.0463 -0.0824,0.0745 -0.27184,-0.0135 -0.18402,0.15817 -0.32851,0.0933 0.0458,0.57511 0.0167,0.28481 -9e-4,0.14878 -0.007,0.14402 -0.14671,0.22217 0.12835,0.35149 0.0285,0.35804 -0.007,0.0638 -0.003,0.20976 0.005,0.1419 -0.006,0.0698 -0.002,0.0743 -0.0266,0.13143 -0.0271,0.0638 -0.0326,0.0569 -0.0758,0.074 -0.0309,0.0161 -0.0669,0.0399 -0.0862,0.0277 -0.0376,0.008 -0.037,0.0154 -0.0656,0.041 -0.0593,0.0506 -0.10556,0.11822 -0.11986,0.22089 -0.0836,0.14916 -0.0977,0.13736 -0.0512,0.0576 -0.0592,0.0518 -0.0675,0.0463 -0.0778,0.0339 -0.19867,0.0493 -0.003,-0.0336 -0.0541,0.0308 -0.0619,0.0318 -0.12356,0.0378 -0.12355,0.0241 -0.38668,0.003 -0.24565,0.0191 -0.0734,0.019 -0.0608,0.0309 -0.0661,0.0398 -0.1056,0.10372 -0.0581,0.065 -0.098,0.12408 -0.10393,0.12455 -0.0584,0.0517 -0.062,0.0395 -0.0663,0.0374 -0.0677,0.0202 -0.0811,0.006 -0.0834,-0.008 -0.11603,0.1936 -0.10162,0.008 -0.31606,0.23533 -0.36873,0.45827 -0.0525,0.0512 -0.1128,0.0978 -0.13342,0.0648 4.80334,0.38293 -0.0572,0.0149 0.0203,0.0707 0.0107,0.13416 -0.0146,0.13654 -0.0405,0.12646 -0.0327,0.0638 -0.0336,0.0578 -0.0389,0.0566 -0.0475,0.0529 -0.11263,0.0906 -0.13398,0.0575 -0.0747,0.0256 -0.12252,0.0369 -0.13524,0.0512 -0.0667,0.0326 -0.12234,0.0768 -0.0584,0.0525 -0.10511,0.10973 -0.0775,0.1362 -0.025,0.0761 -0.0188,0.0833 -0.005,0.0887 -10e-6,0.10356 0.003,0.0324 -0.01,0.0959 -0.0198,0.0709 -0.0269,0.0625 -0.0735,0.12138 -0.0726,0.12815 -0.0308,0.0645 -0.0546,0.1328 -0.0116,0.0751 -0.007,0.0699 0.01,0.12053 0.0479,0.12643 0.029,0.0445 0.0232,0.0466 0.0687,0.0777 0.0695,0.0687 0.0804,0.0546 0.17576,0.0814 0.34711,0.1358 0.0794,0.0418 0.0673,0.0504 0.0334,0.0296 0.0546,0.0651 0.0463,0.0782 0.0164,0.0459 0.0204,0.10118 0.0119,0.0736 0.0359,0.14591 0.0253,0.0734 0.0551,0.13192 0.0609,0.12502 0.12644,0.24283 0.0544,0.12352 0.0488,0.13361 0.0538,0.12477 0.077,0.10161 0.0612,0.0585 0.0607,0.0424 0.0737,0.041 0.14381,0.0706 0.14548,0.0632 0.13894,0.0847 0.0617,0.0508 0.0604,0.0622 0.0514,0.0713 0.0691,0.15824 0.0581,0.24089 0.006,0.0809 v 0.16968 l -0.006,0.0823 -0.0362,0.16642 -0.0643,0.14725 -0.046,0.0717 -0.051,0.0648 -0.0586,0.0594 -0.0658,0.0531 -0.0592,0.14081 -0.0814,0.22435 0.006,0.0749 -0.002,0.0683 -0.007,0.0679 -0.0593,0.19643 -4.92514,-0.2376 -0.0619,0.20148 -0.0117,0.0694 -2.5e-4,0.15718 0.012,0.0809 0.028,0.0929 0.0338,0.13278 0.0256,0.1479 0.0302,0.14837 0.0373,0.13855 0.0223,0.0591 0.0299,0.0601 0.0638,0.0768 0.0199,0.0194 0.0537,0.0353 0.0971,0.0348 0.04,0.003 h 0.0809 l 0.10757,-0.008 0.12688,0.004 0.0627,0.007 0.13622,0.0317 0.11854,0.0589 0.0734,0.0559 0.0434,0.051 0.0303,0.0649 0.0258,0.10761 0.003,0.0401 -0.0125,0.14442 -0.008,0.0611 v 0.0681 l 0.006,0.0741 0.011,0.0677 0.069,0.30171 0.0284,0.14005 0.0114,0.14298 v 0.0673 l -0.0184,0.0977 -0.009,0.0269 -0.0166,0.0356 -0.0609,0.10025 -0.0393,0.0712 -0.0514,0.14019 -0.0408,0.13213 -0.0204,0.139 -0.009,0.13573 -8.1e-4,0.13627 -0.0106,0.27202 -0.007,0.0638 -0.0135,0.0752 -0.05,0.16711 -0.0311,0.0838 -0.0371,0.0847 -0.0438,0.0852 -0.0449,0.0708 -0.0524,0.0665 -0.0583,0.0581 -0.0296,0.0233 -0.0607,0.0321 -0.031,0.0101 -0.0692,0.005 -0.0322,-0.005 -0.0379,-0.01 -0.0734,-0.0426 -0.0731,-0.0624 -0.13221,-0.13196 -0.13669,-0.12679 -0.14213,-0.11064 -0.1404,-0.11239 -0.14115,-0.0982 -0.29226,-0.16666 -0.14991,-0.0625 -0.0718,-0.0359 -0.0745,-0.0422 -0.0666,-0.042 -0.0662,-0.0505 -0.0548,-0.0489 -0.0551,-0.0578 -0.0483,-0.0567 -0.0369,-0.0592 -0.0306,-0.0649 -0.0177,-0.0675 -0.009,-0.0267 -0.005,-0.0665 0.006,-0.0698 0.0153,-0.062 0.016,-0.0347 0.0386,-0.0659 0.0527,-0.0573 0.0525,-0.0649 0.0394,-0.0647 0.0192,-0.07 0.007,-0.0686 0.002,-0.0682 -0.0251,-0.14151 -0.0233,-0.0723 -0.13001,-0.35821 -0.0193,-0.0726 -0.0102,-0.12776 -0.002,-0.11027 -0.0142,-0.0932 -0.009,-0.04 -0.046,-0.098 -0.042,-0.0523 -0.0209,-0.0185 -0.0804,-0.0554 -0.0577,-0.0282 -0.2552,-0.0962 -0.0659,-0.0231 -0.0594,-0.0357 -0.0535,-0.0373 -0.0544,-0.0433 -0.0403,-0.0448 -0.0738,-0.0479 -0.0337,-0.0183 -0.0641,-0.01 -0.0253,0.002 -0.0547,0.0187 -0.0771,0.0616 -0.0531,0.0577 -0.046,0.058 -0.0967,0.13043 -0.0526,0.0585 -0.0597,0.0453 -0.0309,0.0169 -0.0366,0.0158 -0.0666,0.0189 -0.0767,-0.008 -0.0457,-0.009 -0.046,-0.0182 -0.0461,-0.0238 -0.0448,-0.0175 -0.0704,-0.0135 -0.0696,0.005 -0.0309,0.0161 -0.0245,0.007 -0.0479,0.0384 -0.0405,0.0515 -0.0797,0.1138 -0.0719,0.13656 -0.0911,0.11629 -0.0822,0.0676 -0.031,0.0157 -0.0741,0.0195 -0.0882,0.007 -0.0959,-0.0195 -0.0459,-0.0118 -0.0777,-0.0346 -0.0683,-0.0483 -0.0347,-0.0319 -0.0488,-0.0631 -0.0491,-0.0715 -0.16438,-0.30073 -0.043,-0.0656 -0.0489,-0.0635 -0.0274,-0.024 -0.059,-0.0446 -0.0738,-0.0325 -0.0826,-0.0218 -0.0514,0.004 -0.70563,0.0275 -0.20532,-0.0247 -0.0705,-0.0155 -0.17637,-0.0608 -0.0435,-0.0103 -0.0449,-0.004 -0.0875,0.007 -0.0445,0.0107 -0.0853,0.034 -0.0917,0.047 -0.0784,0.0553 -0.23443,0.14597 -0.0666,0.0334 -0.0697,0.0187 -0.0242,0.002 -0.0247,-0.005 -0.0271,-0.0108 -0.0271,-0.0201 -0.0423,-0.0564 -0.0312,-0.0866 -0.0307,-0.12737 -0.0157,-0.68666 -0.0126,-0.0732 -0.003,-0.0344 -0.009,-0.0255 -0.0133,-0.0211 -0.009,-0.0175 -0.0146,-0.0142 h -0.004 l -0.007,-0.007 -0.0264,0.002 -0.0121,0.008 -0.0188,0.008 -0.0214,0.0226 -0.0544,0.0647 -0.11005,0.17941 -0.0525,0.0653 -0.0453,0.066 -0.0592,0.051 -0.1126,0.10507 -0.11236,0.0893 -0.23964,0.16976 -0.10657,0.0961 -0.052,0.0524 -0.052,0.0576 -0.0403,0.058 -0.0383,0.0646 -0.0216,0.0625 -0.0257,0.13821 -0.002,0.0682 0.0113,0.14237 0.0323,0.14739 0.0604,0.2931 0.017,0.14335 0.003,0.11336 -0.003,0.0498 -0.0195,0.0757 -0.0326,0.0569 -0.0244,0.0224 -0.0232,0.0151 -0.0556,0.0261 -0.0304,0.009 -0.0698,0.0119 -0.0692,0.005 -0.15125,0.005 -0.0756,0.006 -0.14122,0.0372 -0.0668,0.0399 -0.0299,0.0297 -0.0236,0.028 -0.0439,0.0788 -0.29476,0.0983 -0.15335,-0.0163 -0.15014,0.005 -0.0695,0.0203 -0.0695,0.0114 -0.0685,0.005 -0.07,-0.009 -0.0694,-0.001 -0.20018,-0.0449 -0.26532,-0.0821 -0.13562,-0.0241 -0.0639,-0.008 -0.0701,-8.2e-4 -0.0441,-0.004 -0.0801,0.0195 -0.0366,0.0158 -0.0596,0.0465 -0.0536,0.0513 -0.0453,0.0656 -0.11563,0.2129 -0.0399,0.0639 -0.0609,0.0865 -0.0237,0.0224 -0.0315,0.023 -0.0298,0.016 -0.0607,0.018 -0.0756,0.006 -0.0911,-0.0203 -0.11075,-0.0458 -0.40177,-0.20127 -0.0656,-0.0199 -0.0706,-0.0167 -0.0765,-0.007 -0.0691,-0.002 -0.075,0.0131 -0.0745,0.0183 -0.0733,0.0339 -0.0785,0.0533 -0.0767,0.0616 -0.0751,0.0864 -0.0422,0.044 -0.0518,0.0451 -0.10106,0.076 -0.22987,0.14684 -0.10692,0.0776 -0.0532,0.0509 -0.079,0.1077 -0.0333,0.0711 -0.0266,0.0702 -0.0171,0.0904 -0.004,0.0346 -0.0167,0.0351 -0.01,0.0342 -0.0144,0.0358 -0.0172,0.0288 -0.0483,0.0569 -0.028,0.0243 -0.059,0.0441 -0.0669,0.0399 -0.0684,0.0251 -0.0801,0.0191 -0.0817,0.0136 -0.0811,0.006 -0.16584,-0.0133 -0.0834,-0.0221 -0.0782,-0.027 -0.0729,-0.0354 -0.0734,-0.0426 -0.0478,-0.0358 -0.0242,-0.0118 -0.0199,-0.006 -0.0269,-0.004 -0.0177,-0.006 -0.0696,0.005 -0.10854,0.0572 -0.13665,0.11822 -0.10058,0.0961 -0.11818,0.10549 -0.13733,0.10499 -0.0959,0.0703 -0.0702,0.0728 -0.0446,0.0651 -0.0222,0.0364 -0.009,0.0329 -0.0172,0.0287 -0.004,0.0358 -0.0134,0.0619 0.004,0.0541 -0.002,0.0546 0.0148,0.10081 -0.003,0.0486 0.002,0.0268 -0.0112,0.0198 -0.0148,0.0443 -0.0111,0.0206 -0.0651,0.0522 -0.0669,0.0399 -0.0626,0.0182 -0.0686,0.013 -0.14404,0.0112 -0.29756,0.002 -0.14333,0.0248 -0.062,0.0161 -0.0846,0.0481 -0.0292,0.0232 -0.0247,0.0233 -0.0221,0.0275 -0.0177,0.036 -0.0212,0.0351 -0.016,0.0351 -0.0155,0.0504 -0.0662,0.2691 -0.04,0.14656 -0.025,0.0765 -0.0322,0.0706 -0.0331,0.0646 -0.0392,0.0575 -0.041,0.0443 -0.053,0.0444 -0.025,0.0157 -0.0992,0.029 -0.0315,-0.005 -0.0376,0.003 -0.0831,-0.0133 -0.0197,0.14298 -0.16873,-0.0542 -0.35375,-0.22394 -0.32783,0.0924 -0.0294,0.0309 -0.0598,0.0441 -0.0916,0.0494 -0.13676,0.0227 -0.069,-8.2e-4 -0.13579,-0.0168 -0.14056,-0.0298 -0.20384,-0.0249 -0.0696,0.005 -0.0634,0.0126 -0.0293,0.008 -0.0309,0.0157 -0.12327,0.037 -0.15223,0.0118 h -0.0828 l -0.0756,-0.009 -0.0771,-0.0137 -0.13497,-0.0443 -0.0288,-0.0187 -0.0397,-0.0376 -0.029,-0.0441 -0.008,-0.0284 -0.002,-0.0272 0.004,-0.0257 0.01,-0.0354 0.0171,-0.0291 0.0156,-0.0351 0.0294,-0.0357 0.15701,-0.16816 0.0293,-0.0369 0.0223,-0.0352 0.0154,-0.0371 0.0168,-0.0335 0.005,-0.0278 0.002,-0.0356 -0.002,-0.026 -0.0168,-0.0607 -0.0798,-0.13647 -0.0847,-0.10946 -0.0369,-0.064 -0.0318,-0.0656 -0.009,-0.0412 -0.0105,-0.033 -0.007,-0.0873 0.0131,-0.0893 0.0153,-0.0568 0.0212,-0.0484 0.0355,-0.10431 0.0128,-0.0832 -0.005,-0.0613 -0.0298,-0.0453 -0.0204,-0.0113 -0.0186,-0.0131 -0.026,-0.0109 -0.027,-0.005 -0.0622,-10e-4 -0.31451,0.0245 -0.0831,3e-5 -0.11487,-0.0128 -0.0375,-0.01 -0.0332,-0.0119 -0.0534,-0.0358 -0.0274,-0.0249 -0.0423,-0.066 -0.032,-0.0721 -0.018,-0.0655 -0.005,-0.0687 0.002,-0.14316 0.0208,-0.14266 0.006,-0.071 0.002,-0.067 -0.0108,-0.13537 -0.01,-0.0339 -0.0142,-0.0331 -0.0155,-0.0254 -0.0147,-0.0335 -0.0282,-0.0248 -0.0209,-0.0318 -0.0666,-0.0504 -0.0739,-0.0491 -0.0979,-0.0307 -0.0641,-0.01 -0.0249,0.002 -0.11122,0.0236 -0.0555,0.0228 -0.28549,0.15842 -0.0601,0.0256 -0.0673,0.025 -0.0751,0.0123 -0.0774,0.006 -0.0429,-0.003 -0.0844,-0.0204 -0.0395,-0.0167 -0.0662,-0.036 -0.0601,-0.0497 -0.0544,-0.0574 -0.0436,-0.0587 -0.1331,-0.16656 -0.0413,-0.0439 -0.0269,-0.0181 -0.0265,-0.0125 -0.0265,-0.0181 -0.0572,-0.008 -0.0707,0.005 -0.0363,0.009 -0.0432,0.0167 -0.144,0.087 -0.0858,0.0466 -0.0425,0.017 -0.0374,0.0102 -0.0629,0.005 -0.0326,-0.005 -0.032,-0.0112 -0.0589,-0.0293 -0.10258,-0.0936 -0.0495,-0.0578 -0.099,-0.1285 -0.0479,-0.0563 -0.0611,-0.0577 -0.061,-0.0424 -0.0326,-0.0184 -0.0403,-0.017 -0.0369,-0.0116 -0.0397,-0.01 -0.0441,-0.004 -0.0882,0.007 -0.0448,0.0108 -0.0362,0.0105 -0.0367,0.0145 -0.0607,0.0329 -0.0537,0.0457 -0.0525,0.0504 -0.0396,0.0575 -0.0868,0.10951 -0.0389,0.0574 -0.0475,0.0521 -0.0519,0.0447 -0.0552,0.0305 -0.0365,0.0169 -0.0686,0.0186 -0.0435,0.003 -0.0887,8.2e-4 -0.10921,-0.0125 -0.10372,-0.0326 -0.0389,-0.0231 -0.0404,-0.0178 -0.0541,-0.0578 -0.0274,-0.0249 -0.0156,-0.0262 -0.0537,-0.12437 -0.0338,-0.18839 -0.009,-0.0255 -0.0148,-0.0258 -0.007,-0.0216 -0.0285,-0.0377 -0.0197,-0.0122 -0.0524,-0.0229 -0.032,0.002 -0.0388,-0.003 -0.0914,0.0136 -0.11882,0.0362 -0.0928,0.0334 -0.0418,0.0254 -0.0297,0.022 -0.0287,0.0296 -0.0305,0.0221 -0.0235,0.0292 -0.0164,0.0287 -0.0264,0.0637 -0.0112,0.10363 0.009,0.10854 0.018,0.0655 0.0264,0.0733 0.03,0.071 0.0363,0.0661 0.0798,0.12314 0.11314,0.16045 0.0313,0.0596 0.022,0.06 0.0192,0.0666 0.0115,0.0599 0.0108,0.13577 -8.2e-4,0.0754 -0.0447,0.56684 -8.2e-4,0.0633 -0.0407,0.19901 -0.086,0.2654 -0.0345,0.13163 -0.0202,0.0705 -0.0194,0.21347 0.006,0.0741 0.0227,0.13929 0.0121,0.15138 v 0.0741 l -0.007,0.0751 -0.0135,0.0756 -0.0141,0.068 -0.0242,0.0772 -0.0279,0.0638 -0.0375,0.065 -0.0471,0.0573 -0.0517,0.052 -0.0538,0.0441 -0.0741,0.0332 -0.0738,0.0275 -0.0876,0.0141 -0.0435,0.003 -0.0734,0.0186 -0.0321,0.015 -0.083,0.0681 -0.0612,0.0878 -0.0339,0.0631 -0.0843,0.21086 -0.0659,0.12684 -0.0695,0.0812 -0.0298,0.0156 -0.0293,0.0224 -0.0314,0.01 -0.0369,0.0166 -0.13809,0.0107 -0.0635,-0.003 -0.0615,0.0124 -0.12478,0.0367 -0.26337,0.10231 -0.0617,0.0197 -0.0679,0.0174 -0.0629,0.005 -0.10206,-0.0118 -0.0982,-0.0342 -0.12785,-0.10529 -0.063,-0.0765 -0.0222,-0.0386 -0.0159,-0.0403 -0.0165,-0.0326 -0.0175,-0.074 -0.006,-0.0749 0.002,-0.034 0.0111,-0.0343 0.004,-0.0338 0.0586,-0.13432 0.093,-0.11644 0.0515,-0.0584 0.0573,-0.0524 0.11446,-0.0911 0.10836,-0.0689 0.0546,-0.0389 0.0817,-0.0745 0.0295,-0.0345 0.0216,-0.0436 0.0226,-0.0364 0.0185,-0.0824 0.003,-0.0409 -0.006,-0.0813 -0.01,-0.0476 -0.0146,-0.0383 -0.0667,-0.11852 -0.0511,-0.0778 -0.13757,-0.138 -0.0683,-0.0628 -0.14098,-0.1055 -0.0661,-0.0356 -0.18961,-0.086 -0.13785,-0.0521 -0.14269,-0.0425 -0.14128,-0.0293 -0.28836,-0.0469 -0.14675,-0.009 -0.13961,-0.004 -0.12135,-0.009 -0.0435,-0.0103 -0.0463,-0.0174 -0.0728,-0.0354 -0.0258,-0.0177 -0.0431,-0.0523 -0.0234,-0.0586 -0.009,-0.0327 -0.0122,-0.0684 0.001,-0.0674 -0.005,-0.1431 -0.005,-0.0677 -0.0115,-0.06 -0.0164,-0.0604 -0.0147,-0.0254 -0.0216,-0.0265 -0.0535,-0.0369 -0.0324,-0.0172 -0.0838,-0.0269 -0.0469,-0.0246 -0.0392,-0.0171 -0.0341,-0.0244 -0.0611,-0.0573 -0.0556,-0.063 -0.0873,-0.1415 -0.0693,-0.16064 -0.0691,-0.14333 -0.037,-0.0652 -0.0704,-0.09 -0.0319,-0.0245 -0.0622,-0.0423 -0.0778,-0.0221 -0.0443,-0.0103 -0.0445,-0.004 h -0.0633 l -0.0696,0.005 -0.14365,0.016 -0.29289,0.0514 -0.13958,0.0109 -0.13843,-0.003 -0.0585,-0.0152 -0.0651,-0.0223 -0.10635,-0.0659 -0.0924,-0.11653 -0.0936,-0.14988 -0.19116,-0.33128 -0.0484,-0.0716 -0.0492,-0.0578 -0.0484,-0.0434 -0.0463,-0.0311 -0.0259,-0.005 -0.0435,0.003 -0.0488,0.032 -0.0243,0.0289 -0.0431,0.0791 -0.0487,0.0989 -0.0565,0.0854 -0.0525,0.0645 -0.0514,0.0596 -0.11419,0.0709 -0.0625,0.0246 -0.0548,0.0167 -0.11913,0.023 -0.12506,0.01 -0.18167,0.0278 -0.06,0.0268 -0.12478,0.0367 -0.11812,0.0217 -0.0618,0.005 -0.12791,-0.003 -0.064,-0.009 -0.13419,-0.025 -0.14382,-0.0424 -0.14943,-0.0565 -0.16833,-0.0683 -0.0327,0.003 h -0.0817 l -0.15447,-0.0162 -0.14729,-0.0296 -0.0711,-0.0279 -0.14327,-0.0497 -0.13272,-0.0723 -0.13285,-0.0787 -0.12731,-0.0844 -0.11336,-0.0927 -0.0745,-0.0563 -0.0816,-0.0553 -0.15935,-0.0964 -0.33004,-0.17057 -0.1518,-0.091 -0.13028,-0.11236 -0.0621,-0.0697 -0.0484,-0.0716 -0.0384,-0.0776 -0.0335,-0.0865 -0.0647,-0.25287 -0.25957,-0.0898 -0.14155,-0.0422 -0.14192,-0.0373 -0.1428,-0.0296 -0.13997,-0.0177 -0.0689,8.2e-4 -0.13846,0.0108 -0.0703,0.0103 -0.296,0.0923 -0.34335,-0.11674 -0.14286,-0.0445 -0.13648,-0.049 -0.26241,-0.11619 -0.13738,-0.051 -0.13549,-0.0366 -0.0701,-0.0143 -0.0712,-0.009 -0.21363,0.0166 -0.0324,-0.0112 -0.0389,-0.004 -0.0648,-0.0284 -0.0721,-0.0351 -0.13502,-0.0967 -0.12782,-0.10006 -0.0607,-0.0432 -0.0666,-0.042 -0.0649,-0.0296 -0.0331,-0.0111 -0.064,-0.009 -0.0309,0.002 -0.0629,0.0186 -0.0354,0.0164 -0.0304,0.0225 -0.0346,0.0305 -0.23597,0.29118 -0.13513,0.14672 -0.0649,0.0647 -0.0712,0.0603 -0.0712,0.047 -0.0745,0.0332 -0.0293,0.009 -0.0707,0.005 -0.0307,-0.004 -0.0332,-0.0119 -0.0325,-0.0176 -0.0341,-0.0235 -0.0277,-0.0333 -0.0285,-0.0377 -0.022,-0.0454 -0.0485,-0.11995 -0.0229,-0.0663 -0.0116,-0.0612 -0.0166,-0.1337 -0.0221,-0.27714 -0.0181,-0.14205 -0.0121,-0.0672 -0.0168,-0.066 -0.049,-0.12595 -0.0363,-0.0653 -0.0439,-0.057 -0.0888,-0.0898 -0.0787,-0.0483 -0.0721,-0.0214 -0.0629,0.005 -0.037,0.0102 -0.0297,0.0168 -0.0305,0.0213 -0.0819,0.0817 -0.0524,0.0661 -0.15328,0.21502 -0.0518,0.0592 -0.0591,0.0521 -0.0242,0.0156 -0.0306,0.0157 -0.0296,0.01 -0.0581,0.004 -0.0309,-0.0121 -0.0342,-0.0106 -0.0326,-0.0184 -0.0198,-0.0186 -0.0268,-0.0169 -0.0431,-0.0523 -0.0285,-0.0522 -0.0351,-0.12622 -0.0133,-0.0679 -0.006,-0.0741 -0.005,-0.16321 0.006,-0.15641 -0.006,-0.15551 -0.012,-0.15018 -0.0268,-0.0922 -0.032,-0.0874 -0.0439,-0.0719 -0.0489,-0.0639 -0.0551,-0.0566 -0.0611,-0.0436 -0.066,-0.0344 -0.0707,-0.0219 -0.0713,-0.0166 -0.0698,-0.006 -0.0752,0.006 -0.0688,0.011 -0.0679,0.0262 -0.0615,0.0322 -0.059,0.0441 -0.0519,0.0536 -0.0923,0.0406 -0.12937,0.12491 -0.12362,0.11238 -0.19302,-0.34525 -0.38554,-0.25612 -0.046,-0.004 -0.0368,0.003 -0.0674,0.0185 -0.0672,0.0262 -0.0614,0.0382 -0.10664,0.0905 -0.0991,0.11007 -0.0992,0.10402 -0.0522,0.0504 -0.0545,0.0397 -0.0907,0.0462 -0.0393,0.0103 -0.10532,0.008 -0.0382,-0.004 -0.10744,-0.004 -0.089,0.007 -0.0308,0.008 -0.0596,0.0321 -0.0414,0.0439 -0.0111,0.0206 -0.02,0.0645 -0.0134,0.0619 -0.001,0.0754 0.018,0.3109 8.2e-4,0.0765 -0.001,0.0742 -0.008,0.0341 -0.0317,0.0907 -0.0397,0.0514 -0.0543,0.0514 -0.13679,0.10695 -0.14808,0.12033 -0.1422,0.11906 -0.0579,0.0589 -0.0479,0.0573 -0.0164,0.0295 -0.009,0.0353 -0.0112,0.0283 -0.004,0.0273 0.0174,0.0595 0.0156,0.0262 0.0209,0.0266 0.0336,0.0224 0.0397,0.0328 0.10508,0.045 0.12367,0.0387 0.12903,0.0307 0.26244,0.0412 0.26873,0.0403 0.13447,0.0238 0.13552,0.037 0.0656,0.0154 0.0629,0.009 0.13924,0.004 0.0749,-0.0139 0.2108,-0.0571 0.14028,-0.0585 0.13415,-0.0648 0.25505,-0.13631 0.0613,-0.0245 0.0674,-0.019 0.0683,-0.0126 0.0761,0.001 0.0774,0.008 0.0645,0.0147 0.066,0.0295 0.0804,0.0546 0.0418,0.0503 0.009,0.0283 0.0135,0.0244 0.009,0.0348 -0.003,0.0329 0.003,0.0344 -0.0182,0.0768 -0.0445,0.0853 -0.0679,0.0931 -0.0873,0.1023 -0.12985,0.1189 -0.0592,0.0518 -0.12644,0.0864 -0.0664,0.0314 -0.0613,0.0245 -0.0611,0.0185 -0.0564,0.0116 -0.065,-0.007 -0.0574,-0.0105 -0.0331,-0.0111 -0.0854,-0.0466 -0.0535,-0.0514 -0.0557,-0.065 -0.051,-0.0766 -0.0347,-0.0453 -0.0567,-0.0629 -0.0661,-0.0359 -0.0573,-0.01 -0.0309,0.002 -0.0618,0.0193 -0.038,0.0167 -0.0874,0.0741 -0.0658,0.0668 -0.12647,0.14726 -0.11999,0.15803 -0.11568,0.14641 -0.0509,0.0572 -0.0482,0.0437 -0.10875,0.0641 -0.11768,0.0366 -0.12617,0.01 -0.13115,0.004 -0.26815,-0.0283 -0.12815,-0.0102 -0.17629,0.001 -0.0508,-0.002 -0.0458,-0.011 -0.0711,-0.0279 -0.0557,-0.0505 -0.0358,-0.0589 -0.0404,-0.11211 -0.074,-0.30856 -0.0247,-0.0662 -0.0164,-0.0314 -0.0409,-0.0524 -0.027,-0.0189 -0.0335,-0.0159 -0.032,-0.0112 -0.0822,-0.007 -0.0514,0.004 -0.0557,0.0108 -0.10645,0.008 -0.0333,-0.004 -0.0579,-0.0164 -0.0592,-0.0236 -0.21688,-0.11813 -0.0606,-0.0227 -0.0237,-0.005 -0.058,-0.008 -0.064,0.005 -0.0363,0.009 -0.0674,0.0327 -0.079,0.0468 -0.0818,0.0733 -0.0861,0.10341 -0.12124,0.15169 -0.28969,0.4114 -0.0914,0.12237 -0.10501,0.11092 -0.0534,0.0449 -0.0665,0.0451 -0.13297,0.0797 -0.0355,0.0152 -0.0325,0.01 -0.13139,0.0102 -0.13498,-0.0302 -0.0664,-0.0295 -0.13214,-0.0651 -0.25579,-0.13645 -0.0662,-0.0218 -0.0584,-0.0229 -0.0905,-0.0127 -0.0562,0.004 -0.0551,0.0188 -0.031,0.0149 -0.0529,0.0315 -0.0607,0.0466 -0.22558,0.1864 -0.0602,0.0389 -0.0607,0.0321 -0.0607,0.0184 -0.0689,0.005 -0.0333,-0.004 -0.10476,-0.041 -0.0732,-0.0539 -0.11165,-0.12752 -0.0358,-0.0593 -0.0677,-0.13093 -0.0724,-0.12413 -0.0368,-0.0572 -0.0419,-0.0511 -0.054,-0.0437 -0.0276,-0.0128 -0.0579,-0.0217 -0.0707,-0.008 -0.0364,0.009 -0.0443,0.003 -0.14059,0.0593 -0.10864,0.0701 -0.12555,0.0976 -0.15265,0.13357 -0.11046,0.1178 -0.14433,0.18169 -0.036,0.0375 -0.0828,0.06 -0.11035,0.0441 -0.0683,0.0117 -0.0878,0.0121 -0.0938,0.007 -0.0827,10e-4 -0.0763,-0.009 -0.0777,-0.0214 -0.14492,-0.0705 -0.0666,-0.0419 -0.0605,-0.0497 -0.0502,-0.0569 -0.0565,-0.0835 -0.0307,-0.0661 -0.009,-0.0271 -0.005,-0.0609 0.009,-0.0623 0.0199,-0.056 0.0691,-0.0872 0.0368,-0.0226 0.0584,-0.0517 0.0529,-0.0597 0.0442,-0.0655 0.0278,-0.0691 0.0188,-0.0696 0.014,-0.0692 8.1e-4,-0.0746 -0.01,-0.0347 -0.002,-0.026 -0.009,-0.0328 -0.016,-0.0322 -0.008,-0.028 -0.0368,-0.0576 -0.0259,-0.0189 -0.0215,-0.0257 -0.0534,-0.0353 -0.0651,-0.0227 -0.11514,-0.0116 -0.0874,0.0128 -0.043,0.0106 -0.0365,0.0166 -0.0729,0.0395 -0.0658,0.0531 -0.0654,0.0583 -0.22637,0.25657 -0.11169,0.0978 -0.0557,0.0245 -0.0618,0.0185 -0.0629,-0.009 -0.0331,-0.0111 -0.0325,-0.0176 -0.0342,-0.0251 -0.0336,-0.0312 -0.0711,-0.0835 -0.0417,-0.0584 -0.0626,-0.13657 -0.0355,-0.15883 c -0.25832,0.25589 -0.60375,0.36754 -1.00425,0.18088 l -0.0516,0.11991 c -0.01,0.0221 -0.019,0.0425 -0.0279,0.0571 -0.19811,0.0197 -0.31825,0.15265 -0.52908,0.15641 0.0111,0.53029 0.21201,1.08352 -0.14217,1.39408 -0.3257,0.28635 -0.92598,-0.0389 -0.84488,0.74797 -0.19102,-0.0259 -0.52633,-0.18919 -0.72781,-0.10538 -0.27827,0.11501 -0.17109,0.37265 -0.34019,0.48747 -0.57375,0.38935 -0.74888,-0.19729 -1.31645,-0.10914 -0.0423,-0.29957 0.0317,-0.94784 -0.12473,-1.19963 -0.12412,-0.20012 -0.43484,-0.14376 -0.49391,-0.2344 -0.11399,-0.1754 -0.0453,-0.31082 -0.11481,-0.50123 l -0.19738,-0.53014 c -0.16387,-0.40981 -0.27738,-0.51729 -0.79188,-0.85048 1.11466,-1.25093 -0.20388,-2.67932 -1.52395,-2.79981 l 0.092,-0.32501 c 0.13045,-0.43898 0.31606,-0.86683 0.84315,-0.87929 0.18351,-0.75412 0.123,-1.19475 0.57593,-1.87755 0.37491,-0.56353 1.05081,-1.1151 1.22822,-1.84568 0.0978,-0.39954 -0.0189,-0.86086 0.0597,-1.29136 0.10281,-0.55604 0.24219,-0.459 0.60903,-0.74211 0.55234,-0.42657 1.14691,-1.04302 0.81733,-1.79478 -0.20934,0.0509 -0.35911,-0.0695 -0.54723,-0.0715 -0.18665,-0.3503 -0.28735,-0.77212 -0.19368,-1.19548 0.0425,-0.19 0.21324,-0.44199 0.27849,-0.62734 0.0918,-0.26493 -0.10258,-0.3209 0.19508,-0.47094 -0.41446,-0.64376 -0.78921,-0.28629 -0.89663,-1.21897 l -0.0459,-0.38122 c -0.0759,-0.55358 -0.1816,-0.71606 -0.80509,-0.75576 l -0.13174,-0.006 c -0.71972,-0.0256 -0.93862,-0.22884 -1.45956,-0.75406 -0.36878,-0.37114 -0.63352,-0.44224 -1.05018,-0.59857 l -0.26548,-0.10261 v 0 c -0.003,-0.0961 -0.0496,-0.21953 -0.0514,-0.31677 -0.37673,0.065 -0.7663,-0.42634 -1.07218,-0.6488 -0.48893,-0.35495 -0.40817,-0.41678 -0.67807,-0.95751 -0.36609,-0.0112 -0.70667,-0.0687 -1.04102,-0.21037 0.0221,-0.49316 -1.08856,-1.08361 -0.38058,-1.3651 0.12158,-1.0028 -0.59842,-0.95839 -1.20329,-1.04439 -0.71679,-0.10144 -0.89465,-0.56008 -1.5972,-0.83645 0.11061,-0.16365 0.16162,-0.41807 0.25736,-0.58701 -0.3142,-0.38652 -0.52824,-1.06652 -1.03515,-1.08689 -0.0761,-0.57673 0.32501,-0.62971 0.3679,-1.32461 0.031,-0.4815 -0.44371,-1.41493 0.45511,-1.26892 0.15617,-0.79061 -0.79445,-0.45049 -0.66933,-1.17701 0.0682,-0.39293 0.4618,-0.90037 0.55168,-1.31189 -0.11536,-0.0181 -0.19029,-0.0814 -0.30533,-0.0955 0.0661,-0.22189 -0.15641,-0.13995 0.0167,-0.28862 -0.23463,-0.31707 -0.33117,-0.29486 -0.35567,-0.73718 0.66539,-0.1808 1.13159,0.45343 1.81505,0.40241 l 0.15927,-0.0187 c 0.43568,-0.0611 1.38766,-0.24961 1.43826,-0.43885 l 0.21365,-0.0413 c 0.0767,-0.0134 0.156,-0.024 0.22966,-0.0246 l 0.10519,0.007 0.27375,-0.10834 -0.009,-0.1915 v 0 l 0.0474,-0.002 -0.009,-0.11856 -0.0868,-0.53928 -0.0119,-0.14898 0.0141,-0.14375 0.0184,-0.0695 0.0271,-0.0638 0.0393,-0.0575 0.10396,-0.12414 0.0512,-0.0713 0.0456,-0.0717 0.11403,-0.23292 0.0625,-0.15558 0.0645,-0.15412 0.0703,-0.14771 0.0455,-0.0728 0.0508,-0.0721 0.0518,-0.0641 0.0653,-0.0595 0.0595,-0.20249 0.0371,-0.0984 0.0344,-0.10422 0.0714,-0.37347 0.01,-0.12286 0.0172,-0.10329 0.0314,-0.0714 0.0409,-0.0507 0.0233,-0.0228 0.0315,-0.008 0.0243,-0.0144 0.0304,-0.008 0.0622,-0.0133 0.0707,-0.005 0.14356,-0.0172 0.0683,-0.0126 0.0736,-0.0259 0.0361,-0.0173 0.03,-0.0233 0.0365,-0.0218 0.0635,-0.0678 0.0289,-0.0421 0.0283,-0.0493 0.0266,-0.0565 0.0577,-0.1544 0.0427,-0.15967 0.0855,-0.30002 0.0771,-0.29171 0.0522,-0.13946 0.0592,-0.13558 0.0455,-0.12483 0.0222,-0.0501 0.009,-0.047 0.003,-0.0482 -0.005,-0.0681 -0.0161,-0.033 -0.0279,-0.0442 -0.0265,-0.0128 -0.0266,-0.0185 -0.0275,-0.0116 -0.10805,-0.0118 -0.60864,0.0602 -0.12195,-0.0171 -0.10977,-0.0475 -0.10023,-0.0595 -0.10087,-0.0675 -0.10129,-0.0727 -0.11242,-0.0666 -0.0601,-0.03 -0.0644,-0.0276 -0.13579,-0.045 -0.10946,-0.0249 -0.0917,-0.0275 -0.0721,-0.0351 -0.059,-0.0361 -0.049,-0.0369 -0.0397,-0.0376 -0.0597,-0.0909 -0.0772,-0.1987 -0.0236,-0.0514 -0.0307,-0.052 -0.0353,-0.0529 -0.0424,-0.0575 -0.48392,-0.45237 -0.0558,-0.0654 -0.0487,-0.0619 -0.0441,-0.0651 -0.0617,-0.13947 -0.0197,-0.073 -0.006,-0.0805 -8.1e-4,-0.18369 -0.008,-0.0949 -0.0251,-0.0799 -0.0311,-0.0713 -0.0371,-0.0656 -0.044,-0.0639 -0.0973,-0.11615 -0.10298,-0.10804 -0.0975,-0.11452 -0.0373,-0.064 -0.0362,-0.0738 -0.0261,-0.0733 -0.0118,-0.0869 -0.0367,-0.13214 -0.0243,-0.0602 -0.1768,-0.32031 -0.061,-0.13065 -0.0361,-0.1334 -0.005,-0.0677 0.0104,-0.10477 0.0418,-0.11004 0.17285,-0.37371 0.0564,-0.0862 0.0282,-0.0501 0.0327,-0.0509 0.055,-0.17917 0.11681,-0.0522 0.0353,-0.0225 0.0311,-0.023 0.0226,-0.0219 0.0459,-0.058 0.0172,-0.0279 0.0292,-0.0986 0.0139,-0.07 0.008,-0.0679 -0.0358,-0.59041 -0.0119,-0.14898 -0.0178,-0.15336 -0.0498,-0.31085 4.9e-4,-0.14873 0.007,-0.0687 0.0205,-0.0624 0.0493,-0.0868 0.0465,-0.0507 0.0303,-0.0233 0.0363,-0.0238 0.0359,-0.0153 0.0559,-0.0181 0.0632,-0.011 0.0622,-0.005 h 0.076 l 0.14682,0.01 0.14432,0.002 0.0696,-0.005 0.12373,-0.0358 0.025,-0.0156 0.0402,-0.0451 0.0238,-0.0204 0.026,-0.0637 0.01,-0.0354 0.004,-0.041 0.003,-0.19205 0.004,-0.0382 0.0172,-0.0852 0.01,-0.0354 0.0172,-0.0288 0.0167,-0.0347 0.0231,-0.0292 0.0691,-0.0735 0.12052,-0.0763 0.0679,-0.0262 0.0678,-0.019 0.14299,-0.0244 0.14063,0.002 0.0696,0.008 0.0638,0.016 0.15874,-8.2e-4 0.0896,0.001 0.0889,0.007 0.0418,-0.25592 0.0202,-0.15027 -0.009,-0.0259 0.009,-0.0628 0.0195,-0.0704 0.0148,-0.0358 0.0472,-0.0706 0.051,-0.0656 0.064,-0.0662 0.0646,-0.0594 0.0663,-0.0471 0.067,-0.0374 0.0539,-0.0187 0.057,-0.004 0.0332,0.012 0.008,0.0118 0.0198,0.0182 0.0159,0.0544 0.007,0.0885 -0.007,0.0542 -0.0269,0.13708 -0.0621,0.26395 -0.007,0.0622 0.007,0.0144 9.8e-4,0.0124 0.007,-8.2e-4 8.2e-4,0.006 0.006,-8.2e-4 0.007,-0.007 0.006,-8.1e-4 0.0184,-0.0139 0.2271,-0.30378 0.0698,-0.0872 0.0702,-0.0736 0.0984,-0.0959 0.0734,-0.0331 0.0322,-0.01 0.0309,-0.002 0.0318,0.005 0.0578,0.0156 0.0591,0.009 0.0618,-0.005 0.0578,0.002 0.24331,-0.025 0.0641,10e-4 0.064,0.009 0.12404,0.0387 0.0655,0.0421 0.0624,0.0495 0.0605,0.0642 0.071,0.0827 0.0147,0.025 0.0266,0.0189 0.0401,0.0376 0.0271,0.0116 0.0831,0.0136 0.0634,0.001 0.0629,-0.005 0.27935,-0.0616 0.14335,-0.0245 0.14029,0.003 0.0964,0.0259 0.0325,0.0184 0.003,0.0405 0.33763,0.0213 0.0439,-0.003 0.0674,-0.0189 0.0493,-0.03 0.0176,-0.0235 0.0205,-0.0487 0.005,-0.0201 0.004,-0.035 -0.005,-0.0605 -0.0374,-0.14055 -0.0242,-0.0735 -0.0565,-0.14471 -0.0252,-0.0722 -0.017,-0.068 -0.0124,-0.0804 0.004,-0.0277 v -0.14347 l -0.006,-0.0741 -0.0352,-0.22131 -0.0367,-0.14061 -0.0297,-0.13308 -0.0126,-0.0732 -0.005,-0.0689 0.002,-0.13031 0.0138,-0.0619 0.0212,-0.0625 0.0204,-0.0499 0.0218,-0.0412 0.0237,-0.0365 0.0217,-0.0291 0.0298,-0.0297 0.0253,-0.0157 0.0607,-0.018 0.057,-0.004 0.0331,0.0111 0.0315,0.005 0.0722,0.0278 0.0667,0.0428 0.14081,0.10348 0.14826,0.11219 0.13999,0.0979 0.0659,0.0424 0.0664,0.0295 0.10399,0.0314 0.0832,0.006 0.0689,-0.005 0.0543,-0.024 0.0238,-0.0208 0.0354,-0.0443 0.0304,-0.0834 0.007,-0.0694 5e-5,-0.0745 -0.006,-0.0737 -0.048,-0.28279 -0.0143,-0.1085 -0.005,-0.0669 v -0.0741 l 0.026,-0.16684 0.0185,-0.0832 0.0255,-0.0838 0.031,-0.0766 0.0386,-0.0651 0.0625,-0.0854 0.0244,-0.0229 0.0481,-0.0311 0.032,-0.002 0.0247,-0.009 0.058,0.008 0.032,0.012 0.0673,0.0504 0.11135,0.11424 0.102,-0.3698 0.0452,0.0174 0.0898,0.0132 0.0376,-0.003 0.0675,-0.0182 0.032,-0.017 0.0231,-0.0155 0.0234,-0.0216 0.0181,-0.0224 0.0388,-0.0578 0.0659,-0.12683 0.058,-0.14192 0.04,-0.0712 0.0673,-0.0858 0.0596,-0.0465 0.0742,-0.032 0.044,-0.0119 0.0994,-0.008 0.1281,0.005 0.38814,0.0443 0.12926,0.0194 0.25841,0.005 0.1392,-0.0108 0.05,-0.0112 0.085,-0.0328 0.0421,-0.0307 0.0291,-0.0297 0.0564,-0.0725 0.024,-0.0426 0.036,-0.0846 0.0317,-0.0915 0.0601,-0.27023 0.0355,-0.10431 0.0117,-0.0271 0.0177,-0.0223 0.0171,-0.0162 0.0189,-0.008 0.011,-0.008 0.0119,-9e-4 0.0255,0.005 0.0589,0.0289 0.12405,0.11406 0.12275,0.12585 0.0617,0.0504 0.0595,0.0417 0.0544,0.0441 0.0596,0.0288 0.0591,0.0228 0.0515,0.0169 0.0586,0.0164 0.0507,0.002 0.10644,-0.008 0.0498,-0.01 0.0559,-0.0181 0.049,-0.024 0.0536,-0.032 0.33312,-0.0259 -0.0145,-0.18142 0.0864,-0.18484 0.0298,-0.0305 0.0232,-0.028 0.0481,-0.10573 0.01,-0.0342 0.0134,-0.0764 0.007,-0.0755 v -0.0822 l -0.006,-0.15545 8.2e-4,-0.0754 0.006,-0.075 0.01,-0.0342 0.004,-0.0285 0.0264,-0.0629 0.0239,-0.0293 0.0153,-0.0294 0.0299,-0.0285 0.0305,-0.0221 0.0794,-0.042 0.0977,-0.0285 0.34457,0.11786 0.32762,-0.0996 0.30111,-0.0234 0.15306,-0.15658 0.0756,-0.006 0.0686,-0.0178 0.0291,-0.016 0.0303,-0.0233 0.0542,-0.0385 0.0525,-0.0512 0.13772,-0.16586 0.0459,-0.0592 0.0465,-0.0508 0.0549,-0.0442 0.0297,-0.0168 0.0303,-0.014 0.0297,-0.0172 0.0697,-0.0187 0.0376,-0.003 0.0747,0.008 0.0983,0.0258 0.0321,0.0124 0.0378,0.01 0.0833,0.007 0.0882,-0.007 0.0938,-0.021 0.093,-0.027 0.0977,-0.0338 0.17594,-0.0903 0.0717,-0.0539 0.0713,-0.0591 0.099,-0.11528 0.009,-0.0366 0.021,-0.0564 -0.003,-0.0344 -0.0162,-0.0532 -0.0156,-0.0262 -0.13868,-0.15202 -0.10566,-0.14169 -0.088,-0.13662 -0.0303,-0.0653 -0.0235,-0.0594 -0.009,-0.0339 -0.005,-0.0665 0.005,-0.0225 0.0359,-0.0427 0.0231,-0.002 0.0196,-0.008 0.0314,0.004 0.0313,-0.002 0.0776,0.0202 0.10431,0.0402 0.33925,0.0417 0.1709,-0.37476 -0.057,-0.10477 -0.0144,-0.0113 -0.008,-0.0192 0.12437,-0.18779 -0.0318,-0.3989 0.006,-0.0154 0.008,-0.0401 0.0116,-0.0283 0.0592,-0.10737 0.0681,-0.1133 z"
     id="munich"
     fill="#8f8f8f"
     fill-rule="nonzero"
     style="stroke:#000000;stroke-width:0.5" />
 </svg>
