<svg>
  <path d="M221.7 192.3v.2h.2v.2h.1v.4l-.1.1v.1h-.1V193.7h.2l.1.1.8.2h.3l.2.1.2.1h.1v.5l-.1.1v.2h-.1v.7h.1l.2.1v.1h.1v.2h.1v.5l-.1.1-.1.1H223.4l-.3-.4-.1-.1h-.4v.8H222.3l-.3-.7-.1-.1-.2-.2-.2-.1-.1-.1H221.1v.1l-.1.1v.5l-.1.1v.1h-.1v.1h-.2v.1h-.1l-.1.1v1.3l.1.5V199.7h-.1l-.1.1-.1.1H219.6v.1l-.1.1v.5l.1.1h.7v.1h.1v.1h.1v.4h-.1l-.1.4v.2h.1l.1.1v.2l-.1.2-.3.1h-.2v.2l-.1.1v.1l.1.1.1.1.2.2h.1V204l-.1.3v.7h.1v.1h.1l.3.3h.1v.1h.1l.1.3v.2l.2.3v.3l.1.3v.1h.1v.2h.2v.1l.3.2.2.1v.2h.1v.1l.1.2.1.5v.2l.2.2v.6l.1.3v.7l-.1.1v.1l-.2.1v.1h-.2l-.2.1-.2.1v.1l-.1.1v.1l-.1.1h.4l.4.3v.1l.2.1h.5v.1h.1v.8H224.5v.1l.1.1V214h.1l.1.1h.5v.1l.1.1v.6h.1v.1h.1v.1h.4l.3-.2h.4v.1h.2l.3.1H227.4l.2.1v.1-.2h.1v-.1h.2l.1.2h.2l.2.4.3.3.2.3.1.1h.1v.1h.1V214.9h.1v-.1h.2l.1.2h.1l.3.5.2.2.1.1h.1l.2.1h.2v.2h.6v1l-.2.4v.4h.1l.4-.2.2-.1v-.1h.2v-.2h.1v-.2l.1-.3V216.5l.2-.1.1-.1H233.3v.1h.2l.1-.1v-.1h.1v-.2l.2-.1.1-.2.3-.3.2-.2-.1-.1v-.1h-.1v-.4h.1v-.2h.1v-.1l.1-.2v-.5l-.1-.1v-.6l.1-.3v-.7l-.1-.3v-.6l-.1-.1v-.1h-.1l-.4-.3-.1-.1v-2.2l-.2-.2-.2-.2-.1-.1-.1-.1-.1-.2V207l.1-.1h.1v-.1h.1l.1-.1v-.1l.2-.1v-.1l.1-.1.1-.1h.2v-.1H234.4v.1l.2.1.1.2.1.1h.5v-.6h.1l.1-.1h.4l.3.1.2.2H236.6v.1l.1-.2h.5l.1.3.1.1.2.1v.1H239v-.8l-.2-.2V204.6l.2-.1.3.3.2.1v-.1H240.3V203.8l.1-.1.1-.1h.1l.2-.1h.1v-.3l.1-.2v-.4h-.1V201.8l.1-.2v-.1h.1v-.1h.2v-.1h.1l.5.1h.9l.2-.2v-.1h.5l.3-.4.1-.3v-.4h.1v-.1h.1v-.5l-.1-.1v-.5h.4l.4.2h.2l.1.1h.8l.2.2.2.2V200l.2.2.2.1.2.2h.2v.1h.1V201.3l.1.2v.1l.1.1.1.1h.1l.4.2.1.1.1.1v.2l.4.4h.6l.1.1h.2v.2h.1l.1.1.1.1v.2l.1.1v.7h.1v.2h.1l.2.2v.1h.2v.1h.4v-.1l.1-.2v-.1l.1-.1H251.6l.1.1h.2v-.1l.1-.1v-.5l-.1-.1h-.6l-.2-.2-.2-.2-.1-.1v-.5l.2-.2v-.1h.1l.1-.1.1-.1h.1v-.2h.1l.1-.2v-.2h.5l.1.2h.1v.1l.2.2v.1h.1v.1h.5l.1-.2H253.5l.1.2h.1v.1l.2.1h.5l.1-.1.1-.1h.2l.1.1h.1v.1l.1.2v.4h-.1v.4h.7v-.1h.1v-.2l.1-.2V201l-.1-.1v-.2h.1v-.1l.3-.3v-.1l.1-.1v-.2h.1v-.1h.1v-.1H257.3v.1h.2v.1l.1.1v.2l.1.2V201.2h.2l.1.1h.1v.2l.1.1V202h.1v.1H258.6l.4-.2H259.5l.1-.1.1-.2.1-.3h.1v-.1H260.3l.1.1v.1l.2.2v.1h.1v.1h.2l.1.1.1-.2v-.2h.1l.1-.1.2-.1H262.9l.1.1h.1v.2l.1.2v.4h.1v.2l.1.2.1.1h.1v.1l.2.1.3.1.5.2.1.1.1.1.1.1v.2l-.1.2v.1l-.1.2v.4h.1v.1h.2v.1h.2v.2h.1v1.1l.1.1v.1l.1.1.3.2v.2l.1.1h.4v.1l.2.3.1.1v.1h.6l.1.2.1.2.1.2h.4l.1.1.1.1v.1l.1.2v.1l.1.2h.1l.1.1h.4v.1l.1.1v.6h-.2l-.2.1v.1h-.1v.7l-.1.1V211.4l-.1.1v.2l-.3.4v.2h-.1v.5h.1l.1.2h.1l.2.2h.1v.1l.1.1.1.2v.1h.1v.5l.1.1.3.3v.1h.1V215.8h.1v.1h.5v.1h.2v1.2h1v.6l.1.1v.1h.1v.1h.1v.1h.1v.2l.2.4v.1l.1.2h.1l.2.2h.1l.2.1h.5v-.1l.1-.3.1-.1.1-.1H273.5v.1l.1.1v.5l.2.1.1.1h.1l.3.2h.1l.2.1v.1h.1l.1.1.4.3h.1l.1.1v.1l.1.2V221l.1.1v.1l.1.1v.2l.2.1.1.3 3.4-2.7.1.2h.7l.2.2h.1v.1h.1l.1.2v.2h.2l.2.5v.2l.2.1v.2h.1l.1.1.1.1V221.7h.1v.2h.1l.1.1.2.2h.2l.1.1h.5v-.1h.1v-.1h.4l.1.1.1.1.1.2v.4l.1.1v.2h.1v.1h.1v.1h1l.1.1v.1l.1.1v.3l.1.1v.2h.1l.2.2.3.3.1.1v.2l-.2.1h-.1v.2h-.1V225.8l-3.1 3v.2l.1.2v.1l.2.6v.8l-.1.2v.5l-.1.2-.1.1-.3.4-.1.1-.2.1v.1h-.3l-.1-.1-.2-.2-.4-.3-.2-.1h-.5l-.1-.1-.2-.1v-.1h-.2v-.1H279.2l-.1.1h-.3l-.2.2h-.3v1.2l-.1.2.1.4v1.1l-.1.1h-.1l-.1.1h-.1l-.1.1-.1.1-.1.3-.1.1-.1.2h-.1v.1h-.4v.1H276.2l-.3.1h-.1v.1l-.2.1-.1.2-.1.1-.2.1h-.2l-.2.3-.4.2-.4.5-.1.1h-.2l4.8.5v.5h-.1v.1l-.2.2H278l-.2.1-.2.1-.1.2v.1l-.1.1v.4l-.1.1v.2l-.1.1-.1.2v.4l.1.2h.1l.3.2.3.1h.2V241.6h.1V241.8l.1.1v.1l.1.2.1.2v.1l.1.2h.1v.2h.1l.2.1.1.1h.2l.1.1v.1h.1v.1l.1.2.1.2v.5l-.1.2-.1.1-.1.1v.2l-.2.2v.4l-5-.2v.8l.1.2v.2l.2.1.1.1H275.3l.1.1.1.1v.6l.1.3v.7l-.1.2v.5l-.1.3V249.8h-.1v.2l-.1.1-.1.1-.1.1H274.5v-.1l-.2-.1-.1-.2h-.2v-.2h-.2l-.3-.3h-.2l-.1-.1h-.2v-.2h-.1v-.1l-.1-.1V248.5l.1-.1.1-.2V248l-.1-.4v-.4h-.1v-.2h-.1v-.1h-.1l-.3-.1h-.1v-.1h-.1v-.1h-.4l-.1.1-.1.1v.1h-.1l-.1.1h-.5l-.2.1v.2h-.1l-.1.2h-.4v-.1h-.1v-.1h-.1l-.2-.4v-.1h-.1l-.1-.1h-1.1l-.2-.1h-.4l-.1.1-.2.2H267.2V246.5l-.1-.7v-.1h-.2l-.1.2v.1h-.1v.1l-.2.1-.1.1-.2.2h-.1l-.1.1v.1l-.1.1V248.3h-.2l-.2.1H265.2v.1l-.1.1-.3.1H263.9l-.2-.1h-.5v.1h-.1l-.1.3-.1.1h-.1v.1h-.4l-.4-.3h-.5v.1h-.1v.2h-.1l-.2.1-.2.2h-.1v.1l-.2.1v.4h-.1v.1h-.2v.1h-.7v-.1h-.4l-.1.1-.1.1-.2.1v.1l-.2.1-.1.1v.6h-.2v.1h-.8v.1h-.1v.1h-.1v.4l-.1.2v.1h-.1v.1h-.1v.1H256.6v.2h-.2l-.4-.3-.3.1-.2.1H254V252.2l.2-.2.1-.1V251.6l-.2-.1v-.8H253.2v-.1l-.1-.1V249.8l-.1-.1-.1-.1h-.4l-.3.2h-.5v-.1h-.1v-.1l-.2-.2h-.5l-.1.1h-.2l-.1-.1-.2-.2v-.1h-.1l-.1-.1h-.4l-.1.1-.1.2-.1.1h-.1v.1h-.5l-.1-.1-.1-.2v-.2h-.1v-.1h-.4l-.1.1h-.1v.6l.1.2.2.1v1.3l-.1.3v1l-.1.2-.1.1-.1.1h-.1l-.2.1h-.1v.1l-.2.1v.3l-.1.1h-.1v.1h-.4l-.1.1-.3.1H246l-.2-.1v-.1h-.1v-.5h.1v-.2h.2l.2-.2.1-.1v-.5l-.2-.2-.2-.2-.3-.1h-.1l-.1-.1h-.8v-.1h-.2l-.1-.1v-.5h-.1v-.1l-.1-.1h-.2v-.1l-.1-.1-.1-.2-.1-.1v-.2h-.1v-.1h-.1l-.1-.1H242l-.1-.2-.1-.1-.2-.3v-.1l-.1-.1h-.2v.1l-.1.1-.1.1v.1h-.2v.1h-.5v.1H239.4l-.2-.1h-.4v-.1h-.2l-.2-.1v-.1h-.2l-.1-.2h-.1l-.2-.2-.4-.2h-.1l-.2-.2v-.1h-.1v-.2l-.1-.2-.3-.1h-.2l-.2-.1h-1.2l-.1-.1-.3-.1-.1-.1h-.6l-.1-.1-.2-.1v-.1h-.1l-.1-.1H233.1l-.3.3-.1.2h-.1v.1h-.5v-.2h-.1v-.7l-.1-.1v-.2h-.1l-.1-.2H231.4l-.1.1-.2.3-.1.1H230.7v-.1l-.1-.2v-.8l-.1-.1-.1-.1v-.1h-.1l-.2-.1H229.9l-.1.1-.2.1-.1.1-.1.1-.2-.3-.4-.3h-.2v.1l-.2.1v.1l-.2.1-.1.1h-.5v.1h-.1V246.6h-.1l-.2.2h-.1l-.2.2v.1h-.1V247.4h.2l.1.1h.4l.3.1H228v.1h.5l.1-.1h.2l.2-.2h.6v.5h-.1l-.2.2-.2.1v.1h-.4l-.1-.1-.1-.1-.1-.1h-.4l-.1.2-.2.2v.1h-.1v.1l-.2.1H226.4v-.1l-.1-.1-.1-.4v-.1h-.6l-.2-.2h-.4l-.1.1v.1l-.2.2-.3.4-.1.1-.1.1-.1.1-.2.1h-.4l-.3-.2h-.5l-.2.2h-.1l-.1.1H222l-.1-.2-.1-.2v-.1h-.1v-.1h-.1l-.1-.1H221.1l-.1.1-.1.1-.2.2h-.1l-.1.3h-.2l-.1.1h-.6v-.1h-.1v-.1l-.1-.1v-.4h.1v-.1h.1v-.6h-.6v.1l-.3.3h-.1v.1H218.3v-.2h-.1v-.2l-.1-.1c-.3.2-.6.4-1 .2l-.1.1-.5.2c0 .5.2 1-.2 1.4-.3.3-1 0-.8.7-.2 0-.6-.1-.8 0-.2 0-.1.3-.3.4-.6.4-.7-.2-1.3 0l-.1-1.3c-.2-.2-.5-.1-.5-.2l-.1-.5-.2-.6c-.2-.4-.3-.5-.8-.8 1-1.3-.2-2.7-1.6-2.8l.1-.3c.2-.5.4-.9.9-1 .2-.7.1-1.1.6-1.8.3-.5 1-1.1 1.2-1.8v-1.3c.1-.6.3-.5.7-.8.5-.4 1.1-1 .8-1.8h-.6c-.2-.4-.3-.8-.2-1.2l.3-.7c.1-.2-.1-.3.2-.4-.4-.7-.8-.3-.9-1.2v-.4c-.1-.6-.2-.7-.8-.8h-.2c-.7 0-1-.2-1.4-.7-.4-.4-.7-.5-1-.6l-.4-.1v-.4c-.4.1-.8-.4-1-.6-.6-.4-.5-.4-.8-1-.3 0-.7 0-1-.2 0-.5-1-1-.4-1.3.1-1-.6-1-1.2-1-.7-.2-.9-.6-1.6-1l.3-.5c-.3-.4-.5-1-1-1-.1-.7.3-.7.3-1.4 0-.5-.4-1.4.5-1.3.1-.8-.8-.4-.7-1.2 0-.4.5-.9.6-1.3h-.4c.1-.3-.1-.2 0-.4-.2-.3-.3-.3-.3-.7.7-.2 1.1.5 1.8.4h.2c.4 0 1.4-.3 1.4-.5h.5l.3-.1v-1.3l.2-.2v-.1l.2-.3v-.1l.1-.2v-.1h.1v-.2h.2v-.3l.1-.2.1-.4v-.2l.1-.1h.2l.2-.1h.1l.1-.1.1-.1v-.1l.1-.2v-.1l.2-.3v-.5h.2v-.5h-1l-.1-.1-.1-.1h-.1l-.2-.1-.2-.1h-.2l-.1-.1-.1-.1-.1-.1v-.2h-.1v-.1l-.1-.1-.5-.5-.1-.1-.1-.2v-.5l-.1-.1v-.1l-.2-.2-.2-.2V207l-.1-.1-.2-.4v-.1l-.1-.1V206l.2-.4v-.1h.1v-.3h.2l.1-.1V203.3l.1-.1.1-.1h.7l.1-.1v-.4l.1-.1v-.1l.1-.1h.2v-.1H207.9v-.3l.1-.1v-.2l.1-.1.1-.1.1-.1h.2V202l.3-.3.1-.1.1-.1H210l.1.1v.1h.1v.1H211.7v-.4l-.1-.2V200.6l-.1-.2v-.7h.4l.2.1.1.2h.2v.1h.4v-.1h.1v-1.2l.1-.1H213.3l.1.1.1-.4h.4v-.2l.1-.2.1-.1.2-.1h1.3l.1-.1v-.2h.1v-.3l.1-.1v-.1h.1l.2.1.1.2h.1l.1.1h.9v-.2l.1-.2.1-.2v-.6l.1-.1.1-.1h1.1l.2-.2h.1l.1-.1.2-.2.1-.1h.1v-.1h.8l.2-.2h.1l.2-.2v-.2l-.2-.1v-.2l-.2-.1V194H221.2l.2-.3v-.8l.1-.1v-.1z" id="munich"
     fill="#8f8f8f"
     fill-rule="nonzero"
     style="stroke:#000000;stroke-width:0.5"/>
 </svg>
