<svg>
        <path d="M271.4-219v.5c-.5.5-1.6-.2-2 .3-1.3 1.6-.1 2.3-.1 3.8 0 1 0 2.1-.3 3-.1.3-1-.2-1 .2.2.5 1 .6 1 1.2.1 1-1.4 1.8-1 2.9.3 1 2.5 1 .5 2.7-.5.4-1.5 1-2.2.7-.6-.3 0-1.4-.4-2-2.2-3.5-.6 4.4-3-2.5-.6-1.3 2.1-1.6 3.3-2 .4-.2-.6.4-1 .3-.4-.3-.3-1.4-.9-1.4-1 0-1.4 1.1-2.2 1.4-1 .2-1-1.4-1.3-1.7-.6-.3-1.4-.2-2-.6-1-.7-2.2-4.5-2.3-5.3-.1-.7 1.2-1 1.9-1 1.1.3 0 1 .2 1.5.5.6.7-1.4 1.5-1.4 2.2.2 2.6.5 4.3 1.7.2.1-.2-.4 0-.5.2-.6-.7-1.2-1.2-1.4-.6-.2-1.2-.2-2-.3m26.3 0c-.4 1-.8 2.3-1.6 2-.2-.3-.4-1.1-.2-2m17.5 126.5.1.1m19 20h-.1m31-44.4c.6 1 2.3 3.2.9 3.7-1.4.4-5-1.4-3.9-.4 2.2 1.9-2.2 4.6-2.8 6 0 .1 1.4 5.1-.2 4.6-4.5-1.8.8-4.7-.7-7.3-2.4-4.1-6-2.6-9-5.9l-.2-.6c-.1 0-.2 0-.3.2 0-.2-.2-.2-.2-.3v.3c-2.3.4-1.8 3.1-3.8 3.7-1.8.5-1-2-3 .2-.3.4 0 1-.2 1.5l-1.4 2.6c-.3 1 .4 4 .5 4.8 0 .4-.3.6-.3 1 0 .7.2 1.3.3 2 .3 1 1.2 1.6 1.3 2.6.6 4-.5 1.2-1.9 2.5-1.6 1.7-.1 2.1-.6 4.1-.1.5-.6.7-.7 1.2l-1.7-1.4c-.4-.2-4.7-1.8-5-1.3-.6.5-.2 1.4-.6 1.9-1.4 2.4-3.2 1-5.2 1.3-.6 0-1.4.6-1.9.2-.6-.5-.4-1.4-.7-2-.8-1.4-3.5-5-5-5.8-4.6-2.7-2.5 4.3-2.5 4.3-.7.1-1.3-.7-2-.7-.3 0-1 .3-.8.6l.3.2h-.2c-1 .2-2.2-.3-2.7.5-.3.6 1.2 1 1.5 1.5.4.7.6 1.5.6 2.3 0 1.5-2 2.5-1.6 4 0 1 4.2.7.3 3.2-1 .7-9.1-3.3-10.7-1.2-.8 1 2.2 7.6-.2 8.6l-3.7-1.7c-.7 0-3 4.1-3 5-.3 1.4-.3 3-1.2 4.2-.7.8-2-.5-1.7 1.6.5 2.6 3.5 2.8 2.3 6-.8 2-4.6 6.5-5.3 8.7-.3 1 1.3 2 1 3l-2.7 2.2c-.9.5-2.8-.6-3.2.5l1.1 4.6-.6 3.6.4 4.3c-.1.5-.7.6-.8 1-1 3.2-2.7 6.5-3.8 9.8-.7 2.1 4.2 1 3.4 6.7-.8 5.5-4 0-8.8 3a15 15 0 0 0-4.4 6.8c-.1.6.6 1 .5 1.5-.2 1.3-1.8 2.2-1.8 3.4 0 14.2 1.8-10.4 1.8 3.8 0 .7-.9 1.2-.9 1.9 0 .8.4 1.5.5 2.3 0 .7-.6 1.5-.5 2.2.2 1.8 2 3.3 2.3 5 .2 2.7-1.7 6-1 8.4.6 2.7 5 2.5 5.5 5.4l-1.3 4.7c-.9.8-3.2.2-3.1 1.4.6 5 3.6 3.7 2.3 10.4l.1 3.4c-1 2.7-4.8 3-5 3.7-.1.3.5.4.5.8.2.4.4 1 .2 1.5-.3.7-1.5.8-1.8 1.6-.7 2.1 2.6 6.8 0 10.4-1 1.6-1.5.4-1.8-.8l.2-.1c.5-.3-.2-1.3-.6-1.8-2.4-3.8-1.1 2-5-1.7-.4-.4.3-1 .3-1.5 0-.7-.7 0-.7 0-.7-1-.4-2.8-.2-2.6l-.1-.5-.8-3.4c-.2-.7.9-2.2 0-2.2-2.9 0 2.2 3.6-.7 5.6a.3.3 0 0 1-.3-.2c0-.7.3-1.5 0-2.1-.3-.6-1.5-1.7-1.6-1-.1.9 1 1.4 1.4 2.3.2.4-.5 1.5-.2 2 .9 2.5 1.6 1.2.9 2.9 0 .1 0 .5-.2.5-.3 0-.5-.7-.7-.5-.9 1.5.2 3.5-.7 3.5-.5 0 0-1.5-.3-1.3-2 1.3 1.8 2.6-3.1 2.6-.6 0 0-1.2-.5-1.5-.6-.4-1.7-1.7-2-1-.4.7 1.2 1.2 1.5 2 .1.4-3 .6-3.4 1.8-.1.4 1.2 1 .8 1.3-.5.7-2 0-2.7.7-.3.4 1.2.6 1.1 1-.7 4.8-1.6-1.4-2.2 1-.1.3.3.5.2.8l-3.7 4.5c-.3.3-.6-.4-.9-.2-.7.6-.5 2.1-1.5 2.2-.7.3-.8-1.7-1.6-1.5-.8.3-.5 1.8-1 2.2-.5.4-1.4-.2-1.8 0-.4.2-.5.6-.9.7-1.1.7-.8-.3-2.4-.3-.8 0-1.8 1.3-2.2.7-.5-.6 1.5-1 1.2-1.8-.3-.5-1 1-1.7 1a6 6 0 0 1-2.8-.6c-2-1 1.9-2.2 2.2-3 .1-.5-.7-1-1.2-.9-.4.1-.3 1.2-.9 1.3-.7.1-1.4-.3-2.1-.7-1.4-.6-2.2-2.7-3-3.2-.3-.3-1 0-1.5-.3-.8-.5-2.2-3.5-2-4.3 0-.7.7-1.2 1-2 .1-.7-.8-2.5 0-2.3 1 .3.2 2.3 1.2 2.6.4.4.5-1.1 1.1-1.4.3-.2.5 0 .7.3l-.6-1.8c0-.8 1.7-.6 2.1-1.2.3-.2-1 0-.9-.3.2-.6.8-1 1.4-1.2.7-.5 2.1-.1 2.5-1 .4-1-2.8.5-3.5-.2-.5.6-.7.6-.7-.4s2-1.2 1.8-2c-.3-1-1.7-1.2-2.7-1-1.5.5-.9 4.1-2.4 4-.8 0-.3-1.5-.6-2.1-.2-.3-.7-.6-1.2-.8l.1.1-.2.1.1-.2c-.3-.2-.7-.5-.7-.8 0-.6 1.4.4 1.9 0 .7-.5.5-2 1.3-2.4.6-.3 1 1 1.5 1 .2.2-.1-.5.1-.6.3-.3.6 0 .8 0 .5-.1-1.1-.1-1-.6 0-.1 4.8-2.2 4.4-2.2-3.7-.3-1.4 2.9-5-.4-.1-.1.6 0 .7-.2.2-.3 0-.8.4-1 .4-.3 1 .2 1.5-.2.2-.1-.1-.5-.1-.7.2-.5.4-.8.7-1 .6-.4 1.8 0 2-.6 0-.7-1.6-.6-1.6-1.2l.4-1c-.2 0-.6-.5-.8-.3-.6.4-1 1-1.3 1.4-.5 1-.3 2.1-1 2.8-.3.4-.2-1-.3-1.3-.7-1.3-1.3-1-.8-2 .4-1 2.3-3.1 1.3-2.9-1.2.4-2 5.5-3.4 3l-1-2.8c0-.9 1.7 0 3.8-.7.4 0 .7-.5.8-1.1-.8.8-2.4-1-2.4-1.4 0-1 1.7-1.3 2.6-1.8-.2-1.3-1.3-.1-2.2 1l-.1-.2-.5-.6c.4.4.5.9.6.7-.6.6-1 1.1-1.4 1.2-.6 0-.4-1.2-.6-1.6-.1-.3-2.2-2.4-1.6-2.5.8 0 1.5.7 2.2 1.3v-.6c.2-.8 1.6-.8 2.3-1.4.2-.1 0-.6-.3-.5-1 .2-2.5 1.3-3.3.9-1-.6-.2-3.3.4-3.7.8-.6 1.7 1.2 2.8 1.2 0 .1 2.4-2.7 5-1.4.8.3 1 1.5 1.8 1.9.8.3-.7-1.8 2-2.5 3.4-1-.2 5 3.5 4.8 2.2-.2-.8-2-.7-3.6 0-1.7 6 2.2 5.2-1.9 0-.8-1.6.7-2.3.5-.5-.1-.6-.8-.6-1.3 0-1.3 3.3-2.6 2.1-3-3-1.2-2 4.2-2.2 4.7a8 8 0 0 1-2.6.6c-.2.1-.1-.3-.2-.4-.8-.5-1.8-.7-2.6-1.2l-.1-.1a6 6 0 0 1-1 1.6c0 .1-3.7-1.5-4.6-1.5-.4-.1-.2.6-.4.7-1.3.6-2.8.8-4 .5-.3 0-2-2-1.8-2.4.5-.8 1.6-1.2 2.4-1.4 1-.2 2.7.8 2.7-.1.1-.8-1.7-.2-2.7-.1-.6 0-1 .8-1.6.6-2.5-1 .4-2.3 1.1-2.3 1.2.2 3.2 1.6 4.6.6 1.4-1-4 .4-4.8-1.3-.2-.7 2.7-.5 2.1-.9-.7-.4-1.7.1-2.3-.5-1.9-1.5 1-4.5 2.7-4.7 1.3 0 2.9.3 3.6 1.3.4.5-.7 1.3-.3 1.8.3.5 0-1.4.5-1.5.6-.1.9 1 1.4 1.1.5 0-.9-.8-.7-1 .6-.7 3.4 1.7 5.5-.2.4-.4-.5-.6-1-.6-4.1-.3 2 .9-1.4 1.1-.6.2-4.2-1.6-5.9-1.8-.6 0-1-.4-1.6-.4-.7 0-2 1-2.1.4-.1-.9 1.7-.9 2-1.7.2-1-2.1-1.5-2.1-2.7 0-.4 1.1 0 1.4.4.3.6.3 2 1 1.9.7-.2-.8-2 0-2.2.8 0 1.3 1.8 2.2 1.8.8 0 .5-2.2 1-1.8.6.5-.2 1.6-.2 2.4l-.2.5c.7-.3.4-1.8 1-1.8.4 0 .2.8.6 1 .7.4 1.8 1.1 2.2.4.2-.6-1.5-.3-1.9-.8-.6-.7-.8-1.5-.8-2.4-.1-1 1.6-1.8 2.7-1.6.5.1.2 1 .5 1.5.3.7.9 1.2 1.1 1.9 0 .2-.6.7-.3.7s.4-.5.4-.7c-.4-2.3-3-3.9 1.1-4.6 1.4-.2 1.6 1.8 1.6 3.7.2-.3.3-.6.5-.7.7-.6 2.7.7 2.5-.2-.3-.9-2 0-2.7-.7-.6-.4-.4-1.5-.8-2-.6-.9-3.8-2-4.3-2.3 0-.1.4-.5.7-.5.5 0 1 0 1.6.2.2 0 0 .7.3.7.4 0 1.8-2.4 3.4-1.1.5.4-.2 1.5.4 1.8.4.2-.3-1.3.2-1.6.8-.4 2.6 2.1 2.6 2.3.7 0 2-.5 1.7-1-.3-.8-1.7.4-2.3 0-.8-.8.8-2 2-2.6-.8.4-1.7.6-2.5.6-7 .1-.8-.7-1-2-.2-1-1.7-.9-2.3-1.7-.8-1-.4-1.8 2.7-1.4.7 0 .7 1.4 1.4 1.6.5.1.9-.7 1.3-.7h2l-.3-.5c-.2-.7.8-1.4 1.5-1.5.3 0 0 .7.2 1 .4.5 1.2.5 1.4 1.1.3.5-.4 1.2 0 1.6.6.5 2.1 1.6 2.6.8.4-.8-1.9-1.2-2-2.1 0-.6 1.3-.2 1.8-.5.2-.2-.8.2-1 0-.2-.1.6-.6.4-.5-.6.1-1 1-1.5.7-.9-.4-1-1.5-1.3-2.3-.3-.4.6.3 1 .5.3.2-1.3-1.2 0-1 0 0 4.7 2.5 4.2-.7-.4-3.8-3.7 3.4-3-1.6.1-1 3-3 3.7-2.5.8.4 0 1.9.5 2.6.3.3.6-.6 1-.8.5-.3 2.2-.3 1.7-.7-.3-.5-2 1.1-1.9.4 0-.8 1.3-1 2-1.7.6-.7.6-2.1 1.6-2.2.7-.3.3 1.1.7 1.7.2.5 1 .7 1 1.3 0 .7-1 1-1 1.8.2.4.8-.6 1.2-.5.7.1 1.6 1.9 2 1.3.3-1-1.5-1.7-1.4-2.6 0-1 4.8.2 5 .2.8-.5.9-1.8.8-2.8-.1-.4-1.6.5-1.4 0 .3-1.5 5.1-1.7 4.9-2.9-.1-1-3-1-2.4-1.8.5-.8 2.6-.5 2.7-1.5.4-4.7-3.8 1-4.8 1.9-.4.3-1.8.7-1.5 1.3.5.8 1.9.3 2.7.7l-.3.2-2 1c-.5.5-3.4 3.1-4.4 2.9-.6-.1-.3-1-.6-1.5-.2-.5-1-.9-.8-1.3.4-.8 1.5-1 2.2-1.6.2 0-.4.4-.7.3-.2 0 .4-.6.3-.5-.8.4-2.1 2.2-3.3 1.8-1.8-.7.8-2.3 2.1-3 .7-.4 1.6-.4 2.1-1.1.4-.4-1 .3-1.5.2-.2 0-.1-.2-.1-.5 0-.8 0-1.6.4-2.3.3-.4 1 .2 1.3 0 .3 0-.4 0-.4-.2 0-.4 0-.7.2-1.1.3-.3 1.2.5 1.4 0 .2-.3-.1-1 .2-1.5.4-.5 1.4-.4 1.7-1 .1-.5-1.5-1.1-1-1.2.7-.3 1.4 1.1 2.3.9.6-.1-1-.7-1.3-1.3-.6-.8 1.1-1.8 2-2.3 1-.6 1.4 2 2.5 2.5a2 2 0 0 0 2.2-.5c.2-.4-1.7 0-1.4-.5.3-.7 1.8-.6 2.2-1.3.6-1.6-3.7 2.7-2.6-1.8.1-.7.4-1.1.5-1.4l-1.6 1c-1.7.8 3.3-2.3 3-2.7-.1-.3-.4-.3-.7-.1v-.2c0-.2-.8 0-.7-.2.3-.8 4-.6 4.5-.8.3-.2-.2-.8 0-1 1.8-1.7 4.1-.7 4.7-4 0-.6-1 .5-1.4.8h-1.7c-.5 0-1.3.8-1.3.3.2-1.5 4.4-1.5 3.3-3.5-.2-.3-1.2-.1-2-.1l.5 1-1.6 1.8c-.2.1-.7.8-.8.5-.1-.6-.1-3.9.8-4 0-.4 0-.6.2-1 .4-1 2-.5 2.7-1 .3-.1-.6 0-.7-.1-.3-.5-.7-1-.8-1.5-.1-.7 1-3.4 1.7-3.4.9-.2 1.4 1.4 2.3 1.6.3.1-.4-.8-.5-1.3-.2-.6 0-1.6-.7-2-.6-.3-1.6.6-2.2.1-1.9-1.5 2-.9 2.6-1.1 1-.5 1.1-2 2.8-1.7.7.3 1 1.2 1.7 1.2.6 0-.9-.7-1-1.2v-.1l-.4.1c-.2 0 0-.7-.2-.8-1.2-.2-2 1.9-3.3 1.8-4-.6 2.2-1.4 3-2 .2-.1-.5-.1-.9-.1-.8-.2-1.5.2-2.3 0-1-.2-.7-2-.5-3 .8-4.3 2.6-2.4 5.5-3.6 1.7-.7-1.8-1.9-2.3-2.7-.3-.5 1-.1 1.5-.4.5-.2-2-2 1-1 .2 0-.4.5-.4.7.1 1.6.7-.8.7-1 0-.2.2-.8.3-.5.4.3 0 1.4.5 1.5 1 .1 2.2-.4 2.5-1.2.3-.8-1.3-1.2-1.4-2 0 0 2.8-1.7 3.7-1.3.6.3-.6 2.1.1 2 .7 0 0-1.6.5-2l.2-.2-.3-.3c-.4-.3.7-1 .3-1.1-.3-.1-.5.7-1 1-1.2.4-2.6 1.3-3.8.6-.4-.3 1-1 1.3-1.6.7-1.5 1-5 2.7-3.7.6.4-1.7 1.1-1.2 1.6s1.2-.8 2-1c.6 0 1.2.3 1.7.8.7.7 2 3.2 1.6 2.3-.2-.8-1.4-1.5-1.2-2.5.2-.8 1.6-.9 2-1.6.3-.4-.7.2-1 .4-1.8.5-2.4 1.4-3.2-.9-.4-1.1.6-.4.7-1h-.3c-.4-1 2.9.6 3.4 0 .8-1.4-2.8-2.6-3-2.6-.3 0 .2.5 0 .7-.3.7-2.3 3.2-3 2.8-.8-.3-1-1.6-.6-2.4.2-.7 1.4-.3 1.9-.7.3-.4-1 .4-1.3 0-.5-.6 1.5-1.1 2.1-.6.2 0-.2.7-.1.6 1.9-2 5-.8 4.7-3.3 0-.4-.7.3-1 0-.3 0 0-.5-.2-.6-.1-.1-.1.5-.2.5-.5.2-.9 0-1.2 0-.7.2-1.6.8-1.9.2-1.5-3 3-1 3.2-1 .7-.5.1-1.8.5-2.6 0-.4.3.8.4 1.2.1.2.5 0 .5 0 0 .7-.5 1.5-.2 2 0 .3 2.5 4 3.1 3.3 1.4-1.6-4.4-6.8-2.7-7.6.6-.3 1.8.6 2.7 1.4-.1-.3-.1-.7-.3-1-.6-.4-2.4-.2-2.1-1 0-1 1.6-.8 2.5-1 5-.7.9 1.7 4 3.2 2.2 1.1-2.6-3.6-.5-3.6.6 0 1 .7 1.5.7.7-.1 1.7-.1 1.6-.7-.7-5-3.6 0-4.8-.2-.2-.1.5-.4.3-.6 0-.2-.3-.6-.5-.5-.4.1-.4.8-.9.8-.7.2-1.8.3-2.2-.4-.2-.5-.1-1 .1-1.5-.6 0-1.3.2-1.6.5-.6.6 0 2.1-.7 2.6-.5.4 0-1.4-.5-1.7-.6-.4-1.3-.3-1.9-.2-.4.2-.2 1-.5 1.4l-1.2 1.1-1.2 1.4v-.5c.4-.8 1-1.6 1.2-2.4.1-.5-.5-1-.2-1.5.5-.6 1.7-.4 2.3-1 2.5-2.3-3.9-1.6-.5-5.3 2.5-2.8 2 2.5 1.4 5 .3-.4.6-.7 1-.9.2 0 .4.7.6.5.3-.6-.3-6.2 1.7-3.5 1 1.4 1.4 2.5 1.4 3 .5-.2.8-.4 1.2-.4.5 0 .7 1 1.2 1 .9 0 2-.2 2.8-.7 1.1-.7-2.5.3-2.7-1.3 0-.4.6-1 1.1-1h.3c-.1-.1-.3-.1-.3-.4 0-.7 1.5-.4 2-.9.2-.1-.4-.1-.5-.2-.9-.6-1.2-2-1-3 .1-.9 2.5 0 2.7-1 .2-.7-.3-1.4-.6-2.1 0 .8 0 1.3-.2 1.4-.8 0-1.6-.7-2.4-.3-1.1.5-1.4 2-2 3-.6-.3-1.7-.3-1.7-.9.2-.9 1.8-1 2-2 .2-.4-1.3.6-1.4.2-.2-.7 1-1.3 1-2.1 0-.5-1.7 0-1.4-.2 1.7-.8 4.4 0 3.2-1.6-.5-.5-2.2-.2-1.8-.6.6-.3 1.6.7 2.3.4.7-.5.3-2 1-2.3 1.2-.3 1.4 2 1.5 3.8 0-.7.3-1.3.5-1.9.6-1 .8 2.4 1.7 2.8.8.5 1.8 0 2.6-.3.2 0-3.5-1.3-3.2-2.1.2-.8 1-1.9 1.8-1.8.9 0 .7 1.5 1.3 2.1.6.6 1.4.5 2.1 1 .4.4.7 2 1 1.5 1-2.8-6-2.1-3.4-7.6.4-1 2.4-2.1 3.4-1.4.8.4-.3 6-.3 6.2.3.2.6-.4.7-.7.2-.7-.4-1.7 0-2.3.4-.5 2 .4 2-.3s-1.6-.6-1.8-1.3c-.3-.6.9-5.6 2.7-3.5.4.7 0 7.3 0 7.5-.3.8-1.8 2.2-1 2.4 2.1.8 1-3.3 1.8-3.8.7-.5 1.7 0 2.4-.4.4-.2-.5-.4-.8-.7-.8-.7-2.6-1.6-1.9-3.3 3-6.7 0 1 3.6-1.4.9-.5 0-2.3.7-3.1.2-.3.5.1.8.3.2.3.1.7.3 1l2 1c.4.4.7 1 1.3 1.3.6.1-1-.8-1.3-1.4 0-.1.5-.1.5-.3.2-1.7-.1-4.1-.4-4-.5 0-4 2.9-4.9-.5-.4-1.9 3-2.7 3.9-2.5.8.2 1.3 1.2 2 1.4.3 0 0-.7.2-.8.2-.2.7 0 1 .1.7 0 1.5 0 2 .2 1.6.4-.4 3.8 2.8 3.6.5-.1.9-1 .8-1.5 0-.4-.7 0-1 0-.4-.1-1-.3-1-.6 0-.5 1.4-.2 1-1-.6-.8-.7-1.5-.2-3.7v-.2l-1 1.5c-.5-.6-1.6-1-1.8-1.7-.6-2 6.4-7.1 3.7-1.5 1-1 2.6.1 3-.2.6-.4-1.3-.4-1.6-1-.8-2 2.7-1.6 3-2 .4-1-3.2-2.3-3.2-2.6.1-.7 1.8.9 2 .3.5-.8-1-1.7-.8-2.7.3-1 6.8-.3 6.9 0 .2.4-3 6.1-2.8 6.5h.2c-.2 0-.3 0-.3.2.2.4.9-.2 1.3 0 1.5 1-2 1.5 0 2.1.7.2-.5 1.3-.6 2 0 .2-.3 3.6 1.7 1.6.4-.3 0-1 .1-1.5l.7-1.7c.3-.7-1 0-.7-1 .7-2 2.6-9.7 4-10.4l.7 3.3c-.2.7-1.4 1-1.3 1.9.2.4 1.2-.9 1.6-.4.4.6-.5 2.1.2 2.5.8.5 2 0 2.7-.6.5-.5-1-.8-1-1.4 0-.8-.4-1.9 0-2.6.4-.8 1.6-1 2.2-1.6.2-.3-.6 0-.9-.2-.8-.3-2.2-.6-2.2-1.5-.1-.7 1.8.1 2.1-.5.5-.8-.6-1.7-.3-2.5 0-.6 1 1.1 1.5.8 1-.4 1.6-1.2 3.5.1 1.4 1-2.4 6-2.8 6.7-.1.2.7-.4.8-.6.7-.6 1-1.9 1.9-2.1.6-.1.2 1 .1 1.6-.3.8-1.7 1.7-1.3 2.5.5.7 1.7-1.4 2.4-1l.2.4c.2-.1.7.2 1 .1.6-.7-1.1-1.3-1.1-1.3-.1-.4-.3-4.4.2-5.1 2.1-2.7 3.5 2.4 3.6 2.4 7.7.4-3.8-4.5 3.7-2.2 3.8 1.2 1 1.3.4 2.8 0 .3.6.1.9 0 .7-.2 1.3-.8 2-1 .2 0 0 .6 0 .7l1.2.3.5.5c.6.5 1.5.8 2 1.5.1.2-.5.2-.7.5-.6.3-1.4.5-1.8 1-.7 1 0 2.6-1 3-2.6 1.4-5.7-.4-7.9 2-.3.2.7-.4 1.2-.4l1.7.2c0 .2.2.3.3.3 1 0 2.2-.6 2.8.2.5.6-1.4 1.4-1 2.1.3.6.8-1.6 1.5-1.5.8.2.6 2.1.2 3.3.1-.3.3-.4.4-.5.8-.3 2 .2 2.9-.1.2-.1-.7-.5-.7-.8-.1-.9 0-1.6.2-2.3.2-.2 0 .7.3.7 1 .3 1.8 0 2.8 0h.3Zm-50.3 24.2Zm21.3-35.9c.1 1-1.5 1.2-2.1 1.9-4.7-4.6 1.6-4.6 2.1-1.9Zm-17.8 9.2c.5 0 .7.8 1 .5.5-.3-.8-1.6-.3-1.5.2.1.2.7.6.7.2-.1-.3-.7 0-.8 1-.5.6 2.5 1.6 1 .3-.3-.6-.8-.3-1 .7-1 1.8-1.3 2.9-2l-.1.1c0 .1.4.1.4.3 0 .4-.5.9-.8 1.4-1 2.5-2.2 3.6-5 4 .2-.6 1-1.5.7-2.2a.9.9 0 0 0-.6-.2l-.1-.3Zm-.8.4h-.5.5Zm-7 8.3c.2-.4.9-.7 1.5-.9 0-.1.4 0 .3.1-.3 1-1 1.8-1.4 2.6-.1-.6-.7-1.2-.5-1.8Zm-2.3 3 .1.2v.4c0-.3-.2-.4 0-.6Zm-6.2 2.2c1-2.6 10.3-2 2.2 1.7-.6-.7-2.4-.9-2.2-1.7Zm-16.3 19c.3.3-.4.6-.3 1 .2 1.2 3.2 1-1 2.8-.4.2-1-.4-1.5-.7 3-2.4 1.3-2.8 1.3-2 .1 1.3-1.4.4-2.1.9-.6.2-1 2.2-1.2 1.5-.3-2 2.7-5.4 4.8-3.4Zm-9.4 10.7c.3-.7-.2-2 .5-2 4.4-.9.5 3.2-1 3.6 0-.1-.2-.1-.2-.3.3-.4.6-.8.7-1.3Zm-28.9 67c.6 0 .2.9.4 1.5l-.5.2-1.5.2c-5 .7 1.5-2 1.6-2Zm-21.8 21.8c.5-.2 1 0 1.7.2V13s.2.1.2.3l-.4.2.2-.1c-.5.2-1 .8-1.4.8-.4 0-.5-.8-.3-1Zm-7.6 45 .2-.2c.3 1.2.7 2.5.2 3.6-1.3 2.4-.6-2-.4-3.4Zm1.9-8.6v-.2c.2.2.6.3.6.5.7 5-2 1.4-.9-.2v.2l.3-.3Zm45-74.3-1.2.2c-.8 0 .2 0 1.2-.2Zm68.7-94.4h-.8c.4 0 1-.1.8 0ZM302-92.8h.2-.2Zm.4.2h.2-.2Zm.3 0h.2-.2Z" id="norway" stroke="#000000" stroke-width="0.5" fill="#DCCFBE" fill-rule="nonzero"/>
        </svg>