<svg>
  <path
     d="m 28.967136,375.67843 c 0.234303,-4.9204 -0.937226,-5.74047 2.928809,-9.1379 0.702916,-0.58576 0.585761,-1.87444 1.288676,-2.22589 0.234311,-0.11717 5.974782,-0.2343 4.568951,-2.57736 -0.351458,-0.58576 -1.522978,0.35146 -2.108738,0 -0.585769,-0.46861 -0.468613,-1.40583 -0.702924,-2.10874 -0.234302,-0.70292 -0.234302,-1.52299 -0.702915,-2.10875 -0.117148,-0.23431 -0.820063,0 -0.820063,-0.23431 0.351458,-0.82006 1.17152,-1.40583 1.522978,-2.2259 0.702924,-1.40582 -1.288676,-0.35146 0.702924,-1.99158 1.75728,-1.40583 4.100329,-1.17153 4.33464,-4.21749 0,-0.23431 -2.225902,-1.75729 -2.694515,-2.69451 -0.702915,-1.52298 0.117155,-3.98318 0.117155,-4.2175 -0.117155,-0.11714 -1.991591,-3.74888 -1.991591,-3.86602 -0.117147,-0.23431 0.35145,0.11714 0.585769,0.11714 1.054365,0.35147 1.75728,0.46862 2.811653,0.70293 2.694515,0.70291 3.280268,0.93721 4.686099,-1.7573 1.640141,-3.28027 -0.117156,-2.10875 -0.468613,-4.56894 -0.351458,-2.2259 3.280267,-1.17153 3.397422,-2.81166 0.117163,-1.17152 -1.171521,-0.11715 -0.468613,-1.52298 0.117163,-0.23431 0.585776,-0.23431 0.702915,-0.58577 0.351474,-0.82006 0.351474,-1.64013 0.468613,-2.4602 0.117156,-0.93721 0.820071,-1.87444 0.702916,-2.81166 0,0 -1.054373,-2.81167 -1.054373,-2.81167 0.351457,-0.35146 1.171528,0.35146 1.640141,0.11716 0,0 2.460205,-2.57735 2.460205,-2.57735 1.75728,-0.93722 5.037556,-1.05438 5.974782,-3.63173 0.702907,-2.34306 -2.343058,-2.10875 -3.163128,-2.2259 -0.585761,-0.11716 0.468613,-4.56894 0,-4.80326 -2.225902,-1.17152 -2.694499,-0.11714 -5.389014,-1.17152 -0.468613,-0.23431 -0.351458,-1.40583 -1.405831,-0.70292 -0.234311,0.23432 0.234302,0.82007 0,1.05437 -1.640134,1.40584 -3.397422,-0.2343 -3.866035,-0.35145 -0.468605,-0.23431 -1.054374,0.35145 -1.405831,0.11715 -0.234295,-0.11715 0.702915,-0.35146 0.468613,-0.58575 -0.117156,-0.46861 -0.702908,-0.58578 -1.171521,-0.58578 -0.702915,-0.11714 -1.522986,0.11717 -2.225902,0 -0.117147,-0.11714 0.117155,-0.35145 0.117155,-0.58575 0,-0.11715 0.117156,-0.58577 0,-0.46861 -0.58576,0.11715 -1.991599,1.75728 -3.045972,1.05436 -2.811654,-1.99158 2.694515,-2.46019 1.288684,-3.86602 -0.234311,-0.23431 -0.702908,0 -0.937226,-0.23431 -0.117139,-0.23431 0.468613,-0.70292 0.234318,-0.82006 -2.108754,-0.46861 -5.037572,0.23429 -6.794853,1.17152 -0.234302,1.17152 -3.163111,1.75729 -2.460204,2.81166 0.468613,0.58576 1.874444,0.35146 2.108747,1.05438 0.23431,0.58575 -1.288676,-0.11717 -1.640134,0.35145 -0.702907,1.05437 -0.585768,6.09193 -0.351458,7.38061 0,0.35146 0.585761,0.46861 0.585761,0.93722 -0.117156,1.99159 -0.93721,3.16312 -1.757281,4.80325 -0.351458,0.70292 -1.874444,2.2259 -1.054373,2.10874 0.820054,-0.2343 0.820054,-1.99158 1.640125,-2.22589 0.585768,-0.11715 0.937226,1.05438 0.702916,1.52297 -0.585761,0.82008 -2.225894,0.46862 -2.811654,1.40583 -0.820071,1.40584 -1.288684,3.04598 -2.225902,4.4518 -0.351458,0.58577 -1.054374,0.93723 -0.93721,1.52299 0,0.58576 1.054365,0.82007 1.288667,1.40583 0.117156,0.23431 -0.58576,-0.70292 -0.937209,-0.46861 -0.585777,0.35146 -0.820071,1.28868 -1.288684,1.99159 -1.171529,1.87444 -2.460205,4.2175 -3.866028,5.85762 -0.351457,0.46862 -1.054373,0.58577 -1.522986,1.17153 -0.117155,0.11716 0.585752,0.46861 0.351458,0.58576 -0.937226,0.23431 -2.108747,-0.58576 -2.694515,0 -0.58576,0.58577 0.468613,1.52299 0.234311,2.22589 -0.351458,1.17153 -3.8660355,6.09195 -3.5145777,7.26346 0.2343106,0.82007 0.8200707,1.52299 1.2886837,2.34306 1.171528,1.99159 0.702907,2.92881 0.702907,2.92881 0.937218,0.2343 1.991591,0.11715 2.928818,0 0.468613,0 0.702915,-0.58576 1.171528,-0.46861 0.468597,0 0.702916,0.70291 1.288668,0.82007 0.351457,0.11715 0.351457,-1.52299 0.58576,-1.17153 0.351466,0.58577 -0.234303,1.40583 0,1.87444 0.351466,0.46862 1.991599,0.70292 1.522986,0.93723 -3.163111,1.52297 -1.288675,-2.46021 -3.866027,-2.10876 -0.702915,0.11716 0.820071,1.05438 1.054365,1.64015 0.117164,0.70291 0,1.52298 -0.117155,2.34304 -0.234294,1.52298 -2.225894,2.92881 -2.225894,4.10034 0,0.46861 0.702916,0.82007 0.702916,1.28868 0.117155,0.82007 -1.171521,2.34305 -0.351458,2.57736 0.234311,0 1.054381,-0.35146 0.820071,-0.11716 -0.234303,0.35146 -0.937218,0.11716 -1.171529,0.46862 -0.58576,1.17152 -0.234302,2.57735 -0.820062,3.74888 -0.468614,0.93721 -3.2802671,4.80324 -3.0459647,6.09193 0.1171551,0.46861 0.9372097,-0.46862 1.4058227,-0.46862 0.702915,-0.11715 1.405831,0.11716 2.108746,0 0.351458,0 0.702916,-0.35146 1.054374,-0.2343 1.874436,0.46861 7.966373,4.4518 8.786436,4.33464 0.351466,0 3.98319,-1.75729 4.217493,-1.87444 0.351458,0 0.937218,0 1.522986,0 z"
     id="portugal"
     fill="#dccfbe"
     fill-rule="nonzero"
     style="stroke:#000000;stroke-width:0.5" />
  
</svg>