<svg>
  <path
     d="m 291.08673,190.224 c 0.19483,0.0214 0.3324,0.22906 0.38233,0.38987 0.0308,0.0994 0.002,0.21675 0.0426,0.31263 0.0365,0.0858 0.12582,0.0954 0.16191,0.20179 0.0996,0.009 0.20407,-0.005 0.29803,-0.0366 0.0861,-0.4003 0.39809,-0.5544 0.76827,-0.43697 0.41709,0.13148 0.65383,0.28106 0.83083,0.67518 0.28157,0.6264 0.36141,1.40506 0.76319,1.96804 0.16396,0.23127 0.35213,0.63619 0.64009,0.79119 0.33342,0.17893 0.76844,0.0843 1.12356,0.0407 0.40263,-0.0485 0.65422,-0.0569 1.03391,0.0742 l 0.22694,0.0862 c 0.077,0.0273 0.15493,0.0491 0.2329,0.0527 0.17948,0.007 0.37728,-0.0472 0.55296,0.008 0.35069,0.10809 0.42453,0.49665 0.70475,0.67422 0.19548,0.12333 0.88609,0.14058 0.81783,0.49072 -0.62641,0.0228 -0.18457,0.84131 -0.16626,1.13283 0.27978,-0.065 0.31161,0.10884 0.50675,-0.16833 l 0.10189,-0.14488 c 0.0829,-0.11302 0.1314,-0.14267 0.34751,-0.19911 l 0.009,-0.10968 c 0.25547,-0.0717 0.30806,-0.23944 0.48313,-0.40287 0.1643,-0.15379 0.29472,-0.15496 0.48296,-0.1311 l 0.0994,0.0134 c 0.5224,0.0706 0.80317,0.17239 1.31605,-0.003 l 0.16316,-0.0578 c 0.15719,-0.0533 0.35138,-0.10428 0.46206,-0.0385 0.19317,0.1137 0.11593,0.44713 0.16834,0.62632 0.0675,0.23074 0.25498,0.38411 0.32601,0.61486 0.0727,0.23549 0.0706,0.50472 0.0897,0.74772 -0.32523,0.21069 -0.69022,-0.0232 -1.0716,0.0892 -0.0467,0.15194 -0.0455,0.29709 -0.0973,0.44696 -0.22414,0.057 -0.55281,-0.0777 -0.72106,0.0994 -0.15279,0.1609 -0.0527,0.50816 -0.003,0.70972 l 0.10801,0.0104 c 0.18862,0.49611 1.13989,0.58251 1.54375,0.77937 0.38357,0.18652 0.87325,0.54496 1.15942,0.89324 0.37909,0.4601 0.56383,1.04319 0.81761,1.58355 0.099,0.21267 0.22804,0.4381 0.35192,0.63623 0.18953,0.30473 0.33088,0.23128 0.64685,0.32811 0.16813,0.0519 0.26455,0.15381 0.45056,0.13616 l 0.21682,-0.25279 c 0.5191,-0.58833 0.863,-0.84176 0.96308,-0.59111 0.0268,-0.0401 0.0539,-0.081 0.0748,-0.12043 l 0.0804,-0.16158 c 0.0575,-0.1113 0.12562,-0.21689 0.22156,-0.23979 0.1717,-0.0414 0.6742,-0.38541 0.79014,-0.3377 0.0748,0.031 0.028,-0.0549 0.0749,-0.077 l -0.0351,-0.10123 c -0.0218,-0.0511 -0.0677,-0.0981 -0.23886,-0.16347 0.065,-0.41152 -0.10933,-0.69757 -0.33178,-1.01761 -0.11489,-0.18324 -0.22947,-0.25816 -0.40697,-0.36995 -0.19556,-0.12219 -0.0404,-0.70228 -0.2393,-0.81242 -0.36003,-0.19932 -0.33747,-0.66103 -0.0969,-0.83091 0.1896,-0.13434 0.41193,0.10757 0.52643,0.23475 0.14795,0.16454 0.49891,0.0822 0.69491,0.18791 0.006,0.017 0.54104,-0.18873 0.24857,0.0654 0.1263,0.0184 0.18358,0.001 0.26205,0.0435 l 0.0642,0.0441 c 0.12427,0.10002 0.21181,0.0797 0.30493,-0.0213 l 0.0472,-0.057 c 0.45443,-0.5987 0.75425,0.0666 0.79205,0.43055 0.0219,0.21141 0.82948,-0.11609 0.90779,0.51696 1.22386,-0.39626 0.97321,0.50153 1.03722,0.84649 l 0.01,0.0393 0.003,0.003 c 0.15532,0.12723 0.21444,-0.59167 0.35493,-0.45386 l 0.15623,0.0174 c 0.0902,0.0122 0.15197,0.0499 0.18206,0.25882 l 0.009,0.0827 1.2661,-2.6486 1.24816,0.84625 c 0.02,-0.17899 0.87488,-0.46317 1.2538,-1.07588 0.26136,-0.42263 0.0683,-1.20418 0.14574,-1.39126 0.60416,-1.46022 2.1449,-1.73369 2.51905,-2.41977 0.78197,-1.43386 0.0481,-2.22926 0.13043,-2.30581 0.0668,-0.0624 0.27211,-1.31347 0.99628,-2.08126 0.77227,-0.81879 2.07499,-1.14764 2.44532,-0.88309 0.71758,0.51262 21.71302,-7.45546 12.54159,3.58918 0.10474,0.16984 -12.6808,-1.64244 -6.2836,0.55837 6.39719,2.20082 -0.17262,14.5652 0.13363,14.80201 -0.42653,0.2537 -0.64805,1.02443 -0.80079,1.71334 -0.17041,0.10224 -0.35805,0.17957 -0.55617,0.2244 -0.32492,0.0737 -0.6541,0.11166 -0.97963,0.18136 l -0.32402,0.0828 c -0.43759,0.13392 -0.82817,0.0626 -1.26707,0.51872 0.0195,0.0152 0.0363,0.0316 0.0515,0.0516 -0.24179,0.40597 -0.55151,0.78758 -1.26407,1.02479 0.75039,1.15574 -0.0268,1.13338 -0.8003,1.23238 -0.18308,0.0235 -0.44961,0.11237 -0.61766,0.33356 l -0.0655,0.10309 c -0.17057,0.32606 -0.86222,0.75403 -0.77603,0.9903 l 0.0735,0.21621 c 0.503,1.58481 0.73167,4.58399 -1.28461,3.73393 -0.43589,0.39031 -0.43926,0.17239 -0.21569,0.72478 0.65688,1.62298 -1.27042,1.22213 -1.9076,1.49135 -0.60341,0.43524 -1.37752,1.72885 -1.7386,1.34151 -0.39476,-0.42346 -0.83289,-0.48491 -1.2541,-0.44962 -0.42123,0.0353 -0.97021,0.40676 -1.15277,0.13077 -0.32189,-0.48664 -1.27144,0.28234 -1.70229,0.84227 -0.20933,0.34559 -0.3171,1.51021 -0.72238,1.65752 -0.0384,0.0135 -0.0771,0.0151 -0.11501,0.007 -0.34826,-0.0701 -0.69056,-0.93999 -0.86961,-1.14284 -0.46983,-0.52848 -1.00345,-0.23813 -1.56378,-0.036 -0.59524,0.21446 -1.17213,0.37728 -1.77435,0.31668 l -0.22711,-0.0335 c -0.72926,-0.14261 -1.27,0.25031 -1.86749,0.7533 -0.97424,0.45671 -1.97902,0.18565 -2.95716,-0.1219 l -1.26745,-0.39623 c -0.32144,-0.0987 -0.64459,-0.18945 -0.97693,-0.24691 -0.61891,-0.1076 -1.24455,-0.13689 -1.84503,-0.33507 -0.47302,-0.15692 -0.90499,-0.42039 -1.36618,-0.60691 l -0.35247,-0.1226 c -0.65482,-0.187 -0.32501,-0.59394 -0.98548,-0.49303 l -0.90155,0.0456 0.0622,-0.17127 c -0.0382,0.0149 -0.0901,0.0279 -0.15832,0.0383 -0.2665,0.0407 -0.10771,0.32661 0.0377,0.5766 l -0.0425,0.0131 c -0.12555,0.04 -0.26191,0.10492 -0.35427,0.13271 -0.13513,0.0421 -0.23114,0.0766 -0.39486,0.0133 -0.0931,-0.0368 -0.31312,0.13594 -0.40164,0.0801 -0.0911,-0.0589 -0.0952,-0.45885 -0.22896,-0.45821 l -0.038,-0.10144 -0.25441,-0.0263 c -0.13828,-0.0156 -0.28111,-0.0385 -0.3742,-0.0861 -0.17388,-0.0895 -0.2062,-0.30153 -0.39947,-0.32669 l -0.17967,-0.0155 c -0.18061,-0.009 -0.4121,-0.002 -0.4972,0.072 -0.0842,0.0741 -0.0904,0.36637 -0.0885,0.48577 0.005,0.43146 0.17667,0.86206 0.0976,1.29596 -0.0351,0.19219 -0.0823,0.241 -0.19578,0.26152 l -0.22657,0.024 c -0.2109,0.0227 -0.42538,0.0455 -0.63155,0.0904 -0.0102,0.41464 0.0431,0.84581 0.0803,1.25868 0.0156,0.18371 0.0254,0.35124 -0.0523,0.51105 -0.0747,0.15537 -0.2782,0.27858 -0.29699,0.46652 -0.4638,0.22478 -0.37143,0.94693 -0.37125,1.36796 0,0.24212 -0.0944,0.55068 -0.0688,0.79782 0.009,0.0942 0.0535,0.159 0.0498,0.26376 -0.009,0.14307 -0.0537,0.24088 -0.0489,0.38244 l -0.003,0.0194 c -0.0788,-0.0149 -0.15012,-0.0417 -0.20589,-0.0878 -0.12699,-0.10493 -0.13745,-0.44562 -0.19322,-0.62304 -0.14607,0.002 -0.3328,0.076 -0.47711,0.0543 -0.12738,-0.0206 -0.19391,-0.13433 -0.3437,-0.11683 -0.0362,-0.15844 -0.38937,-0.27029 -0.52995,-0.27263 -0.12515,-0.002 -0.17931,0.0651 -0.26374,0.0991 -0.0854,0.0332 -0.22125,0.0314 -0.30557,0.0682 -0.2135,0.0965 -0.0782,0.34031 -0.2388,0.46118 -0.0937,0.0714 -0.25021,0.003 -0.3581,0.007 -0.10689,0.002 -0.21218,0.0524 -0.31101,0.0402 l -0.62489,0.46938 c -0.3109,0.0411 -0.62824,0.0388 -0.94265,0.0423 -0.26191,0.003 -0.53414,0.0489 -0.79362,0.0405 -0.46664,-0.0155 -1.12217,-0.13526 -1.51664,-0.4324 0.0143,-0.0822 0.11363,-0.17727 0.11263,-0.24384 -0.003,-0.11048 -0.11782,-0.1707 -0.16963,-0.23914 -0.14405,-0.18754 -0.24417,-0.43837 -0.42001,-0.60218 l -0.0617,-0.0513 -0.37488,-0.2868 c -0.13002,-0.10772 -0.38301,-0.1965 -0.44292,-0.35112 -0.27745,-0.0583 -0.52966,-0.17534 -0.80317,-0.23615 l 0.002,-0.0189 c -0.17175,-0.21455 -0.33773,-0.31267 -0.46016,-0.53733 -0.1147,-0.21277 -0.0981,-0.51511 -0.27201,-0.69807 -0.16455,-0.17219 -0.44475,-0.15445 -0.64962,-0.24126 -0.18417,-0.0785 -0.41827,-0.23046 -0.5726,-0.36854 -0.42876,-0.38709 -0.37365,-0.72771 -0.94429,-0.90883 -0.50839,-0.16241 -1.11431,-0.0292 -1.57739,-0.27648 -0.39538,-0.21165 -0.56502,-0.68079 -0.80444,-1.02739 -0.28343,-0.40989 -0.53636,-0.78636 -1.00144,-1.03361 -0.47164,-0.25139 -1.05847,-0.40214 -1.55298,-0.59373 -0.47203,-0.18354 -0.96578,-0.49664 -1.26968,-0.9074 -0.35991,-0.48612 -0.18833,-1.37675 -0.94486,-1.39875 -0.50051,-0.0143 -1.37248,0.15545 -1.62348,-0.37309 -0.41367,-0.0269 -0.79751,-0.41076 -1.09452,-0.67053 0.26918,-0.69874 -0.44029,-1.60307 -0.52099,-2.30121 -0.0856,-0.73764 0.39092,-1.5542 -0.0251,-2.13796 -0.44859,-0.62728 -1.30483,-0.54085 -1.01396,-1.55719 0.1746,-0.61054 1.01531,-1.06429 0.73777,-1.84031 -0.3074,0.0605 -0.69365,-0.0894 -1.00424,-0.0878 -0.45301,0.003 -0.62512,0.13374 -1.01231,-0.15347 -0.24011,-0.17705 -0.42459,-0.41442 -0.58352,-0.63484 l -0.11487,-0.16092 c -0.19757,-0.27716 -0.40915,-0.56838 -0.64748,-0.82769 l -0.60445,-0.64745 c -0.30656,-0.33021 -0.61027,-0.66955 -0.86909,-1.01529 -0.34977,-0.4655 -0.53173,-1.34337 -1.0119,-1.63516 0.0466,-0.0979 0.57498,-0.38193 0.67676,-0.38767 0.12121,0.18561 0.0924,0.37251 0.18238,0.55476 0.10498,0.21194 0.20743,0.2701 0.38939,0.44014 l 0.29562,0.27597 c 0.21457,0.20926 0.43474,0.45932 0.48426,0.69158 0.0536,0.003 0.10644,0.009 0.1599,0.0157 0.20591,0.49669 0.63272,0.64163 1.1375,0.51386 l -0.25691,-0.64067 c 0.16939,-0.25352 0.0728,-0.50861 0.0991,-0.84457 0.0283,-0.38037 0.21081,-0.42846 0.42126,-0.66832 0.24025,-0.27595 0.19478,-0.35844 0.27357,-0.74501 0.0532,-0.25793 0.15218,-0.52331 0.21364,-0.79397 0.39574,-0.0554 0.77419,-0.3485 1.11807,-0.52026 0.33806,-0.16991 0.69318,-0.2009 1.05059,-0.36261 0.30328,-0.13613 0.6806,-0.26513 0.96702,-0.42376 0.22124,-0.12268 0.12009,-0.23777 0.43883,-0.1985 0.22267,0.0276 0.27657,0.16428 0.45185,0.25787 l 0.20202,0.10806 c 0.22115,0.1148 0.48658,0.233 0.67855,0.20284 0.1328,-0.021 0.30004,-0.16435 0.38544,-0.26899 0.16794,-0.20513 0.0391,-0.37404 0.12984,-0.55774 0.197,-0.40603 0.58424,-0.1258 0.95876,-0.21008 0.34644,-0.0779 0.7466,-0.2104 1.10144,-0.35309 0.0478,-0.39852 0.26387,-0.85331 0.5924,-1.11735 0.30192,-0.24207 0.93439,-0.15888 0.97168,-0.71043 0.58573,-0.14648 1.16835,0.24717 1.60727,-0.30818 0.17364,-0.22069 0.11415,-0.51593 0.28864,-0.73155 0.17093,-0.2118 0.43625,-0.21959 0.66158,-0.22676 0.611,-0.0189 1.20799,0.045 1.80672,-0.19255 0.24655,-0.097 0.50257,-0.33925 0.63391,-0.54912 0.11929,-0.18945 0.15369,-0.50185 0.40544,-0.55643 0.007,-0.0538 0.0122,-0.1085 0.0152,-0.16293 0.30439,-0.0304 0.35475,-0.21634 0.61192,-0.30514 0.022,-0.0597 0.0203,-0.1194 -0.006,-0.17886 l 1.09719,-0.33116 c 0.0907,-0.28597 0.50756,-0.53021 0.7346,-0.72232 0.39291,-0.33209 0.70934,0.0512 1.15465,-0.10348 0.40737,-0.14125 0.28337,-0.7345 -0.0322,-0.919 -0.33636,-0.1975 -0.69089,-0.0377 -1.03795,-0.13275 -0.0699,-0.28496 -0.13016,-0.66346 -0.13082,-0.96074 l 8.2e-4,-0.2604 c 0.006,-0.18517 0.029,-0.38238 0.11746,-0.5248 0.77516,0.13371 1.24866,0.92756 2.10059,0.58349 0.39859,-0.16181 0.75155,-0.0679 0.79288,0.41312 0.0224,0.25543 -0.0645,0.82568 -0.17862,1.08322 0.151,0.11099 0.40453,-0.033 0.55368,0.0665 0.16992,0.11386 0.11204,0.30231 0.16979,0.48671 0.15222,0.008 0.43205,0.16772 0.55838,0.25267 0.0902,0.0604 0.33682,0.32158 0.37,0.41707 l 0.19788,0.0335 c 0.42978,0.064 0.85231,0.0485 0.99383,-0.48625 0.0882,-0.33185 -0.0122,-0.4423 0.41736,-0.45382 0.24975,-0.007 0.54525,0.16014 0.78546,0.11555 0.34799,-0.0653 0.25428,-0.36778 0.29995,-0.6248 0.0405,-0.23363 0.15524,-0.42727 0.15275,-0.67747 -0.002,-0.25411 -0.099,-0.47287 -0.19613,-0.70333 -0.0807,-0.18743 -0.32126,-0.40818 -0.27624,-0.61398 0.15434,-0.0128 0.26256,-0.0876 0.38602,-0.15367 l 0.36677,-0.1764 c 0.10282,-0.046 0.20772,-0.0829 0.28277,-0.0748 z"
     id="prague"
     fill="#ebe084"
     fill-rule="nonzero"
     style="stroke:#000000;stroke-width:0.5" />
</svg>
