<svg>
  <path
     d="m 413.81419,211.54802 c -0.52258,-0.0301 -1.00701,0.0737 -1.28799,0.11703 -0.56194,0.0868 -0.99911,0.7973 -1.71731,1.28798 -0.35013,0.04 -0.99962,0.54061 -2.4979,0.54641 -0.40316,0.009 -1.02494,-0.11777 -1.60022,-0.23417 -0.0126,-0.002 -0.0265,0.002 -0.039,0 -0.39096,0.1574 -0.81947,0.35049 -0.89768,0.74156 -0.16083,0.80414 -1.71458,-0.21536 -1.63415,0.42795 0.0804,0.64331 -0.54404,0.40578 -0.62447,1.20992 -0.0804,0.80414 2.41043,2.30275 2.73208,2.30275 0.32166,0 0.47778,1.07166 0.15612,1.79537 -0.32165,0.72373 -1.67828,2.38082 -1.67828,2.38082 l -2.18567,0.0781 -0.70253,1.79537 -0.97574,0.0781 -1.95149,-1.05381 c 0,0 -0.72272,0.98652 -1.36604,1.95149 -0.64331,0.96496 -0.95084,1.57668 -0.46836,2.38081 0.48248,0.80414 -1.84236,4.53014 -1.84236,4.53014 l 1.36604,1.36604 1.28798,0.35126 0.81963,1.28799 1.75634,1.17089 v 1.13186 l -0.46836,0.81963 -0.15612,1.36604 3.12238,0.89768 0.23418,1.60022 0.74157,1.13187 2.06857,1.36604 0.97575,6.32282 -2.57597,1.28798 c 0,0 -1.25973,1.79066 -2.22469,1.95148 -0.96498,0.16083 -2.2698,-0.16082 -3.39559,0 -1.12579,0.16083 -1.1958,2.25902 -1.67828,2.41985 -0.48248,0.16083 8.66846,-1.50463 7.30142,-2.14794 -1.36704,-0.64331 -6.03785,0.7392 -6.43991,0.81963 -0.40207,0.0804 -0.81021,1.03732 -1.13186,1.60022 -0.32166,0.5629 -5.482,2.48378 -6.20573,2.96626 -0.72372,0.48248 -1.77654,-0.89769 -2.41985,-0.89769 -0.64331,0 -0.30753,2.25197 -0.46835,2.65403 -0.16083,0.40209 -1.60022,0.35127 -1.60022,0.35127 l -2.81015,1.83439 -1.60022,-0.23417 c 0,0 -8.79533,1.77418 -8.95615,2.4979 -0.16083,0.72373 0.78766,1.42527 0.54641,2.06858 -0.24124,0.64331 4.19453,2.98174 4.19453,3.78588 0,0.4684 0.27957,2.15186 0.50739,3.6688 0.13593,-0.0616 0.27825,-0.0921 0.46835,-0.31224 1.13142,-1.3107 1.39982,-0.24305 2.06858,0.23418 0.89435,0.6382 1.28861,-0.0541 2.2247,0.70253 0.0973,0.0787 0.17363,0.13695 0.23418,0.19515 0.0606,0.0582 0.0962,0.10267 0.11702,0.15612 0.0209,0.0535 0.0125,0.10529 0,0.15612 -0.0125,0.0507 -0.0393,0.10604 -0.0781,0.15612 -0.38636,0.49931 -0.72185,0.55813 -1.01477,0.50739 -0.0125,-0.002 -0.027,0.002 -0.039,0 -0.21189,-0.0441 -0.41378,-0.12957 -0.58544,-0.15612 -0.0125,-0.001 -0.027,2.8e-4 -0.039,0 -0.0602,-0.006 -0.10017,-0.0204 -0.15612,0 -0.11178,0.0406 -0.15785,0.11078 -0.19515,0.19515 -0.0932,0.21098 -0.0458,0.52544 -0.19515,0.70253 -0.0298,0.0355 -0.0671,0.0546 -0.11702,0.0781 -0.21997,0.10354 -0.41197,0.10804 -0.54642,0.15612 -0.0831,0.0309 -0.14489,0.0944 -0.15612,0.19515 -0.005,0.0164 -0.0368,0.0192 -0.039,0.039 0.0846,0.10915 0.20349,0.18594 0.31224,0.27321 0.0934,0.0837 0.21386,0.15625 0.31224,0.31223 0.006,0.01 -0.006,0.0287 0,0.039 0.0884,0.14909 0.18995,0.37216 0.31224,0.62448 0.006,0.0127 -0.006,0.0262 0,0.039 0.0602,0.12253 0.16437,0.24638 0.23417,0.35127 0.005,0.009 -0.005,0.0307 0,0.039 0.0701,0.10104 0.15373,0.17826 0.23418,0.23418 0.007,0.005 -0.007,0.034 0,0.039 0.3069,0.21328 1.1033,0.11591 1.4441,0.31224 0.009,0.005 0.0305,-0.005 0.039,0 0.038,0.025 0.0553,0.0828 0.0781,0.11703 0.10904,0.16454 0.15588,0.26485 0.15612,0.3903 -7.1e-4,0.009 10e-4,0.0291 0,0.039 l -0.31224,0.3903 0.11703,-0.039 c 0,0 0.0979,0.0325 0.11703,0.039 0.0385,0.0131 0.13387,0.0422 0.23417,0.0781 0.10029,0.0358 0.0921,0.024 0.23418,0.0781 0.32592,0.12115 0.70787,0.2793 1.17089,0.50739 0.0156,0.007 0.0235,0.0314 0.039,0.039 0.62259,0.31131 1.6376,0.23511 2.26373,0.62448 0.0376,0.009 0.0828,0.0272 0.11703,0.039 0.0175,0.006 0.0225,0.0321 0.039,0.039 0.0191,0.0154 0.0197,0.0577 0.039,0.0781 0.006,0.006 0.0331,-0.006 0.039,0 0.0845,0.0809 0.13828,0.1595 0.19515,0.27321 0.0351,0.0702 0.0318,0.13724 0.039,0.19515 10e-4,0.0112 -3.8e-4,0.028 0,0.039 0.007,0.20192 -0.13848,0.34687 -0.35127,0.46836 -0.0233,0.0192 -0.0531,0.02 -0.078,0.039 -0.0719,0.038 -0.15928,0.0792 -0.23418,0.11703 -0.0413,0.021 -0.0756,0.0558 -0.11703,0.0781 -0.0496,0.0265 -0.10816,0.049 -0.15612,0.0781 -0.0154,0.01 -0.0238,0.0294 -0.039,0.039 -0.0606,0.0392 -0.10204,0.0702 -0.15612,0.11702 -0.0428,0.0353 -0.0802,0.0766 -0.11702,0.11703 -0.0241,0.028 -0.0568,0.0468 -0.0781,0.0781 -0.0417,0.0614 -0.0928,0.12052 -0.11703,0.19515 -0.004,0.01 0.004,0.0282 0,0.039 -0.0387,0.12077 -0.0603,0.22682 -0.039,0.39029 0.17059,1.30781 1.68066,1.09284 2.41985,1.09284 0.44513,0 1.45815,-0.30034 2.34178,-0.54642 0.0261,-0.0125 0.0513,-0.027 0.0781,-0.039 0.18576,-0.0522 0.38467,-0.11453 0.54642,-0.15612 0.31285,-0.0806 0.56038,-0.11702 0.70254,-0.11702 0.56862,0 2.18566,0.70253 2.18566,0.70253 l 1.01477,-0.54641 0.15612,-0.0781 c 0,0 4.05037,0.2732 5.07387,0.2732 1.0235,0 2.02955,-0.78059 2.02955,-0.78059 l 0.74156,-0.039 0.81963,-0.039 1.01477,-0.85865 0.11703,-0.11703 c 0,0 0.0561,0.05 0.0781,0.0781 0.0322,0.0413 0.0373,0.0797 0.11703,0.15612 0.025,0.0297 0.0446,0.045 0.0781,0.0781 0.10628,0.0926 0.2212,0.18866 0.39029,0.27321 0.11366,0.0568 0.23306,0.0983 0.3903,0.11703 0.0127,0.002 0.026,-10e-4 0.039,0 0.469,0.0485 1.12408,-0.0363 1.87342,-0.0781 0.12795,-0.007 0.20963,-0.005 0.31224,-0.039 0.10879,-0.0305 0.18994,-0.10579 0.27321,-0.15612 0.0256,-0.0166 0.0546,-0.021 0.0781,-0.039 0.0817,-0.0586 0.13738,-0.12594 0.19515,-0.19514 0.0112,-0.0136 0.0286,-0.0252 0.039,-0.039 0.0415,-0.0548 0.0873,-0.10142 0.11702,-0.15612 0.12648,-0.2289 0.15612,-0.42933 0.15612,-0.42933 0,0 0.50232,0.27919 1.01478,0.54642 0.0127,10e-4 0.0263,-0.001 0.039,0 0.14965,0.0776 0.2903,0.17098 0.42933,0.23418 0.12744,0.058 0.26555,0.0586 0.3903,0.039 0.10816,-0.017 0.211,-0.0305 0.31224,-0.0781 0.0157,-0.007 0.0235,-0.031 0.039,-0.039 0.33752,-0.17423 0.62819,-0.43469 0.89769,-0.46836 0.45489,-0.0568 0.85092,0.42933 1.24895,0.42933 0.24381,0 1.45282,-0.53533 2.4979,-1.01478 0.01,-0.0149 0.0283,-0.0244 0.039,-0.039 0.6117,-0.27998 1.32701,-0.58545 1.32701,-0.58545 l 0.66351,-1.36604 0.81962,-0.50739 0.85866,-2.84917 1.13186,-0.23418 0.23418,-1.01477 1.71731,-1.01478 c 0,0 0.3782,0.29342 1.28798,0.97575 0.68234,0.51179 1.20289,0.6955 1.71731,0.6635 0.16073,-0.015 0.3352,-0.0641 0.50738,-0.11702 0.7392,-0.22744 1.02724,-0.17392 2.10761,-0.11703 0.27009,0.0142 0.50395,0.0664 0.70254,0.15612 0.19858,0.0897 0.34923,0.19737 0.50738,0.31224 0.33764,0.23654 0.58138,0.4778 0.93672,0.50738 0.68233,0.0568 1.2735,-0.13148 1.4441,0.039 0.0853,0.0853 0.2338,0.1348 0.46835,0.15612 0.014,0.001 0.0246,-10e-4 0.039,0 0.22965,0.0186 0.53229,0.039 0.85866,0.039 0.17058,0 0.29606,0.0169 0.42932,0.039 0.0112,10e-4 0.028,-0.001 0.039,0 0.37821,0.0709 0.65002,0.21843 0.89769,0.50739 0.34116,0.39807 1.0316,0.18842 1.60022,-0.039 0.28429,-0.11366 0.37595,-0.18455 0.46835,-0.15612 0.0924,0.0285 0.15226,0.16286 0.35127,0.39029 0.19901,0.22745 0.49268,0.27321 0.81962,0.27321 0.32696,0 0.72325,-0.0568 1.09284,0 0.18479,0.0285 0.31287,0.0842 0.46835,0.15612 0.0113,0.005 0.0282,-0.005 0.039,0 0.45401,0.21817 0.85397,0.59988 1.52216,0.97574 0.4549,0.25588 0.90779,0.47522 1.24896,0.62448 0.34487,0.1507 0.58544,0.23418 0.58544,0.23418 l 0.62448,-0.27321 0.15612,-0.0781 c 0,0 0.38793,0.125 0.46835,0.15612 0.058,-0.5268 0.48164,-0.91709 2.57597,-1.48313 0.58577,-0.11715 1.17063,0.31238 1.63925,0.0781 0.82007,-0.4686 1.26375,-2.93135 1.13186,-3.20044 -0.13189,-0.26909 -1.27177,-1.27704 -1.4441,-2.73208 -0.17232,-1.45505 0.6207,-3.69041 0.35127,-4.02007 -1.12741,-1.3794 -0.62037,-1.73738 -0.89769,-2.30275 -0.2773,-0.56537 -0.86839,-0.92685 -0.89768,-1.13187 0.61127,-0.9324 0.25557,-1.28894 0.54641,-2.06857 0.51404,-1.40321 1.29622,-2.6752 1.79537,-4.0591 0.35127,-0.70253 0.15612,-1.20992 0.15612,-1.20992 l -0.70253,-0.0781 c 0,0 -0.3903,0.23418 -0.70254,0.81963 -0.46417,0.7427 -0.64984,-0.13755 -1.0538,0.42932 -0.0874,-0.29943 -0.14318,-0.35436 -0.19515,-0.46835 0.39437,-0.14874 0.80291,-0.33568 0.89768,-0.46836 0.0976,-0.13664 0.28785,-0.24883 0.46836,-0.31224 -0.15314,0.0272 -0.33976,0.0334 -0.50739,0.11703 -0.25306,0.12653 -0.54625,0.21231 -0.93671,0.27321 0.0112,-0.0707 0.0393,-0.15161 0.11703,-0.31224 0.11115,-0.2298 1.44447,-0.7042 1.28798,-1.09283 -0.36164,-0.89805 2.087,0.0741 -0.66351,-1.28798 -0.52853,-0.29839 -1.71418,0.27428 -0.11703,-1.44411 0.35894,-0.38624 1.52216,-0.46835 1.52216,-0.46835 0,0 0.15117,0.44901 -0.39029,1.13186 0.59896,2.78388 1.53988,-0.73595 1.52216,1.67828 -0.004,0.57317 2.61178,-0.94543 3.12238,-1.0538 0.71764,-0.5439 0.88371,-0.70932 2.30275,-1.28799 0,-0.46862 0.0782,-4.76136 -0.15612,-5.22998 -0.31091,0.16139 -0.57907,-0.0817 -0.78059,-0.62448 0.39313,-0.33767 0.74218,-0.0844 0.78059,-0.81962 0.0385,-0.73519 -0.31186,-2.1465 -0.93671,-2.69306 -0.23432,-0.11715 0.11703,0.46836 -0.11703,0.46836 -0.11715,0.11715 -0.11702,-0.3512 -0.23417,-0.46836 -0.70292,-0.2343 -0.0776,1.71814 -0.89769,0.19515 -0.23221,-0.34831 -0.34386,-0.83692 -0.42933,-1.36604 -1.04651,0.52039 -2.28717,1.15129 -2.53693,1.56119 -0.39473,0.64786 -1.37858,0.75135 -2.4979,1.32701 -1.11934,0.57564 -0.86324,0.96401 -0.85866,1.36604 0.005,0.40205 -0.31224,0.97575 -0.31224,0.97575 l -1.0538,-0.23418 -0.93671,0.6635 0.23417,0.70254 c 0,0 -1.37688,0.14515 -2.34178,0.15612 -0.9649,0.0112 -1.61446,-0.42815 -2.34179,-0.74157 -0.72732,-0.31341 -1.10745,-0.94348 -1.91245,-1.01477 -0.805,-0.0713 -0.61339,-0.64888 -0.7806,-1.20992 -0.16721,-0.56103 -0.37346,-0.62292 -0.85865,-0.85866 -0.4852,-0.23575 0.1625,-0.7251 0.15612,-1.28798 -0.006,-0.56285 -0.36564,-1.31227 -0.93672,-2.02955 -0.57108,-0.71732 -0.23418,-0.74156 -0.23418,-0.74156 0,0 -0.17518,-0.84209 -0.58544,-1.56119 -0.41027,-0.71912 -0.97314,-1.81379 -0.81963,-2.45887 0.15351,-0.6451 -0.0241,-1.39463 -0.35127,-1.87343 -0.32648,-0.47811 0.35592,-1.348 0.42996,-1.91177 0.0741,-0.56378 0.57252,-1.47163 -0.0781,-2.10761 -0.65061,-0.63595 -0.57817,-1.11307 -0.58545,-1.75634 -0.007,-0.64327 -0.42384,-0.72746 -0.42933,-1.20992 -0.005,-0.48246 -0.64497,-1.42426 -0.97574,-2.2247 -0.33077,-0.80042 -2.51213,-1.75516 -3.23947,-2.06857 -0.72733,-0.31342 -1.23016,-2.23206 -1.87343,-2.2247 -0.64327,0.007 -1.2675,-0.76963 -1.75634,-1.32701 -0.48885,-0.55738 -0.69249,-0.88973 -2.06857,-1.67828 -1.37609,-0.78856 -2.49792,-3.05255 -3.31753,-4.41036 -0.81963,-1.35781 -3.67664,-3.33895 -4.41036,-4.21521 -0.36687,-0.43815 -0.92153,-0.59433 -1.4441,-0.62448 z"
     id="romania"
     fill="#dccfbe"
     fill-rule="nonzero"
     style="stroke:#000000;stroke-width:0.5" />
        </svg>
