<svg>
        <path d="M275.140736,297.233695 C275.085104,296.114831 275.991124,296.382079 278.063215,298.110213 L279.00524,298.912655 C281.617351,301.125214 282.945434,301.942317 283.833142,301.908406 C284.302214,301.890378 284.917954,302.382626 285.016696,302.824919 L285.0297,302.918728 C285.038774,303.101271 285.15049,303.440388 285.291016,303.727159 L285.529487,304.17845 C286.369796,305.836126 288.062646,310.095117 288.227251,311.013243 L288.288433,311.336315 C288.383975,311.815543 288.491899,312.251159 288.55036,312.381283 C288.61879,312.534193 288.880503,312.886441 288.969935,313.231044 L288.984965,313.302246 C289.021817,313.324604 289.042085,313.348693 289.043431,313.374512 C289.073403,313.949078 289.893567,315.817659 290.679912,317.126913 L290.797507,317.318875 C291.353921,318.208907 292.065508,319.00717 293.676325,320.511565 L294.387346,321.168414 C295.847985,322.505746 297.236475,323.644962 297.55976,323.775321 L297.59455,323.786302 C297.932078,323.851476 298.389384,324.664895 298.77353,325.52773 C299.246289,325.701785 299.803967,325.982889 300.032692,326.120098 C300.226916,326.236552 300.72485,326.429155 301.19719,326.573773 L301.372474,326.625512 C301.843742,326.758985 302.273896,326.956461 302.389224,327.086991 L302.414104,327.124011 C302.468512,327.251441 302.73767,327.438259 303.012322,327.539163 L303.177123,327.603401 C303.461816,327.725567 303.485697,327.829984 303.404523,328.278524 L303.382131,328.398038 C303.183926,329.43165 303.160729,330.467776 303.319013,330.877902 L303.355711,330.955975 C303.620185,331.411379 302.756995,332.368003 302.213921,332.221011 C301.594114,332.053362 301.34854,332.459351 301.465752,333.45724 C301.523104,333.943992 301.672621,334.458218 301.798474,334.600093 C301.964629,334.787551 301.970121,334.863577 301.786004,334.951224 L301.708016,334.984877 C301.567574,335.040587 301.339261,335.149812 301.147532,335.251353 L301.01254,335.325112 C300.764423,335.465667 300.605028,335.479181 300.415837,335.361667 L300.332586,335.30327 C300.067474,335.098035 299.998654,335.121365 299.790493,335.487373 C299.661711,335.713846 299.440302,335.872557 299.195504,335.919265 L299.08936,335.932297 C298.835153,335.946332 298.464011,336.090161 298.265095,336.253019 C298.064508,336.416091 297.904576,336.469432 297.817724,336.405097 L297.785071,336.370297 C297.720191,336.273136 297.484294,336.203417 297.260586,336.215768 C297.068829,336.226355 296.869498,336.147158 296.777085,336.032169 L296.740319,335.971943 C296.688214,335.850008 296.566377,335.750831 296.448027,335.725512 L296.378022,335.719591 C296.272761,335.725401 295.853391,335.605645 295.356142,335.432798 L294.89397,335.264858 C293.403346,334.700163 292.511978,334.741902 292.119011,335.395052 C291.926655,335.714659 291.899572,335.866558 292.026109,336.089879 L292.16299,336.306545 C292.267768,336.487762 292.20686,336.506858 291.918011,336.479065 C291.63669,336.45178 291.124745,335.797657 290.789384,335.153905 C290.68419,335.295141 290.510031,335.474274 290.316195,335.639096 L289.968246,335.916918 C289.589337,336.229641 289.545917,336.386637 289.577176,337.023395 L289.585597,337.179144 C289.631839,337.983104 289.574463,338.173771 289.163406,338.581812 C288.901907,338.841594 288.562466,339.02676 288.409033,338.993098 C287.540558,338.803427 287.182706,338.79052 286.907894,338.955733 L286.845755,338.997022 C286.616196,339.164281 286.288819,339.15836 285.274521,338.931759 L284.232053,338.690391 C283.210812,338.462315 283.052339,338.502133 282.392847,338.777033 C281.995469,338.942726 281.630555,339.143081 281.52572,339.249519 L281.500719,339.281343 C281.355134,339.557327 280.562324,339.525439 280.548093,339.242956 C280.541649,339.113368 280.220066,338.642481 279.81389,338.161021 L279.710717,338.040627 C279.018957,337.246246 278.808656,337.085863 277.599333,336.710052 L276.564404,336.394667 C275.643767,336.104152 275.384411,335.951012 274.999529,335.469958 L274.764608,335.161714 C274.097929,334.262335 272.813619,333.01324 271.644199,332.126294 C271.285719,331.854381 270.897951,331.337989 270.73806,330.918946 C270.584504,330.516218 270.285787,329.968281 270.074529,329.70146 C269.493428,328.967629 267.321411,327.696668 266.706477,327.730608 C266.273758,327.754495 266.137142,327.655483 265.719909,326.904542 L265.63255,326.745504 C265.329109,326.187872 265.020984,325.521128 264.94779,325.264125 C264.788234,324.703526 263.628616,323.554411 262.891621,323.226406 L262.597883,323.091532 C262.037227,322.822631 261.952327,322.688948 262.015662,322.370572 C262.063875,322.128888 262.307349,321.980613 262.845902,321.866229 C263.543905,321.717578 263.605883,321.660144 263.582128,321.18245 C263.567864,320.895569 263.478861,320.616831 263.384283,320.56306 C263.147382,320.42816 263.301686,320.024433 263.631611,319.843706 L263.717627,319.803455 C263.883839,319.738445 264.229548,319.452416 264.528654,319.138109 L264.638193,319.019294 C264.925512,318.697126 265.231826,318.423849 265.362786,318.368423 L265.399678,318.358248 C265.495519,318.352958 265.52245,318.179411 265.473021,317.91913 L265.450891,317.817619 C265.379463,317.525662 265.394431,317.234098 265.484038,317.169398 C265.699351,317.01406 265.66152,316.345804 265.438172,316.358139 C265.116199,316.37591 265.248665,315.917556 265.667586,315.564046 C266.041175,315.248742 266.337468,315.236541 266.425646,315.510739 L266.569802,315.514786 C266.72952,315.513788 266.847724,315.489293 266.799542,315.404842 C266.601632,315.058379 266.610354,314.956003 266.855643,314.747875 C267.073016,314.563501 267.11124,314.358185 267.006992,313.932046 C266.933464,313.631252 266.950454,313.224152 267.048562,312.83428 L267.104332,312.641351 C267.346302,311.903458 267.303518,311.006033 267.034629,311.183858 C266.952256,311.238586 266.808207,311.097341 266.714226,310.870403 C266.51115,310.379237 266.745117,309.74712 267.137995,309.725433 C267.268172,309.718252 267.434348,309.52754 267.53449,309.282502 L267.573068,309.174537 C267.692236,308.786298 267.842851,308.635812 268.268463,308.522571 L268.40464,308.489515 C269.301926,308.289063 269.735463,307.944324 269.710932,307.450975 C269.691017,307.050547 269.643449,306.981365 269.330128,307.159327 L269.165782,307.258706 C268.920831,307.412895 268.853695,307.409167 268.824514,307.116362 L268.81152,306.927193 C268.794794,306.590859 268.70394,306.405408 268.508915,306.320979 L268.430839,306.293956 C267.990537,306.175075 267.936147,305.518359 268.299012,305.132112 L268.383166,305.053779 C268.548403,304.919399 268.663241,304.69676 268.667625,304.519198 L268.660335,304.43479 C268.620787,304.250621 268.741916,303.793853 268.929599,303.419973 C269.066437,303.147362 269.161863,302.787503 269.281661,302.469856 L269.268943,302.088341 L269.268943,302.088341 C269.256225,301.832526 270.010253,301.305986 270.343745,301.31017 L270.408338,301.319482 C270.638847,301.391989 271.132605,300.928632 271.118896,300.652828 C271.114515,300.564774 270.881144,300.286534 270.600272,300.034673 C270.185719,299.663063 270.046438,299.607938 269.63153,299.742905 L269.511125,299.784332 C268.858698,300.018447 268.123788,299.935957 268.213833,299.662259 L268.240605,299.60873 C268.318556,299.491052 268.463684,299.002117 268.563403,298.522207 C268.720433,297.765054 268.804924,297.645668 269.200556,297.620188 C269.451338,297.604052 269.844657,297.42088 270.07448,297.212842 C270.644267,296.696834 270.813673,296.718316 271.075131,297.339177 C271.25576,297.767989 271.401166,297.866065 271.822515,297.842809 C272.110327,297.826918 272.380948,297.709706 272.424346,297.582439 C272.472076,297.442289 272.557916,297.50918 272.642373,297.751967 C272.71269,297.954049 272.873468,298.103629 273.038933,298.130889 L273.109883,298.13488 C273.264477,298.126346 273.399522,298.209086 273.439636,298.32696 L273.451433,298.388564 C273.473071,298.823662 274.395616,298.672003 274.807319,298.165869 C275.004142,297.923834 275.154199,297.504341 275.140736,297.233695 Z" id="rome" stroke="#000000" stroke-width="0.5" fill="#6E8D4E" fill-rule="nonzero"></path>
</svg>