<svg>
  <path
     d="m 149.04846,314.64198 c 0.82007,0.35145 1.75729,0.58575 2.34305,1.05436 0.23431,0.23431 0.35145,1.52299 1.05438,1.40584 0.93721,-0.11716 1.75728,-0.70292 2.81165,-0.70292 1.17153,0 3.16311,2.34306 4.33464,1.9916 0.46862,-0.11716 0,-1.05438 0.35146,-1.28868 1.75729,-1.17153 3.86603,-0.11716 5.74047,0.35145 h 0.46861 c 0.58576,0.58577 1.05438,1.17153 0.82007,1.87445 -0.23431,0.93721 -1.75728,0.70291 -2.34305,1.28866 -0.46861,0.46862 1.40583,3.16313 0.23431,5.15472 -0.58577,1.28868 -5.62333,3.28026 -7.02915,3.86604 -1.28868,0.46861 -3.28027,0.93721 -4.2175,1.75728 -0.70292,0.46861 -1.75728,2.2259 -2.81165,2.4602 -3.98319,1.17152 -11.1295,0.35145 -14.29261,2.92881 -0.82007,0.70292 -2.4602,1.28869 -2.2259,2.34306 0.35146,0.82007 2.10875,0.70291 1.9916,1.52298 0,0.35146 -3.63173,1.17153 -3.86605,1.28867 -1.40582,1.05438 -1.87443,3.04597 -3.04595,4.2175 -3.28027,3.39741 -7.61493,6.67769 -9.72366,11.01234 -0.93722,1.75728 0.35145,7.38059 1.40583,8.90358 0.35145,0.46861 4.6861,2.92882 3.63172,3.63172 -0.82006,0.70292 -2.81165,0.93723 -3.63172,1.52299 -0.2343,0.23431 -0.2343,0.82007 -0.46861,0.93723 -0.23431,0.2343 -0.58577,-0.11716 -0.82007,-0.11716 -0.93722,0.2343 -1.9916,0.35146 -2.81167,0.93722 -0.35146,0.35146 -0.11714,1.17153 -0.58575,1.52299 -0.35146,0.23431 -0.93722,-0.23431 -1.17153,0 -0.4686,0.58576 -0.11715,1.52297 -0.4686,1.99159 -0.46862,0.46861 -1.40584,0 -1.7573,0.58576 -0.4686,0.70291 0.23431,1.75729 -0.11715,2.46021 -0.93722,2.34304 -3.04596,-0.35147 -3.16312,3.39741 0,0.93723 1.87445,1.28869 1.64014,2.10874 -0.35145,0.82007 -1.64014,0.70293 -2.57736,0.58577 -0.58577,0 -1.17152,-0.58577 -1.75728,-0.70291 -2.46021,-0.70291 -5.38903,0.46862 -7.497767,1.87444 -3.631725,2.34305 -3.631725,6.912 -7.380613,8.78644 -1.405825,0.82006 -1.874438,-3.04597 -5.389007,-2.10875 -0.702916,0.23431 -1.054374,1.17153 -1.874445,1.40584 -1.054373,0.35146 -3.514569,-1.64014 -4.568942,-1.7573 -1.405839,-0.35146 -2.92881,0.46861 -4.451796,0.23431 -0.820071,-0.23431 -1.288684,-0.93722 -2.108746,-1.17153 -1.522979,-0.58576 -8.434979,-1.64014 -9.723663,-1.40583 -1.405831,0.35146 -2.108746,2.10875 -3.397422,2.69451 -1.874436,0.70292 -4.217485,-1.40583 -6.794845,-0.11715 -2.108738,1.05437 -1.874444,1.99159 -2.928809,3.51457 -0.117155,0.11716 -0.820071,-0.58576 -1.288684,-0.2343 -0.702915,0.58576 -1.288676,1.52298 -2.225894,1.87444 -0.351449,0.11715 -0.351449,-0.70291 -0.702923,-0.93722 -0.468597,-0.35146 -1.171513,-0.46861 -1.52297,-0.82007 -0.468613,-0.58576 -0.585769,-1.40583 -1.171529,-1.87443 -0.351458,-0.35146 -1.054373,0 -1.405831,-0.35146 -0.820071,-0.82007 -1.991591,-4.68611 -2.225894,-5.85763 0,-0.11715 1.757281,1.64013 1.522987,0.58576 0,-0.35145 -0.702916,0 -0.820071,-0.2343 -0.117156,-0.23431 0.468613,-0.46861 0.351458,-0.70291 -0.351458,-1.9916 -2.108747,0.35145 -1.9916,-3.04597 0,0 4.568951,-2.10875 3.514578,-2.34306 -0.937226,-0.2343 -1.522978,1.75728 -2.460213,1.52299 -0.820054,-0.11715 -0.468596,-1.52299 -0.820054,-2.2259 -0.351458,-0.70292 -0.820071,-1.28868 -1.288684,-1.87445 0,0 -3.163112,-3.04595 -3.163112,-3.04595 0,-0.11716 0,-0.11716 0,-0.23431 -0.117155,0.23431 -0.234311,0.35145 -0.468613,0.35145 -0.702916,0.11716 -1.054373,-0.82006 -1.640134,-1.17152 -0.468613,-0.23431 -2.577351,-0.58576 -4.100337,-0.58576 0.234302,-4.9204 -0.937227,-5.74047 2.928809,-9.1379 0.702915,-0.58576 0.58576,-1.87444 1.288676,-2.22589 0.23431,-0.11717 5.974782,-0.2343 4.568951,-2.57736 -0.351458,-0.58576 -1.522979,0.35146 -2.108739,0 -0.585768,-0.46861 -0.468613,-1.40583 -0.702924,-2.10874 -0.234302,-0.70292 -0.234302,-1.52299 -0.702915,-2.10875 -0.117147,-0.23431 -0.820063,0 -0.820063,-0.23431 0.351458,-0.82006 1.171521,-1.40583 1.522978,-2.2259 0.702924,-1.40582 -1.288675,-0.35146 0.702924,-1.99158 1.757281,-1.40583 4.10033,-1.17153 4.334641,-4.21749 0,-0.23431 -2.225902,-1.75729 -2.694516,-2.69451 -0.702915,-1.52298 0.117156,-3.98318 0.117156,-4.2175 -0.117156,-0.11714 -1.991592,-3.74888 -1.991592,-3.86602 -0.117147,-0.23431 0.35145,0.11714 0.585769,0.11714 1.054365,0.35147 1.757281,0.46862 2.811654,0.70293 2.694515,0.70291 3.280267,0.93721 4.686098,-1.7573 1.640142,-3.28027 -0.117155,-2.10875 -0.468613,-4.56894 -0.351458,-2.2259 3.280267,-1.17153 3.397422,-2.81166 0.117164,-1.17152 -1.17152,-0.11715 -0.468613,-1.52298 0.117164,-0.23431 0.585777,-0.23431 0.702916,-0.58577 0.351474,-0.82006 0.351474,-1.64013 0.468613,-2.4602 0.117155,-0.93721 0.820071,-1.87444 0.702915,-2.81166 0,0 -1.054373,-2.81167 -1.054373,-2.81167 0.351458,-0.35146 1.171529,0.35146 1.640142,0.11716 0,0 2.460204,-2.57735 2.460204,-2.57735 1.757281,-0.93722 5.037556,-1.05438 5.974782,-3.63173 0.702907,-2.34306 -2.343057,-2.10875 -3.163128,-2.2259 -0.58576,-0.11716 0.468613,-4.56894 0,-4.80326 -2.225902,-1.17152 -2.694499,-0.11714 -5.389014,-1.17152 -0.468613,-0.23431 -0.351457,-1.40583 -1.405831,-0.70292 -0.23431,0.23432 0.234303,0.82007 0,1.05437 -1.640133,1.40584 -3.397422,-0.2343 -3.866035,-0.35145 -0.468605,-0.23431 -1.054373,0.35145 -1.405831,0.11715 -0.234294,-0.11715 0.702915,-0.35146 0.468613,-0.58575 -0.117155,-0.46861 -0.702907,-0.58578 -1.171521,-0.58578 -0.702915,-0.11714 -1.522986,0.11717 -2.225901,0 -0.117148,-0.11714 0.117155,-0.35145 0.117155,-0.58575 0,-0.11715 0.117155,-0.58577 0,-0.46861 -0.58576,0.11715 -1.9916,1.75728 -3.045973,1.05436 -2.811654,-1.99158 2.694515,-2.46019 1.288684,-3.86602 -0.234311,-0.23431 -0.702907,0 -0.937226,-0.23431 -0.117139,-0.23431 0.468613,-0.70292 0.234319,-0.82006 -2.108755,-0.46861 -5.037573,0.23429 -6.794853,1.17152 0.23431,-0.93723 -1.054374,-1.7573 -1.054374,-2.6945 -0.117155,-0.35146 0.585761,0.46861 0.820071,0.2343 0.234303,-0.11715 -0.23431,-0.58576 -0.117155,-0.82007 0.234311,-1.05438 1.991599,-0.70292 2.811654,-1.40584 0.234311,-0.11714 0.702924,-0.70291 0.351466,-0.58575 -0.702924,0.11715 -1.405839,0.82007 -2.108747,0.93721 -0.58576,0.11716 -0.820062,-0.93721 -0.351457,-1.40583 0.702907,-0.46861 2.225893,-0.11714 2.460204,-0.93721 0.117147,-0.70291 -1.522978,0.2343 -2.108747,0 -0.468605,-0.23432 -0.820062,-0.82007 -0.937218,-1.28868 -0.117155,-1.17153 1.054374,0.35146 1.171529,0.23431 0.234302,-0.46861 0,-1.05438 0.351458,-1.52299 0.351457,-0.58577 1.405823,-0.70291 1.522978,-1.40582 0.58576,-5.74049 -4.100338,0.82005 -5.037564,-4.80326 -0.702916,-3.86604 2.57736,-2.69451 2.694515,-3.28027 0.117155,-0.35146 -0.937226,0 -1.288684,-0.23431 -0.117147,-0.2343 0.351458,-0.4686 0.468613,-0.4686 1.288684,-0.23432 1.991599,0.11714 2.928809,0 3.045973,-0.23432 7.146311,-2.81167 9.957965,-3.98319 1.054373,-0.46861 2.225902,-1.9916 3.280275,-1.28868 0.468613,0.35146 -0.702915,1.75729 -0.117155,1.87444 0.937226,0.11716 1.522978,-1.52298 2.460204,-1.52298 3.16312,0 2.928818,5.50617 5.857627,6.20908 0.58576,0.11716 0.820062,-1.17153 1.405831,-1.05437 3.280267,0.82007 1.522986,0.93722 4.803253,1.40583 0.820063,0.11715 2.343041,-0.2343 3.045957,-0.11716 0.702915,0.23431 1.054373,0.93723 1.757297,0.93723 0.937218,0 1.757289,-1.17153 2.694498,-0.93723 0.820071,0.23431 0.937227,1.64014 1.640142,2.2259 0.702916,0.58577 2.108747,-0.11715 2.811654,0.58577 0.234302,0.2343 -0.468613,0.58576 -0.234294,0.70291 0.234294,0.35146 0.93721,-0.46861 1.288667,-0.2343 2.928818,1.99159 10.543725,5.74047 14.409769,4.56894 0.234294,-0.11715 0.234294,-0.58575 0.468596,-0.70291 0.468614,-0.11716 0.937227,0 1.40584,0 0.937218,0.11716 3.397416,-0.11716 4.100331,1.28867 0,0.11716 -0.117147,0.35146 -0.234302,0.46861 0.937226,0.23431 3.514569,2.69452 4.451795,2.69452 0.351458,0 -0.234294,-0.82007 0,-1.05437 0.234303,-0.35146 0.702916,-0.46862 1.171529,-0.58577 3.397415,-0.46861 1.171528,-0.11715 2.577365,1.52298 0.46859,0.46861 1.40582,-0.2343 1.87443,0.11716 0.70292,0.35145 1.05438,1.17152 1.64014,1.52298 1.52298,0.82006 4.80325,0.70291 7.02915,0.11714 0.70291,0.70292 1.99158,1.87445 1.99158,1.87445 0.23432,0.11716 0.11716,-0.46861 0.23432,-0.46861 0.58576,0.11715 1.28867,0.35146 1.64013,0.82007 1.05436,1.17152 -2.34305,2.57735 -0.82006,3.28026 0.70291,0.23432 1.40583,-1.05437 1.64013,-0.82006 0.11715,0.2343 -0.2343,0.82006 0,1.05438 1.64014,1.52297 4.21749,0.93721 5.74046,2.10874 0.11716,0.11716 1.28869,2.81165 1.40584,2.81165 1.52298,1.17153 3.04597,-0.93721 4.6861,0.46862 0.82007,0.70291 0.2343,2.2259 1.75729,2.2259 0.70291,0.11716 1.17153,-0.58578 1.87444,-0.46861 0.70292,0.11715 1.05437,0.93722 1.75728,1.05436 0.35146,0 0.35146,-0.70291 0.70292,-0.70291 1.17153,-0.11716 2.2259,0.82007 3.51458,0.93723 0,0 -0.58577,-2.69451 0.82006,-2.46021 1.9916,0.35146 3.16313,1.7573 4.45179,2.92881 0.11716,0.11715 0.46862,0 0.70292,0 0.58577,0.11715 1.28868,0.11715 1.64014,0.46861 0.58576,0.46861 0.2343,1.52299 0.82006,1.87444 v 0.11716 c -0.58576,1.17151 -0.82006,2.81165 2.81167,1.75729 z"
     id="spain"
     fill="#dccfbe"
     fill-rule="nonzero"
     style="stroke:#000000;stroke-width:0.5" />
  
</svg>