<svg>
  <path
     d="M 405.37822,-0.30695633 V 3.6930477 l 4.5,2 v 2.5 h 5 v 3.5000003 l 0.5,3 3,1.5 h 3 l 3,2.5 2.5,2.5 1.5,3 6,6 -1.5,5.500001 v 3 l 1.5,4.5 7,2 v 11 l -2.5,3 -4.5,6 -4.5,4 -5.5,4 -3,1.5 -1.5,2.5 h -4 l -4.5,0.5 -1.5,4.5 -1.5,4 -3,1.5 -6,4.5 v 11.500001 l -3.5,3 -3,1.5 -2,2 5,5 -5.5,4 h -4.5 v 3 l -1.5,3.5 -1.807,2.194 -0.693,-0.694 -2,-0.5 h -2.5 v -1.5 l -3.5,0.5 h -3 l -2.5,-0.5 -3,-1.5 -2.5,2 -6,-0.5 -0.0388,0.02 -0.0292,-0.0361 -0.0214,-0.033 -0.016,-0.0314 -0.009,-0.0339 -0.0143,-0.0344 -0.005,-0.0666 0.002,-0.0409 0.01,-0.0342 0.0166,-0.036 0.0161,-0.0419 0.0476,-0.0988 0.0172,-0.0421 0.008,-0.0401 0.003,-0.0422 -0.006,-0.0741 -0.009,-0.0327 -0.0292,-0.0602 -0.0435,-0.0575 -0.0259,-0.0189 -0.0275,-0.0253 -0.13227,-0.0715 -0.15532,-0.0411 -0.085,-0.0143 -0.15217,-0.0156 h -0.0693 l -0.0618,0.005 h -0.0966 l -0.037,-0.004 -0.0788,-0.0201 -0.0326,-0.0196 -0.0324,-0.0164 -0.0275,-0.0257 -0.0276,-0.018 -0.0202,-0.0319 -0.0223,-0.0261 -0.0202,-0.0323 -0.0314,-0.0657 -0.0253,-0.0734 -0.0256,-0.1612 -0.0134,-0.16862 v -0.16318 l 0.0148,-0.21876 -0.0174,-0.21747 -0.0311,-0.14627 -0.0367,-0.14061 -0.0477,-0.13814 -0.0621,-0.13138 -0.0607,-0.13671 -0.0751,-0.13883 -0.0324,-0.0861 -0.009,-0.038 -0.003,-0.0345 0.003,-0.0285 0.0108,-0.0335 0.0164,-0.0295 0.0409,-0.0511 0.0226,-0.0219 0.0609,-0.0394 0.26065,-0.15527 0.0586,-0.0453 0.0458,-0.0592 0.0161,-0.0283 0.0216,-0.0621 0.002,-0.0409 -0.003,-0.0405 -0.009,-0.0468 -0.0176,-0.0466 -0.0225,-0.0519 -0.12909,-0.35142 -0.34782,-0.39405 -0.008,-0.0203 -0.0132,-0.0199 0.32447,-0.13405 -0.0172,-0.0655 -0.0134,-0.0739 -0.005,-0.0673 0.0139,-0.14535 0.0272,-0.14316 0.0253,-0.0628 0.0338,-0.0647 0.0392,-0.0575 0.093,-0.10233 0.0594,-0.0393 0.0675,-0.0315 0.0679,-0.0262 0.16719,-0.0404 0.0676,-0.0311 0.0284,-0.0244 0.0417,-0.0496 0.0171,-0.0295 0.0148,-0.0346 0.01,-0.0354 0.0146,-0.15104 -0.0333,-0.41852 v -0.0745 l 0.007,-0.0759 0.0116,-0.0287 0.009,-0.0345 0.0161,-0.0283 0.068,-0.10039 0.0392,-0.072 0.0388,-0.0772 0.0317,-0.077 0.0312,-0.15838 0.005,-0.0818 -3e-5,-0.0814 -0.006,-0.0737 -0.0501,-0.14076 -0.0355,-0.0645 -0.05,-0.063 -0.0606,-0.0509 -0.0672,-0.0496 -0.0793,-0.0406 -0.0657,-0.0296 -0.0661,-0.0348 -0.13276,-0.0775 -0.37687,-0.27896 -0.12628,-0.0857 -0.13946,-0.077 -0.22102,-0.0856 -0.0671,-0.0343 -0.0667,-0.0432 -0.0599,-0.0425 -0.23207,-0.21486 -0.12837,-0.0976 -0.14375,-0.0698 -0.0851,-0.0288 -0.0895,-0.014 -0.0946,0.001 -0.1887,0.0147 -0.0381,-0.004 -0.11153,-0.032 -0.0723,-0.0427 -0.0665,-0.0492 -0.0677,-0.0556 -0.12586,-0.14053 -0.10109,-0.16863 -0.0382,-0.0849 -0.0324,-0.0918 -0.0263,-0.0854 -0.0197,-0.0871 -0.007,-0.0873 -10e-4,-0.17801 -0.007,-0.0877 -0.0191,-0.0799 -0.0251,-0.0807 -0.0375,-0.0712 -0.0434,-0.0643 -0.0408,-0.0512 -0.0552,-0.0441 -0.0843,-0.0329 -0.0258,-0.004 -0.0629,0.005 -0.0315,0.009 -0.0337,0.0183 -0.0403,-0.10082 -0.0501,-0.0944 c -0.0221,-0.0357 -0.0486,-0.0749 -0.0783,-0.11319 -0.0445,-0.0575 -0.0963,-0.11324 -0.15308,-0.15412 l -0.0582,-0.0354 v 0 c -0.0397,-0.0196 -0.0814,-0.0307 -0.12365,-0.0291 -0.19596,0.009 -0.28823,0.22061 -0.48642,0.27358 -0.31957,0.0862 -0.6348,-0.0858 -0.95595,-0.15331 -0.0535,-0.0112 -0.10751,-0.0196 -0.1614,-0.0233 -0.0539,-0.004 -0.10786,-0.003 -0.1622,0.004 -0.0288,0.004 -0.0547,0.01 -0.0784,0.017 -0.0396,0.0124 -0.0732,0.0292 -0.10383,0.048 l -0.17342,0.1198 -0.0602,0.0293 -0.0342,0.0115 -0.0375,0.009 c -0.16392,0.0326 -0.41528,-0.10287 -0.5821,-0.11914 l -0.0815,-0.21744 c -0.0159,-0.0399 -0.0329,-0.0811 -0.0512,-0.12282 -0.0549,-0.12514 -0.12092,-0.25489 -0.19893,-0.36775 -0.039,-0.0564 -0.0809,-0.10848 -0.12609,-0.1538 l -0.0702,-0.0626 v 0 c -0.0485,-0.0378 -0.10038,-0.0672 -0.15551,-0.0858 -0.0827,-0.0279 -0.17305,-0.0313 -0.2716,-10e-4 l -0.0587,0.0216 v 0 l -0.06,0.0279 -0.25223,0.13653 c -0.13047,0.0657 -0.26689,0.11243 -0.40684,0.0736 -0.0395,-0.0112 -0.0702,-0.0366 -0.0968,-0.0673 l -0.10685,-0.14564 c -0.0122,-0.0137 -0.0251,-0.0254 -0.0393,-0.0341 -0.0783,-0.0487 -0.13957,-0.0646 -0.20829,-0.0667 l -0.0721,0.002 -0.11312,0.009 -0.21664,0.0306 c -0.0765,0.0105 -0.15271,0.0165 -0.21511,0.003 -0.13583,-0.0287 -0.17905,-0.0555 -0.19901,-0.10971 l -0.0172,-0.0802 -0.015,-0.088 -0.0589,-0.24798 c -0.0255,-0.10004 -0.0575,-0.20103 -0.10957,-0.28484 -0.0173,-0.0279 -0.0367,-0.0537 -0.0589,-0.0772 -0.0223,-0.0235 -0.0475,-0.0444 -0.0757,-0.0622 -0.0282,-0.0178 -0.0596,-0.0327 -0.0948,-0.0434 -0.0311,-0.01 -0.0602,-0.0132 -0.0875,-0.0121 -0.0273,0.001 -0.0528,0.007 -0.0769,0.0173 -0.0241,0.0101 -0.0466,0.0244 -0.0682,0.042 -0.0215,0.0176 -0.0422,0.0384 -0.0617,0.062 -0.117,0.1416 -0.20256,0.3773 -0.3186,0.54221 -0.0193,0.0275 -0.0393,0.0529 -0.0606,0.0756 -0.0213,0.0228 -0.044,0.0431 -0.0679,0.0597 -0.0477,0.0331 -0.10082,0.0522 -0.1622,0.0513 -0.0614,-9e-4 -0.13076,-0.0219 -0.21035,-0.0691 -0.0248,-0.0147 -0.0472,-0.0334 -0.0673,-0.0552 l -0.0287,-0.035 v 0 l -0.0259,-0.039 -0.0448,-0.0876 -0.0194,-0.047 -0.1071,-0.3035 -0.0505,-0.10438 -0.0321,-0.0484 -0.0333,-0.044 -0.0702,-0.0768 c -0.0482,-0.0466 -0.0991,-0.0846 -0.1523,-0.11849 l -0.0814,-0.0483 -0.25969,-0.1406 c -0.0723,-0.0423 -0.12935,-0.0841 -0.17588,-0.12775 l -0.0625,-0.0673 -0.0503,-0.0722 -0.0415,-0.0784 v 0 l -0.0364,-0.0868 -0.0718,-0.20598 -0.0359,-0.0932 -0.0417,-0.0906 -0.15533,-0.30926 -0.0532,-0.13593 -0.0138,-0.0464 -0.0113,-0.0472 -0.0165,-0.11522 -0.0183,-0.17153 -0.0102,-0.0563 -0.015,-0.0558 -0.0211,-0.055 c -0.0187,-0.0423 -0.0436,-0.078 -0.072,-0.10964 l -0.0929,-0.0864 v 0 l -0.0971,-0.0809 -0.0846,-0.0931 -0.0289,-0.0473 -0.0226,-0.0494 -0.0169,-0.0513 -0.0124,-0.0528 -0.009,-0.0541 -0.006,-0.0551 -0.0132,-0.22609 c -0.006,-0.0754 -0.0153,-0.14975 -0.0386,-0.2204 -0.0117,-0.0353 -0.0267,-0.0697 -0.0464,-0.10277 -0.0318,-0.0541 -0.074,-0.0976 -0.12195,-0.13478 l -0.0497,-0.0353 v 0 l -0.0526,-0.0322 -0.22072,-0.11898 c -0.054,-0.0313 -0.10507,-0.066 -0.14908,-0.10848 -0.11742,-0.11243 -0.21472,-0.21906 -0.28753,-0.3375 -0.0546,-0.0889 -0.0957,-0.18437 -0.12189,-0.29395 l -0.0118,-0.0559 v 0 l -0.0431,-0.28595 c -0.0128,-0.0719 -0.0277,-0.14071 -0.0465,-0.20754 -0.0188,-0.0668 -0.0416,-0.13163 -0.0703,-0.19642 -0.0287,-0.0648 -0.0637,-0.12941 -0.10617,-0.19525 -0.0375,-0.0581 -0.0778,-0.11082 -0.11947,-0.15996 l -0.12802,-0.13915 v 0 l -0.19083,-0.19637 -0.0593,-0.0682 -0.0576,-0.0793 -0.0495,-0.0848 -0.0424,-0.0896 -0.0363,-0.0937 -0.0312,-0.0975 v 0 l -0.0272,-0.10025 -0.0244,-0.10187 -0.0666,-0.31096 -0.05,-0.20485 -0.0409,-0.13227 v 0 l -0.0499,-0.12676 -0.0615,-0.1196 -0.0586,-0.0926 -0.0607,-0.0835 -0.0988,-0.11328 c -0.2709,-0.27607 -0.60171,-0.35157 -1.01345,-0.40424 l -0.30268,-0.0307 c -0.15034,-0.0159 -0.29815,-0.0389 -0.43889,-0.097 -0.17195,-0.0711 -0.34367,-0.14329 -0.52531,-0.15417 l -0.13825,0.004 0.005,-0.0126 -0.0504,0.008 -0.051,0.0121 0.004,0.10826 0.0142,0.14772 -0.0841,-0.12834 v -1.5 l -1.5,-2 1,-3.500001 -1,-3.5 2.5,-4.5 v -2.5 l 1,-6.5 2.5,-2 3,-0.5 1.5,-2 v 2.5 l 2,1.5 1,1.5 3.5,1 1.5,4.5 h 3.5 l 4,-3 v -5.5 l -3.5,-4.5 1.5,-2.5 v -5.5 l -1,-2.5 -3,2.5 h -3.5 v -5 h -3 v -4 l -1,-2 0.5,-1.5 4,-3 v -2.5 h 5 l 0.5,-2 1,1 2.5,-1 2.5,-3 2,-0.5 h 1.5 l 7,-0.5 h 5 l 2,-1.5 -1,-4 h 3.5 v -3 l 3,1.5 v -4.000001 h 9.5 v -1.5 l -2,-0.5 -3.5,-1.5 -4,1.5 h -3 l -2,-8.5 -4,5.5 -6.5,1.5 -2.5,1.5 h -3 l -2,2 -2.5,1.000001 v 3 h -3.5 v 2 h -5.5 l 1.5,2.5 -2,1 -3.5,2.5 -6,2.5 2,-3.5 -3,-3.5 v 3.5 l -3.5,1.5 0.5,-3 0.5,-4 -3.5,2 -2.5,-0.5 -1,-1.5 -2,0.5 -2,-0.5 v -4.5 h -2 v -3.000001 h 3 l -1,-3 v -2 l -2,-3.5 h 3 l -3,-2.5 -3,-3.5 V 7.1930477 l -2.5,-2 v -3.5 l 1,-2.00000403 z"
     id="stpetersburg"
     fill="#9c6bae"
     style="fill-rule:evenodd;stroke:#000000;stroke-width:0.5" />
  
            </svg>