<svg>
       <path d="M299.8-92.9h2.1c.4.2 1 .2 1.4.6 1.5 1-.4.8.5 1.4l2.3 1.7c1.7 1.4 3.8 3 5.2 3.6 2.5 1 4.5.1 6.7 2.3.5.4.1 1.4.6 1.7.3 0 .6-.5.8-.4 1 .4 1.3 1.5 2 2.2.2.3 1 .3.8.6-1.3 2.5.1 2.6.5 5.4 0 .5-.4 1-.4 1.4-.2 1.4 1.5.4 2.1.8 1.5 1.2-.8 2.7-.3 4 .8 1.7 3.6 3.2 3.8 5 .2 1.5-.9 6-.8 6.5 1 3.7 3.9 5.6 5.3 8.6-.4.5-1 .5-1.4.8-.7.3-1-.4-1.4-.4-.5 0-.2.7-1.2.5-.9 0-.4.8-.7.8-.9.1-.8-1-1.6-.5-.3.2.7.5.3 1-.3.3-.2 1-1 .4l-.3-.3c-2.2-1.6-2.3-2-1.8-.2 0 .2-.3 0-.6.1s-.5.4-.6.1c-.2-.6-.6-.8-1-.9-.3 0 .5 1 .3 1.2-.9 1.1.4.8.3 1.7h-.4c-.5.2-.8.3-.6.8 1-.1 1.8 1 1.6 1-1 .3-3.4-1.2-4.3-1.3 1 1.1 2.6 1 2.7 1.5.2.8-1.2.5-1.9.9h.6c.6.5 1.4.6.7 1.2 0 .1-.2-.6-.4-.5-.2.2.3.6 0 .8-.6.4-2.2.2-3.3.8l.1.3.4.6c.2.3.2 0 .6 0 .4.1 1 .7 1 1-.1.2-.7.7-1 .6 0-.2-1-.6-1-.8v-.1l-.4-.5-.4-.3-.1.2c0 .4.4.5.7.6.8.6 1.3 1.2 1.7 2.1.7 2.1-2.3 2.7-2.4 5-.2 2.9 3.3 3.5 4.3 5.6-.8 1.2-2.2 2.5-2.6 3.5-.7 1.5-1.3 7.9-2.8 8.1-.2 0-.2-.8-.4-.7-.8.1.3 2-.5 2.4-.3.2-.2-1.4-.6-1.2v.2h-.2c-.2.4.2 1.1-.1 1.4-.4.4-1.8.2-2.1.9-.4.5-.3 2.7-.9 3-.7.2-1.7-2.2-2.2-1.6-.5.7 1.3 1.1 1 2-.4.5-1.2-1.2-1.7-.9-.6.5.5 1 .4 1.7v.3c-.1.8-.3 1.8-1 2.2-.7.3-1.5-.7-2.2-.7h-.2c-.3 0 .1 0 .5.3h.1-.8v.1c-.1.4.7.7.5 1-.3.3-1-.4-1.3 0-.3.2.5.3.7.7h-.6c-.3.4 0 1.3-.4 1.6-.4.5-2 1-1.6 1.3.7.6 2.3-.4 2 .5v.2c-.4.9-1 1.6-2 1.3-.7.2 0 1.2-.4 1.3-.6.2-.7-.2-.7-.6-1.1 0-1-.5-2.7-2.1l.3.5c1.3 2.6 1.8 2.7 2.7 3.2.4.8.5 2.6-.4 2.3-.3 0-.4-1.1-.6-.9-.4.6 0 1.5-.5 2.1-1 .4-.8 1.2-1.1 1.2-.9 0-1.3-1.2-2-.8-1.8 2.5 2 1.8 1.3 3.5 1.1.6 1 1 .2.8-.1 1 .3.8.1 1.8 0 .6-.5 1-.7 1.6 0 .7 0 1.4.2 2.1v.3c0 .4 0 .7.4 1 .5.9 1.2 1.4.5 2-.7.8-1.2-1.3-2.1-1-1.5 2.7 1 3.3.3 5.5 0 .5.9.7 1 1.1 0 .3-.5.1-.5.4 0 .4-.2.8 0 1.2l.4 1c1 1.2 0 .6 0 1.9.3.6.9 1.4 1 2.1 0 .7-.3 1-.2 1.6 0 .3.3 0 .6 0 .3.1.4 1.5.7 1.5 2.5-.2 1.5 1.7 2.1 1.7.7 0 1.3-1.8 1.9-1.4.4.2.5.4.7.8v.2c.6 1 .5.4 1.9 1.6.5.5 0 .7.2.9h.5c.8.3 1.5.5 2.3 1v.2c0 .3-.3.5-1-.2h-.3c-.6-.4-.6-.2-.4 0l.2.4a9 9 0 0 0 2.3 1.9c.3 0 .6-.6 1-.3.7.2.3.6.7 1 .4 1.7 1.7 1.6 2 3-.6.2-.4 0-1-.5-.3-.4-.7-.7-.5-.4l.2.3v.5c.2-.2.3-.2.5 0 .4.5.4.4 0 .7-.5.3-.7 0-.5-.5l-.2.2v.1c0 .3-.2.3-.7.6-.5.2-.3.4-.1.3l.5-.2.6-.2c.5-.2.8-.1 1.3 0v.6c-.1 1.1-1-.2-1.2-.2-.5 0-.2.2-.6.6-1 1.2 0 2.2-3.3 3.7-.1.2.3 1.2.3 1.3-.2.3-.5-.2-1 0-.8 0-1.8 1.2-2.7 1.2-1 0-.5-2-.5-2.8-1.2-2.2-1.2-.4-1.8-1.2 0-.8.2-1.5-.4-2.4-.6 1.2-1.4.8-1.6 1-.1.4 1 .2.5 1 0 .2.3 0 .5-.3l.1-.1c.2-.4.4 0 .2 1 .7.6 3 1.2 1.6 2.2-.7.1-1.2-.2-1.7-.8l-.2-.2c-.6-1-1.8-1.5-.6 1.2-.3.7-1 0-2.1-.8-1-.3-1 .3-2.2 0-.6-.3-.3.6-1 .8-.6 0-1.1-1.3-1.5-.7 0 .3.2 1-.1 1-1 .2-1 0-1.8.5-.2 0-1.6.3-1.4.5 1.6.8 2.6 0 3.3-.3h1.4c.3.5.7.7 1 1 .4.2 1 .2.4-.3l-1-.7c1-.3 1 0 1.6.3.4.5.2.5.9.9.7.2 1.4-.3 2 .3.3.3-.5.5-.2 1.1.2.4.4.3.8 0 .2-.3-.2-.8 0-1 .6-.1 1.6 1 2 0 .9.3.9 1 1.7.6.6-.2.7-.8 1.2-1.1 1.1-.2 2-1 2.7-1.2.8.5 1 .4 1.1-.5.7-.1 1.8.6 1.5 1.2l-.1.1c-.6.9-1 2-2.7.2l.2.7c.4.8 1 .9 1 1.7 0 .2-1.2.2-1.5.5l-.5.3c-.3.1-.4.2-.7.8-.5.8-.3 1.9-.7 2.7-.2.5-.6-1.7-1.2-1.5-.3.2.6 1.5.3 1.3-1.2-.5.1-4-1.7-3.7v.3c.2 1.1.5 4.5-1.3 5.8-.7.5-2.1.4-3 .5-.3.1 1 .4 1 .7.4 1.4-1.3.5-1.5.7l.3.2c.2 0 .4.1.4.3h-.6l-.4.3H297c-1.7 0-4.4-.1-4 .7 0 .2.4.2.7.2l.4-.4c.2.2.2.9.6.7.2 0-.2-.7.2-.7 1.8.3 3.4-.6 4.2 1.3 0 .2-.6-.2-.7 0-.5.4.6 1.1-.7 1.1-1 0-2.3-.8-3-.1-.5.7 1.6.6 2.3 1 .4.4 1.5 2.9 1.1 3.5-.2.4-1.1-.6-1.2 0-.2.5 2.3 2.9 1.5 4-.6.6-2-.4-2.8 0-.3 0 0 .3.2.5l.1.1c.5.6 2.4 1.2 2.4 2.1 0 .9-1.6 1.3-1.4 2.3 0 .7 1.1.7 1.6 1.3.1.2-.5.2-.6.3-.5.8-1 1.8-1 2.7-.3.7 0 2.1 1.2 3.6-.2.2-.8-.3-1.2 0-1 1 .8 2.6.5 4 0 .4-1 0-1 .4-.3.4.5.9.3 1.2l-.1.4c-1.2 3-.6-3-1.2.8-.3 2.4-.2 6.5-2.2 8.3-.1.2-.4 0-.6-.2l.3-.6v-.1c0-.3-1.7-.1-1.7-.1-.2-.1.2-.6 0-.6-1.1.1-1.2.7-1.8 1.3-1 .8-.4-1-.7-.8a6 6 0 0 1-2.1.7l-1.4-.1h-.3c-.4 0-1.1-.4-1.2 0-.3.8 1 1.5.7 2-.6.6-1.3-.2-2.2 0-.6.2-.5 1-.7 1.6v.2c-2.1 3.7 1.3 3.6 1.2 6.6-.1 1-1 2-1.7 2.6-.6.6-3.7-1-4-1-2.9-.2-1.8 1.9-4.7 1.9-1 0-2.6-.8-3.5-.9-.4 0-1.3.4-1.7.2-.8-.5 1.4-1.1 1.4-1.1 0-.7-.8-1.2-.6-2 0-.6.9-1.4 1.1-2l-1.5-2.5-1.2-2-.3-.4-.8-1.3c-1-1.5-1.1-2.6-.9-2.9.5-1 2.1 1.3 3.2.8.9-.3-2.4-1.7-2-2.7.4-.8 2 .2 2.4-.5.6-.9.2-1.8-.2-2.6-.3-.4-1-.1-1.4-.2-1-.4-.7-2.3-1.4-3.1-.5-.6-1.4-.6-1.9-1.2-.2-.4 0-.8-.3-1.3-.7-.2-1.5-1.9-1.2-2.8-.8 0-1-.6-.7-1.8-1.2-.1.3-1-.3-1.4h-.1c-.6-.6-.7 1.4-1 .8-.7-.5-.3-2-.5-2.9-.2-.8-.5-.8-.6-1.4-.2-.5.6-.1.2-.8-.2-.3-1.6.8-1.4.1.4-1 .8-1-.4-2-.4-.4.4-.6.9-1.2.3-.4-.5 0 0-.9.2-.6 0-1 .2-1.7s.5-2.9 0-3.5c-1.4-1.6-.2 3.7-4.6-.7-.7-.7.4-2.8.4-3.6 0-1.4-1.5-6.7-1.5-6.7.5-.6 1.7.5 2.4.3v.4c.4 1 .9 1.8 1.8.5 2.6-3.7-.7-8.4 0-10.5.3-.8 1.4-1 1.8-1.6.2-.5 0-1.1-.2-1.6 0-.3-.6-.4-.5-.7.2-.8 3.8-1 5-3.5v-3.6c1.2-6.7-1.8-5.4-2.4-10.4-.1-1.2 2-.7 3-1.4h.1l1.3-4.7c-.5-3-4.9-2.7-5.6-5.4-.6-2.5 1.3-5.7 1-8.3-.2-1.8-2-3.3-2.2-5 0-.8.5-1.6.5-2.3-.1-.8-.6-1.5-.5-2.3 0-.7.8-1.2.8-1.9v-.8c0-12.4-1.7 11-1.7-3 0-1.2 1.6-2 1.7-3.3.2-.5-.5-1-.4-1.6a15 15 0 0 1 4.4-6.8c4.8-3 8 2.5 8.8-3 .8-5.8-4-4.6-3.4-6.7 1-3.3 2.7-6.6 3.8-9.7 0-.4.5-.6.7-1l-.3-4.4v-.3l.6-3.3-1.2-4.6c.5-1 2.2 0 3.2-.4h.1l2.6-2.3c.4-1-1.1-2-.9-3 .7-2 4.3-6.4 5.2-8.5v-.2c1.4-3.2-1.7-3.4-2.2-6-.3-2 1-.8 1.7-1.6.9-1.1 1-2.6 1.1-3.9v-.2c.2-1 2.3-4.8 3-5h.1l3.7 1.6c2.4-1-.5-7.6.2-8.6 1.6-2 9.7 2 10.7 1.2 3.8-2.4 0-2.3-.3-3.3-.4-1.4 1.6-2.5 1.6-3.9 0-.8-.2-1.6-.6-2.3-.3-.6-1.8-1-1.5-1.5.2-.3.4-.4.7-.5h.1Zm2.4 181.3c-.8 1.9-2.7 9.8-3 12.5l-.1.2c-.1.6.3 5.1-1.2 5.2-.2 0-.7-5.2-.7-5.6.3-3.4 3-5.4 3.5-8.5.2-1.4-.6-2 .5-3.4.2-.4.7-.3 1-.4Zm12.9-10c.3 0 .5.3 1 .3 1.2 1.2-.6 2.5-1 3.2-.6 1.4 0 .6 0 1.7v.1c-.4 3.1 1.6 1.4 1.6 2.5 0 .7-1 .6-1.4 1-1.6 1.8 1.2.8-1 2.5l-.4.4c-3 3.4-.3 1.2-1.2 2.9l-.2.3c-.4.7-1.1 1.7-1.4 1.1-.3-.6.4-1.5.8-2.2h-.2c-.2 0 0-.3-.2-.4l-.9-1.8c-.3-.6-.7-.4-.8-.9 0-.7.5-.7.5-1.4-.1-.8-.7-1.6-.7-2.4 0-.5 1.3-3.4 2.4-4.9.2-.3.8 0 1.1-.4.4-.4.1-1.2.7-1.4 0 0 .6 1.4.8 1.4.2 0 .2-1.4.3-1.5h.2ZM256.8 81c.3 0 .5 0 .3.4l-.4.7c-.4.7-.8 1.4-1 .6l-.3-.6c-.1-.5-.2-.7.1-1h1.3Zm.4-3.3c.4 0 .5.7.4 1.6 0 1.2-.8.9-1.6.9s-1 1.1-1.4-.2c-.3-.8.8-1 1.8-1.8h.2c.2-.3.4-.4.6-.5Zm60.1-.6c.2 0 .2.2.6.1.5 0 .7 0 .7.3s-1 .4-1.3.7c-.3.3.1.4.1.9 0 .4-.6 0-.9-.2-.2-.3-.3-.5 0-.9.1-.4 0-.3.5-.7l.3-.2Zm-14.6-20.4c.1 0 .2 0 .2.3 0 .4.2.8.2.6 0-.3.2-.4.5 0 .4.3.1.3-.3.7-.3.3-.5 0-.7-.3l-.2-.4c-.1-.3-.2 0-.4 0-.3-.3-.7-.7-.4-.7h.9l.1-.1Zm-3.2.1.6.6c.1.3-.2.4-1 .5-.8 0-.4-.3-.6-.7-.4-.2-.4-.3-.1-.3H298.7c.5 0 .3.2.5.2 0 0 .1-.3.3-.3Zm-2.2-.9h.3c.5.2.7.3.6.6 0 .3-.3.3-.3.6v.1c0 .4-.3.4-.7 0h-.1c-.2-.4.1-.6.1-1v-.3h.1Zm9-16.3c.4 0 .5 1.3.7 1.7.2.4 1.2.7 1 1.2-.2.3-1.2-.3-1.6-.7-.4-.4-.4-2-.2-2.1h.1Zm-1.9-42.4.2.1c.2.1.4.2.4.4.1.2-.5.3-.7.3-.3 0 .3-.6.1-.8Z" id="sweden" stroke="#000000" stroke-width="0.5" fill="#DCCFBE" fill-rule="nonzero"/>
        </svg>