<svg>
  <path
     d="m 228.69609,238.55661 c -1.28503,0.15376 -2.37121,1.94169 -2.10761,2.02954 0.7029,0.11716 1.40469,-0.11714 2.10761,0 0.46861,0.11716 -0.81945,0.23404 -1.1709,0.46836 -0.23431,0.11716 0.11715,0.70248 0,0.81962 -2.92882,1.52298 -0.81835,-0.70259 -3.16141,-0.58544 -0.35145,0 -5.73718,1.28836 -6.08864,0.58544 -0.11715,-0.23431 0.7026,-0.3512 0.58544,-0.46835 -0.23428,-0.23432 -0.46824,-0.23424 -0.70253,-0.11703 l -0.23418,0.23412 c -0.11715,0.23431 -0.3512,0.46835 -0.46836,0.46835 -3.98318,4.10034 -4.68921,-2.46679 -7.96947,-1.52957 -0.23431,0.11716 0.23417,0.58534 0.23417,0.81962 0,0.11716 -0.23417,0 -0.23417,0 -0.35146,0.46863 -1.28812,0.93641 -1.05381,1.52217 0.11715,0.58577 3.98845,1.52926 3.98845,2.11502 -0.11716,1.64014 -2.81724,-1.76402 -3.403,-1.2954 -1.05439,0.82008 -1.99008,3.20006 -2.81015,3.90298 -0.70291,0.82007 -2.34153,0.46785 -2.81014,1.40507 -0.35145,0.82006 0.35145,1.87302 0,2.57596 -0.46862,1.28867 -2.57551,1.28735 -3.39559,2.45888 -1.40583,1.75728 -1.32081,10.33185 -1.90657,12.20627 -0.11715,0.35146 -1.28798,-0.235 -1.28798,1.28799 0,0.2343 -0.5855,0.46835 -0.46835,0.46835 1.40583,0.35146 3.04395,-0.23341 3.74685,-1.63925 0.11716,-0.2343 -0.46828,-0.46823 -0.58544,-0.70253 0,-0.35146 -0.11728,-0.58531 0.11703,-0.81963 1.05436,-1.64012 7.88471,-6.46186 9.40769,-5.75895 0.46861,0.11715 -0.46843,0.81944 -0.35127,1.17089 0,0.58576 0.70247,0.8193 0.81962,1.40507 0.11716,0.70291 -1.52253,0.58481 -0.81962,1.75634 0.2343,0.23429 0.93665,-0.11728 1.0538,0.23418 0.2343,0.35146 -0.35133,0.93652 -0.23418,1.28798 0.11716,0.2343 0.58538,-0.46848 0.70254,-0.23418 0.58576,0.58578 0.58518,1.40469 1.0538,2.10761 1.17153,2.10874 4.33148,-0.23399 5.85446,-0.58545 1.05439,-0.2343 1.87285,1.17089 2.92724,1.17089 0.11715,0 3.39559,-3.39529 3.39559,-3.98103 0.11714,-0.58576 -0.93678,-0.81936 -0.81963,-1.28798 0.2343,-0.70291 1.17059,-0.93645 1.75634,-1.40507 0.58576,-0.46861 -1.17121,0.7028 -0.58544,0.23418 0.2343,-0.11716 0.46829,-0.35135 0.58544,-0.23418 0.23431,0.7029 0.11703,1.40469 0.11703,2.10761 0,0.35145 1.87336,-0.81989 1.99051,-0.35127 0.82007,1.52297 2.69235,1.87316 3.98104,2.34178 0.11715,0 0.35127,0.23404 0.35127,0.46836 -0.11716,0.46862 -0.93678,0.81938 -0.81963,1.28798 0.11715,0.46862 0.93653,0.23399 1.28798,0.58544 0.46862,0.58576 0.70216,2.57629 1.40508,1.99052 1.99159,-1.52297 -0.35127,-1.05316 -0.35127,-2.22469 0,-2.57737 2.84892,-3.27736 3.31752,-5.38611 0,-0.2343 -1.28905,-3.39577 0.70254,-3.04431 1.52298,0.23431 -0.35292,2.57558 2.69305,3.27849 1.87444,0.58577 0.34956,-1.75666 3.51268,-1.17089 0.93722,0.11715 0.46791,1.99026 1.28798,2.45887 0.46862,0.23429 1.40513,-0.23391 1.28798,-0.70253 -0.2343,-0.35146 -0.70248,-0.5852 -0.81962,-1.0538 0,-0.46862 0.70259,-0.81937 0.58545,-1.28799 -0.23431,-0.58575 -2.34268,-1.8728 -0.70254,-3.04432 1.58156,-1.14224 1.51374,0.45582 2.41984,1.09284 l 0.039,0.0781 0.11703,0.039 c 0.15945,0.0793 0.36202,0.11003 0.58545,0.11703 l 1.75633,0.39029 0.35127,-1.52215 h -0.46836 c 0,0 0.24092,-2.3509 0.46836,-3.31754 0.22744,-0.96663 -0.19515,-1.40507 -0.19515,-1.40507 l -1.09283,-1.32701 -0.0781,0.19516 c -0.21192,-0.10442 -0.42526,-0.19516 -0.74156,-0.19516 -1.28869,-0.23431 -1.63824,2.92775 -3.51269,1.99052 -0.82007,-0.35146 -1.52185,-0.81925 -2.1076,-1.52216 -0.23432,-0.2343 0.3514,-0.58532 0.11703,-0.81962 -0.11716,0 -1.95049,-1.87402 -2.1848,-1.99117 -0.2343,-0.11716 -1.09389,-2.8482 -0.74243,-3.43397 0.11714,-0.11715 0.58538,0 0.70253,-0.23418 0.46862,-1.17153 -1.0538,-1.40462 -1.0538,-2.22469 v -0.11703 c -1.05437,-0.58576 -1.87281,-1.75621 -3.04433,-1.99051 -0.11714,0 -4.02006,0.23417 -4.02006,0.23417 -0.46861,-0.23431 -0.46809,-1.05368 -0.93671,-1.28798 -0.11715,-0.23431 0.2343,0.58538 0,0.70254 -0.2343,0.11714 -0.70248,0 -0.81962,-0.23418 -0.11716,-0.35146 0.46848,-0.81949 0.23417,-1.0538 -0.43932,-0.43933 -0.85964,-0.55865 -1.28798,-0.5074 z"
     id="switzerland"
     fill="#dccfbe"
     fill-rule="nonzero"
     style="stroke:#000000;stroke-width:0.5" />
  
</svg>
