<svg>
        <path d="m310.7 256.2 2 .3.9.3c.3.3.6.2 1 .3.4.1 1 .7 1.2 1.2.2.5.2 1.6.8 1.8 0 .8.5.4 1 .7 0 .1.1.4.3.5.2.1.3 0 .4.2l.3.2c.2-.2.2-.7.7-.6 0 0 .7.8.6.2.1-.1.5 0 .6.2l.1.6h.2c0-.3 0-.4.3-.3.2.3.2.6.1.9-.1.2-.3.5 0 .5l.4.6c.2 0 .3-.2.5 0-.1-.4.5 0 .5 0l.7.1c.2-.5.7.4 1 .3 0 .2.2.2.3.3l.1.2h.2l.3.4c0 .2.3.2.3.4h.4c.1-.3.3 0 .4.2.2.2.4.3.7.2v-.5c.2.2.3.2.5.2l.1.6h.2c0-.3.5-.8.6-.3.2-.1 0-.4.1-.5.2-.2.4-.2.5 0 .2.1 0 .4 0 .5.3.3.3-.2.3-.3h.2v.1l.1.2.6.2c.4 0 .2-.4.2-.6.2-.1.4.2.4.4h.1c.3.1.3-.2.5-.2.3 0 .4.2.5.3.3-.1.2-.3.4-.2.2 0 .4.2.4.4l.4.1h.5v-.3c.6-.2.9.5.3.7l.6.3c.2 0 0-.2.3 0 .1.1 0 .3.3.3v.1l.2.6c.3.2.7-.3.9-.4 0 .2.3.6.1.8l.3.2c0-.3.1-.3.4-.3h.1l.2-.1c0-.1 0-.3.2-.3s.2.1.3.3c.3.2.3-.1.6 0 0 .3.6.2.6-.2l.6.3.4-.2v-.4c.2-.1.4-.2.6-.1.2 0 .6.4.6.7-.2 0-.5.2-.5.3l-.2.6c0 .3.3.4.4.6.2.3-.1.3-.3.5-.2.2-.1.3 0 .5.2.4.3.3.6.2.3 0 .3 0 .5.3.2.1.3 0 .5.2h.6c.4-.1.6 0 1 .1l1 .2c.3 0 .6-.3.9-.4.2-.2.5-.3.8-.1.3.2.5.2.9.1.6 0 1.3 0 1.8-.4h.1l.2-.3v-.6c0-.5.3-.1.6-.1l.3.4.2.5c.2.4.4.4.8.4l1 .1c.5 0 .9-.2 1.4 0l.3.1c.3 0 .5.2.7.3l.4.5.4.2c.1.1.3.3.3.5l-.3.3c-.3.5-.1.8.3 1h.1c.5.2.8.5 1.2.9l.4.3.3.2h.1-.2c-.2 0-.6.2-.6.5h-.4v.2c.1.1.2.3 0 .5-.1.2-.3 0-.3-.2h-.4l-.3.5h-.4l.2.4v.4l-.4.2v-.4h-.2l-.2-.5h-.1v.3c0 .2-.1.4-.3.4.1.2.2.8 0 .8l-.3-.3h-.2c-.1-.2 0-.3-.2-.5-.4-.3-.5.2-.8.3-.1 0-.4 0-.5.2 0 .1.1.3 0 .4-.4.2-1 0-1 .5-.5.3-.2-.5-.2-.6v-.3h-.3l-.7.1v-.4c-.3 0-.7.2-1 .1-.4 0-.2-.4-.7-.3-.2-.3.1-.3.3-.5.2-.2 0-.2-.2-.5l-.1-.5c0-.2.2-.4 0-.6-.2-.2-.7.1-1-.3 0-.1 0-.5-.2-.5-.1-.1-.3 0-.4-.2l.3-.1c.2-.5-.4-.1-.5 0-.3 0-.3-.2-.6-.3-.3 0-.4.3-.7.3h-.5l-.2.2.1.6h-.2c-.1-.2-.4-.3-.4 0v.8c.1.4.7.9.4 1.4.2 0 .4.1.5.3l-.1.2c-.4.3 0 .4 0 .8-.2.3-.6.2-.8.6l-.3.9c0 .3.5.8.2 1l-.5.1v.6l-.2-.1.1.2v.4l.1.6.6.7v.2s.2 0 .1.2v.2c-.2.2-.2.3 0 .6 0 .3.2.1.4.2.3 0 .3.3.3.5l.4.4-.2.4v.3c0 .2-.2.3-.3.5v.3c0 .2.2 0 .3 0h.1c.2 0 .4 0 .5.3 0 0 .1.3 0 .4l-.1.3c-.2.2-.1.4 0 .5l.1.1.3.6c0 .3-.3.4-.3.7-.6.3 0 1.3-.7 1.5v.1c-.3.1 0 .7 0 1l-.1.4-.2.4c0 .2.4.5.5.7h.1l.6.5c.5.3 1 .6 1.2 1l.4.8.2.5-.1.4c-.5.2-.3.7-.3 1 .1.6-.3.7-.8.7l-1.3.1c-.3.1-.7.4-.7.8-.3.1-.6-.4-.8-.5-.4.5.2 1.2.4 1.6l.7.6c.2.3 0 .6-.4.5-.3 0-.4-.3-.7-.4a1 1 0 0 0-.8 0 2 2 0 0 0-1 1.3c-.3.2-.5.7-.7 1l-.2.1-.3.7-.1.4v.3l-.1.7v.2c0 .3-.2.4-.3.7-.1.5.2 1.2.3 1.7l.7 1.5v.3c.4 0 .7.2 1 .3l.7.4.4.9c0 .4.4.7.5 1l.3.6c0 .2.1.3.4.4l1 .7c0 .2.2.3.3.5l.1.2.3.4.5.3c.1 0 .4.2.6.1v.1h.2l.2.2c.2.2 0 .3 0 .4 0 .3-.3.5-.4.8-.2.1-.3 0-.4-.1h-.5l-.1-.1h-.3v-.5c0-.3-.4-.2-.6-.2l-.7-.4c-.2-.2 0-.4-.1-.6l-.3-.2-.3-.2h-.1l-.3.2-.6-.2-1.2-.3h-.1c-.1-.1-.2-.2-.1-.3v-.1h.2v-.2l-.1-.2h-.2l-.5.3h-.3c-.3-.2-.3-.5-.4-.8.3-.3.8-.1 1.2 0h.1l.2-.1.1-.2c0-.2-.2-.4-.4-.4l-.6.2h-.1c-.1.1-.3 0-.4 0h-.1c-.1 0-.3-.1-.4 0l-.1.1.2.6v.1c0 .2-.4 0-.5-.1-.1-.2-.2-.4-.4-.4v.2c-.3 0-.5-.4-.6-.6l-.3-.4-.2-.2-.7-.5h-.2l-.2-.1v-.4h-.9c0-.1-.2-.1-.2-.3-.3 0-.5-.2-.5-.5l-.1-.3h-.4l-.4-.2c-.1 0 0 .2-.2.3-.2.1-.4 0-.5-.1l-.1-.5h-.2l-.2.1-.5-.6-.6-.2h-.1c-.1-.1-.2-.2-.3-.1v.4c-.2 0-.3-.2-.5 0v.1h-1v-.2l-.3-.1-.5.1h-.2c-.1 0-.2-.3-.4-.3h-.7c-.3 0-.8-.1-1-.4l.2-.2c0-.4-.9-.3-1-.5l-.3-.3-.5-.4c-.4-.2-1 0-1.4 0l-1.3-.3v-.1l.3-.1-.1-.6c.2-.2.2.2.3.3l.2.1H324.2l.3.2.6-.1h.6l.2.1h.3l.6.1v.1c0 .3.2.2.4.3.3.2.3.4.4.6 0 .3.2.2.4.4l.2.2h.2c.2-.1.5-.2.7 0 0 0 0 .2.2.2h.3l.6.2c.3.2.4 0 .7 0v-.3l-.2-.1v-.6.5l-.1.2c-.1.2-.7-.1-.9-.2h-.2l-.2-.2c.2-.1.4 0 .4-.3l-.1-.1-.3-.1-.9-.1c-.3-.2-.4-.5-.5-.8v-.5h-.6s0-.4-.2-.4-.2.2-.3 0l-.1-.2c-.2-.2-.3.1-.5 0-.2-.2-.1-.5-.2-.7l-.4.1c-.3 0-.5 0-.5-.3h-.4c0-.2 0-.4-.2-.5-.1-.1-.2 0-.4 0-.3 0-.5-.2-.6-.4v-.1l-.2-.1h-.4c-.3 0 0-.5-.2-.7h-.4v-.4c-.1-.3-.3-.3-.5-.3-.3 0-.4-.2-.6-.3l-.3-.2h-.7l-.1-.2c-.3 0-.5.1-.8 0-.2 0-.2-.3-.5-.3h-.7c-.2-.3-.4-.3-.7-.3l-.2-.4h-.6a2 2 0 0 1-.5-.3c-.2 0-.3-.2-.5-.3l-.7-.1c-.2 0-.3 0-.5.3l-.7.2-.3.1-.1.3c-.2.2-.4-.2-.7-.1 0 .2.6.2.5.5l-.6-.1v.2l-.3.1c-.2 0-.5 0-.6.2-.1-.1 0-.3 0-.4-.2 0-.2.3-.3.4-.4.1-.2-.3-.3-.4l-.2-.1h-.1l-.2-.1c-.2-.2 0-.3.3-.3 0-.2-.3-.1-.4-.2-.2 0-.2-.3 0-.4v-.2h-.3v-.7h.3v-.4l-.4.2v-.2h.1l.2-.2v-.5c-.2 0-.2.4-.5.4V299.3h-.2s-.1.1-.2 0v-.3c0-.3-.3 0-.4 0-.3 0-.3-.4-.5-.4s-.4.2-.6.1l-.3-.2c-.2 0-.6.3-.6 0s.3-.3.4-.4c-.1-.2-.3-.4-.5-.4h-.7c-.3.1 0-.3-.2-.4h-.6c-.1-.2.1-.5-.3-.7-.1 0-.2 0-.3-.2 0-.2 0-.2.2-.3 0-.3-.2-.3-.4-.3h-.5v-.1c-.2-.2-.5 0-.7-.2-.1-.1-.2-.5-.4-.5v-.2c-.2-.2-.2-.2-.5-.2 0-.2.2-.6-.2-.5l-.2.1h-.3v-.2s.2-.2.1-.3h-.3l-.2-.3v-.3c0-.3-.4 0-.6-.1-.2-.1 0-.4.2-.5 0-.3-.8-.2-.6-.6.1-.3.6 0 .6.3.1 0 .3.2.3 0v-.4h.1c0-.2.1-.3.2-.3.2 0 .2.1.2.2.1.2.2.2.3.1v-.3c.1-.3-.2-.4-.1-.6v-.1h.2l.2.4c0 .1-.2.3 0 .4h.6v.4c.2 0 .6-.2.8 0l.1.2h.3v-.4c.3.1.2.2.4.1l.4-.2c.1-.3-.2-.2-.3-.2-.2 0-.4-.2-.6-.1 0 .2-.3.2-.4.1-.2 0-.1-.3-.2-.4 0-.2-.2-.2-.4-.3l-.6-.1-.3-.1-.3-.1-.7-.4-.1-.8-.4-.5-.3-.3-.2-.2-.1-.1-.1-.3c-.2 0-.2.2-.4 0l-.1-.4c-.2 0-.3-.2-.5 0-.2 0 0 .2-.3 0-.2-.1-.7-.3-.6-.5h.1c.1-.2.2-.2 0-.4-.1-.1-.2-.1-.3-.4v-.6l-.2-.5-.2-.4c-.1-.1-.3 0-.2-.3l.2-.2-.1-.4-.2-.2v-.3c0-.2-.3-.3-.3-.5 0-.3.3-.4.4-.6v-.6l-.2-.2-.1-.4-.2-.3-.3-.1c-.2-.2 0-.4-.2-.6l-.2-.1c-.2 0-.3-.2 0-.3 0 0 0-.2-.2-.2l-.2.1c-.3 0-.2 0-.2-.2s-.2-.3-.4-.3c-.1 0-.2.2-.4.1l-.1-.4-.2-.3-.4-.4c-.2 0-.1-.1-.2-.3l-.4-.4v-.4c0-.2 0-.2-.2-.2h-.4l-.1.3-.4-.1-.4-.2h-.4.1l-.2-.1-.4-.3c-.4 0-.5.4-.4.7h-.7c.1.2.3.9 0 1 .3 0 0 1 0 1.2 0 .3-.3.9-.7.9v.5l.2.4v.6l.3.5c0 .6-.4.4-.7.7-.2 0 0 .4-.4.2-.2 0 0-.4-.3-.4v.7l-.2.4c-.1.4.2.7.2 1.2l-1 .2v.2c0 .2-.1.4-.5.3-.3-.1-.3-.4-.5-.6-.2-.2-.6-.3-.7-.5v-.9h-.2c-.2-.2-.5-.4-.4-.8h.1v-.2l-.1-.2h-.4s-1-.5-.2-.5c0-1-1-.6-1.7-.6v-.5c0-.2-.2-.4-.3-.5v-.6c.1-.2.3-.1 0-.4l-.3-.3c0-.3.2-.3.2-.5.2-.6-.4-.5-.3-.9h.4c0-.3-.4-.7-.5-.9-.2-.2-.4 0-.4-.4 0-.2.3-.2.2-.4-.2 0-.7-.3-.4-.6h1.1l-.1-.8c.3 0 .3-.4.7-.5l.8.2c.3 0 .6-.4.5-.6 0-.3-.5-.4-.4-.8.3-.1.5 0 .8 0 0-.4-.2-.9-.6-.7v-.3c-.1-.2-.2-.5-.5-.7a3 3 0 0 0-.7-.6c-.1.4-.4.1-.6.2.4.5-.1 1-.6.7-.2.5-.6.5-.8 0 .2.5-.4.6-.7.2-.1-.1 0-.4-.3-.4-.2 0-.3.3-.6-.1v-.1l.3-.6c.1-.3.3-.4.3-.7l.1-.4.2-.4c.2-.3.3-.6.6-.8h.1c.4-.3.6-.6.8-1 .3-.4.2-.9.4-1.3l.3-.6v-.6l-.7-.4-.5-.2c-.4-.2-.6-.4-.8-.9V262l.5-.5.3-.4.4-.2.7-.6.7-.5v-1c1-.3 3-.1 3.9 0 .6 0 1.2.9 1.8.7.5-.2 1.3-.7 1.8-.2.4.4-1.1 1.6.8 1h.3l.4-.2c.1.3.4.1.7.2.3 0 .4.4.5.8v.3c0 .2 0 .3.3.4l.4.2h.1c.3.1.7.3.9.7h.2c.1.2.2.1.3.1l.6.1c.3 0 .8.2 1 .5l.9.5.6.2.5.1c.2.2.4.6.7.6h.2c.3 0 .3.3.5.6.6 1.1 1 1 1.2 1.1h.2l.2.3.2.1.8-1c.2 0 .3.2.5.3l.1.1.8.4h.1v-.9c0-.6-.3-.9-.5-1.4-.7.2-1.3 0-1.4-.5v-.3c-.1-.6-.2-1.1.2-1.7l1.9-.5.4-.1c.8-.1 1.2-.6 1.6-1.2.3-.4.3-1.3.8-1.4h1c.4 0 .5.3.9.3.6 0 .2-1.2.1-1.7v-.6s0-.2.2-.3c.3-.2.7-.2 1-.1Z" id="trieste" stroke="#000000" stroke-width="0.5" fill="#EBE084" fill-rule="nonzero"/>
</svg>