<svg>
        <path d="M305.4 244.6c0 .2.2.3.3.5l-.1.6c0 .3.1.2.3.4l.3.7c.3.8.5 1.6.6 2.5 0 .5 0 .7-.2 1.2-.1.4 0 .8-.2 1.3l-.2.7.2.6.3 1.8h.8c.2.5.6.4 1 .4 0 .5.7.9 1 1.3v.5c0 .5.5 1.9-.1 1.8-.4 0-.5-.2-.8-.3h-1.1c-.5.1-.5 1-.8 1.4-.4.6-.8 1-1.6 1.2-.8.1-1.5.4-2.3.6-.5.7-.6 1.7-.1 2.1l.4.3.7.3c.2.6.7.6.7 1.2V266.6c.6 3.8-1.3 1.3-2.2.4-.4 0-.5 0-.5-.3-1 .8-.8-1.6-1.2-1.2-.3-.2-.4-.8-.7-.8-.4 0-.6-.3-1-.6l-.4-.1-.6-.2-.9-.5c-.2-.3-.7-.4-1-.5h-.6l-.3-.1-.2-.1c-.1-.3-.5-.5-.8-.6l-.6-.3c-.2 0-.2-.1-.3-.4 0-.4.1-.6-.1-.8-.4-.4-.7-.5-1-.4h-.8l-.4.2c-1 .1-1 0-1-1.1 0-.3-.7 0-1.2.2-.6.2-.6 0-1.2 0l-.7-.2c-1 0-2.4-.2-3.2.1-.2 0-.4.2-.5.3l-.8.6v.1h-.2v.1l-.2.1-.2-.2c0-.1 0-.2-.2-.3.2-.2-.7-1-1.4-.6-.4 0-.6-.3-1-.5-.5-.1-1 .2-1.4 0-.4-.1-.5.2-.6 0-.5-.4-.4-.5-.6-.8-.7.2-1.7.3-2.5.2h-1.6l-.5-.1h-.3l-1.1-.2h-.9l-.2.4c0 .1 0 .2-.2.3-.2.2-.6.2-.9 0-.2 0-.3-.4-.6-.3-.2 0-.2.4-.3.5-.2.6.6.9.5 1.5-.2.7-.8.2-1.3.2-.2 0-.7.1-.8.3-.1.2.1.8-.3.6l-.5-.5c-.4 0-.4.3-.7.5h-.3c-.2.1 0 .3 0 .4l-.4.5c-.1.2-.5.2-.4.5.1.2.4 0 .6.1l.4.6c0 .2.1.3.3.5l.6.4v.6c0 .3-.2.4-.3.6v.7c-.4.2-.8.1-1.2.2-.4 0-.7.2-1 .4h-.2l-.2.2v.1l.1.2c.1.4.4.5.2 1-.2.3-.6.2-.8-.1 0-.2 0-.2-.2-.3l-.4-.2-.5.6c-.2.2-.7.1-1 .1l-.4.1c-.2.2 0 .2 0 .4v.3l.1.1v.4c-.4 0-.6-.6-1.1-.6-.3 0-.5 0-.6.3 0 .3 0 .4.2.6l.2.7c0 .3 0 .5-.2.8-.1.2-.3.3-.3.5v.6a2 2 0 0 1-1.3 0h-.2c-.1-.1-.2-.2-.4 0l-.5.5-.2-.6h-.6l.2-.2v-.5l.1-.3v-.5l-.3-.3v-.5c-.1-.3-.2-.6-.6-.5-.8.2-1.5.5-1.6 1.4 0 .2 0 .5-.2.7h-.6c-.2-.2-.7-.8-.5-1-.3-.2-.9-.4-.8-.9l.2-.3.2-.3v-.4c0-.5-.4-1.6.2-2h.1c.4-.1.3-.4.3-.8l-.3-1.2-1.7.4c-.1-.6-.3-1 0-1.5.4-.6 3.4-1.7 3-2.6l-2.5-.4c-.1-.3.7.6.5.5l1-.8-.1-.1h-.5c-.3 0-.4-.2-.4-.5V259c-.1-.3-.6-.1-.7-.5-.1-.2 0-.6.1-1l.3-1c0-.3 0-1 .5-1.2.1-.3 0-.7-.2-1-.4-.2-.3-.4-.3-.8 0-.5-.3-.7-.7-.4l-.5.6c0 .3 0 .8-.2 1-.3.4-.4-.3-.6-.3-.4-.1-.5.5-.6.7 0 .4-.2.5-.6.6l-.6.2c-.4 0-.5-1-.7-1.2l-.5-.7-.4-.5c-.4-.4-.6-.6-1.2-.9l-.6-.2h-.8l.2-.5-.1-.7v-.5l-.4-.3c-.4-.5-1-.5-1.5-.6v-.5c.2-.1.4-.1.5-.3l.1-.4c0-.2.3-.3.3-.5.2 0 .6 0 .6-.3l-.9-.7H240.2a1 1 0 0 1-.4-.5c-.1-.3.3-.3.4-.6 0 0 0-.2.2-.2 0 0 .2 0 .3.2.1-.2.3-.5.5-.5l.3.2h.3c.6 0 .1-.5.3-.8.1-.2.3-.2.5 0 .1 0 0 .3.3.3h.3l.2.2.2.1.3.3.3.4c0 .1 0 .2.2.3l.2.2h.3c.3 0 .5.2.5.4v.8c0 .2 0 .5.3.3h.1c.2-.2.3-.2.5 0 .2 0 0 .4-.1.5l-.3.3c0 .1 0 .2.2.3l.1.2h.5c.2 0 .6 0 .8-.3v-.7c0-.3 0-.6.4-.3l.2.2c.2.1.4 0 .5-.1l.3-.4.2-.2c.2-.3.7-.9.2-1.1-.2-.1-.4-.1-.5-.3-.1-.2 0-.8.2-1 .1-.2.4-.2.4 0 0 .3-.2.5 0 .7.1.2.3.2.5.1l.4-.2 1-.3c.3 0 .5.3.8.3.2 0 .3-.3.5-.2.2.2.2.5.5.2l.3-.5c.4-.1.2.4.2.5 0 .3.2.4.4.4.3 0 .4 0 .6.2l.4.3.2.2c.2.1.3 0 .4.2.3 0 .5.2.9 0 .2-.1.4-.4.7-.4.5-.2 1 .1 1.7 0l.2-.4.2-.3c.1-.2.1-.5.4-.6h.4l.4-.2c.2 0 .3-.4.4-.5l.7-.1h.9l.6-.2c.5-.2 1 .2 1.4-.1l.8-.9c.2-.3.3-.8.6-1l.2-.2c.3-.3.5-.5.8-.4.2.5-.1 1 .6 1 .5 0 1-.5 1.4-.3.4 0 .2.2.3.4l.1.2.3.2h.7-.3.2v-.1c.4-.4 1-1.7 1.5-1.3l.3.4c.2 0 .4 0 .5.2.2.4-.2 1 .2 1.3l.5.2.7.2c.2.3.5.8.8.8.4 0 .6-.5.7-.8.2-.3.2-.6 0-.9v-.1l-.2-1v-.4c0-.3 0-.7-.3-.6-.4 0-.3.6-.7.6-.4 0-.3-.7-.3-1l-.1-.5.1-.4c.2-.4 0-.7-.2-1l-.2-.4a2 2 0 0 0-.5-.8l-.3-.1-.4-.1v-.5l-.4-.4h-.1l-.2-.4c0-.2.2-.1.2-.3v-.5l.4-.1.2-.3c.1 0 .5-.2.5 0h.1v.1c.2 0 .4 0 .4-.2v-.2l.2-.2h.1c.2-.2.4-.3.4-.5s-.1-.5.2-.6l.7-.1.1-.4.2-.1h.2v-.1c.3 0 .2.2.3.3.2.2.4.1.6 0v-.3l.4-.1.2-.3.3-.1.2-.2.1-.4.6-.2-.1-.4v-.6s.1-.3 0-.4l-.2-.4c.5-.1-.2-.7-.3-.8 0-.5.6-.4 1-.5-.1-.2.2-.6.5-.5.2 0 .2.2.2.4.1.2.2.2.4.3l.5.4c0 .2.3 0 .3 0l.1-.5v-.8l.2-.2h.3c0 .2.2.7.4.4l.1-.3.2-.5.2-.7-.2-.9.8.2c0 .2.3.3.4.3l.2.2.2.2h.1l.4.6.2.3-.1.2c.4.3 1 .4 1.5.5h.8l1-.1.6-.5h.6c.2-.2 0-.4.3-.5h.3l.2-.2c.2 0 .5.1.6.3l.3.1h.5c0 .1 0 .5.2.6h.7l.5.2-.5-.1h-.5v-1.9c0-.4.1-.8.4-1 0-.2.2-.3.3-.4V222.7h.4l.4-.1c.2 0 .2 0 .2-.3v-1.8h.7l.2.1c.2.1.3.2.4 0l.4.3v.1c.2 0 .1.4.2.5l.2.1.7-.2h.1l.3-.1v-.5c.7-.1 1.5.3 2.4-.3.5-.4.7 1.3 1.3 1.5l1.8.3 1 .3 1.5.4c.9.3 1.8.5 2.7 0l.3-.2c.4-.4.9-.6 1.4-.5h.2c.5.2 1 0 1.6-.1l.4-.2c.5-.2 1-.5 1.5 0 .2.3.6 1.1 1 1.2l-.1.2c0 .4-.4.5-.3.8l.3.4-.2.2c0 .3 0 .3.2.5l-.1.5-.1.6c-.2.3-.5.5-.6.8-.2.3 0 .5.1.8.1.4.3.4.6.6l.3.4c.3.4.5.7.5 1.2v.2l.1.2c0 .2.2.2.3.4v1h-.1s-.1.1-.2 0h-.3c0 .3.4.4.3.7-.3 0-.5 0-.8.2-.1 0-.2.3-.4.3 0 .2 0 .4-.2.5l-.4.5c-.3.2-1 0-1 .4v.4l-.2.1c0 .2-.3.4-.5.4l-.6-.2-.6.1v1c0 .3-.4.5-.6.7-.4.5-.8 1.2-.6 1.9l.8.1c.2.3-.1.6-.3.7-.4.4 0 .7.2 1 .1.4.2.7.1 1l-.2.3-.5.2-.3.2c-.2.1-.3 0-.4.2-.2 0-.2.2-.3.1-1 .2-1.7.8-1.6 1.8Z" id="vienna" stroke="#000000" stroke-width="0.5" fill="#EBE084" fill-rule="nonzero"/>
</svg>