<svg>
  <path d="m365.4 123.7 3 1.5 2.5.5h3l3.5-.5v1.5h2.5l2 .5 1 1 1 2.5 1.5 3.5 2 1.5 4 5v4.5l-2.5 1-2.5 2-3.5 2.5-2 4.5-1 3v6l1 2.5v3.5l1 2v4l-2 3.5v2.7a1 1 0 0 1-.3-.2c-.3-.2-.2-.5-.5-.6-.4-.1-.7.3-1 .3l-.2.8v.8l-.7.5c-.3.3-.1.4-.2.7-.2.7-1.3.3-1.7.4-.6.2-1 .6-1.5.8l.2.1c.3.2.7.4.3.8-.3.2-1.1.2-1.5.2l-1.4.2H370c-.7.3-1 1.2-1.4 1.7-.4.7-1.1 1-1.8 1.1-.3 0-.5.2-.8.3h-.6c-.5.3-.6.5-1 .5v-.2l.2-.8c-.6 0-1.3 1.5-1.7 1v-.1l-.1-.4c-.2-.4-.6-.9-1-.7-.4.2-.7.7-1 .4l-.1-.4v-.3l.5-.3c.5-.4 1-.8.8-1.5-.2-1.2-.8-1.3-1.9-1.2-.6 0-1.5 0-2.2-.2l-.6-.1-.6-.2c-.5 0-1-.2-1.5-.5l-.2.6.1.7c0 .2-.2.3-.3.4h-.1l-.3.2-.4.2h-.1l-.6.3c-.2.1.1.8.1 1l-.5.4c0 .1.2.3.1.5-.3.1-.9 0-1.1.2-.4.4 0 .7 0 1-.3.1-.9 0-1.1.2-.4.2 0 .6-.2.8-.2.2-.8 0-.9.4 0 .3.5.5.4.8-.2 0-.5-.5-.6-.6-.5-.1-.6.4-.7.7-.2-.1-.6 0-.8 0v.3c-.3 0-1.2-.1-1 .5h-.4a2 2 0 0 0-.7.3v.6h-.4c0 .4-.3.4-.4.5l-.3.4v.4l-.3.3c-.1.1-.2.3-.5.2l-.6.3h-.2l-.6.2c0 .3-.3.5-.5.5l-.3.1c-.2 0-.2.1-.3.2l-.1.2c-.3.3-1.4.8-1.6.1-.8 0-1.8 0-2.7.2h-1.8c-.6.1-1 .1-1.6 0l-1.6-.4V197.6H330.7l-.2-.2-.2-.2h-.1l-.1-.2a.9.9 0 0 1-.2-.3 2 2 0 0 1-.1-.5V195.4h.2a.9.9 0 0 1 .2-.3h.4l.1-.1.1-.3v-.4a9.7 9.7 0 0 0-.3-1.3l-.1-.2-.1-.2h-.1v-.1H330l-.2-.1h-.2l-.2-.2a.9.9 0 0 1-.3-.3v-.1l-.2-.4v-.4h-.1l-.2-.1H328.3v.1H328l-.1-.1h-.1l-.4-.3h-.1l-.3-.3h-.2v-.1l-.1-.2v-.4l.3-.2v-.1l.1-.2v-.4l-.1-.1v-.1l-.2-.2-.2-.4h-.1l-.1-.1h-1.1l-.1-.1h-.1l-.1-.1-.1-.1-.1-.1-.1-.2h-.1l-.1-.2-.2-.3-.1-.2-.2-.3v-.1l-.2-.2-.1-.2h-.2l-.1-.1H322l-.1.1-.4.3-.2.2H320.7v-3.3l-.1-1.4v-1.7l-.1-.1v-.2l-.1-.1-.1-.1v-.1h-.1v-.1h-.2v-.1H319.7c.1-.6 0-1.9-.5-2.2l-.1-.1h-.4v-.4l-.1-.6v-.1h-.1v-.1H318v-.3l-.1-.1v-.1h-.1l-.1-.1h-.2l-.1-.1c-.1-.4.1-.7.2-1.1v-.2c0-.3 0-.7-.2-1v-.2h-.1v-.2l-.4-.4-.2-.2-.3-.2-.2-.2-.6-.4-.1-.2h-.2l-.2-.2-.4-.3-.2-.1-.1-.1-.1-.1-.2-.1v-.1l-.1-.2-.1-.1V168.9a1.4 1.4 0 0 1 0-.8l.6-.8.2-.1.2-.2h.2l.1-.1h.1V165l.1-.2V164.6h.1l.1-.2.2-.4.2-.1.1-.2.2-.2.5-.5v-.1l.3-.3.2-.2.1-.1.1-.1.2-.1.1-.1h.2l.1-.1H319a2 2 0 0 0 .3 0c.2-.2.2-.5.3-.7v-.2h.1l.1.1.1.1h.4l.1-.5v-.7l-.2-.2v-.2c-.1-.5.1-.6.2-1v-.1l.1-.2h-.3c0-.4.2-.8.5-1v-.6l-.1-.2.2-1a.8.8 0 0 0 .3.1h.2l.3-.1v-.7l.3-.2h.1l.4-.2h.5l.1-.1v-.2l.1-.1v-.5l-.2-.2-.1-.1-.1-.1v-.2a2 2 0 0 1 0-.6.7.7 0 0 1 .4-.5h.3l.1-.1.7-.1v-.5l.1-.1v-.1l.2-.1h.2l.1-.1.1-.1v-.1l.2-.1v-.2l.6-.2.3-.2.1-.2.2-.3.1-.1.2-.2.2-.2v-.1l.5-.3.1.2.1.1.3.2h.9l.1.2.1.1h.2v-.2l.2-.2v-.6l.3-.2h.1v.1h.1v.2l.1.1v.1c.2.1.4.2.5.1v.4l.1.2.1.1h.1l.3.1.3-.1.1-.1c.2-.1.3-.1.4 0h.4a.7.7 0 0 1-.2-1 .9.9 0 0 1 .2-.2 1 1 0 0 1 .4-.2H333.5l.1-.1h.2l.2.1h.2v.1h.3l.2.1v-.4l-.1-.2V147.1l-.1-.2-.1-.3v-.2l-.1-.1v-.2V146.4l.1.2v.2H335.5l.1.2h.1l.2.2.5.4v.1l.2.1h.2l.1.1h1.1l.3.1H338.5v-.1l.1-.1v-.2l.1-.1v-.4l.1-.1V146.7l.1-.1.1-.2v-.1l.2-.1v-.1H340v.1l.3.1h1v.1l.3-.1h.6l.1.2h.2v.2h.1v.1h.2l.2-.2v-.2h.1v-.2H343.5l.4-.1.2-.2.1-.3h.2l.1-.2v-.2l.1-.2v-.2h.1v-.1h.1l.3-.3.2-.2.2-.1.2-.1.3-.1h.2v-.2h.2l.2-.2h.1l.1-.1H347l.1-.1h.1l.1-.2h.2v-.2l.3-.2h.1l.2-.1H348.8v-.1h.1l.3-.3.1-.2h.1l.2-.2H350l.4.2v.1h.6l.3-.3v-.1h.2v-.1h.1v-.1h.1v-.1h.1v-.1H353.3v-.9l.3-.2h.1v-.1l.1-.1v-.1l.3-.4.2-.2.1-.1.1-.2h.1l.1-.2.1-.1.2-.1.3-.3v-.1h.1v-.1l.1-.1v-.3h.1v-.1h.1l.2-.1H356v-.1h.2v-.1l.2-.2.1-.2.1-.1v-.2h.4l.3-.1h.2l.1-.1.1-.1v-.1l.2-.4h.1v-.2h.1V133.7l-.1-.2h-.1l-.1-.1h-.2l-.2-.5-.1-.2-.2-.1v-.1l.1-.2.1-.1V132l-.1-.1-.3-.2h-.1v-.1l-.1-.1v-.1l-.1-.1v-.7h-.1v-.1h-.1l-.2-.2h-.1v-.1l-.2-.2-.1-.1-.4-.6-.2-.3.3-.3-.2-.2v-.1l.2-.2h.5l.1-.1v-.5h.1v-.1l.1-.1h.1l.4-.2v-.1h.1l.2-.2V126.6l.1-.1V125.6l-.2-.1-.1-.1-.1-.2 6 .5z" id="warsaw"
     fill="#9c6bae"
     style="fill-rule:evenodd;stroke:#000000;stroke-width:0.5"/>
            </svg>
