<svg>
  <path
     d="m 365.37822,123.69305 3,1.5 2.5,0.5 h 3 l 3.5,-0.5 v 1.5 h 2.5 l 2,0.5 1,1 1,2.5 1.5,3.5 2,1.5 4,5 v 4.5 l -2.5,1 -2.5,2 -3.5,2.5 -2,4.5 -1,3 v 6 l 1,2.5 v 3.5 l 1,2 v 4 l -2,3.5 v 2 l 0.0593,0.69289 c -0.11981,-0.0238 -0.24347,-0.074 -0.37625,-0.16444 -0.27651,-0.18931 -0.20164,-0.48009 -0.49009,-0.60079 -0.36619,-0.15238 -0.62257,0.26207 -0.92025,0.32903 -0.0237,0.2667 -0.18612,0.48377 -0.21332,0.75451 -0.0224,0.21677 -0.004,0.60338 -0.11823,0.80389 -0.12984,0.22568 -0.45803,0.29548 -0.63573,0.4795 -0.25983,0.26957 -0.0976,0.42628 -0.20223,0.72094 -0.23065,0.65166 -1.24155,0.33086 -1.71626,0.42655 -0.57641,0.11492 -0.92141,0.56571 -1.48529,0.76448 l 0.255,0.12834 c 0.30254,0.16314 0.61652,0.40633 0.22032,0.74594 -0.2795,0.24067 -1.08226,0.1811 -1.44483,0.22787 -0.46863,0.0596 -0.93635,0.12285 -1.40617,0.17265 -0.46974,0.0505 -0.90986,-0.0151 -1.36561,0.10753 -0.70602,0.191 -1.09622,1.09608 -1.47364,1.66754 -0.403,0.6111 -1.11387,0.89753 -1.78702,1.05002 -0.27121,0.0619 -0.50249,0.21038 -0.77302,0.27784 -0.20653,0.0528 -0.43855,0.0275 -0.63427,0.10649 -0.42302,0.16863 -0.54323,0.41092 -1.06314,0.39343 l 0.0901,-0.18807 c 0.11581,-0.25075 0.24643,-0.58975 0.15286,-0.79219 -0.50146,0.0637 -1.23067,1.53272 -1.6709,0.97227 l -0.0557,-0.0849 -0.0273,-0.41386 c -0.18563,-0.35139 -0.58854,-0.83965 -1.07917,-0.63118 -0.35523,0.1504 -0.56911,0.64321 -1.00371,0.40371 -0.0509,-0.14226 -0.0553,-0.27023 -0.043,-0.3996 l 0.0119,-0.0975 0.0391,-0.25583 0.46981,-0.33042 c 0.51338,-0.36954 0.9828,-0.79877 0.83972,-1.50216 -0.22874,-1.12059 -0.8688,-1.25106 -1.88405,-1.18047 -0.66315,0.0461 -1.50453,-0.0423 -2.19932,-0.18726 l -0.60975,-0.13918 -0.63312,-0.12997 c -0.52238,-0.10739 -1.0329,-0.22734 -1.54052,-0.47111 0.0595,0.28601 -0.11299,0.3376 -0.1397,0.55399 -0.0261,0.21745 0.11456,0.45609 0.0753,0.6702 -0.0406,0.2206 -0.18037,0.34842 -0.34762,0.4458 l -0.0856,0.0464 -0.30682,0.14762 -0.3307,0.17797 c -0.0563,0.0282 -0.11395,0.0546 -0.17412,0.0773 -0.0949,0.0364 -0.49398,0.12103 -0.54818,0.18445 -0.1588,0.18845 0.10419,0.81487 0.10027,1.12759 -0.19219,0.0768 -0.32718,0.21679 -0.51791,0.2963 0.0517,0.14955 0.18458,0.33553 0.13425,0.53815 -0.31505,0.0858 -0.91657,-0.002 -1.15207,0.22301 -0.35871,0.34276 0.11814,0.62573 0.034,0.99425 -0.29349,0.0754 -0.87544,-0.008 -1.12497,0.1521 -0.34872,0.22349 0.0246,0.58201 -0.21013,0.84445 -0.18378,0.20549 -0.79102,0.007 -0.8251,0.42053 -0.023,0.2799 0.42945,0.44017 0.37645,0.77063 -0.22204,-0.0991 -0.47793,-0.52163 -0.66226,-0.58145 -0.43052,-0.14065 -0.55652,0.38642 -0.69994,0.64553 -0.19814,-0.11219 -0.51604,-0.0387 -0.7384,0.022 0.0207,0.072 -0.0189,0.19268 0.003,0.26476 -0.33422,0.10277 -1.24887,-0.10279 -1.10544,0.5284 l -0.35434,0.0864 c -0.22327,0.057 -0.42635,0.12334 -0.64362,0.26386 -0.008,0.1848 0.0399,0.36861 0.0364,0.55354 -0.14458,0.0362 -0.30005,0.0585 -0.44594,0.084 0.0545,0.31659 -0.26433,0.29671 -0.45006,0.4353 -0.17411,0.13054 -0.20779,0.20352 -0.21965,0.34767 l -0.009,0.17264 -0.007,0.24205 c -0.006,0.16219 -0.0332,0.12917 -0.29664,0.30057 -0.17246,0.11173 -0.21106,0.33522 -0.48529,0.18462 -0.21736,0.12381 -0.41571,0.20929 -0.61594,0.28052 l -0.20163,0.0674 -0.65888,0.19857 c -0.0191,0.2937 -0.25426,0.43541 -0.49265,0.51859 l -0.28665,0.091 c -0.14959,0.0534 -0.19121,0.0937 -0.26375,0.18981 l -0.0483,0.0649 -0.11934,0.15191 c -0.2532,0.30729 -1.38838,0.79382 -1.51202,0.10321 -0.89172,-0.046 -1.8007,0.0574 -2.69908,0.11924 l -0.89337,0.0513 -0.963,0.0803 c -0.54068,0.0411 -1.08365,0.0596 -1.59295,-0.0283 -0.35169,-0.0603 -1.02796,-0.39326 -1.58293,-0.48767 l 0.0184,-0.0404 0.008,-0.0425 0.004,-0.0402 -0.005,-0.0685 -0.0279,-0.0454 -0.0216,-0.0265 -0.0208,-0.0169 -0.0585,-0.0241 -0.0701,-0.0143 -0.076,-0.009 -0.17143,0.002 -0.33848,0.0384 -0.12625,0.0183 -0.0703,-0.003 -0.14537,-0.0148 -0.0713,-0.0154 -0.13936,-0.0384 -0.17841,-0.13004 c -0.0818,-0.057 -0.16548,-0.1141 -0.24459,-0.17526 l -0.11447,-0.0953 -0.0932,-0.0935 c -0.0583,-0.0654 -0.10805,-0.13733 -0.14477,-0.21884 -0.0196,-0.0438 -0.0376,-0.0979 -0.0535,-0.15904 -0.0159,-0.0611 -0.0294,-0.12924 -0.0408,-0.20235 -0.0114,-0.0731 -0.0204,-0.15108 -0.0266,-0.23084 -0.006,-0.0798 -0.01,-0.16153 -0.01,-0.24263 -8.1e-4,-0.24327 0.0271,-0.48046 0.0932,-0.63992 0.022,-0.0532 0.0485,-0.0975 0.0795,-0.1307 0.0313,-0.0337 0.0623,-0.0628 0.0934,-0.0879 0.0414,-0.0334 0.0826,-0.0598 0.12289,-0.0808 l 0.0599,-0.0277 0.0868,-0.0293 0.0828,-0.0185 v 0 l 0.1495,-0.0222 c 0.0457,-0.007 0.0867,-0.0156 0.12188,-0.0316 0.0176,-0.008 0.034,-0.0179 0.0485,-0.0304 0.0145,-0.0124 0.0272,-0.0274 0.0383,-0.0457 0.0333,-0.055 0.0506,-0.14014 0.0478,-0.27452 -0.002,-0.0896 -0.0128,-0.20087 -0.0339,-0.34029 -0.0172,-0.11207 -0.0382,-0.23664 -0.0633,-0.36662 -0.0602,-0.31196 -0.14256,-0.65566 -0.2445,-0.9356 l -0.0801,-0.1965 -0.0531,-0.10305 -0.0554,-0.0843 -0.0574,-0.0673 -0.0596,-0.0526 -0.0307,-0.0214 -0.0631,-0.0347 -0.0324,-0.0139 c -0.0434,-0.0169 -0.0881,-0.0282 -0.1344,-0.0371 l -0.21831,-0.0325 c -0.0761,-0.0116 -0.15546,-0.0273 -0.23822,-0.0569 -0.0552,-0.0197 -0.1119,-0.0454 -0.17004,-0.0803 -0.14854,-0.089 -0.24346,-0.2191 -0.31589,-0.36026 l -0.0506,-0.10748 -0.13794,-0.33605 -0.0551,-0.10935 0.0158,-0.008 0.0291,-0.0244 0.0306,-0.0201 0.0231,-0.03 0.016,-0.0291 0.0105,-0.0282 0.009,-0.0551 -0.002,-0.0264 -0.0178,-0.0538 -0.0148,-0.0262 -0.0203,-0.025 -0.0409,-0.0383 -0.0661,-0.0348 -0.0718,-0.0218 -0.0827,-0.008 -0.0871,0.007 -0.0993,0.0226 -0.11002,0.0481 -0.0314,0.01 -0.0376,0.0166 -0.0309,0.002 -0.0375,0.009 -0.0381,-0.004 -0.0309,0.002 -0.0701,-0.0155 -0.0717,-0.0206 -0.0673,-0.0367 -0.0716,-0.0339 -0.066,-0.0432 -0.41701,-0.30807 -0.0716,-0.0339 -0.32472,-0.17904 -0.0672,-0.0492 -0.0732,-0.0487 -0.0618,-0.0568 -0.0551,-0.0574 -0.0639,-0.097 -0.0252,-0.0722 -0.009,-0.04 0.003,-0.0349 -0.003,-0.0396 0.01,-0.0354 0.0319,-0.0839 0.0557,-0.087 0.0403,-0.0438 0.19566,-0.18609 0.0388,-0.049 0.0338,-0.0502 0.0275,-0.0501 0.0222,-0.0501 0.0301,-0.0966 0.005,-0.15678 -0.0308,-0.15597 -0.0326,-0.10425 -0.0484,-0.10504 -0.0506,-0.0996 -0.12925,-0.19345 -0.25635,-0.35523 -0.0489,-0.0643 -0.028,-0.0313 -0.0878,-0.0633 -0.0655,-0.0275 -0.0707,-0.0219 -0.14723,-0.0147 -0.0772,-3e-5 -0.31935,0.0249 -0.15838,0.005 -0.15183,-0.002 -0.0765,-0.015 -0.0777,-0.0214 -0.0724,-0.029 -0.13227,-0.0715 -0.0666,-0.042 -0.12287,-0.0992 -0.10911,-0.11442 -0.0985,-0.1221 -0.0913,-0.12144 -0.0869,-0.1222 -0.14573,-0.25462 -0.14074,-0.253 -0.16136,-0.26752 -0.0923,-0.14353 -0.11274,-0.14597 -0.0568,-0.0778 -0.11675,-0.10697 -0.054,-0.0429 -0.11157,-0.0655 -0.0602,-0.0227 -0.0519,-0.0169 -0.47198,-0.072 -0.089,0.007 -0.30083,0.0504 -0.38465,0.0843 -0.0747,0.0256 -0.0722,0.0391 -0.0652,0.0462 -0.32703,0.27166 -0.0598,0.0441 -0.13703,0.0852 -0.0666,0.0334 -0.0745,0.0191 -0.0817,0.0128 -0.0766,-0.007 -0.0906,-0.0135 -0.0833,-0.0209 -0.0766,-0.008 -0.0151,0.003 0.0416,-0.29987 c 0.0317,-0.301 0.0353,-0.60534 0.024,-0.91296 l -0.0227,-0.41328 v 0 l -0.0706,-0.83765 -0.0634,-0.83768 c -0.0323,-0.48804 -0.0515,-0.93249 -0.0508,-1.40242 l 0.0134,-0.803 -0.004,-0.22413 c -0.005,-0.15034 -0.0163,-0.30247 -0.0373,-0.44966 l -0.0392,-0.21622 -0.0283,-0.11586 -0.0496,-0.14806 -0.0293,-0.0707 -0.0325,-0.0667 -0.0762,-0.1239 -0.0909,-0.10657 -0.0469,-0.0423 v 0 l -0.0543,-0.0417 -0.0651,-0.0407 -0.0648,-0.0315 -0.0454,-0.0156 -0.0974,-0.0285 c -0.0507,-0.0106 -0.10496,-0.0171 -0.16253,-0.0188 0.14954,-0.51554 0.0842,-1.79616 -0.47048,-2.16968 l -0.066,-0.0389 v 0 l -0.071,-0.0303 -0.0759,-0.022 c -0.0773,-0.0164 -0.16146,-0.0179 -0.25299,-0.002 l -0.0337,-0.40018 c -0.0178,-0.20233 -0.0431,-0.39987 -0.10348,-0.55589 l -0.0383,-0.0827 v 0 l -0.0468,-0.0731 -0.0419,-0.0496 -0.0341,-0.0299 -0.0377,-0.0259 v 0 l -0.0413,-0.0215 -0.0449,-0.0168 -0.0488,-0.0118 -0.0821,-0.008 c -0.0862,-0.002 -0.18744,0.0151 -0.30632,0.0546 0.002,-0.0998 -0.0112,-0.18965 -0.0375,-0.26829 l -0.022,-0.0568 v 0 l -0.0268,-0.0526 -0.059,-0.0801 -0.0508,-0.0529 -0.0448,-0.0352 -0.0498,-0.0314 -0.0529,-0.026 -0.0584,-0.022 -0.0617,-0.0172 -0.0638,-0.0114 -0.0672,-0.007 c -0.0831,-0.38035 0.12518,-0.71244 0.18767,-1.10948 0.009,-0.0566 0.0152,-0.1146 0.0168,-0.17419 0.008,-0.29479 -0.0545,-0.67972 -0.15901,-0.99025 l -0.0675,-0.17606 -0.0316,-0.0678 -0.0331,-0.0625 -0.0768,-0.12306 c -0.0818,-0.12081 -0.18098,-0.23919 -0.29109,-0.35414 l -0.11369,-0.11395 v 0 l -0.11962,-0.1117 -0.25128,-0.21619 -0.25866,-0.20659 -0.56603,-0.4358 -0.13755,-0.1119 -0.18066,-0.13982 -0.18906,-0.12894 v 0 l -0.39091,-0.24794 -0.22261,-0.14739 -0.1298,-0.0964 -0.11975,-0.1023 -0.10949,-0.10996 -0.0657,-0.0781 v 0 l -0.0594,-0.0828 -0.0524,-0.088 -0.035,-0.0706 -0.0297,-0.0732 -0.0253,-0.0771 v 0 l -0.0202,-0.081 -0.019,-0.12177 c -0.009,-0.0764 -0.011,-0.15765 -0.006,-0.24458 0.005,-0.0857 0.0206,-0.17615 0.046,-0.26873 0.0255,-0.0925 0.0606,-0.18771 0.10371,-0.2825 0.12584,-0.27666 0.32046,-0.55364 0.54652,-0.77481 l 0.13911,-0.12556 0.0613,-0.0491 0.0622,-0.0459 0.12662,-0.0814 v 0 l 0.1291,-0.0662 0.086,-0.0348 0.086,-0.0267 0.0857,-0.0182 0.0424,-0.14594 c 0.0235,-0.0974 0.038,-0.19604 0.0461,-0.29536 0.0273,-0.33538 -0.0169,-0.68013 -0.0229,-1.01855 l 0.0109,-0.33573 0.0194,-0.1474 0.0315,-0.14552 0.0287,-0.0956 0.0356,-0.0945 0.0431,-0.0935 0.0894,-0.15943 c 0.065,-0.10547 0.1402,-0.21025 0.22151,-0.31351 l 0.12605,-0.15364 0.13223,-0.15073 0.17025,-0.18352 0.47898,-0.50608 0.12878,-0.14897 0.25528,-0.31286 0.11928,-0.14262 c 0.0514,-0.0593 0.1033,-0.11554 0.15741,-0.1678 l 0.0831,-0.0754 v 0 l 0.0879,-0.0691 0.0942,-0.0623 0.0507,-0.0285 0.10623,-0.0512 0.0575,-0.0227 0.12161,-0.0391 0.13356,-0.0305 0.14774,-0.0213 0.0912,-10e-4 0.63502,0.0276 c 0.0823,0.003 0.15298,0.004 0.19906,5.2e-4 0.0272,-0.002 0.0458,-0.005 0.0528,-0.01 0.2368,-0.16664 0.20192,-0.44543 0.28,-0.68382 l 0.0415,-0.0992 0.073,-0.10395 0.0541,-0.0501 0.10392,0.169 0.027,0.036 0.0256,0.0269 0.0236,0.0173 0.0476,0.0189 c 0.0658,0.005 0.14924,-0.053 0.33206,-0.10965 l 0.11416,-0.40371 c 0.0394,-0.14788 0.0697,-0.29622 0.0599,-0.40652 l -0.008,-0.0526 v 0 l -0.0122,-0.0507 -0.0437,-0.10949 -0.0433,-0.0818 v 0 l -0.14395,-0.22516 c -0.0269,-0.0464 -0.0462,-0.0897 -0.0505,-0.13066 -0.0595,-0.54736 0.14061,-0.69062 0.27173,-1.04871 l 0.0407,-0.12817 0.0325,-0.14916 -0.29776,-0.0143 c -0.0541,-0.42535 0.17359,-0.80133 0.5391,-0.98047 -0.0388,-0.18409 -0.0574,-0.39017 -0.10001,-0.59041 l -0.0522,-0.19725 0.18864,-1.10674 0.10536,0.0771 c 0.0482,0.0307 0.0943,0.0542 0.13921,0.0713 0.0337,0.0128 0.0666,0.0222 0.0992,0.0281 0.0652,0.0118 0.12901,0.0103 0.19388,-0.001 0.0973,-0.0175 0.1972,-0.0584 0.30892,-0.11349 l -0.0141,-0.0797 v 0 l -0.0462,-0.20065 c -0.0276,-0.12146 -0.049,-0.24533 -0.0308,-0.3747 l 0.31972,-0.21445 c 0.049,-0.0312 0.0966,-0.0601 0.1439,-0.0868 0.14197,-0.0801 0.28156,-0.14042 0.44907,-0.18282 0.0516,0.0122 0.1012,0.0214 0.14819,0.0267 0.14096,0.0161 0.25961,-8.2e-4 0.34805,-0.0593 0.0295,-0.0196 0.0556,-0.044 0.0781,-0.0734 0.0224,-0.0294 0.0414,-0.064 0.0562,-0.1039 0.0197,-0.0531 0.0323,-0.11598 0.0371,-0.18954 l 10e-4,-0.11851 -0.006,-0.0877 -0.0111,-0.0745 c -0.0119,-0.0616 -0.0293,-0.11162 -0.0512,-0.16144 l -0.10217,-0.20826 -0.0179,-0.022 c -0.0376,-0.0321 -0.11252,-0.045 -0.16693,-0.0882 -0.0218,-0.0173 -0.0405,-0.0393 -0.052,-0.0693 l -0.01,-0.0393 v 0 l 6.9e-4,-0.0353 0.008,-0.032 0.0307,-0.0681 c 0.0114,-0.0246 0.0199,-0.0489 0.0158,-0.0755 -0.0235,-0.1484 -0.0324,-0.27773 -0.0281,-0.39031 0.002,-0.0563 0.008,-0.10839 0.016,-0.1568 0.0339,-0.19363 0.11687,-0.32677 0.23637,-0.42257 0.0299,-0.0239 0.0621,-0.0455 0.0963,-0.0651 0.0342,-0.0196 0.0707,-0.0372 0.10887,-0.0532 0.0713,-0.0298 0.14908,-0.0539 0.23213,-0.0746 l 0.12835,-0.0288 0.6488,-0.11287 c 0.0509,-0.10996 0.0555,-0.23854 0.0673,-0.36046 l 0.0163,-0.11875 0.0194,-0.0733 0.0304,-0.0676 0.0311,-0.0489 0.03,-0.0396 c 0.0442,-0.0531 0.0853,-0.0784 0.12705,-0.0928 l 0.0422,-0.0114 0.12096,-0.0235 c 0.0435,-0.0114 0.0909,-0.0303 0.1451,-0.0685 l 0.0608,-0.0503 0.0503,-0.0547 0.0433,-0.0582 v 0 l 0.0768,-0.1223 0.083,-0.12128 0.0511,-0.0577 c 0.19583,-0.19551 0.25412,-0.1122 0.50117,-0.22477 0.10992,-0.0503 0.19687,-0.11488 0.2718,-0.1893 l 0.0713,-0.0776 0.087,-0.11194 0.21022,-0.30995 0.0963,-0.12953 0.1548,-0.18338 0.1747,-0.19607 0.12002,-0.12322 c 0.16419,-0.16038 0.33932,-0.29528 0.46192,-0.28498 l 0.0992,0.20637 c 0.0149,0.0294 0.0295,0.0563 0.0447,0.0811 l 0.0481,0.0676 v 0 c 0.0682,0.0814 0.15808,0.12906 0.32115,0.15313 0.2367,0.036 0.57215,-0.0991 0.84823,-0.0567 l 0.0396,0.0751 v 0 l 0.0694,0.15706 0.0365,0.0725 0.0421,0.0628 0.0242,0.0265 0.0268,0.022 0.0408,0.0209 0.0473,0.0108 0.0548,-8.9e-4 0.0179,-0.0791 0.0269,-0.0739 0.0331,-0.0715 0.10928,-0.20559 0.0306,-0.0691 0.023,-0.0716 0.005,-0.0299 v 0 l 0.004,-0.0808 -0.002,-0.22411 0.002,-0.0677 0.0111,-0.0765 0.007,-0.016 c 0.0723,-0.12744 0.15525,-0.18673 0.23466,-0.19476 0.0159,-0.002 0.0318,-10e-4 0.0473,0.001 0.031,0.005 0.061,0.0172 0.089,0.0362 0.0249,0.0169 0.0482,0.0389 0.0694,0.0653 l 0.0301,0.0429 0.038,0.0757 0.022,0.0655 0.0157,0.0711 0.009,0.0753 10e-4,0.0795 0.0914,0.0545 c 0.1274,0.0616 0.27525,0.0824 0.41777,0.0514 l 0.003,0.11533 v 0 l 0.009,0.115 0.007,0.0559 0.0221,0.10901 0.0151,0.0516 c 0.0148,0.0451 0.0333,0.0875 0.0563,0.12682 l 0.038,0.0565 0.0335,0.038 0.0379,0.035 0.0423,0.0305 0.0473,0.0262 c 0.0854,0.0408 0.20059,0.0472 0.31402,0.0259 0.11343,-0.0212 0.2251,-0.0698 0.30421,-0.13973 0.0264,-0.0233 0.0493,-0.0493 0.0673,-0.077 0.0179,-0.0277 0.031,-0.0572 0.0382,-0.0888 0.11855,-0.0327 0.22249,-0.007 0.32371,0.0293 l 0.12288,0.0461 0.11191,0.0342 c 0.0434,0.01 0.0879,0.0151 0.1343,0.0122 0.0348,-0.002 0.0707,-0.009 0.10799,-0.0217 -0.0414,-0.0255 -0.0793,-0.0526 -0.11321,-0.0815 -0.13566,-0.11556 -0.21246,-0.25614 -0.23992,-0.40285 -0.007,-0.0367 -0.0107,-0.074 -0.0115,-0.11113 -0.002,-0.11143 0.0216,-0.2235 0.0682,-0.32849 0.0155,-0.035 0.0336,-0.0694 0.054,-0.10253 0.0409,-0.0662 0.0912,-0.12786 0.14985,-0.18293 l 0.0454,-0.0399 v 0 l 0.0484,-0.0371 c 0.0333,-0.0239 0.0686,-0.0458 0.10564,-0.0654 0.0741,-0.0392 0.15557,-0.0692 0.2428,-0.0878 0.10113,-0.0218 0.20777,-0.03 0.31677,-0.0337 l 0.33096,-0.007 c 0.0737,-0.003 0.14705,-0.007 0.21905,-0.017 l 0.1637,-0.0285 0.0487,-0.004 c 0.0302,-9.8e-4 0.0559,0.001 0.0784,0.006 0.03,0.007 0.0546,0.0183 0.0775,0.0327 l 0.14478,0.10594 c 0.0454,0.0276 0.1031,0.0532 0.18575,0.0706 l 0.10746,0.024 0.18619,0.0471 c 0.085,0.0234 0.15939,0.0469 0.22997,0.0708 -0.007,-0.10269 -0.0181,-0.20807 -0.0322,-0.31504 l -0.0235,-0.16146 v 0 l -0.0278,-0.16257 -0.0316,-0.16233 -0.0353,-0.16129 -0.039,-0.15791 -0.0947,-0.32205 -0.052,-0.16005 -0.0546,-0.15114 -0.0571,-0.14202 1.4e-4,-0.008 0.0614,0.14875 0.0544,0.15172 0.0521,0.15967 0.0502,0.16966 0.0682,0.0237 0.0391,0.002 0.0428,-0.003 0.16241,-0.0251 0.0756,-0.006 0.13833,0.002 0.0721,0.008 0.0713,0.0154 0.13609,0.0442 0.0645,0.0292 0.0673,0.0359 0.12614,0.0792 0.12783,0.0908 0.11403,0.10114 0.4869,0.45214 0.1331,0.1053 0.13495,0.091 0.15099,0.0761 0.15651,0.0559 0.19658,-0.0898 0.26981,-0.007 0.2685,0.0327 0.25808,0.0617 0.12888,0.0383 0.20803,0.0729 0.0766,0.008 0.0696,-0.005 0.0618,-0.0185 0.0607,-0.0321 0.0542,-0.0389 0.0465,-0.0508 0.0459,-0.058 0.0386,-0.0651 0.0331,-0.0634 0.0322,-0.0702 0.0193,-0.0777 0.0239,-0.076 0.0151,-0.0697 0.0122,-0.0779 0.0269,-0.21248 0.0268,-0.15241 0.0379,-0.14519 0.0465,-0.14064 0.0588,-0.14078 0.0642,-0.13476 0.0787,-0.1355 0.0787,-0.12217 0.0226,-0.0219 0.0171,-0.0295 0.0243,-0.0148 0.0244,-0.0224 0.054,-0.0316 0.0546,-0.0252 0.0625,-0.0101 0.0689,-0.005 h 0.07 l 0.0722,0.009 0.0701,0.0147 0.0788,0.0213 0.0772,0.0282 0.0787,0.0338 0.0727,0.0427 0.0793,0.041 0.1801,0.12179 0.0608,0.0299 0.0303,0.004 0.0586,0.0164 0.0635,0.002 0.0688,-0.005 0.0679,-0.0126 0.2803,-0.0637 0.0763,-0.006 0.0684,-0.0106 h 0.0689 l 0.0696,0.009 0.0704,0.0147 0.0668,0.0303 0.0714,0.10244 0.15689,-0.15566 0.26943,0.0209 0.12787,0.0163 0.13508,0.0314 0.0639,0.022 0.0607,0.0279 0.13041,0.0717 0.1226,0.10047 0.1244,0.13257 0.0358,0.0456 0.0335,0.0308 0.0342,0.0247 0.0326,0.0184 0.0517,0.01 0.0253,-0.002 0.0242,-0.0156 0.0171,-0.0158 0.025,-0.0149 0.0231,-0.03 0.0941,-0.16326 0.0825,-0.1636 0.0436,-0.0779 0.0797,-0.10856 0.0298,-0.0297 0.0664,-0.0459 0.0376,-0.0166 0.036,-0.009 0.0871,-0.007 0.3686,-0.0694 0.19004,-0.14373 0.0591,-0.0526 0.0816,-0.25943 0.0438,-0.01 0.11486,-0.0485 0.0315,-0.0234 0.0672,-0.0875 0.0387,-0.0643 0.0529,-0.14032 0.0511,-0.24293 0.0385,-0.15252 0.0266,-0.0702 0.0321,-0.0718 0.0224,-0.0287 0.0168,-0.0291 0.0291,-0.0297 0.26132,-0.21738 0.25516,-0.19594 0.13341,-0.093 0.20586,-0.10506 0.0735,-0.0319 0.22223,-0.0592 0.067,-0.0242 0.12916,-0.0665 0.11916,-0.0838 0.11365,-0.0967 0.16608,-0.12938 0.0603,-0.0381 0.06,-0.0317 0.0679,-0.0262 0.0674,-0.0189 0.0701,-0.0131 0.0744,-0.006 0.0746,-0.0175 0.0673,-0.0198 0.14137,-0.0589 0.0662,-0.039 0.12663,-0.084 0.12482,-0.0927 0.11702,-0.11066 0.22279,-0.22164 0.0607,-0.0466 0.0305,-0.0213 0.0298,-0.016 0.068,-0.025 0.14885,-0.0261 0.24052,9e-4 0.16505,0.008 0.15,-0.0117 0.0745,-0.0183 0.0702,-0.0264 0.058,-0.038 0.0292,-0.0232 0.0231,-0.0296 0.21507,-0.24804 0.16222,-0.18267 0.1175,-0.10465 0.12867,-0.0725 0.067,-0.0242 0.0679,-0.0129 0.0756,-0.006 0.0772,0.0153 0.0768,0.0198 0.35115,0.19109 0.11021,0.10023 0.19702,-0.056 0.24433,-0.0404 0.0869,-0.0189 0.31851,-0.20934 0.0262,-0.0705 0.01,-0.0402 0.0159,-0.0363 0.13581,0.0313 0.0311,-0.0842 0.0436,-0.0735 0.0459,-0.0636 0.0532,-0.0513 0.0596,-0.0465 0.0657,-0.0398 0.0669,-0.0249 0.15006,-0.0391 0.0739,-0.0122 0.1639,-0.006 0.3166,-0.003 0.044,0.002 0.19913,0.0317 0.15287,0.0151 0.14634,0.004 0.0616,-0.0112 0.0551,-0.018 0.0491,-0.032 0.0276,-0.0437 0.0105,-0.0278 0.007,-0.0618 -0.0285,-0.12836 -0.0534,-0.1107 -0.0229,-0.053 -0.0336,-0.0933 -0.007,-0.0885 0.004,-0.0342 0.0108,-0.0343 0.0159,-0.0359 0.0333,-0.0574 0.0526,-0.0585 0.0586,-0.0444 0.21086,-0.14093 0.13753,-0.0977 0.0586,-0.059 0.0514,-0.0648 0.0177,-0.0365 0.0139,-0.0422 0.0166,-0.0355 0.003,-0.0478 0.24757,-0.30537 0.17978,-0.19734 0.0947,-0.15649 0.0984,-0.13781 0.10153,-0.13121 0.11777,-0.12481 0.11719,-0.11792 0.12446,-0.11124 0.34352,-0.28583 0.0631,-0.073 0.0466,-0.0641 0.0369,-0.0726 0.0328,-0.0775 0.0919,-0.26628 0.034,-0.0571 0.0331,-0.0497 0.0178,-0.0215 0.0473,-0.0456 0.0242,-0.0156 0.0307,-0.0145 0.11034,-0.0299 0.17643,-0.0137 0.0806,-0.0135 0.074,-0.0255 0.0733,-0.0343 0.0654,-0.0446 0.12657,-0.0989 0.10376,-0.11728 0.053,-0.0638 0.0964,-0.13847 0.0831,-0.14146 0.0703,-0.14331 0.32847,-0.0936 0.29363,-0.0563 0.0853,-0.0203 0.0814,-0.0265 0.0666,-0.0334 0.0606,-0.0434 0.0516,-0.0532 0.046,-0.0572 0.0409,-0.0596 0.0375,-0.0702 0.14184,-0.28344 0.0404,-0.0709 0.0437,-0.0719 0.05,-0.0728 0.0927,-0.1148 0.0172,-0.0292 0.0204,-0.0637 0.007,-0.0566 -0.008,-0.0953 -0.0105,-0.0665 -0.0368,-0.13334 -0.0439,-0.14691 -0.0247,-0.15525 -0.006,-0.0745 0.006,-0.0823 0.019,-0.0905 0.0306,-0.0818 0.0267,-0.0645 0.0141,-0.068 0.0125,-0.078 10e-4,-0.0755 -0.006,-0.0741 -0.0117,-0.0809 -0.0191,-0.0803 -0.0251,-0.0714 -0.032,-0.0729 -0.0424,-0.0721 -0.0501,-0.065 -0.0532,-0.0567 -0.0612,-0.0496 -0.0723,-0.0423 -0.0799,-0.0349 -0.0845,-0.0216 -0.25769,-0.38616 -0.11189,-0.21093 -0.051,-0.0903 -0.0683,-0.0765 -0.0357,-0.0444 -0.0414,-0.0447 0.17867,-0.19725 0.0492,-0.10659 0.0351,-0.13249 0.003,-0.0345 -0.005,-0.0605 -0.008,-0.0276 -0.0307,-0.052 -0.0606,-0.0549 -0.0547,-0.038 -0.25074,-0.14371 -0.0678,-0.0431 -0.067,-0.0564 -0.0556,-0.063 -0.0566,-0.0762 -0.0529,-0.0995 -0.0329,-0.0934 -0.0185,-0.0864 -0.006,-0.0805 -8.2e-4,-0.15709 0.0219,-0.13871 0.002,-0.12148 -0.009,-0.0343 -0.003,-0.0329 -0.007,-0.0268 -0.0156,-0.027 -0.0146,-0.0323 -0.0493,-0.059 -0.0274,-0.0241 -0.0805,-0.0558 -0.17363,-0.10174 -0.13441,-0.0983 -0.0618,-0.056 -0.11759,-0.12706 -0.11124,-0.14125 -0.42033,-0.58023 -0.15993,-0.34864 0.24714,-0.23078 -0.1525,-0.24122 0.0301,-0.11115 0.0377,-0.0771 0.0816,-0.0809 0.0372,-0.0166 0.0685,-0.019 0.0742,-0.013 0.15074,-0.0117 0.0754,0.001 0.0696,-0.005 0.0686,-0.0178 0.0547,-0.0325 0.047,-0.0444 0.0167,-0.0344 0.0306,-0.0765 0.002,-0.0549 0.009,-0.0551 -0.006,-0.0729 0.007,-0.13673 0.0103,-0.0403 0.0326,-0.0702 0.0168,-0.0283 0.0462,-0.0596 0.0306,-0.0209 0.0521,-0.046 0.0676,-0.0399 0.3538,-0.15649 0.12637,-0.0779 0.054,-0.0513 0.028,-0.0296 0.0949,-0.15851 0.0648,-0.12635 0.0532,-0.14034 0.0395,-0.13808 0.0321,-0.14759 0.0141,-0.14214 0.007,-0.1577 -0.0151,-0.18903 -0.008,-0.0336 -0.0314,-0.0649 -0.043,-0.0656 -0.0543,-0.0562 -0.12463,-0.12127 -0.12893,-0.11892 -0.11709,-0.12025 -0.0204,-0.027 0.0412,-0.0222 6,0.5 z"
     id="warsaw"
     fill="#9c6bae"
     style="fill-rule:evenodd;stroke:#000000;stroke-width:0.5"></path>
  
            </svg>
