<svg>
  <path
     d="m 379.46838,274.38598 c 0.41364,0.0233 0.67486,0.52136 1.09283,0.81962 0.89435,0.63816 1.28861,-0.015 2.2247,0.74157 l 0.16816,0.13616 c 0.0239,0.0202 0.0458,0.0396 0.066,0.059 0.0605,0.0582 0.0962,0.10266 0.11702,0.15612 0.0209,0.0534 0.0515,0.10528 0.039,0.15612 -0.0125,0.0507 -0.0393,0.10603 -0.0781,0.15611 -0.80633,1.04203 -1.42608,0.18883 -1.87342,0.35127 -0.44738,0.16245 -0.0684,0.7876 -0.46836,0.97575 -0.39993,0.18815 -0.71222,0.0877 -0.74157,0.35126 0.16919,0.21825 0.37566,0.29188 0.58545,0.62448 0.18266,0.28959 0.42988,1.08327 0.78059,1.32701 0.35073,0.24375 1.38223,0.13932 1.60022,0.46836 0.0866,0.13163 0.11595,0.22216 0.11909,0.31733 l -0.002,0.11193 -0.70254,0.85866 -0.0168,0.0545 c -0.0639,0.16547 -0.35446,0.67296 -1.58337,1.03832 l -0.72688,0.21599 c -0.96572,0.29711 -1.38072,0.52278 -1.38072,1.3452 l 0.004,0.37787 c 0.0208,0.88147 0.14348,1.7446 0.77673,2.23712 0.24125,0.18763 0.60568,0.41053 0.97575,0.62448 -0.0103,0.32096 0.005,0.51332 0.11702,0.62448 l 0.16499,0.155 c 0.14837,0.14973 0.31755,0.38646 0.45949,0.97686 0.20043,0.83364 1.14473,0.24893 1.20992,1.32701 0.0804,1.32985 0.62429,1.81473 0.97575,2.10761 0.84512,-0.0242 0.41793,0.53411 0.97574,0.35126 0.52039,-0.17058 0.27928,0.73084 1.32701,0.54642 0.4381,-0.0771 0.52046,0.6841 1.04231,0.89776 l 0.12858,0.039 c 0.40563,0.0828 0.23277,0.53862 0.97575,1.09283 0.0559,0.0417 0.10316,0.0448 0.15612,0.0781 l -0.20145,0.45581 c -0.0439,0.0943 -0.0818,0.16787 -0.11079,0.20769 -0.30379,0.4177 -2.17749,1.67005 -2.85895,2.21437 l -0.10731,0.0884 c -0.56289,0.48248 -2.48377,1.42761 -2.96626,1.99052 -0.48249,0.5629 0.74038,1.86401 0.78059,2.18566 0.0402,0.32166 -0.66232,1.07988 -0.70253,1.52216 l -0.007,0.14588 c -0.0217,0.79746 0.0515,3.85736 0.16317,5.12314 0.12063,1.36704 0.75942,0.9983 1.48314,1.56119 l 0.3698,0.28147 c 0.63177,0.47194 1.35157,0.97191 2.32325,1.70905 0.72832,0.55252 2.19797,0.72645 3.23947,0.81962 0.0557,0.0214 0.0919,0.0668 0.15612,0.0781 0.28978,0.053 0.40805,0.0129 0.57497,0.0268 l 0.0885,0.0121 c 0.0266,0.005 0.065,0.007 0.10241,0.005 l 0.0537,-0.005 h 0.15612 v -0.039 c 0.17507,-0.0134 0.34538,0.0511 0.44345,0.49406 l 0.0249,0.13042 c 0.14489,0.88314 0.43365,1.35873 0.58544,1.60022 0.15179,0.24148 0.41489,0.18741 0.74157,1.0538 0.10882,0.28859 0.27659,0.49771 0.38224,0.61347 l 0.0471,0.05 h 0.039 c 0.009,0.009 -0.004,0.0743 0,0.078 0.0353,0.89041 -0.81155,1.0135 -0.42932,2.49791 l 0.23417,0.89768 2.45882,4.87816 -2.5917,0.59354 c -0.31864,0.0735 -0.65813,0.15266 -1.02121,0.23892 l -0.75843,0.18231 -0.039,-0.11702 -0.039,0.039 v 0 c -0.23429,0.23431 -0.46823,-0.58551 -0.70254,-0.46835 -0.35145,0.2343 -0.11695,0.74142 -0.46835,0.97574 -0.17573,0.11715 -0.79381,0.0612 -1.48313,0.31224 -0.5725,0.20906 -1.25058,0.14424 -1.95149,-0.11703 -0.74696,-0.27845 -1.58694,0.21089 -2.18567,0.54642 -0.50462,0.2832 -0.54874,-0.36051 -1.20992,0.27321 -0.92493,0.32371 -1.06571,0.72308 -1.10703,1.16262 l -0.0248,0.35954 c -0.0234,0.29034 -0.65335,0.92501 -0.7806,1.24895 -0.12726,0.32393 0.24415,0.31205 -0.0781,0.6635 -0.11715,0.0879 -0.37834,-0.03 -1.17089,0.11703 -0.39628,0.0736 -0.26399,0.42699 -0.70253,0.81963 -0.9017,0.80669 -0.72247,-0.46327 -2.45888,0.11702 -1.02792,0.3435 -0.82759,1.03004 -1.91246,0.89769 -0.94187,-0.11491 -2.60512,1.00509 -2.81014,0.97631 -0.16086,0 -0.0818,-0.2643 -0.0781,-0.50796 0.0184,-0.13904 0.0196,-0.25366 -0.039,-0.31223 -0.17572,-0.11716 -0.41475,-0.19034 -0.6635,-0.23418 -0.199,-0.0351 -0.40425,-0.0515 -0.59835,-0.0267 l -0.14322,0.0267 c -0.0232,0 -0.052,0.0124 -0.0811,0.029 l 0.017,-0.006 0.0465,-0.007 c 0.46862,-0.11714 1.05361,-1.4e-4 1.40507,0.23418 0.23444,0.23429 -0.35133,1.36604 -0.11703,1.36604 0,1.52297 1.87362,1.44334 1.52216,2.84917 -1.17153,4.45179 -1.87299,0.58375 -2.69305,3.74685 l 0.0107,0.0994 c 0.0154,0.16683 0.0371,0.51645 -0.0107,0.83729 -0.0659,0.44115 -0.61501,0.43342 -0.46836,1.01477 0.16224,0.6431 -0.0636,1.12632 -0.23418,1.56119 -0.16813,0.42875 0,1.25863 0,1.28798 -0.7519,0.97612 -2.24561,0.16116 -2.69305,1.05381 -0.32173,0.64186 -0.27071,0.9565 -0.93836,1.26165 l -0.15447,0.0654 1.32701,2.34178 c 0.35146,1.05438 -1.28798,-3.7e-4 -1.28798,0.70254 0.11715,3.04597 -1.16982,1.40488 -3.16141,1.75634 -0.21051,0.0276 -0.3494,-0.37621 -0.42933,-0.81963 0,-0.70291 0.31236,-1.17056 0.0781,-1.75634 -0.23432,-0.35145 -0.93659,1.9e-4 -1.17089,-0.35126 -0.58575,-0.46861 0.85662,-0.46647 -0.93672,-1.87343 -0.82004,-1.05437 -5.30849,-1.28697 -7.2205,-5.19096 0.66062,-1.30105 1.54109,1.52472 1.91574,1.07132 l 0.0881,-0.15067 c 0.14798,-0.27075 0.48713,-1.00434 -0.2085,-1.62318 -0.89794,-0.79881 -2.12703,-2.04872 -2.30276,-2.69306 -0.10543,-0.31631 0.35829,-0.44247 0.45208,-0.72076 l 0.0163,-0.0989 c 0.11703,-0.46862 -1.2e-4,-1.05354 0.11703,-1.52216 0,-0.5407 -0.29947,-1.08071 -0.0691,-1.43702 l 0.1385,-0.17424 c 0.18421,-0.24279 0.66175,-0.91667 0.51605,-1.19888 -0.53766,-1.04143 -0.26253,-0.79877 -0.23417,-1.63925 0.0283,-0.84049 -0.92874,-0.5551 0.46835,-2.57597 0.23431,-1.40582 -0.70829,-0.36558 -1.56119,-1.48313 -1.07633,-1.41033 0.57561,-0.90298 0.81963,-2.4979 0.0951,-0.62177 -1.03445,-0.6828 -0.74157,-1.09283 0.35146,-0.46861 1.05354,-0.0778 1.52216,-0.54642 0.23432,-0.2343 -0.39023,-0.70235 -0.50738,-1.0538 -0.0586,-0.41002 0.45265,-0.79204 0.58544,-1.09284 0.34087,-0.77214 0.0152,-0.4314 -0.35127,-0.62447 -1.8747,-0.98779 -1.82811,-0.11346 -2.14969,-0.18386 l -0.019,-0.006 2.3e-4,0.0178 v 0 l -0.0794,-0.0196 c -0.0818,-0.026 -0.21588,-0.0841 -0.34879,-0.20922 l -0.0792,-0.0834 c -0.23458,-0.27598 -0.49905,-0.38324 -1.32701,-0.50739 -0.77275,-0.11591 -1.05702,-0.54466 -1.05788,-1.02763 l 0.004,-0.10423 c 0.0339,-0.42903 -0.10564,-0.61838 -0.33888,-0.78642 l -0.16851,-0.11126 c -0.33122,-0.20699 -0.52828,-0.42459 -0.3903,-0.50739 0.12738,-0.0764 -0.17555,-0.58116 -0.47254,-0.59323 l -0.0739,0.008 c -0.0997,0.026 -0.23487,-0.0127 -0.35127,-0.0781 l 1.17089,-1.75633 -4.37133,-2.30276 -0.0978,-0.30481 c -0.0121,-0.0411 -0.0236,-0.0849 -0.0336,-0.13163 l -0.0247,-0.14901 c -0.0211,-0.18257 -0.0712,-0.25828 -0.11703,-0.31224 l -0.0521,-0.0524 c -0.007,-0.0113 -0.0123,-0.025 -0.0258,-0.0256 -0.15042,-0.27266 -0.39673,-0.58974 -0.85865,-0.89768 l -2.26373,-1.48313 v -1.05381 l -0.89769,-1.13186 0.31224,-3.2785 1.60022,-0.23418 -0.0926,-0.54256 c -0.15332,-0.93917 -0.42717,-2.81595 -0.25871,-3.32138 0.22745,-0.68233 2.51812,-1.81221 3.20044,-2.38082 0.68234,-0.56861 -5.21319,-6.12126 -5.21319,-6.12126 l 0.13286,-0.13693 c 0.23168,-0.22388 0.73279,-0.64367 1.23318,-0.64367 0.41877,0 0.81072,-0.1138 1.23121,-0.26998 l 0.21289,-0.0813 0.40654,-0.1477 v 0 l 0.218,-0.0865 c 0.79605,-0.34117 2.14663,-0.10506 2.14663,-1.01478 0,-0.90977 -0.80079,-3.05105 -1.48313,-3.2785 -0.53611,-0.17871 -0.92851,-0.58258 -1.07207,-0.74746 l -0.0598,-0.0722 -0.11703,-1.1318 0.16212,0.0379 c 0.51055,0.11164 2.07381,0.39127 2.45288,-0.27211 0.45489,-0.79606 0.0121,-2.62173 -0.89769,-2.84917 -0.90979,-0.22745 -2.87274,-1.46431 -3.6688,-2.14664 -0.76288,-0.65391 -0.69023,-3.19774 -0.0823,-4.20933 l 0.0823,-0.12297 c 0.68235,-0.90978 1.24896,-3.61768 1.24896,-4.52745 l 0.002,-0.20541 c 0.023,-0.86637 0.22877,-1.82781 1.59772,-1.5119 1.47838,0.34116 2.95416,3.20718 3.86394,3.43462 0.83979,0.20995 6.65234,4.17333 7.22284,3.80052 l 0.137,-0.0991 c 0.56861,-0.4549 1.59823,0.45689 2.84917,-1.24895 l 0.40981,-0.57426 c 0.89259,-1.27138 1.15732,-1.66165 2.55645,-0.36246 l 0.29559,0.28374 c 1.23267,1.22204 1.22018,1.69159 2.8356,0.86704 l 0.61146,-0.31884 c 0.9101,-0.46832 1.74023,-0.85396 2.32747,-1.11627 l 0.87717,-0.37917 0.66351,-0.23418 c 0.15867,0.35127 0.66685,0.6577 1.13186,0.93671 0.55197,0.33117 0.45727,-0.77275 1.56119,0 l 0.74291,0.53058 c 0.67902,0.47484 1.22982,0.76215 2.22336,0.67934 0.50788,-0.0423 0.87943,-0.1776 1.20992,-0.23417 l 0.2732,-0.11703 v 0 l 0.13179,0.0463 c 0.0215,0.009 0.0426,0.0193 0.0634,0.0318 l 0.039,0.039 v 0 c 0.0921,0.0285 -1.43355,-3.27714 -1.34787,-3.20183 0.0838,0.0736 0.153,0.18123 0.23418,0.31224 0.0208,0.0336 0.0573,0.0402 0.0781,0.0781 0.0217,0.0313 0.0174,0.0847 0.039,0.11703 l 0.40267,0.6354 c 0.32092,0.4997 0.6475,0.91711 1.04143,0.8087 0.49197,-0.13539 0.4946,-0.95996 0.85866,-1.99052 0.62515,-1.76966 0.71464,-1.03264 1.17089,-1.56119 0.38571,-0.44683 2.2925,2.74904 2.52773,2.73353 z"
     id="westbalkan"
     fill="#dccfbe"
     fill-rule="nonzero"
     style="stroke:#000000;stroke-width:0.5" />
        </svg>
