<svg>
    <path
       id="afghanistan"
       style="fill:#dccfbe;fill-opacity:1"
       d="m 267.88687,181.82525 c -0.267,-0.928 0.357,-1.637 1.085,-2.102 1.135,-0.724 0.526,-1.218 -0.085,-2.075 1.919,-0.218 1.842,-2.668 1.969,-4.093 0.064,-0.731 -0.76,-1.577 -0.337,-2.285 0.369,-0.618 0.377,-1.572 0.493,-2.267 0.255,-1.525 2.336,0.523 3.017,0.872 1.023,0.524 1.799,-0.151 2.828,0.132 1.124,0.31 1.975,1.389 2.33,2.457 0.717,-1.519 2.609,-0.682 3.717,-1.68 0.593,-0.534 1.249,-0.806 1.613,-1.561 0.338,-0.702 -0.377,-1 0.57,-1.512 -0.507,-0.355 -0.938,-0.852 -1.15,-1.439 3.104,0.4 6.417,-1.709 8.825,-3.416 2.366,-1.677 -0.624,-6.973 2.292,-8.17 1.059,-0.435 2.922,0.188 3.793,-0.367 0.924,-0.589 -0.17,-2.315 1.163,-2.531 1.01,-0.163 2.135,0.879 2.95,1.328 1.223,0.673 2.294,0.306 3.614,0.134 1.529,-0.2 2.899,-0.239 4.021,0.934 1.129,1.182 2.448,-0.077 3.807,0.296 0.545,0.149 1.554,1.466 2.039,1.904 1.065,0.959 1.178,-0.211 2.276,0.024 -0.186,-1.24 1.907,-1.298 2.522,-1.977 0.632,-0.696 0.538,0.135 1.147,-0.112 0.298,-0.121 0.271,-0.802 0.676,-0.739 1.082,0.167 1.452,2.205 2.793,1.897 1.609,-0.369 -0.156,-2.401 0.501,-3.347 1.392,-2 4.399,0.382 5.275,-0.573 1.072,-1.17 -0.563,-1.6 -0.745,-2.422 -0.21,-0.957 1.143,-2.084 1.492,-3.038 0.964,-2.628 4.388,-2.854 5.858,-0.261 0.343,0.605 -0.162,2.538 0.502,2.754 0.68,0.222 1.656,-0.684 2.078,0.293 0.442,1.027 0.181,3.229 0.23,4.349 0.056,1.261 0.26,2.553 0.721,3.731 1.427,3.648 3.594,1.641 5.654,-0.087 0.848,-0.711 2.559,0.084 3.021,-1.009 0.62,-1.466 1.522,-2.369 3.007,-3.11 1.099,-0.549 5.292,-0.436 3.496,1.562 1.252,0.524 3.305,-0.9 4.436,-1.433 0.926,-0.436 3.891,0.702 4.495,1.505 -0.842,0.38 3.702,2.525 4.408,3.609 0.651,1.002 2.454,0.455 3.503,1.433 0.744,0.694 1.229,1.483 1.486,2.466 0.188,0.713 0.118,1.936 0.395,2.548 0.301,0.668 1.833,1.576 2.405,2.09 0.737,0.663 1.729,-0.447 2.416,-0.624 0.137,3.109 7.584,4.426 9.8,3.456 -0.7,0.613 -4.995,2.731 -4.614,3.884 0.15,0.455 -0.297,1.443 -0.88,1.054 -0.696,-0.463 -0.829,0.735 -1.017,1.248 -0.197,0.542 -4.495,1.222 -5.332,1.641 -2.354,1.181 -4.021,0.21 -6.595,-0.323 -2.079,-0.431 -4.881,-1.786 -6.896,-0.544 -1.372,0.845 -2.152,2.821 -0.415,3.551 1.589,0.668 -0.615,1.753 0.7,2.172 0.434,0.138 3.349,0.156 2.208,1.281 -1.034,1.021 -2.328,1.429 -0.484,2.73 1.542,1.09 -0.257,2.556 0.763,3.649 0.584,0.626 1.232,0.939 1.902,1.442 0.304,0.199 0.481,0.478 0.533,0.837 0.079,1.012 0.283,0.783 1.358,1.018 1.838,0.4 1.165,2.386 3.175,2.779 1.093,0.214 2.914,0.303 3.692,1.22 0.957,1.128 -2.085,2.229 -2.698,2.513 -1.563,0.725 -3.188,1.994 -1.769,3.741 0.935,1.151 -0.567,4.226 1.608,4.269 -0.34,0.798 -2.316,1.311 -2.524,2.304 -0.288,1.376 -3.007,3.225 -1.8,4.392 1.736,1.681 -2.071,2.443 -2.882,2.983 -0.802,0.533 -0.614,1.858 -0.749,2.68 -0.229,1.395 -0.607,2.831 -1.236,4.103 -0.937,1.892 -2.898,2.289 -4.228,3.74 -0.536,0.584 -0.721,1.337 -0.789,2.108 -0.121,1.361 -1.293,2.152 -1.776,3.353 -1.028,2.551 -2.526,1.909 -4.953,2.557 -0.827,0.221 -1.762,1.071 -2.653,0.984 -1.07,-0.104 -1.556,-1.396 -2.087,-2.142 -1.248,-1.748 -3.105,0.905 -3.59,1.998 -0.859,1.938 -2.264,3.6 -3.045,5.505 -0.962,2.346 0.363,3.658 2.603,4.221 2.089,0.524 3.118,0.633 2.92,3.191 -0.112,1.462 -0.388,4.733 2.122,4.76 0.723,0.008 1.558,-0.518 2.198,0.064 0.636,0.578 0.123,2.152 0.687,2.961 1.157,1.663 2.438,2.907 2.983,4.958 0.209,0.786 0.659,0.551 -0.107,1.099 -0.611,0.437 0.392,1.893 0.907,1.997 -1.358,1.027 -2.78,2.313 -3.931,0.39 -0.535,-0.894 -1.35,-0.225 -2.025,0.045 -0.339,0.095 -0.673,0.208 -1.001,0.337 -0.545,0.28 -0.201,0.958 -0.788,1.208 -1.938,0.82 -4.114,-1.049 -6.146,-0.938 -1.086,0.06 -2.529,0.251 -3.539,-0.25 0.061,0.797 0.772,3.024 -0.672,3.024 -1.224,0 -3.089,0.03 -2.998,1.728 -0.081,-0.984 -0.201,-0.96 -0.36,0.072 -0.48,-0.418 -0.798,-0.992 -1.149,-1.512 0.258,0.452 0.328,0.933 0.21,1.439 -0.529,-0.327 -0.985,-0.735 -1.37,-1.224 0.328,1.318 -0.715,0.575 -1.51,1.008 v -1.152 c -0.877,0.629 -1.997,-0.559 -1,-1.151 -1.175,0.221 -2.83,-1.49 -1.59,-2.448 -1.371,-0.787 -0.634,-3.055 -1.767,-3.622 -0.635,-0.316 -3.848,-0.454 -3.756,-1.48 0.182,-2.076 -0.29,-2.689 -1.318,-4.331 -0.765,-1.218 -3.056,-2.471 -3.45,-0.287 1.238,-0.063 2.063,-1.163 2.73,0.504 -1.321,-0.852 -2.803,-0.327 -4.163,0.102 -1.418,0.447 -2.776,-0.047 -4.122,0.358 -0.731,0.22 -5.832,0.15 -4.525,1.556 -0.595,0.178 -0.983,-0.103 -1.01,-0.72 -1.972,1.02 -3.539,-1.929 -4.609,-1.44 0.164,0.242 0.33,0.482 0.5,0.721 -0.995,0.203 -5.066,-1.104 -4.03,1.296 -1.037,-0.527 -8.824,-1.104 -8.14,0.863 -0.524,-0.022 -0.93,-0.783 -1.355,-1.025 -0.735,-0.419 -0.739,0.569 -1.189,0.832 -1.809,1.054 -3.131,-0.143 -3.07,-1.742 0.082,-2.155 -0.429,-9.946 3.745,-9.008 -1.224,-3.214 6.177,-1.473 6.538,-3.237 0.158,-0.77 0.441,-3.703 0.113,-3.963 -0.789,-0.626 -1.832,-0.172 -2.724,-0.229 -1.279,-0.081 -1.088,-2.188 -1.119,-3.052 -0.06,-1.663 -0.584,-3.8 -1.107,-5.391 -0.242,-0.736 -1.539,-0.782 -2.188,-1.184 -1.077,-0.665 -2.184,-1.067 -3.325,-1.596 -2.531,-1.172 -3.572,-2.886 -4.855,-5.225 -1.365,-2.481 -3.548,-4.455 -5.517,-6.438 m -0.002,-0.001 c 1.528,-1.754 2.615,-3.824 3.925,-5.734 1.127,-1.642 2.252,-3.441 1.567,-5.516 -1.252,-3.795 -7.094,-0.798 -8.012,-4.95 -0.581,-2.632 -0.684,-4.918 -1.881,-7.398 -1.032,-2.138 -2.408,-4.209 -0.93,-6.425 1.192,-1.787 0.919,-1.587 -0.932,-2.092 -1.69,-0.461 -1.419,-2.933 -1.795,-4.244"
       stroke="#000000"
       stroke-width="0.5" />
       </svg>