<svg>
    <path
       style="fill:#6e8d4e;fill-opacity:1"
       d="m 836.75787,145.39325 c -1.12,-1.203 -3.282,-6.226 -1.01,-6.695 -0.797,-0.643 -0.17,-1.891 -0.738,-2.694 -0.461,-0.65 -0.418,-1.424 -0.98,-2.118 -0.635,-0.785 -0.922,-1.817 -1.582,-2.629 -0.592,-0.729 -1.199,-1.047 -1.672,-1.856 -1.016,-1.737 -3.315,-2.58 -4.795,-3.852 -1.931,-1.66 -3.339,-4.436 -3.982,-6.867 -1.088,0.991 -3.676,-1.595 -4.347,-0.484 -0.99,1.637 2.424,3.87 2.906,1.564 1.115,0.527 2.305,2.238 1.51,3.456 -0.705,-0.453 -1.463,-0.816 -2.229,-1.151 0.314,0.504 0.314,1.008 0,1.512 -1.203,-0.298 -1.594,-1.603 -2.311,-2.448 -0.753,-0.887 -1.817,-0.544 -2.66,-1.225 -0.023,1.046 2.128,3.239 1.187,4.053 -0.483,0.418 -2.223,0.86 -1.223,1.863 0.767,0.768 2.237,1.793 2.566,2.795 0.294,0.894 0.333,3.042 -1.16,2.017 0.29,1.013 0.812,0.864 1.651,0.862 1.117,-0.003 1.945,1.259 2.449,2.09 1.297,2.137 1.692,5.854 1.348,8.284 -0.267,1.884 12.03,1.569 15.072,3.523 z"
       id="akita"
       stroke="#000000"
       stroke-width="0.5" />
       </svg>