<svg>
    <path
       style="fill:#8f8f8f;fill-opacity:1"
       d="m 16.096872,135.16925 c 0.1,-0.745 0.192,-4.432 0.743,-4.643 1.366,-0.521 1.804,-2.501 3.217,-3.206 0.753,-0.375 1.718,0.287 2.416,-0.202 0.875,-0.612 1.253,-0.146 2.021,0.314 1.101,0.661 4.662,0.38 2.403,-0.976 0.717,-0.292 1.494,-0.254 2.23,-0.072 -0.365,0.132 -0.544,0.366 -0.536,0.701 0.422,0.59 2.563,0.242 3.108,0.192 1.677001,-0.153 4.094,0.825 5.497,-0.389 -0.67,-0.655 -1.534,-0.081 -2.239,-0.647 0.904,-2.304 5.048,-1.436 6.92,-1.872 -1.616,-0.795 -3.923,-0.127 -5.278,-1.517 -1.521,-1.56 0.01,-2.854 1.641,-2.7 1.79,0.169 3.576,1.002 5.397,0.605 2.43,-0.529 4.403,0.796 6.88,0.551 1.144,-0.113 1.313,-0.7 1.737,-1.594 0.468,-0.985 2.215,-1.416 3.104,-1.937 2.566,-1.504 4.609,-2.826 7.511,-3.611 3.026,-0.819 5.346,-0.382 8.418,-0.382 1.239,0 2.553,0.51 3.78,0.144 0.567,-0.17 0.755,-0.847 1.3,-1.008 0.556,-0.163 4.28664,2.24612 4.82864,2.29512 -0.918,1.107 0.784945,0.0131 1.923554,23.33934 l 2.471126,20.07245 c -0.215,-0.241 -11.60732,4.06709 -11.82532,3.82809 -0.542,0.569 -0.899,1.581 -1.779,1.248 -0.764,-0.289 -2.924,0.242 -3.644,0.602 -1.308,0.654 -2.841,0.556 -4.117,-0.007 -1.958,-0.865 -2.661,-3.036 -4.525,-3.948 -2.048,-1.002 -4.117,-2.147 -6.373,-2.548 -1.187,-0.21 -3.610999,-0.69 -3.610999,1.197 0,1.083 0.201,3.052 -0.591,3.917 -0.432,0.471 -1.005,-0.402 -1.413,-0.458 -1.044,-0.143 -2.121,1.093 -3.153,1.266 -1.19,0.2 -3.001,-0.568 -3.982,-1.197 -0.746,-0.478 -0.78,-2.041 -1.801,-2.089 0.794,-1.12 -1.056,-2.336 -1.29,-0.863 -0.773,-0.674 -2.722,-0.927 -2.96,-2.089 -0.182,0.84 -2.209,2.224 -2.880001,2.736 0.237,-0.503 0.07,-0.814 -0.5,-0.936 0.567,-0.122 0.928001,-0.574 0.931001,-1.152 -0.732001,0.613 -4.167001,1.347 -5.110001,1.08 0.749,-0.916 2.146,-0.971 3.225001,-0.943 1.090999,0.028 0.975999,0.317 1.420999,-0.527 0.311,-0.587 0.983001,-0.853 1.404001,-1.338 -1.328001,-0.593 -5.890001,-0.67 -6.980001,0.432 -1.646,-1.933 1.484,-0.912 1.719,-1.411 0.195,-0.415 0.17,-0.995 -0.064,-1.389 -0.551,-0.923 -1.163,0.358 -0.863,-1.088 -1.587,2.029 -1.471,-2.153 -2.95,-2.088 1.026,-0.557 2.195,-1.094 1.316,-2.486 -0.634,-1.004 -2.442,-0.484 -2.878,-1.23 -0.451,-0.772 -0.909,-1.853 -1.585,-0.502 -0.3,0.599 -2.434,-1.012 -2.474,-1.542 2.146,0.514 0.289,-1.759 0.367,-2.645 0.063,-0.733 1.219,-0.198 1.438,0.162 0.455,0.746 0.301,1.969 1.005,2.555 -0.155,-1.596 2.33,0.401 3.021,-1.224 -1.432,-0.177 -2.015,-0.872 -2.88,-1.944 0.748,-0.414 1.134,-1.321 2.02,-1.512 -0.393,-1.168 -1.603,0.044 -1.491,-1.278 0.111,-1.314 -0.584,-1.483 -1.539,-2.322 0.637,-0.733 1.371,-1.377 1.95,-2.16 -2.052,-1.045 -3.989,1.11 -6.052,0.435"
       id="angora"
       stroke="#000000"
       stroke-width="0.5" />
       </svg>