<svg>
    <path
       id="annam"
       style="fill:#54bff9;fill-opacity:1"
       d="m 621.89141,306.74465 c -0.41392,0.7525 0.64544,1.00437 0.93576,2.39976 0.39565,1.90159 0.16383,5.01171 0.2267,5.95184 0.429,-1.125 0.685,0.571 1.15,1.184 0.626,0.824 1.354,1.463 2.2,2.053 0.805,0.562 1.619,1.146 2.338,1.817 1.033,0.964 0.58,2.001 0.932,3.227 -0.444,-0.346 -0.947,-0.538 -1.51,-0.576 1.798,0.305 2.647,2.548 4.053,3.674 1.026,0.822 4.278,2.423 3.438,4.174 1.1,-0.635 2.849,1.567 3.459,2.232 -0.306,-0.14 -0.619,-0.26 -0.939,-0.36 1.345,0.838 2.573,1.759 3.46,3.097 1.198,-1.436 3.618,1.785 2.95,2.52 0.634,-0.444 -0.348,-1.832 0.939,-1.152 -1.93,1.663 3.992,5.51 4.101,6.984 0.491,-1.251 0.718,-0.207 1.112,0.368 0.616,0.899 -0.329,0.53 -0.173,1.216 0.29,1.276 1.326,2.412 1.833,3.603 0.687,1.614 1.045,3.365 1.772,4.987 0.293,0.653 0.608,1.313 0.768,2.017 0.078,0.344 0.11,2.158 -0.343,0.409 -0.026,0.975 1.122,3.806 0,2.089 0.255,0.579 0.614,1.083 1.08,1.512 -1.34,0.184 -0.261,0.854 -0.049,1.614 0.307,1.1 0.656,1.843 1.24,2.82 0.238,0.398 0.253,2.376 0.168,2.981 -0.406,-0.409 -0.693,-0.889 -0.859,-1.44 -1.36,0.797 -0.084,2.447 0.359,3.385 -0.45,-0.266 -0.931,-0.458 -1.439,-0.576 0.644,0.585 1.297,3.662 0.939,4.535 -0.006,-0.521 -0.149,-1 -0.43,-1.439 0.451,0.716 0.068,1.457 -0.149,2.16 0.812,-0.022 0.854,0.57 0.641,1.186 -0.1043,0.30056 -0.94847,3.13941 -3.14294,5.13853 -2.60243,2.37077 -6.6158,3.94019 -6.64943,4.05901 -0.33871,1.21377 -21.24424,-42.08013 -28.29033,-48.71355 -0.79662,-0.74996 -21.59267,-21.68635 -21.64976,-21.48275 -0.0696,1.79392 26.391,-9.22184 25.529,-7.65384 z"
       stroke="#000000"
       stroke-width="0.5" />
       </svg>