<svg>
    <path
       id="arabia"
       style="fill:#dccfbe;fill-opacity:1"
       d="m 202.57787,250.08125 c 0.229,0.479 0.326,0.982 0.289,1.512 -0.134,0.691 0.704,1.188 0.86,1.8 0.296,-0.76 0.331,-4.892 -1.149,-3.312 m -57.94015,-51.6802 c 2.694,0.558 -22.37485,1.1262 -19.83385,2.2612 9.609,4.295 17.514,11.15 25.805,17.459 1.756,1.337 3.465,2.664 5.104,4.137 1.867,1.677 3.324,1.657 5.784,1.895 2.836,0.274 5.665,0.611 8.502,0.873 1.041,0.097 1.555,-0.434 2.685,-0.19 1.527,0.329 3.111,0.515 4.666,0.656 1.648,0.148 1.778,2.064 2.304,3.277 0.779,1.802 3.404,0.664 4.894,0.795 1.541,0.136 1.742,0.971 2.246,2.232 0.545,1.365 3.255,3.104 2.834,4.635 -0.139,-0.241 -0.309,-0.457 -0.511,-0.647 -0.461,1.097 0.645,0.972 0.511,1.94 0.019,0.015 4.632,0.442 2.87,1.797 0.676,0.214 2.111,3.675 2.8,1.725 -0.46,1.736 3.706,3.686 4.67,4.741 -0.514,-0.154 -0.897,-0.466 -1.15,-0.934 0.024,1.914 1.184,1.942 1.596,3.478 0.241,0.9 0.145,2.799 -1.165,1.624 0.119,1.021 -0.211,1.224 0.717,1.412 0.143,0.028 1.359,2.665 1.443,2.971 -0.27,-0.233 -0.533,-0.473 -0.791,-0.719 0.797,1.169 2.22,1.826 2.85,3.12 l 1.3158,0.74983 c -0.044,-0.39 0.0652,-2.68983 1.1732,-1.55983 -0.063,-0.388 -0.317,-2.542 0.37,-0.72 0.055,-1.816 0.702,-6.609 3.204,-3.966 0.627,0.663 1.831,1.128 1.837,2.168 0.005,0.726 -0.354,1.186 -0.519,1.849 -0.144,0.574 0.207,1.32 0.263,1.893 0.055,0.573 0.664,0.584 0.824,1.08 0.264,0.809 0.068,1.543 -0.259,2.29 -0.566,1.293 0.77406,2.71786 -0.64394,3.14286 0,0 4.68394,5.33614 5.37494,5.29614 0.898,-0.053 1.655,-0.195 2.346,-0.816 0.314,-0.282 0.677,-1.107 1.104,-1.2 0.463,-0.103 1.617,0.594 2.186,0.606 0.933,0.021 1.862,0.129 2.794,0.096 2.533,-0.09 4.28,1.076 6.761,-0.414 -0.225,-0.347 -0.465,-0.683 -0.72,-1.008 0.781,-0.295 0.673,0.645 1.29,0.576 0.898,-0.1 1.66,-1.183 2.026,-1.901 0.996,-1.958 1.123,-3.073 2.866,-4.528 1.697,-1.417 2.389,-3.972 3.993,-5.295 1.776,-1.464 2.842,-1.855 3.354,-4.26 1.294,0.066 0.736,1.938 0.746,2.728 0.018,1.494 1.641,0.737 1.835,2.397 0.194,1.665 0.897,3.245 -0.1365,5.0305 0.7005,-0.6475 0.6925,-0.5095 1.2265,0.6445 0.888,1.918 2.05,3.731 3.465,5.303 2.237,2.485 5.367,3.378 8.553,4.018 1.491,0.299 2.758,0.886 4.276,1.056 2.03,0.228 3.14,2.7 4.302,4.08 0.938,1.113 1.575,2.457 2.51,3.522 0.973,1.109 1.487,1.155 2.772,1.668 3.013,1.204 -0.395,5.48 -0.995,7.247 -1.134,3.338 -4.71,5.08 -5.679,8.656 -0.229,0.844 -0.54,3.285 -1.878,2.883 -1.059,-0.317 -0.853,-2.337 -2.207,-1.496 -1.615,0.978 -1.527,4.493 -1.943,5.938 -0.545,1.889 0.071,3.353 0.57,5.183 0.407,1.496 0.663,2.627 -1.154,2.682 -2.92,0.087 -6.132,0.948 -6.851,4.096 -0.282,1.237 -0.507,2.597 -1.284,3.642 -0.967,1.301 -2.894,1.23 -4.423,1.345 -1.852,0.138 -2.594,0.439 -3.681,1.898 -1.053,1.412 -0.369,1.681 -0.457,3.294 -0.07,1.283 -1.381,2.214 -2.414,2.717 -0.498,0.241 -0.999,0.565 -1.508,0.164 -0.879,-0.693 -1.604,-0.504 -2.695,-0.504 -3.159,0 -4.2166,2.44914 -7.4016,2.35914 l -1.5294,0.63086 c -2.242,1.646 -5.916,1.527 -6.984,4.536 -0.53,1.489 0.484,2.817 0.153,4.277 -0.285,1.26 -2.287,1.201 -3.215,1.675 -1.118,0.571 -1.588,1.625 -2.911,2.103 -1.324,0.478 -2.707,0.735 -4.072,1.061 -1.963,0.468 -3.617,1.806 -5.612,2.154 -1.619,0.283 -2.957,0.471 -4.472,1.215 -3.261,1.601 -4.077,5.355 -7.705,5.939 -0.538,0.162 -1.09,0.23 -1.654,0.203 -0.5,-0.242 -1.025,-0.373 -1.576,-0.391 -0.499,0.149 -1.149,0.726 -1.61,0.981 -1.502,0.832 -2.347,2.309 -4.054,2.792 -1.144,0.324 -3.059,1.634 -4.201,1.53 -1.939,-0.178 -3.954,-0.095 -5.855,0.342 -2.038,0.468 -2.206,1.595 -3.686,2.713 -0.664,0.502 -1.469,0.485 -1.965,1.238 -0.314,0.476 -0.54,0.973 -0.929,1.401 -0.23,-0.931 -0.912,-0.281 -0.791,0.359 -2.351,-1.233 -3.354,0.343 -5.609,0.79 -1.093,0.217 -1.775,-0.11 -2.767,-0.506 -0.932,-0.372 -1.553,0.145 -2.474,0.074 0.683,-2.12 -1.841,-3.876 -1.8,-5.963 0.02,-1.055 0.399,-2.173 -0.002,-3.204 -0.334,-0.855 -1.038,-1.511 -1.321,-2.388 -0.69,-2.136 -0.732,-4.584 -1.27,-6.78 -0.273,-1.12 -0.573,-2.006 -1.375,-2.862 0.003,0.004 -1.495,-0.839 -1.444,-0.722 -0.239,-0.559 1.195,-0.522 1.462,-0.282 0.134,-1.399 -1.047,-2.622 -0.772,-4.029 0.297,-1.52 0.925,-2.293 0.613,-3.961 -0.198,-1.053 -0.687,-1.418 0.273,-1.898 0.403,-0.215 0.738,-0.508 1.004,-0.88 0.498,-0.68 0.882,-1.351 1.366,-2.004 0.61809,0.80171 -3.94889,-0.84301 -3.94889,-0.84301 l 8.74946,-4.37665 c 0,0 0.25952,-12.64496 -0.99869,-15.09681 -4.94701,-9.64013 -17.35707,-33.70074 -19.44123,-36.55254 -7.12279,-9.74624 -20.41162,-28.20007 -20.59064,-30.45974 -0.99097,-12.50886 -3.31812,-44.27373 -1.55301,-46.12625 1.469,-1.541 -0.059,-1.207 -0.967,-1.44 -0.573,-0.147 -1.154,-1.362 -0.264,-1.456 m 39.036,136.92896 c -1.36,0.677 -0.742,2.792 -2.844,2.813 -0.013,-0.179 -0.023,-0.355 -0.033,-0.53"
       stroke="#000000"
       stroke-width="0.5" />
       </svg>