<svg>
    <path
       style="fill:#8f8f8f;fill-opacity:1"
       d="m 80.545784,115.34532 c 0,0 0.265163,-0.11685 2.573282,23.20939 l 2.471126,20.46228 m -2.45232,-20.74274 c -0.315,-22.018 -2.299857,-24.17251 -2.299857,-22.92351 0.201,-1.856 4.122857,1.57151 4.296857,2.10251 0.23,0.702 2.147,3.077 2.899,2.27 0.992,-1.066 2.054,-0.831 3.121,0.023 1.3,1.041 2.899,1.229 4.353,1.956 0.818,0.412 0.959,-1.279 2.083,-0.045 0.902998,0.992 2.657998,0.968 3.895998,1.092 1.721,0.173 3.483,-1.017 5.21,-1.187 1.476,-0.146 2.286,-0.34 3.698,0.166 1.979,0.709 3.448,1.193 5.485,0.239 2.444,-1.145 4.681,-2.45 6.769,-4.131 0.836,-0.673 1.612,0.466 2.457,0.484 0.517,0.012 0.475,-0.697 1.08,-0.576 0.393,0.078 0.783,0.167 1.175,0.247 0.568,0.117 2.186,0.755 2.532,-0.011 0.424,-0.938 2.466,-1.72 1.833,-0.308 0.645,-0.121 1.204,0.292 1.663,0.676 0.33,0.3 0.675,0.583 1.034,0.847 0.579,0.072 0.712,0.34 0.396,0.806 0.267,0.806 1.358,0.021 1.802,0.68 0.289,0.429 0.362,1.141 0.903,1.237 1.633,0.292 2.102,3.011 1.321,4.136 -0.771,1.111 1.684,2.761 0.59,3.498 1.754,0.885 2.651,0.683 4.487,0.751 1.569,0.058 3.771,2.142 4.362,3.497 -0.854,-0.704 -2.155,-1.725 -2.515,0 -0.111,0.532 0.027,1.091 -0.136,1.621 -0.212,0.686 -2.028,0.323 -2.6,0.539 0.421,0.498 1.264,1.782 1.427,2.407 0.271,1.043 0.732,1.586 1.102,2.552 0.543,1.421 0.048,3.498 1.862,4.113 -0.615,0.581 -0.975,1.746 -1.168,2.542 -0.388,1.598 1.267,1.364 2.107,2.138 0.846,0.777 0.677,1.802 0.945,2.818 0.135,0.508 1.034,0.733 1.386,1.046 0.39,0.346 0.046,1.167 0.26,1.607 -1.677,-1.183 -2.37,1.757 -3.332,1.439 -1.245,-0.412 -0.226,-2.052 -1.139,-2.663 -0.456,-0.305 -1.213,-0.277 -1.626,0.096 -0.745,0.672 -1.84,0.515 -2.719,0.239 -1.433,-0.45 -2.537,-0.923 -4.052,-0.901 -1.075,0.016 -1.748,-0.283 -2.311,0.662 -0.681,1.144 -2.042,2.172 -2.508,0.466 -0.405,-1.487 -2.282,0.302 -3.104,0.568 -2.111,0.684 -3.881,0.664 -6.024,0.381 -3.849,-0.508 -7.174,3.366 -11.07,3.637 -1.555,0.108 -4.362,0.492 -5.668,-0.496 -1.425,-1.078 -2.317,-1.697 -4.076,-0.843 -1.879,0.912 -5.966998,3.063 -7.583998,1.059 -0.811,-1.005 -2.534,-1.354 -2.781,0.228 -0.243,1.556 0.3,2.645 0.964,3.977 -0.706,0.04 -1.455,0.241 -2.16,0.071 -0.115,0.616 0.297,1.267 0.08,1.872 -0.256,0.718 -1.209,0.869 -1.439,1.656 -0.541,-0.363 -1.086,-0.773 -1.73,-0.936 0.619,-0.807 -0.234,-1.856 -0.722,-2.46 -0.909,-1.126 0.075,-1.789 1.013,-2.604 0.964,-0.837 1.589,-1.427 0.65,-2.694 -0.375,-0.506 -1.161,-1.131 -1.696,-0.438 -0.741,0.958 -1.49,0.807 -2.415,1.5"
       id="armenia"
       stroke="#000000"
       stroke-width="0.5" />
       </svg>