<svg>
    <path
       id="bengal"
       style="fill:#ef7f72"
       d="m 473.72673,246.19966 c 0.148,1.131 1.84414,2.68459 2.69114,1.83659 0.321,-0.322 2.899,0.005 3.46,0.017 1.201,0.027 1.442,-0.057 1.619,-1.348 0.303,-2.2 -0.733,-3.056 -1.575,-4.939 -0.462,-1.033 -0.328,-2.329 -0.231,-3.428 0.116,-1.333 -0.202,-2.365 -0.275,-3.665 1.335,-0.093 2.86,-1.223 4.194,-0.835 l 1.83552,-0.39919 c 0.979,-1.416 6.02848,-1.89481 7.87148,-1.86181 0.452,0.008 1.942,0.203 2.128,0.726 0.169,0.475 -0.277,1.147 0.373,1.354 1.126,0.358 2.453,0.225 3.619,0.225 0.703,0 1.081,1.134 1.854,0.445 0.625,-0.559 0.793,-0.812 1.696,-0.537 1.183,0.361 2.38227,0.0975 2.36127,1.51854 l 1.12873,1.39519 c 1.156,0.281 1.511,-0.56573 2.528,-0.80473 1.529,-0.36 4.334,0.434 3.706,-2.205 -0.265,-1.111 2.937,-2.227 3.067,-3.744 0.208,-2.394 3.3,-1.215 4.689,-2.577 1.114,-1.091 1.762,-2.386 3.008,-3.378 0.459,-0.366 0.926,-0.768 1.437,-1.06 0.44,-0.252 2.581,1.323 3.032,1.588 -0.531,-0.532 -0.337,-0.548 0.583,-0.045 0.715,0.301 1.548,0.804 2.356,0.771 0.826,-0.034 0.696,-1.021 0.995,-1.547 0.533,-0.94 2.354,-1.532 3.299,-1.911 0.209,-0.083 2.376,1.786 2.627,2.013 -1.438,0.63 -1.319,0.82 -0.965,1.907 0.251,0.77 1.896,-0.579 2.265,-0.684 -0.307,1.056 1.563,1.725 1.226,2.563 -0.516,1.274 -1.036,1.707 -1.3,2.982 -0.189,0.908 1.664,0.118 1.98,0.03 1.346,-0.373 2.34,0.998 3.709,0.582 1.174,-0.357 2.165,1.222 2.165,2.22 0,0.373 0.55,0.679 0.489,0.957 -0.146,0.669 -1.221,1.476 -1.673,1.928 -2.438,2.438 1.189,3.422 1.613,5.73 -1.601,0.658 -2.116,-1.54 -3.414,-1.893 -1.243,-0.338 -4.294,0.736 -5.097,1.764 -0.614,0.787 -1.131,1.451 -1.881,2.126 -0.279,0.447 -0.682,0.621 -1.208,0.523 -0.454,0.368 -0.007,0.636 -0.729,1.056 -0.774,0.448 -1.452,-0.07 -1.75,1.058 -0.219,0.829 -0.096,1.772 0.131,2.585 0.173,0.62 0.651,1.046 0.836,1.626 0.247,0.775 -0.812,1.218 -0.555,2.057 0.627,2.038 -3.014,3.369 -2.225,5.075 0.283,0.612 0.95,0.826 1.202,1.52 0.386,1.065 -0.281,2.348 -0.737,3.277 -1.127,2.295 -2.165,4.845 -2.143,7.451 -0.724,-0.575 -2.589,-1.13 -3.495,-1.364 -0.455,0.032 -0.905,0.096 -1.351,0.192 -0.577,-0.117 -0.729,-0.624 -1.415,-0.484 0.744,2.036 1.159,3.849 1.276,6.008 0.049,0.91 0.155,3.784 -1.496,2.56 0.255,1.969 0.098,3.413 0.877,5.273 0.277,0.661 0.923,2.88 -0.587,1.999 -0.755,2.982 -0.501,1.154 -2.521,0.433 0.124,0.582 -0.116,1.152 -0.579,1.512 -0.648,-1.514 -0.77,-3.224 -1.081,-4.825 -0.373,-1.926 -1.57,-3.59 -2.085,-5.481 -0.399,-1.465 -0.953,-2.939 -1.231,-4.423 -0.242,-1.298 -1.709,0.678 -2.513,-0.031 0.254,0.854 0.605,1.507 -0.174,2.207 -0.837,0.752 -0.309,1.638 -0.15,2.533 0.153,0.858 -0.855,1.893 -1.69,1.271 -0.815,-0.606 -0.556,-1.81 -1.586,-2.268 0.092,0.485 0.068,0.966 -0.069,1.44 -0.2002,-0.0667 -2.22617,-1.09184 -5.18362,0.30744 -0.93767,0.44364 -1.84138,2.15183 -2.97539,2.89019 -1.53287,0.99806 -1.51694,2.69296 -3.34467,4.34023 -0.95002,0.85621 -3.95119,0.76772 -4.62632,2.54214 -0.28,-0.179 -0.567,-0.347 -0.86,-0.504 0.221,0.482 1.912,2.378 1.328,2.863 -0.621,0.518 -1.462,-0.407 -1.479,-0.991 -0.133,0.782 -0.724,1.467 -1.22,0.432 -0.522,-1.09 0.105,-2.463 0.07,-3.6 -0.68,0.336 0.059,1.023 -0.721,1.655 0.182,-0.762 -0.306,-1.49 0.07,-2.231 -1.36,1.037 -0.124,4.393 -0.359,5.832 -0.311,-0.952 0.059,-2.487 -0.86,-3.168 0.011,0.104 0.238,2.674 -0.191,2.39 -0.136,-0.182 -0.258,-0.372 -0.365,-0.571 -0.824,-1.163 -0.099,1.727 -0.813,-0.451 0.325,0.515 0.349,1.043 0.07,1.584 -0.987,-0.893 -0.963,-2.817 -1.08,-4.032 -3.66914,-5.71126 -0.31602,-0.52365 -0.683,0.14 -1.309,2.187 -5.3285,4.88879 -7.8055,5.63179 -1.313,0.395 -8.73872,-14.8742 -9.03072,-13.3402 z"
       stroke="#000000"
       stroke-width="0.5" />
       </svg>