<svg>
    <path
       style="fill:#ef7f72;fill-opacity:1"
       d="m 392.39335,358.32282 c -0.324,-1.454 0.54252,0.97643 0.0205,-0.38957 -0.347,-0.906 -0.722,-1.749 -1.091,-2.639 -0.278,-0.671 -1.315,-2.386 -0.112,-1.958 -1.331,-0.445 -1.024,-2.293 -1.73,-3.24 -0.448,-0.602 -2.673,-1.801 -0.79,-2.16 -1.113,0.508 -1.673,-0.82 -1.993,-1.634 -0.251,-0.639 -0.456,-1.303 -0.774,-1.913 -0.326,-0.625 -1.325,-0.914 -0.042,-1.062 -0.632,-0.16 -1.168,-1.061 -1.148,-1.682 0.021,-0.644 -0.688,-0.842 -1.184,-1.54 -1.198,-1.686 -1.986,-3.696 -2.617,-5.653 -0.439,-1.361 -0.811,-2.789 -0.811,-4.229 0,-1.5 -0.812,-2.901 -1.05,-4.375 -0.223,-1.381 -1.002,-2.564 -1.421,-3.893 -0.274,-0.869 -1.847,-3.742 -0.409,-3.181 -0.262,-0.332 -2.251,-2.902 -0.5,-1.943 -0.285,-1.054 -1.557,-1.728 -1.08,-2.952 0.243,0.188 0.483,0.38 0.72,0.576 0.042,-0.615 -0.175,-1.119 -0.65,-1.513 1.042,-0.41 0.489,-1.41 0.29,-2.159 -0.061,0.606 -0.276,1.154 -0.72,1.584 -0.779,-1.255 -0.541,-4.08 1.22,-2.088 -0.289,-0.706 -2.904,-1.151 -2.081,-2.144 0.287,-0.346 -0.919,-1.771 -1.053,-2.212 -0.358,-1.181 -0.399,-2.347 -0.155,-3.557 0.383,-1.892 1.513,-3.871 0.756,-5.808 l 38.95019,-7.15236 c 0.318,0.813 -1.35711,67.68019 -1.60411,68.41819 z"
       id="bombay"
       stroke="#000000"
       stroke-width="0.5" />
       </svg>