<svg>
    <path
       style="fill:#ffffff;fill-opacity:1"
       d="m 658.40787,469.03425 c 0.934,-0.626 0.299,-1.282 0.499,-2.125 0.261,-1.095 1.85,-1.166 2.021,-2.413 -0.331,0.544 -0.737,1.023 -1.22,1.439 -0.878,-1.292 0.21,-2.565 1.038,-3.522 0.54,-0.623 0.701,-1.208 0.982,-1.959 0.364,-0.973 1.61,-1.199 2.299,-1.862 -0.132,0.89 -1.308,1.981 0.034,2.517 0.191,0.077 0.672,2.179 1.049,2.59 1.103,1.202 3.083,2.143 3.791,3.677 0.274,0.593 1.497,1.107 2.085,1.412 1.102,0.57 2.655,-0.557 3.606,-0.98 1.89,-0.843 3.688,0.271 5.701,0.075 0.805,-0.079 1.536,-0.697 2.246,-1.076 1.062,-0.567 0.761,-1.953 1.565,-2.828 0.838,-0.912 5.094,-1.836 5.752,-0.441 0.627,1.327 4.512,2.593 5.754,1.827 1.073,-0.662 1.304,-1.717 2.76,-1.216 0.716,0.247 1.285,-0.34 1.9,-0.585 0.509,-0.205 1.104,0.456 1.626,0.43 -0.281,-1.386 2.66,-4.404 1.852,-5.299 -1.394,-1.544 1.732,-3.514 2.898,-3.917 -0.684,-0.845 -1.969,-3.955 0.162,-4.211 2.677,-0.323 0.672,-1.98 2.204,-3.447 0.591,-0.565 -0.171,-2.877 -0.08,-3.85 0.084,-0.9 0.316,-2.04 0.721,-2.851 0.35,-0.698 1.066,-1.031 1.243,-1.842 1.416,0.527 1.769,0.808 3.278,0.159 0.514,-0.221 1.778,1.684 1.902,-0.304 0.978,0.944 2.825,0.707 4.045,0.595 1.563,-0.143 2.515,1.556 4.024,1.422 -0.454,0.321 -0.957,0.513 -1.51,0.575 0.272,0.237 2.981,2.492 1.15,1.585 0.372,0.262 1.333,0.437 1.521,0.873 0.188,0.437 0.176,0.872 0.709,1.07 -0.863,1.107 -2.271,0.415 -2.66,-0.72 0.178,0.489 0.248,0.993 0.21,1.512 -0.777,-0.482 -2.138,-0.433 -2.95,-0.072 1.029,0.398 1.561,1.454 2.671,1.729 -0.283,0.566 -0.413,1.815 -1.37,1.368 0.705,0.917 1.756,1.3 2.81,1.655 -0.876,1 0.819,1.098 -0.58,1.296 0.483,0.019 0.94,0.139 1.37,0.36 -1.428,0.39 0.364,1.203 0.908,1.871 0.621,0.765 1.171,1.6 1.682,2.442 0.643,1.059 -0.711,3.142 -1.95,3.103 0.808,0.284 0.412,1.089 1.042,1.612 0.907,0.753 1.813,1.53 2.758,2.235 0.762,0.568 1.211,1.54 2.101,1.86 1.192,0.429 2.03,1.643 2.82,2.573 0.333,0.392 1.2,0.084 0.595,1.031 -0.748,1.17 -1.968,0.589 -3,1.112 -1.712,0.866 -3.735,-1.519 -5.085,-2.066 0.623,0.912 1.114,2.063 -0.344,2.146 -1.324,0.074 -1.743,2.093 -2.08,3.085 -0.901,2.65 -1.334,5.686 -1.176,8.449 0.381,-0.438 0.86,-0.678 1.439,-0.72 -0.185,0.594 -1.138,1.304 -0.43,1.58 -0.682,0.422 -0.682,1.017 0,1.439 -0.936,0.264 -1.976,1.382 -2.23,0.07 -0.289,1.857 -3.743,5.774 -4.25,2.02 -0.724,1.313 0.504,2.341 -0.977,3.37 -0.683,0.474 -0.346,1.213 -0.823,1.811 -0.555,0.694 -1.581,0.671 -2.09,1.439 2.264,-0.859 1.513,2.29 0.43,3.101 0.559,0.549 1.704,-0.212 2.174,0.356 0.456,0.553 -0.463,2.69 -0.804,3.173 -0.396,-0.466 -0.875,-0.585 -1.44,-0.359 1.417,1.226 -0.438,5.153 -1.439,3.16 -0.27,0.875 0.463,1.628 0.939,2.239 -1.98,0.363 -1.371,3.374 -3.038,4.048 -1.828,0.74 -3.673,1.97 -5.531,2.792 -0.489,0.216 -4.347,2.829 -4.184,1.356 0.099,-0.894 -0.007,-1.875 0.034,-2.787 0.059,-1.3 -0.781,-2.377 -0.461,-3.689 -1.462,1.433 -2.462,0.893 -1.439,-1.08 -0.663,1.122 -2.132,1.844 -1.801,-0.141 -0.154,1.053 -2.934,3.5 -3.744,1.877 -0.28,-0.561 0.495,-0.992 -0.042,-1.582 -0.987,-1.083 -2.039,0.879 -2.333,-0.585 0.325,1.666 -1.816,-1.299 -2.021,-2.02 0.013,1.508 -1.611,3.187 -2.892,3.842 -1.333,0.682 -2.5,-1.237 -3.793,-0.304 -0.469,0.338 -2.285,2.947 -2.637,1.253 -0.428,-2.062 0.27,-3.904 -0.828,-5.941 -0.863,2.233 -1.163,1.193 -2.814,1.147 -0.695,-0.019 -1.264,0.582 -1.802,0.922 -1.023,0.648 -1.693,0.069 -2.725,-0.119 0.334,-0.364 0.694,-0.701 1.08,-1.01 -0.835,0.126 -1.108,1.208 -2.02,1.08 0.382,-2.191 -1.826,-0.977 -2.73,-0.29 -1.05,-1.31 -0.211,-3.482 -0.673,-4.993 -0.313,-1.027 -0.122,-2.113 -0.311,-3.157 -0.159,-0.881 -1.537,-1.589 -1.446,-2.36 0.021,-0.181 0.779,-1.114 0.87,-1.383 0.322,-0.962 0.498,-1.796 -0.093,-2.683 -0.404,-0.606 -0.489,-1.259 -0.833,-1.841 -0.419,-0.708 -1.315,-0.97 -1.265,-1.943 -0.206,0.25 -0.423,0.489 -0.649,0.72 -0.763,-1.473 -1.574,-0.118 -2.616,-0.748 -0.59,-0.356 -0.216,-1.014 0.044,-1.417 0.262,-0.406 1.229,0.062 1.563,0.075 -0.563,-0.314 -0.898,-1.078 -1.521,-1.234 -0.463,-0.117 -1.061,-0.03 -1.363,-0.495 -0.425,-0.652 -0.675,-3.309 0.653,-2.511 -0.345,-0.928 -0.918,-2.051 0.22,-2.159 -0.961,-1.269 -2.236,-2.372 -2.577,-3.985 -0.142,-0.674 -0.767,-2.861 -0.16,-3.433"
       id="borneo"
       stroke="#000000"
       stroke-width="0.5" />
       </svg>