<svg>
    <path
       id="budapest"
       d="m 31.904596,38.44361 c 0.696,-0.404 1.846,-1.159 2.211,-1.135 1.106,0.07 2.44,0.164 3.403,-0.558 2.004,-1.498 -14.109724,24.64664 -12.061724,23.68164 0.243,1.246 0.995,0.148 1.22,1.44 0.268,-1.237 1.821,-0.799 2.411,-0.113 0.292,0.339 0.567,1.012 1.103,1.044 0.610001,0.037 0.766,-0.479 1.228001,0.123 1.118999,1.458 -0.014,2.784 1.027999,4.129 0.314,0.357 0.642,0.704 0.981,1.038 0.403,0.447 0.665,-0.45 1.055,0.031 0.757,0.936 -0.068,2.271 0.979,3.061 0.688,0.518 4.238,2.743 2.096,3.502 0.663,0.274 1.027,0.937 1.729,1.152 -1.613,1.704 -4.833,-2 -5.909,0.216 -0.179,-0.428 -0.345,-0.859 -0.5,-1.296 -2.589,0.941 -0.491,2.844 -1.911,4.727 -0.822,1.089 -1.342,1.861 -1.909,3.05 -0.123,0.258 -1.931,0.595 -2.021,1.512 m 1.064997,0.797 c 0.549,0.387 2.95,2.079 2.895,0.357 1.778001,0.701 5.030001,-2.949 6.015001,0.107 1.091,3.378 -1.027,4.742 -4.215,4.716 0.39,-0.314 0.726,-2.209 -0.103,-2.181 -0.989001,0.034 -0.459,2.319 -1.188,2.901 0.474,-0.111 0.954,-0.183 1.439,-0.216 -0.726,0.316 -2.021001,0.413 -1.149001,1.367 0.258001,-0.222 0.498001,-0.462 0.720001,-0.72 -0.309,1.139 -1.527001,1.764 -1.730001,2.952 -0.215999,1.267 0.791,3.04 -0.037,4.223 -0.481,0.688 -2.495,-0.078 -3.018,-0.308 -0.736,-0.324 -1.174,-0.812 -1.584,-1.496 -0.257,-0.429 -0.511,0.199 -0.831,0.101 -2.49,-0.768 -4.501,-1.754 -7.11,-1.229 -1.549,0.312 -3.297,0.439 -4.615,1.403 -1.29,0.944 -2.158,2.282 -3.862,2.522 -1.662,0.234 -3.291,-0.401 -4.932,-0.535 -0.681,-0.056 -1.353,-0.368 -2.044,-0.291 -0.938,0.105 -1.441,0.623 -2.461,0.389 -1.777,-0.408 -3.499,-1.214 -5.343,-1.286 -0.937,-0.037 -3.052,0.989 -3.692,-0.035 -0.956,-1.528 2.283,-1.484 -0.638,-2.806 l -5.291997,-29.799 c 0.721,-0.918 2.035,-0.264 2.898,-0.987 0.711,-0.597 1.206,-1.435 1.99,-1.949 1.084,-0.712 2.31,0.188 3.421,0.333 1.058,0.138 2.104,0.36 3.165,0.468 1.264,0.129 -1.159197,-24.14402 -0.0172,-23.40802 2.161,1.394 30.098217,-2.36408 32.108217,-4.28208 1.258,-1.201 -2.160296,5.87746 -0.568296,5.61046 1.048,-0.176 0.973,-0.831 1.573,-1.494 0.646,-0.714 1.889,-0.795 2.775,-0.694"
       style="fill:#dccfbe;fill-opacity:1"
       stroke="#000000"
       stroke-width="0.5" />
       </svg>