<svg>
    <path
       style="fill:#dccfbe;fill-opacity:1"
       d="m 518.29687,293.20925 c 0.071,-0.554 -0.042,-1.955 0.777,-2.047 1.015,-0.114 1.668,1.417 2.683,1.111 -0.536,-1.286 -0.909,-2.644 -1.045,-4.033 0.031,-0.572 -0.029,-1.133 -0.18,-1.685 -0.215,-0.535 0.635,-1.083 0.504,-1.698 0.733,0.262 1.138,1.815 2.046,1.53 0.65,-0.204 0.352,-1.48 0.475,-1.963 1.51,0.881 0.864,-1.338 0.587,-1.999 -0.779,-1.86 -0.622,-3.305 -0.877,-5.273 1.486,1.103 1.543,-1.167 1.516,-2.103 -0.068,-2.307 -0.502,-4.292 -1.296,-6.465 0.346,-0.025 0.651,0.075 0.917,0.299 0.683,0.458 0.64,0.123 1.457,-0.022 0.814,-0.146 3.252,0.876 3.887,1.38 -0.028,-3.304 4.521,-9.193 1.958,-11.766 -1.36,-1.365 1.522,-3.268 1.832,-4.632 0.36,-1.589 0.84,-2.508 0.048,-3.915 -0.651,-1.158 -0.851,-3.383 0.412,-4.24 0.391,-0.267 1.579,0.086 1.65,-0.606 0.065,-0.646 1.356,-1.075 1.854,-1.549 0.629,-0.6 0.972,-1.21 1.393,-1.961 0.714,-1.277 2.569,-1.091 3.813,-1.283 0.598,-0.092 1.328,-0.511 1.856,-0.006 0.713,0.681 1.447,2.271 2.753,1.733 -0.203,-1.106 -1.289,-1.641 -1.958,-2.429 -1.224,-1.441 -0.405,-2.551 0.691,-3.648 1.576,-1.574 0.837,-1.257 0.837,-2.958 0,-0.603 0.756,-0.835 0.699,-1.393 -0.07,-0.693 0.208,-1.342 0.23,-2.027 1.346,1.496 4.048,1.738 5.138,3.649 0.396,0.693 0.272,1.548 0.623,2.255 0.476,0.958 1.183,1.778 1.659,2.736 0.56,-0.199 0.864,-0.649 0.57,-1.225 2.986,1.388 3.058,4.47 3.872,7.424 0.401,1.457 0.678,2.685 0.444,4.188 -0.096,0.617 1.024,2.688 -0.566,2.068 0.244,0.624 2.298,3.043 0.257,2.432 -0.365,-0.109 -1.015,1.448 -0.953,1.743 0.198,0.94 -1.041,0.325 -1.533,0.29 -0.15,0.529 -0.264,4.479 -1.95,2.952 0.071,1.332 -0.629,2.328 0.149,3.6 -1.341,0.105 -1.335,1.074 -1.279,2.126 0.057,1.09 0.947,1.103 1.326,1.947 0.165,0.368 0.766,1.388 0.599,1.802 -0.29,0.72 -1.393,1.747 -0.475,2.472 0.429,0.338 2.888,-1.609 3.307,-1.844 1.814,-1.02 3.984,0.619 5.732,-0.67 0.278,1.125 -1.188,1.568 -0.815,2.686 0.211,0.634 0.637,0.95 1.068,1.418 0.546,0.591 -0.132,1.251 0.249,1.578 1.026,0.882 0.636,2.517 1.966,3.194 1.813,0.923 3.281,-0.244 4.013,1.924 -1.86,-0.075 -0.844,2.162 -0.714,3.172 0.137,1.061 -2.128,3.149 -0.207,3.765 1.308,0.419 4.075,-0.451 5.171,0.551 1.198,1.097 -0.477,3.208 1.94,3.24 -0.329,0.502 -0.069,1.426 0.275,1.853 0.559,0.693 1.086,-0.815 1.865,-0.313 1.607,1.036 3.7,-1.498 4.919,-2.403 0.087,1.255 1.046,1.957 -0.119,3.002 -0.537,0.482 -1.773,0.758 -2.088,1.313 -0.247,0.436 -1.788,4.192 -0.313,3.317 -0.114,1.069 -1.821,0.53 -2.449,1.008 -1.096,0.834 -0.724,2.505 -1.011,3.672 -1.458,-1.434 1.388,0.2 -0.39,0.288 0.469,0.606 0.463,1.611 -0.323,1.964 -0.778,0.35 -1.253,-0.466 -1.976,-0.407 -0.9,0.075 -0.688,2.034 -0.852,2.624 -0.184,0.661 -4.568,0.582 -5.043,0.261 -0.468,-0.316 -1.667,1.063 -2.356,0.995 -0.346,-0.034 4.26,-0.532 4.26,-0.623 0,1.169 -0.937,1.952 -1.245,3.117 -0.151,0.57 0.28,1.256 0.41,1.79 0.175,0.716 -0.539,1.475 -0.633,2.19 -0.122,0.933 1.307,2.015 0.662,2.982 -0.581,0.874 -2.401,1.129 -2.944,0.084 0.304,1.065 0.958,3.031 2.45,2.592 -0.13,0.679 0.324,1.223 0.643,1.759 0.474,0.8 -3.70359,2.23569 -3.40759,3.05769 0.60647,0.77542 -7.54641,5.19031 -7.54641,5.19031 -0.71,0.474 -0.572,-0.565 -1.177,-1.121 -0.522,-0.479 -1.195,-0.894 -1.413,-1.615 -0.146,0.183 0.113,1.736 0.107,2.09 -0.018,1.219 0.722,2.466 0.072,3.741 -0.469,0.924 -1.067,2.206 -2.26,2.304 -1.225,0.102 -2.63,-1.555 -1.729,-2.664 -1.423,0.357 -0.192,1.404 0.188,2.279 0.526,1.211 -0.751,2.596 -1.849,1.465 1.174,0.826 -1.157,2.293 -2.021,1.439 0.293,1.104 -0.583,4.851 -2.395,4.164 -0.935,-0.354 -0.066,-2.843 -0.265,-3.588 -0.045,0.068 -0.983,3.496 -0.5,1.224 -0.296,0.615 -0.416,1.264 -0.36,1.944 -0.899,-0.443 -1.147,-2.403 -0.439,-2.952 -1.064,-0.695 -0.644,4.324 -2.076,3.074 -0.682,-0.595 -0.088,-3.847 0.496,-4.154 -1.05,0.413 -1.338,2.563 -1.87,3.528 -0.313,-0.186 -0.576,-0.426 -0.79,-0.72 0.881,-0.369 1,-1.279 1.22,-2.088 -0.413,0.707 -0.581,1.765 -1.58,1.871 1.084,-1.461 0.59,-3.298 0.79,-4.968 -0.144,0.014 -0.286,0.014 -0.43,0 0.56,1.202 -1.072,3.892 -2.191,4.342 -1.618,0.651 -0.307,-6.197 -0.099,-6.956 0.209,-0.762 -0.022,-3.011 0.4,-3.411 1.072,-1.014 -0.098,-3.866 -0.603,-4.984 -0.649,-1.438 -0.431,-3.623 -1.497,-4.802 -0.452,-0.5 -0.714,-1.151 -1.006,-1.748 -0.438,-0.895 -1.623,-1.423 -0.405,-1.665 -0.85,-0.587 -1.87,-0.785 -1.87,-2.027 0,-0.925 0.054,-2.412 -0.439,-3.229 0.118,0.673 0.416,2.223 -0.79,1.367 0.556,0.682 1.005,2.039 0.58,2.881 -1.742,-0.709 -2.807,-2.511 -3.831,-3.989 -0.281,-0.404 0.605,-0.815 0.904,-0.266 0.224,0.413 0.814,0.557 1.229,0.677 0.936,0.271 2.136,-0.227 1.272,-1.369 -0.487,-0.645 -2.671,-1.477 -1.375,-2.397 -0.584,-0.013 -1.16,-0.085 -1.729,-0.216 0.178,-0.489 0.248,-0.993 0.21,-1.512 -0.661,0.323 -1.571,-0.455 -1.938,-0.916 -0.686,-0.861 -1.271,-0.255 -2.232,-0.668 0.334,0.769 0.756,1.5 1.01,2.304 -0.307,-0.495 -0.597,-0.999 -0.87,-1.512 -0.13,0.525 -0.033,1.006 0.29,1.44 -0.859,-1.18 -1.324,-1.92 -0.57,-3.313 -0.334,0.063 -0.67,0.086 -1.01,0.072 0.198,-0.511 0.411,-1.015 0.641,-1.512 -0.14,0.031 -0.257,0.104 -0.351,0.216 -0.146,-0.552 -0.146,-1.104 0,-1.656 -0.5,1.209 -0.421,2.561 -1.01,3.744 -0.963,-0.422 -0.52,-0.948 -0.412,-1.705 0.126,-0.882 -0.887,-1.61 -1.317,-2.255 0.125,0.734 0.556,1.516 0.069,2.231 -0.361,-1.333 -1.739,-1.98 -2.503,-3.036 -0.926,-1.28 -1.477,-3.091 -2.174,-4.521"
       id="burma"
       stroke="#000000"
       stroke-width="0.5" />
       </svg>