<svg>
    <path
       id="cambodia"
       style="fill:#54bff9;fill-opacity:1"
       d="m 637.54133,369.14172 c -0.537,-0.376 -29.44546,6.32353 -28.09646,6.14953 -0.57,-0.302 -0.959,-0.009 -1.08,0.576 0.186,-1.228 -0.867,-2.321 -1.289,-3.385 -0.471,-1.19 0.146,-2.854 -0.538,-2.727 0.199,2.93 2.097,4.349 1.83,6.111 -0.018,-0.881 -0.752,-1.361 -1.14,-2.065 -0.585,-1.063 -0.507,-2.399 -1.95,-2.832 0.033,0.432 0.057,0.863 0.07,1.296 -0.398,-0.955 -3.621,-1.404 -1.73,-2.664 -0.521,0.311 -0.886,-0.021 -1.08,-0.504 0,1.551 -1.835,-0.848 -2.159,-1.584 0,1.364 -1.03,-1.4 -2.314,-0.813 -0.626,0.286 -1.259,0.817 -2.006,0.668 -0.915,-0.183 -1.972,-0.686 -2.919,-0.452 -1.852,0.458 -0.813,-1.462 -0.937,-2.603 -0.072,-0.668 -0.094,-1.345 -0.187,-2.011 -0.127,-0.921 0.55,-1.639 0.372,-2.494 -0.784,0.628 -2.879,0.048 -3.17,-0.936 0.341,1.974 -3.91303,3.29956 -3.935,3.297 l -13.99884,-16.45769 c -0.861,-1.151 46.61015,-12.96071 46.42615,-14.44771"
       stroke="#000000"
       stroke-width="0.5" />
       </svg>