<svg>
    <path
       style="fill:#ebe084"
       d="m 626.04205,184.9169 c -0.0433,-0.80672 77.66877,85.21327 76.68018,85.82181 -0.79198,0.48751 -3.04409,1.61399 -3.10236,2.17354 -0.146,1.383 -0.798,1.709 -2.18,1.506 0.828,0.319 1.862,0.299 2.09,1.368 -0.925,-1.134 -0.864,0.632 -1.52,-0.072 -0.289,0.879 0.227,2 -0.931,2.352 -0.757,0.23 -2.07,0.524 -2.81,0.096 1.08,1.145 -3.086,1.725 -2.16,-0.072 -0.626,0.703 -1.45,0.408 -2.16,0.072 0.141,0.614 1.787,1.431 1.352,2.18 -0.268,0.459 -0.879,0.071 -1.147,-0.112 -0.833,-0.567 -1.603,-0.478 -1.504,-1.492 -0.446,0.613 -2.102,1.616 -2.66,1.225 1.27,0.444 0.445,1.417 -0.321,1.206 -0.9,-0.247 -0.866,-1.328 -0.258,-1.854 -0.854,-0.003 -1.617,0.442 -2.08,1.152 0.964,0.175 -0.067,1.161 1,1.439 -0.212,0.191 -0.452,0.335 -0.721,0.433 -0.455,-1.546 -4.012,-1.408 -4.82,-0.144 -0.104,-2.108 -2.739,-2.657 -2.449,-4.896 -0.286,1.435 -0.247,0.578 -0.86,0.072 0.477,-0.806 1.304,-0.942 2.16,-0.792 -1.114,-0.776 -2.049,0.79 -3.17,0.288 1.599,0.643 -0.076,1.884 -1.15,1.512 0.403,0.162 1.912,0.723 1.991,1.209 -0.158,0.127 -0.342,0.132 -0.551,0.015 0.897,0.596 3.063,3.477 2.16,4.752 -0.965,1.352 -2.991,-2.558 -3.46,-3.096 -0.064,1.289 1.488,2.443 2.09,3.456 -0.534,0.124 -0.927,0.536 -1.011,1.08 -0.53,-0.263 -0.929,-0.754 -0.93,-1.368 -1.309,0.601 0.055,2.088 -0.8,2.952 -0.985,-1.274 -1.705,-0.249 -2.37,0.659 -0.45,0.614 -2.03,-0.696 -1.15,-1.523 -0.621,0.242 -1.01,-0.057 -0.939,-0.72 -0.12,0.836 0.493,1.699 0.232,2.535 -0.328,1.053 -3.061,-0.858 -3.622,-1.023 1.298,1.643 -0.425,0.888 -1.36,0.937 1.626,0.642 -0.738,3.095 -1.8,1.584 -0.171,0.543 -0.528,1.08 -1.08,1.296 0.535,-1.099 -0.802,-0.431 -1.537,-0.258 -0.911,0.215 -2.208,0.511 -2.783,1.338 0.163,-0.412 0.376,-0.796 0.64,-1.152 -0.598,0.419 -1.067,1.143 -0.64,1.872 -1.56,0.47 -1.014,-0.642 -1.95,-1.368 -0.37,0.821 0.74,1.358 0.012,2.098 -0.514,0.521 -1.629,1.054 -1.173,1.999 0.261,0.541 1.027,0.569 1.52,0.739 0.686,0.236 0.478,1.775 -0.068,0.132 0.104,1.264 1.68653,6.49193 1.59553,7.74893 -0.153,2.118 -3.65116,-1.5821 -4.84516,-1.0161 0.063,-0.728 0.0156,-3.79883 1.30963,-3.13183 -0.265,-1.223 -2.465,-0.976 -1.59,-2.664 -1.014,0.135 -0.378,-1.312 -1.226,-1.403 -0.539,-0.058 -0.69,-2.074 -0.332,-2.446 0.705,-0.733 -0.172,-1.243 0.8,-1.835 1.493,-0.91 -0.612,-1.433 -1.183,-1.947 0.131,0.259 0.251,0.523 0.36,0.792 -1.112,0.239 -1.667,-1.411 -2.16,-2.088 -0.354,0.597 -0.096,1.159 0.5,1.439 -0.419,0.47 -1.832,1.701 -2.37,0.72 -0.881,2.021 -1.074,-1.031 -1.52,-1.368 -0.523,-0.396 -2.393,0.438 -1.291,-1.079 -0.258,-0.092 -0.521,-0.164 -0.789,-0.217 -0.066,0.526 0.053,1.007 0.359,1.44 -0.875,-0.133 -1.285,-1.798 -2.16,-1.584 0.396,-0.506 0.224,-0.998 -0.359,-1.224 -0.23,0.514 -0.455,1.241 -0.58,0.216 -0.188,1.061 1.43,1.72 0.829,2.802 -0.289,0.52 -1.283,-0.689 -1.689,-0.642 0.276,0.621 -0.014,1.202 -0.58,1.512 -0.026,-0.646 -1.717,-0.865 -2.532,-1.21 -1.14,-0.482 -2.705,1.03 -3.157,-0.158 -0.239,0.145 -0.479,0.289 -0.72,0.433 -0.336,-1.212 -1.918,-1.102 -2.73,-1.801 -0.295,-0.254 0.327,-0.622 -0.187,-0.775 -0.74,-0.222 -1.697,-1.268 -2.483,-0.593 -0.613,-1.915 -1.658,-3.36 -1.65,-5.327 1.806,0.623 1.095,-3.829 -1.439,-2.585 -1.03,0.506 -1.541,-0.382 -2.334,-0.778 -0.961,-0.479 -1.475,0.922 -2.534,0.113 -1.585,-1.21 -3.051,-1.888 -4.282,-3.589 -0.525,1.212 -1.98,1.35 -2.902,2.115 -0.589,0.489 0.506,1.469 -0.232,2.215 -0.607,0.615 -4.357,2.439 -3.985,0.421 -1.301,0.052 -1.62,3.093 -2.083,2.801 -0.66,-0.416 -1.2,-1.08 -1.734,-1.64 -1.137,-1.191 -1.054,0.1 -1.442,0.999 l -53.27503,-92.13822 z"
       id="canton"
       stroke="#000000"
       stroke-width="0.5" />
       </svg>