<svg>
    <path
       style="fill:#daf0fd;fill-opacity:1;stroke:none;stroke-opacity:1"
       d="m 203.10687,85.66225 c -1.481,0.271 -1.738,0.722 -3.248,0.245 -1.404,-0.444 -2.942,-0.059 -4.383,-0.182 -2.062,-0.176 -6.229,-0.101 -7.818,-1.573 -0.241,0.869 -1.508,1.352 -2.08,0.504 -0.01,1.23 -1.201,1.861 -0.291,3.089 -0.867,-0.568 -1.481,0.285 -2.22,0.575 0.835,0.48 -0.066,0.305 0.435,0.917 0.424,0.517 1.184,0.725 1.751,1.029 0.499,0.268 0.468,1.112 1.137,1.018 0.582,-0.082 1.421,0.305 1.698,0.843 -0.039,-0.01 -1.722,-0.384 -1.61,-0.4 -1.024,0.147 -1.194,0.779 -2.41,0.185 0.3,-0.692 -4.139,-0.694 -4.81,-1.078 -0.032,0.482 -0.039,0.977 -0.51,0.79 0.449,1.166 0.458,2.22 1.962,2.42 1.652,0.22 2.623,0.282 3.437,1.897 1.07,2.125 3.979,3.913 4.229,6.263 0.278,2.611 1.866,0.391 3.163,2.011 0.458,0.572 0.855,1.529 1.407,1.973 1.006,0.809 2.083,-0.828 2.981,0.667 0.444,-1.252 3.886,0.257 3.3,1.725 -0.302,-0.604 -0.88,-0.926 -1.29,-1.438 0.217,0.789 0.999,1.271 1.051,2.112 0.088,1.428 -1.471,2.546 -0.891,3.95 0.289,0.702 0.782,1.24 0.699,2.037 -0.092,0.887 0.688,0.667 1.011,1.242 0.206,0.367 -0.15,0.888 0.07,1.221 0.258,0.388 0.839,0.327 1.149,0.646 1.944,1.997 2.472,4.467 2.15,7.113 -0.351,2.866 -0.066,4.355 2.02,6.396 -0.201,-0.56 -1.052,-1.315 -0.359,-1.51 -0.065,0.114 -0.115,0.234 -0.15,0.36 0.729,0.099 3.254,-0.179 3.45,0.215 1.172,-0.322 0.701,0.948 0.43,1.726 -0.095,-0.035 1.548,1.733 0.86,0.573 1.744,0.675 -0.154,0.001 0.29,0.072 0.123,0.212 0.29,0.38 0.5,0.503 -0.027,-0.07 -0.051,-0.142 -0.07,-0.215 0.058,0.144 0.274,1.018 -0.21,0.287 0.107,0.655 0.495,0.069 1.15,0.431 -0.407,-0.013 -0.723,-0.192 -0.43,0.359 -0.406,-0.379 -0.626,-0.241 -0.791,0.288 0.115,-0.405 0.065,-0.788 -0.149,-1.15 -0.092,0.056 -0.188,0.056 -0.29,0 0.442,1.281 -2.825,0.613 -1.22,-0.503 -0.437,-0.137 -1.196,1.63 -1.221,1.94 -0.049,0.615 0.502,1.735 0.94,2.155 -0.317,-0.448 0.168,-1.026 -0.36,-1.366 1.386,-0.437 2.677,1.099 3.011,0.791 -0.137,0.299 -0.087,0.563 0.149,0.791 -0.036,-0.146 0.01,-0.241 0.14,-0.289 0.121,0.498 0.385,0.905 0.791,1.223 -0.117,-0.31 -0.128,-0.848 -0.211,-1.077 1.006,1.393 0.163,0.174 0.141,0.431 0.058,0.726 2.218,2.078 2.37,1.868 -0.126,1.387 -0.657,2.492 -0.369,3.92 0.276,1.374 0.34,2.662 0.438,4.056 0.068,0.956 1.874,6.478 1.73,6.537 0.736,0.376 1.947,3.131 1.12,3.792 -0.819,0.653 -1.834,-0.415 -2.63,-0.415 0.559,-0.152 2.68,0.203 2.729,-0.718 -1.107,1.233 -4.603,0.513 -6.101,1.055 -2.76,0.998 -6.372,2.359 -9.335,1.973 -2.95,-0.385 -5.865,-1.292 -8.375,-2.892 -2.173,-1.385 -3.46,-3.556 -5.869,-4.375 0.059,-0.088 0.132,-0.111 0.22,-0.071 -1.804,-0.985 -4.002,0.005 -5.837,-1.263 -2.167,-1.495 -2.636,-4.599 -3.131,-6.986 -0.271,-1.308 -0.536,-2.62 -0.942,-3.895 0.943,-0.151 0.63,-1.442 0.538,-2.063 -0.093,-0.631 0.161,-0.763 0.677,-0.371 0.911,0.692 0.573,0.684 0.202,1.412 -0.063,0.125 0.815,0.098 0.939,-0.441 0.097,-0.421 0.13,-0.846 0.146,-1.277 0.029,-0.777 0.138,-1.934 1.007,-0.852 -0.216,-0.325 -0.504,-1.06 -1.007,-2.126 -0.183,-0.387 -0.25,-0.831 0.091,-1.162 0.536,-0.521 0.301,-0.942 0.347,-1.813 0.106,-2.066 -0.13,-2.547 1.944,-3.715 1.138,-0.641 3.438,-0.376 4.235,0.698 -0.72,-1.484 -1.419,-1.653 -2.544,-2.681 -0.93,-0.85 -2.939,0.276 -3.926,-0.912 -0.598,-0.722 -0.027,-1.123 -0.945,-1.717 -0.994,-0.645 -1.723,-1.226 -2.344,-2.262 -1.051,-1.754 -2.213,-3.21 -3.508,-4.792 -1.195,-1.461 -2.963,-1.87 -4.12,-3.27 -1.226,-1.481 -2.224,-3.256 -3.817,-4.4 -1.4,-1.005 -1.399,-2.448 -2.84,-3.438 -1.211,-0.832 0.025,-1.869 -0.294,-2.899 -0.163,-0.084 -0.291,-0.012 -0.382,0.217 -0.244,-1.288 -0.788,-4.162 0.58,-5.029 -1.851,-1.383 -0.614,3.095 -1.401,2.979 -0.28,-0.199 -0.46,-0.473 -0.539,-0.824 1.617,-0.111 -0.893,-4.46 -1.8,-5.174 -0.175,0.111 -0.365,0.183 -0.57,0.216 -0.446,-0.381 -0.792,-0.902 -1.297,-1.214 -0.666,-0.411 -1.487,-0.451 -2.146,-0.877 -0.535,-0.346 0.04,-1.059 -0.227,-1.717 0.869,-0.595 2.117,-0.932 1.51,-2.299 0.195,0.43 0.459,0.813 0.791,1.149 0.169,-0.498 0.122,-0.977 -0.141,-1.438 0.911,0.6 1.38,-3.261 1.87,-3.593 -0.212,-0.128 -0.429,-0.248 -0.65,-0.358 2.246,0.474 -0.341,-2.357 1.011,-0.935 0.219,-1.077 -1.149,-1.087 -1.511,-1.868 0.325,0.048 0.636,0.144 0.931,0.288 -0.278,-0.129 -0.445,-0.081 -0.5,0.145 0.648,0.308 1.079,0.909 1.72,1.221 -0.099,-0.693 -1,-1.608 -1,-1.797 0.84,0.077 1.612,0.703 2.08,1.365 0.047,-0.333 0.069,-0.669 0.069,-1.006 0.748,0.216 1.696,-0.529 2.591,0.144 -0.37,-0.669 0.22,-1.329 1,-1.077 -0.161,-0.1 -0.305,-0.219 -0.431,-0.359 1.049,-0.67 2.096,-0.844 2.521,0.574 1.157,-1.046 -0.104,-0.259 0.43,-0.215 -0.267,-0.458 -0.354,-1.471 -1.149,-1.078 0.781,-0.304 0.247,-0.909 -0.29,-1.006 0.477,-1.064 2.136,1.083 1.01,-0.432 0.132,0.371 0.349,0.539 0.649,0.504 -0.099,-0.215 -0.195,-0.431 -0.289,-0.647 1.165,1.331 -0.811,-1.473 0.789,0.503 -0.302,-0.811 0.641,-1.063 1.08,-0.503 -0.001,-0.467 -0.218,-0.778 -0.649,-0.934 0.151,-0.28 0.367,-0.496 0.649,-0.646 -0.285,0.562 0.623,0.641 1.07,0.646 -0.541,-0.303 -0.696,-0.915 -1.15,-1.293 0.556,0.171 1.382,0.465 0.221,-0.503 0.419,0.151 0.802,0.366 1.149,0.646 -0.311,-0.34 -0.597,-0.699 -0.859,-1.077 0.258,0.187 0.544,0.307 0.859,0.359 -0.254,-0.32 -0.517,-0.631 -0.79,-0.935 0.474,0.42 1.936,1.485 1.15,0.072 0.334,0.208 0.645,0.447 0.93,0.719 0,-0.802 0.465,0.434 0.07,-0.719 0.808,0.812 0.796,0.056 0.939,0.144 0.74,0.358 0.706,-0.141 1.369,-0.472 0.546,-0.272 1.321,-1.674 1.502,-0.894 0.312,-0.351 0.574,-0.733 0.789,-1.149 0.049,0.14 0.072,0.283 0.07,0.432 0.084,-0.261 0.157,-0.524 0.22,-0.791 0.647,0.494 1.269,-0.324 1.08,0.646 0.109,-0.709 1.235,-1.83 1,-0.718 0.351,-0.273 0.521,-0.633 0.511,-1.078 0.603,0.211 1.117,-0.306 1.604,-0.542 1.106,-0.538 2.893,0.157 3.705,0.973 -0.058,-0.211 -0.007,-0.357 0.152,-0.438 0.722,0.242 0.808,1.403 1.857,0.87 -0.248,0.834 0.596,0.427 0.8,-0.072 -0.3,0.875 1.238,1.181 1.79,1.15 -0.17,-0.233 -0.36,-0.449 -0.569,-0.647 1.186,0.424 1.144,-0.979 2.141,-0.961 1.104,0.02 2.394,0.227 3.255,0.962 2.141,1.827 3.943,5.045 3.057,7.87 -0.415,1.319 -0.796,3.002 0.308,4.128 0.341,0.347 2.428,1.367 2.875,1.257 0.702,-0.173 1.416,-0.289 2.125,-0.431 0.853,-0.171 0.41,-0.72 0.895,-1.185 0.415,-0.398 2.277,0.293 1.725,0.862 -0.917,0.943 3.546,4.202 0.418,3.501 -2.858,-0.64 -3.83,1.038 -4.432,3.369 -0.08,0.311 -0.558,2.198 -1.164,1.523 -0.783,-0.873 0.287,-2.262 0.675,-3.092 0.565,-1.21 0.868,-1.709 2.227,-1.972 1.107,-0.209 2.722,-1.495 0.838,-2.176"
       id="caspian_sea"
       stroke="#000000"
       stroke-width="0.5" />
       </svg>