<svg>
    <path
       id="celebes"
       style="fill:#ffffff;fill-opacity:1"
       d="m 819.11687,506.61325 c 1.608,0.93 3.256,1.576 4.729,2.727 1.714,1.338 1.954,-0.668 1.676,-2.005 -0.172,-0.823 -1.277,-1.088 -1.44,-1.871 -0.167,-0.808 -0.167,-1.71 -0.968,-2.188 -0.74,-0.442 -1.02,-1.019 -1.987,-0.832 -0.971,0.188 -1.902,0.053 -2.692,-0.572 -0.769,-0.609 -1.755,-1.071 -2.755,-1.04 -1,0.031 -1.467,0.844 -2.352,1.038 -0.781,0.17 -1.081,-0.237 -1.496,-0.725 -0.147,-0.174 -2.596,0.128 -2.949,0.103 -3.365,-0.244 -6.913,2.145 -5.535,5.877 0.027,-0.76 1.074,-3.848 2.16,-3.601 -0.345,1.016 1.459,2.639 2.324,2.8 0.355,0.066 4.403,-3.298 3.436,-0.71 0.633,-0.139 4.364,1.362 4.576,0.075 0.183,-1.107 3.08,-0.188 3.273,0.924 m -17.07,-30.089 c 0.061,0.894 -0.289,1.828 0.341,2.603 0.609,0.749 1.257,1.11 1.612,2.065 0.389,1.043 2.321,3.292 3.236,2.742 -2.604,-2.668 -2.908,-5.887 -3.423,-9.319 -0.224,-1.487 -0.164,-2.71 1.688,-1.766 1.575,0.803 3.86,1.29 5.614,1.445 -1.102,-0.539 -1.122,-1.883 -2.016,-2.589 -0.896,-0.71 -3.43,-0.594 -2.333,-2.428 0.732,-1.224 2.666,-1.263 3.032,-2.787 0.248,-1.028 -0.479,-2.753 -0.043,-3.506 -1.845,-0.469 -3.863,1.355 -4.61,2.881 1.723,0.083 0.041,0.977 -0.438,1.166 -1.042,0.411 -0.587,1.532 -1.079,2.297 -0.511,0.793 -1.592,-0.021 -1.913,-0.549 -0.573,-0.939 0.617,-1.547 1.255,-1.967 1.316,-0.866 2.176,-3.534 1.455,-5.052 -0.309,-0.65 -1.402,-0.886 -1.137,-1.757 0.254,-0.835 1.391,-1.351 1.066,-2.346 -1.76,0.013 -2.56,2.235 -2.98,3.607 -0.446,1.454 -1.601,4.025 -1.339,5.464 0.128,0.707 0.433,1.445 0.83,2.042 0.159,0.284 0.386,0.492 0.68,0.623 -0.479,0.6 -0.65,1.335 -0.575,2.089 0.097,0.986 0.438,1.55 1.025,2.284 0.591,0.737 0.183,1.935 0.052,2.758 m -1.799,12.45 c -1.113,0.865 -0.533,2.422 0.79,2.601 0.559,0.075 1.053,-0.36 1.606,-0.36 0.601,0 1.2,0.191 1.802,0.225 2.052,0.115 0.038,-1.854 -0.576,-2.167 -1.345,-0.687 -2.296,-1.338 -3.622,-0.299 m -6.551,20.74 c 1.057,-0.526 3.374,-0.876 4.047,-1.885 0.852,-1.276 0.384,-2.212 -0.946,-2.505 1.056,-1.191 -1.239,-1.925 -2.031,-2.122 -1.488,-0.37 -2.813,0.093 -4.289,0.253 -1.807,0.197 -2.184,1.092 -1.37,2.834 0.854,1.831 2.915,2.529 4.589,3.425 m -5.04,-16.06 c -1.543,0.334 -0.139,3.851 0.65,4.399 0.319,-0.558 -0.286,-3.834 -0.65,-4.399 m -11.659,-2.73 c -1.26,1.836 -0.257,3.436 1.939,2.73 0.348,-0.215 0.707,-0.407 1.08,-0.575 0.418,0.084 0.84,0.125 1.267,0.122 0.796,-0.399 2.186,-0.082 2.554,-1.126 -0.576,0.07 -0.959,-0.232 -1.08,-0.79 -0.93,1.312 -4.37,-0.854 -5.76,-0.361 m -39.601,30.38 c -0.336,1.213 0.309,2.326 0.141,3.53 1.116,-0.52 1.765,1.628 3.014,0.699 0.854,-0.635 0.867,-0.757 1.971,-0.63 1.038,0.12 1.731,-1.067 2.726,-0.29 -0.095,-1.688 -1.434,-3.145 -0.813,-4.877 0.757,-2.118 1.158,-3.503 0.897,-5.824 -0.219,-1.941 0.217,-3.465 0.394,-5.353 0.081,-0.862 -0.007,-1.718 0.087,-2.582 0.157,-1.448 -0.496,-1.446 -0.854,-2.674 -0.696,-2.388 3.441,-4.34 5.248,-3.774 1.632,0.511 1.127,4.159 0.268,5.113 -2.415,2.681 1.67,5.731 3.978,6.971 0.979,0.526 -1.481,4.198 -0.484,5.693 0.538,0.806 2.31,1.219 3.218,1.352 1.117,0.163 0.835,-1.646 0.958,-2.285 0.278,-1.438 2.311,-1.176 3.322,-1.587 0.601,-0.245 3.034,0.998 1.633,-0.752 1.093,1.851 2.566,-1.901 0.65,-2.45 -0.344,1.761 -0.814,-0.665 -1.73,-0.65 0.193,-0.264 0.387,-0.527 0.58,-0.79 -0.793,-0.034 -1.777,-1.07 -2.23,-1.649 -0.738,-0.945 0.23,-1.722 -0.439,-2.67 0.357,0.088 0.717,0.161 1.08,0.22 -0.826,-0.502 -0.605,-1.718 0.439,-1.66 -0.192,-0.369 -0.445,-0.692 -0.757,-0.967 -0.572,-0.628 -0.157,-1.298 -0.543,-1.983 -0.323,-0.574 -1.08,-0.618 -1.439,-1.149 -0.408,-0.604 -0.542,-1.566 -0.877,-2.239 -0.505,-1.015 -0.93,-2.009 -2.001,-2.533 -0.873,-0.427 -1.288,-2.255 -2.452,-1.708 0.053,-0.622 0.076,-1.246 0.069,-1.87 1.216,1.032 2.179,1.974 3.412,0.272 1.069,-1.477 2.184,-1.498 3.695,-2.342 2.074,-1.158 3.592,-6.019 6.311,-5.933 0.776,0.025 0.915,2.268 1.813,1.323 0.536,-0.563 1.557,-2.003 1.012,-2.805 -0.906,-1.332 -4.429,-0.923 -5.512,-0.026 0.588,0.062 1.092,0.302 1.51,0.72 -1.418,0.05 -5.495,-0.944 -5.992,0.892 -0.333,1.229 -4.032,1.183 -3.798,-0.531 -1.233,0.756 -2.511,2.01 -3.132,3.328 -0.675,1.435 -0.985,2.282 -2.646,1.92 -1.088,-0.236 -2.12,-0.52 -2.419,-1.748 -0.151,-0.619 -0.208,-1.245 -0.549,-1.804 -0.628,-1.028 -1.056,-0.191 -1.751,-0.697 -2.237,-1.626 -2.334,-6.686 -1.366,-8.934 0.555,-1.289 1.482,-2.734 2.756,-3.417 1.052,-0.563 3.631,0.367 4.729,0.766 0.779,0.282 2.271,-0.37 2.969,-0.692 1.44,-0.667 1.839,0.353 3.234,0.565 1.552,0.235 3.62,-0.605 5.28,-0.564 1.987,0.05 3.264,0.162 4.854,1.31 1.977,1.428 8.121,0.465 9.731,-1.418 1.106,-1.293 1.495,-2.742 2.826,-3.938 1.433,-1.288 1.367,-3.47 2.913,-4.622 -0.544,-0.344 -0.854,-0.944 -0.65,-1.584 -0.566,0.146 -1.361,-0.254 -1.838,0.151 -0.717,0.607 -0.676,1.793 -1.658,2.094 -1.499,0.459 -0.546,0.921 -1.254,1.859 -0.408,0.541 -1.41,0.332 -1.696,1.073 -0.717,1.856 -3.561,2.187 -5.139,1.846 -1.337,-0.289 -2.918,-0.597 -4.292,-0.528 -0.772,0.039 -1.511,0.894 -2.146,0.638 -1.99,-0.802 -3.397,-1.183 -5.531,-1.405 -1.097,-0.114 -1.736,-0.437 -2.902,-0.319 -1.33,0.134 -1.728,-1.68 -2.401,-1.667 -0.869,0.016 -4.097,-1.573 -4.282,0.233 -0.252,2.461 -2.484,4.805 -4.289,2.223 -0.172,0.807 -0.435,1.42 -1.06,1.971 -0.845,0.745 -0.673,1.896 -1.494,2.559 -1.567,1.263 0.478,3.463 -1.127,4.61 -0.133,-0.566 -0.539,-0.95 -1.149,-0.79 0.396,1.528 1.579,1.154 1.095,2.916 -0.441,1.606 1.026,3.078 0.565,4.715 -0.333,-0.61 -0.472,-1.314 -1.011,-1.801 -0.9,2.437 -2.817,3.71 -2.95,6.48 -0.06,1.237 0.049,2.556 -0.04,3.761 -0.104,1.412 -1.424,2.327 -1.52,3.838 -0.126,2.001 -3.397,2.924 -2.887,4.595 0.287,0.941 1.041,0.353 0.229,1.686 -0.702,1.154 0.221,3.653 0.688,4.841 0.649,-0.73 2.326,-1 3.235,-1.049 1.989,-0.107 0.412,1.822 1.059,2.978 1.073,1.92 0.815,3.562 0.475,5.773 -0.285,1.81 -0.747,4.628 -1.964,6.046"
       stroke="#000000"
       stroke-width="0.5" />
       </svg>