<svg>
    <path
       id="cochin"
       style="fill:#54bff9;fill-opacity:1"
       d="m 646.65084,384.37941 c -0.75,0.566 -3.96697,1.59784 -4.51597,2.28884 -0.509,-0.988 -1.846,-0.956 -1.94,-2.232 -0.095,0.505 -0.19,1.009 -0.289,1.513 -0.115,-0.406 -0.282,-0.79 -0.5,-1.152 -1.83663,-1.67808 -0.75402,1.40087 -2.381,1.08 0.263,0.805 1.422,-0.417 1.688,0.72 0.34,1.451 -2.248,0.74 -2.768,0.72 0.897,0.728 2.371,0.587 2.95,1.729 -0.869,0.132 -0.918,1.503 -1.916,0.805 -0.662,-0.463 -1.101,-1.856 -1.974,-1.957 0.559,0.655 3.338,2.954 2.88,3.672 -1.772,-0.721 -2.702,-2.48 -4.17,-3.6 0.316,1.153 5.591,4.695 3.225,5.987 -1.554,0.849 -4.187,-3.283 -5.314,-3.972 0.768,1.263 3.607,3.212 3.122,4.893 -0.376,1.3 -2.584,1.655 -3.629,2.178 -1.764,0.883 -1.824,2.202 -2.904,3.611 -0.735,0.961 -2.648,2.555 -3.859,1.414 0.371,-0.47 0.852,-0.758 1.44,-0.864 -0.135,-0.3 -0.231,-0.612 -0.29,-0.937 -0.305,0.142 -0.618,0.262 -0.94,0.36 0.048,-1.815 -0.328,-3.617 -0.341,-5.433 -0.006,-0.895 0.058,-1.812 0.341,-2.667 0.19,-0.576 1.464,-3.022 1.73,-1.261 -0.006,-2.827 -5.396,-2.415 -4.89,-4.823 -0.104,0.426 -0.297,0.402 -0.58,-0.072 0.482,-0.166 0.781,-0.937 1.323,-0.937 0.576,0 1.222,0.156 0.657,-0.012 -1.932,0.421 -2.05,0.947 -3.059,0.516 -0.993,-0.423 -3.031,-0.719 -3.53,-1.729 0.271,1.068 -1.2,1.8 -1.974,1.104 -1.023,-0.922 -0.089,-1.119 0.509,-1.752 0.698,-0.741 -0.152,-2.717 -0.799,-3.234 -1.156,-0.926 -1.288,1.493 -1.477,2.083 -0.711,-0.599 -1.151,0.273 -1.806,-0.048 -0.991,-0.487 -0.391,-2.059 -0.629,-2.875 -0.1164,-0.398 -1.28067,-2.87629 -1.77318,-3.98776 -0.42568,-0.96068 29.18024,-8.30331 29.00988,-8.71356"
       stroke="#000000"
       stroke-width="0.5" />
       </svg>