<svg>
    <path
       id="constantinople"
       style="fill:#8f8f8f;fill-opacity:1"
       d="m -3.205658,98.01249 c 1.379,-0.497 7.975528,0.68076 9.441528,0.79776 2.168,0.173 3.327,1.146 5.33,-0.379 1.548,-1.18 2.624,-2.131 4.609,-2.475 1.813,-0.314 3.756,-1.323 5.524,-0.398 1.125,0.589 2.749,1.064 4.013,0.832 0.434,-0.079 2.07,1.68 2.694,1.93 0.843,0.337 2.329,-0.34 2.477,0.876 0.158001,1.313 0.344001,2.322 -1.248,2.199 -1.59,-0.123 -2.321,1.041 -2.962,2.353 -0.552,1.13 0.045,2.394 -0.638,3.632 -0.21,0.379 -0.454,0.741 -0.68,1.111 -0.364,0.599 -1.104,0.194 -1.479,0.905 1.959,0.445 2.332,1.859 3.512881,3.19415 0.449881,-0.0288 0.281121,1.01685 0.711121,1.37285 0.732,0.606 -0.366,0.816 0.151,1.481 1.927,2.481 4.178,3.559 7.238,4.477 1.181,0.354 0.199,2.077 -0.532,2.348 -1.4,0.518 -3.431999,-0.838 -4.856,-0.921 -0.705,-0.041 -1.136,0.45 -1.718,0.748 -0.715,0.366 -1.463,-0.269 -2.284,-0.023 -0.993,0.298 -1.402,1.368 -2.086,2.113 -1.111,1.21 -2.608,1.552 -3.888,2.486 -1.086,0.792 -2.133,3.002 -3.31,3.457 -0.355,-1.402 0.238,-2.86 1.619,-3.351 0.248,-0.088 2.896,-0.889 2.023,-1.607 -1.415,-1.167 -3.929981,1.96 -4.618981,-0.874 l -0.680019,10e-4 c 0.422,-1.15 -4.856,-1.383 -5.675,-1.707 -1.593,-0.63 -1.568,-0.312 -2.995,0.627 -0.984,0.647 -1.896,-1.194 -2.827,-0.731 -1.306,0.65 -1.356,2.394 -3.339,1.67 -1.485,-0.542 -5.375111,-0.095 -4.990111,0.89399"
       stroke="#000000"
       stroke-width="0.5" />
       </svg>