<svg>
    <path
       id="davao"
       style="fill:#dccfbe;fill-opacity:1"
       d="m 769.93687,368.37725 c 0.568,1.532 1.226,2.841 2.521,3.888 0.722,0.583 2.927,2.916 3.819,2.521 -0.304,0.713 -0.27,1.659 -1.16,1.943 0.442,0.363 0.803,0.795 1.08,1.296 -0.767,-0.844 -1.213,0.229 -1.839,0.593 -0.97,0.563 -2.492,-1 -2.911,-1.744 -0.721,0.887 0.645,5.152 1.73,5.615 -0.191,-1.934 2.081,0.562 2.133,1.548 0.133,2.513 -0.325,4.446 2.337,5.652 -0.114,-0.759 -0.505,-1.451 -0.51,-2.231 0.421,0.469 1.888,0.508 2.029,-0.29 0.078,-0.443 -1,-2.532 -1.268,-2.979 -0.614,-1.03 -0.801,-0.895 -0.901,-2.274 -0.065,-0.893 0.13,-2.297 -0.65,-2.952 0.598,-0.155 2.289,1.494 2.305,1.476 0.66,-0.774 3.139,0.212 3.815,0.612 -0.546,-0.639 -0.923,-1.537 -1.8,-1.8 1.133,-0.867 -1.138,-3.423 -1.241,-4.453 -0.11,-1.085 0.378,-2.05 -0.217,-2.974 -0.38,-0.59 1.05,-0.418 -0.099,-1.109 -0.623,-0.375 -1.418,-0.098 -1.36,-1.081 0.073,-1.262 -1.022,-1.306 -1.925,-1.504 -0.977,-0.214 -1.291,-0.23 -2.32,0.101 -1.183,0.378 -2.482,-0.673 -3.568,0.146 m -0.57,19.584 c 0.19,-0.24 0.38,-0.479 0.57,-0.72 -0.668,0.011 -0.573,0.195 -0.57,0.72 m -0.369,4.536 c -0.163,2.803 4.839,-0.383 5.479,-0.145 -0.395,-1.444 -0.448,-4.291 -3.035,-3.583 -0.908,0.248 -3.694,2.932 -2.444,3.728 m -3.591,-2.448 c 0.104,1.506 -0.364,2.977 -0.51,4.464 2.061,0.544 1.624,-4.352 2.455,-5.322 1.029,-1.203 2.119,-2.178 2.298,-3.852 0.213,-1.993 -0.422,-3.956 -0.362,-5.946 -0.997,0.205 -1.279,3.326 -1.448,4.085 -0.515,2.302 -1.959,4.264 -2.433,6.571 m -0.15,-21.672 c 0.27,0.527 0.63,0.983 1.08,1.368 -0.145,-0.972 -0.415,-2.162 -1.37,-2.664 -0.218,0.503 -0.121,0.935 0.29,1.296 m -3.24,4.32 c -0.023,0.264 -0.047,0.527 -0.07,0.791 1.013,-0.693 1.771,-3.42 2.995,-1.995 0.496,0.578 1.042,1.114 1.483,1.737 0.559,0.789 1.71,0.83 2.292,1.626 1.109,-2.146 -1.817,-3.451 -2.804,-4.625 -0.44,-0.523 -1.126,-1.101 -1.644,-1.519 -0.31,-0.251 -2.023,-1.063 -2.393,-1.055 0.265,0.687 0.048,2.505 0.349,2.909 0.744,0.998 -0.136,1.049 -0.208,2.131 m -2.45,22.248 c 0.686,0.493 1.67,0.479 2.24,1.151 0.481,0.567 0.228,1.471 0.803,1.982 0.792,0.705 1.835,-0.137 2.231,-0.838 0.736,-1.305 -0.618,-2.194 -0.967,-3.334 -0.645,-2.099 0.169,-5.19 0.828,-7.236 0.501,-1.558 2.153,-3.65 -0.009,-4.791 -0.713,-0.376 -1.637,-0.495 -2.389,-0.155 -1.292,0.585 -0.751,1.712 -1.078,2.779 -0.211,0.688 -0.885,0.91 -0.635,1.729 0.278,0.91 0.671,1.904 0.306,2.857 -0.549,1.436 -3.195,0.518 -3.156,2.121 0.034,1.343 1.081,2.689 1.826,3.735 m -3.81,19.728 c -0.371,2.035 2.42,2.893 2.632,0.514 0.077,-0.866 0.452,-3.26 1.114,-3.524 0.527,-0.209 0.906,-3.364 2.107,-2.436 0.864,0.668 0.51,2.104 1.196,2.854 0.19,-1.267 0.646,-0.651 1.01,0 0.282,-0.781 0.046,-1.861 1.011,-2.232 0.431,0.52 0.348,1.147 -0.15,1.584 0.991,0.036 1.614,1.261 2.6,1.08 -0.301,-0.436 -0.673,-1.028 -0.649,-1.584 0.013,-0.316 0.708,-0.28 0.79,-0.576 0.217,-0.779 -0.647,-0.597 0.357,-1.353 0.617,-0.464 1.226,0.352 1.693,0.645 1.589,0.996 3.024,1.271 3.557,3.377 0.288,1.145 -1.263,2.217 -1.385,3.44 -0.123,1.224 0.535,2.908 0.794,4.116 0.399,1.863 2.02,2.981 3.613,3.797 0.731,0.375 3.328,2.062 4.117,1.366 0.632,-0.557 0.297,-1.873 1.491,-1.811 0.118,0.006 -0.232,5.561 1.467,4.389 1.181,-0.814 2.207,-3.612 2.024,-4.976 -0.257,-1.918 -1.715,-2.722 -2.459,-4.27 -0.449,-0.935 1.825,-6.168 2.635,-5.78 0.623,0.298 2.002,3.261 2.274,3.982 0.266,0.702 0.114,1.435 0.176,2.161 0.09,1.06 0.949,1.767 1.104,2.796 0.001,-1.672 0.749,-3.84 -0.511,-5.256 0.621,-0.29 1.127,0.081 1.37,0.648 -1.069,-0.95 0.516,-1.902 1.037,-2.614 1.008,-1.375 0.299,-3.385 0.028,-4.856 -0.222,-1.208 -1.806,-1.213 -1.176,-2.525 0.365,-0.76 0.393,-2.717 -0.97,-2.101 2.318,-1.986 -1.923,-2.633 -1.869,-3.673 0.031,-0.608 1.214,-0.891 1.446,-1.488 0.416,-1.069 -0.774,-1.498 -1.087,-2.327 -0.147,-0.391 0.286,-2.259 -0.438,-1.885 -0.914,0.471 -1.083,0.138 -1.577,-0.569 -0.585,-0.838 0.006,-1.321 -1.274,-1.712 -1.41,-0.431 -1.666,-1.705 -2.899,-2.242 -0.745,1.625 0.565,3.763 1.056,5.298 0.111,0.351 0.623,1.645 -0.016,1.83 -0.833,0.24 -1.979,0.035 -2.341,-0.864 -0.677,2.121 0.048,2.292 -1.94,0.91 -1.871,-1.3 -0.246,3.828 -1.795,4.041 -0.995,0.137 -1.189,-1.064 -2.107,-0.651 -0.955,0.431 -0.691,2.183 -0.992,3 -0.361,0.982 -1.793,0.544 -2.506,1.124 -0.414,0.337 -1.127,1.134 -1.697,1.159 -0.588,0.026 0.73,-0.916 0.611,-0.836 0.745,-0.496 0.901,-0.772 0.713,-1.718 -0.146,-0.734 -1.153,-4.267 -2.376,-2.562 -0.187,-0.589 -0.548,-1.337 -1.3,-1.297 0.42,1.981 -2.057,1.221 -2.639,2.297 -0.688,1.27 -0.1,2.438 -1.682,2.959 -1.6,0.527 -3.966,0.067 -4.723,2.096 -0.324,0.87 -0.122,1.879 -0.222,2.783 -0.129,1.196 -0.751,2.391 -1.243,3.472 m -3.6,-39.96 c 2.336,0.414 1.775,2.229 1.731,4.019 -0.031,1.298 0.182,2.221 -0.168,3.52 -0.363,1.354 0.424,2.644 -0.053,3.981 1.34,0.284 2.196,-2.016 3.657,-2.016 0.951,0 2.723,-1.387 2.447,-2.333 -0.241,-0.828 2.796,-1.137 2.386,-2.317 -0.545,-1.565 0.57,-3.722 -1.94,-1.901 0.616,-0.673 -0.31,-1.585 -1.047,-1.421 -0.684,0.152 -1.129,1.013 -1.715,0.39 -0.663,-0.704 -1.135,-1.509 -2.046,-1.938 -0.857,-0.403 -1.965,-0.573 -2.532,-1.423 -0.379,0.409 -0.619,0.889 -0.72,1.439 m -32.69,27.576 c -0.386,0.693 -0.252,1.49 -0.43,2.231 1.96,-2.429 4.747,-3.229 6.479,-5.976 0.645,-1.021 6.15,-4.616 4.17,-6.264 1.169,0.289 0.37,-0.516 0.441,-1.225 0.087,-0.864 1.477,-0.983 2.08,-1.063 1.033,-0.136 1.234,-0.538 1.405,-1.487 0.239,-1.323 1.195,-0.994 2.054,-1.554 1.808,-1.176 0.479,-2.33 -0.278,-3.686 -0.909,-1.628 0.562,-3.855 -0.802,-5.243 -0.876,0.764 0.194,3.678 -1.08,2.521 0.313,0.602 1.152,2.289 1.22,2.952 -0.739,-0.412 -1.594,-0.857 -1.87,-1.729 -0.015,0.913 0.459,1.645 0.737,2.478 0.28,0.837 -0.775,3.423 -1.237,1.627 -0.069,0.558 -0.372,0.742 -0.875,0.88 -0.389,0.106 -0.178,1.22 -0.285,1.496 -0.135,0.348 -0.842,-0.104 -1,0.216 -0.252,0.508 0.417,0.86 0,1.439 -0.189,-1.695 -0.907,0.266 -1.16,0.723 -0.421,0.762 -0.823,1.536 -1.411,2.188 -0.931,1.032 -1.416,2.441 -2.506,3.342 -0.434,0.358 -0.928,0.192 -1.361,0.515 -0.496,0.369 -0.523,1.018 -1.035,1.317 -1.452,0.852 -2.697,2.725 -3.256,4.302"
       stroke="#000000"
       stroke-width="0.5" />
       </svg>