<svg>
    <path
       style="fill:#ef7f72;fill-opacity:1"
       d="m 336.42687,270.88925 c -0.091,-1.698 1.774,-1.728 2.998,-1.728 1.444,0 0.732,-2.228 0.672,-3.024 0.977,0.486 3.097,0.585 4.134,0.272 1.896,-0.573 3.434,1.896 5.296,1.023 0.43,-0.202 3.122,-3.281 3.861,-2.045 1.211,2.021 2.491,1.203 4.139,-0.043 -1.604,-0.325 -0.195,-2.41 -0.766,-3.425 -1.011,-1.796 -2.112,-3.482 -3.284,-5.173 -0.645,-0.928 0.185,-3.03 -1.674,-2.474 -1.553,0.465 -3.36,-1.586 -3.205,-3.083 0.11,-1.061 0.471,-3.417 -0.479,-4.237 -1.544,-1.333 -4.304,-0.308 -5.062,-2.825 -0.548,-1.822 1.12,-3.662 2.109,-4.998 0.711,-0.959 1.093,-2.07 1.641,-3.124 0.385,-0.743 1.194,-2.414 2.288,-2.145 1.421,0.35 1.294,2.746 2.847,2.888 0.885,0.081 1.77,-0.582 2.535,-0.922 0.943,-0.419 1.895,-0.37 2.893,-0.508 2.312,-0.321 1.876,-2.194 3.193,-3.557 1.595,-1.648 0.646,-3.818 2.985,-5.146 2.139,-1.214 3.014,-2.725 3.675,-5.108 0.484,-1.742 0.016,-4.05 2.128,-4.769 0.721,-0.245 1.598,-0.406 1.995,-1.146 0.558,-1.041 -0.793,-1.275 -0.79,-1.8 0.004,-0.632 1.667,-2.858 2.044,-3.436 0.706,-1.077 2.426,-1.658 2.926,-2.828 -1.536,-0.03 -1.148,-1.474 -1.16,-2.521 -0.015,-1.271 -1.18,-2.227 -1.148,-3.318 0.054,-1.909 3.734,-2.27 4.792,-3.501 1.814,-2.114 -3.387,-2.319 -4.288,-2.649 -0.926,-0.339 -0.526,-1.712 -1.506,-2.243 -0.669,-0.363 -1.475,-0.357 -2.169,-0.672 0.294,-0.765 -0.031,-1.202 -0.688,-1.552 -0.7,-0.374 -2.708,-1.542 -2.168,-2.456 0.513,-0.866 0.881,-1.789 -0.12,-2.486 -0.614,-0.427 -1.634,-1.333 -0.75,-2.09 0.352,-0.301 2.419,-1.694 0.669,-1.85 -0.286,-0.026 -2.996,-0.048 -2.215,-1.034 0.979,-1.236 -0.322,-1.144 -1.092,-1.743 -0.96,-0.746 0.642,-2.7 1.269,-3.086 1.613,-0.993 3.297,-0.233 4.967,0.139 1.892,0.421 3.766,0.894 5.651,1.332 1.607,0.373 2.561,-0.628 3.986,-1.125 1.243,-0.433 2.553,-0.377 3.783,-0.771 0.384,-0.123 2.576,-2.353 2.408,-2.642 -0.456,-0.783 1.851,-1.98 2.471,-2.483 0.498,-0.403 1.038,-0.85 1.653,-1.065 0.516,-0.181 0.763,0.253 1.192,0.123 1.438,-0.434 0.962,1.42 1.655,2.277 1.044,1.29 1.396,2.965 2.476,4.233 1.247,1.463 3.754,1.616 5.315,2.766 0.529,0.39 1.263,1.123 0.529,1.71 -1.406,1.125 -1.036,1.302 -0.473,2.979 0.502,1.495 0.862,2.942 2.061,4.062 0.912,0.853 2.559,0.944 3.319,1.759 0.371,0.398 0.217,1.074 0.444,1.547 0.256,0.534 0.723,0.919 1.086,1.373 1.23,1.532 -0.126,1.837 -1.07,2.676 -0.836,0.742 -2.176,2.269 -3.033,0.342 -0.652,-1.466 -1.747,-1.661 -3.228,-0.558 0.52,0.592 0.713,1.266 0.917,2.005 0.229,0.827 1.038,1.244 1.575,1.841 1.154,1.281 0.825,2.724 1.875,3.837 0.622,0.659 -0.427,3.359 1.323,3.117 0.762,-0.105 0.499,-0.82 1.06,-1.013 0.88,-0.304 1.206,0.699 1.543,1.238 0.48,0.77 2.187,2.413 3.08,2.591 1.067,0.213 1.765,-0.474 2.66,0.544 0.543,0.618 1.442,0.389 2.017,0.888 0.389,0.337 0.435,0.947 0.545,1.408 0.185,0.774 1.067,0.782 1.713,1.066 1.773,0.783 3.61,1.141 4.953,2.71 -1.995,0.118 -2.478,2.939 -3.854,3.901 -0.132,0.092 0.113,1.508 -0.044,1.841 -0.563,1.187 0.254,1.692 0.032,2.812 -0.202,1.024 -1.938,2.104 -0.775,3.317 0.694,0.725 3.411,2.761 3.411,1.305 1.21,0.754 2.673,1.832 4,2.325 1.575,0.585 2.273,1.855 3.721,2.719 0.428,0.255 2.733,2.106 3.336,1.865 1.412,-0.565 2.793,0.592 3.994,1.209 0.512,0.263 2.256,0.29 2.534,0.631 0.968,1.187 1.102,1.509 2.794,1.852 0.89,0.181 2.049,1.105 2.932,0.451 1.178,-0.873 1.874,-0.183 3.189,0.396 -0.852,-2.261 4.805,0.036 5.193,0.154 1.558,0.475 0.548,2.536 1.982,2.868 1.229,0.284 3.095,0.903 3.853,1.975 0.607,0.858 1.861,-0.374 2.586,-0.435 1.775,-0.149 0.904,2.526 3.247,1.567 0.69,-0.283 3.714,0.761 4.378,1.16 1.71,1.025 2.099,0.7175 3.671,0.1915 -0.66885,0.16133 -3.64994,29.18252 -3.45177,30.80344 0.383,-1.892 -95.38723,20.35406 -96.14423,18.41706 -0.098,-0.252 -0.605,-3.564 -1.566,-2.337 0.33,-0.868 0.137,-0.893 -0.58,-0.072 0.89,-1.058 -0.646,-1.379 -0.386,-2.159 0.168,-0.506 0.306,-1.048 0.382,-1.575 0.112,-0.768 2.697,-1.252 3.174,-2.169 -1.889,1.415 -6.238,0.316 -3.31,-1.801 -0.995,0.443 -2.162,-0.255 -1.44,-1.367 0.618,-0.952 1.601,0.016 2.23,-0.937 -0.985,0.253 -3.048,-0.107 -3.601,-1.08 -0.063,0.491 -1.028,0.681 -1.01,0.576 -0.087,0.472 0.62,0.548 0.638,1.274 0.025,0.978 -0.67,1.273 -1.498,1.533 0.186,0.246 0.379,0.486 0.58,0.721 -0.578,-0.154 -0.998,0.18 -1.16,0.72 2.032,0.629 2.909,1.958 1.572,3.846 -0.475,0.669 -0.215,1.604 -1.137,1.951 -1.119,0.421 -2.127,1.166 -3.146,1.779 -1.802,1.083 -3.853,2.417 -6.032,1.705 -2.197,-0.717 -4.805,-2.778 -6.108,-4.672 -1.94,-2.817 -4.831,-4.587 -7.099,-7.06 -0.597,-0.651 -2.292,-2.866 -0.334,-3.139 0.534,-0.074 0.56,0.949 0.962,1.167 0.768,0.415 2.183,0.086 2.322,-0.904 0.755,1.065 4.253,-0.938 4.961,-1.656 0.614,-0.624 0.498,-1.591 0.939,-2.304 0.465,-0.749 1.668,-1.252 0.65,-2.16 -0.513,0.508 0.028,1.711 -0.967,1.656 -1.074,-0.06 -1.949,0.148 -2.988,0.5 -0.884,0.3 -1.231,1.124 -2.238,1.076 -1.227,-0.059 -2.447,-0.648 -3.517,-1.204 -1.067,-0.555 -2.276,-1.038 -3.245,-1.745 -0.773,-0.564 -0.828,-1.966 -1.748,-2.296 -3.111,-1.124 0.531,-3.533 1.453,-4.25 -1.659,-0.188 -2.746,2.985 -4.391,2.231 0.318,-0.496 0.342,-1 0.076,-1.517"
       id="delhi"
       stroke="#000000"
       stroke-width="0.5" />
       </svg>