<svg>
    <path
       id="east_africa"
       style="fill:#dccfbe;fill-opacity:1"
       d="m 77.796872,408.33725 c 0.143,-1.166 1.254,-1.783 1.258,-2.968 0.008,-2.028 1.435,-2.219 3.142,-1.929 1.516,0.258 2.83,0.74 3.955,-0.936 0.778,-1.157 0.267,-3.168 0.113,-4.439 -1.955432,-4.05041 -1.159206,-10.53687 1.200578,-14.47206 1.752225,-2.92201 5.075971,-3.96441 5.027422,-4.05694 -0.568,-0.55 0.349,-1.851 0.519,-2.405 0.333,-1.091 -0.401,-2.47 0.569,-3.359 l 9.635998,-18.931 -0.6252,-3.93911 c -0.523,-2.541 2.12921,-0.56778 1.81221,-3.13678 l -1.75701,-2.28411 c 1.206,-1.081 1.137,-2.777 1.571,-4.211 0.471,-1.556 1.124,-3.069 1.682,-4.597 0.512,-1.405 -0.938,-7.236 1.308,-7.549 0.448,-0.063 2.122,0.276 2.391,-0.173 0.728,-1.215 0.171,-2.148 1.61,-2.604 1.16,-0.367 2.499,-1.278 3.71,-1.756 1.786,-0.706 1.848,-2.542 3.129,-3.732 2.239,4.467 3.883,8.765 4.977,13.642 0.261,1.163 0.244,2.313 0.774,3.41 0.574,1.186 1.119,2.127 1.354,3.43 0.16,0.888 1.278,0.963 1.521,1.906 0.225,0.87 0.406,2.361 1.174,2.956 0.959,-0.681 -0.612,-3.266 0.39,-3.431 0.981,-0.162 1.564,1.07 1.63,1.8 0.076,0.855 0.687,2.313 1.507,2.692 1.159,0.536 1.89,-1.037 3.074,0.283 0.981,1.091 1.095,1.899 2.676,2.116 1.824,0.251 2.517,1.65 3.488,3.098 0.938,1.396 1.754,2.816 3.216,3.737 0.69,0.435 1.3,0.969 1.88,1.539 0.291,0.286 1.703,2.223 1,0.477 0.965,0.617 0.961,1.982 1.265,2.948 0.266,0.842 1.201,0.612 1.745,1.182 0.526,0.551 2.613,4.446 3.399,2.494 1.573,1.476 -0.624,2.157 -1.414,3.413 -1.377,2.192 -4.76001,1.87271 -6.05901,4.15471 -2.4858,3.32917 -3.15166,9.19666 0.55201,9.06229 1.37,-0.094 2.729,-0.75 4.055,-1.087 1.075,-0.273 1.90475,-1.51771 2.90875,-1.85071 0,0 1.12425,0.77371 2.03425,-1.52329 2.402,1.34 3.545,4.451 5.188,6.524 2.052,2.588 5.179,3.306 8.352,2.26 1.215,-0.4 2.788,-1.484 3.826,-2.25 1.833,-1.354 2.351,-1.126 4.607,-0.755 2.331,0.384 3.38,0.872 5.557,-0.486 1.099,-0.686 3.621,-3.244 5.037,-2.74 1.56,0.554 2.636,0.623 4.313,0.046 1.011,-0.348 1.969,-0.86 3.019,-1.093 1.202,-0.268 2.006,0.255 3.152,0.369 1.878,0.188 3.316,-0.926 4.94,-1.587 1.693,-0.689 3.619,-0.384 5.326,-1.251 1.421,-0.722 1.565,-2.578 2.773,-3.172 1.171,-0.577 4.953,0.426 4.488,2.116 -0.603,2.189 -1.009,3.524 -0.606,5.845 0.279,1.617 0.701,3.935 -0.712,5.175 0.94,0.353 1.717,0.134 1.51,-0.864 0.466,0.311 0.973,0.527 1.52,0.648 -0.312,1.551 -3.829,-0.574 -3.842,2.149 -0.01,2.224 0.177,4.5 -0.442,6.68 -0.528,1.862 -1.648,3.287 -2.701,4.85 -1.226,1.824 -1.083,4.526 -2.585,6.283 -0.583,0.682 -1.387,0.856 -1.791,1.756 -0.402,0.895 -0.054,1.905 -0.389,2.852 -0.766,2.16 -2.311,3.875 -3.387,5.865 -1.433,2.648 -1.549,5.563 -2.668,8.301 -1.137,2.783 -2.909,5.242 -4.541,7.747 -1.583,2.431 -2.632,5.247 -4.444,7.517 -2.012,2.521 -4.029,5.035 -6.08,7.524 -4.123,5.004 -8.315,9.071 -13.779,12.587 -2.289,1.474 -4.567,3.005 -6.479,4.961 -2.153,2.201 -4.615,4.374 -6.561,6.752 -1.926,2.354 -3.951,4.645 -5.854,7.008 -0.927,1.151 -1.738,2.388 -2.64,3.559 -0.558,0.724 -2.229,3.337 -2.526,1.813 0,2.476 -1.527,4.901 -3.02,6.77 l -4.97,5.548 c -0.135,-1.958 -0.944,0.285 -1.141,0.736 -0.403,0.926 -1.179,1.104 -2.063,1.229 -1.962,0.276 -2.753,2.009 -2.128,3.662 0.286,0.757 -1.098,2.947 -1.668,3.41 -0.972,0.789 -1.788,6.098 -2.87,5.644 0.472,2.056 -1.584,3.517 -1.94,5.399 -0.837,-0.609 -0.741,0.456 -1.44,0.291 -0.882,-0.208 -2.033,-1.714 -2.688,-2.265 -2.206,-1.854 -4.558,-3.53 -6.737,-5.416 -0.793,-0.685 -0.944,-1.399 -1.584,-2.11 -0.547,-0.607 -1.704,-0.488 -0.679,-1.62 1.449,-1.6 -0.74,-3.49 -2.076,-4.254 -4.782,-2.735 -9.331,-5.877 -14.070998,-8.707 -2.367,-1.413 -4.827,-2.84 -7.031,-4.499 -1.296,-0.974 -3.434,-3.179 -5.233,-2.88 m 0,0 c 0,-1.363 -0.045,-2.727 0.01,-4.09 0.045,-1.148 0.57,-2.612 0.313,-3.729 -0.443,-1.922 0.513,-4.436 1.762,-6.067 1.132,-1.48 1.971,-4.411 3.784,-5.126 0.87,-0.343 0.727,-0.515 0.68,-1.269 -0.072,-1.164 1.284,-1.724 1.581,-2.76 0.353,-1.231 -0.226,-2.437 -0.104,-3.672 0.109,-1.111 -1.178,-2.036 -0.561,-3.143 0.813,-1.459 -2.243,-3.402 -2.5,-4.633 -0.202,-0.977 -0.746,-1.806 -1.074,-2.736 -0.219,-0.409 -0.342,-0.844 -1.3115,-3.503 -0.9695,-2.659 -2.3585,-3.737 -2.0855,-4.52 0.263,-0.752 1.046,-1.4 1.58,-1.96 1.863,-1.955 4.146,-1.394 6.59,-1.394 1.402,0 1.265022,-2.42897 2.667022,-2.44397 0.879747,2.69146 3.114976,-1.80603 2.732976,-3.10703 -0.344,-1.172 -2.750998,-1.883 -5.364582,-3.75496 -2.613585,-1.87196 -1.759557,-5.91964 -4.909986,-9.81784 -3.15043,-3.8982 -3.78743,-5.4582 -5.04243,-6.4832 -0.919,-0.75 -2.017,-1.263 -3.195,-1.406 -1.095,-0.131 -2.609,-0.14 -3.192,-1.282"
       stroke="#000000"
       stroke-weight="0.5" />
       </svg>