<svg>
    <path
       id="egypt"
       style="fill:#dccfbe;fill-opacity:1"
       d="m -5.953219,202.48697 c 0.076,1.83 21.308091,1.39328 22.414091,1.06428 2.021,-0.601 3.677,0.069 5.685,0.271 2.197,0.22 4.305,0.709 6.432,1.276 0.899,0.24 1.042,1.218 1.955,1.5 0.811,0.25 1.428001,0.149 2.232001,0.064 0.54,-0.058 0.79,0.786 1.399,0.912 0.667,0.138 1.348,0.141 2.020999,0.208 2.163,0.214 3.607,1.571 5.636,1.91 1.962,0.328 3.838,-0.993 5.245,-2.193 0.73,-0.622 1.41,-1.298 2.079,-1.985 0.573,0.447 1.005,0.907 1.73,0.792 -0.414,-0.208 -0.324,-0.327 -0.87,-0.288 0.709,-0.376 1.417,-1.059 1.59,-1.872 1.225,0.732 2.377,-0.583 3.6,-0.574 -0.822,0.378 -1.611,0.848 -2.239,1.511 0.217,-0.128 5.179,-1.628 2.81,-1.8 1.753,-0.58 2.891,1.427 4.575,1.188 0.804,-0.114 1.562,-0.909 2.415,-0.611 0.793,0.276 1.167,1.425 1.87,1.871 -0.712,-0.498 -1.441,-1.592 -2.38,-1.655 0.278,0.746 0.232239,0.30166 1.446239,0.59166 1.32,0.315 -0.280239,2.49734 2.092761,9.89034 3.128,8.49 2.961,10.816 4.31,12.774 1.168,1.696 2.352,3.772 3.812,5.219 0.646,0.64 1.383,1.191 1.972,1.888 0.308,0.365 1.577,2.457 0.047,1.316 1.238,0.966 0.214,2.196 0.999,2.992 1.054,1.068 1.614,2.2 2.166,3.546 0.271,0.662 0.718,1.229 1.103,1.824 0.294,0.455 -0.29,1.035 -0.316,1.48 -0.036,0.595 0.936,1.478 1.201,1.991 0.609,1.174 1.273,2.32 1.888,3.492 2.019,3.85 4.057,7.632 5.968,11.541 0.748,1.529 1.847,2.624 2.786,3.998 0.874,1.279 2.406,1.675 3.216,2.976 -0.766,0.041 -1.539,-0.092 -2.229,-0.432 -0.505,2.089 0.22,4.501 0.805,6.51 0.372,1.28 -1.332,3.578 -2.757,3.596 -0.744,0.009 -1.624,-0.627 -2.051,0.36 -0.334,0.773 -0.498,1.657 -0.754,2.461 -0.294,0.929 -0.731,1.75 -1.757,1.989 -0.83,0.193 -2.594,-0.112 -3.035,0.84 -0.806,1.743 -0.191,3.271 -2.636,3.582 -2.316,0.294 -3.146,-2.025 -5.105,-2.44 -3.95,-0.838 -8.263,0.788 -12.301,0.094 0.112,-0.391 0.564,-1.218 0.285,-1.62 -0.703,-1.017 -1.242,0.827 -1.475,1.16 -0.933,1.334 -5.595,0.532 -7.089,0.532 H 38.697873 22.574872 c -2.38,0 -24.658504,2.40048 -26.997504,1.94148 m 73.072387,-81.42348 c 0.69,-0.06 3.726182,-1.334 3.364182,0.178 1.319,-0.838 2.799,-0.349 4.216,-0.776 1.248,-0.375 2.482,-0.803 3.483,-1.672 1.52,2.959 3.674652,11.17233 4.955652,14.22533 0.622,1.48 0.500283,3.02867 0.500283,3.02867 -1.537,1.955 -0.743,5.345 -1.721,7.661 -0.572,1.354 -0.548,2.198 -0.533,3.629 0.013,1.224 -1.543,2.408 -1.16,3.601 -0.743,-0.687 -1.737,-0.997 -2.557,-1.571 -1.041,-0.729 -1.769,-1.791 -2.482,-2.818 -0.903,-1.302 -3.544,-2.152 -3.161,-4.107 0.386,-1.97 -1.514,-3.336 -2.485,-4.724 -1.343,-1.917 -0.802227,-4.64959 -1.346227,-6.93559 z"
       stroke="#000000"
       stroke-width="0.5" />
       </svg>