<svg>
    <path
       style="fill:#dccfbe;fill-opacity:1"
       d="m 723.92687,273.04925 c 0.191,0.717 0.577,1.315 0.342,2.076 -0.193,0.624 -0.397,1.169 0.147,1.7 1.002,0.976 1.333,2.582 1.967,3.848 0.737,1.471 2.345,1.896 3.288,3.167 0.303,0.408 0.946,3.044 1.698,2.651 0.972,-0.507 0.4,-2.174 0.288,-2.985 -0.18,-1.308 0.191,-2.287 0.931,-3.354 1.768,-2.551 2.086,-7.293 1.882,-10.309 -0.042,-0.624 -0.455,-1.561 -0.25,-2.175 0.206,-0.617 0.532,-0.972 0.604,-1.652 0.165,-1.583 -0.377,-2.74 -0.377,-4.271 0,-0.792 0.784,-1.433 0.066,-2.078 -0.438,-0.394 -2.711,-2.193 -3.282,-1.623 -0.904,0.903 -2.704,1.127 -3.212,2.396 -0.523,1.309 -0.376,2.075 -1.309,3.197 -0.851,1.024 -1.042,2.491 -1.383,3.733 -0.5,1.832 -1.831,3.698 -1.4,5.679"
       id="formosa"
       stroke="#000000"
       stroke-width="0.5" />
       </svg>