<svg>
    <path
       style="fill:#dccfbe;fill-opacity:1"
       d="m 644.15787,309.40925 c -0.364,0.587 0.361,2.945 0.482,3.602 0.199,1.078 0.144,2.68 0.957,3.526 0.993,1.035 2.67,0.838 3.844,1.544 1.115,0.671 2.875,0.794 4.146,0.76 -0.492,-1.414 1.368,-2.25 1.926,-1.299 -0.383,-0.652 2.026,-2.611 2.416,-2.979 0.557,-0.523 1.266,-3.441 0.408,-3.786 0.931,-0.493 1.866,-2.961 1.66,-3.961 1.869,1.391 0.765,-2.215 0.477,-2.915 -0.48,-1.166 -3.834,-2.401 -2.427,0.25 -0.435,-0.541 -2.633,-1.426 -1.511,0.072 -0.647,-1.897 -2.648,-0.712 -3.239,0.145 -0.544,-1.225 -2.655,-1.066 -3.53,-0.36 0.164,0.268 0.334,0.531 0.51,0.792 -0.856,0.292 -1.394,-0.805 -2.16,-0.576 -0.995,0.297 -0.51,1.623 0.291,1.8 -1.785,0.494 -2.941,2.206 -4.25,3.385"
       id="hong_kong"
       stroke="#000000"
       stroke-width="0.5" />
       </svg>