<svg>
    <path
       style="fill:#ef7f72"
       d="m 409.54038,285.92981 c -0.29358,0.0883 58.1981,-14.14699 58.9646,-12.51518 2.66142,5.66622 9.9616,18.05662 9.73489,19.24762 -0.199,1.043 0.783,4.454 1.604,5.23 -0.506,0.391 -1.292,0.792 -1.535,1.425 -0.37,0.965 0.571,1.04 -0.582,1.957 -1.375,1.093 -1.895,3.2 -3.572,1.011 0.238,0.823 1.2,1.219 1.879,1.584 -2.101,1.051 -4.351,2.116 -6.699,2.447 0.74,-0.404 0.947,-2.2 -0.227,-1.795 -1.203,0.415 -2.271,2.151 -1.863,3.379 0.15,-0.464 1.255,-2.003 1.66,-1.224 -0.734,0.21 -1.861,2.127 -2.563,2.812 -1.577,1.537 -2.377,3.412 -3.474,5.302 -1.109,1.912 -2.413,3.809 -4.489,4.753 -1.781,0.81 -1.983,3.182 -3.735,3.981 1.162,0.699 -4.476,3.328 -5.103,3.893 -0.612,0.552 -1.263,1.356 -1.584,2.116 -0.518,1.227 1.12,1.539 0.572,2.94 -1.084,2.774 -4.37,2.534 -6.772,2.653 -0.978,0.049 -1.089,0.753 -1.309,1.585 -0.24,0.908 -1.203,2.523 -1.135,3.373 -0.774,-0.384 -0.791,-1.166 -1.08,-1.872 0.318,0.813 -0.183,1.566 -0.43,2.304 0.534,-2.436 -2.992,-1.055 -3.619,0.126 -0.92,1.731 -2.107,4.379 -1.424,6.31 0.562,1.588 1.212,3.312 1.235,4.938 0.04,2.786 0.585,4.997 1.357,7.707 -0.235,-0.468 -1.347,-2.709 -1.229,-0.864 -0.645,-1.322 -0.623,0.392 -0.134,0.692 0.628,0.384 -25.59566,-2.86235 -25.16666,-2.17735 z"
       id="hyderabad"
       stroke="#000000"
       stroke-width="0.5" />
       </svg>