<svg>
    <path
       id="iraq"
       style="fill:#8f8f8f;fill-opacity:1"
       d="m 111.42687,187.80125 c 3.851,-2.509 7.873,-4.743 11.844,-7.054 1.287,-0.75 2.614,-1.593 3.505,-2.818 1.282,-1.765 0.684,-3.481 0.637,-5.479 -0.04,-1.696 1.213,-4.515 0.394,-6.021 -0.75,-1.378 -1.909,-4.131 -0.539,-5.555 0.954,-0.993 2.641,-0.616 3.722,-1.653 0.844,-0.81 2.545,-2.147 2.658,-3.411 0.045,-0.512 0.548,-0.317 1.065,-0.474 0.854,-0.258 0.836,-1.097 1.227,-1.767 0.376,-0.646 4.219,0.051 5.002,0.27 0.681,0.19 1.326,0.493 2.021,0.636 1.143,0.236 1.484,-0.509 2.479,-0.688 2.307,-0.415 0.746,2.832 2.217,2.691 1.035,-0.1 1.497,-1.561 2.637,-1.518 1.447,0.054 1.194,2.412 1.829,3.263 0.301,0.404 0.845,0.333 1.096,0.839 0.306,0.618 0.166,1.338 0.622,1.905 0.891,1.106 3.083,2.337 2.296,4.155 1.606,-0.364 1.804,0.622 3.021,1.296 0.635,0.352 3.689,0.422 4.399,0.216 -0.261,1.124 -1.617,0.813 -2.086,1.682 -0.794,1.468 1.525,2.61 1.654,3.944 0.169,1.761 -1.983,-0.175 -1.921,1.61 0.027,0.804 -1.095,0.719 -1.317,1.476 -0.251,0.856 0.423,1.443 0.57,2.232 -0.544,-0.003 -1.048,-0.147 -1.511,-0.433 -0.125,0.721 -0.68,1.194 -0.079,1.874 0.607,0.688 1.019,0.998 0.721,1.977 -0.312,1.026 -1.192,1.278 -0.313,2.073 0.753,0.68 1.415,1.493 2.261,2.062 0.845,0.568 5.052,4.342 2.74,5.047 0.761,0.293 0.566,1.311 1.411,1.215 1.084,-0.123 1.979,0.431 2.839,1.018 1.646,1.122 3.226,3.354 5.387,3.136 0.943,-0.096 3.316,4.016 3.947,4.787 1.265,1.545 0.604,2.663 0.228,4.482 -0.18,0.869 -0.412,3.563 0.876,3.655 0.452,0.033 1.334,-0.439 1.688,0.012 0.457,0.579 0.256,1.9 0.376,2.605 0.297,1.746 1.395,2.329 2.472,3.349 0.809,0.766 1.386,2.351 2.017,3.175 l -3.032,3.165 c -0.952,-1.335 -2.306,0.929 -2.81,1.584 1.462,-0.194 3.089,0.374 3.45,1.954 0.44,1.921 1.883,3.305 2.53,5.245 -1.273,0 -4.45,0.663 -5.513,-0.038 -0.966,-0.638 -0.895,-2.186 -1.439,-3.1 -1.188,-1.993 -5.29,-1.468 -7.228,-1.686 l -1.793,0.349 c -2.854,0.08 -6.059,-0.458 -8.93,-0.674 -3.698,-0.279 -5.79,-2.608 -8.46,-4.907 -2.875,-2.476 -6.017,-4.629 -8.917,-7.076 -2.776,-2.342 -5.558,-4.841 -8.932,-6.295 -3.385,-1.46 -6.167,-3.514 -9.291,-5.432 -2.968,-1.822 -6.765,-1.458 -10.056,-2.168 2.271,-1.945 -0.646,-1.39 -1.255,-2.326 -0.17,-0.219 -0.188,-0.446 -0.057,-0.68 0.509,-0.584 0.005,-1.196 -0.313,-2.048 -0.707,-1.886 -1.447,-3.758 -2.046,-5.678"
       stroke="#000000"
       stroke-width="0.5" />
       </svg>