<svg>
    <path
       style="fill:#9c6bae;fill-opacity:1"
       d="m 609.2729,-1.31818 c -1.555,-0.893 -0.22103,46.70643 -2.15803,46.94443 -1.537,0.189 -2.464,1.193 -4.058,0.88 -1.853,-0.364 -3.144,-1.424 -4.771,-2.288 -3.347,-1.776 -6.186,-0.48 -8.893,1.69 -1.038,0.833 -1.103,1.652 -1.577,2.805 -0.68,1.653 -2.407,0.73 -3.747,1.059 -1.208,0.297 -3.182,0.334 -4.257,0.876 -0.78,0.394 -1.594,0.07 -2.334,0.441 -0.672,0.337 -1.17,0.916 -1.856,1.247 -1.164,0.563 -2.522,-0.077 -3.741,-0.102 -2.132,-0.043 -4.065,0.086 -6.134,-0.601 -3.209,-1.066 -5.957,0.221 -8.933,-1.804 -1.097,-0.746 -2.282,-1.081 -3.142,-2.148 -1.137,-1.413 -1.485,-1.874 -3.407,-1.924 -1.671,-0.043 -3.078,-0.182 -4.5,-1.132 -1.118,-0.748 -2.212,-1.739 -3.6,-1.918 -1.526,-0.198 -2.526,0.229 -4.069,-0.289 -1.871,-0.627 -4.379,-0.845 -6.301,-0.403 -3.713,0.854 -7.377,3.222 -11.27,1.843 -1.086,-0.383 -1.523,-0.832 -2.771,-0.95 -0.904,-0.085 -2.43,-0.601 -3.132,-1.196 -0.717,-0.607 -1.711,-0.591 -2.24,-1.421 -0.519,-0.814 -1.25,-1.273 -1.849,-2.013 -1.162,-1.437 -1.89,-4.022 -3.913,-4.391 -2.337,-0.424 -4.646,-0.467 -6.876,-1.325 -2.834,-1.092 -5.753,-1.004 -8.594,-1.891 -2.709,-0.846 -5.301,-2.028 -7.995,-2.87 0.188,0.723 0.617,2.682 -0.43,2.997 -1.451,0.437 -1.624,1.32 -1.011,2.619 -2.175,-0.725 -0.622,4.059 0.579,4.67 1.12,0.569 1.259,2.085 2.521,2.62 1.288,0.545 1.908,0.804 2.148,2.375 0.156,1.024 -0.192,2.712 -1.479,2.875 -1.22,0.154 -1.312,1.418 -2.46,1.66 -1.287,0.271 -2.9,-0.925 -4.215,-1.074 -1.831,-0.208 -3.563,-0.737 -5.366,-0.959 -1.172,-0.139 -1.94,0.125 -2.913,0.806 -0.412,0.289 -3.807,-0.758 -4.396,-0.85 -1.675,-0.261 -3.232,-0.753 -4.482,-1.945 -0.947,-0.902 -1.674,-2.15 -2.938,-2.654 -2.438,-0.973 -5.471,0.37 -7.839,-0.501 -1.051,-0.387 -0.514,-2.002 -1.905,-1.026 -1.584,1.11 -2.098,-0.987 -3.606,-0.957 0.669,1.423 -1.369,1.343 -2.219,1.41 -0.623,0.049 -1.125,0.106 -1.49,0.676 -0.772,1.208 -1.044,0.883 -2.32,1.293 -0.844,0.271 -1.331,0.758 -1.912,1.39 -0.654,0.711 -1.25,0.487 -2.114,0.795 -0.206,0.074 -2.016,0.794 -1.984,1.026 0.166,1.263 -1.221,0.724 -2.079,1.328 0.212,0.62 0.585,1.236 1.16,1.584 -1.083,0.403 -1.947,0.754 -3.101,0.937 0.148,0.237 0.291,0.477 0.43,0.72 -0.701,0.545 -1.521,0.23 -2.229,-0.072 0.135,1.379 -1.157,0.452 -2.105,0.302 -1.117,-0.177 -1.965,0.226 -2.041,1.375 -0.096,1.464 -3.214,2.473 -4.494,1.995 -0.954,-0.356 -0.738,-1.122 -1.987,-1.271 -1.225,-0.145 -1.815,-1.504 -2.722,-2.18 -0.718,-0.534 -2.083,-0.213 -1.692,-1.479 0.302,-0.98 -0.467,-1.191 -1.123,-0.594 -0.354,0.322 6.79491,-65.18922 6.64791,-64.71122 z"
       id="irkutsk"
       stroke="#000000"
       stroke-width="0.5" />
       </svg>