<svg>
    <path
       id="java"
       style="fill:#ffffff;fill-opacity:1"
       d="m 766.69687,563.0643 c 0.395,0.295 0.342,0.604 0.94,0.36 0.198,1.067 -1.772,1.406 -1.95,2.811 0.861,-0.266 1.733,-0.033 2.604,-0.199 1.135,-0.217 1.98,-1.431 3.132,-1.464 1.851,-0.053 2.484,-0.583 3.717,-1.958 0.795,-0.887 2.127,-2.009 2.461,-3.122 0.508,-1.692 4.077,-3.029 5.562,-3.525 1.551,-0.518 2.996,-1.574 4.639,-1.673 1.669,-0.1 2.346,-1.354 3.788,-1.954 0.83,-0.34505 5.916,-2.31905 3.839,-3.67605 -1.418,-0.928 -3.812,1.568 -5.322,1.201 -1.39,-0.337 -2.363,0.348 -3.789,0.219 -1.823,-0.165 -3.853,0.188 -5.563,0.878 -2.979,1.20405 -4.141,4.58205 -7.646,5.26205 -3.494,0.677 -5.38,3.768 -6.412,6.84 m -26.5,-10.22 c 0.77,-0.412 2.252,0.052 3.149,-0.049 0.827,-0.093 2.071,0.088 2.884,0.254 0.889,0.182 1.361,1.176 2.382,0.711 0.705,-0.321 2.385,0.298 2.105,-1.067 2.236,0.938 3.192,0.322 5.347,-0.464 1.44,-0.52505 6.486,0.188 5.743,-2.70605 0.995,0.191 0.878,-1.043 1.8,-1.069 -0.409,-1.19 -1.68,-2.965 -2.02,-0.65 0.455,-0.285 0.936,-0.334 1.439,-0.149 -1.002,1.151 -2.789,1.229 -3.546,2.64 -0.915,1.70805 -2.454,0.572 -3.418,-0.327 -0.914,-0.852 -2.043,0.556 -3.018,0.168 -0.515,-0.205 -0.478,0.203 -0.803,0.509 -0.509,0.481 -1.489,-0.357 -1.864,-0.628 -1.248,-0.901 -3.221,-1.463 -4.698,-1.809 -2.327,-0.544 -3.074,0.34 -5.007,1.303 -0.969,0.484 -1.6,0.471 -1.71,1.82 -0.056,0.69805 0.214,2.76805 1.235,1.51305 m -8.49,6.26 c 0.681,1.787 2.345,1.73 3.96,1.91 1.912,0.213 3.432,1.983 4.581,3.354 2.157,2.572 7.129,0.245 4.531,-2.63 -0.811,-0.896 -1.421,-1.641 -2.613,-1.643 0.056,0 -1.874,-2.309 -2.118,-2.528 -0.18,-0.162 -3.379,-0.111 -3.532,-0.013 -1.488,0.956 -3.557,-0.562 -4.809,1.55 m -7.49,-5.33 c 1.548,-0.799 3.077,-1.059 3.96,-2.72905 0.332,0.554 -0.424,1.70205 0.145,1.99805 0.611,0.317 1.038,0.084 1.602,-0.143 0.713,-0.288 1.295,0.132 1.994,0.235 -0.359,-0.479 -0.836,-0.745 -1.431,-0.8 1.375,-0.83105 3.349,0.727 3.74,-1.51005 -1.247,1.54705 -1.093,-1.318 -1.394,-1.917 -0.727,-1.452 -2.247,0.038 -2.206,1.127 -0.214,-1.084 -1.046,-2.927 -2.281,-1.557 -0.935,1.035 -1.715,-1.003 -2.191,-1.53 -0.696,-0.771 -3.564,-0.185 -2.736,1.105 1.013,1.577 2.343,1.952 3.898,2.842 -0.489,0.656 -1.805,1.011 -2.557,1.18005 -1.292,0.289 -1.445,-0.90305 -1.988,-1.72005 -1.267,-1.902 -5.234,-1.227 -6.554,0.281 -0.634,0.724 0.021,1.85405 -0.563,2.59205 -0.782,0.989 0.62,1.783 1.416,1.993 0.493,0.13 0.914,0.154 1.338,-0.174 0.785,-0.607 0.757,-0.207 1.774,-0.247 1.429,-0.057 2.596,-1.493 4.034,-1.026 m -11.52,-6.12005 c -1.038,0.52 -2.322,1.487 -2.195,2.81 0.102,1.053 -0.264,2.75605 -1.614,1.66005 -1.115,1.72 4.67,1.239 4.89,1.51 -0.477,-1.053 1.043,-3.07305 1.552,-3.92705 0.781,-1.31 -1.631,-2.428 -2.633,-2.053 m -14.11,-1.08 c -0.937,1.776 1.435,2.638 2.653,3.217 0.767,0.365 1.38,0.738 1.899,1.423 0.938,1.23805 -0.232,0.90805 -0.294,1.80205 -0.04,0.585 2.322,-2.08905 2.426,-2.12505 0.976,-0.346 3.427,-1.315 2.2,-2.606 -0.887,-0.934 -2.646,-2.251 -3.974,-1.521 -1.518,0.837 -3.416,0.861 -4.91,-0.19 m -58.1,-17.57 c -0.639,-0.496 -3.844,-1.09 -4.47,-0.5 -0.081,-2.038 -1.974,0.629 -2.23,1.3 -0.261,0.679 -0.295,3.95 -1.729,2.66 -0.243,1.075 -0.907,1.937 -1.3,2.95 -0.426,-1.01 -1.344,-0.734 -2.08,-0.28 2.321,1.126 5.061,-0.224 7.153,1.23 0.652,0.453 1.587,0.489 2.302,0.832 1.141,0.546 -0.455,1.381 -0.624,2.17 -0.456,2.13 5.67,1.76 6.807,1.964 2.188,0.393 4.008,1.991 6.191,2.554 0.689,0.178 1.634,0.411 2.313,0.062 0.725,-0.373 0.554,-1.009 1.595,-1.039 2.654,-0.078 5.336,0.55 7.806,1.371 3.057,1.015 6.009,2.65 9.143,3.367 1.302,0.298 3.16,0.024 4.326,0.593 1.202,0.586 2.229,0.049 3.539,0.175 2.68,0.258 5.672,1.924 8.128,0.241 2.004,-1.375 4.322,1.132 6.048,2.025 0.583,0.302 4.142,0.52 4.068,0.931 -0.134,0.74705 0.983,1.19605 1.588,0.90105 0.447,-0.219 -0.739,-1.71905 -0.877,-1.93105 -1.211,-1.862 0.258,-3.707 0.437,-5.623 0.112,-1.203 -1.082,-1.428 -1.951,-1.701 -1.488,-0.468 -1.949,0.181 -3.34,0.044 -1.315,-0.128 -3.104,0.826 -4.242,0.265 -0.723,-0.356 -2.795,-1.051 -3.129,-1.846 -0.286,-0.679 0.976,-3.895 -0.689,-2.483 0.328,-1.065 -0.593,-2.098 -0.51,-3.171 -0.972,0.497 -2.269,0.155 -3.311,0.255 -0.409,-0.044 -0.744,-0.227 -1.006,-0.548 -0.719,-0.623 -1.466,-0.155 -2.233,-0.566 -0.403,-0.216 -1.079,-1.891 -1.78,-1.05 -0.693,0.831 -2.086,0.688 -2.622,-0.252 -1.266,-2.224 -2.753,-2.496 -3.79,0.269 -0.35,0.931 -0.963,3.048 -2.383,2.581 -0.792,-0.261 -0.957,-0.675 -1.846,-0.614 -0.719,0.049 -1.47,0.237 -2.189,0.077 -1.408,-0.313 -2,-0.235 -3.363,-0.15 -0.789,0.05 -2.049,-0.99 -2.752,-0.608 -2.843,1.546 -3.454,-2.444 -4.539,-3.967 -1,-1.405 -0.817,-0.104 -1.721,-0.104 -1.062,0 -1.981,-1.537 -3.081,-0.987 -1.044,0.522 -1.761,-0.852 -2.404,-1.393 -1.057,-0.888 -1.852,-0.526 -3.02,-1.22 -0.213,1.01 -1.218,2.396 -2.233,1.216"
       stroke="#000000"
       stroke-width="0.5" />
       </svg>