<svg>
    <path
       id="kyoto"
       style="fill:#6e8d4e;fill-opacity:1"
       d="m 790.16687,185.64125 c -0.516,1.188 -1.895,1.487 -2.66,2.448 0.904,0.062 1.465,-0.768 2.229,-1.08 0.168,0.416 0.5,1.679 1.122,1.631 0.812,-0.062 1.127,0.526 0.028,0.745 0.818,0.271 0.817,2.497 1.917,2.351 0.969,-0.13 1.121,1.023 1.903,1.321 0.772,0.294 1.577,-0.167 2.229,0.504 -1.502,-1.042 -0.598,-3.903 0.013,-5.196 1.565,-3.316 4.304,-0.912 6.327,0.372 0.209,-0.76 -0.02,-1.547 0.21,-2.304 0.273,-0.903 1.128,-1.479 1.604,-2.269 0.452,-0.751 -1.469,-2.747 -1.523,-3.779 -1.678,0.348 -2.781,-0.803 -4.339,-1.083 -1.3,-0.233 -2.427,1.501 -3.371,0.939 1.323,1.177 0.665,1.979 -0.79,2.376 -2.087,0.57 -1.829,-0.833 -3.739,-1.152 -0.17,0.956 -0.126,3.853 -1.16,4.176 m -12.52,-2.592 c 0.112,-1.405 2.14857,5.64219 3.29557,5.23919 2.349,-0.824 3.78743,-5.79119 5.91443,-4.51919 -0.772,-0.602 -1.292,-4.361 0.141,-4.464 0.8,-0.057 1.183,0.98 1.898,1.19 0.514,0.15 2.859,-1.044 3.221,-1.406 0.006,0.369 0.164,0.59 0.475,0.662 0.206,-0.256 0.238,-0.549 0.096,-0.877 0.59,0.42 1.295,0.276 1.23,-0.576 0.815,0.489 1.5,-0.457 2.365,-0.141 1.254,0.458 2.12,-1.266 0.725,-0.794 1.346,-0.35 2.534,-1.208 3.909,-1.441 1.524,-0.259 2.687,1.169 4.062,0.902 1.024,-0.199 2.166,-1.17 2.922,0.162 0.626,1.104 -0.62,2.442 -1.533,2.896 0.784,0.589 1.436,1.407 1.336,2.448 -0.113,1.173 1.285,1.707 2.118,2.123 0.901,0.451 1.189,1.549 2.171,1.907 0.743,0.271 1.422,0.719 2.193,0.917 0.908,0.233 1.427,-3.785 1.592,-4.371 0.158,-0.558 0.057,-1.878 0.538,-2.29 0.942,-0.805 2.289,-0.138 3.302,-0.662 -0.91,-1.163 -1.59,-1.864 -2.952,-2.497 -1.661,-0.772 -1.056,-1.524 -1.078,-3.002 -0.011,-0.663 0.614,-1.923 1.208,-0.662 0.346,0.737 0.156,2.462 1.453,2.201 -0.455,-0.397 -0.576,-0.877 -0.36,-1.44 0.428,1.924 2.762,0.228 3.17,1.729 -0.553,0.145 -0.959,0.552 -0.94,1.151 0.27712,-0.0636 -13.217,-23.53 -13.217,-23.53 -0.499,1.545 2.231,3.377 1.879,5.375 -0.282,1.599 -0.992,2.583 -1.943,3.828 -1.585,2.076 1.731,3.283 1.62,5.038 -1.327,-1.097 -0.271,0.754 -1.58,0.288 0.499,2.343 -4.095,-0.339 -2.59,1.296 -0.436,-0.279 -1.442,-0.309 -1.556,-0.938 -0.125,-0.699 0.372,-1.771 -0.836,-1.432 -0.52,0.146 -0.965,0.473 -1.476,0.626 -1.26,0.378 -2.61,-0.013 -3.806,0.594 -0.84,0.427 -1.609,0.705 -2.547,0.833 -0.889,0.122 -2.736,-0.425 -3.413,0.03 -0.957,0.644 -1.337,0.185 -2.214,-0.311 -0.986,-0.558 -2.695,0.528 -3.604,0.885 1.602,1.795 -4.767,6.702 -5.239,8.068 -0.496,1.435 -3.452,0.174 -3.413,1.584 0.032,1.124 0.936,2.417 1.463,3.381"
       stroke="#000000"
       stroke-width="0.5" />
       </svg>