<svg>
    <path
       style="fill:#6e8d4e;fill-opacity:1"
       d="m 771.59687,188.23325 c -0.318,-0.253 -1.213,-0.254 -1.522,0.01 -0.412,0.351 0.692,1.432 0.888,1.634 0.641,0.659 1.578,0.694 2.389,1.018 0.629,0.251 0.723,1.268 1.266,1.659 -0.454,-0.231 -1.092,0.001 -1.51,-0.288 -0.47,-0.324 -0.553,-1.037 -0.939,-1.439 -1.392,1.082 1.6,2.191 1.66,3.312 0.219,-0.404 1.98,-1.893 2.314,-0.957 0.18,0.507 -0.064,1.385 0.868,1.18 1.033,-0.229 0.128,-2.938 -1.523,-1.879 0.534,-0.987 -0.312,-1.863 -1.01,-2.447 1.126,-1.612 3.45,1.627 4.118,2.569 0.999,1.41 1.938,3.321 0.946,5.09 -0.59,1.053 -1.397,0.784 -0.921,2.196 0.248,0.737 0.615,1.293 1.034,1.935 0.318,0.489 2.37,3.661 0.433,2.97 0.753,0.798 1.231,1.36 2.38,1.476 0.575,0.058 0.819,0.737 1.44,0.612 0.898,-0.181 0.238,-0.896 -0.155,-1.112 -0.883,-0.482 -1.61,-2.249 -0.943,-3.157 0.767,-1.046 2.285,0.897 0.598,0.381 0.302,0.855 1.028,1.435 1.431,2.231 0.49,0.971 0.285,1.922 0.22,2.952 1.113,-0.449 1.626,-1.52 2.59,-2.16 -1.988,-1.317 -0.621,-1.823 1.01,-1.008 1.147,-2.232 -0.837,-5.483 -0.674,-7.924 0.029,-0.437 -0.354,-2.277 -0.145,-2.63 0.656,-1.1 1.904,-2.297 0.169,-3.125 0.162,-0.246 0.332,-0.485 0.51,-0.72 -1.06,0.049 -1.14,-0.686 -1.78,-1.271 -0.783,-0.715 -2.046,-0.184 -2.83,-0.961 1.132,-0.545 1.434,-2.437 0.164,-3.021 -1.769,-0.814 -3.278,1.961 -4.974,-0.477 -0.974,-1.402 -0.295,-2.063 -2.172,-1.833 -1.324,0.162 -3.118,1.206 -2.168,2.883 -1.767,-0.065 -0.996,0.047 -2.15,1.296 -0.752,-1.728 -1.252,0.031 -1.012,1.005"
       id="kyushu"
       stroke="#000000"
       stroke-width="0.5" />
       </svg>