<svg>
    <path
       style="fill:#ef7f72"
       d="m 434.27473,358.98174 c 0.43874,0.63764 1.38014,1.55851 1.38014,1.55851 0.787,1.256 0.109,4.524 -0.092,5.883 -0.357,2.428 -1.79,4.274 -2.509,6.559 -0.561,1.779 0.278,4.356 -1.022,5.839 0.222,-0.216 0.462,-0.407 0.721,-0.575 0.808,0.945 0.816,2.296 0.806,3.468 -0.018,1.925 0.419,3.827 0.354,5.748 -0.508,-0.039 -1.012,-0.11 -1.51,-0.216 1.947,0.629 -0.043,0.318 -0.39,0.225 -0.724,-0.195 -1.779,-0.568 -2.225,0.321 -0.231,0.462 -0.594,1.022 -0.319,1.547 0.41,0.785 -0.743,1.551 -1.107,2.154 -0.708,1.17 -2.091,3.734 -0.078,4.588 0.522,0.222 1.178,0.157 1.692,-0.048 0.361,-0.145 1.116,1.161 1.347,1.365 -1.98,-2.047 -5.278,-0.768 -7.42,0.288 -2.787,1.373 -1.513,3.984 -2.854,6.098 -0.679,1.067 -2.011,1.801 -3.132,2.301 -1.766,0.788 -2.771,-0.006 -4.094,-1.198 -0.61,-0.551 -5.324,-5.521 -3.82,-5.904 -1.326,0.475 -1.839,-2.178 -2.309,-3.294 -0.667,-1.586 -1.381,-3.461 -0.932,-5.202 0.388,0.625 0.545,1.362 0.58,2.088 0.169,-1.735 -0.099,1.671 0.939,1.801 -0.357,-0.947 -0.084,-2.026 -0.51,-2.952 -0.364,-0.792 -1.156,-1.22 -1.22,-2.16 0.034,1.841 -0.579,0.057 -0.539,-0.339 0.093,-0.932 -0.444,-1.222 -0.875,-2.227 -0.768,-1.789 -1.382,-3.656 -2.067,-5.478 -0.258,-0.686 -4.465,-7.531 -4.229,-7.868 -2.65,-3.262 -4.483,-7.186 -5.396,-11.274 -0.324,-1.454 -0.509,-2.779 -1.031,-4.145 -0.347,-0.906 0.50902,1.17467 0.14002,0.28467 l 18.86189,-0.73464 z"
       id="madras"
       stroke="#000000"
       stroke-width="0.5" />
       </svg>