<svg>
    <path
       id="malaysia"
       style="fill:#dccfbe;fill-opacity:1"
       d="m 588.25669,360.70474 c -1.5405,2.413 -2.0835,3.385 -2.3885,4.983 -0.322,1.696 0.939,3.281 0.619,4.988 -0.127,0.677 -0.63,1.188 -0.969,1.758 -0.417,0.698 -0.153,1.543 -0.632,2.231 -0.901,1.298 -1.042,3.293 -1.371,4.807 -0.401,1.846 -0.671,3.178 -1.442,4.873 -0.275,0.605 0.305,2.268 -0.847,2.099 1.303,1.574 -0.079,4.487 0.745,6.39 0.393,0.905 0.975,1.508 0.521,2.428 -0.513,1.042 1.382,1.274 1.928,0.985 1.923,-1.018 3.105,-1.039 3.396,1.574 0.096,0.862 1.313,7.038 2.561,5.04 0.762,1.756 0.888,3.708 1.879,7.499 0.991,3.791 1.666,3.63 2.116,4.052 1.043,0.98 1.244,2.003 2.967,2.053 1.266,0.036 2.678,-0.466 3.791,0.385 1.225,0.936 1.21227,3.12354 2.67,3.639 2.9666,1.049 6.24522,4.71934 5.44849,6.11293 1.95419,1.39658 3.78419,2.92758 5.02019,5.33258 1.249,2.428 2.123,4.887 1.986,7.668 -0.053,1.069 -0.193,2.252 -0.397,3.303 -0.289,1.489 -0.02,1.601 0.429,2.94 0.669,2.003 -0.554,4.433 0.637,6.448 0.92,1.558 3.025,2.387 3.529,4.274 0.591,2.231 2.061,4.105 2.626,6.363 0.759,3.031 -2.675,1.37 -1.101,0.271 -0.603,0.022 -1.117,-0.327 -1.37,-0.864 0.107,0.208 0.671,2.235 -0.165,1.632 -0.841,-0.608 -2.808,0.733 -3.575,1.104 -0.81,-2.641 -4.021,-3.369 -5.938,-4.992 -0.495,-0.419 -0.871,-0.924 -1.344,-1.36 -0.757,-0.699 -1.961,-0.68 -2.798,-1.281 -0.842,-0.604 -2.181,-1.896 -2.646,-2.768 -0.321,-0.603 -0.819,-0.66 -1.417,-0.821 -0.928,-0.25 -1.345,-1.086 -2.091,-1.607 -0.711,-0.497 -0.563,-0.633 -0.178,-1.175 0.429,-0.604 -0.136,-1.837 -0.387,-2.404 -0.788,-1.778 -2.784,-3.004 -3.507,-4.803 -0.349,-0.866 -2.242,-1.346 -0.075,-2.046 -1.277,0.183 -2.556,-2.476 -2.217,-3.412 0.657,-1.816 -0.308,-3.773 -1.403,-5.126 -0.965,-1.19 -0.765,-4.93 -0.77,-6.438 -0.008,-2.205 -1.347,-3.95 -2.16,-5.903 0.396,-0.539 0.328,-1.529 1.22016,-2.27575 -0.55184,-1.66776 -0.13184,1.00124 -0.64084,1.69624 -0.11,-2.04 -5.207,-3.954 -3.17,-6.12 -1.716,1.03 -1.028,-1.643 -1.87,-2.159 0.088,1.049 -0.797,0.826 -1.179,0.187 -0.492,-0.825 -0.382,-2.077 -1.096,-2.764 -0.473,-0.455 -1.418,0.138 -1.511,-0.609 -0.084,-0.679 0.056,-0.929 -0.345,-1.496 -0.604,-0.854 -0.532,-0.789 -1.428,-0.96 -0.561,-0.106 -0.455,-1.027 -0.632,-1.414 -0.286,-0.627 -0.611,-1.593 -1.511,-1.368 -0.96,0.24 -0.563,1.117 -0.869,1.801 -2.407,-0.496 -1.926,-4.098 -1.651,-5.836 0.554,-3.5 1.295,-7.056 1.8579,-10.09394 -1.0391,-0.92495 -0.6001,-2.91495 -0.0531,-5.72695 0.547,-2.812 0.717,-4.303 0.42,-5.764 -0.141,-0.692 -0.566,-2.989 0.685,-2.985 -0.199,-0.333 -0.296,-0.693 -0.29,-1.08 -0.349,0.483 -0.858,0.859 -1.439,1.008 -0.179,-1.028 1.237,-1.588 -0.221,-1.439 1.667,-0.794 -0.775,-2.05 0.58,-2.809 -0.597,0.158 -1.1,-0.151 -1.3,-0.72 0.395,-0.059 0.755,-0.203 1.08,-0.433 -0.652,-0.352 -1.103,-1.133 -0.069,-1.367 -0.889,-0.295 -0.352,-1.159 -0.486,-1.959 -0.224,-1.33 -0.728,-2.728 -1.24,-3.973 -0.539,-1.309 -1.333,-2.562 -1.968,-3.831 -0.604,-1.209 -0.661,-2.669 -1.486,-3.773 0.382,1.029 0.856,3.382 0.07,4.319 0.277,-0.853 -0.456,-1.616 -0.528,-2.437 -0.069,-0.774 -0.092,-2.042 -0.271,-2.747 -0.17,-0.669 -2.918,-5.397 -1.221,-4.464 -0.07,-0.286 -0.19,-0.55 -0.359,-0.792 -0.24,0.144 -0.48,0.288 -0.721,0.432 -1.239,-3.095 -0.962,-6.559 -2.096,-9.643 -0.22,-0.597 -0.754,-0.921 -1.017,-1.473 -0.234,-0.492 0.034,-1.071 0.006,-1.587 -0.05,-0.944 -1.23645,-2.06497 5.5e-4,-2.55697 -0.796,0.127 -1.67855,-0.045 -2.27255,-0.82203 -0.84731,-1.10965 -2.20662,-3.48191 -2.71579,-4.79608 -0.14104,-0.364 11.23255,-5.90644 11.21043,-6.30164"
       stroke="#000000"
       stroke-width="0.5" />
       </svg>