<svg>
    <path
       id="manila"
       style="fill:#dccfbe;fill-opacity:1"
       d="m 738.90687,360.09725 c 0.154,0.414 1.751,1.692 2.13,1.991 1.613,1.274 1.217,2.934 2.389,4.274 0.514,0.588 3.993,6.938 4.767,3.239 0.164,-0.784 0.644,-1.448 0.796,-2.232 0.15,-0.778 -0.581,-1.471 -0.581,-2.25 0,-1.86 -0.938,-3.017 -2.196,-4.271 -1.015,-1.017 -6.339,-1.998 -7.305,-0.751 m -6.909,-23.113 c -0.323,1.593 0.957,1.391 1.116,2.294 0.243,1.383 0.348,3.162 1.043,4.381 0.67,1.174 1.017,2.204 1.226,3.516 0.127,0.795 1.399,2.547 1.225,0.753 1.342,0.504 0.572,3.118 2.127,3.584 2.294,0.688 0.481,-2.257 0.533,-3.224 0.581,0.212 5.333,1.771 3.49,3.086 -0.707,0.504 -1.327,1.115 -1.964,1.701 -1.021,0.939 0.021,2.794 0.124,3.997 0.612,-0.073 0.852,-0.437 0.58,-1.009 1.296,0.021 1.89,0.74 1.659,2.017 0.422,-1.496 1.363,-0.183 1.08,0.576 0.738,-0.122 1.825,0.334 2.436,-0.277 0.521,-0.522 0.666,-1.318 1.261,-1.767 0.185,-0.139 1.266,-0.97 1.53,-0.759 0.904,0.724 2.11,1.083 2.941,1.875 1.099,1.046 3.193,2.474 3.493,4.023 0.1,0.519 1.013,1.276 1.219,0.366 -0.011,-0.491 -0.146,-0.95 -0.401,-1.379 -0.1,-0.241 -1.172,-1.691 -0.599,-1.508 -1.151,-0.723 -0.851,-2.273 -1.659,-3.239 1.554,-0.246 3.011,1.626 3.759,2.695 1.013,1.446 2.738,1.532 3.605,3.314 0.227,0.468 -0.297,1.374 0.386,1.521 0.741,0.159 1.364,0.686 2.043,1.012 0.542,0.261 1.014,1.015 1.634,0.688 0.451,-0.237 1.12,-0.925 1.683,-0.807 -0.115,0.884 -1.742,1.279 -1.035,2.308 0.128,0.186 1.472,2.115 1.829,1.163 0.555,-1.479 -0.043,-6.612 -2.813,-4.694 -0.31,-0.609 0.011,-1.016 -0.134,-1.61 -0.184,-0.752 -1.271,-1.835 -1.916,-2.207 -1.711,-0.986 1.9,-1.95 2.84,-1.44 -0.163,-1.06 -1.879,-1.486 -2.745,-1.565 -1.476,-0.136 -1.724,-1.385 -2.945,-1.603 -0.307,1.002 1.567,2.461 0,3.024 -1.147,0.412 -1.485,-2.342 -1.992,-3.2 -1.031,-1.75 -5.363,-3.313 -5.277,-0.04 -0.175,-0.298 -0.365,-0.586 -0.57,-0.864 -0.972,0.9 1.006,1.464 0.45,2.095 -0.939,1.068 -2.865,-0.383 -3.55,-1.086 -0.614,-0.631 -3.257,-5.141 -1.301,-5.257 -1.774,-1.237 -3.611,-4.797 -2.8,-6.84 0.553,-1.393 -0.152,-2.662 0.351,-3.888 0.621,-1.518 2.652,-1.619 3.68,-2.736 -0.118,0.409 -0.238,0.817 -0.36,1.225 0.867,-0.986 0.593,-2.143 0.995,-3.311 0.614,-1.78 1.432,-3.69 1.095,-5.617 -1,0.473 -0.544,-0.909 -0.869,-1.369 -0.9,-1.271 -1.942,-1.312 -2.494,-3.061 -0.564,-1.795 -0.519,-3.185 0.23,-4.872 0.389,-0.875 -0.746,-3.274 -1.534,-1.997 -0.313,0.507 -0.369,1.625 -1.228,1.469 -0.52,-0.095 -1.643,-0.693 -2.105,-0.106 -0.277,-0.601 -0.856,-1.025 -1.399,-1.362 -1.089,-0.675 -2.507,-1.688 -3.798,-1.26 -0.557,0.185 -1.163,-0.118 -1.717,-0.167 -0.517,-0.047 -0.118,0.701 -0.605,0.701 -1.385,0 -0.513,0.765 -0.54,1.584 -0.05,1.464 -0.508,3.266 -0.72,4.752 -0.387,2.704 1.655,5.093 1.092,7.969 -0.456,2.332 0.506,4.072 0.819,6.243 0.39,2.691 -3.71,-0.898 -4.001,-2.044 -0.908,0.455 -0.82,1.436 -0.503,2.233"
       stroke="#000000"
       stroke-width="0.5" />
       </svg>