<svg>
    <path
       style="fill:#ebe084"
       d="m 421.81687,52.58525 c 1.701,0.145 1.028,-0.976 1.388,-1.982 0.66,-1.851 4.471,0.68 4.303,-1.042 0.709,0.303 1.528,0.617 2.229,0.072 -0.139,-0.243 -0.281,-0.482 -0.43,-0.72 1.272,-0.2 1.876,-0.481 3.101,-0.937 -0.575,-0.348 -0.948,-0.964 -1.16,-1.584 0.317,-0.224 2.426,-0.43 2.204,-1.002 -0.285,-0.738 0.693,-0.736 1.209,-1.046 0.696,-0.418 1.809,-0.236 2.371,-0.71 0.81,-0.683 1.235,-1.438 2.306,-1.782 0.793,-0.255 1.541,0.044 2.017,-0.769 0.362,-0.619 0.605,-1.046 1.346,-1.153 0.852,-0.123 3.405,0.114 2.667,-1.458 0.959,-0.019 1.996,1.662 2.917,1.293 0.249,-0.1 1.126,-1.001 1.439,-0.656 0.681,0.75 0.872,1.436 2.054,1.461 1.555,0.034 3.108,0.318 4.657,0.261 1.715,-0.064 2.887,-0.129 3.962,1.349 2.037,2.799 4.691,3.242 7.857,3.958 1.716,0.389 2.515,-0.468 4.063,-0.477 0.146,0 1.528,-0.053 1.696,-0.007 0.659,0.18 1.669,0.959 2.339,0.86 0.805,-0.119 2.635,-0.251 3.401,0.04 1.218,0.464 2.808,2.054 3.991,0.686 0.838,-0.969 0.887,-0.843 2.03,-1.106 1.095,-0.251 1.237,-2.191 1.183,-3.06 -0.076,-1.193 -0.848,-1.813 -1.864,-2.247 -1.563,-0.667 -2.029,-2.073 -3.342,-2.992 -0.939,-0.658 -2.155,-5.112 -0.033,-4.405 -0.482,-1.021 -0.667,-2.115 0.653,-2.512 1.311,-0.394 1.046,-2.109 0.787,-3.104 1.609,0.503 3.022,1.348 4.699,1.662 1.722,0.324 3.215,1.382 4.95,1.578 1.77,0.2 3.208,0.198 4.914,0.803 1.433,0.507 4.01,1.877 5.56,1.413 2.813,-0.843 5.031,1.708 6.299,3.66 0.707,1.089 1.936,1.946 2.485,3.083 0.616,1.272 2.926,1.743 4.188,2.348 1.386,0.665 2.722,0.545 4.061,1.323 0.933,0.542 2.513,0.731 3.5,0.358 1.415,-0.534 2.086,0.734 3.518,-0.557 1.204,-1.086 2.999,-1.103 4.51,-1.477 2.996,-0.741 6.882,0.503 9.941,0.795 1.529,0.146 2.693,1.08 3.953,1.856 2.005,1.236 3.871,0.793 6.046,1.243 1.119,0.232 1.496,1.4 2.189,2.173 0.879,0.98 2.281,1.372 3.345,2.125 1.487,1.053 2.724,1.025 4.497,0.907 2.215,-0.148 3.547,0.82 5.597,1.169 1.63,0.277 3.272,-0.093 4.908,0.005 1.185,0.07 2.254,0.654 3.384,0.04 1.439,-0.782 2.627,-1.534 4.297,-1.753 1.679,-0.22 3.672,-0.901 5.323,-0.737 1.48,0.147 2.358,-0.33 2.737,-1.775 0.409,-1.561 1.468,-2.34 2.77,-3.231 1.233,-0.845 1.794,-1.718 3.351,-1.323 1.806,0.459 3.08,0.062 4.801,1.188 1.246,0.814 2.612,1.662 4.106,1.906 1.313,0.214 2.204,-0.557 3.418,-0.833 3.342,-0.759 5.072,0.708 4.908,3.999 0,0 -2.00829,-28.33847 11.52075,-36.79757 13.32928,-8.3342 42.20085,3.19175 41.93914,5.47716 -0.28095,2.45334 51.7584,19.28056 77.77542,39.05789 12.11829,9.21196 14.29808,29.07052 10.43261,29.84924 0,0 -2.01359,19.32451 -14.39198,19.4805 -4.37974,0.0552 -2.21775,7.11981 -7.04196,12.58297 -5.26716,5.96477 -17.60162,10.42573 -24.39608,11.88731 -5.80275,1.24825 -9.63292,-5.34762 -16.31398,-9.08281 -7.18953,-4.01946 -17.23591,-5.28184 -23.51255,-6.24418 -32.04206,-4.91272 -59.42903,-26.76294 -59.04137,-26.73451 -2.523,-0.533 -5.421,-3.57 -8.063,-1.551 -1.016,0.775 -0.953,2.09 -0.518,3.171 0.272,0.677 -0.194,1.304 0.005,1.974 0.21,0.705 0.827,0.767 1.29,1.224 0.909,0.896 6.875,4.213 4.377,5.3 -0.636,0.277 -1.559,1.315 -2.065,1.817 -0.694,0.688 -2.003,0.803 -2.376,1.822 -0.544,1.484 -1.062,3.184 -2.305,4.258 -1.008,0.871 -2.783,1.261 -3.979,1.986 -1.357,0.823 -3.827,0.587 -5.377,0.66 -1.999,0.095 -3.71,-0.346 -5.702,-0.028 -4.147,0.661 -7.679,1.098 -11.513,3.049 -1.554,0.791 -3.143,1.559 -4.505,2.665 -1.233,1.002 -1.009,1.164 -2.466,1.031 -0.888,-0.08 -1.846,-0.003 -2.573,-0.592 -1.425,-1.155 -1.544,-1.195 -3.548,-0.982 -3.643,0.386 -7.252,-1.5 -10.796,-2.14 -1.658,-0.299 -3.455,-0.61 -4.989,-1.343 -1.673,-0.799 -2.696,-2.429 -4.618,-2.778 -1.692,-0.307 -3.411,-0.043 -5.116,-0.392 -1.479,-0.302 -2.972,-0.542 -4.464,-0.774 -1.747,-0.272 -2.983,0.701 -4.684,0.882 -2.205,0.233 -4.587,-0.386 -6.804,-0.458 -3.747,-0.121 -7.422,-1.628 -11.169,-1.223 -1.052,0.114 -2.907,0.668 -3.942,0.213 -0.488,-0.215 -0.774,-0.787 -0.995,-1.23 -0.362,-0.727 -1.37,-1.172 -2.033,-1.549 -2.897,-1.646 -4.23,-4.789 -6.622,-6.94 -0.919,-0.826 -2.385,-0.98 -2.541,-2.431 -0.154,-1.427 -3.197,-0.788 -4.516,-1.402 -1.52,-0.709 -3.131,-1.458 -4.545,-2.36 -1.277,-0.815 -2.748,-0.741 -3.994,-1.726 -2.842,-2.246 -6.688,-1.291 -9.996,-1.622 -2.742,-0.275 -5.551,-0.753 -8.257,-1.127 -2.389,-0.329 -5.524,-1.965 -5.843,-4.68 -0.151,-1.289 1.513,-2.528 0.592,-3.63 -1.169,-1.397 -0.563,-3.183 -1.597,-4.466 -1.322,-1.64 -2.403,-2.893 -4.172,-4.07 -1.624,-1.081 -2.094,-2.559 -3.327,-3.941 -0.816,-0.916 -2.35,-1.457 -3.354,-2.26 -0.938,-0.75 -0.316,0.26 -1.127,0.277 -0.648,0.013 -1.271,-0.516 -1.78,-0.849 -1.347,-0.881 -1.492,-0.6 -2.95,-0.504 -1.839,0.121 -3.694,-1.177 -5.081,-2.236 -1.068,-0.816 -2.157,-1.76 -3.502,-2.085 -1.282,-0.31 -1.907,-0.239 -1.849,-1.467 0.043,-0.895 -2.181,-1.042 -2.568,-1.894 -0.132,-0.292 0.304,-0.302 0.404,-0.481 0.287,-0.506 -0.811,-1.387 -1.013,-1.771"
       id="mongolia"
       stroke="#000000"
       stroke-width="0.5" />
       </svg>