<svg>
    <path
       style="fill:#9c6bae;fill-opacity:1"
       d="m -75.553128,278.59325 c 0.834,-1.055 1.489,-2.364 2.945,-2.629 1.43,-0.26 1.858,-1.353 1.701,-2.682 -0.369,-3.119 -3.069,-5.294 -3.566,-8.369 1.633,0.417 -2.161293,-1.17291 3.199207,-3.81541 5.3605,-2.6425 1.313269,-11.7377 3.612269,-12.9467 1.068,-0.562 10.40177,-0.78692 11.81677,-0.66092 1.538,0.137 0.786,-1.21125 1.261,-3.58725 0.475,-2.376 1.937754,5.28728 3.415754,5.73128 1.782,0.535 2.901219,-13.61041 13.38072,-10.77541 10.4795,2.835 154.298568,11.20653 154.416298,11.21864 l 2.18224,42.16559 c 0,0 -10.49987,0.75007 -32.561888,-0.24298 -7.932679,-0.35706 -17.360175,-3.2195 -28.33187,-3.22265 -4.807233,-0.001 -10.547161,3.09462 -15.711531,3.09742 -13.494739,0.007 -27.935806,3.11934 -41.89678599,3.1246 -3.60702021,0.001 -9.08640271,-2.1716 -12.60472901,-2.2281 -31.611869,-0.50767 -56.746257,-0.97281 -61.368226,-1.44747 -14.465,-1.4855 3.888529,-6.5142 4.811772,-7.45464 -0.782,0.632 -1.359,0.205 -2.196,0.05 -1.085,-0.201 -0.625,0.412 -1.143,0.904 -0.773,0.733 0.042,-3.41 0.056,-3.503 0.301,-1.919 -2.631,-1.532 -3.418,-2.727"
       id="moscow"
       stroke="#000000"
       stroke-width="0.5" />
       </svg>