<svg>
    <path
       style="fill:#dccfbe;fill-opacity:1"
       d="m 418.57787,225.88925 c 0.389,-1.179 1.297,-1.776 0.701,-3.026 -0.375,-0.789 -0.182,-1.137 0.249,-1.897 0.529,-0.933 -0.196,-1.618 0.567,-2.522 1.063,-1.259 2.051,-3.761 3.813,-2.49 0.318,0.229 0.74,1.191 1.253,0.797 0.804,-0.619 0.977,-1.819 0.837,-2.741 0.911,0.349 1.065,-0.712 1.675,-0.516 1.069,0.345 2.436,-0.069 3.215,1.02 1.378,1.926 4.518,3.684 6.602,4.774 1.716,0.898 2.899,0.983 4.123,2.396 1.249,1.44 1.965,2.755 3.698,1.835 0.918,-0.487 1.9,-0.156 2.635,0.489 0.83,0.728 0.761,2.246 1.534,2.652 1.436,0.753 3.441,2.695 5.112,2.546 0.845,-0.075 1.382,-0.423 1.907,0.276 0.433,0.575 -0.728,1.044 0.163,1.76 0.682,0.546 3.785,1.583 4.105,0.12 0.464,1.406 2.062,2.033 2.715,3.288 0.841,1.613 0.78,-1.511 1.105,-1.776 0.041,0.883 2.227,2.872 2.881,1.625 0.243,-0.464 0.087,-1.348 0.898,-0.945 0.715,0.355 1.209,0.56 1.979,0.807 0.869,0.278 1.204,0.822 1.938,1.209 0.646,0.339 1.432,-0.133 2.13,0.19 1.484,0.689 3.309,-0.891 4.767,-0.338 1.477,0.56 0.199,4.448 0.349,5.625 0.285,2.255 2.366,3.189 1.837,5.722 -0.43,2.051 -2.074,1.067 -3.959,1.297 -1.477,0.18 -3.551,0.617 -3.82,-1.44 -1.345,0.451 -1.793,1.648 -3.313,0.736 -0.727,-0.436 -4.021,-1.594 -4.794,-1.29 -1.557,0.612 -1.282,-0.162 -2.113,-1.03 -1.268,-1.325 -2.096,0.337 -3.529,0 -1.057,-0.249 -1.878,-1.64 -2.955,-1.908 -1.51,-0.376 -1.353,-0.938 -1.969,-2.167 -0.616,-1.232 -6.978,-3.075 -6.236,-1.108 -0.83,-0.366 -2.001,-1.333 -2.967,-0.854 -1.338,0.666 -1.655,0.816 -3.213,0.125 -0.853,-0.378 -2.044,-0.432 -2.438,-1.406 -0.569,-1.405 -1.659,-0.373 -2.8,-1.061 -1.063,-0.643 -1.873,-1.245 -3.159,-1.376 -1.725,-0.176 -2.856,-1.183 -4.39,-1.889 -1.336,-0.615 -2.112,-1.988 -3.389,-2.765 -1.341,-0.817 -2.813,-1.393 -4.146,-2.223 0,1.325 -1.458,0.098 -2.253,-0.408 -0.555,-0.356 -1.969,-1.275 -1.345,-2.113"
       id="nepal"
       stroke="#000000"
       stroke-width="0.5" />
       </svg>