<svg>
    <path
       style="fill:#dccfbe;fill-opacity:1"
       d="m 829.40687,485.23425 c 0.23,-0.566 0.134,-1.07 -0.29,-1.511 2.246,-0.571 4.11,-0.697 5.859,-2.308 1.623,-1.496 3.313,-2.133 5.495,-1.595 2.206,0.544 3.307,2.173 5.206,2.992 1.922,0.828 3.902,-0.273 5.689,1.121 -1.366,1.014 -0.053,2.375 0.531,3.397 0.789,1.381 -0.11,2.533 -0.619,3.807 -1.302,3.264 0.638,7.164 2.108,10.006 0.504,-0.734 -0.187,-2.384 0.64,-2.928 1.164,-0.767 1.02,2.666 1.031,2.992 0.024,0.653 0.24,0.813 0.686,1.25 0.641,0.627 0.34,1.473 0.909,2.113 1.103,1.238 3.365,1.9 4.636,0.582 0.924,-0.958 1.875,-1.807 2.821,-2.738 0.994,-0.979 1.185,-2.29 2.513,-3.13 1.19,-0.753 0.848,-3.544 2.365,-3.553 1.798,-0.011 2.664,0.159 4.346,-0.718 1.205,-0.628 1.262,-1.049 0.725,-2.175 -0.412,-0.867 2.227,-2.095 2.76,-2.378 1.34,-0.713 2.581,-1.206 3.999,-0.475 1.851,0.955 4.059,1.622 5.718,2.872 1.394,1.05 2.979,1.629 4.53,2.414 1.061,0.537 3.144,2.179 4.39,1.743 1.572,-0.551 2.229,0.647 3.839,0.625 1.69,-0.023 2.529,1.723 4.204,1.496 -0.209,5.034 -0.604,10.057 -0.946,15.083 -0.358,5.262 -0.126,10.67 -0.67,15.9 -0.174,1.674 -1.446,2.87 -1.373,4.648 0.03,0.733 0.979,1.129 0.979,1.589 0,1.117 -0.19,2.264 -0.267,3.38 -0.361,5.254 -0.761,10.525 -1.253,15.77005 -2.155,-1.087 -2.599,-3.55105 -4.237,-5.11305 -0.81,-0.772 -3.899,-2.735 -2.453,-4.097 -0.943,0.738 -2.625,0.425 -3.754,0.874 -0.961,0.382 -2.739,0.47 -2.226,-1.093 -0.479,0.587 -1.705,1.694 -2.521,1.702 -1.234,0.012 0.207,-2.112 0.335,-2.412 0.418,-0.979 1.788,-3.176 0.792,-3.71 -0.898,-0.481 -1.156,-1.665 -1.847,-2.351 1.177,-1.015 2.737,0.76 3.67,-0.79 -1.626,1.623 -3.75,-0.935 -4.89,-1.939 1.506,-1.73 3.224,0.289 4.75,0.359 -1.328,-0.516 -2.456,-1.435 -3.67,-2.16 1.417,-0.249 0.197,-0.685 -0.271,-1.174 -0.665,-0.692 -1.319,-1.525 -1.586,-2.465 -0.344,-1.209 -1.464,-3.473 0.127,-4.071 -1.57,0.58 -1.663,-1.115 -0.22,-1.37 -0.538,-10e-4 -1.882,0.854 -2.3,0.221 -0.501,-0.757 0.504,-1.75 0.14,-2.59 -0.462,1.846 -1.827,-1.1 -2.429,-1.36 -1.027,-0.444 -1.088,-0.699 -1.872,-1.059 -0.606,-0.278 -2.067,-0.689 -2.431,-1.298 -0.501,-0.84 -3.599,-0.908 -4.561,-1.492 -1.51,-0.916 -3.265,-1.914 -4.954,-2.458 -1.63,-0.524 -4.032,-0.04 -5.454,-0.741 -1.27,-0.625 -2.959,-1.49 -3.495,-2.9 -0.498,-1.31 1.593,-1.104 2.306,-1.223 -0.87,-0.263 -1.965,-0.708 -2.662,0.173 -0.785,0.992 -1.303,-0.535 -2.019,-0.753 -0.011,1.476 -2.313,0.391 -1.229,-0.64 -1.574,0.015 -2.189,0.032 -2.59,-1.881 -0.07,0.556 -0.371,1.01 -0.822,0.439 -0.637,-0.807 -0.133,-1.311 -0.207,-2.154 -0.135,-1.543 1.401,-2.415 1.459,-3.975 -0.381,0.81 -1.73,1.097 -1.73,2.107 0,0.902 0.079,2.304 -1.22,2.223 1.127,0.504 0.233,1.092 -0.14,1.72 -0.253,0.227 -0.492,0.467 -0.72,0.72 -0.039,0.479 -0.065,0.959 -0.08,1.44 -0.351,1.022 -2.431,2.102 -3.514,1.8 -0.959,-0.268 -1.52,-2.512 -1.553,-3.351 -0.022,-0.566 0.728,-0.619 1.116,-0.799 1.027,-0.478 -0.55,-1.761 -0.29,-2.61 -1.239,0.747 -2.776,-3.252 -4.513,-3.322 -2.692,-0.11 -1.245,-1.962 0.692,-2.158 2.014,-0.205 3.465,1.791 4.861,-0.546 1.046,-1.749 4.242,-2.306 3.419,0.546 0.222,-0.485 0.389,-0.988 0.5,-1.51 0.286,1.381 1.871,-0.327 1.81,1.15 0.216,-1.199 0.629,-0.532 0.931,0.08 0.291,-0.627 0.341,-1.44 -0.221,-1.95 0.498,0.105 0.981,0.059 1.45,-0.14 -0.416,-0.501 -0.393,-0.981 0.07,-1.44 -1.54,1.146 -0.354,-0.82 -0.07,-1.15 -1.65,0.138 -2.539,1.187 -4.312,0.912 -1.105,-0.171 -2.58,0.874 -3.533,0.523 -1.173,-0.431 -1.666,0.369 -2.586,-0.545 -0.318,-0.316 -1.225,0.263 -1.531,0.282 -1.019,0.063 -1.828,-0.866 -2.588,-1.392 0.188,-0.245 0.381,-0.485 0.58,-0.72 -0.812,0.142 -1.544,-0.808 -1.254,-1.58 0.108,-0.288 0.497,-0.682 0.441,-1.015 -0.14,-0.848 -1.463,0.532 -0.558,-1.005 -0.736,0.144 -0.921,0.154 -0.86,-0.649 -1.039,1.507 -3.057,-1.128 -3.96,-1.08 0.86,1.133 -1.2,0.96 -1.729,0.595 -1.466,-1.016 1.384,-2.892 1.652,-3.906"
       id="new_guinea"
       stroke="#000000"
       stroke-width="0.5" />
       </svg>