<svg>
    <path
       style="fill:#dccfbe;"
       d="m 707.87687,129.76925 c 0.435,-0.915 1.067,-1.665 1.601,-2.515 0.388,-0.617 1.326,-0.281 1.465,-0.928 0.287,-1.334 2.975,-1.269 2.975,-2.605 0,-0.808 0.868,-0.431 1.348,-0.57 0.863,-0.25 0.821,-1.795 1.393,-2.382 1.286,-1.323 -0.416,-3.911 0.807,-4.6 0.486,-0.274 0.71,-1.016 1.387,-0.678 0.963,0.481 1.657,1.33 2.592,1.854 1.657,0.928 3.465,1.026 5.306,1.183 1.021,0.087 3.111,0.226 2.368,-1.431 -0.322,-0.719 -1.25,-0.831 -1.8,-1.296 -0.745,-0.63 -1.296,-1.452 -1.87,-2.23 1.612,-0.412 3.45,-0.261 5.107,-0.414 2.182,-0.201 1.005,-1.583 1.443,-2.684 0.379,-0.952 1.724,-0.32 2.432,-0.635 1.02,-0.454 -0.714,-3.907 -0.922,-4.621 1.535,-0.088 2.832,0.236 3.564,1.565 1.052,1.907 4.047,2.419 5.436,4.194 -0.648,0.484 -1.197,-0.234 -1.885,-0.109 -0.409,0.074 -0.67,1.214 -0.791,1.522 -0.462,1.185 -1.633,3.205 -1.303,4.527 0.231,0.93 5.074,5.621 2.929,6.682 -0.712,0.352 -1.596,0.646 -1.971,1.418 -0.239,0.494 0.212,1.168 -0.202,1.572 -0.604,0.589 -1.259,0.619 -1.72,1.433 -0.361,0.64 -0.603,1.4 -1.159,1.909 -0.64,0.584 -1.549,0.417 -2.302,0.74 -0.648,0.277 -1.103,0.832 -1.608,1.298 -0.687,0.634 -1.369,0.938 -0.472,1.67 0.742,0.605 0.878,1.803 1.054,2.682 -0.337,-1.163 -0.751,-0.527 -0.673,0.304 0.149,1.587 1.869,0.958 2.95,1.627 1.617,1.001 7.026,3.157 6.76,5.458 -0.39,3.37 -6.769,-0.189 -8.383,2.425 -0.576,0.935 -0.362,3.558 -1.476,3.368 -0.579,-0.1 -3.771,-1.157 -2.569,0.57 -0.66,-0.403 -1.904,-0.644 -2.416,-1.104 -0.802,-0.722 -1.647,-1.299 -2.764,-1.344 0.442,0.351 0.922,0.638 1.439,0.863 -0.734,0.075 -0.858,1.38 -1.8,2.16 -0.622,-0.965 0.603,-0.558 0.5,-1.151 -0.141,-0.809 -1.199,-1.183 -1.149,-0.072 -0.565,-1.219 -2.2,-0.025 -2.881,-1.224 1.663,0 -0.44,-1.238 1.301,-0.648 -0.906,-0.948 -2.743,-0.426 -3.891,-0.648 0.154,-0.596 0.636,-0.873 1.221,-0.647 -1.413,-0.95 -0.1,-2.443 -1.08,-3.528 1.055,0.768 0.559,-0.649 1.883,-0.724 0.813,-0.046 1.874,0.078 2.587,0.508 -0.882,-1.829 -4.444,0.025 -4.486,-2.588 -0.017,-1.03 0.533,-2.539 0.252,-3.502 -0.286,-0.98 -1.302,-0.872 -0.876,-2.118 -1.808,1.165 -4.036,-1.01 -5.619,-1.656 0.354,0.521 0.303,1.001 -0.15,1.44 -0.217,-0.971 -1.088,-1.376 -1.915,-1.734 -0.465,-0.201 -2.7,-1.806 -1.035,-1.866 -0.312,-0.24 -0.622,-0.48 -0.932,-0.72"
       id="north_korea"
       stroke="#000000"
       stroke-width="0.5" />
       </svg>