<svg>
    <path
       id="odessa"
       d="m 110.12387,101.66825 c -3.38,-1.693 -5.528,-5.081 -8.843,-6.92 -1.449,-0.805 -3.146,-1.048 -4.564998,-1.832 -1.306,-0.721 -2.023,-2.351 -3.512,-2.768 1.041,1.315 -2.266,0.441 -2.907,-0.611 -1.291,-2.121 -3.409,-1.875 -5.443,-2.772 0.326,-0.802 1.218,-0.84 1.87,-1.225 -0.609,0 -1.032,-0.404 -1.08,-1.008 -0.253,0.15 -0.492,0.318 -0.72,0.504 0.54,-1.933 3.093,-0.086 3.89,0.648 -1.679,-1.035 2.58,-0.609 3.17,-0.432 0.397,-0.769 -0.191,-1.421 -0.29,-2.16 -0.473,1.756 -0.856,-0.239 -0.789,-0.721 1.473,0.922 1.551,-2.893 2.449,-3.456 0.092,0.481 0.188,0.961 0.29,1.44 0.374,-0.484 0.263,-1.902 0.86,-2.16 0.698,-0.301 1.498,0.912 2.229,0.864 0.238,-0.91 -2.013,-2.186 -2.607,-2.544 -1.504,-0.908 -2.644,-0.563 -3.292,-2.64 0.882,0.36 1.57,0.054 2.416,-0.199 0.936,-0.281 1.623,0.264 2.544,0.199 0.352,-1.419 -1.938,-1.451 1.082,-1.856 1.506998,-0.202 3.308998,-1.216 4.316998,-2.104 -1.31,0.4 -0.536,-1.444 -2.189,-1.155 -1.307998,0.229 -2.562998,1.167 -3.929998,1.012 0.33,-0.726 1.125,-1.048 1.88,-1.008 -0.934,-0.058 -1.438,0.534 -2.219,0.884 -1.071,0.48 -1.994,-0.332 -0.952,-1.245 l -11.947,4.691 c -6.333,1.614 -6.716,5.006 -8.9685,5.11 -2.2525,0.104 -0.3275,2.752 0.2145,3.487 0.979,1.331 4.817,5.88 5.81,2.283 0.778,0.903 1.274,0.63 2.164,0.166 1.189,-0.619 2.638,-0.027 3.596,0.771 -1.146,0.153 -1.127,0.706 -1.109,1.656 0.021,1.165 -1.039,1.111 -1.932,1.213 -0.971,0.11 -1.504,0.067 -2.388,-0.421 -0.535,-0.296 -1.271,-0.759 -1.921,-0.504 -0.642,0.253 -0.293,0.925 -0.687,1.082 -0.959,0.383 -1.513,1.339 -2.532,1.483 -1.384,0.196 -2.604,0.058 -3.679,1.141 -1.847,1.861 -5.276,4.095 -7.283,0.757 1.447,0.327 1.808,-4.543 -0.418,-4.871 -1.231,-0.182 -1.877,-0.627 -2.919,-1.249 -0.971,-0.579 -1.872,-0.167 -2.899,-0.295 -1.56,-0.197 1.919,-2.514 2.457,-2.729 1.062,-0.423 4.737,-1.015 5.07,-2.304 -0.912,0.027 -1.061,-0.881 -1.08,-1.584 -1.056,0.594 -0.789,0.741 -2.141,0.075 -1.11,-0.547 -2.604,0.038 -3.822,0.059 -1.322,0.023 -2.148,0.166 -3.359,-0.503 -1.041,-0.575 -2.217,-1.514 -3.488,-1.143 3.758,-1.482 -0.956,-0.916 -1.87,-2.232 2.349,1.153 5.492,0.829 7.48,-0.648 -1.34,0.382 -3.158,1.041 -4.349,-0.141 -0.896,-0.889 -0.214,-2.401 -1.191,-3.315 0.762,1 0.518,1.951 0.54,3.063 0.017,0.851 -1.947,0.31 -2.41,0.609 -0.259,-0.494 -0.235,-0.974 0.069,-1.44 -0.586,0.123 -0.693,0.906 -0.983,1.316 -0.406,0.576 -1.592,0.03 -2.201,0.136 -2.604,0.451 -2.204,2.929 -3.725,4.523 -0.141,-0.757 -1.582,-3.04 -2.591,-2.304 0.372,1.058 2.014,1.149 2.327,2.212 0.371,1.257 -3.156,3.571 -4.057,4.053 0.817,-0.545 1.837,-1.121 2.09,-2.16 -0.953,0.071 -2.695,3.228 -2.89,1.008 -0.451,0.497 -1.082999,2.098 0.359,1.439 -0.178,0.233 -0.344,0.473 -0.5,0.721 1.016,0.147 1.579,2.087 0.431,2.448 0.693,-2.712 -2.829999,-1.634 -4.209999,-1.237 -1.763001,0.506 -2.647001,1.498 -4.508001,0.507 -0.31,-0.165 -2.267,-1.786 -0.771,-1.797 1.787,-0.015 1.104,-1.225 1.95,-2.279 0.932,-1.162 2.646001,-2.04 2.403,-3.766 -0.213,-1.514 -0.908,-2.052 0.965001,-2.732 0.155,0.437 0.321,0.868 0.5,1.296 1.076,-2.216 4.295999,1.488 5.908999,-0.216 -0.702,-0.215 -1.066,-0.878 -1.729,-1.152 1.981,-0.703 -0.906,-2.636 -1.611999,-3.131 -0.492,-0.345 -1.197,-0.778 -1.105,-1.493 0.092,-0.722 0.332,-2.572 -1.056,-1.877 -0.399,0.2 -1.579,-1.311 -1.77,-1.598 -0.486001,-0.734 0.126,-2.167 -0.208001,-3.064 -0.604,-1.626 -1.705,-0.28 -2.55,-1.484 -0.527,-0.752 -2.264,-1.624 -2.579,-0.168 -0.225,-1.292 -0.977,-0.194 -1.22,-1.44 -1.466,0.69 -0.167573,-19.76305 -1.400573,-20.26905 -73.101489,-5.27914 25.884748,-1.46148 42.332573,-4.42095 1.449,-0.438 1.789,1.219 3.139,1.146 -0.506,0.95 0.695,1.619 0.965,2.407 0.363,1.065 111.521408,-9.97209 111.521408,-9.97209 0,0 0.82248,40.20722 1.43573,39.86524 l -10.05704,3.10223 c 0.654,0.722 -6.9321,-0.55742 -6.6541,0.42558 0.388,1.377 2.70106,0.55951 2.18606,1.56751 -0.405,0.792 0.0839,1.28349 0.31694,2.76149 -0.264,-0.149 -0.531,-0.293 -0.801,-0.433 0.047,0.508 0.12,1.012 0.221,1.512 -0.58,-0.381 -1.772,-0.406 -1.73,0.576 -0.489,-0.31 -0.993,-0.333 -1.51,-0.072 0.664,0.135 0.719,0.573 0.359,1.08 0.597,0.003 0.939,0.325 0.86,0.937 -0.327,-0.175 -3.611,-1.398 -2.37,0.144 -0.618,-0.064 -0.811,0.408 -1.276,0.656 -0.946,0.505 -2.425,-0.598 -2.113,1 -0.759,-0.398 -1.464,-0.916 -2.3,-1.152 0.551,0.441 0.593,1.184 0.79,1.801 -0.424,-0.679 -0.949,-1.575 -1.87,-1.584 2.273,2.571 -0.063,5.097 -0.86,7.848 -0.211,-0.226 -0.404,-0.466 -0.58,-0.72 0.796,1.041 -1.352,1.823 -1.439,2.808 -0.126,1.41 1.528,1.697 2.481,2.2 1.275,0.673 1.913,1.251 2.747,2.428 0.501,0.707 1.203,1.51 1.252,2.423 0.046,0.868 -0.951,1.539 0.359,1.733 -0.113,-0.739 -0.271,-3.652 1.08,-2.809 -0.564,0.963 -1.697,4.496 0.14,4.824 -0.679,0.537 -0.936,2.264 -0.096,2.776 1.178,0.719 1.5,1.818 2.196,2.923 0.65,1.027 1.843,1.756 2.747,2.541 1.038,0.9 1.643,2.038 2.573,3 0.801,0.828 2.023,1.50104 1.762,1.41804 1.542,0.5 2.659,2.141 3.504,3.425 1.212,1.84 2.213,3.483 3.7155,5.2195 1.5025,1.7365 2.2275,2.0955 3.2735,2.1785 2.283,0.182 3.47,0.864 4.377,2.965 -0.82,-1.139 -3.13,-1.628 -4.314,-0.856 -1.698,1.107 -1.758,1.891 -2.09,3.744 -0.298,1.664 -0.017,2.781 0.333,4.306 0.125,0.543 -0.677,1.108 -0.733,1.752 -0.085,0.976 0.345,1.728 -0.825,1.494 1.219,-1.152 -1.253,-1.803 -0.997,-0.487 0.358,1.843 -0.169,3.44 0.487,5.382 -0.533,0.015 -1.476,0.608 -1.946,0.279 -0.677,-0.473 -1.086,-1.222 -1.778,-1.715 -0.427,-0.305 -3.673,-1.799 -2.81,-2.605 0.31,-0.288 1.765,-0.62 1.707,-1.139 -0.156,-1.414 -2.842,-1.936 -0.133,-2.956 -1.896,-2.274 -2.912,-3.594 -5.533,-1.613 -1.182,0.893 -3.07,1.661 -3.611,3.137 -0.157,0.431 0.5074,3.00891 0.1744,3.16791 -0.617,0.297 -2.9194,-0.88291 -3.2704,-0.29891 -0.46,-0.577 0.75718,10.70329 2.01918,3.01044 -0.73083,7.77057 -3.86018,2.77056 -3.58318,2.06956 0.12,-0.304 0.871,-0.506 0.406,-0.898 -0.371,-0.313 -0.964,-0.465 -1.438,-0.49 -2.115,-0.112 2.31655,-0.25217 0.37255,-0.99517 0.858,-0.35 -4.43828,0.26689 -4.05028,-0.83111 0.392,-1.108 -9.08857,0.0514 -9.81057,-0.3096 -11.68331,-16.78664 -8.98345,-13.53328 -8.98345,-13.53328 -1.289,-0.004 1.06575,-7.31484 0.0538,-7.74084 -0.424,-0.178 -2.094,-0.301 -1.418,-1.091 -1.129,-0.369 -1.911,-2.049 -3.24,-1.8 0.639,-1.426 -1.505,-0.669 -1.843,0.178 -0.238,0.595 -3.316,-0.03 -4.057,-0.178 -0.673,0.093 -0.323,0.817 -1.204,0.551 -0.923,-0.279 -1.877,-0.345 -1.4,-1.38 0.714,-1.553 1.287,-2.534 0.172,-4.109 -1.062,-1.499 -1.204,-3.443 -2.239,-4.958 -0.857,-1.255 -2.425,-1.122 -3.336,-2.317 -0.852,-1.119 -2.649,-1.276 -3.896,-1.456 -1.732,-0.251 -2.151,-2.081 -3.796,-2.315"
       stroke="#000000"
       stroke-width="0.5"
       style="fill:#9c6bae;fill-opacity:1" />
       </svg>