<svg>
    <path
       id="omsk"
       style="fill:#9c6bae;fill-opacity:1"
       d="m 299.32487,153.21025 c -0.007,1.229 -0.854,1.232 -1.814,1.236 -0.898,0.004 -1.889,0.007 -2.723,0.385 -1.269,0.575 -0.473,1.626 -0.664,2.631 -0.273,1.441 -0.552,1.999 -0.414,3.488 0.111,1.21 -0.952,1.912 -1.896,2.391 -2.479,1.256 -4.91,3.313 -7.876,2.931 0.213,0.588 0.644,1.084 1.15,1.439 -0.926,0.5 -0.59,1.911 -1.676,2.671 -1.16,0.812 -3.614,0.786 -4.225,2.081 -0.393,-1.177 -1.294,-2.179 -2.578,-2.386 -1.817,-0.294 -2.623,-0.285 -4.332,-1.143 -0.469,-0.236 -0.098,-0.865 -0.808,-0.533 -0.588,0.275 -0.683,-0.429 -0.771,-0.871 -0.102,-0.51 -0.109,-1.071 -0.366,-1.539 -0.66,-1.206 -0.828,0.181 -0.512,-1.509 0.185,-0.985 -0.639,-2.983 -0.818,-4.066 -0.208,-1.265 -1.24,-1.18 -2.3,-1.126 -1.067,0.055 -2.312,0.4 -3.371,0.14 -1.418,-0.348 -2.16,-2.264 -3.239,-3.112 -1.301,-1.023 -3.427,-0.752 -4.471,-2.208 -0.974,-1.356 -1.408,-2.167 -3.08,-2.806 -1.714,-0.655 -3.067,-0.357 -4.829,-0.461 -1.534,-0.09 -2.474,-1.338 -3.875,-1.78 -1.3,-0.411 -3.84,-0.194 -4.492,-1.592 -0.571,-1.225 -1.09,-1.813 -2.406,-1.508 -0.602,0.14 -6.395,-1.162 -4.981,1.155 -1.753,0.383 -3.476,-0.562 -5.23,-0.192 -2.058,0.434 -3.394,1.756 -4.813,3.174 -0.645,0.644 0.018,1.472 -0.536,2.16 -0.332,0.413 -0.934,0.631 -1.413,0.794 -1.092,0.371 -3.013,0.932 -4.059,0.148 -0.826,-0.619 -1.072,-2.469 -1.306,-3.38 -0.52,-2.026 -0.373,-4.106 -0.854,-6.141 -0.295,-1.247 0.759,-3.054 -0.262,-4.001 -0.586,-0.544 -1.918,-0.905 -1.767,-1.922 0,1.386 -0.867,-0.344 -1.495,-0.908 -0.657,-0.591 -1.95,-1.496 -2.385,-0.172 -0.866,-1.052 -0.75,-2.686 0.43,-3.456 -1.517,1.462 1.93,0.972 2.52,1.152 -0.619,0.014 -0.927,-0.974 -1.058,-0.926 -0.771,0.278 -0.589,-1.176 -0.604,-1.601 -0.077,-2.114 -3.168,-0.818 -4.457,-1.506 0.922,1.497 -0.715,0.318 -1.014,-0.058 -0.42,-0.53 -0.563,-1.225 -0.606,-1.884 -0.093,-1.424 0.28,-2.811 0.312,-4.227 0.014,-0.609 0.237,-1.498 0.021,-2.073 -0.28,-0.743 -0.912,-1.34 -1.188,-2.157 -0.293,-0.869 -0.71,-1.216 -1.369,-1.813 -0.839,-0.756 -0.952,-1.853 -1.988,-2.472 l 6.76208,-4.35438 c -15.9189,6.77799 -31.1014,-25.77644 -30.92515,-22.86373 l -7.16167,-105.88416 c -0.007,0.007 72.24907,1.06335 131.6,1.95634 41.33815,0.62198 119.19531,-18.36495 119.23537,-18.31073 0,0 0.8439,56.12725 0.96437,56.55858 -0.858,2.135 -1.54492,29.4397 -0.55492,30.7767 -1.134,-0.281 -4.658,-0.661 -3.302,1.582 0.949,1.571 0.423,2.982 -1.216,3.688 -1.236,0.532 -3.654,-0.215 -3.813,1.581 -0.251,2.826 1.505,5.512 3.033,7.719 1.64,2.369 -1.632,2.529 -2.795,3.53 -0.945,0.814 -1.255,1.066 -2.18,0.05 -0.913,-1.002 -2.842,-0.514 -4.004,-0.374 -2.62,0.315 -4.359,-0.942 -6.662,-1.803 -2.254,-0.844 -1.563,4.403 -1.521,5.674 0.08,2.474 -0.224,4.884 -0.264,7.334 -0.039,2.358 3.715,1.148 3.269,3.899 -0.189,1.172 -1.303,0.271 -1.881,-0.01 -0.968,-0.47 -1.775,0.318 -2.789,0.136 -0.818,-0.147 -1.441,-1.562 -2.212,-1.203 -1.069,0.499 -3.004,1.259 -4.161,1.398 -1.564,0.188 -5.839,0.352 -6.586,2.154 -0.525,1.267 5.529,0.424 4.289,2.075 -1.126,1.496 2.308,6.181 3.146,7.244 0.788,1 2.011,2.13 2.374,3.379 0.262,0.898 1.522,1.671 1.065,2.707 -0.898,-0.637 -1.647,0.351 -2.091,1.008 0.537,0.224 1.018,0.535 1.44,0.936 -0.65,0.166 -1.245,0.537 -1.94,0.504 0.145,0.713 -0.058,1.493 0.259,2.168 m 0.072,-0.32523 c 0.0701,0.16601 1.85904,3.03054 1.49636,4.36759 -0.36704,1.35306 -2.8878,1.17917 -3.16243,1.40702 -1.756,1.456 -4.484,2.1 -6.45,3.4 -0.912,0.604 -1.32,1.043 -1.537,2.096 -0.189,0.921 -0.582,1.736 -1.656,1.629 -1.066,-0.106 -1.939,0.647 -3.015,0.544 -1.176,-0.112 -2.282,-0.392 -3.478,-0.374 -1.577,0.024 -1.978,1.983 -2.103,3.34 -0.279,3.021 -2.038,1.77 -4.184,2.727 -2.032,0.907 -1.841,-1.4 -2.92,-2.243 -0.602,-0.469 -1.397,0.373 -1.852,0.642 -1.069,0.636 -2.1,0.428 -3.26,0.187 -0.108,0.497 -0.059,0.977 0.149,1.44 -0.936,0.024 -1.507,0.924 -2.11,1.5 -0.899,0.858 -2.26,0.334 -3.01,1.38 -1.066,1.487 1.846,3.544 -0.631,4.6695 0.012,0.7265 -0.053,1.4085 0.163,2.1025 0.281,0.899 1.386,1.48 1.917,2.229 -1.604,0.01 0.057,2.273 0.45,2.768 0.568,0.715 1.354,0.943 2,0.141 0.681,-0.845 1.765,-0.407 2.593,-0.157 1.983,0.597 3.285,0.777 3.288,3.097 0.001,0.812 1.417,3.581 2.026,3.955 0.577,0.355 0.155,1.248 0.406,1.77 0.364,0.757 0.971,0.822 1.469,1.399 0.402,0.466 -0.339,1.433 -0.819,1.539 -0.381,0.084 -0.999,-0.54 -1.361,-0.658 -0.574,-0.188 -3.041,-1.103 -3.53,-0.563 -0.794,0.88 -3.046,1.89 -4.222,1.397 1.877,-2.088 -2.771,-1.92 -3.89,-1.016 -1.019,0.822 -1.991,0.877 -2.537,2.158 -0.581,1.363 -2.54,0.686 -3.461,1.708 -4.643,5.151 -6.956,-3.554 -6.287,-7.311 0.468,-2.627 -1.235,-0.322 -2.325,-1.3 -0.431,-0.387 0.222,-1.951 0.088,-2.511 -0.198,-0.826 -2.348,-1.888 -3.063,-2.111 -2.305,-0.717 -3.247,2.927 -4.547,4.236 -0.691,0.695 0.547,1.29 0.816,1.826 0.698,1.385 -0.783,2.149 -1.911,1.472 -0.833,-0.5 -2.389,-0.1 -3.157,0.36 -1.074,0.645 -0.438,1.439 -0.075,2.282 1.094,2.546 -2.381,0.546 -2.978,0.066 -1.18,-0.95 -1.938,0.167 -3.174,0.86 -0.666,0.373 -1.893,0.272 -1.729,1.368 -1.129,-0.241 -17.42786,-3.69129 -18.67586,-4.83629 m 13.47086,2.65329 c -1.328,-0.347 -1.609,0.692 -2.93,-0.05 -0.562,-0.315 -1.104,-0.773 -1.746,-0.924 -0.761,-0.179 -1.433,0.287 -2.184,0.156"
       stroke="#000000"
       stroke-width="0.5" />
       </svg>