<svg>
    <path
       style="fill:#6e8d4e;fill-opacity:1"
       d="m 802.04687,84.04925 c 0.626,1.021 0.777,2.212 1.706,3.048 1.385,1.246 3.012,2.546 3.848,4.249 0.734,1.493 1.59,3.17 2.156,4.728 0.542,1.485 -1.001,2.086 0.062,3.368 1.092,1.318 3.64,4.436 0.106,4.025 -1.592,-0.185 -3.391,-1.521 -4.914,-1.479 -0.943,0.026 0.129,1.473 0.434,1.679 0.867,0.588 1.729,0.89 1.543,2.154 -0.338,2.273 -2.868,0.977 -1.818,3.974 0.797,2.275 3.158,2.162 4.568,3.802 0.893,1.037 0.42,2.575 1.206,3.738 1.25,1.849 2.2536,2.91039 3.7066,2.34039 -0.989,-0.777 6.42782,5.07956 7.31082,4.91156 0.238,-0.045 0.79974,-4.43401 0.0397,-5.70501 -0.542,-0.906 -7.08616,-5.29294 -7.95616,-5.90194 -1.272,-0.89 -2.981,-0.748 -4.298,-1.66 -0.737,-0.511 -1.244,-1.615 -0.758,-2.481 0.479,-0.854 1.888,-0.068 2.464,0.229 0.753,0.388 1.397,1.102 2.162,1.408 0.81,0.324 1.819,-1.557 2.569,-1.986 2.473,-1.415 5.813,1.763 8.031,2.563 1.605,0.578 4.929,2.722 6.633,2.519 1.041,-0.124 0.491,-1.206 0.199,-1.763 -0.7,-1.334 -0.856,-2.334 -0.273,-3.801 1.227,-3.088 3.135,-3.181 6.124,-2.43 -1.333,-1.684 3.126,0.22 1.66,-1.729 0.701,-0.299 1.462,-0.508 2.23,-0.36 -0.094,-0.634 0.279,-1.148 0.859,-1.367 -0.953,-1.097 -0.904,0.345 -1.586,0.675 -0.415,0.2 -1.158,-0.688 -1.3,-0.814 -0.327,-0.291 -2.971,-2.77 -1.004,-1.877 -1.396,-0.631 -2.997,-0.937 -3.289,-2.708 -0.19,-1.157 0.13,-3.354 -1.241,-3.917 -0.204,1.136 -0.513,3.11 -1.817,3.526 -1.567,0.5 -3.994,-1.936 -4.883,-0.933 -0.274,-0.872 -0.916,-0.812 -1.657,-0.683 -1.032,0.179 -1.23,-0.59 -2.086,-0.919 -2.665,-1.026 -5.095,-1.914 -7.577,-3.428 -2.862,-1.745 -5.526,-3.782 -8.38,-5.542 -0.932,-0.575 -2.09,-1.593 -3.189,-1.813 -0.791,-0.158 -0.727,1.023 -1.591,0.36"
       id="otaru"
       stroke="#000000"
       stroke-width="0.5" />
       </svg>