<svg>
    <path
       style="fill:#ebe084"
       d="m 559.61332,194.56805 c 0.894,0.745 -57.75545,-87.5858 -56.57445,-87.4048 1.623,0.248 3.134,-0.324 4.717,-0.484 3.401,-0.343 7.136,1.26 10.581,1.463 1.815,0.107 3.675,0.382 5.493,0.336 1.742,-0.044 3.282,-0.861 5.054,-0.737 1.894,0.132 3.753,0.521 5.631,0.779 1.626,0.224 3.486,-0.043 5.038,0.53 1.467,0.542 2.391,1.866 3.759,2.558 2.003,1.014 4.622,0.999 6.792,1.453 3.289,0.688 6.31,2.679 9.765,1.84 1.575,-0.382 1.755,-0.125 2.71,0.964 0.938,1.07 2.779,-0.069 3.567,0.789 -0.214,-0.233 7.635,-4.572 8.384,-4.954 1.506,-0.769 3.461,-1.128 5.125,-1.34 1.981,-0.252 4.218,-0.799 6.189,-0.836 2.939,-0.056 6.427,1 9.109,-0.607 1.255,-0.752 3.59,-1 4.525,-2.107 0.896,-1.06 0.955,-2.653 1.623,-3.848 0.62,-1.11 1.761,-1.585 2.819,-2.177 0.598,-0.334 1.048,-0.777 1.335,-1.408 3.62879,-1.30107 -3.83195,-4.53412 -4.832,-5.962 -0.918,-1.515 -1.523,-5.669 0.886,-6.174 l 83.53206,28.14403 5.86669,6.74698 c 0.163,1.093 3.50552,1.7478 2.84652,1.7138 0.278,0.8 6.95163,5.03872 6.35163,5.13972 -1.245,0.208 -1.5649,5.73747 -2.5389,6.47647 -0.963,0.731 -1.627,1.039 -1.746,2.361 -0.086,0.963 -1.198,0.872 -0.924,1.814 -0.476,-0.331 -1.002,-0.475 -1.58,-0.432 0.773,1.04 -2.583,3.581 -3.333,1.122 -0.391,-1.283 2.088,-1.258 2.43,-1.631 0.496,-0.541 -0.146,-0.989 -0.2,-1.529 -0.068,-0.674 0.989,-1.027 1.314,-1.49 -2.24,0.992 -3.4,-0.533 -5.4,-0.864 0.36,-0.508 0.905,-0.885 1.52,-1.008 -1.253,-1.89 -0.365,-1.584 1.034,-2.981 0.641,-0.641 0.9,-2.553 0.977,-3.427 0.274,-3.147 -4.591,-2.48 -4.971,-5.256 0.229,1.828 -1.644,1.03 -2.613,0.683 -1.225,-0.439 -3.851,0.943 -1.986,1.693 -1.419,0.278 -2.261,2.466 -2.142,3.806 0.099,1.104 -3.16,2.316 -3.908,2.818 -0.723,0.485 -1.393,0.841 -1.801,1.656 -0.666,1.33 0.633,1.988 0.313,3.008 -0.758,2.419 -2.799,1.608 -4.606,2.711 -1.236,0.755 -2.522,-1.225 -3.881,-0.969 -1.973,0.372 -39.49057,50.96875 -39.03757,52.18975 z"
       id="peking"
       stroke="#000000"
       stroke-width="0.5" />
       </svg>