<svg>
    <path
       style="fill:#dccfbe;fill-opacity:1"
       d="m 143.03687,135.96125 c 1.941,-0.734 2.819,0.271 2.799,-2.355 -0.011,-1.305 0.988,-0.864 1.905,-0.224 0.862,0.604 1.313,1.616 2.086,2.319 0.747,0.679 1.6,1.228 2.345,1.908 1.526,1.392 2.19,2.166 4.385,2.505 1.36,0.21 3.291,0.356 4.62,-0.038 0.733,-0.217 3.204,-2.359 3.456,-3.046 0.291,-0.792 1.383,-0.963 1.983,-1.478 0.695,-0.597 1.298,-1.308 2.057,-1.831 1.982,-1.365 3.755,0.716 4.965,2.167 -2.644,0.995 0.938,3.218 -0.538,3.553 -2.74,0.622 0.102,2.232 1.271,2.96 0.824,0.513 1.561,1.305 2.445,1.711 0.357,0.163 1.435,-0.047 1.545,0.177 1.099,2.233 0.937,5.913 3.409,7.209 2.102,1.104 4.602,0.585 6.727,1.494 1.381,0.592 1.845,2.133 2.961,3.026 1.221,0.978 3.07,1.668 4.499,2.304 2.687,1.196 6.292,2.029 9.175,1.164 3.465,-1.038 7.815,-2.716 11.486,-2.144 -0.74,0.278 -1.532,0.193 -2.3,0.288 0.529,0.395 2.597,1.169 2.891,0.093 0.257,-0.942 -1.167,-3.306 -1.45,-4.269 1.712,0.075 3.008,-0.313 4.625,-0.78 1.923,-0.556 0.668,-1.186 1.5,-2.466 0.827,-1.272 2.675,-2.531 4.066,-3.056 2.024,-0.765 3.98,0.409 6.009,-0.033 -0.698,-1.146 0.769,-1.669 1.665,-1.424 0.648,0.176 0.836,-0.532 1.534,-0.111 0.536,0.323 0.921,0.562 1.576,0.402 1.535,-0.373 1.744,-0.003 2.502,1.401 0.722,1.336 3.052,1.396 4.395,1.639 1.497,0.269 2.4,1.637 3.977,1.762 1.757,0.139 3.151,-0.152 4.865,0.487 1.689,0.63 2.054,1.313 2.975,2.735 0.938,1.448 3.108,1.333 4.432,2.227 1.175,0.793 1.811,2.511 3.075,3.121 1.387,0.668 4.054,0.145 5.574,0.145 0.56,0 0.522,2.312 0.594,2.681 0.118,0.617 0.595,1.06 0.698,1.7 0.188,1.163 -0.689,0.96 0.224,1.749 0.564,0.488 1.089,2.557 1.176,3.289 0.138,1.153 -0.908,1.945 -0.698,3.175 0.285,1.675 0.864,5.266 -1.633,5.55 0.224,0.315 1.083,1.021 1.01,1.44 -0.118,0.67 -1.647,0.874 -1.936,1.745 -0.518,1.563 0.388,5.239 2.293,5.368 2.445,0.166 0.184,2.123 -0.268,3.324 -0.821,2.188 2.104,5.497 2.721,7.563 0.638,2.141 -0.205,5.122 1.543,6.869 1.325,1.325 4.337,0.313 5.969,1.13 1.705,0.855 1.437,3.487 1.004,4.936 -0.445,1.49 -1.609,2.824 -2.471,4.093 -0.688,1.014 -2.424,2.719 -2.51,3.979 -0.055,0.8 0.858,1.4 1.371,1.854 1.05,0.927 1.914,2.084 2.695,3.239 1.573,2.326 2.54,5.026 5.261,6.231 0.926,0.41 1.896,0.714 2.808,1.159 0.855,0.418 1.768,1.642 2.737,1.705 1.349,0.087 1.65,4.784 1.734,5.979 0.24,3.395 1.061,2.109 3.426,2.779 1.1,0.312 0.525,2.618 0.444,3.8 -0.164,2.389 -7.822,0.421 -6.592,3.654 -0.723,-0.162 -1.887,0.403 -2.5,0.733 -1.231,0.662 -0.459,2.242 -0.74,3.299 -0.388,1.461 -0.705,2.466 -0.534,4.077 0.071,0.675 0.289,2.26 -0.906,1.826 0.556,1.885 -3.554,0.201 -4.204,-0.001 -0.729,-0.227 -2.404,-0.073 -2.597,-1.09 -0.268,-1.404 -1.9,-0.566 -1.188,0.083 -0.323,0.061 -3.982,-0.048 -4.287,-0.293 -1.173,-0.938 -3.441,-0.799 -4.751,-0.396 -1.105,0.341 -1.905,-0.271 -2.758,-0.878 -1.139,-0.81 -2.08,-0.317 -3.312,-0.649 -0.981,-0.265 -1.835,0.538 -2.823,0.128 -0.908,-0.377 -1.13,-1.666 -2.16,-0.504 0.271,-1.406 -2.741,-1.004 -3.579,-1.788 -1.76,-1.647 -2.279,-5.3 -2.681,-7.563 -0.504,-2.846 -3.072,-4.414 -5.867,-4.2 -1.274,0.098 -2.183,1.163 -3.374,1.508 -0.993,0.288 -2.26,0.484 -1.687,1.638 0.367,0.739 -2.216,0.409 -2.39,0.451 -1.286,0.311 -1.782,1.648 -2.882,2.196 -1.853,0.924 -3.544,-1.602 -5.336,-1.602 -2.203,0 -3.437,0.431 -4.801,-1.594 -0.682,-1.011 -2.2,-1.338 -3.23,-1.908 -1.344,-0.742 -2.652,-1.552 -4.054,-2.186 1.352,-1.284 -1.952,-2.478 -2.72,-2.828 -0.697,-0.319 -1.321,-0.94 -2.06,-1.118 -1.038,-0.25 -2.431,0.161 -3.298,-0.492 -1.917,-1.443 -2.384,-2.76 -3.652,-4.768 -0.6,-0.949 -0.193,-2.249 -1.145,-3.016 -0.649,-0.523 -1.674,-0.812 -1.676,-1.819 1.184,0.115 1.012,-0.925 0.132,-1.121 -0.587,-0.131 -2.059,-0.016 -1.462,-1.064 0.772,-1.355 -1.494,-2.836 -2.2,-3.547 -1.19,-1.198 -2.056,-2.474 -2.659,-4.037 -1.034,-2.677 -3.124,2.008 -4.26,0.407 -0.763,-1.073 -1.91,-0.31 -2.417,-1.324 -0.243,-0.485 -1.725,-0.745 -2.184,-1.482 0.747,-0.049 1.491,0.243 2.229,0 -0.244,-0.998 -1.413,-1.268 -2.229,-0.792 0.188,0.222 0.381,0.438 0.58,0.647 -2.141,-0.28 1.35,4.627 -2.38,3.097 0.256,0.749 -0.391,0.945 -0.965,0.692 -0.806,-0.354 -0.841,-1.285 -1.127,-2.003 -0.589,-1.482 -2.675,-1.604 -2.922,-3.438 -0.156,-1.166 0.376,-3.487 -1.276,-3.436 -2.599,0.081 -1.789,-3.48 -1.437,-5.246 0.47,-2.347 -0.691,-2.778 -2.063,-4.427 -1.395,-1.677 -1.129,-2.643 -3.394,-3.072 -1.728,-0.327 -2.867,-2.176 -4.236,-3.12 -0.747,-0.515 -1.621,-1.163 -2.577,-1.083 -1.601,0.132 -0.643,-0.77 -1.813,-1.221 2.563,-0.782 -2.482,-4.771 -3.298,-5.466 -0.597,-0.509 -1.12,-1.116 -1.703,-1.643 -0.865,-0.781 -0.071,-0.962 0.286,-1.939 0.326,-0.89 0.149,-1.324 -0.58,-1.894 -0.726,-0.567 -0.154,-1.407 -0.035,-2.091 0.463,0.285 0.967,0.429 1.511,0.433 -0.119,-0.638 -0.433,-1.231 -0.501,-1.88 -0.12,-1.123 1.123,-0.941 1.211,-1.773 0.128,-1.214 0.175,-0.87 1.194,-0.864 0.959,0.005 0.849,-0.866 0.527,-1.417 -0.538,-0.926 -1.84,-1.813 -1.51,-3.043 0.284,-1.062 1.904,-0.79 2.178,-1.966 -0.695,0.202 -1.196,-0.321 -1.875,-0.252 -0.826,0.084 -1.72,0.482 -2.524,0.036 -1.217,-0.674 -1.414,-1.66 -3.021,-1.296 1.1,-2.538 -3.011,-3.271 -2.845,-4.968 0.097,-0.989 0.02,-1.339 -0.917,-1.733 -0.241,-0.102 -1.465,-3.283 -1.464,-3.721 0.002,-1.531 -0.879,-0.918 -1.545,-1.963 -0.679,-1.065 0.163,-2.433 -1.219,-3.119 -0.429,-0.214 -2.052,-0.587 -1.986,-1.272 0.099,-1.025 0.489,-2.578 1.266,-3.312 -1.727,-0.586 -1.428,-2.957 -1.904,-4.334 -0.21,-0.608 -1.369,-0.967 -1.063,-1.738 0.344,-0.864 -0.873,-2.342 -1.423,-2.994"
       id="persia"
       stroke="#000000"
       stroke-width="0.5" />
       </svg>