<svg>
    <path
       style="fill:#ffffff;fill-opacity:1"
       d="m 664.02687,458.59325 c -0.245,2.565 5.35,4.75 5.26,2.376 0.027,0.67 1.017,0.744 0.95,1.021 -0.201,0.847 1.416,1.213 2.013,1.433 0.921,0.339 1.471,-0.408 2.26,0.495 0.719,0.824 1.81,0.915 2.838,1.011 -0.716,-0.983 -2.25,-0.124 -2.628,-1.594 -0.244,-0.953 0.498,-1.752 1.328,-0.925 -0.796,-0.499 -0.847,-1.277 -0.581,-2.097 0.167,-0.395 0.293,-0.802 0.379,-1.222 0.213,-1.005 0.741,-0.613 1.352,-1.218 -0.503,0.053 -1.006,0.101 -1.51,0.144 0.694,-0.664 0.016,-1.451 0.221,-2.231 0.75,0.006 1.415,0.393 2.159,0.432 -2.607,-1.956 1.313,-4.282 2.925,-4.538 2.552,-0.405 6.229,-0.939 8.382,-2.456 1.86,-1.31 1.92,-4.002 3.57,-5.487 2.114,-1.902 3.326,-4.094 3.483,-6.959 1.507,0.045 1.805,0.81 2.355,2.019 0.323,0.71 2.139,2.679 2.918,2.712 1.381,0.059 1.772,-2.784 1.188,-3.608 -1.316,-1.858 0.31,-2.611 1.308,-3.715 0.348,1.824 -0.03,4.37 2.311,4.896 0.108,-1.41 -0.227,-3.004 -0.955,-4.218 -0.932,-1.552 0.832,-0.637 1.392,-1.084 0.517,-0.413 2.312,-1.796 0.884,-2.351 -2.156,-0.838 -0.048,-2.439 0.619,-3.364 -0.178,1.821 2.072,-0.156 2.47,-0.934 0.607,-1.188 0.8,-2.535 1.357,-3.744 0.317,-0.689 0.713,-0.355 1.073,-0.794 0.437,-0.531 0.806,-1.433 1.268,-2.053 1.011,-1.355 0.895,-3.324 2.192,-4.571 1.008,1.186 -0.201,2.409 0.28,3.672 0.824,-0.524 1.585,-3.679 2.604,-3.493 0.069,0.013 2.517,5.6 2.875,3.062 0.128,1.043 2.063,1.501 1.922,2.753 -0.093,0.827 -1.245,0.523 -0.948,1.653 0.348,1.322 0.178,1.66 -1.123,2.146 0.812,-0.466 1.682,0.053 2.426,-0.372 0.608,-0.347 0.937,-1.22 1.795,-0.859 1.623,0.682 0.105,1.806 -0.691,2.095 0.165,1.559 1.67,0.065 2.265,-0.313 1.277,-0.812 2.789,1.076 2.916,2.185 0.881,-0.934 2.38,0.719 2.739,1.439 0.708,-0.968 2.712,-0.218 2.74,0.932 0.042,1.661 -3.604,2.974 -4.915,2.872 -0.911,-0.071 -4.406,-1.292 -3.327,1.257 0.425,1.004 2.745,1.429 2.553,2.644 0.71,-0.445 1.279,0.219 0.867,0.89 -0.442,0.723 -1.447,0.564 -2.153,0.622 -2.26,0.182 -3.2,0.76 -5.124,-0.863 -0.167,0.518 0.193,1.6 -0.325,1.959 -0.785,0.544 -1.896,-0.578 -2.478,-0.958 -1.729,-1.128 -4.083,0.636 -5.627,-0.857 -0.109,1.731 -1.258,0.146 -2.096,0.376 -0.623,0.171 -0.814,-0.417 -1.255,0.292 -0.491,0.793 -1.253,-0.31 -1.83,-0.524 -0.168,0.77 -0.811,1.008 -1.149,1.655 -0.438,0.838 -0.66,2.005 -0.775,2.938 -0.091,0.738 -0.196,1.613 0.027,2.34 0.347,1.132 -0.072,1.269 -0.313,2.329 -0.387,1.696 0.123,2.488 -1.813,2.528 -2.099,0.043 -0.81,3.689 -0.226,4.411 -1.166,0.403 -4.292,2.373 -2.898,3.917 0.809,0.895 -2.133,3.913 -1.852,5.299 -1.201,0.061 -1.211,-0.777 -2.453,0.009 -0.856,0.542 -1.728,-0.311 -2.569,0.143 -1.148,0.619 -1.44,1.63 -2.974,1.384 -1.012,-0.163 -3.096,-0.874 -3.643,-1.809 -0.745,-1.272 -5.502,-1.106 -6.348,0.417 -0.399,0.717 -0.634,1.614 -0.896,2.385 0.054,-0.158 -2.323,1.254 -2.221,1.246 -0.698,0.054 -1.396,0.154 -2.09,0.25 -0.825,0.113 -1.519,-0.52 -2.379,-0.574 -1.491,-0.094 -2.461,0.696 -3.728,1.3 -1.736,0.828 -1.795,-0.581 -3.209,-0.951 -0.435,-0.113 -1.413,-1.269 -1.831,-1.641 -0.524,-0.468 -0.736,-1.158 -1.25,-1.628 -0.505,-0.463 -1.155,-0.421 -1.499,-1.093 -0.314,-0.615 -0.143,-2.145 -0.793,-2.506 -1.328,-0.739 -0.149,-1.262 0.011,-2.335"
       id="sarawak"
       stroke="#000000"
       stroke-width="0.5" />
       </svg>