<svg>
    <path
       style="fill:#ebe084"
       d="m 626.72618,190.00874 c -1.973,0.372 37.00939,-52.49808 37.46239,-51.27708 0.794,2.137 4.3433,6.55459 6.0633,7.75859 0.542,0.38 1.832,0.521 2.447,0.277 1.022,-0.403 1.258,1.076 2.13,1.221 0.237,-0.504 0.237,-1.008 0,-1.512 1.459,0 3.461,1.464 4.146,2.754 0.944,1.778 -0.397,3.495 1.546,4.988 1.305,1.002 2.896,1.273 4.483,1.019 1.116,-0.18 2.464,-0.795 1.194,-1.921 0.614,-0.36 3.481,-2.736 1.37,-2.735 1.212,0.226 2.323,-0.839 3.414,-1.168 1.03,-0.312 2.687,0.764 3.305,1.517 0.538,0.656 0.99,0.578 1.735,0.354 0.429,-0.128 0.949,0.731 1.167,0.952 0.999,1.013 2.684,-0.478 3.699,0.576 0.117,-0.306 0.214,-0.617 0.29,-0.936 1.523,1.073 3.64,0.273 5.109,1.368 -0.266,0.138 -0.529,0.282 -0.789,0.432 1.591,1.29 -0.819,1.652 0.688,2.726 0.604,0.431 0.527,1.086 -0.27,1.402 -1.315,0.522 -1.45,-0.681 -1.998,-1.464 -0.166,0.375 -0.359,0.735 -0.58,1.08 -0.16,-1.083 -0.837,-0.768 -1.445,-0.219 -0.352,0.317 -2.864,2.111 -1.435,0.58 -0.817,0.528 -2.293,1.925 -3.215,2.092 -0.652,0.118 -2.21,-0.751 -1.825,0.571 1.059,-0.93 2.007,0.46 1.369,1.44 -0.31,-0.759 -1.199,-0.81 -1.369,0.072 -0.146,0.748 0.685,1.184 0.539,1.955 -0.066,0.353 -1.146,0.857 -1.47,0.781 -1.021,-0.242 -0.591,-1.434 -1.45,-1.872 0.977,1.394 -0.386,0.234 -1.149,0.36 0.02,0.938 1.179,2.255 2.16,2.232 -2.042,0.308 -0.856,3.904 -3.311,3.312 0.032,0.97 -0.189,3.019 -0.69,3.858 -0.834,1.396 -0.135,2.315 0.261,3.702 1.031,-0.984 2.697,0.42 3.522,1.03 1.627,1.204 3.526,1.648 5.343,2.476 1.423,0.649 1.952,2.793 2.795,3.981 1.278,1.8 2.494,3.883 4.142,5.363 1.135,1.02 2.239,2.55 2.34,4.084 0.12,1.822 2.881,2.08 4.197,2.665 1.154,0.513 0.639,1.196 1.201,2.072 0.434,0.673 1.142,0.674 1.809,1.009 1.098,0.552 3.545,1.767 2.802,3.383 -1.56,-0.431 -3.283,-1.986 -4.985,-1.5 -2.285,0.653 -2.202,-0.978 -4.155,-1.704 -1.961,-0.729 -2.804,1.764 -4.455,0.86 -0.817,-0.447 -1.276,-1.21 -1.797,-1.946 -0.646,-0.913 -1.58,-0.861 -2.458,-1.397 0.445,0.342 0.612,0.933 0.351,1.439 0.403,-0.467 0.837,-0.491 1.3,-0.072 -0.271,-0.206 -0.535,-0.422 -0.79,-0.647 0.873,-0.327 2.637,1.974 0.94,1.224 1.17,0.782 2.528,2.522 4.164,1.779 0.657,-0.299 0.581,-0.936 1.418,-0.892 0.721,0.037 1.646,0.357 2.11,0.943 0.288,0.364 -0.051,0.808 0.438,1.05 0.796,0.396 1.732,0.514 2.56,0.837 1.788,0.699 3.332,2.311 5.057,3.217 0.951,0.5 3.023,2.487 2.962,3.689 -0.028,0.558 -1.198,0.345 -1.514,0.374 -1.223,0.111 -1.886,1.114 -2.79,1.787 -0.603,0.449 -1.344,0.681 -1.476,1.47 -0.059,0.351 -0.128,1.203 -0.637,1.234 -0.869,0.052 -1.367,-0.79 -2.354,-0.41 -0.829,0.319 -1.438,1.066 -2.099,1.625 0.465,-0.227 2.202,-1.662 2.706,-1.309 0.958,0.671 0.976,2.494 2.413,2.461 -0.301,-0.19 -0.614,-0.358 -0.939,-0.504 1.707,0.259 2.769,-1.77 4.415,-1.299 1.134,0.324 1.696,1.249 2.471,2.034 0.921,0.932 2.964,1.134 4.204,1.425 -0.848,0.398 -1.223,1.041 -1.8,1.728 -0.198,0.365 -0.438,0.701 -0.72,1.008 -0.436,0.341 -1.021,0.16 -1.44,0.576 0.141,0.279 0.331,0.519 0.57,0.72 0.446,-0.63 1.292,-1.51 2.09,-0.792 -0.417,-0.422 -0.334,-1.564 0.495,-1.112 0.92,0.503 0.114,1.281 0.556,2.019 0.009,0.015 0.88,2.443 -0.052,1.839 -0.518,-0.336 -0.464,-1.201 -0.929,-1.594 0.116,0.474 0.188,0.954 0.22,1.44 -0.611,0.16 -1.018,-0.226 -1.15,-0.793 0.261,1.335 -0.122,0.488 -0.439,0 -0.126,0.58 -0.366,1.108 -0.721,1.584 0.928,-0.188 2.315,0.694 2.45,1.656 -0.427,-0.452 -0.76,-0.404 -1,0.145 0.757,-0.054 1.623,1.001 0.759,1.527 -1.072,0.653 -2.582,-0.628 -3.499,-1.023 0.487,0.386 0.778,1.199 1.37,1.439 0.836,0.339 1.405,-0.346 1.917,0.678 0.245,0.489 1.598,1.726 0.926,2.326 -0.61,0.545 -1.382,0.506 -1.042,1.604 -0.939,-0.432 -0.99,-1.689 -1.95,-2.088 -0.271,0.476 -0.301,0.574 -0.79,0.792 1.428,0.192 -0.686,4.439 -3.021,1.584 0.312,1.05 2.635,0.847 2.329,2.06 -0.263,1.044 -1.331,2.938 -0.029,3.629 -0.732,0.343 -0.716,0.813 -0.613,1.503 0.222,1.489 -1.029,-0.074 -0.606,0.944 -0.486,-0.425 -0.966,-0.857 -1.439,-1.296 -0.021,0.52 2.518,2.313 0.43,1.872 0.372,0.854 -0.287,1.634 -1.08,1.872 0.869,1.215 1.518,3.375 -1.01,2.736 0.763,-0.314 1.12,-1.102 0.79,-1.872 -0.344,0.273 -0.606,0.609 -0.79,1.008 -0.483,-0.35 -0.86,-0.859 -1.011,-1.44 -0.298,0.532 -0.837,0.854 -1.439,0.576 0.372,0.412 0.519,0.892 0.439,1.44 1.182,-0.533 2.549,1.533 0.86,1.368 0.067,0.889 1.172,1.366 1.44,0.288 0.891,0.921 -0.099,0.879 -0.705,1.476 -0.625,0.614 -0.943,1.462 -1.235,2.268 -0.776,-0.725 -1.963,-1.135 -2.96,-1.439 0.781,0.489 1.263,1.863 2.372,1.678 1.097,-0.184 1.48,-1.331 2.388,0.05 -0.738,0.305 -0.474,1.511 -0.706,2.274 -0.385,1.26 1.564,1.3 1.137,2.622 -0.227,-0.96 -0.493,-0.96 -0.8,0 -0.451,-0.693 -1.091,-1.283 -1.87,-1.584 -0.053,0.605 -0.405,1.138 -0.931,1.439 0.523,0.284 1.838,0.466 1.624,1.368 -0.309,1.301 -1.334,-0.572 -1.334,1.081 -0.164,-0.745 -0.875,-2.033 -1.659,-0.936 0.993,0.349 0.127,1.819 1.289,1.871 -0.258,0.797 -1.939,2.021 -1.939,0.648 -0.794,0.634 -0.611,0.804 0.051,1.225 0.823,0.524 0.115,1.773 -0.271,2.303 -0.422,-0.417 -0.829,-0.85 -1.22,-1.296 -0.251,0.948 -1.494,1.549 -2.01,0.432 -0.55,0.792 -1.893,0.292 -1.08,1.439 -0.548,-0.16 -1.101,-0.185 -1.66,-0.071 0.504,0.548 1.231,0.756 1.94,0.504 -0.143,0.576 0.135,0.915 0.72,0.936 -0.203,0.532 -0.689,0.53 -1.062,0.852 -0.582,0.504 -0.195,1.465 -1.099,2.028 0.32,-0.699 2.52464,-8.52751 -2.76706,1.32606 z"
       id="shanghai"
       stroke="#000000"
       stroke-width="0.5" />
       </svg>