<svg>
    <path
       id="siam"
       style="fill:#54bff9;fill-opacity:1"
       d="m 567.91187,306.06625 c 0.595,-0.129 1.165,-0.808 1.756,-0.795 0.601,0.013 0.837,0.599 1.345,-0.178 m 29.44573,8.09757 c -0.162,1.667 0.42827,-1.47657 -0.43373,0.0914 -0.978,1.778 0.92,2.184 1.029,3.814 0.429,-1.125 0.685,0.571 1.15,1.184 0.626,0.824 1.354,1.463 2.2,2.053 0.805,0.562 1.619,1.146 2.338,1.817 1.033,0.964 0.58,2.001 0.932,3.227 -0.444,-0.346 -0.947,-0.538 -1.51,-0.576 1.798,0.305 2.647,2.548 4.053,3.674 1.026,0.822 4.278,2.423 3.438,4.174 1.1,-0.635 2.849,1.567 3.459,2.232 -0.306,-0.14 -0.619,-0.26 -0.939,-0.36 0,0 -44.95243,11.33398 -44.357,11.461 -0.861,-1.151 -1.702,-2.284 -1.886,-3.771 -0.104,-0.836 0.142,-2.758 1.353,-1.664 -0.261,-1.018 0.943,-0.8 1.19,-1.514 0.352,-1.013 -0.289,-3.383 -0.447,-4.471 -0.262,-1.798 1.146,-0.878 1.781,-1.885 0.407,-0.646 0.427,-2.043 -0.214,-2.571 -0.181,0.567 -0.471,1.071 -0.87,1.513 -1.214,-1.503 -1.563,-3.26 -2.08,-5.04 -0.328,-1.133 -2.003,-2.254 -2.794,-3.136"

       stroke="#000000"
       stroke-width="0.5" />
       </svg>