<svg>
    <path
       style="fill:#ebe084;fill-opacity:1"
       d="m 352.19687,135.31325 c 1.015,0.005 1.729,-0.506 1.511,-1.584 -0.302,-1.48 -1.019,-1.203 -0.565,-2.765 0.368,-1.264 1.43,-0.818 2.365,-1.195 1.089,-0.439 1.523,-1.982 2.81,-2.016 -0.208,-0.464 -0.258,-0.944 -0.149,-1.44 0.741,0.153 2.242,0.881 2.927,0.265 0.514,-0.462 1.085,-1.231 1.818,-1.333 0.765,-0.106 1.128,1.881 1.647,2.336 0.882,0.773 2.594,-0.276 3.716,-0.178 2.063,0.179 2.215,-2.749 2.449,-4.184 0.192,-1.183 0.734,-1.627 2.021,-1.436 1.633,0.242 3.147,0.273 4.722,-0.077 0.822,-0.183 1.963,0.123 2.637,-0.519 0.744,-0.709 0.618,-2.109 1.323,-2.937 1.771,-2.083 5.24,-2.29 7.305,-3.976 0.83,-0.678 1.254,-1.044 2.309,-1.07 1.355,-0.034 0.986,-0.525 0.573,-1.509 -0.526,-1.253 -0.984,-2.351 -1.601,-3.555 -0.809,-1.576 0.907,-1.927 1.994,-2.203 -0.423,-0.4 -0.903,-0.712 -1.44,-0.936 0.443,-0.657 1.192,-1.645 2.091,-1.008 0.581,-1.317 -1.016,-1.447 -1.082,-2.542 -0.088,-1.434 -1.507,-2.438 -2.299,-3.506 -1.086,-1.466 -2.235,-2.94 -2.858,-4.677 -0.41,-1.145 0.27,-3.008 -0.815,-3.505 -0.916,-0.419 -4.647,0.017 -3.602,-1.539 0.593,-0.881 2.807,-1.13 3.791,-1.438 1.792,-0.561 3.565,-0.705 5.369,-1.354 1.796,-0.646 2.071,0.26 3.552,0.852 1.189,0.475 2.193,-0.746 3.377,0.083 1.363,0.955 1.388,-0.624 1.104,-1.555 -0.425,-1.395 -2.162,-0.586 -2.866,-1.627 -0.602,-0.89 0.032,-2.592 0.109,-3.563 0.116,-1.464 -0.238,-3.002 -0.233,-4.479 0.004,-1.397 0.6,-2.932 0.319,-4.291 -0.338,-1.639 0.51,-2.101 1.962,-1.404 1.227,0.588 2.29,1.147 3.634,1.463 1.752,0.411 3.426,-0.246 5.181,-0.071 1.345,0.134 1.813,1.904 3.053,0.859 0.955,-0.804 2.265,-0.912 3.168,-1.718 1.646,-1.469 -2.465,-5.515 -2.933,-7.1 -0.254,-0.86 -0.441,-3.209 0.42,-3.812 0.826,-0.58 2.036,0.014 2.951,-0.396 2.317,-1.037 2.142,-2.114 1.408,-4.265 -0.479,-1.405 1.131,-1.506 2.049,-1.413 1.469,0.148 2.136,0.174 3.546,-0.269 0.625,-0.196 2.223,1.023 1.725,1.518 -0.799,0.793 0.392,1.619 1.287,1.808 1.76,0.369 0.263,1.229 1.276,1.707 1.409,0.663 3.322,0.592 4.39,1.893 1.198,1.46 4.665,3.22 6.488,2.646 1.207,-0.38 4.265,2.521 4.63,1.015 0.66,0.211 0.697,0.803 1.22,1.152 0.71,0.475 1.477,0.515 2.165,1.088 1.296,1.076 1.772,2.722 3.024,3.829 1.095,0.969 2.419,1.625 3.538,2.563 1.857,1.556 1.209,2.88 1.916,4.811 0.479,1.306 1.833,1.578 1.199,3.221 -0.534,1.383 -0.989,2.659 0.154,3.897 0.821,0.89 1.973,2.402 3.275,2.297 1.655,-0.134 3.331,0.894 4.958,0.974 1.641,0.081 3.33,0.582 4.955,0.517 1.556,-0.063 3.05,-0.178 4.609,-0.062 3.72,0.275 6.285,2.425 9.655,3.779 1.538,0.618 2.931,1.551 4.477,2.138 1.123,0.426 2.268,0.346 3.439,0.507 1.474,0.204 0.271,1.241 1.349,1.877 1.467,0.865 2.296,1.189 3.3,2.717 0.792,1.206 1.67,2.439 2.62,3.526 0.84121,0.96344 7.35607,3.50754 36.6771,44.07957 9.29924,12.86754 16.03939,27.82691 31.9029,50.01793 5.38764,7.53662 4.54288,19.46807 9.0655,25.82341 7.47054,10.49785 2.40782,15.79074 8.0016,23.24156 0,0 18.94997,33.55501 20.5759,34.88453 -1.137,-1.191 -1.054,0.1 -1.442,0.999 -1.399,-1.609 -1.582,-1.957 -2.672,0.056 -1.003,1.853 -2.418,-0.119 -3.374,-0.912 -2.075,-1.721 -2.418,0.75 -3.296,2.092 -0.475,0.725 -1.1,-0.116 -1.663,-0.065 -0.381,0.031 -0.753,0.103 -1.118,0.214 -0.491,0.147 -0.371,-0.665 -0.802,-0.665 -1.881,0 -0.966,3.637 -0.5,4.332 0.528,0.788 1.204,1.542 1.487,2.466 0.203,0.292 0.389,0.594 0.558,0.907 0.069,0.526 -0.379,0.984 -0.36,1.512 0.019,0.559 1.181,1.735 0.65,2.231 -0.716,0.671 -1.541,-0.849 -2.433,-0.58 -1.36,0.412 -1.517,0.51 -2.074,-0.894 -0.48,-1.208 -1.231,-2.381 -1.323,-3.71 -1.219,0.905 -3.312,3.439 -4.919,2.403 -0.768,-0.495 -0.939,0.651 -1.582,0.517 -0.658,-0.139 -0.865,-1.588 -0.559,-2.056 -2.515,-0.033 -0.668,-2.502 -2.006,-3.164 -1.466,-0.726 -3.269,-0.632 -4.805,-0.416 -1.98,0.279 -0.411,-2.579 -0.289,-3.276 0.181,-1.027 -1.004,-3.95 0.909,-3.873 -0.512,-1.516 -1.48,-1.656 -2.95,-1.656 -1.938,0 -1.765,-1.575 -2.564,-2.81 -0.073,-0.113 -0.747,-0.859 -0.615,-1.048 0.673,-0.969 -0.693,-1.633 -1.105,-2.352 -0.691,-1.208 1.054,-1.728 0.755,-2.933 -1.748,1.29 -3.918,-0.35 -5.732,0.67 -0.419,0.235 -2.878,2.182 -3.307,1.844 -0.876,-0.692 0.049,-1.415 0.335,-2.125 0.284,-0.704 -0.201,-1.825 -0.586,-2.406 -0.597,-0.902 -0.958,-0.782 -1.186,-2.076 -0.17,-0.962 0.243,-1.66 1.266,-1.739 -0.778,-1.271 -0.078,-2.268 -0.149,-3.6 1.687,1.526 1.8,-2.423 1.95,-2.952 2.479,0.178 0.691,-0.879 2.3,-2.088 0.253,-0.19 1.148,0.313 1.205,-0.125 0.114,-0.877 -0.989,-1.52 -1.275,-2.251 1.481,0.577 0.72,-2.089 0.72,-2.819 0,-1.588 -0.457,-3.434 -0.993,-4.924 -0.427,-1.186 -0.726,-2.426 -0.993,-3.655 -0.314,-1.448 -1.16,-1.667 -2.483,-2.282 0.294,0.575 -0.011,1.025 -0.57,1.225 -0.516,-1.038 -1.486,-2.083 -1.819,-3.177 -0.294,-0.966 -0.26,-1.795 -1.063,-2.517 -1.328,-1.195 -3.387,-1.667 -4.538,-2.947 -0.031,0.981 -0.088,3.82 -1.689,2.252 -0.871,-0.852 -1.386,-0.079 -2.255,-0.474 -0.795,-0.36 -1.772,-1.067 -2.676,-1.058 -0.836,0.009 -1.16,1.08 -2.053,0.722 -0.64,-0.256 -0.117,-1.178 0.084,-1.534 0.317,-0.561 0.922,-1.14 1.081,-1.757 0.255,-0.991 -1.564,-1.444 -1.202,-2.688 -0.641,0.183 -1.313,1.063 -2.041,0.896 -1.623,-0.372 0.182,-1.874 0.741,-2.119 -0.651,-0.59 -1.525,-1.384 -2.243,-1.898 -0.711,-0.51 -2.815,1.07 -3.4,1.479 -0.602,0.421 -0.308,1.354 -0.882,1.747 -0.513,0.352 -1.452,-0.096 -1.901,-0.285 -0.172,-0.073 -2.312,-1.381 -1.434,-0.324 -0.658,-0.386 -1.675,-1.178 -2.38,-1.368 -0.812,-0.219 -1.448,0.463 -2.241,0.932 -1.142,0.674 -1.757,1.938 -2.596,2.913 -1.063,1.237 -2.092,1.208 -3.581,1.468 -1.642,0.287 -1.002,1.398 -1.717,2.413 -0.657,0.932 -2.27,1.351 -2.558,2.457 -0.378,1.444 -0.394,2.501 -2.344,2.571 -1.255,0.044 -2.18,0.82 -3.413,0.655 -0.907,-0.121 -1.581,-0.213 -1.614,-1.21 -0.028,-0.887 -2.332,-1.599 -3.102,-1.695 -1.171,-0.146 -1.171,1.21 -2.495,0.584 -1.173,-0.554 -2.283,-0.543 -3.558,-0.562 -1.26,-0.018 -0.434,-1.42 -1.556,-1.757 -1.43,-0.428 -2.688,-0.339 -3.959,0.505 -1.335,0.887 -2.36,2.294 -3.048,3.723 -0.522,1.086 -1.579,2.805 -1.67,3.996 -2.121,-1.042 -0.645,-3.323 -1.3,-5.04 -1.023,-2.678 -3.52,-0.563 -5.399,-0.432 0.046,0.265 0.096,0.529 0.149,0.792 -1.628,-0.471 -3.923,0.134 -5.646,0.099 -1.555,-0.032 -2.551,-0.629 -3.992,-1.358 -0.503,-0.254 -1.358,-0.798 -1.958,-0.538 -0.534,0.231 -0.188,1.092 -0.76,1.196 -0.87,0.158 -2.582,-1.083 -2.624,-1.99 -0.207,0.17 -0.25,3.128 -0.986,1.9 -0.75,-1.25 -2.363,-1.987 -2.834,-3.412 -0.254,1.163 -4.161,0.677 -4.446,-0.35 -0.152,-0.549 0.412,-1.516 -0.03,-1.97 -0.458,-0.47 -1.841,0.586 -2.637,0.109 -1.266,-0.759 -4.113,-1.713 -4.615,-3.198 -0.617,-1.828 -2.501,-3.829 -4.425,-1.906 -0.693,0.693 -2.922,-2.281 -3.279,-2.709 -0.984,-1.178 -2.93,-1.425 -4.391,-2.314 -2.275,-1.385 -4.304,-2.924 -6.257,-4.674 -0.746,-0.669 -1.772,-0.57 -2.67,-0.859 -0.969,-0.312 -0.979,0.918 -2.02,0.519 0.396,2.62 -1.08,2.951 -2.608,1.276 -1.367,-1.499 -3.086,-2.199 -4.984,-2.717 -0.401,-0.11 -1.342,-0.228 -1.628,-0.574 -0.441,-0.535 0.375,-1.397 -0.58,-1.777 -0.723,-0.288 -1.084,-0.372 -1.714,-0.95 -1.08,-0.991 -1.792,-0.278 -2.945,-0.618 -1.74,-0.512 -2.442,-2.387 -3.605,-3.53 -1.173,-1.154 -2.442,2.119 -3.177,-0.185 -0.26,-0.811 0.054,-1.633 -0.431,-2.391 -0.49,-0.767 -0.682,-1.395 -0.83,-2.28 -0.16,-0.952 -1.113,-1.532 -1.771,-2.119 -0.973,-0.868 -0.749,-2.201 -1.576,-3.143 1.963,-1.462 2.348,-0.396 3.479,0.955 0.558,0.666 1.395,0.783 1.843,0.036 0.558,-0.933 1.727,-0.758 2.323,-1.569 0.734,-1 -0.456,-2.078 -1.043,-2.77 -0.466,-0.55 -0.229,-2.059 -0.802,-2.231 -2.342,-0.708 -3.221,-1.537 -4.069,-3.851 0,0 -12.41359,3.68312 -11.521,5.167 0.001,0.012 0.639,-2.504 -0.696,-1.435 -1.095,0.876 -1.426,0.541 -2.072,-0.538 -0.259,-0.435 -1.675,-0.501 -2.125,-0.782 -0.981,-0.613 -1.717,-2.137 -2.82,-2.549 -1.235,-0.461 10.44768,-9.67557 9.40568,-9.00057 -1.717,1.111 0.002,-6.87943 -2.09968,-6.78843 -2.319,0.102 -9.316,-0.379 -9.463,-3.731 -0.688,0.177 -1.679,1.287 -2.416,0.624 -0.572,-0.515 -2.104,-1.422 -2.405,-2.09 -0.276,-0.613 -0.207,-1.835 -0.395,-2.548 -0.258,-0.982 -0.742,-1.771 -1.486,-2.466 -1.049,-0.978 -2.852,-0.431 -3.503,-1.433 -0.706,-1.084 -3.015,-2.396 -3.904,-0.799 -0.717,-1.738 -2.714,-0.458 -3.397,-1.724 -0.902,-1.672 2.236,-0.966 2.69,-1.048 1.881,-0.339 1.136,-2.083 0.069,-2.739 -0.902,-0.557 -0.476,-0.849 -0.506,-1.724 -0.013,-0.391 -0.686,-1.565 -0.867,-1.984 -0.256,-0.592 -0.975,-0.656 -1.208,-1.316 -0.273,-0.774 -0.018,-1.605 -0.179,-2.395 -0.298,-1.457 -2.741,-1.856 -3.943,-2.119 -1.595,-0.351 -2.723,1.78 -3.939,0.249 -0.394,-0.495 -2.054,-2.758 -0.45,-2.768 -0.514,-0.724 -1.211,-1.279 -1.833,-1.901 -0.615,-0.612 -0.363,-1.685 -0.627,-2.426"
       id="sinkiang"
       stroke="#000000"
       stroke-width="0.5" />
       </svg>