<svg>
    <path
       style="fill:#dccfbe"
       d="m 732.42687,150.21725 c 0.646,-0.786 1.22,0.693 1.87,0.792 -2.442,-1.045 -1.295,-4.585 0.532,-5.636 1.506,-0.867 3.464,0.066 5.093,-0.231 0.505,-0.092 1.126,0.006 1.572,-0.31 1.07,-0.755 0.033,-1.44 0.433,-2.319 2.637,1.996 4.632,4.869 7.13,7.063 2.271,1.994 4.735,3.953 6.543,6.398 1.352,1.827 1.476,3.73 2.246,5.783 0.216,0.575 1.904,4.625 2.371,2.717 0.866,1.005 1.525,3.908 1.149,5.185 -0.249,-0.206 -0.488,-0.423 -0.72,-0.648 0.501,1.643 0.882,3.431 -1,4.32 -0.095,-0.915 -2.233,-0.588 -3.319,-1.152 0.731,1.329 -0.62,0.364 -0.86,1.512 0.98,-0.553 1.112,0.801 0.86,1.513 -0.682,-1.676 -2.913,-0.127 -3.381,-2.088 -0.114,1.615 -2.058,0.461 -2.59,1.728 0.337,0.333 0.847,0.471 1.238,0.724 0.719,0.465 -0.742,0.388 -0.229,1.437 -0.78,-0.563 -0.95,-1.597 -1.729,-2.16 -0.159,0.355 -0.353,0.691 -0.58,1.008 0.523,0.522 1.293,0.856 1.59,1.584 -0.36,0.02 -0.72,0.02 -1.08,0 0.252,0.151 0.492,0.319 0.721,0.504 -0.546,1.097 -1.534,-0.245 -2.021,-0.647 0.982,0.228 1.112,-1.589 -0.07,-1.44 -1.047,0.131 -1.312,2.156 -1.369,2.952 -0.58,-0.227 -1.061,-0.586 -1.44,-1.08 -0.009,0.719 -0.333,1.36 -0.58,2.016 -0.837,-0.212 -1.294,-1.091 -0.86,-1.871 -0.726,0.037 -2.78,-0.555 -2.09,-1.656 0.16,0.527 0.594,0.899 1.15,0.936 -0.528,-0.759 -0.382,-0.95 0.439,-0.574 -0.447,-0.312 -0.931,-0.552 -1.449,-0.722 0.552,0.093 1.009,-0.075 1.369,-0.504 -0.196,-0.265 -0.436,-0.48 -0.72,-0.647 -0.18,1.922 -2.358,-1.683 -2.88,-2.088 0.463,0.188 0.943,0.261 1.44,0.216 -1.175,-0.698 -1.38,-3.57 0,-4.104 -0.509,-0.039 -1.012,-0.111 -1.511,-0.216 0.144,-0.479 0.441,-0.826 0.894,-1.04 0.449,-0.27 0.35,-1.149 0.617,-1.552 -0.504,0.158 -1.007,0.158 -1.511,0 0.254,-0.566 0.693,-1.045 1.221,-1.368 -1.459,1.643 -4.303,-2.078 -3.38,-3.528 -0.953,0.487 -0.896,-0.325 -1.031,-0.989 -0.142,-0.698 -1.633,-1.763 -1.56,-0.379 -0.488,-0.846 -1.642,-0.785 -1.949,-1.8 0.726,0.003 1.066,-0.228 0.51,-1.008 0.502,1.063 0.646,1.063 0.43,0 0.584,-0.107 1.039,0.21 1.15,0.792 0.428,-0.524 0.381,-1.004 -0.141,-1.439 1.183,0.88 2.613,0.688 3.17,2.304 -0.298,-0.6 0.119,-1.104 0.57,-1.44 -0.732,0.141 -1.704,-0.335 -1.359,-1.224 -1.01,0.682 -2.734,-1.836 -0.801,-1.656 -0.924,-0.25 -1.746,-1.028 -2.403,-1.686 -0.178,-0.366 -0.337,-0.74 -0.477,-1.122 -0.399,-0.497 -0.969,-0.506 -1.218,-1.16"
       id="south_korea"
       stroke="#000000"
       stroke-width="0.5" />
       </svg>