<svg>
    <path
       style="fill:#dccfbe;fill-opacity:1"
       d="m 93.92879,276.43268 c -0.674,0.682 -2.45816,3.37259 -3.53516,2.8086 -1.412,-0.74 -1.86206,1.12732 -2.16406,1.98632 -0.583,1.655 -1.07786,2.59921 -2.88086,2.90821 -1.786,0.307 -2.25009,0.68156 -2.62109,2.47656 -0.811,3.925 -4.64686,0.92901 -6.50586,-0.084 -1.612,-0.878 -4.437267,-0.20776 -6.197267,-0.13476 -2.299,0.095 -4.62925,0.15176 -6.90625,-0.24024 0.177,-0.611 0.126,-3.11023 -0.75,-1.36523 -0.93,1.852 -2.522906,1.4375 -4.378906,1.4375 h -14.21875 l -52.76295,0.34479 c 0.194,5.758 -5.596002,9.10479 -5.502002,14.86579 l -1.961926,7.9301 c 0.597,12.398 8.440323,24.12503 8.440323,36.53503 -1.237,-0.384 -2.526719,-0.85789 -3.761719,-0.21289 -1.019,0.534 -1.995203,-0.0609 -3.033203,0.45312 -2.421,1.198 0.130188,3.01341 -1.382812,4.94141 -1.213,1.544 -1.4305,3.22325 -3.1875,4.15625 -1.106,0.586 0.02608,3.33047 0.705078,3.98047 -2.519,2.015 -4.146844,2.69951 -2.339844,6.10351 0.688,1.296 -0.169562,1.84189 -1.226562,2.58789 -1.129001,0.797 -1.327985,1.82388 -1.833985,3.04688 0.98,2.646 2.838328,0.15632 4.486328,1.11132 0.975,0.568 -0.500687,1.50063 -0.05469,2.26563 0.546,0.934 0.841062,2.17319 0.539062,3.24219 0.259,-0.131 0.522016,-0.25038 0.791016,-0.35938 0.784,1.26 -0.686875,2.65564 -0.04687,3.93164 0.634,1.27 2.263453,1.44028 2.814453,2.36328 0.809,1.356 0.829012,194.99104 1.429012,196.30904 29.335004,11.45584 72.21075,-11.38106 99.025677,3.76412 l 23.067997,-20.09316 10.64538,-18.7442 0.12173,-15.42213 5.74075,-7.50615 13.98983,-47.65018 -46.424211,-55.89278 c 0.46891,-1.39061 -4.41102,-29.64101 -4.46581,-31.14338 -0.064,-1.757 -0.04911,-2.58934 1.08789,-4.02734 0.864,-1.091 2.33859,-0.17889 2.30859,1.03711 0.608,-0.669 1.64833,-1.1395 1.36133,-2.1875 -0.253,-0.928 0.02548,-2.50597 0.27148,-3.41797 0.458,-1.701 -0.0045,-4.12947 1.5625,-5.10547 1.46,-0.91 2.01393,-4.11178 2.91993,-5.55078 0.925001,-1.468 2.122731,-0.97288 3.552731,-1.17188 0.951,-0.13299 0.55136,-2.8056 0.56836,-3.4746 0.046,-1.888 1.44081,-3.25936 1.75781,-5.06836 0.385,-2.205 0.61733,-4.79286 0.36133,-7.00586 -0.203,-1.766 -1.01769,-4.21464 -0.30469,-5.93164 0.911,-2.196 1.20772,-4.46202 2.13672,-6.66602 0.368,-0.874 0.79114,-1.86592 0.99414,-2.79492 0.222,-1.012 -0.54142,-1.75886 -0.35742,-2.75586 0.188,-1.015 0.442,-3.324 1.375,-3.875 0.677,-0.4 2.42359,0.35545 2.68359,-0.56055 0.506,-1.78 0.42668,-2.10465 2.38868,-2.84765 1.084,-0.411 3.44843,-1.09814 4.14843,-1.99414 0.51,-0.652 1.61677,-2.38029 1.50977,-3.23829 -0.167,-1.348 -2.31486,-0.92815 -2.38086,-2.16015 -0.934,0.84 -3.55889,-3.53835 -4.96289,-3.77735 -2.43,-0.413 -3.15281,-5.1192 -3.25781,-7.1582 -0.15,-2.904 -1.02253,-5.52195 -0.64453,-8.37695 0.168,-1.264 -0.25677,-2.70556 -0.75977,-3.85156 -0.696,-1.586 0.70969,-2.30424 1.05469,-0.74024 -0.094,-2.055 -2.45153,-3.34886 -3.01953,-5.25586 -0.686,-2.304 0.29973,-3.18887 -1.82227,-4.67187 -1.601,-1.119 -2.62583,-3.23733 -4.298831,-4.11133 -1.869,-0.977 -3.37867,-1.74194 -3.88867,-3.96094 z"
       id="sudan"
       stroke="#000000"
       stroke-width="0.5" />
       </svg>