<svg>
    <path
       id="sumatra"
       style="fill:#ffffff;fill-opacity:1"
       d="m 649.11687,498.69325 c -0.95,0.967 -1.174,2.638 -1.07,3.914 0.11,1.362 2.126,2.079 1.791,0.627 0.593,0.039 1.479,1.684 2.066,1.105 0.805,-0.794 1.628,-2.402 1.496,-3.569 -0.193,-1.707 -2.897,-2.355 -4.283,-2.077 m -17.85,-7.269 c 0.844,1.158 -1.296,1.682 -1.73,2.45 0.884,0.716 1.558,1.301 2.745,0.865 0.8,-0.293 2.125,0.39 2.353,1.21 0.203,0.726 0.76,1.597 0.878,2.236 0.274,1.471 -0.593,2.088 1.081,3.005 0.719,0.394 3.973,2.894 4.754,2.184 0.776,-0.707 -0.414,-1.035 -0.649,-1.619 -0.372,-0.924 0.763,-2.595 1.659,-2.771 -1.139,-0.688 -2.702,-0.354 -3.75,-1.221 -0.965,-0.799 -1.307,-2.777 -1.201,-3.955 0.062,-0.7 -0.411,-2.962 -0.879,-3.535 -1.32,-1.625 -3.029,0.243 -1.81,1.73 -0.514,0.07 -3.349,-3.846 -3.451,-0.579 m -37.73,13.97 c 0.031,-0.551 -0.48,-0.965 -0.383,-1.505 0.126,-0.699 0.541,-0.534 0.332,-1.229 -0.151,-0.507 -0.773,-2.076 -1.546,-1.784 -1.155,0.437 1.043,4.059 1.597,4.518 m -3.379,-4.82 c 0.227,0.854 1.222,0.459 1.526,-0.085 0.454,-0.81 -1.032,-2.033 -1.606,-2.365 -0.304,0.823 0.234,1.617 0.08,2.45 m -1.011,-3.461 c -0.187,-0.771 -1.17,-3.485 -2.229,-2.762 -1.168,0.799 1.697,2.445 2.229,2.762 m -5.54,-4.969 c 2.987,-0.421 -1.668,-6.247 -1.59,-7.63 -0.491,0.269 -1.323,0.138 -1.671,0.625 -0.5,0.701 -0.819,2.05 -0.287,2.802 1.009,1.422 1.594,3.783 3.548,4.203 m -5.91,-15.62 c 0.377,1.068 0.941,2.047 1.511,3.021 0.245,-0.798 -0.386,-3.15 -1.511,-3.021 m -4.89,-5.331 c 1.494,1.597 2.011,-2.856 1.348,-3.759 -0.782,-1.063 -2.03,-3.071 -3.265,-3.606 -0.913,-0.396 -1.437,0.892 -2.403,0.308 0.153,1.342 1.342,2.333 1.917,3.489 0.357,0.717 1.186,0.965 1.604,1.628 0.379,0.603 0.448,1.326 0.799,1.94 m -2.52,-40.104 c -0.635,0.37 -1.455,0.925 -2.245,0.706 -0.752,-0.209 -0.962,-0.89 -1.814,-0.912 -1.424,-0.037 -2.657,0.699 -4.121,0.558 -1.723,-0.166 -2.851,-0.73 -3.974,-2.021 -0.838,-0.963 -3.164,-2.305 -4.438,-1.413 -4.702,3.296 6.704,12.52 8.51,14.933 0.688,0.92 1.618,0.956 2.669,1.148 1.737,0.318 2.292,2.257 3.084,3.534 0.609,0.981 1.836,3.441 2.886,3.884 1.826,0.771 1.118,2.544 1.624,4.171 0.476,1.532 2.056,1.149 3.232,1.966 0.749,0.519 1.481,1.077 2.22,1.611 0.907,0.657 1.832,1.332 2.615,2.139 1.1,1.134 0.048,1.258 0.383,2.517 0.402,1.509 1.054,2.963 1.465,4.488 0.435,1.615 1.591,3.301 1.476,5.005 -0.122,1.797 1.271,0.694 1.954,1.501 1.117,1.321 2.759,1.013 3.063,3.171 0.396,2.813 4.102,4.64 4.732,7.59 0.09,0.422 -0.613,0.47 -0.279,0.925 0.453,0.617 0.853,1.268 1.197,1.951 0.781,1.548 2.401,3.582 2.461,5.338 0.058,1.698 0.016,2.776 1.061,4.249 0.787,1.109 1.992,1.89 2.653,3.085 0.788,1.424 1.2,2.859 2.454,3.991 1.241,1.12 2.979,1.871 3.738,3.444 0.75,1.552 0.617,2.463 2.053,3.645 1.455,1.197 2.746,2.562 4.139,3.829 1.205,1.095 2.377,2.129 3.824,2.883 1.443,0.752 1.635,1.31 2.348,2.596 0.378,0.682 0.874,1.321 1.352,1.936 0.411,0.438 0.855,0.84 1.334,1.204 0.295,0.266 -0.06,0.559 0.313,0.824 0.266,0.189 2.661,3.308 2.674,1.658 0.007,-0.967 -0.913,-1.706 -1.012,-2.661 -0.14,-1.342 1.969,0.391 2.221,0.614 1.793,1.591 3.544,1.598 3.33,-1.419 1.118,0.967 1.872,2.932 3.46,3.24 0.951,0.185 0.916,-2.691 0.938,-3.177 0.084,-1.872 0.363,-3.732 0.502,-5.603 0.073,-0.997 0.719,-2.411 0.274,-3.367 -0.343,-0.738 -0.582,-1.159 -0.347,-1.953 0.287,-0.965 1.07,-2.258 0.946,-3.288 -0.092,-0.764 -0.95,-0.797 -0.754,-1.83 0.17,-0.897 0.72,-1.68 1.171,-2.452 0.486,-0.833 0.868,-1.188 0.684,-2.226 -0.177,-0.987 -0.989,-0.585 -1.544,-1.165 -0.756,-0.791 -1.962,-3.43 -1.511,-4.46 -0.871,-0.142 -5.054,-1.242 -5.399,-0.36 -0.13,-0.259 -0.25,-0.521 -0.36,-0.789 -0.914,1.136 -1.032,2.736 -2.38,3.529 0.396,-0.587 2.229,-2.585 0.431,-2.6 0.972,-0.395 2.131,-1.244 1.97,-2.437 -0.121,-0.898 -1.065,-0.585 -1.626,-0.924 -0.57,-0.345 -0.886,-1.827 -1.015,-2.402 -0.38,-1.688 -0.785,-3.291 -0.997,-5.021 -0.131,-1.064 -3.248,-1.178 -4.163,-0.966 -0.72,0.167 -2.095,-1.254 -2.619,-1.69 -0.888,-0.737 -0.531,-2.284 -0.91,-3.33 0.399,0.482 0.995,0.575 1.51,0.209 -0.204,-0.833 -1.009,-0.943 -1.729,-1 0.584,-0.042 1.016,-0.455 1.16,-1.01 -0.487,-0.03 -0.968,0.017 -1.44,0.141 0.848,-0.248 1.352,-1 1.974,-1.562 0.479,-0.433 1.731,-0.306 2.022,-0.792 0.48,-0.803 -1.284,-2.545 -1.744,-3.063 -1.277,-1.436 -2.226,-1.316 -3.699,-0.269 -1.14,0.809 -4.025,2.855 -5.253,1.225 2.551,1.463 7.458,-3.06 2.811,-4.109 -0.741,-0.167 -1.505,0.154 -2.23,-0.141 -0.822,-0.333 -1.168,-1.265 -1.833,-1.792 -1.366,-1.083 -0.599,-3.308 -2.092,-4.458 -0.551,-0.424 -1.123,-1.082 -1.719,-1.425 -0.634,-0.366 -1.478,-0.053 -2.18,-0.418 -1.142,-0.595 -1.051,-2.362 -1.786,-3.332 -0.361,-0.478 -2.934,-2.989 -3.498,-1.49 -0.42,1.116 0.939,2.541 1.077,3.627 -0.469,-0.479 -0.604,-1.123 -0.985,-1.655 -0.631,-0.88 -1.784,-1.012 -2.545,-1.729 -1.259,-1.187 -1.389,-3.085 -2.59,-4.319 -0.344,0.466 -0.414,0.97 -0.21,1.512 -0.203,-0.362 -1.45,-2.813 -1.01,-0.864 -0.809,-0.93 0.397,-2.088 -0.828,-2.888 -1.11,-0.724 -1.971,-1.987 -3.062,-2.799 -1.255,-0.935 -2.268,-2.438 -3.724,-3.072 -0.518,-0.226 -1.073,-0.345 -1.587,-0.58 -0.888,-0.406 -0.754,-1.063 -1.33,-1.673 -0.756,-0.801 -2.096,-0.853 -2.859,-1.588 -0.96,-0.924 0.317,-2.541 -0.708,-3.378 -1.235,-1.009 -1.471,-1.019 -2.015,-2.608 -0.464,-1.349 -2.756,-3.145 -3.831,-4.097"
       stroke="#000000"
       stroke-width="0.5" />
       </svg>