<svg>
    <path
       id="syria"
       style="fill:#8f8f8f;fill-opacity:1"
       d="m 80.474357,204.06319 c 0.348,-0.477 1.077658,0.0842 0.205658,-0.46583 1.487,-2.477 2.486857,-5.74211 3.025857,-8.52411 0.166,-0.851 0.19,-2.25 0.878,-2.863 l 0.203,-1.961 c 1.59,-1.854 1.538,-5.199 2.888,-7.283 0.669,-1.032 -0.115,-2.426 0.653,-3.421 0.599,-0.774 2.236,-1.63 1.709,-2.832 l -0.85,-2.294 c -0.24,-1.265 0.715,-3.625 -0.437,-4.569 -0.923,-0.757 -0.861,-2.467 -0.896,-3.574 -0.026,-0.831 2.048,0.097 2.345,0.244 0.22,0.109 1.028,-0.788 1.362,-1.059 0.735,-0.596 0.061,-1.591 0.203,-2.356 0.705,0.17 1.454,-0.032 2.16,-0.071 -0.576,-1.157 -1.219,-1.457 -1.094,-2.849 0.045,-0.508 -0.139,-1.988 0.571,-2.165 0.534,-0.134 1.398,0.491 1.823,0.715 1.146,0.603 0.993,0.896 2.174,0.712 1.440998,-0.225 2.194998,-0.295 3.569998,-0.889 1.41,-0.609 2.947,-1.329 4.53,-1.102 1.169,0.167 1.73,0.922 2.719,1.385 1.126,0.528 3.375,0.543 4.576,0.304 3.057,-0.608 5.465,-1.868 8.258,-3.149 2.752,-1.263 5.859,0.364 8.839,-0.658 1.529,-0.525 3.702,-2.869 3.827,0.514 0.03,0.832 -1.976,2.516 -2.56,3.094 -1.059,1.049 -2.24,0.975 -3.433,1.675 -2.56,1.503 0.122,4.757 0.323,6.553 0.119,1.062 -0.523,2.365 -0.6,3.463 -0.113,1.635 0.373,3.3 0.146,4.903 -0.469,3.306 -2.869,4.237 -5.481,5.804 -3.313,1.988 -6.618,3.989 -9.96657,5.98825 0.72843,2.51126 1.12957,5.49975 2.01257,8.02975 -0.89,0.094 -0.309,1.309 0.264,1.456 0.908,0.233 2.436,-0.101 0.967,1.44 -1.76511,1.85252 0.56204,33.61739 1.55301,46.12625 0.17902,2.25967 13.46785,20.7135 20.59064,30.45974 2.08416,2.8518 14.49422,26.91241 19.44123,36.55254 1.25821,2.45185 0.99869,15.09681 0.99869,15.09681 l -8.92957,4.50066 c -0.416,-0.265 -2.431,-4.499 -2.315,-2.456 -0.187,-3.659 -2.723,-4.6 -4.741,-7.077 -0.764,-0.938 -1.842,-2.292 -2.2,-3.439 -0.463,-1.48 -1.298,-1.902 -2.056,-3.105 -0.444,-0.706 -0.066,-1.322 -0.578,-2.047 -0.365,-0.515 -0.975,-2.154 -1.216,-2.815 -0.226,-0.619 -0.363,-1.273 -0.653,-1.868 -0.267,-0.547 -0.824,-0.624 -1.092,-1.105 -0.256,-0.462 -0.005,-1.092 -0.359,-1.497 -0.359,-0.409 -0.945,-0.466 -1.334,-0.828 -0.977,-0.909 -2.108,-1.828 -2.971,-2.841 -1.047,-1.23 -2.274,-0.715 -3.455,-1.585 -1.959,-1.446 -3.262,-4.131 -4.493,-6.187 -0.717,-1.197 -0.511,-1.882 -0.571,-3.145 -0.066,-1.368 -1.056,-2.5 -1.158,-3.883 -0.134,-1.815 0.617,-3.62 0.256,-5.428 -0.165,-0.824 -0.615,-1.521 -1.057,-2.216 -0.232,-0.366 -1.639,-2.181 -0.051,-0.94 -0.349,-0.912 -1.142,-0.922 -1.348,-1.921 -0.185,-0.893 -0.623,-1.87 -0.972,-2.713 -0.966,-2.335 -2.851,-3.926 -4.618,-5.606 -1.289,-1.224 -2.566,-1.417 -4.138,-1.847 -0.67,-0.183 -0.99,-1.458 -1.187,-2.002 -0.422,-1.166 -1.238,-1.966 -1.969,-2.938 2.53,-0.922 -0.994,-5.075 -1.82,-6.08 -0.557,-0.675 -2.12,-1.905 -2.053,-2.796 0.117,-1.535 -1.86,-2.422 -2.525,-3.803 -2.015998,-4.19 -5.197998,-7.671 -7.431998,-11.782 -0.681,-1.252 -1.441,-3.183 -2.942,-3.606 -0.682,-0.192 -3.364,-0.638 -3.417,0.621 -0.897,-0.82 0.553,-2.975 0.805,-3.836 0.528,-1.805 0.174,-3.673 0.401,-5.505 0.296,-2.383 -2.574809,-3.1253 -0.513809,-2.8373 1.723,0.241 -6.879724,-17.79901 -5.160724,-18.02901"
       stroke="#000000"
       stroke-width="0.5" />
       </svg>