<svg>
    <path
       style="fill:#6e8d4e;fill-opacity:1"
       d="m 828.03987,177.29025 c -1.693,-1.61 1.109,-6.273 3.25,-3.672 -0.269,0.09 -0.536,0.186 -0.801,0.287 0.591,0.858 0.43,2.682 1.575,3.099 1.243,0.454 1.475,-1.476 1.398,-2.252 -0.097,-0.987 -1.063,-1.606 -1.161,-2.596 -0.206,-2.063 3.292,-0.451 3.878,0.165 0.571,-0.916 -2.383,-2.611 -0.43,-3.023 -1.082,-1.302 2.956,-1.842 1.838,0.615 -0.286,0.629 -0.4,4.41 0.711,4.697 0.431,0.111 2.902,-2.26 2.913,-2.8 0.018,-0.843 -0.613,-1.41 -0.643,-2.197 -0.047,-1.243 1.222,-1.694 2.09,-2.188 -2.339,-1.516 -3.985,-3.766 -4.765,-6.438 -0.285,-0.975 -0.408,-2.07 -0.386,-3.084 0.013,-0.62 0.118,-0.581 0.625,-0.815 0.458,-0.212 0.003,-0.636 -0.015,-0.967 -0.157,-2.909 -2.619,-5.204 -4.038,-7.523 -1.664,-2.718 -0.363,-5.159 2.679,-3.205 -22.32305,-35.72475 -11.77319,-29.39905 -15.072,-3.523 -0.267,1.884 1.591,5.177 -0.422,6.288 -2.305,1.271 -1.146,3.484 -2.309,5.635 -0.958,1.773 -3.076,1.865 -4.616,2.889 -0.961,0.64 -2.17,3.606 -3.592,1.114 -0.386,-0.676 -0.245,-1.604 -1.214,-1.782 -0.58,-0.106 -1.257,-1.249 -0.48,-1.11 1.626,0.289 1,-2.331 1.275,-2.814 -1.133,-0.316 -3.063,0.695 -3.426,1.814 -0.499,1.545 2.231,3.377 8.018,13.877 3.37972,9.94305 11.52343,9.26114 13.12,9.509 z"
       id="tokyo"
       stroke="#000000"
       stroke-width="0.5" />
       </svg>