<svg>
    <path
       id="tongking"
       style="fill:#54bff9;fill-opacity:1"
       d="m 578.48687,300.48125 c 0.287,-1.167 -0.085,-2.838 1.011,-3.672 0.628,-0.478 2.335,0.061 2.449,-1.008 -1.481,0.878 -0.299,-1.761 -0.112,-2.24 0.309,-0.792 0.3,-1.223 1.161,-1.605 0.725,-0.322 2.123,-1.06 1.901,-2.059 1.235,0.694 0.196,4.011 2.376,3.117 1.275,-0.523 1.307,0.074 2.416,0.5 1.565,0.601 0.158,-1.304 0.121,-1.427 -0.305,-1 0.276,-1.726 0.149,-2.649 -0.128,-0.924 -0.885,-1.799 -1.429,-2.514 -0.613,-0.807 -1.156,-1.583 -1.222,-2.639 -0.015,-0.238 0.753,-2.847 1.182,-2.32 0.432,0.53 0.339,0.847 1.297,0.6 1.478,-0.382 1.635,0.682 2.483,1.53 m -13.634,17.107 c -0.049,-0.241 -0.099,-0.481 -0.149,-0.721 m -14.43,15.264 c 0.445,0.857 2.298,0.823 2.909,0.195 0.737,-0.756 -0.72,-2.807 -0.529,-3.796 0.106,-0.551 0.544,-0.931 0.57,-1.512 0.041,-0.9 -0.688,-1.483 -0.444,-2.442 0.154,-0.611 1.266,-2.68 1.682,-2.604 1.22,0.226 2.414,0.754 3.667,0.48 0.595,-0.129 -2.835,-0.808 -2.244,-0.795 0.601,0.013 0.837,0.599 1.8875,-1.16 1.0505,-1.759 4.2715,-1.103 2.5425,-3.343 1.234,-0.062 4.552,-2.249 4.54,0.433 m 12.669,-18.432 c 1.348,0.063 1.071,-1.897 1.578,-2.671 0.825,-1.26 3.072,0.699 3.705,1.333 1.132,1.133 1.959,0.2 2.657,-0.994 0.96,-1.642 1.402,-0.101 2.14,0.748 0.274,-0.635 0.26,-2.187 1.254,-1.194 0.614,0.613 1.182,1.368 1.923,1.835 0.463,0.292 0.782,-2.749 2.083,-2.801 -0.372,2.019 3.378,0.194 3.985,-0.421 0.752,-0.76 -0.141,-1.278 0.023,-1.942 0.267,-1.082 2.592,-1.189 3.111,-2.388 1.066,1.475 2.415,2.638 4.047,3.425 1.277,0.617 2.453,-0.563 3.377,0.567 0.927,1.134 2.364,-0.626 3.492,0.502 0.572,0.573 1.268,2.896 -0.326,2.346 -0.008,1.967 1.037,3.412 1.65,5.327 0.569,-0.489 2.67,0.176 2.67,1.008 0,1.247 2.4,0.968 2.73,2.161 0.24,-0.144 0.48,-0.288 0.72,-0.433 0.388,1.019 1.069,0.258 1.915,0.002 1.061,-0.321 1.949,0.872 2.694,1.438 -0.864,0.757 -1.057,-0.684 -1.942,0.051 -0.802,0.666 -1.059,1.615 -2.14,1.783 -1.158,0.18 -0.246,1.235 -0.67,2 -0.413,0.745 -2.751,1.466 -1.577,0.126 -0.754,-0.183 -1.762,0.964 -1.801,1.368 -0.635,-0.355 -0.883,-1.538 -1.8,-1.225 0.284,0.308 0.617,0.547 1,0.72 -0.636,0.744 -0.156,1.112 0.326,1.902 0.402,0.658 -1.051,0.639 -1.326,0.474 0.327,0.681 0.51,2.588 -0.22,3.097 0.097,0.032 0.193,0.032 0.29,0 -0.078,0.545 -2.325,2.995 -2.811,2.376 -1.212,0.605 -1.601,2.421 -1.718,3.629 0,0 -54.12857,15.96832 -54.349,16.247 -0.568,-0.82 -0.304,-1.593 -0.574,-2.479 -0.245,-0.799 -1.093,-1.433 -0.917,-2.347 -1.491,0.437 -2.145,-1.528 -2.449,-2.594"
       stroke="#000000"
       stroke-width="0.5" />
       </svg>