<svg>
    <path
       style="fill:#9c6bae;fill-opacity:1"
       d="m 708.76987,-3.41875 c -0.534,0.479 -1.207,1.142 -1.479,1.818 -0.278,0.694 -1.139,0.63 -1.572,1.148 -0.456,0.543 -0.061,1.379 -0.41,1.986 -0.49,0.852 -1.386,1.154 -2.124,1.725 -2.343,1.813 0.55,3.036 1.985,3.467 2.055,0.616 3.743,0.843 5.88,0.663 1.477,-0.125 4.574,-0.404 4.781,1.769 0.041,0.422 1.045,1.085 1.298,1.429 0.568,0.775 0.966,1.479 1.229,2.396 0.532,1.861 2.353,0.959 3.629,0.71 -0.108,-0.463 -0.145,-1.151 -0.5,-1.512 -0.491,-0.499 -1.333,0.061 -1.665,-0.763 -0.674,-1.677 1.764,-1.35 2.665,-1.614 -0.147,0.744 -0.365,1.814 -1.37,1.729 1.056,1.236 3.033,1.085 4.471,1.439 -0.434,0.336 -1.523,3.08 -1.194,3.247 1.175,0.598 3.597,-0.013 4.64,-0.732 1.1,-0.758 0.023,-2.842 1.234,-2.658 1.232,0.187 0.883,2.941 0.72,3.744 2.184,-0.464 1.412,-1.419 0.5,-3.168 -0.488,-0.935 -0.751,-0.857 -1.439,-1.584 -0.639,-0.675 -0.461,-1.613 -1.58,-1.8 1.083,-0.281 2.327,0.324 3.347,0.612 1.432,0.405 2.249,-0.364 3.596,-0.502 2.404,-0.247 5.016,2.542 6.808,3.705 1.054,0.684 2.28,1.049 3.455,1.461 1.437,0.503 2.474,1.396 3.801,2.024 0.702,0.333 5.099,0.947 4.642,2.721 -0.245,0.95 -0.854,-1.119 -0.668,0.778 -1.107,-0.458 -2.481,-1.388 -3.739,-1.152 2.257,1.618 7.026,2.033 7.28,5.371 0.093,1.223 2.085,1.685 3.049,1.896 1.672,0.368 0.303,2.042 2.12,2.525 -0.97,0.646 0.085,1.764 -0.687,2.382 -0.706,0.565 -0.111,2.129 0.687,2.298 -1.32,0.821 0.396,2.091 0.94,2.766 0.74,0.918 0.455,2.4 1.115,3.418 0.703,1.083 3.137,5.087 4.785,4.545 -1.077,2.121 0.947,2.559 1.936,4.165 0.47,0.764 0.859,1.782 0.514,2.675 0.691,0.179 1.669,1.942 0.94,2.232 1.175,-0.433 1.39,2.319 1.953,3.134 1.436,2.076 -0.182,3.665 -1.122,5.597 -1.107,2.273 0.741,4.724 -0.582,6.936 -0.614,1.025 -0.148,2.74 0.111,3.823 0.162,0.398 0.335,0.792 0.516,1.182 0.016,0.742 -0.318,0.938 -0.076,1.804 0.55,1.97 -0.367,4.867 -1.263,6.633 -0.379,0.749 -0.597,1.437 -1.065,2.153 -0.619,0.945 -0.382,1.587 -0.712,2.6 -0.116,0.356 -0.126,1.961 -0.545,2.002 -1.204,0.116 0.274,1.862 -0.433,2.441 -0.862,0.707 -0.827,0.633 -1.032,1.727 -0.159,0.853 0.263,2.328 -0.65,2.881 1.461,0.729 -0.542,4.174 -1.354,4.992 -2.271,2.291 -4.421,3.654 -7.243,5.073 -0.865,0.435 -1.642,1.053 -2.336,0.055 -0.125,-0.18 -2.532,-0.832 -2.775,-0.82 -0.886,0.041 -2.093,-0.899 -2.805,-0.456 -0.352,0.219 -1.931,-3.109 -2.277,-3.516 0.099,0.474 -0.652,2.154 -1.22,2.159 -1.402,0.014 -0.061,-1.994 -1.506,-2.104 -1.908,-0.146 0.204,3.512 -1.734,3.184 0.668,0.368 0.473,2.186 0.29,2.952 -0.852,-0.403 -2.867,-1.206 -3.68,-0.36 1.387,0.722 1.852,1.356 1.66,2.952 -1.127,-1.439 -2.164,-3.104 -3.96,-3.6 0.729,-1.325 1.856,-1.215 3.107,-1.305 0.825,-0.059 0.347,-1.16 0.347,-1.646 10e-4,-2.78 -1.831,-3.731 -2.954,-6.05 -1.324,-2.732 -2.918,-5.082 -4.939,-7.352 -0.233,-0.262 -2.537,-2.104 -1.829,-2.354 0.917,-0.324 1.784,-0.087 2.414,-1.113 0.25,-0.407 0.63,-2.117 1.114,-2.214 0.981,-0.195 3.189,1 4.177,1.274 0.647,0.18 6.019,1.789 4.908,-0.327 -0.446,-0.851 -1.773,-2.369 -0.398,-3.058 1.097,-0.549 0.099,-1.438 -0.218,-2.129 -0.571,-1.253 1.141,-1.887 -0.329,-2.961 1.571,-0.784 0.114,-1.936 -0.349,-2.659 -0.286,-0.446 -0.022,-1.031 -0.151,-1.517 -0.226,-0.85 -0.799,-1.537 -1.025,-2.387 -0.158,-0.595 -0.018,-1.258 -0.268,-1.829 -0.271,-0.619 -1.156,-1.078 -0.77,-1.876 0.624,-1.289 1.893,-0.567 1.465,-2.385 -0.308,-1.312 -1.483,-1.671 -2.307,-2.64 -0.454,-0.534 -0.769,-1.164 -0.845,-1.868 -0.125,-1.15 -0.337,-0.756 -1.318,-1.273 -1.364,-0.72 -2.894,-0.425 -4.165,0.375 -0.219,0.138 -2.158,1.639 -1.974,1.712 -1.642,-0.657 -4.354,0.017 -4.354,2.162 0,1.523 -3.736,1.128 -4.911,1.275 -0.915,0.114 -1.184,0.141 -1.888,-0.401 -0.598,-0.46 -1.806,0.139 -2.439,0.248 -1.045,0.18 -5.45,-2.751 -5.415,-3.832 0.064,-1.941 -1.384,-2.802 -3.021,-3.688 -1.808,-0.977 0.151,-2.795 -2.736,-2.555 -2.063,0.172 -3.954,-0.948 -5.468,-2.302 -0.863,-0.771 -1.384,-0.782 -2.402,-1.089 -0.16,-0.048 -2.817,-2.392 -1.739,-0.473 -1.29,-0.53 -2.688,-0.371 -3.892,-1.162 -1.067,-0.701 -1.692,-0.942 -2.906,-0.857 -1.679,0.117 -2.552,0.291 -4.262,-0.114 -1.594,-0.377 -2.921,-1.391 -4.074,-2.53 -0.726,-0.717 -0.962,-2.296 -1.784,-2.773 -1.473,-0.855 -2.146,-1.149 -3.063,-2.685 -1.595,-2.67 -5.038,-3.522 -6.866,-6.067 -0.425,-0.591 -1.848,-1.917 -2.538,-2.168 -0.937,-0.341 -2.167,-1.842 -3.054,-2.435 -1.271,-0.851 -1.477,-2.091 -2.63,-2.959 -1.187,-0.895 -2.479,-1.68 -3.638,-2.606 -0.563,-0.449 -1.561,-0.296 -1.894,-1.035 -0.357,-0.792 -0.378,-0.752 -1.245,-1.217 -1.021,-0.548 -2.63,-0.899 -3.225,-1.876 -0.38,-0.624 -2.569,-0.924 -3.362,-1.241 -0.715,-0.286 -2.172,-0.802 -2.188,0.479 -1.231,-0.628 -2.694,-0.413 -3.927,-1.029 -0.631,-0.314 -1.156,-0.794 -1.787,-1.109 -0.7,-0.35 -1.513,-0.248 -2.212,-0.629 -2.972,-1.625 -6.295,-0.022 -9.454,-0.343 -2.784,-0.282 -5.358,1.228 -8.124,1.472 -2.844,0.25 -1.75,3.563 -4.156,4.375 0.958,1.062 1.387,1.315 2.81,1.225 0.973,-0.062 2.606,0.034 3.113,1.05 0.599,1.195 2.146,2.032 2.538,3.16 0.676,1.948 -0.86,1.897 -1.495,3.506 -0.468,1.188 0.11,2.782 0.216,4.005 0.058,0.669 0.135,1.504 -0.179,2.132 -0.348,0.695 0.522,1.266 0.354,1.984 -0.237,1.018 -0.316,1.688 -0.088,2.739 0.133,0.61 1.82,0.868 2.234,1.667 0.824,1.589 -2.757,1.891 -3.598,2.202 -1.23,0.455 -1.652,1.958 -2.476,2.869 -1,1.108 -3.452,-0.377 -4.643,-0.584 -1.565,-0.271 -3.215,-0.415 -4.622,-1.222 -1.555,-0.893 -5.69623,-1.71339 -7.19611,-1.2792 -0.83902,0.10318 -28.55292,-38.53278 -0.10558,-51.95692 23.66556,-11.16764 104.31869,2.46612 104.31869,2.46612 z"
       id="vladivostok"
       stroke="#000000"
       stroke-width="0.5" />
       </svg>